<svg xmlns="http://www.w3.org/2000/svg" xmlns:xlink="http://www.w3.org/1999/xlink" width="1080" zoomAndPan="magnify" viewBox="0 0 810 809.999993" height="1080" preserveAspectRatio="xMidYMid meet" version="1.0"><rect x="-81" width="972" fill="#ffffff" y="-80.999999" height="971.999992" fill-opacity="1"/><rect x="-81" width="972" fill="#ffffff" y="-80.999999" height="971.999992" fill-opacity="1"/><path fill="#16d6ba" d="M 548.738281 398.230469 C 547.023438 405.90625 541.050781 414.234375 533.597656 417.011719 C 526.128906 419.773438 513.550781 420.425781 506.082031 423.414062 C 498.625 426.394531 469.835938 433.226562 469.835938 433.226562 L 476.09375 566.941406 L 326.816406 566.941406 C 326.816406 566.941406 337.339844 480.453125 337.339844 476.753906 C 337.339844 473.050781 331.085938 435.214844 331.085938 435.214844 C 331.085938 435.214844 286.15625 438.0625 272.800781 423.84375 C 259.433594 409.609375 266.824219 392.832031 274.511719 379.175781 C 282.183594 365.519531 331.234375 325.828125 331.234375 325.828125 C 331.234375 325.828125 342.863281 317.472656 348.1875 312.457031 C 353.515625 307.4375 357.144531 305.203125 358.417969 306.164062 C 359.699219 307.125 370.1875 317.441406 373.167969 321.132812 C 374.183594 322.402344 375.144531 324.117188 375.957031 325.898438 C 377.515625 329.3125 378.523438 332.957031 378.429688 334.085938 C 378.289062 335.792969 340.609375 373.0625 340.609375 373.0625 L 375.769531 363.6875 C 375.769531 363.6875 387.816406 397.253906 405.292969 395.960938 C 422.78125 394.6875 420.933594 366.257812 420.933594 366.257812 L 486.039062 378.191406 C 486.039062 378.191406 473.277344 357.164062 470.992188 351.621094 C 468.726562 346.074219 463.601562 337.246094 463.601562 337.246094 C 463.601562 337.246094 470.328125 335.046875 474.410156 333.199219 C 477.523438 331.792969 481.074219 329.5625 483.90625 326.117188 C 490.441406 318.152344 492.148438 313.597656 492.148438 313.597656 C 492.148438 313.597656 492.164062 313.613281 492.203125 313.652344 C 493.75 315.078125 525.339844 344.265625 536.144531 361.960938 C 547.234375 380.105469 550.433594 390.5625 548.730469 398.238281 Z M 548.738281 398.230469 " fill-opacity="1" fill-rule="nonzero"/><path fill="#ff6c6c" d="M 447.90625 299.613281 C 447.90625 292.242188 453.875 286.277344 461.234375 286.277344 C 464.589844 286.277344 467.636719 287.515625 469.984375 289.558594 C 466.816406 285.503906 459.574219 283.867188 457.378906 283.789062 C 455.179688 283.71875 444.511719 291.042969 441.886719 290.550781 C 439.257812 290.050781 439.960938 287.492188 439.960938 287.492188 C 439.960938 287.492188 437.757812 288.34375 435.988281 287.84375 C 434.214844 287.351562 434.066406 285.003906 434.066406 285.003906 C 434.066406 285.003906 433.039062 285.160156 432.21875 284.652344 L 426.777344 284.488281 L 426.753906 284.488281 C 424.039062 284.730469 411.808594 284.816406 409.898438 285.574219 C 407.773438 286.429688 406.597656 290.902344 401.90625 299.871094 C 397.214844 308.832031 394.867188 310.960938 394.867188 310.960938 C 394.867188 310.960938 403.082031 312.457031 413.003906 313.628906 C 420.097656 314.472656 423.359375 314.992188 424.265625 315.835938 C 431.25 315.554688 433.046875 312.355469 433.046875 312.355469 C 433.046875 312.355469 433.148438 312.996094 436.566406 313.628906 C 436.644531 313.644531 436.722656 313.660156 436.816406 313.675781 C 437.609375 313.214844 438.671875 312.910156 439.8125 312.949219 C 442.964844 313.074219 449.839844 315.015625 458.417969 315.171875 C 466.996094 315.335938 468.359375 310.882812 468.695312 310.664062 C 466.566406 312.101562 464 312.949219 461.234375 312.949219 C 453.867188 312.949219 447.90625 306.976562 447.90625 299.621094 Z M 424.90625 312.941406 C 417.539062 312.941406 411.582031 306.96875 411.582031 299.613281 C 411.582031 292.257812 417.546875 286.277344 424.90625 286.277344 C 432.265625 286.277344 438.226562 292.25 438.226562 299.613281 C 438.226562 306.976562 432.257812 312.941406 424.90625 312.941406 Z M 424.90625 312.941406 " fill-opacity="1" fill-rule="nonzero"/><path fill="#363634" d="M 375.761719 364.464844 C 375.761719 364.464844 375.714844 364.464844 375.683594 364.464844 C 375.253906 364.425781 374.941406 364.042969 374.980469 363.609375 L 376.476562 347.820312 L 371.75 341.425781 C 371.492188 341.082031 371.570312 340.589844 371.914062 340.328125 C 372.261719 340.070312 372.753906 340.148438 373.011719 340.496094 L 378.09375 347.363281 L 376.546875 363.75 C 376.507812 364.160156 376.171875 364.464844 375.769531 364.464844 Z M 375.761719 364.464844 " fill-opacity="1" fill-rule="nonzero"/><path fill="#363634" d="M 420.925781 367.023438 C 420.535156 367.023438 420.199219 366.726562 420.152344 366.328125 L 418.457031 351.496094 L 418.988281 351.261719 C 419.121094 351.199219 432.546875 345.160156 434.207031 330.617188 C 434.582031 327.316406 434.769531 323.066406 434.746094 318.003906 C 434.746094 317.574219 435.089844 317.222656 435.527344 317.222656 C 435.957031 317.222656 436.308594 317.574219 436.308594 318.003906 C 436.324219 323.128906 436.144531 327.441406 435.753906 330.804688 C 434.183594 344.554688 422.742188 351.121094 420.128906 352.453125 L 421.691406 366.160156 C 421.738281 366.59375 421.433594 366.976562 421.003906 367.03125 C 420.972656 367.03125 420.941406 367.03125 420.910156 367.03125 Z M 420.925781 367.023438 " fill-opacity="1" fill-rule="nonzero"/><path fill="#363634" d="M 406.292969 332.839844 C 406.011719 332.839844 405.738281 332.683594 405.597656 332.417969 C 405.402344 332.035156 405.550781 331.566406 405.933594 331.363281 C 413.769531 327.285156 420.878906 329.625 421.175781 329.726562 C 421.582031 329.867188 421.800781 330.304688 421.667969 330.71875 C 421.527344 331.128906 421.082031 331.347656 420.675781 331.214844 C 420.605469 331.191406 413.878906 329 406.652344 332.753906 C 406.535156 332.816406 406.417969 332.839844 406.292969 332.839844 Z M 406.292969 332.839844 " fill-opacity="1" fill-rule="nonzero"/><path fill="#363634" d="M 412.503906 337.394531 C 412.191406 337.394531 411.902344 337.207031 411.777344 336.902344 C 411.621094 336.503906 411.816406 336.050781 412.214844 335.886719 L 413.839844 335.242188 C 414.238281 335.085938 414.695312 335.28125 414.859375 335.679688 C 415.015625 336.082031 414.820312 336.535156 414.421875 336.699219 L 412.792969 337.339844 C 412.699219 337.378906 412.597656 337.394531 412.503906 337.394531 Z M 412.503906 337.394531 " fill-opacity="1" fill-rule="nonzero"/><path fill="#363634" d="M 423.976562 321.414062 C 423.710938 321.414062 423.453125 321.28125 423.304688 321.039062 C 423.078125 320.671875 423.195312 320.1875 423.570312 319.96875 C 424.023438 319.695312 424.203125 319.367188 424.1875 319.222656 C 424.171875 319.089844 423.898438 318.777344 423.007812 318.519531 C 422.59375 318.402344 422.351562 317.964844 422.46875 317.550781 C 422.585938 317.136719 423.023438 316.890625 423.4375 317.011719 C 425.1875 317.511719 425.648438 318.371094 425.734375 319.003906 C 425.847656 319.84375 425.328125 320.71875 424.375 321.289062 C 424.25 321.367188 424.109375 321.398438 423.96875 321.398438 Z M 423.976562 321.414062 " fill-opacity="1" fill-rule="nonzero"/><path fill="#363634" d="M 419.300781 351.183594 C 419.300781 351.183594 413.003906 355.089844 400.265625 352.640625 C 387.523438 350.199219 384.96875 347.570312 384.96875 347.570312 C 384.96875 347.570312 389.550781 364.855469 400.265625 368.265625 C 410.980469 371.679688 420.933594 368.4375 420.933594 368.4375 L 419.308594 351.183594 Z M 419.300781 351.183594 " fill-opacity="1" fill-rule="nonzero"/><path fill="#363634" d="M 355.75 305.945312 C 355.75 305.945312 349.355469 295.8125 351.269531 286.640625 C 353.1875 277.46875 359.582031 278.101562 359.582031 278.101562 C 359.582031 278.101562 361.71875 259.539062 378.351562 254.632812 C 394.984375 249.726562 404.792969 250.148438 416.734375 252.496094 C 428.675781 254.84375 434.988281 243.105469 438.234375 246.738281 C 441.480469 250.367188 438.234375 259.96875 438.234375 259.96875 C 438.234375 259.96875 444.886719 257.832031 446.59375 262.316406 C 448.296875 266.800781 442.746094 274.234375 442.746094 274.234375 C 442.746094 274.234375 437.105469 276.074219 434.652344 278.109375 C 432.195312 280.144531 431.039062 281.347656 431.242188 282.664062 C 431.445312 283.976562 432.234375 284.660156 432.234375 284.660156 L 427.089844 283.796875 C 427.089844 283.796875 425.195312 279.816406 421.277344 278.109375 C 417.359375 276.402344 415.007812 275.660156 415.007812 275.660156 C 415.007812 275.660156 409.226562 272.34375 404.152344 273.40625 C 399.078125 274.46875 393.53125 274.691406 391.859375 276.871094 C 390.183594 279.054688 361.023438 303.894531 360.191406 304.613281 C 359.363281 305.335938 357.980469 305.945312 357.980469 305.945312 L 355.742188 305.945312 Z M 355.75 305.945312 " fill-opacity="1" fill-rule="nonzero"/><path fill="#363634" d="M 442.746094 287.804688 C 442.386719 287.945312 442.199219 288.007812 442.199219 288.007812 C 442.199219 288.007812 441.917969 287.984375 441.371094 287.945312 C 441.371094 287.945312 441.902344 287.90625 442.746094 287.804688 Z M 442.746094 287.804688 " fill-opacity="1" fill-rule="nonzero"/><path fill="#363634" d="M 313.792969 408.5625 C 313.550781 408.5625 313.308594 408.449219 313.160156 408.230469 C 312.910156 407.878906 312.988281 407.394531 313.339844 407.136719 C 325.140625 398.636719 334.527344 386.484375 339.75 372.90625 C 339.90625 372.5 340.359375 372.304688 340.757812 372.460938 C 341.164062 372.617188 341.359375 373.070312 341.203125 373.472656 C 335.871094 387.328125 326.292969 399.734375 314.246094 408.402344 C 314.105469 408.503906 313.949219 408.554688 313.792969 408.554688 Z M 313.792969 408.5625 " fill-opacity="1" fill-rule="nonzero"/><path fill="#363634" d="M 470.992188 433.570312 C 470.585938 433.570312 470.242188 433.25 470.210938 432.84375 C 469.578125 423.132812 467.683594 413.53125 464.597656 404.296875 C 464.457031 403.890625 464.683594 403.441406 465.089844 403.300781 C 465.496094 403.167969 465.941406 403.386719 466.082031 403.792969 C 469.21875 413.152344 471.132812 422.890625 471.777344 432.734375 C 471.808594 433.164062 471.476562 433.539062 471.046875 433.5625 C 471.03125 433.5625 471.015625 433.5625 470.992188 433.5625 Z M 470.992188 433.570312 " fill-opacity="1" fill-rule="nonzero"/><path fill="#363634" d="M 494.738281 398.136719 C 494.492188 398.136719 494.257812 398.027344 494.109375 397.824219 C 489.738281 391.914062 486.679688 384.972656 485.265625 377.757812 C 485.179688 377.335938 485.460938 376.921875 485.882812 376.84375 C 486.304688 376.765625 486.71875 377.039062 486.796875 377.460938 C 488.167969 384.449219 491.132812 391.171875 495.363281 396.902344 C 495.621094 397.246094 495.550781 397.738281 495.199219 397.996094 C 495.058594 398.097656 494.894531 398.152344 494.738281 398.152344 Z M 494.738281 398.136719 " fill-opacity="1" fill-rule="nonzero"/><path fill="#363634" d="M 475.417969 347.222656 C 475.097656 347.222656 474.792969 347.019531 474.683594 346.699219 C 474.542969 346.292969 474.753906 345.847656 475.160156 345.699219 C 479.542969 344.15625 483.851562 342.269531 487.957031 340.101562 C 490.722656 338.648438 494.273438 336.613281 497.214844 333.835938 C 500.140625 331.066406 502.09375 327.871094 502.878906 324.601562 C 502.980469 324.179688 503.402344 323.917969 503.816406 324.023438 C 504.238281 324.125 504.496094 324.546875 504.394531 324.960938 C 503.542969 328.527344 501.429688 331.988281 498.285156 334.96875 C 495.207031 337.878906 491.539062 339.984375 488.683594 341.488281 C 484.507812 343.6875 480.136719 345.605469 475.679688 347.167969 C 475.589844 347.199219 475.503906 347.214844 475.417969 347.214844 Z M 475.417969 347.222656 " fill-opacity="1" fill-rule="nonzero"/><path fill="#363634" d="M 374.511719 388.558594 C 374.308594 388.558594 374.113281 388.480469 373.957031 388.332031 L 373.527344 387.902344 C 373.222656 387.597656 373.222656 387.101562 373.527344 386.796875 C 373.832031 386.492188 374.324219 386.492188 374.628906 386.796875 L 375.058594 387.226562 C 375.363281 387.535156 375.363281 388.027344 375.058594 388.332031 C 374.902344 388.488281 374.707031 388.558594 374.503906 388.558594 Z M 374.511719 388.558594 " fill-opacity="1" fill-rule="nonzero"/><path fill="#363634" d="M 398.160156 404.179688 C 389.644531 404.179688 381.144531 399.835938 376.398438 392.707031 C 376.15625 392.347656 376.257812 391.859375 376.617188 391.617188 C 376.976562 391.375 377.460938 391.476562 377.703125 391.835938 C 382.980469 399.757812 393.1875 404.015625 402.515625 402.191406 C 402.941406 402.105469 403.355469 402.386719 403.433594 402.808594 C 403.519531 403.230469 403.238281 403.644531 402.8125 403.722656 C 401.28125 404.023438 399.71875 404.171875 398.160156 404.171875 Z M 398.160156 404.179688 " fill-opacity="1" fill-rule="nonzero"/><path fill="#363634" d="M 381.230469 523.257812 C 366.722656 523.257812 352.214844 522.1875 337.8125 520.050781 C 337.378906 519.988281 337.089844 519.589844 337.152344 519.160156 C 337.214844 518.726562 337.613281 518.4375 338.046875 518.5 C 366.472656 522.726562 395.300781 522.757812 423.734375 518.601562 C 424.15625 518.539062 424.554688 518.835938 424.617188 519.261719 C 424.679688 519.691406 424.382812 520.082031 423.953125 520.144531 C 409.773438 522.21875 395.503906 523.25 381.222656 523.25 Z M 381.230469 523.257812 " fill-opacity="1" fill-rule="nonzero"/><path fill="#363634" d="M 391.445312 533.050781 C 386.632812 533.050781 381.808594 532.765625 377.046875 532.195312 C 376.617188 532.140625 376.3125 531.757812 376.359375 531.328125 C 376.40625 530.898438 376.796875 530.589844 377.226562 530.640625 C 383.019531 531.328125 388.910156 531.59375 394.742188 531.4375 C 395.199219 531.421875 395.535156 531.765625 395.550781 532.195312 C 395.566406 532.625 395.222656 532.988281 394.789062 533.003906 C 393.679688 533.035156 392.5625 533.050781 391.445312 533.050781 Z M 391.445312 533.050781 " fill-opacity="1" fill-rule="nonzero"/><path fill="#363634" d="M 398.183594 488.921875 C 397.878906 488.921875 397.589844 488.742188 397.464844 488.445312 C 397.300781 488.042969 397.488281 487.582031 397.878906 487.417969 C 436.417969 471.210938 464.386719 423.359375 464.660156 422.882812 C 464.878906 422.503906 465.355469 422.378906 465.730469 422.589844 C 466.105469 422.8125 466.230469 423.289062 466.019531 423.664062 C 465.738281 424.148438 437.523438 472.449219 398.488281 488.859375 C 398.386719 488.898438 398.285156 488.921875 398.183594 488.921875 Z M 398.183594 488.921875 " fill-opacity="1" fill-rule="nonzero"/><path fill="#363634" d="M 459.308594 460.75 C 459.253906 460.75 459.199219 460.75 459.136719 460.734375 C 458.714844 460.640625 458.449219 460.226562 458.542969 459.800781 L 464.566406 432.625 C 464.660156 432.203125 465.082031 431.933594 465.496094 432.03125 C 465.917969 432.125 466.183594 432.539062 466.089844 432.960938 L 460.066406 460.136719 C 459.988281 460.507812 459.660156 460.75 459.300781 460.75 Z M 459.308594 460.75 " fill-opacity="1" fill-rule="nonzero"/><path fill="#363634" d="M 386.757812 327.144531 C 380.925781 327.144531 375.949219 326.675781 375.871094 326.667969 L 375.417969 326.621094 L 375.230469 326.203125 C 374.371094 324.320312 373.441406 322.730469 372.542969 321.601562 C 369.601562 317.957031 359.089844 307.644531 357.933594 306.773438 L 357.152344 306.195312 L 357.886719 305.5625 C 358.042969 305.429688 373.550781 292.03125 382.191406 284.332031 C 384.359375 282.40625 385.914062 280.957031 387.164062 279.792969 C 390.917969 276.300781 391.5 275.761719 395.292969 274.675781 C 399.773438 273.375 407.8125 271.378906 411.324219 272.554688 C 413.925781 273.421875 415.195312 274.660156 415.671875 275.238281 C 416.734375 275.425781 420.175781 276.089844 422.453125 277.414062 C 424.921875 278.859375 427.800781 282.992188 428.042969 284.089844 C 428.113281 284.394531 428.042969 284.621094 427.957031 284.769531 C 427.730469 285.183594 427.253906 285.222656 426.839844 285.253906 L 426.753906 285.253906 C 425.941406 285.332031 424.078125 285.394531 421.933594 285.464844 C 417.726562 285.605469 411.363281 285.816406 410.1875 286.285156 C 409.09375 286.726562 408.09375 288.863281 406.433594 292.40625 C 405.457031 294.488281 404.253906 297.078125 402.601562 300.222656 C 399.570312 306.023438 397.488281 309.003906 396.371094 310.421875 C 399.109375 310.890625 405.644531 311.960938 413.089844 312.839844 C 420.800781 313.753906 423.734375 314.261719 424.789062 315.25 C 425.078125 315.523438 425.679688 316.28125 424.960938 317.449219 C 423.96875 319.027344 420.605469 319.128906 415.960938 319.082031 C 415.0625 319.082031 414.214844 319.066406 413.550781 319.089844 C 412.527344 319.128906 410.800781 320.15625 408.804688 321.351562 C 405.519531 323.316406 401.023438 326 395.714844 326.660156 C 392.851562 327.019531 389.691406 327.136719 386.742188 327.136719 Z M 376.46875 325.148438 C 378.617188 325.328125 388.128906 326.039062 395.527344 325.109375 C 400.515625 324.492188 404.667969 322.011719 408.007812 320.015625 C 410.28125 318.660156 412.074219 317.589844 413.503906 317.535156 C 414.199219 317.511719 415.0625 317.519531 415.984375 317.527344 C 418.277344 317.542969 423.046875 317.589844 423.648438 316.625 C 423.75 316.460938 423.757812 316.390625 423.757812 316.390625 C 422.929688 315.648438 418.363281 315.054688 412.917969 314.402344 C 403.089844 313.246094 394.820312 311.742188 394.734375 311.726562 L 393.179688 311.445312 L 394.351562 310.382812 C 394.351562 310.382812 396.699219 308.152344 401.226562 299.503906 C 402.855469 296.390625 404.058594 293.824219 405.027344 291.75 C 406.976562 287.59375 407.945312 285.511719 409.617188 284.839844 C 410.949219 284.316406 415.75 284.113281 421.894531 283.90625 C 423.65625 283.851562 425.210938 283.796875 426.175781 283.734375 C 425.375 282.40625 423.421875 279.792969 421.675781 278.765625 C 419.277344 277.375 415.171875 276.738281 415.132812 276.730469 L 414.765625 276.675781 L 414.578125 276.363281 C 414.578125 276.363281 413.667969 274.980469 410.847656 274.039062 C 408.570312 273.28125 403.066406 274.054688 395.746094 276.175781 C 392.3125 277.171875 391.929688 277.523438 388.253906 280.941406 C 386.992188 282.109375 385.429688 283.5625 383.253906 285.503906 C 375.644531 292.28125 362.726562 303.464844 359.621094 306.15625 C 362.4375 308.707031 371.164062 317.394531 373.785156 320.632812 C 374.699219 321.777344 375.628906 323.324219 376.484375 325.148438 Z M 376.46875 325.148438 " fill-opacity="1" fill-rule="nonzero"/><path fill="#363634" d="M 424.90625 286.277344 C 417.539062 286.277344 411.582031 292.242188 411.582031 299.613281 C 411.582031 306.984375 417.539062 312.949219 424.90625 312.949219 C 432.273438 312.949219 438.234375 306.976562 438.234375 299.613281 C 438.234375 292.25 432.265625 286.277344 424.90625 286.277344 Z M 431.242188 299.613281 C 428.933594 299.613281 427.074219 297.742188 427.074219 295.441406 C 427.074219 293.140625 428.933594 291.273438 431.242188 291.273438 C 433.550781 291.273438 435.410156 293.132812 435.410156 295.441406 C 435.410156 297.75 433.542969 299.613281 431.242188 299.613281 Z M 431.242188 299.613281 " fill-opacity="1" fill-rule="nonzero"/><path fill="#363634" d="M 470.007812 289.582031 C 470.007812 289.582031 469.992188 289.566406 469.992188 289.558594 C 467.644531 287.515625 464.597656 286.277344 461.242188 286.277344 C 453.875 286.277344 447.90625 292.242188 447.90625 299.613281 C 447.90625 306.984375 453.875 312.949219 461.242188 312.949219 C 464 312.949219 466.566406 312.101562 468.695312 310.664062 L 468.710938 310.664062 C 472.238281 308.261719 474.558594 304.214844 474.558594 299.613281 C 474.558594 295.613281 472.800781 292.023438 470.007812 289.582031 Z M 465.863281 298.902344 C 463.5625 298.902344 461.695312 297.03125 461.695312 294.730469 C 461.695312 292.429688 463.5625 290.558594 465.863281 290.558594 C 468.164062 290.558594 470.03125 292.429688 470.03125 294.730469 C 470.03125 297.03125 468.164062 298.902344 465.863281 298.902344 Z M 465.863281 298.902344 " fill-opacity="1" fill-rule="nonzero"/><path fill="#363634" d="M 473.941406 334.257812 L 473.667969 333.4375 C 473.613281 333.261719 473.566406 333.121094 473.542969 333.019531 C 472.730469 331.972656 466.816406 324.546875 462.054688 323.902344 C 456.40625 323.128906 453.453125 322.097656 450.253906 320.578125 C 448.523438 319.757812 444.550781 318.949219 441.363281 318.308594 C 438.734375 317.777344 436.652344 317.355469 435.761719 316.964844 C 434.824219 316.539062 434.652344 315.851562 434.636719 315.476562 C 434.589844 314.601562 435.261719 313.675781 436.425781 313.003906 C 437.429688 312.425781 438.648438 312.132812 439.84375 312.171875 C 441.03125 312.21875 442.652344 312.503906 444.699219 312.855469 C 448.203125 313.464844 453 314.292969 458.433594 314.394531 C 465.410156 314.535156 467.222656 311.539062 467.816406 310.5625 C 467.933594 310.367188 468.03125 310.210938 468.171875 310.09375 L 468.265625 310.023438 C 471.710938 307.683594 473.777344 303.792969 473.777344 299.628906 C 473.777344 296.007812 472.214844 292.5625 469.492188 290.183594 L 469.226562 289.949219 L 469.226562 289.863281 C 466.253906 286.292969 459.660156 284.667969 457.363281 284.589844 C 457.363281 284.589844 457.355469 284.589844 457.347656 284.589844 C 456.550781 284.589844 453.59375 286.191406 451.207031 287.476562 C 446.539062 290.003906 443.355469 291.640625 441.753906 291.335938 C 440.742188 291.140625 440.007812 290.675781 439.5625 289.957031 C 439.273438 289.496094 439.15625 289.011719 439.125 288.570312 C 438.234375 288.777344 436.949219 288.941406 435.792969 288.609375 C 434.222656 288.171875 433.644531 286.726562 433.421875 285.816406 C 432.960938 285.785156 432.367188 285.667969 431.828125 285.332031 C 431.234375 284.972656 430.5 284.214844 430.46875 282.6875 C 430.375 279.179688 443.660156 272.492188 446.53125 271.980469 C 449.113281 271.527344 451.191406 272.199219 451.957031 272.515625 C 452.789062 272.238281 455.101562 271.605469 457.269531 272.246094 C 459.355469 272.867188 460.96875 275.042969 461.617188 276.050781 C 462.5625 275.878906 464.535156 275.761719 467.800781 276.621094 C 472.324219 277.804688 474.433594 282.289062 477.101562 287.960938 L 477.6875 289.207031 C 480.511719 295.167969 492.679688 312.996094 492.804688 313.175781 L 493.03125 313.511719 L 492.890625 313.894531 C 492.820312 314.082031 491.070312 318.660156 484.523438 326.636719 C 482.035156 329.664062 478.742188 332.113281 474.746094 333.929688 L 473.957031 334.289062 Z M 439.601562 313.722656 C 438.75 313.722656 437.90625 313.941406 437.207031 314.347656 C 436.386719 314.828125 436.183594 315.296875 436.199219 315.390625 C 436.199219 315.40625 436.261719 315.460938 436.402344 315.523438 C 437.136719 315.851562 439.34375 316.296875 441.675781 316.765625 C 445.117188 317.464844 449.027344 318.253906 450.925781 319.152344 C 453.984375 320.609375 456.824219 321.59375 462.265625 322.347656 C 467.800781 323.097656 474.128906 331.207031 474.832031 332.121094 C 478.273438 330.445312 481.121094 328.253906 483.304688 325.601562 C 488.636719 319.105469 490.714844 314.890625 491.265625 313.667969 C 489.480469 311.046875 478.953125 295.503906 476.265625 289.839844 L 475.679688 288.59375 C 473.183594 283.289062 471.203125 279.101562 467.394531 278.101562 C 463.304688 277.023438 461.539062 277.640625 461.515625 277.648438 L 460.890625 277.875 L 460.554688 277.296875 C 460.554688 277.296875 458.886719 274.320312 456.816406 273.710938 C 454.695312 273.085938 452.222656 274.039062 452.199219 274.046875 L 451.878906 274.171875 L 451.566406 274.015625 C 451.566406 274.015625 449.464844 273.015625 446.789062 273.484375 C 443.652344 274.046875 431.960938 280.621094 432.015625 282.609375 C 432.03125 283.273438 432.234375 283.71875 432.632812 283.953125 C 433.1875 284.300781 433.949219 284.207031 433.957031 284.207031 L 434.800781 284.074219 L 434.855469 284.933594 C 434.855469 284.933594 434.996094 286.734375 436.207031 287.070312 C 437.460938 287.421875 439.148438 286.953125 439.695312 286.742188 L 441.152344 286.175781 L 440.734375 287.679688 C 440.734375 287.679688 440.523438 288.507812 440.898438 289.097656 C 441.113281 289.433594 441.488281 289.652344 442.050781 289.761719 C 443.238281 289.988281 447.414062 287.71875 450.472656 286.066406 C 454.039062 284.136719 456.296875 282.96875 457.425781 282.992188 C 459.652344 283.070312 467.199219 284.707031 470.601562 289.042969 C 473.605469 291.6875 475.347656 295.542969 475.347656 299.605469 C 475.347656 304.253906 473.066406 308.589844 469.242188 311.234375 C 469.21875 311.265625 469.195312 311.304688 469.171875 311.351562 C 467.269531 314.503906 463.648438 316.046875 458.417969 315.945312 C 452.867188 315.84375 448 315 444.441406 314.378906 C 442.449219 314.035156 440.875 313.761719 439.789062 313.714844 C 439.726562 313.714844 439.671875 313.714844 439.609375 313.714844 Z M 469.148438 311.296875 L 469.117188 311.320312 C 469.117188 311.320312 469.140625 311.304688 469.148438 311.296875 Z M 469.148438 311.296875 " fill-opacity="1" fill-rule="nonzero"/><path fill="#363634" d="M 467.457031 325.71875 C 467.457031 325.71875 456.304688 338.011719 463.601562 337.238281 C 470.898438 336.464844 474.261719 332.675781 474.261719 332.675781 C 474.261719 332.675781 470.523438 327.253906 467.457031 325.726562 Z M 467.457031 325.71875 " fill-opacity="1" fill-rule="nonzero"/><path fill="#363634" d="M 475.640625 558.019531 L 327.996094 558.019531 C 327.566406 558.019531 327.214844 557.667969 327.214844 557.238281 C 327.214844 556.808594 327.566406 556.453125 327.996094 556.453125 L 475.640625 556.453125 C 476.070312 556.453125 476.421875 556.808594 476.421875 557.238281 C 476.421875 557.667969 476.070312 558.019531 475.640625 558.019531 Z M 475.640625 558.019531 " fill-opacity="1" fill-rule="nonzero"/><path fill="#363634" d="M 394.875 286.421875 C 394.671875 286.421875 394.460938 286.339844 394.304688 286.175781 C 394.007812 285.863281 394.023438 285.371094 394.335938 285.074219 C 394.773438 284.660156 405.152344 274.886719 415.265625 275.191406 C 415.695312 275.207031 416.039062 275.566406 416.023438 275.996094 C 416.007812 276.425781 415.65625 276.769531 415.21875 276.753906 C 405.777344 276.488281 395.511719 286.113281 395.410156 286.214844 C 395.261719 286.355469 395.0625 286.429688 394.867188 286.429688 Z M 394.875 286.421875 " fill-opacity="1" fill-rule="nonzero"/><path fill="#363634" d="M 434.714844 284.925781 C 434.535156 284.925781 434.355469 284.863281 434.207031 284.738281 C 433.878906 284.457031 433.839844 283.960938 434.121094 283.632812 C 439.875 276.941406 451.167969 272.773438 451.644531 272.601562 C 452.050781 272.453125 452.496094 272.664062 452.648438 273.070312 C 452.796875 273.476562 452.582031 273.921875 452.175781 274.070312 C 452.066406 274.109375 440.78125 278.28125 435.300781 284.660156 C 435.144531 284.839844 434.925781 284.933594 434.707031 284.933594 Z M 434.714844 284.925781 " fill-opacity="1" fill-rule="nonzero"/><path fill="#363634" d="M 440.257812 287.703125 C 440.109375 287.703125 439.953125 287.664062 439.820312 287.570312 C 439.460938 287.328125 439.367188 286.84375 439.609375 286.484375 C 443.355469 280.894531 460.320312 276.355469 461.039062 276.167969 C 461.453125 276.058594 461.882812 276.308594 461.992188 276.722656 C 462.101562 277.140625 461.851562 277.570312 461.4375 277.679688 C 461.265625 277.726562 444.324219 282.25 440.90625 287.351562 C 440.757812 287.578125 440.507812 287.695312 440.257812 287.695312 Z M 440.257812 287.703125 " fill-opacity="1" fill-rule="nonzero"/><path fill="#363634" d="M 331.085938 435.996094 C 330.710938 435.996094 330.382812 435.730469 330.320312 435.347656 C 330.25 434.925781 330.53125 434.519531 330.960938 434.449219 C 347.6875 431.597656 344.660156 404.453125 344.628906 404.179688 C 344.582031 403.746094 344.886719 403.355469 345.316406 403.308594 C 345.75 403.253906 346.140625 403.566406 346.1875 403.992188 C 346.21875 404.28125 349.417969 432.890625 331.226562 435.988281 C 331.179688 435.988281 331.140625 435.996094 331.09375 435.996094 Z M 331.085938 435.996094 " fill-opacity="1" fill-rule="nonzero"/><path fill="#363634" d="M 303.605469 349.59375 L 272.941406 349.59375 L 271.859375 334.523438 L 319.191406 259.695312 L 342.996094 259.695312 L 342.996094 317.519531 C 342.996094 317.949219 342.644531 318.300781 342.214844 318.300781 C 341.785156 318.300781 341.429688 317.949219 341.429688 317.519531 L 341.429688 261.261719 L 320.050781 261.261719 L 273.457031 334.921875 L 274.394531 348.03125 L 303.605469 348.03125 C 304.035156 348.03125 304.386719 348.382812 304.386719 348.8125 C 304.386719 349.242188 304.035156 349.59375 303.605469 349.59375 Z M 320.636719 331.558594 L 293.523438 331.558594 L 317.71875 293.117188 L 320.636719 288.054688 Z M 296.363281 329.992188 L 319.074219 329.992188 L 319.074219 293.910156 L 319.074219 293.925781 C 319.074219 293.925781 296.363281 329.992188 296.363281 329.992188 Z M 296.363281 329.992188 " fill-opacity="1" fill-rule="nonzero"/><path fill="#363634" d="M 428.261719 368.132812 C 428.035156 368.132812 427.808594 368.03125 427.660156 367.84375 C 427.386719 367.507812 427.433594 367.015625 427.769531 366.742188 C 429.488281 365.332031 431.085938 363.695312 432.507812 361.875 C 438.8125 353.796875 442.011719 341.925781 442.011719 326.589844 L 442.011719 317.792969 C 442.011719 317.363281 442.363281 317.011719 442.792969 317.011719 C 443.222656 317.011719 443.574219 317.363281 443.574219 317.792969 L 443.574219 326.589844 C 443.574219 342.277344 440.265625 354.476562 433.738281 362.835938 C 432.242188 364.753906 430.5625 366.476562 428.753906 367.953125 C 428.605469 368.070312 428.433594 368.132812 428.261719 368.132812 Z M 375.722656 362.171875 C 375.480469 362.171875 375.246094 362.0625 375.089844 361.851562 C 371.75 357.296875 369.289062 351.667969 367.777344 345.128906 C 367.683594 344.703125 367.941406 344.28125 368.363281 344.1875 C 368.789062 344.09375 369.210938 344.351562 369.304688 344.773438 C 370.773438 351.113281 373.144531 356.542969 376.359375 360.925781 C 376.617188 361.277344 376.539062 361.765625 376.195312 362.023438 C 376.054688 362.125 375.886719 362.171875 375.730469 362.171875 Z M 375.722656 362.171875 " fill-opacity="1" fill-rule="nonzero"/><path fill="#363634" d="M 537.585938 349.59375 L 526.535156 349.59375 C 526.105469 349.59375 525.753906 349.242188 525.753906 348.8125 C 525.753906 348.382812 526.105469 348.03125 526.535156 348.03125 L 536.019531 348.03125 L 536.019531 331.558594 L 523.257812 331.558594 L 523.257812 261.261719 L 501.875 261.261719 L 480.496094 295.058594 C 480.261719 295.425781 479.785156 295.535156 479.414062 295.300781 C 479.046875 295.074219 478.9375 294.589844 479.171875 294.222656 L 501.015625 259.695312 L 524.820312 259.695312 L 524.820312 329.992188 L 537.585938 329.992188 Z M 469.625 349.59375 L 454.765625 349.59375 L 453.6875 334.523438 L 461.039062 322.902344 C 461.265625 322.535156 461.75 322.425781 462.117188 322.660156 C 462.484375 322.886719 462.59375 323.371094 462.359375 323.738281 L 455.28125 334.929688 L 456.21875 348.039062 L 469.625 348.039062 C 470.054688 348.039062 470.40625 348.390625 470.40625 348.820312 C 470.40625 349.25 470.054688 349.601562 469.625 349.601562 Z M 501.679688 323.449219 C 501.25 323.449219 500.898438 323.097656 500.898438 322.667969 L 500.898438 293.910156 L 500.898438 293.925781 C 500.898438 293.925781 490.449219 310.507812 490.449219 310.507812 C 490.222656 310.875 489.738281 310.984375 489.371094 310.75 C 489.003906 310.523438 488.894531 310.039062 489.128906 309.667969 L 499.554688 293.117188 L 502.472656 288.054688 L 502.472656 322.667969 C 502.472656 323.097656 502.117188 323.449219 501.6875 323.449219 Z M 501.679688 323.449219 " fill-opacity="1" fill-rule="nonzero"/><path fill="#363634" d="M 326.605469 470.976562 C 326.277344 470.976562 325.96875 470.765625 325.859375 470.4375 C 325.726562 470.03125 325.945312 469.585938 326.363281 469.449219 C 329.121094 468.542969 330.859375 468.066406 330.882812 468.058594 C 331.296875 467.941406 331.726562 468.191406 331.84375 468.605469 C 331.960938 469.019531 331.710938 469.449219 331.296875 469.570312 C 331.28125 469.570312 329.574219 470.046875 326.855469 470.9375 C 326.777344 470.960938 326.691406 470.976562 326.613281 470.976562 Z M 326.605469 470.976562 " fill-opacity="1" fill-rule="nonzero"/><path fill="#363634" d="M 314.707031 529.777344 C 314.316406 529.777344 313.980469 529.488281 313.933594 529.089844 C 313.886719 528.660156 314.191406 528.265625 314.621094 528.21875 C 317.5625 527.875 320.597656 527.132812 323.65625 526.015625 C 324.0625 525.863281 324.507812 526.078125 324.65625 526.484375 C 324.804688 526.890625 324.59375 527.335938 324.1875 527.484375 C 321.019531 528.644531 317.859375 529.410156 314.804688 529.769531 C 314.769531 529.769531 314.738281 529.769531 314.707031 529.769531 Z M 305.253906 529.519531 C 305.207031 529.519531 305.160156 529.519531 305.113281 529.503906 C 301.898438 528.902344 298.832031 527.773438 296.003906 526.132812 C 295.625 525.910156 295.5 525.433594 295.714844 525.058594 C 295.933594 524.683594 296.410156 524.558594 296.785156 524.769531 C 299.457031 526.320312 302.359375 527.390625 305.402344 527.953125 C 305.824219 528.03125 306.105469 528.441406 306.027344 528.871094 C 305.957031 529.246094 305.628906 529.511719 305.261719 529.511719 Z M 332.484375 523.460938 C 332.21875 523.460938 331.953125 523.320312 331.8125 523.078125 C 331.59375 522.703125 331.71875 522.226562 332.09375 522.007812 C 334.753906 520.449219 337.332031 518.640625 339.773438 516.640625 C 340.109375 516.363281 340.601562 516.410156 340.875 516.75 C 341.148438 517.085938 341.101562 517.578125 340.765625 517.851562 C 338.265625 519.910156 335.613281 521.765625 332.882812 523.359375 C 332.757812 523.429688 332.625 523.46875 332.484375 523.46875 Z M 289.035156 520.292969 C 288.824219 520.292969 288.613281 520.207031 288.464844 520.042969 C 288.246094 519.808594 288.035156 519.574219 287.8125 519.332031 C 285.679688 516.90625 284.050781 514.449219 282.980469 512.023438 C 282.808594 511.621094 282.980469 511.160156 283.378906 510.988281 C 283.769531 510.816406 284.242188 510.988281 284.414062 511.386719 C 285.421875 513.664062 286.960938 515.988281 288.988281 518.289062 C 289.191406 518.523438 289.402344 518.75 289.605469 518.980469 C 289.902344 519.300781 289.878906 519.792969 289.566406 520.082031 C 289.417969 520.222656 289.222656 520.292969 289.035156 520.292969 Z M 347.117188 511.441406 C 346.929688 511.441406 346.75 511.378906 346.601562 511.246094 C 346.28125 510.957031 346.25 510.464844 346.53125 510.144531 C 348.25 508.195312 349.753906 506.230469 351.003906 504.265625 C 350.324219 504 349.683594 503.710938 349.070312 503.390625 C 348.6875 503.195312 348.539062 502.71875 348.734375 502.332031 C 348.929688 501.949219 349.410156 501.800781 349.792969 501.996094 C 350.425781 502.324219 351.105469 502.632812 351.832031 502.90625 C 351.894531 502.804688 351.949219 502.695312 352.011719 502.59375 C 352.222656 502.214844 352.699219 502.082031 353.078125 502.292969 C 353.453125 502.507812 353.585938 502.984375 353.375 503.359375 C 353.367188 503.375 353.359375 503.390625 353.34375 503.40625 C 354.929688 503.882812 356.695312 504.234375 358.613281 504.460938 C 359.042969 504.507812 359.347656 504.902344 359.300781 505.332031 C 359.253906 505.761719 358.855469 506.066406 358.433594 506.019531 C 356.273438 505.761719 354.296875 505.355469 352.519531 504.789062 C 351.183594 506.925781 349.574219 509.0625 347.703125 511.175781 C 347.546875 511.347656 347.335938 511.441406 347.117188 511.441406 Z M 368.003906 506.214844 C 367.597656 506.214844 367.253906 505.894531 367.222656 505.480469 C 367.199219 505.050781 367.527344 504.671875 367.957031 504.648438 L 368.484375 504.617188 C 371.421875 504.421875 374.425781 504.1875 377.414062 503.929688 C 377.84375 503.882812 378.226562 504.210938 378.257812 504.640625 C 378.296875 505.074219 377.976562 505.457031 377.546875 505.488281 C 374.550781 505.746094 371.539062 505.980469 368.59375 506.175781 L 368.050781 506.207031 C 368.050781 506.207031 368.019531 506.207031 368.003906 506.207031 Z M 386.9375 504.578125 C 386.546875 504.578125 386.203125 504.28125 386.164062 503.882812 C 386.117188 503.453125 386.429688 503.070312 386.859375 503.023438 C 389.996094 502.6875 393.164062 502.316406 396.285156 501.925781 C 396.714844 501.871094 397.105469 502.175781 397.160156 502.609375 C 397.214844 503.039062 396.910156 503.429688 396.480469 503.484375 C 393.351562 503.882812 390.167969 504.25 387.023438 504.585938 C 386.992188 504.585938 386.96875 504.585938 386.9375 504.585938 Z M 282.324219 503.21875 C 282.324219 503.21875 282.246094 503.21875 282.207031 503.210938 C 281.777344 503.148438 281.488281 502.75 281.550781 502.316406 C 282.003906 499.304688 283.324219 496.292969 285.476562 493.367188 C 285.734375 493.019531 286.21875 492.941406 286.570312 493.203125 C 286.914062 493.460938 286.992188 493.945312 286.734375 494.296875 C 284.742188 497.011719 283.511719 499.789062 283.097656 502.554688 C 283.042969 502.945312 282.707031 503.21875 282.324219 503.21875 Z M 405.800781 502.183594 C 405.417969 502.183594 405.089844 501.902344 405.027344 501.519531 C 404.964844 501.089844 405.261719 500.699219 405.683594 500.628906 C 408.835938 500.160156 411.988281 499.65625 415.054688 499.140625 C 415.484375 499.070312 415.882812 499.351562 415.953125 499.78125 C 416.023438 500.207031 415.742188 500.613281 415.3125 500.683594 C 412.238281 501.207031 409.070312 501.707031 405.910156 502.175781 C 405.871094 502.175781 405.832031 502.183594 405.792969 502.183594 Z M 424.539062 498.992188 C 424.171875 498.992188 423.84375 498.734375 423.773438 498.359375 C 423.6875 497.9375 423.96875 497.519531 424.390625 497.441406 C 427.519531 496.832031 430.648438 496.183594 433.675781 495.519531 C 434.097656 495.425781 434.511719 495.691406 434.605469 496.113281 C 434.699219 496.535156 434.433594 496.949219 434.011719 497.042969 C 430.96875 497.714844 427.832031 498.367188 424.6875 498.976562 C 424.640625 498.984375 424.585938 498.992188 424.539062 498.992188 Z M 343.175781 496.667969 C 342.847656 496.667969 342.542969 496.457031 342.433594 496.128906 C 342.066406 495.023438 341.878906 493.867188 341.878906 492.691406 C 341.878906 490.390625 342.589844 488.136719 343.871094 486.355469 C 344.121094 486.003906 344.613281 485.921875 344.964844 486.183594 C 345.316406 486.433594 345.394531 486.925781 345.136719 487.277344 C 344.058594 488.773438 343.433594 490.753906 343.441406 492.691406 C 343.441406 493.703125 343.597656 494.6875 343.910156 495.636719 C 344.042969 496.042969 343.824219 496.488281 343.417969 496.621094 C 343.339844 496.644531 343.253906 496.660156 343.175781 496.660156 Z M 443.089844 494.875 C 442.738281 494.875 442.425781 494.640625 442.332031 494.28125 C 442.230469 493.859375 442.480469 493.4375 442.902344 493.335938 C 446.015625 492.550781 449.097656 491.730469 452.058594 490.886719 C 452.472656 490.769531 452.90625 491.011719 453.03125 491.425781 C 453.148438 491.839844 452.90625 492.269531 452.488281 492.394531 C 449.511719 493.242188 446.414062 494.070312 443.285156 494.859375 C 443.222656 494.875 443.160156 494.882812 443.097656 494.882812 Z M 355.851562 494.859375 C 355.851562 494.859375 355.796875 494.859375 355.773438 494.859375 C 355.34375 494.8125 355.03125 494.429688 355.070312 494.007812 C 355.109375 493.59375 355.132812 493.1875 355.132812 492.792969 C 355.132812 491.167969 354.773438 489.734375 354.078125 488.539062 C 353.492188 487.527344 352.839844 486.714844 352.160156 486.113281 C 351.839844 485.820312 351.808594 485.328125 352.089844 485.007812 C 352.378906 484.6875 352.871094 484.65625 353.195312 484.9375 C 354 485.648438 354.75 486.597656 355.421875 487.746094 C 356.265625 489.1875 356.695312 490.886719 356.695312 492.792969 C 356.695312 493.242188 356.671875 493.703125 356.625 494.164062 C 356.585938 494.570312 356.242188 494.867188 355.851562 494.867188 Z M 461.367188 489.65625 C 461.039062 489.65625 460.734375 489.445312 460.625 489.117188 C 460.492188 488.703125 460.71875 488.261719 461.125 488.128906 C 464.183594 487.136719 467.191406 486.097656 470.070312 485.03125 C 470.476562 484.882812 470.921875 485.085938 471.070312 485.492188 C 471.21875 485.898438 471.015625 486.347656 470.609375 486.496094 C 467.707031 487.566406 464.683594 488.617188 461.601562 489.609375 C 461.523438 489.632812 461.4375 489.648438 461.359375 489.648438 Z M 292.75 487.847656 C 292.523438 487.847656 292.296875 487.746094 292.140625 487.558594 C 291.867188 487.222656 291.921875 486.730469 292.257812 486.457031 C 294.53125 484.609375 297.199219 482.777344 300.171875 481 C 300.546875 480.78125 301.023438 480.898438 301.242188 481.273438 C 301.460938 481.644531 301.34375 482.128906 300.96875 482.347656 C 298.058594 484.085938 295.460938 485.875 293.242188 487.667969 C 293.09375 487.785156 292.921875 487.839844 292.75 487.839844 Z M 479.179688 483.058594 C 478.875 483.058594 478.585938 482.878906 478.460938 482.582031 C 478.289062 482.183594 478.476562 481.722656 478.875 481.558594 C 481.847656 480.296875 484.742188 478.984375 487.480469 477.636719 C 487.871094 477.449219 488.339844 477.605469 488.527344 477.996094 C 488.714844 478.386719 488.558594 478.855469 488.167969 479.046875 C 485.398438 480.398438 482.480469 481.738281 479.488281 483.003906 C 479.382812 483.042969 479.28125 483.066406 479.179688 483.066406 Z M 308.960938 477.996094 C 308.671875 477.996094 308.390625 477.832031 308.257812 477.550781 C 308.070312 477.160156 308.234375 476.691406 308.625 476.507812 C 311.378906 475.195312 314.324219 473.910156 317.390625 472.699219 C 317.796875 472.535156 318.25 472.738281 318.40625 473.136719 C 318.5625 473.535156 318.367188 473.988281 317.96875 474.152344 C 314.9375 475.351562 312.019531 476.621094 309.296875 477.917969 C 309.1875 477.972656 309.070312 477.996094 308.960938 477.996094 Z M 496.222656 474.664062 C 495.949219 474.664062 495.691406 474.523438 495.542969 474.273438 C 495.324219 473.894531 495.457031 473.417969 495.832031 473.199219 C 498.640625 471.585938 501.328125 469.898438 503.824219 468.183594 C 504.183594 467.941406 504.667969 468.027344 504.910156 468.386719 C 505.152344 468.746094 505.066406 469.230469 504.707031 469.472656 C 502.171875 471.210938 499.453125 472.925781 496.613281 474.554688 C 496.488281 474.625 496.355469 474.65625 496.222656 474.65625 Z M 496.222656 474.664062 " fill-opacity="1" fill-rule="nonzero"/><path fill="#363634" d="M 511.839844 463.863281 C 511.613281 463.863281 511.394531 463.769531 511.238281 463.582031 C 510.964844 463.253906 511.003906 462.761719 511.332031 462.476562 C 512.535156 461.46875 513.699219 460.4375 514.8125 459.394531 C 515.125 459.097656 515.625 459.113281 515.914062 459.433594 C 516.210938 459.746094 516.195312 460.25 515.875 460.539062 C 514.75 461.59375 513.558594 462.652344 512.332031 463.675781 C 512.183594 463.800781 512.003906 463.855469 511.832031 463.855469 Z M 511.839844 463.863281 " fill-opacity="1" fill-rule="nonzero"/><path fill="#363634" d="M 533.152344 446.382812 C 533.152344 446.382812 514.40625 434.0625 512.652344 440.277344 C 510.902344 446.484375 526.410156 450.128906 526.410156 450.128906 C 526.410156 450.128906 511.308594 448.644531 514.007812 452.695312 C 516.703125 456.742188 531.132812 455.261719 534.636719 452.828125 C 538.140625 450.402344 533.152344 446.390625 533.152344 446.390625 Z M 533.152344 446.382812 " fill-opacity="1" fill-rule="nonzero"/><path fill="#363634" d="M 530.65625 458.269531 C 526.472656 458.269531 523.0625 455.8125 523.0625 452.796875 C 523.0625 449.785156 526.464844 447.328125 530.65625 447.328125 C 534.847656 447.328125 538.25 449.785156 538.25 452.796875 C 538.25 455.8125 534.847656 458.269531 530.65625 458.269531 Z M 530.65625 448.894531 C 527.386719 448.894531 524.625 450.683594 524.625 452.796875 C 524.625 454.910156 527.386719 456.703125 530.65625 456.703125 C 533.925781 456.703125 536.683594 454.910156 536.683594 452.796875 C 536.683594 450.683594 533.925781 448.894531 530.65625 448.894531 Z M 530.65625 448.894531 " fill-opacity="1" fill-rule="nonzero"/></svg>