<svg xmlns="http://www.w3.org/2000/svg" xmlns:xlink="http://www.w3.org/1999/xlink" width="1080" zoomAndPan="magnify" viewBox="0 0 810 809.999993" height="1080" preserveAspectRatio="xMidYMid meet" version="1.0"><defs><clipPath id="00ba88ba3d"><path d="M 285 670 L 552 670 L 552 695.097656 L 285 695.097656 Z M 285 670 " clip-rule="nonzero"/></clipPath></defs><rect x="-81" width="972" fill="#ffffff" y="-80.999999" height="971.999992" fill-opacity="1"/><rect x="-81" width="972" fill="#ffffff" y="-80.999999" height="971.999992" fill-opacity="1"/><g clip-path="url(#00ba88ba3d)"><path fill="#b4ced6" d="M 551.78125 682.71875 C 551.78125 682.921875 551.726562 683.125 551.621094 683.324219 C 551.511719 683.527344 551.351562 683.730469 551.140625 683.929688 C 550.925781 684.132812 550.660156 684.335938 550.339844 684.535156 C 550.019531 684.734375 549.644531 684.933594 549.21875 685.132812 C 548.796875 685.332031 548.316406 685.527344 547.789062 685.726562 C 547.257812 685.921875 546.675781 686.117188 546.042969 686.3125 C 545.410156 686.503906 544.726562 686.699219 543.992188 686.886719 C 543.257812 687.078125 542.472656 687.269531 541.636719 687.457031 C 540.800781 687.640625 539.917969 687.828125 538.984375 688.011719 C 538.054688 688.195312 537.074219 688.375 536.046875 688.554688 C 535.015625 688.730469 533.941406 688.90625 532.820312 689.082031 C 531.699219 689.253906 530.535156 689.425781 529.320312 689.59375 C 528.109375 689.761719 526.855469 689.929688 525.554688 690.09375 C 524.257812 690.253906 522.914062 690.414062 521.53125 690.570312 C 520.148438 690.726562 518.722656 690.882812 517.257812 691.03125 C 515.792969 691.179688 514.289062 691.328125 512.75 691.472656 C 511.207031 691.613281 509.628906 691.753906 508.011719 691.890625 C 506.394531 692.027344 504.746094 692.160156 503.058594 692.285156 C 501.371094 692.414062 499.652344 692.539062 497.902344 692.660156 C 496.148438 692.78125 494.367188 692.898438 492.554688 693.011719 C 490.742188 693.121094 488.898438 693.230469 487.027344 693.335938 C 485.15625 693.441406 483.261719 693.539062 481.335938 693.636719 C 479.414062 693.730469 477.464844 693.820312 475.496094 693.90625 C 473.523438 693.996094 471.53125 694.078125 469.515625 694.15625 C 467.5 694.230469 465.464844 694.304688 463.410156 694.375 C 461.359375 694.441406 459.289062 694.503906 457.199219 694.5625 C 455.113281 694.621094 453.011719 694.675781 450.898438 694.726562 C 448.78125 694.773438 446.652344 694.820312 444.515625 694.859375 C 442.375 694.898438 440.226562 694.933594 438.070312 694.960938 C 435.914062 694.992188 433.75 695.015625 431.578125 695.035156 C 429.40625 695.058594 427.234375 695.070312 425.054688 695.082031 C 422.875 695.089844 420.695312 695.097656 418.515625 695.097656 C 416.335938 695.097656 414.15625 695.089844 411.976562 695.082031 C 409.796875 695.070312 407.625 695.058594 405.453125 695.035156 C 403.285156 695.015625 401.121094 694.992188 398.960938 694.960938 C 396.804688 694.933594 394.65625 694.898438 392.515625 694.859375 C 390.378906 694.820312 388.25 694.773438 386.136719 694.726562 C 384.019531 694.675781 381.917969 694.621094 379.832031 694.5625 C 377.742188 694.503906 375.675781 694.441406 373.621094 694.375 C 371.566406 694.304688 369.53125 694.230469 367.519531 694.15625 C 365.503906 694.078125 363.507812 693.996094 361.539062 693.90625 C 359.566406 693.820312 357.617188 693.730469 355.695312 693.636719 C 353.773438 693.539062 351.875 693.441406 350.003906 693.335938 C 348.132812 693.230469 346.292969 693.125 344.476562 693.011719 C 342.664062 692.898438 340.882812 692.78125 339.128906 692.660156 C 337.378906 692.539062 335.660156 692.414062 333.972656 692.285156 C 332.289062 692.160156 330.636719 692.027344 329.019531 691.890625 C 327.40625 691.753906 325.824219 691.613281 324.285156 691.472656 C 322.742188 691.328125 321.238281 691.179688 319.773438 691.03125 C 318.308594 690.882812 316.882812 690.726562 315.5 690.570312 C 314.117188 690.414062 312.777344 690.253906 311.476562 690.09375 C 310.175781 689.929688 308.921875 689.761719 307.710938 689.59375 C 306.5 689.425781 305.332031 689.253906 304.210938 689.082031 C 303.089844 688.90625 302.015625 688.730469 300.988281 688.554688 C 299.957031 688.375 298.976562 688.195312 298.046875 688.011719 C 297.113281 687.828125 296.230469 687.640625 295.394531 687.457031 C 294.558594 687.269531 293.777344 687.078125 293.042969 686.886719 C 292.304688 686.699219 291.621094 686.503906 290.988281 686.3125 C 290.355469 686.117188 289.773438 685.921875 289.246094 685.726562 C 288.714844 685.527344 288.238281 685.332031 287.8125 685.132812 C 287.386719 684.933594 287.011719 684.734375 286.691406 684.535156 C 286.375 684.335938 286.105469 684.132812 285.894531 683.929688 C 285.679688 683.730469 285.519531 683.527344 285.410156 683.324219 C 285.304688 683.125 285.25 682.921875 285.25 682.71875 C 285.25 682.515625 285.304688 682.3125 285.410156 682.109375 C 285.519531 681.910156 285.679688 681.707031 285.894531 681.503906 C 286.105469 681.304688 286.375 681.101562 286.691406 680.902344 C 287.011719 680.703125 287.386719 680.5 287.8125 680.304688 C 288.238281 680.105469 288.714844 679.90625 289.246094 679.710938 C 289.773438 679.515625 290.355469 679.320312 290.988281 679.125 C 291.621094 678.929688 292.304688 678.738281 293.042969 678.546875 C 293.777344 678.355469 294.558594 678.167969 295.394531 677.980469 C 296.230469 677.792969 297.113281 677.609375 298.046875 677.425781 C 298.976562 677.242188 299.957031 677.0625 300.988281 676.882812 C 302.015625 676.703125 303.089844 676.527344 304.210938 676.355469 C 305.332031 676.179688 306.5 676.007812 307.710938 675.839844 C 308.921875 675.671875 310.175781 675.507812 311.476562 675.34375 C 312.777344 675.179688 314.117188 675.023438 315.5 674.863281 C 316.882812 674.707031 318.308594 674.554688 319.773438 674.40625 C 321.238281 674.253906 322.742188 674.109375 324.285156 673.964844 C 325.824219 673.820312 327.40625 673.683594 329.019531 673.546875 C 330.636719 673.410156 332.289062 673.277344 333.972656 673.148438 C 335.660156 673.019531 337.378906 672.894531 339.128906 672.777344 C 340.882812 672.65625 342.664062 672.539062 344.476562 672.425781 C 346.292969 672.3125 348.132812 672.203125 350.003906 672.101562 C 351.875 671.996094 353.773438 671.898438 355.695312 671.800781 C 357.617188 671.707031 359.566406 671.613281 361.539062 671.527344 C 363.507812 671.441406 365.503906 671.359375 367.519531 671.28125 C 369.53125 671.203125 371.566406 671.132812 373.621094 671.0625 C 375.675781 670.996094 377.742188 670.929688 379.832031 670.871094 C 381.917969 670.8125 384.019531 670.757812 386.136719 670.710938 C 388.25 670.660156 390.378906 670.617188 392.515625 670.578125 C 394.65625 670.539062 396.804688 670.503906 398.960938 670.472656 C 401.121094 670.445312 403.285156 670.417969 405.453125 670.398438 C 407.625 670.378906 409.796875 670.363281 411.976562 670.355469 C 414.15625 670.34375 416.335938 670.339844 418.515625 670.339844 C 420.695312 670.339844 422.875 670.34375 425.054688 670.355469 C 427.234375 670.363281 429.40625 670.378906 431.578125 670.398438 C 433.75 670.417969 435.914062 670.445312 438.070312 670.472656 C 440.226562 670.503906 442.375 670.539062 444.515625 670.578125 C 446.652344 670.617188 448.78125 670.660156 450.898438 670.710938 C 453.011719 670.757812 455.113281 670.8125 457.199219 670.871094 C 459.289062 670.929688 461.359375 670.996094 463.410156 671.0625 C 465.464844 671.132812 467.5 671.203125 469.515625 671.28125 C 471.53125 671.359375 473.523438 671.441406 475.496094 671.527344 C 477.464844 671.613281 479.414062 671.707031 481.335938 671.800781 C 483.261719 671.898438 485.15625 671.996094 487.027344 672.101562 C 488.898438 672.203125 490.742188 672.3125 492.554688 672.425781 C 494.367188 672.539062 496.148438 672.65625 497.902344 672.777344 C 499.652344 672.894531 501.371094 673.019531 503.058594 673.148438 C 504.746094 673.277344 506.394531 673.410156 508.011719 673.546875 C 509.628906 673.683594 511.207031 673.820312 512.75 673.964844 C 514.289062 674.109375 515.792969 674.253906 517.257812 674.40625 C 518.722656 674.554688 520.148438 674.707031 521.53125 674.867188 C 522.914062 675.023438 524.257812 675.179688 525.554688 675.34375 C 526.855469 675.507812 528.109375 675.671875 529.320312 675.839844 C 530.535156 676.007812 531.699219 676.179688 532.820312 676.355469 C 533.941406 676.527344 535.015625 676.703125 536.046875 676.882812 C 537.074219 677.0625 538.054688 677.242188 538.984375 677.425781 C 539.917969 677.609375 540.800781 677.792969 541.636719 677.980469 C 542.472656 678.167969 543.257812 678.355469 543.992188 678.546875 C 544.726562 678.738281 545.410156 678.929688 546.042969 679.125 C 546.675781 679.320312 547.257812 679.515625 547.789062 679.710938 C 548.316406 679.90625 548.796875 680.105469 549.21875 680.304688 C 549.644531 680.5 550.019531 680.703125 550.339844 680.902344 C 550.660156 681.101562 550.925781 681.304688 551.140625 681.503906 C 551.351562 681.707031 551.511719 681.910156 551.621094 682.109375 C 551.726562 682.3125 551.78125 682.515625 551.78125 682.71875 Z M 551.78125 682.71875 " fill-opacity="1" fill-rule="nonzero"/></g><path fill="#ee7d78" d="M 488.140625 180.003906 C 488.140625 180.003906 480.796875 187.828125 483.851562 190.363281 C 486.914062 192.902344 499.222656 201.023438 501.210938 195.671875 Z M 488.140625 180.003906 " fill-opacity="1" fill-rule="nonzero"/><path fill="#f79f92" d="M 525.570312 197.101562 C 525.570312 197.101562 525.589844 180.660156 503.269531 168.097656 C 503.269531 168.097656 494.21875 158.410156 488.617188 157.066406 C 483.011719 155.71875 471.121094 157.308594 471.804688 161.25 C 472.492188 165.199219 479.734375 165.648438 485.007812 165.835938 C 490.285156 166.023438 491.347656 171.664062 491.347656 171.664062 C 491.347656 171.664062 483.992188 178.910156 485.007812 182.507812 C 486.015625 186.101562 489.574219 187.042969 489.574219 187.042969 C 489.574219 187.042969 490.117188 190.496094 496.027344 191.847656 C 496.027344 191.847656 496.867188 194.792969 500.324219 197.113281 C 501.863281 198.148438 505.546875 198.472656 507.222656 197.613281 C 507.222656 197.613281 508.492188 212.464844 525.570312 197.101562 Z M 525.570312 197.101562 " fill-opacity="1" fill-rule="nonzero"/><path stroke-linecap="round" transform="matrix(0.660022, 0, 0, 0.659135, 58.308898, 76.894228)" fill="none" stroke-linejoin="round" d="M 654.369014 165.019119 C 657.77799 157.812701 662.139822 152.070088 669.431242 146.487485 " stroke="#d04a49" stroke-width="6.634" stroke-opacity="1" stroke-miterlimit="1.5"/><path stroke-linecap="round" transform="matrix(0.660022, 0, 0, 0.659135, 58.308898, 76.894228)" fill="none" stroke-linejoin="round" d="M 663.737779 172.148494 C 667.750428 164.699097 671.680219 160.692898 678.350212 155.762191 " stroke="#d04a49" stroke-width="6.634" stroke-opacity="1" stroke-miterlimit="1.5"/><path stroke-linecap="round" transform="matrix(0.660022, 0, 0, 0.659135, 58.308898, 76.894228)" fill="none" stroke-linejoin="round" d="M 678.350212 174.56051 C 678.350212 174.56051 684.339593 178.691162 689.672036 177.197727 " stroke="#d04a49" stroke-width="6.634" stroke-opacity="1" stroke-miterlimit="1.5"/><path stroke-linecap="round" transform="matrix(0.660022, 0, 0, 0.659135, 58.308898, 76.894228)" fill="none" stroke-linejoin="round" d="M 684.008165 177.517749 L 680.711638 182.371413 " stroke="#d04a49" stroke-width="6.634" stroke-opacity="1" stroke-miterlimit="1.5"/><path fill="#f79f92" d="M 521.292969 200.390625 L 525.570312 195.664062 C 525.570312 195.664062 563.371094 259.472656 557.78125 275.160156 C 554.066406 285.597656 510.871094 283.804688 510.871094 283.804688 L 506.191406 242.574219 L 525.050781 244.566406 L 508.683594 201.523438 Z M 521.292969 200.390625 " fill-opacity="1" fill-rule="nonzero"/><path fill="#ee7d78" d="M 518.253906 243.847656 L 532.929688 283.402344 C 521.671875 284.257812 510.871094 283.808594 510.871094 283.808594 L 506.195312 242.582031 Z M 518.253906 243.847656 " fill-opacity="1" fill-rule="nonzero"/><path fill="#3e6a9f" d="M 377.363281 639.855469 C 371.167969 653.753906 366.558594 668.355469 366.25 684.828125 L 424.515625 685.117188 C 424.765625 669.546875 418.144531 655.628906 407.910156 643.65625 Z M 377.363281 639.855469 " fill-opacity="1" fill-rule="nonzero"/><path fill="#d4eef7" d="M 423.144531 672.257812 L 367.238281 672.863281 C 366.671875 676.746094 366.328125 680.734375 366.25 684.828125 L 424.515625 685.117188 C 424.589844 680.695312 424.105469 676.410156 423.144531 672.257812 Z M 423.144531 672.257812 " fill-opacity="1" fill-rule="nonzero"/><path fill="#f79f92" d="M 424.515625 509.347656 L 407.492188 647.136719 C 397.078125 651.699219 386.503906 650.960938 375.8125 646.144531 L 384.484375 509.683594 Z M 424.515625 509.347656 " fill-opacity="1" fill-rule="nonzero"/><path fill="#ee7d78" d="M 421.941406 530.195312 C 409.703125 529.074219 396.808594 526.628906 383.6875 522.25 L 384.484375 509.675781 L 424.523438 509.339844 Z M 421.941406 530.195312 " fill-opacity="1" fill-rule="nonzero"/><path fill="#3e6a9f" d="M 441.988281 643.664062 L 471.804688 646.988281 C 490.207031 650 501.355469 658.441406 508.074219 678.125 L 432.667969 677.523438 C 432.277344 666.46875 435.457031 652.582031 441.988281 643.664062 Z M 441.988281 643.664062 " fill-opacity="1" fill-rule="nonzero"/><path fill="#d4eef7" d="M 433.035156 668.894531 L 505.59375 671.789062 C 506.484375 673.753906 507.308594 675.863281 508.082031 678.117188 L 432.671875 677.519531 C 432.574219 674.78125 432.699219 671.867188 433.035156 668.894531 Z M 433.035156 668.894531 " fill-opacity="1" fill-rule="nonzero"/><path fill="#f79f92" d="M 483.945312 502.035156 L 471.851562 648.753906 C 461.121094 651.21875 450.746094 650.359375 440.613281 647.242188 L 444.070312 509.683594 Z M 483.945312 502.035156 " fill-opacity="1" fill-rule="nonzero"/><path fill="#ee7d78" d="M 481.949219 526.199219 C 471.359375 528.539062 458.230469 530.542969 443.53125 530.859375 L 444.066406 509.683594 L 483.945312 502.035156 Z M 481.949219 526.199219 " fill-opacity="1" fill-rule="nonzero"/><path fill="#e3b585" d="M 380.492188 410.277344 L 370.875 510.269531 C 392.1875 516.035156 414.65625 518.289062 438.238281 517.175781 L 438.757812 513.214844 C 457.015625 516.675781 475.613281 519.082031 494.40625 517.300781 L 491.269531 409.03125 C 457.273438 415.328125 418.957031 412.875 380.492188 410.277344 Z M 380.492188 410.277344 " fill-opacity="1" fill-rule="nonzero"/><path fill="#ce9167" d="M 491.433594 414.695312 C 466.464844 420.519531 420.125 428.628906 379.429688 421.277344 L 380.484375 410.277344 C 418.953125 412.875 457.273438 415.328125 491.265625 409.03125 Z M 491.433594 414.695312 " fill-opacity="1" fill-rule="nonzero"/><path fill="#ce9167" d="M 438.824219 513.222656 L 444.5625 456.402344 L 462.277344 454.210938 C 454.535156 457.308594 453.917969 506.710938 468.949219 517.402344 L 466.386719 517.222656 C 459.4375 516.496094 459.898438 516.558594 452.519531 515.5625 Z M 438.824219 513.222656 " fill-opacity="1" fill-rule="nonzero"/><path fill="#afac35" d="M 412.914062 438.058594 L 415.910156 438.132812 C 417.84375 435.714844 419.980469 433.367188 422.140625 431.296875 C 419.59375 432.8125 416.792969 434.796875 413.976562 437.136719 Z M 412.914062 438.058594 " fill-opacity="1" fill-rule="nonzero"/><path fill="#afac35" d="M 430.714844 437.796875 L 428.613281 434.019531 L 427.90625 432.867188 L 427.511719 432.175781 L 426.851562 431.144531 L 425.664062 429.203125 L 424.035156 426.75 L 423.433594 425.8125 L 423.109375 425.367188 C 421.902344 423.585938 420.6875 421.898438 419.480469 420.296875 L 419.335938 420.097656 L 418.78125 419.394531 L 416.773438 416.796875 L 415.824219 415.648438 L 415.335938 415.03125 L 414.78125 414.390625 L 413.921875 413.351562 L 411.976562 411.140625 L 411.53125 410.628906 L 411.203125 410.257812 L 410.6875 409.71875 L 408.042969 406.890625 L 406.8125 405.671875 L 406.300781 405.136719 L 405.765625 404.628906 C 404.496094 403.375 403.363281 402.324219 402.390625 401.453125 L 398.867188 398.480469 C 411.003906 406.433594 419.84375 417.984375 425.652344 427.539062 C 427.988281 431.390625 429.835938 434.917969 431.175781 437.777344 Z M 430.714844 437.796875 " fill-opacity="1" fill-rule="nonzero"/><path fill="#afac35" d="M 370.960938 431.902344 L 368.144531 435.3125 L 371.667969 431.046875 L 372.183594 430.488281 L 374.042969 428.402344 L 374.914062 427.496094 L 375.371094 427 L 375.871094 426.5 L 376.664062 425.667969 L 378.441406 423.921875 L 378.84375 423.511719 L 379.144531 423.222656 L 379.613281 422.800781 L 382.015625 420.59375 L 383.125 419.652344 L 383.585938 419.234375 L 384.070312 418.847656 C 385.210938 417.878906 386.226562 417.074219 387.09375 416.414062 L 390.222656 414.179688 C 382.539062 418.261719 376.109375 424.265625 371.058594 430.261719 L 370.863281 431.882812 Z M 370.960938 431.902344 " fill-opacity="1" fill-rule="nonzero"/><path fill="#afac35" d="M 433.605469 430.492188 L 433.589844 430.929688 L 431.160156 430.949219 Z M 433.605469 430.492188 " fill-opacity="1" fill-rule="nonzero"/><path fill="#afac35" d="M 433.695312 426.367188 L 433.695312 426.421875 L 433.433594 426.492188 Z M 433.695312 426.367188 " fill-opacity="1" fill-rule="nonzero"/><path fill="#afac35" d="M 477.746094 433.742188 L 478.101562 433.703125 L 478.195312 428.800781 L 478.273438 427.519531 L 478.292969 426.761719 L 478.386719 425.617188 L 478.519531 423.453125 L 478.796875 420.6875 L 478.882812 419.632812 L 478.953125 419.117188 C 479.179688 417.09375 479.449219 415.15625 479.746094 413.289062 L 479.78125 413.058594 L 479.929688 412.230469 L 480.460938 409.183594 L 480.742188 407.820312 L 480.882812 407.085938 L 481.058594 406.316406 L 481.316406 405.070312 L 481.96875 402.386719 L 482.117188 401.769531 L 482.226562 401.320312 L 482.417969 400.648438 L 483.382812 397.15625 L 483.871094 395.613281 L 484.0625 394.945312 L 484.289062 394.292969 C 484.789062 392.707031 485.277344 391.339844 485.707031 390.207031 L 487.34375 386.238281 C 480.691406 397.917969 478.414062 411.425781 477.800781 422.011719 C 477.535156 426.597656 477.582031 430.636719 477.746094 433.742188 Z M 477.746094 433.742188 " fill-opacity="1" fill-rule="nonzero"/><path fill="#eaeaea" d="M 487.34375 431.019531 C 486.863281 431.132812 486.371094 431.25 485.859375 431.363281 C 466.167969 435.734375 433.714844 434.140625 398.925781 431.421875 C 398.386719 431.382812 397.832031 431.335938 397.289062 431.296875 L 397.289062 246.179688 L 482.484375 243.601562 L 485.691406 367.414062 L 486.5625 400.917969 Z M 487.34375 431.019531 " fill-opacity="1" fill-rule="nonzero"/><path fill="#e0dfdf" d="M 487.34375 366.828125 L 486.558594 400.917969 L 485.859375 431.363281 C 466.167969 435.734375 433.714844 434.136719 398.925781 431.421875 L 415.613281 292.320312 C 415.613281 292.320312 437.769531 382.863281 485.691406 367.421875 C 486.234375 367.230469 486.789062 367.03125 487.34375 366.828125 Z M 487.34375 366.828125 " fill-opacity="1" fill-rule="nonzero"/><path fill="#f79f92" d="M 418.226562 217.855469 C 418.226562 217.855469 421.480469 234 414.316406 238.851562 C 414.316406 238.851562 424.910156 266.019531 446.277344 262.214844 C 467.640625 258.414062 459.148438 240.101562 459.148438 240.101562 L 451.4375 235.824219 C 451.4375 235.824219 450.144531 233.414062 449.628906 224.785156 Z M 418.226562 217.855469 " fill-opacity="1" fill-rule="nonzero"/><path fill="#ee7d78" d="M 418.933594 227.433594 C 425.691406 235.554688 440.019531 248.234375 459.066406 240.0625 L 451.429688 235.824219 C 451.429688 235.824219 450.136719 233.414062 449.621094 224.785156 L 418.226562 217.855469 C 418.226562 217.855469 419.148438 222.425781 418.933594 227.433594 Z M 418.933594 227.433594 " fill-opacity="1" fill-rule="nonzero"/><path fill="#ee7d78" d="M 471.78125 184.941406 C 477.871094 184.054688 483.390625 187.28125 484.101562 192.128906 C 484.816406 196.980469 480.445312 201.648438 474.355469 202.53125 C 468.269531 203.414062 462.742188 200.199219 462.03125 195.339844 C 461.324219 190.484375 465.695312 185.824219 471.78125 184.941406 Z M 471.78125 184.941406 " fill-opacity="1" fill-rule="nonzero"/><path fill="#f79f92" d="M 428.679688 144.332031 C 461.160156 139.992188 467.636719 155.292969 471.648438 178.511719 C 475.660156 201.734375 468.875 225.457031 449.425781 228.785156 C 428.125 232.421875 410.484375 216.953125 406.464844 193.734375 C 402.449219 170.511719 409.125 146.941406 428.679688 144.332031 Z M 428.679688 144.332031 " fill-opacity="1" fill-rule="nonzero"/><path fill="#573433" d="M 401 204.609375 C 401 204.609375 389.296875 180.515625 394.242188 162.074219 C 399.191406 143.636719 413.445312 121.789062 421.195312 122.066406 C 428.9375 122.339844 425.121094 129.441406 425.121094 129.441406 C 425.121094 129.441406 436.648438 118.40625 447.027344 120.054688 C 457.410156 121.703125 452.988281 126.996094 452.988281 126.996094 C 452.988281 126.996094 465.820312 123.671875 470.421875 129.257812 C 475.019531 134.839844 468.824219 143.796875 468.824219 143.796875 C 468.824219 143.796875 475.804688 142.503906 478.664062 148.515625 C 481.671875 154.84375 474.414062 162.695312 474.414062 162.695312 C 475.390625 173.574219 474.433594 185.183594 472.550781 196.15625 C 471.890625 182.921875 471.410156 174.28125 466.710938 161.910156 C 451.167969 160.367188 434.964844 161.691406 417.136719 164.355469 L 415.960938 183.792969 C 413.722656 192.058594 411.070312 197.660156 412.9375 204.601562 Z M 401 204.609375 " fill-opacity="1" fill-rule="nonzero"/><path fill="#784e48" d="M 405.769531 136.441406 C 411.175781 127.96875 417.105469 121.917969 421.203125 122.066406 C 428.945312 122.339844 425.128906 129.441406 425.128906 129.441406 C 425.128906 129.441406 436.652344 118.40625 447.035156 120.054688 C 457.417969 121.703125 452.996094 126.996094 452.996094 126.996094 C 452.996094 126.996094 465.828125 123.671875 470.425781 129.257812 C 475.027344 134.839844 468.828125 143.796875 468.828125 143.796875 C 468.828125 143.796875 475.8125 142.503906 478.671875 148.515625 C 479.21875 149.667969 479.429688 150.875 479.398438 152.074219 C 474.40625 144.648438 466.710938 146.3125 466.710938 146.3125 C 469.292969 122.03125 451.445312 131.152344 451.445312 131.152344 C 447.378906 114.570312 424.429688 134.488281 424.429688 134.488281 C 422.199219 125.675781 412.894531 130.859375 405.769531 136.441406 Z M 405.769531 136.441406 " fill-opacity="1" fill-rule="nonzero"/><path fill="#e43c3f" d="M 416.636719 154.554688 L 414.046875 154.09375 L 405.152344 204.148438 L 407.738281 204.609375 Z M 416.636719 154.554688 " fill-opacity="1" fill-rule="nonzero"/><path fill="#e43c3f" d="M 440.738281 154.046875 C 440.515625 153.101562 439.914062 152.199219 439.082031 151.535156 C 438.242188 150.867188 437.242188 150.492188 436.289062 150.492188 C 430.949219 150.492188 420.996094 150.492188 415.664062 150.492188 C 414.707031 150.492188 413.890625 150.867188 413.375 151.535156 C 412.859375 152.199219 412.703125 153.101562 412.925781 154.046875 C 413.355469 155.839844 413.910156 158.132812 414.488281 160.539062 C 416.324219 168.125 424.035156 174.28125 431.714844 174.28125 C 439.398438 174.28125 444.136719 168.125 442.308594 160.539062 C 441.730469 158.132812 441.167969 155.839844 440.738281 154.046875 Z M 440.738281 154.046875 " fill-opacity="1" fill-rule="nonzero"/><path fill="#204f79" d="M 439.285156 157.335938 C 438.878906 155.628906 437.140625 154.25 435.417969 154.25 L 418.335938 154.25 C 416.613281 154.25 415.546875 155.632812 415.957031 157.335938 C 416.167969 158.199219 416.402344 159.195312 416.65625 160.242188 C 418.191406 166.609375 424.652344 171.761719 431.097656 171.761719 C 431.097656 171.761719 431.097656 171.761719 431.101562 171.761719 C 437.542969 171.761719 441.519531 166.601562 439.988281 160.242188 C 439.734375 159.1875 439.492188 158.199219 439.285156 157.335938 Z M 439.285156 157.335938 " fill-opacity="1" fill-rule="nonzero"/><path fill="#cadff3" d="M 436.832031 156.714844 C 436.679688 156.082031 436.03125 155.570312 435.394531 155.570312 C 433.03125 155.570312 427.691406 155.570312 425.335938 155.570312 C 424.695312 155.570312 424.296875 156.082031 424.449219 156.714844 C 424.460938 156.78125 424.484375 156.847656 424.496094 156.914062 C 424.648438 157.546875 425.292969 158.058594 425.933594 158.058594 C 428.296875 158.058594 433.636719 158.058594 435.992188 158.058594 C 436.632812 158.058594 437.03125 157.546875 436.878906 156.914062 C 436.863281 156.839844 436.84375 156.773438 436.832031 156.714844 Z M 436.832031 156.714844 " fill-opacity="1" fill-rule="nonzero"/><path fill="#e43c3f" d="M 473.332031 154.046875 C 473.101562 153.101562 472.507812 152.199219 471.667969 151.535156 C 470.828125 150.867188 469.828125 150.492188 468.875 150.492188 C 463.542969 150.492188 453.582031 150.492188 448.25 150.492188 C 447.292969 150.492188 446.46875 150.867188 445.960938 151.535156 C 445.445312 152.199219 445.285156 153.101562 445.511719 154.046875 C 445.941406 155.839844 446.496094 158.132812 447.074219 160.539062 C 448.902344 168.125 456.621094 174.28125 464.300781 174.28125 C 471.984375 174.28125 476.730469 168.125 474.894531 160.539062 C 474.320312 158.132812 473.765625 155.839844 473.332031 154.046875 Z M 473.332031 154.046875 " fill-opacity="1" fill-rule="nonzero"/><path fill="#204f79" d="M 471.878906 157.335938 C 471.46875 155.628906 469.734375 154.25 468.011719 154.25 L 450.929688 154.25 C 449.207031 154.25 448.136719 155.632812 448.546875 157.335938 C 448.757812 158.199219 448.996094 159.195312 449.246094 160.242188 C 450.785156 166.609375 457.246094 171.761719 463.6875 171.761719 C 463.6875 171.761719 463.6875 171.761719 463.695312 171.761719 C 470.136719 171.761719 474.109375 166.601562 472.578125 160.242188 C 472.328125 159.1875 472.082031 158.199219 471.878906 157.335938 Z M 471.878906 157.335938 " fill-opacity="1" fill-rule="nonzero"/><path fill="#cadff3" d="M 469.421875 156.714844 C 469.273438 156.082031 468.625 155.570312 467.984375 155.570312 C 465.621094 155.570312 460.28125 155.570312 457.917969 155.570312 C 457.277344 155.570312 456.882812 156.082031 457.035156 156.714844 C 457.046875 156.78125 457.066406 156.847656 457.082031 156.914062 C 457.234375 157.546875 457.878906 158.058594 458.519531 158.058594 C 460.882812 158.058594 466.222656 158.058594 468.585938 158.058594 C 469.226562 158.058594 469.621094 157.546875 469.46875 156.914062 C 469.457031 156.839844 469.4375 156.773438 469.421875 156.714844 Z M 469.421875 156.714844 " fill-opacity="1" fill-rule="nonzero"/><path fill="#e43c3f" d="M 448.699219 151.113281 C 444.679688 149.917969 440.753906 149.941406 436.910156 151.113281 L 436.910156 154.25 C 441.042969 152.957031 444.976562 152.9375 448.699219 154.25 Z M 448.699219 151.113281 " fill-opacity="1" fill-rule="nonzero"/><path fill="#f79f92" d="M 407.433594 188.269531 C 414.042969 188.945312 418.964844 193.671875 418.4375 198.8125 C 417.902344 203.957031 412.113281 207.574219 405.507812 206.894531 C 398.898438 206.214844 393.976562 201.492188 394.503906 196.347656 C 395.03125 191.214844 400.828125 187.589844 407.433594 188.269531 Z M 407.433594 188.269531 " fill-opacity="1" fill-rule="nonzero"/><path fill="#573433" d="M 439.320312 175.957031 C 430.296875 173.679688 424.871094 177.371094 422.332031 183.785156 C 426.878906 180.957031 432.460938 178.960938 438.710938 179.964844 Z M 439.320312 175.957031 " fill-opacity="1" fill-rule="nonzero"/><path fill="#573433" d="M 456.640625 175.285156 C 463.660156 173.503906 469.46875 174.042969 469.992188 181.578125 C 466.527344 177.773438 460.875 177.972656 456.058594 179.964844 Z M 456.640625 175.285156 " fill-opacity="1" fill-rule="nonzero"/><path stroke-linecap="round" transform="matrix(0.660022, 0, 0, 0.659135, 58.308898, 76.894228)" fill="none" stroke-linejoin="round" d="M 601.251726 158.820178 C 597.712547 172.338136 605.619477 182.507719 605.998252 185.58941 C 606.388863 188.742218 603.447438 192.268384 600.642135 194.50261 " stroke="#d04a49" stroke-width="6.383" stroke-opacity="1" stroke-miterlimit="1.5"/><path fill="#30385b" d="M 435.242188 191.472656 C 435.242188 191.886719 435.1875 192.289062 435.085938 192.675781 C 434.980469 193.058594 434.832031 193.398438 434.636719 193.695312 C 434.445312 193.988281 434.222656 194.214844 433.96875 194.375 C 433.71875 194.535156 433.453125 194.617188 433.183594 194.617188 C 432.910156 194.617188 432.644531 194.535156 432.394531 194.375 C 432.140625 194.214844 431.917969 193.988281 431.726562 193.695312 C 431.53125 193.398438 431.382812 193.058594 431.277344 192.675781 C 431.175781 192.289062 431.121094 191.886719 431.121094 191.472656 C 431.121094 191.054688 431.175781 190.652344 431.277344 190.269531 C 431.382812 189.882812 431.53125 189.542969 431.726562 189.25 C 431.917969 188.953125 432.140625 188.726562 432.394531 188.566406 C 432.644531 188.40625 432.910156 188.328125 433.183594 188.328125 C 433.453125 188.328125 433.71875 188.40625 433.96875 188.566406 C 434.222656 188.726562 434.445312 188.953125 434.636719 189.25 C 434.832031 189.542969 434.980469 189.882812 435.085938 190.269531 C 435.1875 190.652344 435.242188 191.054688 435.242188 191.472656 Z M 435.242188 191.472656 " fill-opacity="1" fill-rule="nonzero"/><path fill="#30385b" d="M 462.300781 188.335938 C 463.4375 188.335938 464.359375 189.738281 464.359375 191.476562 C 464.359375 193.210938 463.4375 194.621094 462.300781 194.621094 C 461.167969 194.621094 460.242188 193.21875 460.242188 191.476562 C 460.242188 189.738281 461.167969 188.335938 462.300781 188.335938 Z M 462.300781 188.335938 " fill-opacity="1" fill-rule="nonzero"/><path fill="#ffffff" d="M 454.546875 209.808594 C 448.988281 210.289062 442.851562 208.089844 436.542969 205.097656 C 436.542969 205.097656 434.332031 216.691406 442.191406 218.976562 C 453.875 222.378906 454.546875 209.808594 454.546875 209.808594 Z M 454.546875 209.808594 " fill-opacity="1" fill-rule="nonzero"/><path fill="#afac35" d="M 416.996094 233.683594 C 432.554688 275.136719 436.191406 348.003906 433.453125 437.644531 C 413.59375 439.175781 392.839844 437.632812 370.875 431.882812 C 379.078125 369.925781 380.941406 308.707031 380.203125 250.976562 C 390.953125 243.429688 397.84375 239.429688 416.996094 233.683594 Z M 416.996094 233.683594 " fill-opacity="1" fill-rule="nonzero"/><path fill="#dfd152" d="M 428.179688 280.429688 C 428.179688 280.429688 428.039062 252.496094 417.480469 232.378906 C 417.480469 232.378906 405.363281 234.730469 400.839844 239.996094 L 403.472656 269.488281 C 403.472656 269.492188 419.402344 268.433594 428.179688 280.429688 Z M 428.179688 280.429688 " fill-opacity="1" fill-rule="nonzero"/><path fill="#e4d85c" d="M 409.804688 437.949219 C 408.066406 435.679688 406.570312 432.828125 405.261719 429.710938 L 407.816406 428.148438 L 410.390625 426.769531 L 407.605469 427.699219 C 406.703125 428.054688 405.8125 428.445312 404.925781 428.871094 L 403.785156 425.894531 C 403.382812 424.671875 402.980469 423.460938 402.578125 422.242188 L 401.816406 419.464844 C 403.765625 419.023438 405.769531 418.78125 407.777344 418.714844 L 410.773438 418.753906 C 411.757812 418.851562 412.742188 418.953125 413.722656 419.050781 L 410.628906 418.007812 C 407.507812 417.09375 404.3125 416.566406 401.046875 416.636719 L 400.570312 414.890625 L 399.21875 408.675781 C 401.066406 408.628906 402.925781 408.820312 404.714844 409.164062 L 401.871094 408.15625 L 398.964844 407.4375 C 397.792969 401.351562 397.289062 396.96875 397.289062 396.96875 C 400.425781 396.851562 404.734375 397.753906 409.386719 399.402344 L 409.441406 401.519531 L 409.644531 403.648438 L 409.996094 399.613281 C 413.875 401.015625 417.96875 402.914062 421.804688 405.144531 L 420.976562 407.484375 L 420.324219 409.914062 C 420.933594 408.445312 421.644531 406.957031 422.429688 405.5 L 425.15625 407.199219 L 426.695312 408.273438 C 424.8125 410.964844 423.292969 413.921875 422.019531 417.019531 C 423.804688 414.285156 425.960938 411.703125 428.382812 409.507812 C 430.488281 411.101562 432.390625 412.789062 433.953125 414.535156 L 433.695312 426.375 L 433.433594 426.492188 L 433.695312 426.421875 L 433.609375 430.5 L 431.167969 430.953125 L 433.597656 430.933594 L 433.453125 437.644531 L 431.175781 437.777344 C 429.835938 434.921875 427.992188 431.398438 425.652344 427.539062 C 419.847656 417.984375 411.003906 406.433594 398.867188 398.480469 L 402.390625 401.453125 C 403.363281 402.320312 404.503906 403.375 405.765625 404.628906 L 406.300781 405.136719 L 406.8125 405.671875 L 408.042969 406.890625 L 410.6875 409.71875 L 411.203125 410.257812 L 411.53125 410.628906 L 411.976562 411.140625 L 413.921875 413.347656 L 414.78125 414.390625 L 415.335938 415.03125 L 415.824219 415.648438 L 416.773438 416.796875 L 418.78125 419.394531 L 419.335938 420.097656 L 419.480469 420.296875 C 420.6875 421.898438 421.902344 423.585938 423.109375 425.367188 L 423.433594 425.8125 L 424.035156 426.75 L 425.664062 429.203125 L 426.851562 431.144531 L 427.511719 432.175781 L 427.910156 432.867188 L 428.613281 434.019531 L 430.714844 437.796875 C 425.835938 438.113281 420.898438 438.238281 415.910156 438.132812 C 417.84375 435.714844 419.980469 433.367188 422.140625 431.296875 C 419.59375 432.8125 416.792969 434.796875 413.976562 437.136719 L 412.917969 438.058594 L 410.722656 438.007812 Z M 409.804688 437.949219 " fill-opacity="1" fill-rule="nonzero"/><path fill="#e4d85c" d="M 377.871094 358.191406 C 379.621094 356.953125 381.6875 355.90625 383.917969 355.023438 C 385.265625 357.601562 386.308594 360.441406 387.027344 363.316406 C 386.800781 360.269531 386.347656 357.277344 385.542969 354.417969 L 387.007812 353.902344 L 389.554688 353.175781 C 389.804688 354.660156 389.988281 356.15625 390.101562 357.601562 L 390.195312 355.304688 L 390.128906 353.039062 C 393.679688 352.15625 397.347656 351.628906 400.722656 351.476562 L 399.996094 355.089844 L 400.683594 353.289062 L 401.25 351.464844 C 405.289062 351.3125 408.878906 351.707031 411.300781 352.675781 C 411.300781 352.675781 409.824219 356.355469 407.402344 361.316406 L 404.953125 361.144531 L 402.476562 361.238281 C 403.960938 361.429688 405.460938 361.777344 406.894531 362.324219 L 404.292969 367.363281 L 403.488281 368.746094 C 400.953125 367.789062 398.324219 367.367188 395.660156 367.308594 L 392.988281 367.363281 C 393.777344 367.546875 394.570312 367.730469 395.363281 367.914062 L 397.710938 368.699219 C 399.261719 369.304688 400.769531 370.070312 402.179688 370.992188 L 400.898438 373.203125 C 400.285156 374.152344 399.664062 375.101562 399.050781 376.042969 L 397.421875 378.316406 C 396.835938 377.695312 396.234375 377.109375 395.621094 376.554688 L 393.671875 374.980469 L 395.34375 376.886719 L 396.945312 378.949219 C 394.695312 381.910156 392.320312 384.414062 389.902344 385.941406 L 388.308594 383.03125 C 386.683594 380.214844 384.988281 377.722656 383.371094 375.699219 C 385.105469 379.246094 386.65625 383.304688 387.863281 387.082031 L 387.144531 387.417969 C 386.558594 387.609375 385.964844 387.808594 385.375 388 L 383.679688 388.34375 C 383.554688 387.078125 383.394531 385.84375 383.152344 384.625 L 382.605469 382.058594 L 382.828125 385.179688 C 382.875 386.257812 382.894531 387.347656 382.894531 388.425781 C 380.253906 388.703125 377.757812 388.328125 375.660156 387.734375 L 375.867188 385.59375 L 376.472656 377.511719 L 377.628906 376.292969 L 378.460938 375.480469 L 378.941406 374.988281 L 379.707031 374.277344 L 381.121094 372.910156 L 383 371.222656 L 383.699219 370.570312 L 384.0625 370.269531 C 385.449219 369.054688 386.816406 367.914062 388.15625 366.855469 L 388.3125 366.722656 L 388.921875 366.261719 L 391.132812 364.554688 L 392.15625 363.816406 L 392.691406 363.414062 L 393.277344 363.011719 L 394.207031 362.339844 L 396.273438 360.949219 L 396.75 360.625 L 397.097656 360.394531 L 397.632812 360.066406 L 400.40625 358.332031 L 401.664062 357.605469 L 402.199219 357.285156 L 402.75 356.992188 C 404.046875 356.25 405.195312 355.640625 406.167969 355.15625 L 409.652344 353.53125 C 398.199219 357.117188 388.4375 364.738281 381.535156 371.460938 C 379.632812 373.3125 377.945312 375.101562 376.511719 376.726562 L 377.574219 362.628906 Z M 377.871094 358.191406 " fill-opacity="1" fill-rule="nonzero"/><path fill="#e4d85c" d="M 372.71875 416.546875 C 375.476562 415.339844 378.328125 414.417969 381.035156 413.785156 L 380.980469 417.460938 L 381.332031 415.570312 L 381.546875 413.671875 C 385.496094 412.777344 389.09375 412.511719 391.652344 413.019531 C 391.652344 413.019531 390.875 416.902344 389.410156 422.234375 L 386.972656 422.519531 L 384.558594 423.066406 C 386.054688 422.984375 387.59375 423.050781 389.097656 423.328125 L 387.476562 428.761719 L 386.941406 430.269531 C 384.273438 429.796875 381.609375 429.859375 378.980469 430.289062 L 376.359375 430.835938 C 377.171875 430.871094 377.984375 430.910156 378.796875 430.941406 L 381.25 431.285156 C 382.886719 431.59375 384.511719 432.070312 386.070312 432.714844 L 385.238281 435.0625 L 379.054688 433.847656 L 370.960938 431.910156 L 371.675781 431.054688 L 372.1875 430.492188 L 374.050781 428.410156 L 374.921875 427.5 L 375.378906 427.007812 L 375.878906 426.507812 L 376.671875 425.675781 L 378.445312 423.929688 L 378.847656 423.519531 L 379.152344 423.230469 L 379.621094 422.808594 L 382.023438 420.601562 L 383.132812 419.65625 L 383.59375 419.242188 L 384.074219 418.851562 C 385.21875 417.882812 386.234375 417.082031 387.097656 416.421875 L 390.226562 414.1875 C 382.542969 418.265625 376.117188 424.269531 371.066406 430.269531 Z M 372.71875 416.546875 " fill-opacity="1" fill-rule="nonzero"/><path fill="#e4d85c" d="M 413.636719 301.269531 C 411.0625 300.355469 408.65625 299.914062 406.886719 300.105469 C 406.886719 300.105469 407.039062 302.976562 407.527344 306.9375 L 409.144531 307.308594 L 410.722656 307.867188 C 409.71875 307.710938 408.675781 307.652344 407.632812 307.75 L 408.214844 311.796875 L 408.429688 312.929688 C 410.273438 312.765625 412.0625 312.996094 413.796875 313.492188 L 415.511719 314.0625 C 414.957031 314.03125 414.410156 314.003906 413.855469 313.972656 L 412.167969 314.050781 C 411.03125 314.164062 409.894531 314.394531 408.78125 314.761719 L 409.125 316.5625 C 409.316406 317.347656 409.507812 318.136719 409.699219 318.921875 L 410.253906 320.839844 C 410.765625 320.523438 411.28125 320.234375 411.796875 319.96875 L 413.402344 319.257812 L 411.902344 320.261719 L 410.417969 321.378906 C 411.230469 323.90625 412.21875 326.140625 413.441406 327.6875 L 415.105469 325.96875 C 416.765625 324.320312 418.402344 322.917969 419.890625 321.820312 C 417.996094 323.957031 416.105469 326.496094 414.507812 328.894531 L 414.898438 329.269531 C 415.234375 329.519531 415.578125 329.777344 415.914062 330.027344 L 416.933594 330.609375 C 417.289062 329.746094 417.65625 328.914062 418.082031 328.109375 L 418.992188 326.421875 L 418.167969 328.558594 C 417.902344 329.304688 417.652344 330.0625 417.421875 330.820312 C 421.910156 332.789062 426.761719 331.140625 426.761719 331.140625 C 426.761719 331.140625 428.804688 326.390625 429.445312 321.214844 L 428.8125 321.183594 C 427.566406 321.058594 426.269531 321.097656 424.992188 321.253906 C 426.515625 320.761719 428.046875 320.386719 429.550781 320.214844 L 429.628906 319.191406 C 429.636719 318.703125 429.636719 318.214844 429.644531 317.730469 L 429.605469 317.148438 L 427.988281 317.644531 C 427.464844 317.839844 426.9375 318.039062 426.410156 318.238281 C 427.453125 317.542969 428.484375 317.023438 429.558594 316.5625 C 429.464844 315.527344 429.253906 314.53125 428.917969 313.609375 C 428.078125 311.335938 426.304688 309.148438 424.058594 307.230469 C 422.628906 308.765625 421.335938 310.542969 420.246094 312.410156 C 421.050781 310.320312 422 308.316406 423.144531 306.476562 L 422.304688 305.824219 L 420.820312 304.804688 C 420.332031 305.792969 419.890625 306.800781 419.5 307.789062 L 419.941406 306.160156 L 420.476562 304.59375 C 418.378906 303.261719 416.125 302.160156 413.976562 301.375 L 413.660156 304.050781 L 413.605469 302.65625 Z M 409.632812 302.867188 L 407.730469 301.03125 C 414.34375 305.839844 418.984375 313.128906 421.972656 319.21875 C 424.964844 325.308594 426.304688 330.191406 426.304688 330.191406 L 424.917969 326.671875 L 423.453125 323.378906 L 423.089844 322.644531 L 422.890625 322.203125 L 422.550781 321.550781 L 421.933594 320.3125 L 421.089844 318.757812 L 420.78125 318.15625 L 420.613281 317.875 C 419.988281 316.746094 419.347656 315.679688 418.722656 314.664062 L 418.648438 314.539062 L 418.359375 314.097656 L 417.300781 312.460938 L 416.800781 311.742188 L 416.542969 311.355469 L 416.253906 310.953125 L 415.796875 310.300781 L 414.765625 308.917969 L 414.53125 308.59375 L 414.449219 308.496094 L 414.351562 308.363281 L 414.074219 308.027344 L 412.667969 306.261719 L 412.007812 305.5 L 411.738281 305.164062 L 411.449219 304.847656 C 410.765625 304.058594 410.152344 303.40625 409.632812 302.867188 Z M 409.632812 302.867188 " fill-opacity="1" fill-rule="nonzero"/><path fill="#afac35" d="M 376.566406 376.734375 L 376.503906 377.511719 L 377.660156 376.292969 L 378.492188 375.480469 L 378.972656 374.988281 L 379.738281 374.277344 L 381.152344 372.910156 L 383.035156 371.222656 L 383.734375 370.570312 L 384.097656 370.269531 C 385.480469 369.054688 386.847656 367.914062 388.1875 366.855469 L 388.347656 366.722656 L 388.953125 366.261719 L 391.164062 364.554688 L 392.1875 363.816406 L 392.722656 363.414062 L 393.308594 363.011719 L 394.242188 362.339844 L 396.304688 360.949219 L 396.78125 360.625 L 397.132812 360.394531 L 397.664062 360.066406 L 400.4375 358.332031 L 401.699219 357.605469 L 402.234375 357.285156 L 402.78125 356.988281 C 404.082031 356.242188 405.230469 355.636719 406.199219 355.148438 L 409.683594 353.527344 C 398.234375 357.113281 388.472656 364.730469 381.566406 371.453125 C 379.679688 373.320312 377.996094 375.105469 376.566406 376.734375 Z M 376.566406 376.734375 " fill-opacity="1" fill-rule="nonzero"/><path fill="#d4c546" d="M 471.78125 244.386719 L 471.78125 235.824219 L 516.746094 242.132812 L 523.289062 296.089844 C 507.671875 299.027344 493.667969 301.664062 484.011719 303.15625 Z M 471.78125 244.386719 " fill-opacity="1" fill-rule="nonzero"/><path fill="#afac35" d="M 451.917969 233.683594 C 471.527344 303.789062 476.828125 371.25 475.230469 434.019531 C 484.511719 433.25 491.824219 432.234375 496.984375 430.953125 C 502.8125 357.210938 494.207031 297.453125 485.773438 237.941406 C 474.175781 235.765625 463.46875 234.507812 451.917969 233.683594 Z M 451.917969 233.683594 " fill-opacity="1" fill-rule="nonzero"/><path fill="#dfd152" d="M 450.230469 232.382812 L 463.265625 280.433594 C 463.265625 280.433594 467.21875 269.519531 480.207031 263.902344 C 480.207031 263.902344 469.695312 239.390625 467.140625 235.832031 C 464.578125 232.273438 453.761719 231.777344 450.230469 232.382812 Z M 450.230469 232.382812 " fill-opacity="1" fill-rule="nonzero"/><path fill="#e4d85c" d="M 475.207031 395.394531 L 478.511719 391.589844 L 480.605469 394.960938 L 479.824219 393.027344 L 478.929688 391.167969 C 482.101562 387.914062 485.324219 385.433594 488.011719 384.300781 C 488.011719 384.300781 489.542969 388.308594 491.265625 394.050781 L 489.144531 395.816406 L 487.203125 397.8125 C 488.558594 396.8125 490.035156 395.914062 491.613281 395.230469 L 493.242188 401.164062 L 493.621094 402.863281 C 490.847656 404.089844 488.394531 405.800781 486.179688 407.824219 L 484.050781 409.949219 C 484.828125 409.472656 485.613281 409.003906 486.394531 408.53125 L 488.894531 407.320312 C 490.605469 406.585938 492.398438 406.007812 494.234375 405.625 L 494.835938 408.332031 C 495.039062 409.546875 495.242188 410.765625 495.449219 411.976562 L 495.816406 415.011719 C 494.878906 414.992188 493.957031 414.996094 493.039062 415.042969 L 490.28125 415.332031 L 493.058594 415.519531 L 495.902344 415.875 C 496.273438 419.921875 496.199219 423.71875 495.367188 426.78125 L 491.902344 425.753906 C 488.484375 424.832031 485.25 424.210938 482.4375 423.894531 C 486.492188 425.300781 490.773438 427.257812 494.5625 429.246094 L 494.226562 430.066406 L 493.304688 431.734375 L 492.722656 431.859375 L 490.476562 432.21875 L 488.902344 430.996094 L 486.542969 429.425781 L 489.046875 431.671875 L 489.710938 432.347656 L 487.660156 432.675781 L 478.109375 433.703125 L 478.203125 428.800781 L 478.28125 427.519531 L 478.300781 426.761719 L 478.394531 425.617188 L 478.523438 423.453125 L 478.800781 420.6875 L 478.886719 419.632812 L 478.960938 419.117188 C 479.183594 417.09375 479.457031 415.15625 479.753906 413.289062 L 479.785156 413.058594 L 479.9375 412.230469 L 480.464844 409.183594 L 480.75 407.820312 L 480.886719 407.085938 L 481.066406 406.316406 L 481.324219 405.070312 L 481.976562 402.386719 L 482.121094 401.769531 L 482.234375 401.320312 L 482.425781 400.648438 L 483.390625 397.15625 L 483.878906 395.613281 L 484.070312 394.945312 L 484.292969 394.292969 C 484.796875 392.707031 485.285156 391.339844 485.710938 390.207031 L 487.351562 386.238281 C 480.695312 397.917969 478.417969 411.425781 477.804688 422.011719 C 477.542969 426.605469 477.589844 430.644531 477.746094 433.75 L 475.230469 434.019531 L 475.484375 411.082031 L 476.164062 411.449219 L 475.484375 410.898438 L 475.488281 410.269531 Z M 475.207031 395.394531 " fill-opacity="1" fill-rule="nonzero"/><path fill="#e4d85c" d="M 481.757812 294.394531 C 483.8125 293.148438 485.824219 292.386719 487.429688 292.3125 C 487.429688 292.3125 487.949219 295.101562 488.4375 298.984375 L 487.105469 299.570312 L 485.851562 300.335938 C 486.695312 300.039062 487.601562 299.832031 488.539062 299.78125 L 488.960938 303.761719 L 489.027344 304.882812 C 487.371094 304.988281 485.851562 305.460938 484.4375 306.179688 L 483.066406 306.976562 C 483.542969 306.871094 484.023438 306.765625 484.5 306.65625 L 486.003906 306.496094 C 487.027344 306.445312 488.082031 306.511719 489.136719 306.703125 L 489.242188 308.480469 C 489.257812 309.265625 489.269531 310.050781 489.285156 310.839844 L 489.238281 312.765625 C 488.710938 312.535156 488.195312 312.332031 487.671875 312.144531 L 486.101562 311.683594 L 487.648438 312.4375 L 489.210938 313.304688 C 489.078125 315.851562 488.722656 318.144531 488.003906 319.8125 L 486.140625 318.386719 C 484.308594 317.035156 482.542969 315.917969 480.988281 315.078125 C 483.140625 316.867188 485.382812 319.039062 487.335938 321.125 L 487.078125 321.546875 C 486.839844 321.835938 486.597656 322.132812 486.359375 322.421875 L 485.59375 323.128906 C 485.078125 322.34375 484.566406 321.597656 484.011719 320.878906 L 482.820312 319.382812 L 484.035156 321.328125 C 484.445312 322.007812 484.835938 322.707031 485.210938 323.398438 C 481.71875 325.933594 477.078125 325.03125 477.078125 325.03125 C 477.078125 325.03125 474.195312 320.746094 472.445312 315.855469 L 472.996094 315.738281 C 474.0625 315.433594 475.207031 315.296875 476.367188 315.265625 C 474.914062 315.007812 473.484375 314.863281 472.125 314.90625 L 471.820312 313.933594 C 471.707031 313.464844 471.589844 312.996094 471.476562 312.527344 L 471.378906 311.960938 L 472.914062 312.207031 C 473.421875 312.316406 473.929688 312.4375 474.433594 312.554688 C 473.355469 312.035156 472.328125 311.679688 471.277344 311.386719 C 471.125 310.371094 471.074219 309.382812 471.164062 308.453125 C 471.378906 306.140625 472.441406 303.789062 473.972656 301.621094 C 475.582031 302.890625 477.125 304.425781 478.511719 306.070312 C 477.324219 304.171875 476.03125 302.378906 474.605469 300.761719 L 475.191406 300.019531 L 476.261719 298.824219 C 476.914062 299.707031 477.542969 300.617188 478.101562 301.515625 L 477.34375 300.011719 L 476.511719 298.574219 C 478.050781 296.992188 479.777344 295.613281 481.480469 294.554688 L 482.375 297.085938 L 482.101562 295.734375 Z M 485.648438 295.371094 L 486.894531 293.335938 C 482.1875 298.898438 479.78125 306.582031 478.550781 312.871094 C 477.324219 319.160156 477.269531 324.054688 477.269531 324.054688 L 477.679688 320.472656 L 478.207031 317.089844 L 478.359375 316.332031 L 478.433594 315.875 L 478.585938 315.199219 L 478.835938 313.917969 L 479.226562 312.296875 L 479.363281 311.679688 L 479.441406 311.382812 C 479.738281 310.207031 480.050781 309.085938 480.375 308.019531 L 480.414062 307.886719 L 480.570312 307.421875 L 481.125 305.691406 L 481.402344 304.929688 L 481.542969 304.511719 L 481.707031 304.085938 L 481.957031 303.394531 L 482.542969 301.910156 L 482.675781 301.566406 L 482.722656 301.460938 L 482.777344 301.324219 L 482.941406 300.960938 L 483.773438 299.054688 L 484.175781 298.230469 L 484.339844 297.871094 L 484.519531 297.527344 C 484.925781 296.675781 485.316406 295.957031 485.648438 295.371094 Z M 485.648438 295.371094 " fill-opacity="1" fill-rule="nonzero"/><path fill="#e4d85c" d="M 498.664062 365.488281 L 498.628906 364.625 C 496.859375 366.953125 495.230469 369.492188 493.804688 371.921875 L 494.4375 372.390625 C 494.972656 372.695312 495.515625 372.996094 496.050781 373.300781 L 497.632812 373.980469 L 498.75 370.972656 Z M 498.664062 365.488281 " fill-opacity="1" fill-rule="nonzero"/><path fill="#e4d85c" d="M 498.601562 363.738281 L 498.234375 353.554688 L 497.453125 352.597656 L 496.953125 352.035156 L 495.136719 349.96875 L 494.285156 349.058594 L 493.84375 348.5625 L 493.347656 348.0625 L 492.578125 347.238281 L 490.835938 345.5 L 490.4375 345.089844 L 490.140625 344.800781 L 489.679688 344.378906 L 487.328125 342.167969 L 486.246094 341.226562 L 485.792969 340.8125 L 485.316406 340.421875 C 484.203125 339.453125 483.199219 338.644531 482.347656 337.976562 L 479.269531 335.722656 C 486.886719 339.921875 493.203125 345.960938 498.140625 351.9375 L 497.621094 343.496094 L 497.582031 343.613281 L 497.613281 343.402344 L 497.328125 338.820312 C 494.398438 337.449219 491.34375 336.375 488.445312 335.625 L 488.433594 339.183594 L 488.121094 337.34375 L 487.9375 335.503906 C 484.023438 334.523438 480.4375 334.15625 477.886719 334.570312 C 477.886719 334.570312 478.589844 338.347656 479.957031 343.539062 L 482.378906 343.882812 L 484.777344 344.484375 C 483.285156 344.359375 481.753906 344.378906 480.242188 344.59375 L 481.765625 349.886719 L 482.273438 351.363281 C 484.941406 350.988281 487.585938 351.132812 490.203125 351.628906 L 492.800781 352.234375 C 491.988281 352.246094 491.183594 352.253906 490.371094 352.261719 L 487.917969 352.519531 C 486.28125 352.769531 484.65625 353.175781 483.09375 353.757812 L 483.898438 356.105469 C 484.308594 357.125 484.714844 358.148438 485.132812 359.175781 L 486.261719 361.660156 C 486.960938 361.199219 487.660156 360.769531 488.371094 360.367188 L 490.589844 359.28125 L 488.578125 360.730469 L 486.589844 362.34375 C 488.195312 365.601562 490.011719 368.46875 492.054688 370.40625 L 494.199219 367.988281 C 495.671875 366.40625 497.152344 364.960938 498.601562 363.738281 Z M 498.601562 363.738281 " fill-opacity="1" fill-rule="nonzero"/><path fill="#afac35" d="M 497.613281 343.402344 L 497.621094 343.496094 L 497.582031 343.613281 Z M 497.613281 343.402344 " fill-opacity="1" fill-rule="nonzero"/><path fill="#363440" d="M 222.707031 630.941406 L 218.574219 657.585938 C 223.441406 663.953125 230.738281 665.390625 239.925781 663.023438 L 246.957031 647.921875 Z M 222.707031 630.941406 " fill-opacity="1" fill-rule="nonzero"/><path fill="#363440" d="M 290.1875 630.941406 L 286.054688 657.585938 C 290.914062 663.953125 298.21875 665.390625 307.40625 663.023438 L 314.4375 647.921875 Z M 290.1875 630.941406 " fill-opacity="1" fill-rule="nonzero"/><path fill="#f19e43" d="M 353.246094 497.871094 L 369.695312 516.980469 L 360.976562 525.265625 L 353.808594 515.378906 L 320.832031 624.449219 C 318.890625 630.855469 313 635.253906 306.292969 635.285156 L 228.199219 635.683594 L 237.855469 646.53125 L 229.15625 651.238281 L 212.199219 631.746094 L 212.226562 631.714844 C 211.527344 631.074219 210.886719 630.371094 210.304688 629.597656 C 207.40625 625.722656 206.523438 620.699219 207.921875 616.074219 C 217.253906 585.199219 234.992188 526.542969 242.289062 502.410156 C 244.230469 496.003906 250.125 491.609375 256.832031 491.574219 C 276.195312 491.476562 316.046875 491.277344 340.507812 491.152344 C 345.351562 491.128906 349.921875 493.402344 352.816406 497.277344 C 352.960938 497.460938 353.109375 497.660156 353.246094 497.871094 Z M 353.246094 497.871094 " fill-opacity="1" fill-rule="nonzero"/><path fill="#ffce81" d="M 353.722656 498.417969 L 361.121094 507.019531 L 267.398438 507.289062 C 261.945312 507.300781 257.109375 510.789062 255.371094 515.949219 C 249.496094 533.425781 239.042969 564.542969 239.042969 564.542969 C 238.285156 566.796875 235.835938 568.015625 233.578125 567.257812 C 231.320312 566.5 230.097656 564.054688 230.859375 561.800781 C 230.859375 561.800781 241.320312 530.683594 247.1875 513.207031 C 250.097656 504.539062 258.214844 498.695312 267.371094 498.667969 Z M 353.722656 498.417969 " fill-opacity="1" fill-rule="nonzero"/><path fill="#fec559" d="M 260.730469 521.683594 C 262.382812 516.234375 267.398438 512.496094 273.09375 512.464844 C 292.523438 512.363281 336.792969 512.140625 361.550781 512.015625 C 365.667969 511.996094 369.554688 513.925781 372.015625 517.222656 C 374.484375 520.519531 375.230469 524.789062 374.042969 528.730469 C 364.789062 559.335938 345.484375 623.191406 338.296875 646.960938 C 336.648438 652.410156 331.628906 656.148438 325.933594 656.179688 C 306.503906 656.28125 262.234375 656.503906 237.480469 656.628906 C 233.359375 656.648438 229.472656 654.71875 227.011719 651.421875 C 224.542969 648.125 223.796875 643.855469 224.984375 639.914062 C 234.246094 609.308594 253.550781 545.453125 260.730469 521.683594 Z M 260.730469 521.683594 " fill-opacity="1" fill-rule="nonzero"/><path fill="#f19e43" d="M 250.113281 603.34375 C 251.265625 599.125 255.101562 596.207031 259.476562 596.207031 C 274.988281 596.207031 311.003906 596.207031 330.285156 596.207031 C 333.3125 596.207031 336.164062 597.617188 338 600.023438 C 339.835938 602.421875 340.449219 605.546875 339.648438 608.460938 C 337.558594 616.121094 334.929688 625.710938 333.167969 632.136719 C 332.011719 636.355469 328.179688 639.273438 323.804688 639.273438 C 308.292969 639.273438 272.273438 639.273438 252.996094 639.273438 C 249.964844 639.273438 247.113281 637.863281 245.28125 635.457031 C 243.445312 633.058594 242.832031 629.933594 243.628906 627.019531 C 245.730469 619.367188 248.355469 609.777344 250.113281 603.34375 Z M 250.113281 603.34375 " fill-opacity="1" fill-rule="nonzero"/><path fill="#f19e43" d="M 271.609375 525.296875 C 272.292969 523.082031 274.347656 521.574219 276.664062 521.574219 C 290.3125 521.574219 336.058594 521.574219 353.90625 521.574219 C 355.589844 521.574219 357.179688 522.378906 358.175781 523.734375 C 359.171875 525.09375 359.464844 526.839844 358.960938 528.449219 C 357.707031 532.421875 356.183594 537.265625 355.160156 540.53125 C 354.46875 542.730469 352.429688 544.226562 350.117188 544.226562 C 336.496094 544.246094 290.730469 544.304688 272.902344 544.332031 C 271.21875 544.332031 269.636719 543.535156 268.636719 542.183594 C 267.640625 540.832031 267.34375 539.085938 267.839844 537.476562 C 269.074219 533.476562 270.59375 528.585938 271.609375 525.296875 Z M 271.609375 525.296875 " fill-opacity="1" fill-rule="nonzero"/><path fill="#c7e3f3" d="M 282.503906 531.472656 L 307.625 454.808594 C 308.226562 452.964844 310.09375 451.710938 312.191406 451.738281 L 364.105469 452.402344 C 365.574219 452.421875 366.957031 453.074219 367.828125 454.164062 C 368.699219 455.25 368.960938 456.65625 368.539062 457.953125 L 343.761719 533.667969 C 343.015625 535.949219 340.394531 537.242188 337.90625 536.554688 C 335.425781 535.871094 334.011719 533.464844 334.757812 531.191406 L 357.746094 460.945312 L 315.605469 460.40625 L 291.5 533.953125 C 290.753906 536.230469 288.136719 537.523438 285.648438 536.839844 C 283.171875 536.152344 281.757812 533.753906 282.503906 531.472656 Z M 282.503906 531.472656 " fill-opacity="1" fill-rule="nonzero"/><path fill="#f79f92" d="M 341.972656 431.882812 C 341.972656 431.882812 318.628906 432.914062 316.027344 443.648438 C 314.371094 450.5 314.4375 451.863281 314.4375 451.863281 L 330.171875 452.074219 C 330.171875 452.074219 322.910156 471.867188 327.367188 472.824219 C 331.820312 473.773438 342.410156 457.539062 342.410156 457.539062 C 342.410156 457.539062 352.921875 456.402344 355.933594 451.46875 C 359.34375 445.863281 359.398438 434.875 359.398438 434.875 Z M 341.972656 431.882812 " fill-opacity="1" fill-rule="nonzero"/><path fill="#f79f92" d="M 361.582031 320.582031 L 337.367188 433.472656 L 359.09375 437.636719 L 393.019531 335.445312 Z M 361.582031 320.582031 " fill-opacity="1" fill-rule="nonzero"/><path fill="#ee7d78" d="M 357.746094 338.453125 C 366 344.304688 376.800781 346.316406 389.871094 344.945312 L 393.027344 335.445312 L 361.582031 320.582031 Z M 357.746094 338.453125 " fill-opacity="1" fill-rule="nonzero"/><path fill="#d4c546" d="M 400.589844 283.929688 C 399.757812 265.738281 390.3125 244.386719 390.3125 244.386719 C 369.160156 254.605469 362.441406 275.300781 353.234375 320.523438 C 364.519531 329.941406 378.375 337.714844 395.710938 343.25 C 395.71875 343.25 402.1875 318.863281 400.589844 283.929688 Z M 400.589844 283.929688 " fill-opacity="1" fill-rule="nonzero"/></svg>