<svg xmlns="http://www.w3.org/2000/svg" xmlns:xlink="http://www.w3.org/1999/xlink" width="1080" zoomAndPan="magnify" viewBox="0 0 810 1439.999935" height="1920" preserveAspectRatio="xMidYMid meet" version="1.0"><defs><clipPath id="293d63c3c1"><path d="M 243 621.488281 L 567 621.488281 L 567 818.738281 L 243 818.738281 Z M 243 621.488281 " clip-rule="nonzero"/></clipPath><clipPath id="9e3ade5a42"><path d="M 243 621.488281 L 567 621.488281 L 567 818.738281 L 243 818.738281 Z M 243 621.488281 " clip-rule="nonzero"/></clipPath></defs><g clip-path="url(#293d63c3c1)"><path fill="#b9dab4" d="M 566.230469 738.046875 C 564.96875 740.125 554.035156 742.070312 553.132812 742.207031 C 552.050781 742.929688 530.457031 757.582031 514.378906 767.214844 C 508.957031 770.46875 500.554688 775.398438 491.613281 780.554688 C 473.183594 791.316406 452.269531 803.527344 449.875 805.746094 C 449.289062 806.289062 448.519531 807.054688 447.617188 807.914062 C 443.328125 812.167969 436.867188 818.585938 432.757812 818.585938 C 432.621094 818.585938 432.484375 818.585938 432.351562 818.585938 C 427.605469 818.089844 417.625 810.808594 416.722656 810.132812 C 415.457031 809.949219 395.175781 807.28125 371.824219 799.140625 C 348.46875 791 319.742188 775.582031 318.027344 774.632812 C 317.304688 774.8125 312.515625 775.625 304.160156 770.742188 C 303.210938 770.199219 302.261719 769.65625 301.359375 769.113281 C 293.226562 764.5 287.851562 761.472656 291.511719 752.335938 L 259.214844 739.402344 L 249.640625 742.660156 L 248.644531 743.019531 C 248.601562 743.019531 248.601562 743.019531 248.554688 743.019531 C 248.511719 743.019531 248.511719 743.019531 248.464844 743.019531 L 243.089844 741.164062 C 243.046875 741.210938 243 741.121094 243 741.03125 L 243 656.597656 C 243 656.554688 243 656.554688 243 656.554688 C 243 656.507812 243.046875 656.507812 243.046875 656.464844 C 243.046875 656.464844 243.089844 656.417969 243.089844 656.417969 C 243.089844 656.417969 243.089844 656.417969 243.136719 656.417969 C 243.136719 656.417969 243.136719 656.417969 243.179688 656.417969 L 377.152344 621.640625 C 377.199219 621.640625 377.242188 621.640625 377.289062 621.640625 L 382.84375 623.359375 C 382.933594 623.40625 383.023438 623.496094 383.023438 623.585938 L 382.890625 625.214844 L 382.890625 653.117188 C 385.191406 657.230469 387.316406 661.800781 388.671875 665.644531 C 394.183594 666.730469 401.136719 668.175781 409.359375 669.847656 C 410.035156 669.578125 410.578125 669.304688 411.121094 669.082031 C 414.464844 667.496094 416.179688 666.730469 429.324219 670.300781 C 429.683594 670.390625 430.273438 670.480469 431.085938 670.617188 C 434.652344 671.117188 442.0625 672.199219 445.085938 677.128906 C 445.085938 677.128906 445.132812 677.128906 445.132812 677.128906 C 445.179688 677.128906 445.179688 677.175781 445.222656 677.21875 C 492.515625 687.484375 544.414062 699.695312 548.390625 703.269531 C 551.417969 705.980469 555.933594 712.992188 560.449219 722.125 C 563.746094 728.910156 567 736.777344 566.230469 738.046875 Z M 566.230469 738.046875 " fill-opacity="1" fill-rule="nonzero"/></g><path fill="#ff867a" d="M 307.050781 714.9375 C 305.109375 713.578125 299.597656 707.203125 296.121094 702.363281 C 292.777344 697.707031 288.800781 686.898438 288.757812 682.78125 C 289.117188 683.734375 289.523438 684.863281 289.976562 686.039062 C 291.285156 689.703125 292.867188 694.222656 295.125 696.167969 C 297.835938 698.566406 305.378906 711.953125 307.050781 714.9375 Z M 377.199219 622.09375 L 244.039062 656.644531 L 248.691406 658.179688 L 382.078125 623.585938 Z M 243.453125 740.894531 L 248.421875 742.613281 L 248.421875 658.589844 L 243.453125 656.914062 Z M 341.742188 674.101562 C 338.894531 669.035156 335.191406 663.652344 333.382812 663.019531 C 333.339844 663.019531 333.25 662.976562 333.15625 662.976562 C 329.949219 662.976562 303.570312 672.789062 292.777344 678.847656 C 289.707031 680.566406 288.984375 681.425781 288.847656 681.832031 C 289.34375 682.875 289.839844 684.320312 290.382812 685.859375 C 291.648438 689.476562 293.226562 693.953125 295.398438 695.808594 C 298.421875 698.429688 306.824219 713.535156 307.726562 715.164062 C 309.714844 715.027344 328.054688 710.730469 337.132812 705.257812 C 339.886719 703.585938 342.238281 702.046875 344.222656 700.691406 C 342.777344 698.519531 341.332031 695.398438 340.519531 691.238281 C 340.339844 690.289062 340.203125 689.386719 340.113281 688.480469 C 339.753906 686.851562 339.664062 685.316406 339.664062 683.957031 C 339.664062 680.429688 340.519531 676.996094 341.742188 674.101562 Z M 319.292969 659.808594 C 319.5625 659.945312 319.878906 660.125 320.195312 660.351562 C 320.328125 659.222656 320.554688 658.363281 320.960938 657.910156 C 330.671875 646.921875 367.578125 638.644531 373.765625 641.492188 C 376.070312 642.535156 379.367188 647.011719 382.394531 652.347656 L 382.394531 623.949219 L 248.871094 658.589844 L 248.871094 707.972656 C 250.316406 706.523438 255.917969 703.8125 263.777344 700.511719 C 263.507812 698.476562 262.46875 690.152344 262.152344 685.496094 C 261.566406 681.699219 261.789062 678.488281 262.738281 677.402344 C 273.171875 665.644531 312.695312 656.78125 319.292969 659.808594 Z M 319.292969 659.808594 " fill-opacity="1" fill-rule="nonzero"/><path fill="#ffc3cc" d="M 294.222656 728.773438 C 292.371094 736.824219 294.085938 743.699219 294.3125 744.46875 C 294.132812 744.964844 293.046875 747.949219 291.691406 752.019531 L 249.050781 734.925781 L 248.960938 708.558594 C 248.960938 708.515625 249.007812 708.515625 249.007812 708.46875 C 262.738281 711.136719 280.625 717.152344 296.34375 722.714844 C 295.351562 724.839844 294.671875 726.875 294.222656 728.773438 Z M 371.234375 702.636719 C 368.976562 702.636719 367.441406 702.230469 367.171875 702.09375 C 360.214844 703.222656 355.832031 701.730469 353.394531 700.328125 C 351 698.925781 349.914062 697.300781 349.691406 696.9375 C 341.332031 693.726562 341.695312 684.546875 341.785156 683.597656 C 340.835938 682.105469 340.882812 679.300781 341.875 675.140625 C 340.746094 678.078125 340.160156 681.289062 340.113281 683.957031 C 340.070312 688.027344 341.199219 693.816406 346.574219 698.476562 C 351.585938 702.769531 358.542969 704.941406 366.175781 704.582031 C 373.179688 704.265625 378.824219 701.957031 381.308594 699.832031 C 381.445312 699.695312 381.578125 699.5625 381.761719 699.425781 C 378.101562 701.730469 374.714844 702.410156 372.320312 702.546875 C 371.914062 702.636719 371.597656 702.636719 371.234375 702.636719 Z M 365.183594 678.171875 C 364.414062 678.078125 363.78125 678.214844 363.332031 678.578125 C 362.609375 679.164062 362.382812 680.113281 362.292969 680.523438 C 363.738281 681.019531 365.183594 681.789062 366.402344 682.875 C 367.171875 683.550781 367.710938 684.410156 368.121094 685.359375 C 368.933594 685.316406 369.609375 684.953125 369.972656 684.367188 C 370.332031 683.777344 370.378906 683.054688 370.105469 682.195312 C 369.292969 679.933594 367.53125 678.488281 365.183594 678.171875 Z M 388.492188 685.765625 C 388.21875 690.152344 386.457031 694.269531 383.523438 697.617188 C 376.023438 703.628906 368.75 702.046875 367.441406 701.730469 C 367.578125 701.277344 367.894531 700.011719 368.34375 698.023438 C 368.390625 697.886719 368.300781 697.796875 368.164062 697.75 C 368.027344 697.707031 367.9375 697.796875 367.894531 697.933594 C 367.441406 700.011719 367.082031 701.277344 366.988281 701.6875 C 354.882812 703.585938 350.636719 697.617188 350.097656 696.757812 C 350.59375 695.808594 354.34375 688.753906 358.679688 686.21875 C 358.769531 686.175781 358.8125 686.039062 358.769531 685.902344 C 358.722656 685.8125 358.589844 685.765625 358.453125 685.8125 C 354.027344 688.34375 350.367188 695.21875 349.734375 696.441406 C 341.832031 693.320312 342.148438 684.636719 342.238281 683.640625 C 346.484375 680.386719 352.398438 681.0625 352.445312 681.0625 C 352.582031 681.0625 352.671875 680.972656 352.714844 680.882812 C 352.714844 680.746094 352.625 680.65625 352.535156 680.613281 C 352.492188 680.613281 346.527344 679.886719 342.101562 683.191406 C 341.425781 681.96875 341.109375 679.164062 343.003906 672.699219 C 343.050781 672.5625 343.050781 672.472656 343.09375 672.425781 C 344.042969 670.574219 345.261719 668.945312 346.617188 667.8125 C 351.269531 663.96875 357.324219 662.117188 363.375 662.117188 C 370.785156 662.117188 378.148438 664.875 382.933594 670.257812 C 386.863281 674.777344 388.898438 680.25 388.492188 685.765625 Z M 385.824219 690.652344 C 385.417969 688.933594 382.84375 685.902344 377.515625 684.5 C 373.808594 683.550781 371.507812 683.640625 370.695312 683.734375 C 370.785156 683.28125 370.738281 682.738281 370.511719 682.058594 C 370.289062 681.382812 369.925781 680.746094 369.519531 680.207031 C 369.566406 680.207031 369.566406 680.160156 369.566406 680.160156 C 369.609375 680.070312 374.035156 673.058594 381.984375 672.925781 C 382.121094 672.925781 382.210938 672.832031 382.210938 672.699219 C 382.210938 672.5625 382.078125 672.472656 381.984375 672.472656 C 374.125 672.609375 369.609375 679.253906 369.203125 679.886719 C 368.433594 678.984375 367.441406 678.351562 366.265625 677.988281 C 366.539062 676.902344 367.984375 670.617188 366.265625 667.949219 C 366.222656 667.859375 366.042969 667.8125 365.949219 667.859375 C 365.859375 667.90625 365.816406 668.085938 365.859375 668.175781 C 367.441406 670.617188 366.042969 676.769531 365.769531 677.851562 C 365.542969 677.808594 365.320312 677.761719 365.09375 677.71875 C 364.1875 677.582031 363.464844 677.761719 362.878906 678.214844 C 362.652344 678.394531 362.519531 678.578125 362.335938 678.757812 C 361.75 677.445312 359.265625 672.292969 355.5625 669.941406 C 355.472656 669.894531 355.335938 669.894531 355.246094 670.03125 C 355.199219 670.121094 355.199219 670.257812 355.335938 670.347656 C 359.355469 672.878906 362.066406 679.210938 362.066406 679.253906 C 361.839844 679.707031 361.75 680.113281 361.707031 680.386719 C 358.949219 679.480469 356.285156 679.390625 355.742188 679.390625 C 352.039062 675.320312 345.445312 675.910156 343.5 676.179688 C 343.367188 676.179688 343.277344 676.316406 343.320312 676.453125 C 343.320312 676.585938 343.457031 676.675781 343.59375 676.632812 C 345.488281 676.359375 351.992188 675.773438 355.515625 679.753906 C 355.5625 679.796875 355.605469 679.84375 355.699219 679.84375 C 355.742188 679.84375 362.292969 679.886719 365.996094 683.234375 C 369.699219 686.582031 368.34375 694.8125 368.34375 694.902344 C 368.34375 695.039062 368.390625 695.128906 368.527344 695.175781 C 368.527344 695.175781 368.570312 695.175781 368.570312 695.175781 C 368.660156 695.175781 368.796875 695.082031 368.796875 694.992188 C 368.84375 694.722656 369.65625 689.703125 368.210938 685.859375 C 369.113281 685.765625 369.835938 685.316406 370.289062 684.683594 C 370.378906 684.546875 370.421875 684.410156 370.511719 684.273438 C 370.964844 684.230469 373.359375 683.957031 377.332031 685 C 382.4375 686.355469 384.96875 689.296875 385.328125 690.832031 C 385.375 690.921875 385.464844 691.011719 385.554688 691.011719 C 385.554688 691.011719 385.601562 691.011719 385.601562 691.011719 C 385.78125 690.878906 385.871094 690.789062 385.824219 690.652344 Z M 284.554688 714.710938 C 284.464844 714.710938 284.375 714.710938 284.328125 714.710938 C 282.75 714.710938 279.316406 712.675781 275.792969 709.691406 L 263.867188 700.960938 C 255.875 704.308594 250.722656 706.839844 249.324219 708.109375 C 263.101562 710.820312 280.851562 716.789062 296.480469 722.351562 C 298.242188 716.972656 302.171875 710.730469 302.171875 710.730469 C 296.707031 712.3125 290.789062 713.714844 284.554688 714.710938 Z M 408.589844 670.164062 C 400.777344 668.539062 394.136719 667.179688 388.808594 666.140625 C 389.347656 667.722656 389.753906 669.171875 389.980469 670.4375 C 390.34375 672.515625 390.207031 673.917969 389.53125 674.597656 C 389.121094 675.003906 388.445312 675.546875 387.542969 676.179688 L 403.804688 672.15625 C 406.105469 671.207031 407.734375 670.527344 408.589844 670.164062 Z M 408.589844 670.164062 " fill-opacity="1" fill-rule="nonzero"/><g clip-path="url(#9e3ade5a42)"><path fill="#004f70" d="M 263.777344 700.511719 C 263.507812 698.476562 262.46875 690.152344 262.152344 685.496094 C 262.195312 685.8125 262.242188 686.085938 262.289062 686.402344 C 263.054688 690.695312 264.679688 695.128906 266.984375 699.152344 C 265.902344 699.605469 264.816406 700.058594 263.777344 700.511719 Z M 248.871094 742.523438 L 258.582031 739.222656 L 248.871094 735.332031 Z M 344.222656 700.738281 C 345.082031 700.148438 345.851562 699.605469 346.574219 699.109375 C 346.484375 699.019531 346.394531 698.972656 346.300781 698.882812 C 342.554688 695.671875 340.835938 691.917969 340.113281 688.570312 C 340.203125 689.476562 340.339844 690.378906 340.519531 691.328125 C 341.289062 695.445312 342.777344 698.519531 344.222656 700.738281 Z M 267.210938 699.5625 C 266.035156 700.058594 264.90625 700.511719 263.867188 700.960938 L 275.792969 709.691406 C 273.171875 707.429688 270.507812 704.625 268.566406 701.6875 C 268.070312 701.007812 267.617188 700.285156 267.210938 699.5625 Z M 566.230469 738.046875 C 564.96875 740.125 554.035156 742.070312 553.132812 742.207031 C 552.050781 742.929688 530.457031 757.582031 514.378906 767.214844 C 508.957031 770.46875 500.554688 775.398438 491.613281 780.554688 C 473.183594 791.316406 452.269531 803.527344 449.875 805.746094 C 449.289062 806.289062 448.519531 807.054688 447.617188 807.914062 C 443.328125 812.167969 436.867188 818.585938 432.757812 818.585938 C 432.621094 818.585938 432.484375 818.585938 432.351562 818.585938 C 427.605469 818.089844 417.625 810.808594 416.722656 810.132812 C 415.457031 809.949219 395.175781 807.28125 371.824219 799.140625 C 348.46875 791 319.742188 775.582031 318.027344 774.632812 C 317.304688 774.8125 312.515625 775.625 304.160156 770.742188 C 303.210938 770.199219 302.261719 769.65625 301.359375 769.113281 C 293.226562 764.5 287.851562 761.472656 291.511719 752.335938 L 259.214844 739.402344 L 249.640625 742.660156 L 248.644531 743.019531 C 248.601562 743.019531 248.601562 743.019531 248.554688 743.019531 C 248.511719 743.019531 248.511719 743.019531 248.464844 743.019531 L 243.089844 741.164062 C 243.046875 741.210938 243 741.121094 243 741.03125 L 243 656.597656 C 243 656.597656 243 656.554688 243 656.554688 C 243 656.507812 243.046875 656.507812 243.046875 656.464844 C 243.046875 656.464844 243.089844 656.417969 243.089844 656.417969 C 243.089844 656.417969 243.089844 656.417969 243.136719 656.417969 C 243.136719 656.417969 243.136719 656.417969 243.179688 656.417969 L 377.152344 621.640625 C 377.199219 621.640625 377.242188 621.640625 377.289062 621.640625 L 382.84375 623.359375 C 382.933594 623.40625 383.023438 623.496094 383.023438 623.585938 L 382.890625 625.214844 L 382.890625 653.117188 C 385.191406 657.230469 387.316406 661.800781 388.671875 665.644531 C 394.183594 666.730469 401.136719 668.175781 409.359375 669.847656 C 410.035156 669.578125 410.578125 669.304688 411.121094 669.082031 C 414.464844 667.496094 416.179688 666.730469 429.324219 670.300781 C 429.683594 670.390625 430.273438 670.480469 431.085938 670.617188 C 434.652344 671.117188 442.0625 672.199219 445.085938 677.128906 C 445.085938 677.128906 445.132812 677.128906 445.132812 677.128906 C 445.179688 677.128906 445.179688 677.175781 445.222656 677.21875 C 492.515625 687.484375 544.414062 699.695312 548.390625 703.269531 C 551.417969 705.980469 555.933594 712.992188 560.449219 722.125 C 563.746094 728.910156 567 736.777344 566.230469 738.046875 Z M 388.808594 666.140625 C 389.347656 667.722656 389.753906 669.171875 389.980469 670.4375 C 390.34375 672.515625 390.207031 673.917969 389.53125 674.597656 C 389.078125 675.050781 388.308594 675.636719 387.269531 676.359375 C 387.585938 677.085938 387.859375 677.761719 388.039062 678.488281 C 398.742188 674.234375 406.332031 671.117188 408.546875 670.210938 C 400.777344 668.582031 394.136719 667.226562 388.808594 666.140625 Z M 319.109375 660.214844 C 316.039062 658.816406 304.703125 660.171875 292.730469 663.425781 C 272.675781 668.898438 265.402344 675.140625 263.144531 677.628906 C 263.144531 677.71875 263.144531 677.808594 263.144531 677.945312 C 263.101562 682.375 264.816406 687.757812 268.203125 693.90625 C 270.101562 697.390625 274.980469 702.816406 278.910156 707.203125 C 280.625 709.148438 281.980469 710.640625 282.976562 711.816406 C 283.921875 712.945312 284.511719 713.761719 284.691406 714.214844 C 290.742188 713.21875 296.527344 711.859375 301.855469 710.324219 C 299.640625 707.746094 297.25 704.761719 295.710938 702.636719 C 291.964844 697.433594 287.628906 685.179688 288.351562 681.832031 C 288.351562 681.832031 288.351562 681.832031 288.351562 681.789062 C 288.53125 681.019531 289.929688 679.933594 292.550781 678.488281 C 299.640625 674.507812 314.1875 668.582031 323.945312 665.191406 C 322.089844 662.613281 320.375 660.804688 319.109375 660.214844 Z M 321.097656 661.121094 C 321.007812 660.398438 320.917969 659.671875 320.917969 658.949219 C 320.78125 659.402344 320.644531 659.992188 320.601562 660.667969 C 320.78125 660.804688 320.960938 660.941406 321.097656 661.121094 Z M 262.695312 678.441406 C 261.566406 681.605469 262.511719 691.78125 268.882812 701.460938 C 273.535156 708.46875 281.753906 714.167969 284.195312 714.304688 C 283.699219 713.308594 281.214844 710.503906 278.546875 707.519531 C 274.617188 703.132812 269.742188 697.660156 267.796875 694.132812 C 264.546875 688.121094 262.785156 682.828125 262.695312 678.441406 Z M 267.210938 699.5625 C 257.320312 703.628906 250.90625 706.660156 249.324219 708.109375 C 263.101562 710.820312 280.851562 716.789062 296.480469 722.351562 C 298.0625 719.140625 300.410156 715.796875 303.933594 712.675781 C 303.347656 712.085938 302.757812 711.410156 302.171875 710.683594 C 296.707031 712.269531 290.742188 713.671875 284.554688 714.710938 C 284.554688 714.710938 284.554688 714.710938 284.511719 714.710938 C 284.464844 714.710938 284.375 714.710938 284.285156 714.710938 C 281.53125 714.710938 273.082031 708.605469 268.476562 701.640625 C 268.070312 701.007812 267.617188 700.285156 267.210938 699.5625 Z M 307.050781 714.9375 C 305.378906 711.953125 297.835938 698.566406 295.082031 696.167969 C 292.820312 694.222656 291.242188 689.703125 289.929688 686.039062 C 289.523438 684.863281 289.117188 683.6875 288.710938 682.78125 C 288.757812 686.898438 292.6875 697.707031 296.074219 702.363281 C 299.597656 707.203125 305.0625 713.578125 307.050781 714.9375 Z M 307.683594 715.207031 C 309.671875 715.070312 328.007812 710.777344 337.085938 705.304688 C 341.015625 702.953125 344.179688 700.78125 346.527344 699.109375 C 346.4375 699.019531 346.347656 698.972656 346.257812 698.882812 C 340.703125 694.132812 339.570312 688.210938 339.617188 684.050781 C 339.664062 680.476562 340.476562 677.039062 341.742188 674.191406 C 338.894531 669.125 335.191406 663.742188 333.382812 663.109375 C 333.339844 663.109375 333.25 663.066406 333.15625 663.066406 C 329.949219 663.066406 303.570312 672.878906 292.777344 678.9375 C 289.707031 680.65625 288.980469 681.515625 288.847656 681.921875 C 289.34375 682.964844 289.839844 684.410156 290.382812 685.949219 C 291.648438 689.566406 293.226562 694.042969 295.394531 695.898438 C 298.421875 698.476562 306.824219 713.578125 307.683594 715.207031 Z M 346.574219 698.476562 C 351.585938 702.769531 358.542969 704.941406 366.175781 704.582031 C 373.179688 704.265625 378.824219 701.957031 381.308594 699.832031 C 381.445312 699.695312 381.578125 699.5625 381.761719 699.425781 C 378.101562 701.730469 374.714844 702.410156 372.320312 702.546875 C 371.957031 702.546875 371.597656 702.589844 371.28125 702.589844 C 369.023438 702.589844 367.488281 702.183594 367.214844 702.046875 C 360.257812 703.179688 355.878906 701.6875 353.4375 700.285156 C 351.046875 698.882812 349.960938 697.253906 349.734375 696.890625 C 341.378906 693.679688 341.742188 684.5 341.832031 683.550781 C 340.882812 682.058594 340.925781 679.253906 341.921875 675.09375 C 340.792969 678.035156 340.203125 681.246094 340.160156 683.914062 C 340.070312 688.074219 341.152344 693.863281 346.574219 698.476562 Z M 383.523438 697.617188 C 383.566406 697.617188 383.566406 697.617188 383.523438 697.617188 C 386.457031 694.222656 388.21875 690.109375 388.492188 685.722656 C 388.851562 680.207031 386.863281 674.734375 382.890625 670.257812 C 378.101562 664.875 370.695312 662.117188 363.332031 662.117188 C 357.277344 662.117188 351.179688 663.96875 346.574219 667.8125 C 345.21875 668.945312 344.042969 670.574219 343.050781 672.425781 C 343.050781 672.472656 343.003906 672.5625 342.960938 672.699219 C 341.0625 679.164062 341.378906 681.96875 342.054688 683.191406 C 346.484375 679.886719 352.398438 680.613281 352.492188 680.613281 C 352.625 680.613281 352.714844 680.746094 352.671875 680.882812 C 352.671875 681.019531 352.535156 681.109375 352.398438 681.0625 C 352.355469 681.0625 346.4375 680.339844 342.191406 683.640625 C 342.148438 684.636719 341.832031 693.320312 349.691406 696.441406 C 350.324219 695.21875 353.980469 688.34375 358.40625 685.8125 C 358.5 685.765625 358.632812 685.765625 358.722656 685.902344 C 358.769531 685.992188 358.769531 686.128906 358.632812 686.21875 C 354.253906 688.707031 350.546875 695.761719 350.050781 696.757812 C 350.59375 697.617188 354.839844 703.585938 366.945312 701.6875 C 367.035156 701.277344 367.394531 700.058594 367.847656 697.933594 C 367.894531 697.796875 367.984375 697.75 368.121094 697.75 C 368.253906 697.796875 368.300781 697.886719 368.300781 698.023438 C 367.847656 700.011719 367.53125 701.234375 367.394531 701.730469 C 368.75 702.046875 376.070312 703.628906 383.523438 697.617188 Z M 373.585938 641.902344 C 370.695312 640.589844 360.125 641.855469 348.96875 644.929688 C 330.265625 650.042969 323.492188 655.828125 321.367188 658.179688 C 321.324219 659.265625 321.460938 660.441406 321.640625 661.664062 C 322.542969 662.566406 323.492188 663.699219 324.441406 665.054688 C 329.273438 663.382812 332.84375 662.386719 333.566406 662.660156 C 335.460938 663.292969 339.121094 668.582031 341.964844 673.648438 C 342.191406 673.195312 342.371094 672.789062 342.597656 672.335938 C 342.597656 672.292969 342.597656 672.292969 342.597656 672.246094 C 342.597656 672.15625 342.644531 672.109375 342.734375 672.066406 C 343.816406 670.074219 345.039062 668.539062 346.257812 667.542969 C 356.738281 658.90625 374.351562 660.082031 383.207031 670.03125 C 384.832031 671.839844 386.140625 673.875 387.089844 675.953125 C 388.039062 675.320312 388.761719 674.734375 389.214844 674.28125 C 389.753906 673.738281 389.84375 672.425781 389.53125 670.527344 C 387.859375 660.941406 377.742188 643.800781 373.585938 641.902344 Z M 382.4375 623.949219 L 248.871094 658.589844 L 248.871094 707.972656 C 250.5 706.34375 257.5 703.089844 266.984375 699.152344 C 264.726562 695.128906 263.101562 690.695312 262.289062 686.402344 C 261.519531 682.195312 261.699219 678.578125 262.738281 677.402344 C 273.171875 665.644531 312.652344 656.78125 319.292969 659.808594 C 319.5625 659.945312 319.878906 660.125 320.195312 660.351562 C 320.328125 659.222656 320.554688 658.363281 320.960938 657.910156 C 330.671875 646.921875 367.578125 638.644531 373.765625 641.492188 C 376.070312 642.535156 379.367188 647.011719 382.394531 652.347656 Z M 248.421875 658.589844 L 243.453125 656.914062 L 243.453125 740.847656 L 248.421875 742.566406 Z M 382.078125 623.585938 L 377.199219 622.09375 L 244.039062 656.644531 L 248.691406 658.179688 Z M 258.582031 739.222656 L 248.871094 735.332031 L 248.871094 742.523438 Z M 291.691406 752.019531 C 293.046875 747.949219 294.132812 744.964844 294.3125 744.46875 C 294.085938 743.699219 292.371094 736.777344 294.222656 728.773438 C 294.671875 726.875 295.304688 724.839844 296.300781 722.761719 C 280.625 717.199219 262.738281 711.183594 249.007812 708.515625 C 249.007812 708.558594 248.960938 708.558594 248.960938 708.605469 L 249.050781 734.96875 Z M 325.707031 741.210938 L 325.796875 740.441406 C 326.878906 731.804688 337.765625 725.292969 347.386719 722.894531 C 357.1875 720.453125 372.410156 715.570312 373.359375 715.253906 C 374.21875 714.484375 390.207031 700.644531 398.925781 697.886719 C 408.636719 694.8125 441.65625 681.832031 444.726562 677.445312 C 441.835938 672.699219 434.5625 671.613281 431.039062 671.117188 C 430.226562 670.980469 429.59375 670.890625 429.234375 670.796875 C 416.222656 667.269531 414.597656 667.996094 411.300781 669.53125 C 410.757812 669.757812 410.171875 670.074219 409.449219 670.347656 C 409.269531 670.4375 400.914062 673.875 388.21875 678.9375 C 388.851562 681.199219 389.121094 683.507812 388.988281 685.8125 C 388.625 691.328125 386.007812 696.441406 381.625 700.238281 C 378.554688 702.863281 372.363281 704.804688 366.222656 705.121094 C 365.679688 705.167969 365.183594 705.167969 364.640625 705.167969 C 357.820312 705.167969 351.632812 703.179688 346.933594 699.425781 C 344.585938 701.144531 341.332031 703.3125 337.359375 705.710938 C 328.054688 711.320312 309.171875 715.707031 307.59375 715.707031 C 307.59375 715.707031 307.59375 715.707031 307.546875 715.707031 C 307.003906 715.660156 305.785156 714.621094 304.292969 713.082031 C 299.914062 716.882812 296.300781 722.035156 294.671875 728.910156 C 292.730469 737.277344 294.765625 744.421875 294.765625 744.46875 C 294.765625 744.511719 294.765625 744.558594 294.765625 744.601562 C 294.765625 744.648438 293.542969 747.902344 292.054688 752.425781 C 288.394531 761.335938 293.636719 764.320312 301.628906 768.84375 C 302.535156 769.339844 303.480469 769.882812 304.476562 770.46875 C 312.5625 775.171875 317.304688 774.449219 317.980469 774.3125 C 322.589844 766.082031 324.710938 749.304688 325.707031 741.210938 Z M 559.953125 722.308594 C 555.480469 713.261719 551.011719 706.253906 548.027344 703.585938 C 544.097656 700.101562 490.121094 687.441406 445.042969 677.671875 C 441.65625 682.421875 407.328125 695.671875 399.015625 698.292969 C 390.207031 701.097656 373.765625 715.480469 373.585938 715.613281 C 373.539062 715.613281 373.539062 715.660156 373.496094 715.660156 C 373.3125 715.707031 357.550781 720.816406 347.476562 723.347656 C 341.015625 724.976562 334.015625 728.414062 329.859375 733.117188 C 333.566406 733.660156 354.660156 742.296875 357.1875 743.335938 C 357.324219 743.382812 357.367188 743.515625 357.324219 743.652344 C 357.277344 743.742188 357.1875 743.789062 357.097656 743.789062 C 357.050781 743.789062 357.050781 743.789062 357.007812 743.789062 C 346.574219 739.492188 330.582031 733.207031 329.5 733.570312 C 329.5 733.570312 329.5 733.570312 329.453125 733.570312 C 327.691406 735.695312 326.472656 738.046875 326.15625 740.53125 L 326.066406 741.300781 C 324.984375 749.984375 322.996094 766.082031 318.34375 774.359375 C 320.960938 775.761719 349.011719 790.777344 371.914062 798.734375 C 395.851562 807.054688 416.539062 809.679688 416.765625 809.722656 C 416.8125 809.722656 416.855469 809.722656 416.855469 809.769531 C 416.949219 809.859375 427.5625 817.636719 432.304688 818.136719 C 436.234375 818.542969 443.101562 811.714844 447.210938 807.644531 C 448.113281 806.785156 448.835938 806.015625 449.46875 805.429688 C 451.910156 803.167969 472.820312 790.957031 491.296875 780.195312 C 500.195312 774.992188 508.640625 770.0625 514.0625 766.851562 C 530.457031 756.992188 552.589844 741.980469 552.816406 741.84375 C 552.863281 741.84375 552.863281 741.800781 552.90625 741.800781 C 556.160156 741.257812 564.742188 739.402344 565.78125 737.820312 C 566.324219 737.003906 564.199219 730.898438 559.953125 722.308594 Z M 423 776.53125 C 422.863281 776.484375 422.773438 776.53125 422.730469 776.664062 C 422.683594 776.800781 417.625 791.046875 416.089844 796.066406 C 416.042969 796.203125 416.132812 796.292969 416.222656 796.339844 C 416.222656 796.339844 416.269531 796.339844 416.269531 796.339844 C 416.359375 796.339844 416.449219 796.292969 416.496094 796.15625 C 417.984375 791.09375 423.089844 776.890625 423.136719 776.757812 C 423.179688 776.710938 423.136719 776.574219 423 776.53125 Z M 434.878906 776.621094 C 434.835938 776.53125 434.699219 776.484375 434.5625 776.53125 C 434.472656 776.574219 434.429688 776.710938 434.472656 776.847656 C 434.519531 776.9375 439.578125 787.113281 441.113281 791.636719 C 441.15625 791.726562 441.25 791.769531 441.339844 791.769531 C 441.382812 791.769531 441.382812 791.769531 441.429688 791.769531 C 441.566406 791.726562 441.609375 791.589844 441.566406 791.5 C 440.027344 786.933594 434.925781 776.757812 434.878906 776.621094 Z M 547.667969 715.480469 C 547.667969 715.34375 547.578125 715.253906 547.441406 715.253906 C 547.304688 715.253906 547.214844 715.34375 547.214844 715.480469 C 547.214844 715.570312 546.71875 723.257812 547.710938 729.816406 C 547.710938 729.90625 547.847656 729.996094 547.9375 729.996094 C 547.9375 729.996094 547.984375 729.996094 547.984375 729.996094 C 548.121094 729.996094 548.210938 729.859375 548.164062 729.722656 C 547.171875 723.167969 547.621094 715.523438 547.667969 715.480469 Z M 377.378906 684.910156 C 373.402344 683.867188 370.964844 684.140625 370.558594 684.183594 C 370.511719 684.367188 370.421875 684.5 370.332031 684.589844 C 369.925781 685.269531 369.15625 685.675781 368.253906 685.765625 C 369.699219 689.613281 368.886719 694.632812 368.84375 694.902344 C 368.84375 694.992188 368.707031 695.082031 368.617188 695.082031 C 368.617188 695.082031 368.570312 695.082031 368.570312 695.082031 C 368.433594 695.082031 368.34375 694.949219 368.390625 694.8125 C 368.390625 694.722656 369.746094 686.445312 366.042969 683.144531 C 362.335938 679.796875 355.789062 679.753906 355.742188 679.753906 C 355.699219 679.753906 355.605469 679.707031 355.5625 679.664062 C 352.039062 675.683594 345.535156 676.269531 343.636719 676.542969 C 343.5 676.542969 343.410156 676.453125 343.367188 676.359375 C 343.367188 676.226562 343.457031 676.136719 343.546875 676.089844 C 345.488281 675.820312 352.128906 675.230469 355.789062 679.300781 C 356.328125 679.300781 358.996094 679.390625 361.75 680.296875 C 361.796875 680.023438 361.886719 679.617188 362.113281 679.164062 C 362.066406 679.121094 359.402344 672.789062 355.382812 670.257812 C 355.292969 670.210938 355.246094 670.03125 355.292969 669.941406 C 355.335938 669.847656 355.515625 669.804688 355.605469 669.847656 C 359.3125 672.199219 361.839844 677.402344 362.382812 678.667969 C 362.519531 678.488281 362.699219 678.261719 362.925781 678.125 C 363.511719 677.671875 364.28125 677.492188 365.136719 677.628906 C 365.363281 677.671875 365.589844 677.71875 365.816406 677.761719 C 366.085938 676.675781 367.441406 670.527344 365.90625 668.085938 C 365.859375 667.996094 365.859375 667.859375 365.996094 667.769531 C 366.132812 667.679688 366.222656 667.722656 366.3125 667.859375 C 367.984375 670.527344 366.582031 676.8125 366.3125 677.898438 C 367.488281 678.261719 368.480469 678.894531 369.25 679.796875 C 369.65625 679.164062 374.171875 672.515625 382.03125 672.382812 C 382.121094 672.382812 382.257812 672.472656 382.257812 672.609375 C 382.257812 672.742188 382.167969 672.832031 382.03125 672.832031 C 374.082031 672.96875 369.65625 679.980469 369.609375 680.070312 C 369.609375 680.113281 369.566406 680.113281 369.566406 680.113281 C 369.972656 680.65625 370.289062 681.289062 370.558594 681.96875 C 370.785156 682.648438 370.828125 683.191406 370.738281 683.640625 C 371.550781 683.550781 373.855469 683.414062 377.558594 684.410156 C 382.890625 685.8125 385.464844 688.84375 385.871094 690.5625 C 385.914062 690.695312 385.824219 690.789062 385.691406 690.832031 C 385.691406 690.832031 385.644531 690.832031 385.644531 690.832031 C 385.554688 690.832031 385.464844 690.742188 385.417969 690.652344 C 385.011719 689.203125 382.484375 686.265625 377.378906 684.910156 Z M 370.105469 682.238281 C 369.292969 679.980469 367.578125 678.53125 365.183594 678.171875 C 364.414062 678.078125 363.78125 678.214844 363.332031 678.578125 C 362.609375 679.164062 362.382812 680.160156 362.292969 680.523438 C 363.738281 681.019531 365.183594 681.789062 366.402344 682.875 C 367.171875 683.550781 367.710938 684.410156 368.121094 685.359375 C 368.933594 685.316406 369.609375 684.953125 369.972656 684.367188 C 370.332031 683.777344 370.378906 683.054688 370.105469 682.238281 Z M 296.527344 722.351562 C 298.105469 719.140625 300.457031 715.796875 303.980469 712.675781 C 303.390625 712.085938 302.804688 711.410156 302.21875 710.683594 C 302.171875 710.683594 298.242188 716.925781 296.527344 722.351562 Z M 387.542969 676.136719 C 387.453125 676.179688 387.363281 676.269531 387.269531 676.316406 C 387.585938 677.039062 387.859375 677.71875 388.039062 678.441406 C 394.632812 675.820312 400.054688 673.648438 403.757812 672.109375 Z M 387.542969 676.136719 " fill-opacity="1" fill-rule="nonzero"/></g></svg>