<svg xmlns="http://www.w3.org/2000/svg" xmlns:xlink="http://www.w3.org/1999/xlink" width="1080" zoomAndPan="magnify" viewBox="0 0 810 809.999993" height="1080" preserveAspectRatio="xMidYMid meet" version="1.0"><defs><clipPath id="32be09ee2a"><path d="M 36.316406 194.484375 L 773 194.484375 L 773 642.984375 L 36.316406 642.984375 Z M 36.316406 194.484375 " clip-rule="nonzero"/></clipPath><clipPath id="d879179420"><path d="M 36.316406 194.484375 L 773 194.484375 L 773 642.984375 L 36.316406 642.984375 Z M 36.316406 194.484375 " clip-rule="nonzero"/></clipPath></defs><rect x="-81" width="972" fill="#ffffff" y="-80.999999" height="971.999992" fill-opacity="1"/><rect x="-81" width="972" fill="#ffffff" y="-80.999999" height="971.999992" fill-opacity="1"/><g clip-path="url(#32be09ee2a)"><path fill="#b9dab4" d="M 771.816406 459.503906 C 768.941406 464.234375 744.066406 468.65625 742.011719 468.964844 C 739.542969 470.609375 690.414062 503.925781 653.824219 525.828125 C 641.492188 533.230469 622.375 544.4375 602.023438 556.160156 C 560.089844 580.632812 512.5 608.394531 507.054688 613.433594 C 505.71875 614.667969 503.96875 616.414062 501.914062 618.371094 C 492.148438 628.035156 477.453125 642.636719 468.097656 642.636719 C 467.789062 642.636719 467.480469 642.636719 467.175781 642.636719 C 456.382812 641.503906 433.667969 624.949219 431.613281 623.40625 C 428.734375 622.996094 382.585938 616.929688 329.445312 598.421875 C 276.308594 579.914062 210.941406 544.851562 207.035156 542.691406 C 205.390625 543.101562 194.496094 544.953125 175.480469 533.847656 C 173.320312 532.613281 171.164062 531.378906 169.109375 530.144531 C 150.609375 519.65625 138.375 512.769531 146.703125 491.996094 L 73.214844 462.589844 L 51.421875 469.992188 L 49.164062 470.816406 C 49.058594 470.816406 49.058594 470.816406 48.957031 470.816406 C 48.855469 470.816406 48.855469 470.816406 48.75 470.816406 L 36.519531 466.601562 C 36.417969 466.703125 36.316406 466.496094 36.316406 466.292969 L 36.316406 274.320312 C 36.316406 274.214844 36.316406 274.214844 36.316406 274.214844 C 36.316406 274.113281 36.417969 274.113281 36.417969 274.011719 C 36.417969 274.011719 36.519531 273.90625 36.519531 273.90625 C 36.519531 273.90625 36.519531 273.90625 36.625 273.90625 C 36.625 273.90625 36.625 273.90625 36.726562 273.90625 L 341.574219 194.835938 C 341.679688 194.835938 341.78125 194.835938 341.882812 194.835938 L 354.527344 198.742188 C 354.730469 198.84375 354.9375 199.050781 354.9375 199.257812 L 354.628906 202.957031 L 354.628906 266.402344 C 359.871094 275.757812 364.699219 286.144531 367.785156 294.882812 C 380.324219 297.351562 396.152344 300.640625 414.859375 304.445312 C 416.398438 303.828125 417.632812 303.210938 418.867188 302.699219 C 426.472656 299.097656 430.378906 297.351562 460.289062 305.472656 C 461.109375 305.679688 462.445312 305.886719 464.296875 306.195312 C 472.414062 307.324219 489.273438 309.792969 496.15625 321 C 496.15625 321 496.261719 321 496.261719 321 C 496.363281 321 496.363281 321.105469 496.464844 321.207031 C 604.078125 344.546875 722.175781 372.308594 731.21875 380.433594 C 738.105469 386.601562 748.382812 402.539062 758.660156 423.3125 C 766.164062 438.734375 773.566406 456.625 771.816406 459.503906 Z M 771.816406 459.503906 " fill-opacity="1" fill-rule="nonzero"/></g><path fill="#ff867a" d="M 182.058594 406.960938 C 177.640625 403.878906 165.101562 389.378906 157.1875 378.375 C 149.578125 367.785156 140.535156 343.210938 140.433594 333.855469 C 141.253906 336.011719 142.179688 338.582031 143.207031 341.257812 C 146.1875 349.585938 149.785156 359.867188 154.925781 364.289062 C 161.089844 369.738281 178.253906 400.175781 182.058594 406.960938 Z M 341.679688 195.863281 L 38.679688 274.421875 L 49.265625 277.917969 L 352.777344 199.257812 Z M 37.34375 465.984375 L 48.648438 469.890625 L 48.648438 278.84375 L 37.34375 275.039062 Z M 260.996094 314.113281 C 254.519531 302.59375 246.089844 290.359375 241.980469 288.917969 C 241.878906 288.917969 241.671875 288.816406 241.464844 288.816406 C 234.167969 288.816406 174.144531 311.128906 149.578125 324.910156 C 142.589844 328.816406 140.945312 330.769531 140.636719 331.695312 C 141.769531 334.058594 142.898438 337.351562 144.132812 340.847656 C 147.011719 349.070312 150.609375 359.25 155.542969 363.46875 C 162.425781 369.429688 181.542969 403.773438 183.601562 407.476562 C 188.121094 407.167969 229.851562 397.398438 250.511719 384.957031 C 256.78125 381.152344 262.125 377.65625 266.648438 374.574219 C 263.359375 369.636719 260.070312 362.542969 258.21875 353.082031 C 257.808594 350.921875 257.5 348.867188 257.292969 346.808594 C 256.472656 343.109375 256.265625 339.613281 256.265625 336.527344 C 256.265625 328.507812 258.21875 320.691406 260.996094 314.113281 Z M 209.914062 281.617188 C 210.527344 281.925781 211.25 282.339844 211.96875 282.851562 C 212.277344 280.28125 212.789062 278.328125 213.714844 277.300781 C 235.8125 252.3125 319.785156 233.496094 333.867188 239.976562 C 339.109375 242.339844 346.613281 252.519531 353.496094 264.652344 L 353.496094 200.078125 L 49.675781 278.84375 L 49.675781 391.128906 C 52.964844 387.835938 65.710938 381.667969 83.59375 374.160156 C 82.976562 369.535156 80.613281 350.613281 79.894531 340.023438 C 78.558594 331.386719 79.070312 324.085938 81.230469 321.617188 C 104.972656 294.882812 194.90625 274.730469 209.914062 281.617188 Z M 209.914062 281.617188 " fill-opacity="1" fill-rule="nonzero"/><path fill="#ffc3cc" d="M 152.867188 438.425781 C 148.65625 456.730469 152.558594 472.359375 153.074219 474.105469 C 152.664062 475.238281 150.195312 482.023438 147.113281 491.277344 L 50.085938 452.410156 L 49.882812 392.464844 C 49.882812 392.359375 49.984375 392.359375 49.984375 392.257812 C 81.230469 398.324219 121.933594 412 157.699219 424.648438 C 155.4375 429.480469 153.898438 434.109375 152.867188 438.425781 Z M 328.109375 378.992188 C 322.972656 378.992188 319.476562 378.070312 318.859375 377.761719 C 303.03125 380.332031 293.0625 376.9375 287.511719 373.75 C 282.066406 370.5625 279.597656 366.859375 279.085938 366.039062 C 260.070312 358.738281 260.890625 337.863281 261.097656 335.703125 C 258.9375 332.3125 259.042969 325.9375 261.304688 316.476562 C 258.734375 323.160156 257.398438 330.460938 257.292969 336.527344 C 257.191406 345.78125 259.761719 358.941406 271.992188 369.535156 C 283.402344 379.300781 299.230469 384.238281 316.597656 383.414062 C 332.53125 382.695312 345.378906 377.453125 351.03125 372.617188 C 351.339844 372.308594 351.648438 372 352.058594 371.695312 C 343.734375 376.9375 336.023438 378.480469 330.578125 378.789062 C 329.652344 378.992188 328.933594 378.992188 328.109375 378.992188 Z M 314.339844 323.367188 C 312.589844 323.160156 311.152344 323.46875 310.125 324.292969 C 308.480469 325.628906 307.964844 327.789062 307.761719 328.710938 C 311.050781 329.84375 314.339844 331.59375 317.113281 334.058594 C 318.859375 335.601562 320.09375 337.554688 321.019531 339.714844 C 322.867188 339.613281 324.410156 338.789062 325.234375 337.453125 C 326.054688 336.117188 326.15625 334.472656 325.542969 332.515625 C 323.691406 327.375 319.683594 324.085938 314.339844 323.367188 Z M 367.375 340.640625 C 366.757812 350.613281 362.75 359.972656 356.066406 367.582031 C 339.003906 381.257812 322.457031 377.65625 319.476562 376.9375 C 319.785156 375.910156 320.503906 373.03125 321.53125 368.503906 C 321.636719 368.199219 321.429688 367.992188 321.121094 367.890625 C 320.8125 367.785156 320.609375 367.992188 320.503906 368.300781 C 319.476562 373.03125 318.65625 375.910156 318.449219 376.835938 C 290.902344 381.152344 281.242188 367.582031 280.007812 365.625 C 281.140625 363.46875 289.671875 347.425781 299.539062 341.667969 C 299.742188 341.566406 299.847656 341.257812 299.742188 340.949219 C 299.640625 340.742188 299.332031 340.640625 299.023438 340.742188 C 288.953125 346.5 280.625 362.128906 279.1875 364.90625 C 261.199219 357.8125 261.917969 338.070312 262.125 335.808594 C 271.785156 328.402344 285.25 329.945312 285.355469 329.945312 C 285.664062 329.945312 285.867188 329.742188 285.96875 329.535156 C 285.96875 329.226562 285.765625 329.019531 285.558594 328.917969 C 285.457031 328.917969 271.890625 327.273438 261.816406 334.78125 C 260.273438 332.003906 259.554688 325.628906 263.871094 310.925781 C 263.976562 310.617188 263.976562 310.410156 264.078125 310.308594 C 266.238281 306.089844 269.011719 302.390625 272.09375 299.820312 C 282.679688 291.078125 296.453125 286.863281 310.226562 286.863281 C 327.082031 286.863281 343.835938 293.136719 354.730469 305.371094 C 363.671875 315.652344 368.296875 328.097656 367.375 340.640625 Z M 361.308594 351.746094 C 360.382812 347.839844 354.527344 340.949219 342.398438 337.761719 C 333.96875 335.601562 328.726562 335.808594 326.878906 336.011719 C 327.082031 334.984375 326.980469 333.75 326.464844 332.207031 C 325.953125 330.667969 325.128906 329.226562 324.207031 327.992188 C 324.308594 327.992188 324.308594 327.890625 324.308594 327.890625 C 324.410156 327.683594 334.484375 311.746094 352.574219 311.4375 C 352.882812 311.4375 353.085938 311.234375 353.085938 310.925781 C 353.085938 310.617188 352.777344 310.410156 352.574219 310.410156 C 334.6875 310.71875 324.410156 325.832031 323.484375 327.273438 C 321.738281 325.214844 319.476562 323.777344 316.804688 322.953125 C 317.421875 320.488281 320.710938 306.195312 316.804688 300.128906 C 316.703125 299.921875 316.292969 299.820312 316.085938 299.921875 C 315.878906 300.023438 315.777344 300.4375 315.878906 300.640625 C 319.476562 306.195312 316.289062 320.179688 315.675781 322.644531 C 315.160156 322.542969 314.648438 322.441406 314.132812 322.335938 C 312.078125 322.027344 310.433594 322.441406 309.097656 323.46875 C 308.582031 323.878906 308.273438 324.292969 307.863281 324.703125 C 306.527344 321.71875 300.875 310 292.445312 304.652344 C 292.238281 304.550781 291.933594 304.550781 291.726562 304.859375 C 291.625 305.0625 291.625 305.371094 291.933594 305.578125 C 301.078125 311.335938 307.246094 325.730469 307.246094 325.832031 C 306.730469 326.863281 306.527344 327.789062 306.425781 328.402344 C 300.15625 326.347656 294.089844 326.140625 292.855469 326.140625 C 284.429688 316.886719 269.421875 318.226562 265.003906 318.839844 C 264.695312 318.839844 264.488281 319.148438 264.59375 319.457031 C 264.59375 319.765625 264.898438 319.972656 265.207031 319.871094 C 269.527344 319.253906 284.324219 317.917969 292.34375 326.964844 C 292.445312 327.066406 292.546875 327.171875 292.753906 327.171875 C 292.855469 327.171875 307.761719 327.273438 316.1875 334.882812 C 324.617188 342.492188 321.53125 361.207031 321.53125 361.410156 C 321.53125 361.71875 321.636719 361.925781 321.945312 362.027344 C 321.945312 362.027344 322.046875 362.027344 322.046875 362.027344 C 322.253906 362.027344 322.5625 361.820312 322.5625 361.617188 C 322.664062 361 324.511719 349.585938 321.222656 340.847656 C 323.28125 340.640625 324.925781 339.613281 325.953125 338.171875 C 326.15625 337.863281 326.261719 337.554688 326.464844 337.246094 C 327.496094 337.144531 332.941406 336.527344 341.988281 338.890625 C 353.601562 341.976562 359.355469 348.660156 360.179688 352.15625 C 360.28125 352.363281 360.488281 352.566406 360.691406 352.566406 C 360.691406 352.566406 360.796875 352.566406 360.796875 352.566406 C 361.207031 352.257812 361.410156 352.054688 361.308594 351.746094 Z M 130.875 406.449219 C 130.667969 406.449219 130.460938 406.449219 130.359375 406.449219 C 126.761719 406.449219 118.949219 401.820312 110.933594 395.035156 L 83.800781 375.1875 C 65.609375 382.796875 53.890625 388.554688 50.703125 391.4375 C 82.050781 397.605469 122.445312 411.179688 158.007812 423.824219 C 162.015625 411.589844 170.957031 397.398438 170.957031 397.398438 C 158.523438 401 145.058594 404.1875 130.875 406.449219 Z M 413.109375 305.164062 C 395.328125 301.464844 380.222656 298.378906 368.09375 296.015625 C 369.328125 299.613281 370.25 302.902344 370.765625 305.78125 C 371.585938 310.511719 371.277344 313.699219 369.738281 315.242188 C 368.8125 316.167969 367.269531 317.402344 365.214844 318.839844 L 402.214844 309.691406 C 407.457031 307.53125 411.15625 305.988281 413.109375 305.164062 Z M 413.109375 305.164062 " fill-opacity="1" fill-rule="nonzero"/><g clip-path="url(#d879179420)"><path fill="#004f70" d="M 83.59375 374.160156 C 82.976562 369.535156 80.613281 350.613281 79.894531 340.023438 C 79.996094 340.742188 80.101562 341.359375 80.203125 342.078125 C 81.949219 351.847656 85.648438 361.925781 90.890625 371.078125 C 88.425781 372.105469 85.957031 373.132812 83.59375 374.160156 Z M 49.675781 469.683594 L 71.773438 462.179688 L 49.675781 453.335938 Z M 266.648438 374.675781 C 268.601562 373.339844 270.347656 372.105469 271.992188 370.972656 C 271.785156 370.769531 271.582031 370.664062 271.375 370.460938 C 262.84375 363.160156 258.9375 354.625 257.292969 347.015625 C 257.5 349.070312 257.808594 351.128906 258.21875 353.289062 C 259.96875 362.644531 263.359375 369.636719 266.648438 374.675781 Z M 91.40625 372 C 88.734375 373.132812 86.164062 374.160156 83.800781 375.1875 L 110.933594 395.035156 C 104.972656 389.894531 98.910156 383.519531 94.488281 376.835938 C 93.359375 375.292969 92.332031 373.648438 91.40625 372 Z M 771.816406 459.503906 C 768.941406 464.234375 744.066406 468.65625 742.011719 468.964844 C 739.542969 470.609375 690.414062 503.925781 653.824219 525.828125 C 641.492188 533.230469 622.375 544.4375 602.023438 556.160156 C 560.089844 580.632812 512.5 608.394531 507.054688 613.433594 C 505.71875 614.667969 503.96875 616.414062 501.914062 618.371094 C 492.148438 628.035156 477.453125 642.636719 468.097656 642.636719 C 467.789062 642.636719 467.480469 642.636719 467.175781 642.636719 C 456.382812 641.503906 433.667969 624.949219 431.613281 623.40625 C 428.734375 622.996094 382.585938 616.929688 329.445312 598.421875 C 276.308594 579.914062 210.941406 544.851562 207.035156 542.691406 C 205.390625 543.101562 194.496094 544.953125 175.480469 533.847656 C 173.320312 532.613281 171.164062 531.378906 169.109375 530.144531 C 150.609375 519.65625 138.375 512.769531 146.703125 491.996094 L 73.214844 462.589844 L 51.421875 469.992188 L 49.164062 470.816406 C 49.058594 470.816406 49.058594 470.816406 48.957031 470.816406 C 48.855469 470.816406 48.855469 470.816406 48.75 470.816406 L 36.519531 466.601562 C 36.417969 466.703125 36.316406 466.496094 36.316406 466.292969 L 36.316406 274.320312 C 36.316406 274.320312 36.316406 274.214844 36.316406 274.214844 C 36.316406 274.113281 36.417969 274.113281 36.417969 274.011719 C 36.417969 274.011719 36.519531 273.90625 36.519531 273.90625 C 36.519531 273.90625 36.519531 273.90625 36.625 273.90625 C 36.625 273.90625 36.625 273.90625 36.726562 273.90625 L 341.574219 194.835938 C 341.679688 194.835938 341.78125 194.835938 341.882812 194.835938 L 354.527344 198.742188 C 354.730469 198.84375 354.9375 199.050781 354.9375 199.257812 L 354.628906 202.957031 L 354.628906 266.402344 C 359.871094 275.757812 364.699219 286.144531 367.785156 294.882812 C 380.324219 297.351562 396.152344 300.640625 414.859375 304.445312 C 416.398438 303.828125 417.632812 303.210938 418.867188 302.699219 C 426.472656 299.097656 430.378906 297.351562 460.289062 305.472656 C 461.109375 305.679688 462.445312 305.886719 464.296875 306.195312 C 472.414062 307.324219 489.273438 309.792969 496.15625 321 C 496.15625 321 496.261719 321 496.261719 321 C 496.363281 321 496.363281 321.105469 496.464844 321.207031 C 604.078125 344.546875 722.175781 372.308594 731.21875 380.433594 C 738.105469 386.601562 748.382812 402.539062 758.660156 423.3125 C 766.164062 438.734375 773.566406 456.625 771.816406 459.503906 Z M 368.09375 296.015625 C 369.324219 299.613281 370.25 302.902344 370.765625 305.78125 C 371.585938 310.511719 371.277344 313.699219 369.738281 315.242188 C 368.710938 316.269531 366.960938 317.609375 364.597656 319.253906 C 365.316406 320.898438 365.933594 322.441406 366.34375 324.085938 C 390.703125 314.421875 407.972656 307.324219 413.007812 305.269531 C 395.328125 301.566406 380.222656 298.480469 368.09375 296.015625 Z M 209.5 282.542969 C 202.511719 279.355469 176.714844 282.441406 149.476562 289.84375 C 103.84375 302.285156 87.292969 316.476562 82.15625 322.132812 C 82.15625 322.335938 82.15625 322.542969 82.15625 322.851562 C 82.050781 332.929688 85.957031 345.164062 93.667969 359.148438 C 97.984375 367.066406 109.085938 379.40625 118.027344 389.378906 C 121.933594 393.800781 125.015625 397.195312 127.277344 399.867188 C 129.433594 402.4375 130.769531 404.289062 131.183594 405.316406 C 144.953125 403.054688 158.109375 399.96875 170.238281 396.472656 C 165.203125 390.613281 159.753906 383.828125 156.261719 378.992188 C 147.730469 367.167969 137.863281 339.304688 139.507812 331.695312 C 139.507812 331.695312 139.507812 331.695312 139.507812 331.589844 C 139.917969 329.84375 143.105469 327.375 149.066406 324.085938 C 165.203125 315.035156 198.296875 301.566406 220.5 293.855469 C 216.285156 287.996094 212.378906 283.882812 209.5 282.542969 Z M 214.023438 284.601562 C 213.816406 282.957031 213.613281 281.3125 213.613281 279.664062 C 213.304688 280.695312 212.996094 282.03125 212.894531 283.574219 C 213.304688 283.882812 213.714844 284.191406 214.023438 284.601562 Z M 81.128906 323.984375 C 78.558594 331.179688 80.714844 354.316406 95.207031 376.320312 C 105.796875 392.257812 124.5 405.214844 130.050781 405.523438 C 128.921875 403.261719 123.269531 396.886719 117.203125 390.097656 C 108.261719 380.125 97.160156 367.683594 92.742188 359.664062 C 85.339844 345.988281 81.332031 333.957031 81.128906 323.984375 Z M 91.40625 372 C 68.898438 381.257812 54.300781 388.144531 50.703125 391.4375 C 82.050781 397.605469 122.445312 411.179688 158.007812 423.824219 C 161.605469 416.523438 166.949219 408.914062 174.964844 401.820312 C 173.628906 400.484375 172.292969 398.941406 170.957031 397.296875 C 158.523438 400.894531 144.953125 404.082031 130.875 406.449219 C 130.875 406.449219 130.875 406.449219 130.769531 406.449219 C 130.667969 406.449219 130.460938 406.449219 130.257812 406.449219 C 123.988281 406.449219 104.765625 392.566406 94.285156 376.730469 C 93.359375 375.292969 92.332031 373.648438 91.40625 372 Z M 182.058594 406.960938 C 178.253906 400.175781 161.089844 369.738281 154.820312 364.289062 C 149.683594 359.867188 146.085938 349.585938 143.105469 341.257812 C 142.179688 338.582031 141.253906 335.910156 140.328125 333.855469 C 140.433594 343.210938 149.375 367.785156 157.082031 378.378906 C 165.101562 389.378906 177.535156 403.878906 182.058594 406.960938 Z M 183.496094 407.578125 C 188.019531 407.269531 229.75 397.503906 250.410156 385.058594 C 259.351562 379.714844 266.542969 374.777344 271.890625 370.972656 C 271.683594 370.769531 271.476562 370.664062 271.273438 370.460938 C 258.628906 359.664062 256.0625 346.191406 256.164062 336.734375 C 256.265625 328.609375 258.117188 320.796875 260.996094 314.316406 C 254.519531 302.800781 246.089844 290.566406 241.980469 289.125 C 241.878906 289.125 241.671875 289.023438 241.464844 289.023438 C 234.167969 289.023438 174.144531 311.335938 149.578125 325.113281 C 142.589844 329.019531 140.945312 330.976562 140.636719 331.898438 C 141.769531 334.265625 142.898438 337.554688 144.132812 341.050781 C 147.011719 349.277344 150.609375 359.457031 155.542969 363.671875 C 162.425781 369.535156 181.542969 403.878906 183.496094 407.578125 Z M 271.992188 369.535156 C 283.402344 379.300781 299.230469 384.238281 316.597656 383.414062 C 332.53125 382.695312 345.378906 377.453125 351.03125 372.617188 C 351.339844 372.308594 351.648438 372 352.058594 371.691406 C 343.734375 376.9375 336.023438 378.480469 330.578125 378.789062 C 329.753906 378.789062 328.933594 378.890625 328.214844 378.890625 C 323.074219 378.890625 319.578125 377.964844 318.964844 377.65625 C 303.136719 380.226562 293.164062 376.835938 287.613281 373.648438 C 282.167969 370.460938 279.699219 366.757812 279.1875 365.933594 C 260.171875 358.632812 260.996094 337.761719 261.199219 335.601562 C 259.042969 332.207031 259.144531 325.832031 261.40625 316.375 C 258.835938 323.058594 257.5 330.359375 257.398438 336.425781 C 257.191406 345.882812 259.660156 359.046875 271.992188 369.535156 Z M 356.066406 367.582031 C 356.171875 367.582031 356.171875 367.582031 356.066406 367.582031 C 362.75 359.867188 366.757812 350.511719 367.375 340.539062 C 368.195312 327.992188 363.671875 315.550781 354.628906 305.371094 C 343.734375 293.136719 326.878906 286.863281 310.125 286.863281 C 296.351562 286.863281 282.476562 291.078125 271.992188 299.820312 C 268.910156 302.390625 266.238281 306.089844 263.976562 310.308594 C 263.976562 310.410156 263.871094 310.617188 263.769531 310.925781 C 259.453125 325.628906 260.171875 332.003906 261.714844 334.78125 C 271.785156 327.273438 285.25 328.917969 285.457031 328.917969 C 285.765625 328.917969 285.96875 329.226562 285.867188 329.535156 C 285.867188 329.84375 285.558594 330.050781 285.25 329.945312 C 285.148438 329.945312 271.683594 328.300781 262.023438 335.808594 C 261.917969 338.070312 261.199219 357.8125 279.085938 364.90625 C 280.523438 362.128906 288.847656 346.5 298.921875 340.742188 C 299.125 340.640625 299.433594 340.640625 299.640625 340.949219 C 299.742188 341.15625 299.742188 341.464844 299.433594 341.667969 C 289.464844 347.324219 281.035156 363.363281 279.90625 365.625 C 281.140625 367.582031 290.800781 381.152344 318.347656 376.835938 C 318.550781 375.910156 319.375 373.132812 320.402344 368.300781 C 320.503906 367.992188 320.710938 367.890625 321.019531 367.890625 C 321.328125 367.992188 321.429688 368.199219 321.429688 368.503906 C 320.402344 373.03125 319.683594 375.804688 319.375 376.9375 C 322.457031 377.65625 339.109375 381.257812 356.066406 367.582031 Z M 333.457031 240.902344 C 326.878906 237.917969 302.828125 240.796875 277.441406 247.789062 C 234.886719 259.410156 219.472656 272.570312 214.640625 277.917969 C 214.539062 280.386719 214.847656 283.058594 215.257812 285.835938 C 217.3125 287.890625 219.472656 290.460938 221.628906 293.546875 C 232.628906 289.742188 240.746094 287.480469 242.390625 288.097656 C 246.707031 289.535156 255.035156 301.566406 261.507812 313.082031 C 262.023438 312.054688 262.433594 311.128906 262.949219 310.101562 C 262.949219 310 262.949219 310 262.949219 309.894531 C 262.949219 309.691406 263.050781 309.585938 263.257812 309.484375 C 265.722656 304.960938 268.496094 301.464844 271.273438 299.203125 C 295.117188 279.5625 335.203125 282.234375 355.347656 304.859375 C 359.046875 308.96875 362.027344 313.597656 364.1875 318.328125 C 366.34375 316.886719 367.988281 315.550781 369.019531 314.523438 C 370.25 313.289062 370.457031 310.308594 369.738281 305.988281 C 365.933594 284.191406 342.910156 245.21875 333.457031 240.902344 Z M 353.601562 200.078125 L 49.675781 278.84375 L 49.675781 391.128906 C 53.375 387.425781 69.308594 380.023438 90.890625 371.078125 C 85.753906 361.925781 82.050781 351.847656 80.203125 342.078125 C 78.457031 332.515625 78.867188 324.292969 81.230469 321.617188 C 104.972656 294.882812 194.804688 274.730469 209.914062 281.617188 C 210.527344 281.925781 211.25 282.339844 211.96875 282.851562 C 212.277344 280.28125 212.789062 278.328125 213.714844 277.300781 C 235.8125 252.3125 319.785156 233.496094 333.867188 239.976562 C 339.109375 242.339844 346.613281 252.519531 353.496094 264.652344 Z M 48.648438 278.84375 L 37.34375 275.039062 L 37.34375 465.878906 L 48.648438 469.789062 Z M 352.777344 199.257812 L 341.679688 195.863281 L 38.679688 274.421875 L 49.265625 277.917969 Z M 71.773438 462.179688 L 49.675781 453.335938 L 49.675781 469.683594 Z M 147.113281 491.277344 C 150.195312 482.023438 152.664062 475.238281 153.074219 474.105469 C 152.558594 472.359375 148.65625 456.625 152.867188 438.425781 C 153.898438 434.109375 155.335938 429.480469 157.597656 424.75 C 121.933594 412.101562 81.230469 398.425781 49.984375 392.359375 C 49.984375 392.464844 49.882812 392.464844 49.882812 392.566406 L 50.085938 452.511719 Z M 224.507812 466.703125 L 224.714844 464.957031 C 227.179688 445.316406 251.949219 430.507812 273.84375 425.058594 C 296.144531 419.507812 330.78125 408.402344 332.941406 407.683594 C 334.894531 405.933594 371.277344 374.46875 391.117188 368.199219 C 413.214844 361.207031 488.347656 331.695312 495.335938 321.71875 C 488.757812 310.925781 472.210938 308.457031 464.191406 307.324219 C 462.34375 307.015625 460.902344 306.8125 460.082031 306.605469 C 430.480469 298.585938 426.78125 300.230469 419.277344 303.726562 C 418.042969 304.242188 416.707031 304.960938 415.0625 305.578125 C 414.652344 305.78125 395.636719 313.597656 366.757812 325.113281 C 368.195312 330.253906 368.8125 335.5 368.503906 340.742188 C 367.683594 353.289062 361.71875 364.90625 351.75 373.542969 C 344.761719 379.507812 330.679688 383.929688 316.703125 384.648438 C 315.46875 384.753906 314.339844 384.753906 313.105469 384.753906 C 297.585938 384.753906 283.503906 380.226562 272.816406 371.691406 C 267.46875 375.601562 260.070312 380.535156 251.023438 385.984375 C 229.851562 398.734375 186.890625 408.710938 183.292969 408.710938 C 183.292969 408.710938 183.292969 408.710938 183.1875 408.710938 C 181.957031 408.605469 179.179688 406.242188 175.789062 402.746094 C 165.820312 411.382812 157.597656 423.105469 153.898438 438.734375 C 149.476562 457.757812 154.101562 474.003906 154.101562 474.105469 C 154.101562 474.210938 154.101562 474.3125 154.101562 474.414062 C 154.101562 474.519531 151.328125 481.921875 147.933594 492.203125 C 139.609375 512.460938 151.53125 519.246094 169.726562 529.527344 C 171.78125 530.660156 173.9375 531.894531 176.199219 533.230469 C 194.597656 543.925781 205.390625 542.277344 206.933594 541.96875 C 217.414062 523.257812 222.246094 485.109375 224.507812 466.703125 Z M 757.53125 423.722656 C 747.355469 403.15625 737.179688 387.21875 730.398438 381.152344 C 721.453125 373.234375 598.632812 344.445312 496.054688 322.234375 C 488.347656 333.03125 410.234375 363.160156 391.320312 369.121094 C 371.277344 375.496094 333.867188 408.195312 333.457031 408.503906 C 333.351562 408.503906 333.351562 408.605469 333.25 408.605469 C 332.839844 408.710938 296.96875 420.328125 274.046875 426.085938 C 259.351562 429.789062 243.417969 437.605469 233.964844 448.296875 C 242.390625 449.53125 290.390625 469.171875 296.144531 471.535156 C 296.453125 471.640625 296.558594 471.945312 296.453125 472.253906 C 296.351562 472.460938 296.144531 472.5625 295.941406 472.5625 C 295.835938 472.5625 295.835938 472.5625 295.734375 472.5625 C 271.992188 462.796875 235.609375 448.503906 233.140625 449.324219 C 233.140625 449.324219 233.140625 449.324219 233.039062 449.324219 C 229.03125 454.160156 226.253906 459.503906 225.535156 465.160156 L 225.328125 466.910156 C 222.863281 486.652344 218.339844 523.257812 207.753906 542.074219 C 213.714844 545.261719 277.542969 579.398438 329.652344 597.496094 C 384.125 616.414062 431.199219 622.378906 431.714844 622.480469 C 431.816406 622.480469 431.921875 622.480469 431.921875 622.585938 C 432.125 622.789062 456.277344 640.476562 467.070312 641.609375 C 476.011719 642.53125 491.636719 627.007812 500.988281 617.753906 C 503.042969 615.796875 504.6875 614.050781 506.128906 612.714844 C 511.679688 607.574219 559.265625 579.808594 601.304688 555.335938 C 621.550781 543.511719 640.773438 532.304688 653.105469 525.003906 C 690.414062 502.589844 740.777344 468.453125 741.292969 468.144531 C 741.394531 468.144531 741.394531 468.039062 741.496094 468.039062 C 748.898438 466.804688 768.425781 462.589844 770.789062 458.992188 C 772.023438 457.140625 767.191406 443.257812 757.53125 423.722656 Z M 445.898438 547.007812 C 445.589844 546.90625 445.382812 547.007812 445.28125 547.316406 C 445.179688 547.625 433.667969 580.015625 430.171875 591.429688 C 430.070312 591.738281 430.277344 591.941406 430.480469 592.046875 C 430.480469 592.046875 430.582031 592.046875 430.582031 592.046875 C 430.789062 592.046875 430.996094 591.941406 431.097656 591.636719 C 434.488281 580.117188 446.105469 547.832031 446.207031 547.523438 C 446.308594 547.421875 446.207031 547.113281 445.898438 547.007812 Z M 472.929688 547.214844 C 472.828125 547.007812 472.519531 546.90625 472.210938 547.007812 C 472.003906 547.113281 471.902344 547.421875 472.003906 547.730469 C 472.105469 547.933594 483.617188 571.070312 487.113281 581.351562 C 487.214844 581.558594 487.421875 581.660156 487.628906 581.660156 C 487.730469 581.660156 487.730469 581.660156 487.832031 581.660156 C 488.140625 581.558594 488.242188 581.25 488.140625 581.042969 C 484.648438 570.660156 473.03125 547.523438 472.929688 547.214844 Z M 729.574219 408.195312 C 729.574219 407.886719 729.367188 407.683594 729.0625 407.683594 C 728.753906 407.683594 728.546875 407.886719 728.546875 408.195312 C 728.546875 408.402344 727.417969 425.882812 729.675781 440.792969 C 729.675781 440.996094 729.984375 441.203125 730.191406 441.203125 C 730.191406 441.203125 730.292969 441.203125 730.292969 441.203125 C 730.601562 441.203125 730.808594 440.894531 730.703125 440.585938 C 728.445312 425.675781 729.472656 408.300781 729.574219 408.195312 Z M 342.089844 338.6875 C 333.042969 336.320312 327.496094 336.9375 326.570312 337.042969 C 326.464844 337.453125 326.261719 337.761719 326.054688 337.96875 C 325.128906 339.507812 323.382812 340.433594 321.328125 340.640625 C 324.617188 349.378906 322.765625 360.792969 322.664062 361.410156 C 322.664062 361.617188 322.355469 361.820312 322.148438 361.820312 C 322.148438 361.820312 322.046875 361.820312 322.046875 361.820312 C 321.738281 361.820312 321.53125 361.515625 321.636719 361.207031 C 321.636719 361 324.71875 342.183594 316.289062 334.675781 C 307.863281 327.066406 292.960938 326.964844 292.855469 326.964844 C 292.753906 326.964844 292.546875 326.863281 292.445312 326.757812 C 284.429688 317.710938 269.628906 319.046875 265.3125 319.664062 C 265.003906 319.664062 264.796875 319.457031 264.695312 319.253906 C 264.695312 318.945312 264.898438 318.738281 265.105469 318.636719 C 269.527344 318.019531 284.632812 316.683594 292.960938 325.9375 C 294.191406 325.9375 300.257812 326.140625 306.527344 328.199219 C 306.628906 327.582031 306.835938 326.65625 307.347656 325.628906 C 307.246094 325.523438 301.183594 311.128906 292.035156 305.371094 C 291.828125 305.269531 291.726562 304.855469 291.828125 304.652344 C 291.933594 304.445312 292.34375 304.34375 292.546875 304.445312 C 300.976562 309.792969 306.730469 321.617188 307.964844 324.496094 C 308.273438 324.085938 308.683594 323.570312 309.199219 323.261719 C 310.535156 322.234375 312.28125 321.824219 314.234375 322.132812 C 314.75 322.234375 315.261719 322.335938 315.777344 322.441406 C 316.394531 319.972656 319.476562 305.988281 315.984375 300.4375 C 315.878906 300.230469 315.878906 299.921875 316.1875 299.714844 C 316.496094 299.511719 316.703125 299.613281 316.90625 299.921875 C 320.710938 305.988281 317.523438 320.28125 316.90625 322.75 C 319.578125 323.570312 321.839844 325.011719 323.589844 327.066406 C 324.511719 325.628906 334.792969 310.511719 352.675781 310.203125 C 352.882812 310.203125 353.191406 310.410156 353.191406 310.71875 C 353.191406 311.027344 352.984375 311.234375 352.675781 311.234375 C 334.585938 311.539062 324.511719 327.480469 324.410156 327.683594 C 324.410156 327.789062 324.308594 327.789062 324.308594 327.789062 C 325.234375 329.019531 325.953125 330.460938 326.570312 332.003906 C 327.082031 333.546875 327.1875 334.78125 326.980469 335.808594 C 328.832031 335.601562 334.070312 335.292969 342.5 337.554688 C 354.628906 340.742188 360.488281 347.632812 361.410156 351.539062 C 361.515625 351.847656 361.308594 352.054688 361 352.15625 C 361 352.15625 360.898438 352.15625 360.898438 352.15625 C 360.691406 352.15625 360.488281 351.949219 360.382812 351.746094 C 359.460938 348.453125 353.703125 341.769531 342.089844 338.6875 Z M 325.542969 332.621094 C 323.691406 327.480469 319.785156 324.1875 314.339844 323.367188 C 312.589844 323.160156 311.152344 323.46875 310.125 324.292969 C 308.480469 325.628906 307.964844 327.890625 307.761719 328.710938 C 311.050781 329.84375 314.339844 331.59375 317.113281 334.058594 C 318.859375 335.601562 320.09375 337.554688 321.019531 339.714844 C 322.867188 339.613281 324.410156 338.789062 325.234375 337.453125 C 326.054688 336.117188 326.15625 334.472656 325.542969 332.621094 Z M 158.109375 423.824219 C 161.707031 416.523438 167.050781 408.914062 175.070312 401.820312 C 173.734375 400.484375 172.398438 398.941406 171.0625 397.296875 C 170.957031 397.296875 162.015625 411.488281 158.109375 423.824219 Z M 365.214844 318.738281 C 365.007812 318.839844 364.804688 319.046875 364.597656 319.148438 C 365.316406 320.796875 365.933594 322.335938 366.34375 323.984375 C 381.351562 318.019531 393.683594 313.082031 402.113281 309.585938 Z M 365.214844 318.738281 " fill-opacity="1" fill-rule="nonzero"/></g></svg>