<svg xmlns="http://www.w3.org/2000/svg" xmlns:xlink="http://www.w3.org/1999/xlink" width="1080" zoomAndPan="magnify" viewBox="0 0 810 1439.999935" height="1920" preserveAspectRatio="xMidYMid meet" version="1.0"><defs><clipPath id="39cd18bd50"><path d="M 560 622 L 567 622 L 567 836 L 560 836 Z M 560 622 " clip-rule="nonzero"/></clipPath><clipPath id="076eb68beb"><path d="M 337 477.757812 L 351 477.757812 L 351 486 L 337 486 Z M 337 477.757812 " clip-rule="nonzero"/></clipPath><clipPath id="680138b023"><path d="M 468 831 L 567 831 L 567 962.257812 L 468 962.257812 Z M 468 831 " clip-rule="nonzero"/></clipPath><clipPath id="7ee002a688"><path d="M 243 748 L 469 748 L 469 962.257812 L 243 962.257812 Z M 243 748 " clip-rule="nonzero"/></clipPath></defs><path fill="#e95142" d="M 560.609375 835.097656 L 554.558594 831.113281 L 554.035156 622.6875 L 560.089844 626.675781 L 560.609375 835.097656 " fill-opacity="1" fill-rule="nonzero"/><path fill="#ebc23f" d="M 560.085938 626.675781 L 554.039062 622.6875 L 560.429688 618.5 L 566.480469 622.488281 L 560.085938 626.675781 " fill-opacity="1" fill-rule="nonzero"/><g clip-path="url(#39cd18bd50)"><path fill="#2b1c3a" d="M 566.480469 622.484375 L 567.003906 830.910156 L 560.613281 835.097656 L 560.089844 626.671875 L 566.480469 622.484375 " fill-opacity="1" fill-rule="nonzero"/></g><path fill="#e95142" d="M 344.347656 694.34375 L 338.300781 690.355469 L 337.78125 481.929688 L 343.828125 485.917969 L 344.347656 694.34375 " fill-opacity="1" fill-rule="nonzero"/><g clip-path="url(#076eb68beb)"><path fill="#ebc23f" d="M 343.828125 485.917969 L 337.78125 481.933594 L 344.171875 477.746094 L 350.21875 481.734375 L 343.828125 485.917969 " fill-opacity="1" fill-rule="nonzero"/></g><path fill="#2b1c3a" d="M 350.21875 481.734375 L 350.738281 690.15625 L 344.347656 694.34375 L 343.828125 485.917969 L 350.21875 481.734375 " fill-opacity="1" fill-rule="nonzero"/><g clip-path="url(#680138b023)"><path fill="#2b1c3a" d="M 566.996094 831.046875 L 566.832031 897.183594 L 468.144531 962.246094 L 468.308594 896.105469 L 566.996094 831.046875 " fill-opacity="1" fill-rule="nonzero"/></g><g clip-path="url(#7ee002a688)"><path fill="#e95142" d="M 468.308594 896.105469 L 468.140625 962.246094 L 243.328125 814.996094 L 243.492188 748.855469 L 468.308594 896.105469 " fill-opacity="1" fill-rule="nonzero"/></g><path fill="#ebc23f" d="M 566.996094 831.046875 L 468.308594 896.105469 L 243.492188 748.855469 L 342.179688 683.796875 L 566.996094 831.046875 " fill-opacity="1" fill-rule="nonzero"/><path fill="#ffffff" d="M 560.597656 799.800781 L 560.527344 826.585938 L 467.625 887.835938 L 467.691406 861.050781 L 560.597656 799.800781 " fill-opacity="1" fill-rule="nonzero"/><path fill="#2b1c3a" d="M 467.78125 861.113281 L 467.714844 887.65625 L 560.433594 826.527344 L 560.5 799.984375 Z M 467.527344 888.019531 L 467.597656 860.992188 L 467.644531 860.960938 L 560.683594 799.621094 L 560.617188 826.648438 L 560.574219 826.679688 L 467.527344 888.019531 " fill-opacity="1" fill-rule="nonzero"/><path fill="#ffffff" d="M 467.691406 861.050781 L 467.625 887.835938 L 255.980469 749.214844 L 256.050781 722.433594 L 467.691406 861.050781 " fill-opacity="1" fill-rule="nonzero"/><path fill="#2b1c3a" d="M 256.074219 749.15625 L 467.53125 887.65625 L 467.597656 861.113281 L 256.140625 722.613281 Z M 467.714844 888.019531 L 467.578125 887.925781 L 255.890625 749.277344 L 255.890625 749.214844 L 255.957031 722.25 L 467.78125 860.992188 L 467.78125 861.050781 L 467.714844 888.019531 " fill-opacity="1" fill-rule="nonzero"/><path fill="#ffffff" d="M 560.597656 799.800781 L 467.691406 861.050781 L 256.050781 722.429688 L 348.953125 661.179688 L 560.597656 799.800781 " fill-opacity="1" fill-rule="nonzero"/><path fill="#2b1c3a" d="M 256.230469 722.433594 L 467.6875 860.929688 L 560.410156 799.804688 L 348.953125 661.304688 Z M 467.6875 861.171875 L 467.644531 861.140625 L 255.867188 722.433594 L 348.953125 661.0625 L 349 661.089844 L 560.777344 799.800781 L 467.6875 861.171875 " fill-opacity="1" fill-rule="nonzero"/><path fill="#2b1c3a" d="M 349.644531 884.628906 L 349.644531 818.652344 L 349.847656 818.519531 L 355.949219 814.609375 L 355.917969 814.554688 L 355.445312 814.25 L 349.320312 818.171875 L 349.121094 818.300781 L 349.121094 884.289062 L 349.644531 884.628906 " fill-opacity="1" fill-rule="nonzero"/><path fill="#2b1c3a" d="M 416.167969 881.28125 L 418.179688 879.953125 L 418.171875 884.449219 L 416.152344 885.78125 L 416.167969 881.28125 " fill-opacity="1" fill-rule="nonzero"/><path fill="#2b1c3a" d="M 402.164062 872.109375 L 404.179688 870.78125 L 418.179688 879.953125 L 416.167969 881.28125 L 402.164062 872.109375 " fill-opacity="1" fill-rule="nonzero"/><path fill="#ffffff" d="M 416.167969 881.28125 L 416.152344 885.78125 L 402.152344 876.609375 L 402.164062 872.109375 L 416.167969 881.28125 " fill-opacity="1" fill-rule="nonzero"/><path fill="#2b1c3a" d="M 298.875 804.203125 L 300.894531 802.875 L 300.882812 807.371094 L 298.867188 808.703125 L 298.875 804.203125 " fill-opacity="1" fill-rule="nonzero"/><path fill="#2b1c3a" d="M 284.875 795.03125 L 286.890625 793.703125 L 300.894531 802.875 L 298.875 804.203125 L 284.875 795.03125 " fill-opacity="1" fill-rule="nonzero"/><path fill="#ffffff" d="M 298.875 804.203125 L 298.867188 808.703125 L 284.863281 799.527344 L 284.875 795.03125 L 298.875 804.203125 " fill-opacity="1" fill-rule="nonzero"/><path fill="#2b1c3a" d="M 560.457031 797.035156 L 560.449219 799.714844 L 467.546875 860.960938 L 467.554688 858.28125 L 560.457031 797.035156 " fill-opacity="1" fill-rule="nonzero"/><path fill="#8a8fd0" d="M 560.457031 797.035156 L 467.554688 858.28125 L 324.753906 764.75 L 417.652344 703.5 L 560.457031 797.035156 " fill-opacity="1" fill-rule="nonzero"/><path fill="#2b1c3a" d="M 475.800781 738.902344 L 475.792969 741.582031 L 382.890625 802.832031 L 382.898438 800.152344 L 475.800781 738.902344 " fill-opacity="1" fill-rule="nonzero"/><path fill="#2b1c3a" d="M 382.890625 802.828125 L 382.898438 800.152344 L 324.789062 762.09375 L 324.78125 764.769531 L 324.753906 764.75 L 324.746094 767.429688 L 467.546875 860.960938 L 467.554688 858.28125 L 382.890625 802.828125 " fill-opacity="1" fill-rule="nonzero"/><path fill="#2b1c3a" d="M 475.800781 738.902344 L 382.898438 800.152344 L 324.789062 762.09375 L 417.691406 700.84375 L 475.800781 738.902344 " fill-opacity="1" fill-rule="nonzero"/><path fill="#2c5b28" d="M 398.570312 684.183594 C 398.570312 684.386719 398.5625 684.585938 398.550781 684.789062 C 398.542969 684.886719 398.535156 684.988281 398.523438 685.089844 C 398.492188 685.386719 398.441406 685.6875 398.378906 685.988281 C 398.308594 686.285156 398.230469 686.582031 398.128906 686.878906 C 398.035156 687.171875 397.917969 687.46875 397.785156 687.757812 C 397.613281 688.148438 397.410156 688.53125 397.175781 688.910156 C 396.941406 689.285156 396.679688 689.660156 396.386719 690.027344 C 395.511719 691.117188 394.371094 692.144531 392.96875 693.0625 L 341.0625 727.058594 C 330.265625 734.132812 312.820312 734.132812 302.097656 727.058594 L 277.734375 711 C 274.0625 708.578125 272.226562 705.414062 272.21875 702.242188 L 272.269531 722.675781 C 272.273438 723.761719 272.492188 724.851562 272.925781 725.910156 C 273.757812 727.933594 275.375 729.84375 277.785156 731.429688 L 302.148438 747.492188 C 312.871094 754.5625 330.316406 754.5625 341.113281 747.492188 L 393.019531 713.496094 C 396.757812 711.042969 398.628906 707.828125 398.621094 704.613281 L 398.570312 684.183594 " fill-opacity="1" fill-rule="nonzero"/><path fill="#638d2b" d="M 277.820312 693.363281 C 270.386719 698.234375 270.347656 706.128906 277.734375 711 L 302.097656 727.058594 C 312.820312 734.132812 330.265625 734.132812 341.0625 727.058594 L 392.96875 693.0625 C 400.402344 688.195312 400.445312 680.300781 393.054688 675.429688 L 368.691406 659.367188 C 357.96875 652.296875 340.519531 652.296875 329.726562 659.367188 L 277.820312 693.363281 " fill-opacity="1" fill-rule="nonzero"/><path fill="#2b1c3a" d="M 566.800781 681.328125 L 566.734375 707.785156 L 468.050781 772.847656 L 468.117188 746.386719 L 566.800781 681.328125 " fill-opacity="1" fill-rule="nonzero"/><path fill="#ebc23f" d="M 468.117188 746.386719 L 468.050781 772.84375 L 243.234375 625.59375 L 243.300781 599.140625 L 468.117188 746.386719 " fill-opacity="1" fill-rule="nonzero"/><path fill="#ebc23f" d="M 566.800781 681.328125 L 468.117188 746.386719 L 243.300781 599.140625 L 341.984375 534.082031 L 566.800781 681.328125 " fill-opacity="1" fill-rule="nonzero"/><path fill="#ffffff" d="M 560.453125 652.09375 L 560.382812 678.910156 L 467.363281 740.234375 L 467.429688 713.417969 L 560.453125 652.09375 " fill-opacity="1" fill-rule="nonzero"/><path fill="#2b1c3a" d="M 467.527344 713.476562 L 467.457031 740.054688 L 560.292969 678.847656 L 560.359375 652.273438 Z M 467.273438 740.417969 L 467.339844 713.355469 L 467.386719 713.324219 L 560.542969 651.910156 L 560.476562 678.96875 L 560.429688 679 L 467.273438 740.417969 " fill-opacity="1" fill-rule="nonzero"/><path fill="#ffffff" d="M 467.429688 713.417969 L 467.363281 740.234375 L 255.460938 601.445312 L 255.527344 574.625 L 467.429688 713.417969 " fill-opacity="1" fill-rule="nonzero"/><path fill="#2b1c3a" d="M 255.554688 601.382812 L 467.273438 740.050781 L 467.34375 713.472656 L 255.621094 574.800781 Z M 467.457031 740.414062 L 255.371094 601.5 L 255.371094 601.4375 L 255.4375 574.441406 L 467.527344 713.355469 L 467.527344 713.414062 L 467.457031 740.414062 " fill-opacity="1" fill-rule="nonzero"/><path fill="#ffffff" d="M 560.453125 652.089844 L 467.433594 713.414062 L 255.527344 574.625 L 348.546875 513.300781 L 560.453125 652.089844 " fill-opacity="1" fill-rule="nonzero"/><path fill="#2b1c3a" d="M 255.714844 574.625 L 467.429688 713.296875 L 560.269531 652.089844 L 348.546875 513.417969 Z M 467.433594 713.539062 L 467.386719 713.507812 L 255.347656 574.625 L 255.484375 574.535156 L 348.546875 513.179688 L 348.59375 513.210938 L 560.636719 652.089844 L 560.496094 652.183594 L 467.433594 713.539062 " fill-opacity="1" fill-rule="nonzero"/><path fill="#2b1c3a" d="M 560.316406 649.320312 L 560.304688 652.003906 L 467.289062 713.328125 L 467.296875 710.640625 L 560.316406 649.320312 " fill-opacity="1" fill-rule="nonzero"/><path fill="#2b1c3a" d="M 467.296875 710.644531 L 467.289062 713.328125 L 324.3125 619.675781 L 324.316406 616.996094 L 467.296875 710.644531 " fill-opacity="1" fill-rule="nonzero"/><path fill="#8a8fd0" d="M 560.3125 649.320312 L 467.296875 710.644531 L 324.316406 616.996094 L 417.335938 555.671875 L 560.3125 649.320312 " fill-opacity="1" fill-rule="nonzero"/><path fill="#2b1c3a" d="M 475.550781 591.117188 L 475.542969 593.800781 L 382.523438 655.125 L 382.53125 652.441406 L 475.550781 591.117188 " fill-opacity="1" fill-rule="nonzero"/><path fill="#303133" d="M 382.53125 652.441406 L 382.523438 655.121094 L 324.347656 617.015625 L 324.351562 614.335938 L 382.53125 652.441406 " fill-opacity="1" fill-rule="nonzero"/><path fill="#2b1c3a" d="M 475.550781 591.117188 L 382.53125 652.441406 L 324.351562 614.335938 L 417.371094 553.011719 L 475.550781 591.117188 " fill-opacity="1" fill-rule="nonzero"/><path fill="#2c5b28" d="M 398.726562 536.539062 C 398.734375 539.753906 396.863281 542.976562 393.117188 545.429688 L 341.148438 579.46875 C 330.339844 586.546875 312.871094 586.546875 302.132812 579.46875 L 277.738281 563.386719 C 274.066406 560.964844 272.226562 557.796875 272.21875 554.617188 L 272.269531 575.078125 C 272.277344 578.25 274.117188 581.421875 277.792969 583.84375 L 302.183594 599.925781 C 312.921875 607.003906 330.386719 607.003906 341.199219 599.925781 L 393.167969 565.886719 C 396.914062 563.433594 398.785156 560.210938 398.777344 556.996094 L 398.726562 536.539062 " fill-opacity="1" fill-rule="nonzero"/><path fill="#638d2b" d="M 277.824219 545.730469 C 270.382812 550.609375 270.34375 558.511719 277.738281 563.386719 L 302.132812 579.46875 C 312.871094 586.546875 330.339844 586.546875 341.144531 579.472656 L 393.117188 545.429688 C 400.558594 540.554688 400.601562 532.652344 393.203125 527.777344 L 368.808594 511.691406 C 358.074219 504.613281 340.605469 504.613281 329.796875 511.691406 L 277.824219 545.730469 " fill-opacity="1" fill-rule="nonzero"/><path fill="#e95142" d="M 249.589844 752.988281 L 243.539062 749 L 243.019531 541.164062 L 249.070312 545.152344 L 249.589844 752.988281 " fill-opacity="1" fill-rule="nonzero"/><path fill="#ebc23f" d="M 249.070312 545.152344 L 243.019531 541.164062 L 249.414062 536.976562 L 255.460938 540.960938 L 249.070312 545.152344 " fill-opacity="1" fill-rule="nonzero"/><path fill="#2b1c3a" d="M 255.460938 540.964844 L 255.980469 748.800781 L 249.589844 752.988281 L 249.070312 545.148438 L 255.460938 540.964844 " fill-opacity="1" fill-rule="nonzero"/><path fill="#2e2f31" d="M 413.074219 679.640625 L 419.121094 675.652344 L 419.101562 683.152344 L 413.050781 687.136719 L 413.074219 679.640625 " fill-opacity="1" fill-rule="nonzero"/><path fill="#ebc23f" d="M 248.539062 571.871094 L 254.585938 567.882812 L 419.125 675.652344 L 413.074219 679.640625 L 248.539062 571.871094 " fill-opacity="1" fill-rule="nonzero"/><path fill="#e95142" d="M 413.074219 679.636719 L 413.054688 687.136719 L 248.519531 579.371094 L 248.539062 571.871094 L 413.074219 679.636719 " fill-opacity="1" fill-rule="nonzero"/><path fill="#e95142" d="M 397.578125 850.097656 L 391.527344 846.105469 L 391.007812 638.269531 L 397.054688 642.257812 L 397.578125 850.097656 " fill-opacity="1" fill-rule="nonzero"/><path fill="#ebc23f" d="M 397.054688 642.257812 L 391.007812 638.269531 L 397.402344 634.082031 L 403.449219 638.070312 L 397.054688 642.257812 " fill-opacity="1" fill-rule="nonzero"/><path fill="#2b1c3a" d="M 403.449219 638.070312 L 403.96875 845.90625 L 397.578125 850.097656 L 397.054688 642.257812 L 403.449219 638.070312 " fill-opacity="1" fill-rule="nonzero"/><path fill="#2e2f31" d="M 467.511719 848.167969 L 473.558594 844.179688 L 473.542969 851.679688 L 467.492188 855.667969 L 467.511719 848.167969 " fill-opacity="1" fill-rule="nonzero"/><path fill="#ebc23f" d="M 397.425781 802.261719 L 403.472656 798.273438 L 473.558594 844.179688 L 467.511719 848.167969 L 397.425781 802.261719 " fill-opacity="1" fill-rule="nonzero"/><path fill="#e95142" d="M 467.511719 848.167969 L 467.492188 855.667969 L 397.40625 809.761719 L 397.425781 802.261719 L 467.511719 848.167969 " fill-opacity="1" fill-rule="nonzero"/><path fill="#2e2f31" d="M 467.511719 787.613281 L 473.558594 783.625 L 473.542969 791.125 L 467.492188 795.113281 L 467.511719 787.613281 " fill-opacity="1" fill-rule="nonzero"/><path fill="#ebc23f" d="M 397.425781 741.707031 L 403.472656 737.71875 L 473.558594 783.625 L 467.511719 787.613281 L 397.425781 741.707031 " fill-opacity="1" fill-rule="nonzero"/><path fill="#e95142" d="M 467.511719 787.613281 L 467.492188 795.113281 L 397.40625 749.207031 L 397.425781 741.707031 L 467.511719 787.613281 " fill-opacity="1" fill-rule="nonzero"/><path fill="#2e2f31" d="M 467.226562 715.078125 L 473.277344 711.089844 L 473.257812 718.59375 L 467.207031 722.578125 L 467.226562 715.078125 " fill-opacity="1" fill-rule="nonzero"/><path fill="#ebc23f" d="M 397.050781 669.070312 L 403.28125 665.082031 L 473.183594 710.984375 L 467.132812 714.972656 L 397.050781 669.070312 " fill-opacity="1" fill-rule="nonzero"/><path fill="#e95142" d="M 466.949219 714.972656 L 467.113281 722.472656 L 397.03125 676.570312 L 397.050781 669.070312 L 466.949219 714.972656 " fill-opacity="1" fill-rule="nonzero"/><path fill="#e95142" d="M 468.425781 896.339844 L 462.378906 892.351562 L 461.859375 684.515625 L 467.90625 688.503906 L 468.425781 896.339844 " fill-opacity="1" fill-rule="nonzero"/><path fill="#ebc23f" d="M 467.90625 688.503906 L 461.859375 684.515625 L 468.25 680.328125 L 474.300781 684.316406 L 467.90625 688.503906 " fill-opacity="1" fill-rule="nonzero"/><path fill="#2b1c3a" d="M 474.300781 684.316406 L 474.820312 892.152344 L 468.425781 896.339844 L 467.90625 688.503906 L 474.300781 684.316406 " fill-opacity="1" fill-rule="nonzero"/><path fill="#2c5b28" d="M 460.441406 909.105469 C 460.4375 909.070312 460.4375 909.035156 460.4375 909 C 460.429688 908.9375 460.429688 908.875 460.425781 908.8125 C 460.421875 908.808594 460.421875 908.804688 460.421875 908.804688 C 460.410156 908.628906 460.390625 908.445312 460.367188 908.265625 C 460.367188 908.25 460.363281 908.230469 460.359375 908.214844 C 460.339844 908.039062 460.308594 907.863281 460.277344 907.6875 C 460.269531 907.664062 460.269531 907.640625 460.261719 907.617188 C 460.226562 907.441406 460.1875 907.273438 460.144531 907.101562 C 460.140625 907.070312 460.132812 907.046875 460.125 907.019531 C 460.082031 906.847656 460.035156 906.675781 459.980469 906.503906 C 459.972656 906.476562 459.964844 906.449219 459.957031 906.421875 C 459.902344 906.253906 459.84375 906.078125 459.785156 905.910156 C 459.773438 905.886719 459.765625 905.859375 459.753906 905.835938 C 459.691406 905.664062 459.625 905.492188 459.554688 905.324219 C 459.542969 905.300781 459.535156 905.28125 459.527344 905.261719 C 459.453125 905.085938 459.375 904.914062 459.292969 904.742188 C 459.289062 904.734375 459.28125 904.722656 459.277344 904.710938 C 459.195312 904.535156 459.101562 904.359375 459.011719 904.1875 C 459.007812 904.1875 459.007812 904.183594 459.007812 904.179688 C 458.914062 904.011719 458.816406 903.84375 458.71875 903.679688 C 458.710938 903.664062 458.703125 903.648438 458.691406 903.636719 C 458.597656 903.476562 458.496094 903.324219 458.394531 903.171875 C 458.382812 903.152344 458.367188 903.132812 458.355469 903.113281 C 458.257812 902.96875 458.15625 902.824219 458.050781 902.6875 C 458.03125 902.664062 458.015625 902.644531 458 902.621094 C 457.898438 902.484375 457.789062 902.351562 457.679688 902.222656 C 457.664062 902.203125 457.644531 902.179688 457.628906 902.160156 C 457.515625 902.035156 457.40625 901.910156 457.292969 901.789062 C 457.273438 901.773438 457.253906 901.757812 457.238281 901.734375 C 457.121094 901.617188 457.003906 901.5 456.886719 901.390625 C 456.871094 901.382812 456.851562 901.367188 456.835938 901.355469 C 456.714844 901.242188 456.589844 901.136719 456.460938 901.039062 C 456.453125 901.03125 456.441406 901.023438 456.433594 901.011719 C 456.300781 900.910156 456.164062 900.8125 456.027344 900.722656 C 455.953125 900.675781 455.882812 900.628906 455.808594 900.589844 C 455.785156 900.574219 455.761719 900.5625 455.738281 900.546875 C 455.699219 900.523438 455.65625 900.5 455.617188 900.480469 C 455.609375 900.472656 455.601562 900.472656 455.59375 900.464844 C 455.566406 900.453125 455.539062 900.441406 455.511719 900.429688 C 455.46875 900.402344 455.421875 900.382812 455.382812 900.359375 C 455.351562 900.347656 455.324219 900.335938 455.292969 900.324219 C 455.253906 900.304688 455.214844 900.289062 455.171875 900.273438 C 455.140625 900.257812 455.113281 900.25 455.085938 900.238281 C 455.046875 900.222656 455.003906 900.210938 454.964844 900.195312 C 454.933594 900.1875 454.90625 900.179688 454.878906 900.167969 C 454.839844 900.15625 454.796875 900.144531 454.757812 900.132812 C 454.730469 900.125 454.703125 900.121094 454.679688 900.113281 C 454.636719 900.105469 454.59375 900.09375 454.546875 900.085938 C 454.527344 900.082031 454.503906 900.078125 454.480469 900.074219 C 454.425781 900.0625 454.367188 900.058594 454.3125 900.050781 C 454.308594 900.050781 454.300781 900.046875 454.289062 900.046875 C 454.226562 900.039062 454.164062 900.039062 454.105469 900.035156 C 454.085938 900.035156 454.066406 900.035156 454.046875 900.035156 C 454.003906 900.035156 453.960938 900.035156 453.917969 900.039062 C 453.898438 900.039062 453.875 900.042969 453.851562 900.042969 C 453.816406 900.046875 453.777344 900.050781 453.746094 900.054688 C 453.71875 900.058594 453.695312 900.0625 453.671875 900.0625 C 453.636719 900.070312 453.601562 900.078125 453.570312 900.085938 C 453.546875 900.089844 453.523438 900.09375 453.5 900.101562 C 453.46875 900.109375 453.433594 900.121094 453.402344 900.128906 C 453.378906 900.132812 453.355469 900.140625 453.335938 900.148438 C 453.300781 900.160156 453.269531 900.171875 453.234375 900.1875 C 453.214844 900.195312 453.195312 900.203125 453.171875 900.210938 C 453.136719 900.226562 453.105469 900.246094 453.070312 900.261719 C 453.054688 900.269531 453.039062 900.277344 453.019531 900.289062 C 452.972656 900.3125 452.925781 900.339844 452.878906 900.371094 C 452.878906 900.371094 452.878906 900.371094 452.875 900.371094 L 451.867188 901.039062 C 451.914062 901.007812 451.964844 900.976562 452.011719 900.949219 C 452.03125 900.941406 452.046875 900.933594 452.066406 900.925781 C 452.097656 900.910156 452.132812 900.890625 452.167969 900.875 C 452.1875 900.867188 452.207031 900.859375 452.226562 900.847656 C 452.261719 900.835938 452.292969 900.824219 452.328125 900.8125 C 452.347656 900.808594 452.371094 900.800781 452.394531 900.792969 C 452.425781 900.78125 452.460938 900.773438 452.492188 900.765625 C 452.515625 900.761719 452.539062 900.753906 452.5625 900.75 C 452.59375 900.742188 452.628906 900.738281 452.660156 900.730469 C 452.6875 900.726562 452.710938 900.722656 452.734375 900.71875 C 452.769531 900.714844 452.808594 900.710938 452.84375 900.707031 C 452.867188 900.707031 452.890625 900.703125 452.910156 900.703125 C 452.953125 900.699219 452.996094 900.699219 453.039062 900.699219 C 453.058594 900.699219 453.078125 900.699219 453.09375 900.699219 C 453.15625 900.703125 453.21875 900.703125 453.28125 900.710938 C 453.289062 900.710938 453.296875 900.714844 453.304688 900.714844 C 453.363281 900.722656 453.417969 900.730469 453.476562 900.738281 C 453.496094 900.742188 453.519531 900.75 453.542969 900.75 C 453.582031 900.761719 453.628906 900.769531 453.671875 900.777344 C 453.695312 900.785156 453.722656 900.792969 453.75 900.796875 C 453.789062 900.808594 453.832031 900.820312 453.871094 900.832031 C 453.898438 900.84375 453.925781 900.847656 453.953125 900.859375 C 453.996094 900.875 454.035156 900.886719 454.078125 900.902344 C 454.105469 900.914062 454.132812 900.921875 454.160156 900.9375 C 454.203125 900.949219 454.246094 900.972656 454.289062 900.988281 C 454.3125 901 454.34375 901.011719 454.371094 901.027344 C 454.414062 901.046875 454.460938 901.066406 454.503906 901.089844 C 454.53125 901.105469 454.554688 901.117188 454.582031 901.132812 C 454.632812 901.15625 454.679688 901.183594 454.730469 901.214844 C 454.753906 901.226562 454.777344 901.238281 454.800781 901.253906 C 454.875 901.292969 454.945312 901.339844 455.019531 901.386719 C 455.15625 901.480469 455.292969 901.574219 455.425781 901.679688 C 455.433594 901.6875 455.445312 901.695312 455.457031 901.703125 C 455.582031 901.800781 455.707031 901.90625 455.832031 902.019531 C 455.84375 902.03125 455.859375 902.042969 455.878906 902.058594 C 456 902.167969 456.113281 902.28125 456.230469 902.402344 C 456.246094 902.417969 456.265625 902.4375 456.28125 902.453125 C 456.394531 902.574219 456.507812 902.699219 456.621094 902.824219 C 456.636719 902.847656 456.65625 902.867188 456.671875 902.890625 C 456.78125 903.019531 456.886719 903.148438 456.992188 903.285156 C 457.007812 903.304688 457.027344 903.328125 457.042969 903.351562 C 457.144531 903.488281 457.25 903.632812 457.347656 903.777344 C 457.363281 903.796875 457.375 903.816406 457.386719 903.835938 C 457.488281 903.988281 457.589844 904.140625 457.683594 904.300781 C 457.691406 904.3125 457.703125 904.328125 457.710938 904.34375 C 457.8125 904.507812 457.90625 904.675781 458 904.84375 C 458 904.847656 458 904.851562 458.003906 904.851562 C 458.09375 905.023438 458.183594 905.199219 458.269531 905.375 C 458.273438 905.386719 458.28125 905.398438 458.289062 905.410156 C 458.367188 905.578125 458.445312 905.75 458.519531 905.925781 C 458.53125 905.945312 458.539062 905.964844 458.542969 905.988281 C 458.617188 906.160156 458.683594 906.328125 458.746094 906.5 C 458.757812 906.527344 458.765625 906.550781 458.773438 906.578125 C 458.835938 906.746094 458.894531 906.917969 458.945312 907.085938 C 458.957031 907.113281 458.964844 907.140625 458.972656 907.167969 C 459.023438 907.339844 459.074219 907.511719 459.117188 907.683594 C 459.125 907.710938 459.132812 907.738281 459.136719 907.765625 C 459.179688 907.9375 459.222656 908.109375 459.253906 908.28125 C 459.257812 908.304688 459.261719 908.332031 459.265625 908.351562 C 459.300781 908.53125 459.328125 908.707031 459.355469 908.878906 C 459.355469 908.894531 459.355469 908.914062 459.363281 908.929688 C 459.382812 909.113281 459.402344 909.292969 459.414062 909.46875 C 459.421875 909.535156 459.421875 909.597656 459.425781 909.664062 C 459.429688 909.699219 459.429688 909.734375 459.429688 909.769531 C 459.433594 909.871094 459.4375 909.96875 459.4375 910.066406 C 459.433594 911.652344 458.941406 912.765625 458.144531 913.292969 L 459.152344 912.625 C 459.945312 912.101562 460.441406 910.988281 460.445312 909.402344 C 460.445312 909.304688 460.441406 909.203125 460.441406 909.105469 " fill-opacity="1" fill-rule="nonzero"/><path fill="#638d2b" d="M 455.019531 901.386719 C 457.46875 902.992188 459.445312 906.878906 459.4375 910.066406 C 459.429688 913.257812 457.441406 914.546875 454.992188 912.941406 C 452.542969 911.335938 450.566406 907.453125 450.574219 904.261719 C 450.582031 901.074219 452.574219 899.785156 455.019531 901.386719 " fill-opacity="1" fill-rule="nonzero"/><path fill="#ffffff" d="M 454.195312 903.988281 L 454.1875 908.472656 C 454.1875 908.515625 454.214844 908.578125 454.265625 908.648438 C 454.3125 908.707031 454.339844 908.753906 454.351562 908.792969 C 454.363281 908.832031 454.367188 908.917969 454.363281 909.058594 C 454.363281 909.109375 454.335938 909.121094 454.28125 909.082031 L 453.191406 908.367188 C 453.144531 908.339844 453.121094 908.316406 453.109375 908.289062 C 453.097656 908.261719 453.09375 908.214844 453.09375 908.140625 C 453.09375 908.039062 453.097656 907.976562 453.105469 907.957031 C 453.117188 907.9375 453.148438 907.933594 453.207031 907.953125 C 453.292969 907.972656 453.339844 907.953125 453.339844 907.886719 L 453.347656 904.796875 C 453.207031 904.765625 453.082031 904.714844 452.984375 904.652344 C 452.933594 904.621094 452.910156 904.570312 452.910156 904.5 L 452.910156 904.375 C 452.910156 904.328125 452.917969 904.296875 452.929688 904.28125 C 452.945312 904.265625 452.980469 904.265625 453.039062 904.273438 C 453.113281 904.28125 453.21875 904.265625 453.351562 904.226562 C 453.480469 904.1875 453.613281 904.105469 453.738281 903.972656 C 453.835938 903.871094 453.890625 903.820312 453.910156 903.820312 C 453.925781 903.816406 453.957031 903.832031 454 903.855469 L 454.195312 903.988281 " fill-opacity="1" fill-rule="nonzero"/><path fill="#ffffff" d="M 455.851562 905.082031 C 456.171875 905.289062 456.433594 905.589844 456.636719 905.984375 C 456.839844 906.382812 456.945312 906.792969 456.945312 907.210938 C 456.945312 907.441406 456.90625 907.636719 456.832031 907.804688 C 456.757812 907.964844 456.65625 908.089844 456.53125 908.171875 C 456.40625 908.253906 456.21875 908.335938 455.976562 908.429688 C 455.644531 908.546875 455.402344 908.664062 455.25 908.785156 L 456.4375 909.566406 C 456.492188 909.601562 456.535156 909.601562 456.566406 909.570312 C 456.597656 909.535156 456.625 909.457031 456.648438 909.324219 C 456.65625 909.269531 456.671875 909.242188 456.691406 909.234375 C 456.714844 909.230469 456.757812 909.25 456.824219 909.292969 C 456.921875 909.355469 456.972656 909.417969 456.972656 909.472656 C 456.972656 909.492188 456.96875 909.511719 456.964844 909.53125 C 456.957031 909.585938 456.9375 909.703125 456.914062 909.902344 C 456.882812 910.113281 456.855469 910.292969 456.824219 910.445312 C 456.796875 910.597656 456.777344 910.675781 456.761719 910.6875 C 456.75 910.691406 456.714844 910.675781 456.652344 910.636719 L 454.777344 909.410156 L 454.777344 908.683594 C 454.78125 908.582031 454.84375 908.496094 454.980469 908.429688 C 455.046875 908.390625 455.199219 908.257812 455.441406 908.019531 C 455.6875 907.785156 455.84375 907.566406 455.914062 907.363281 C 455.984375 907.160156 456.023438 906.847656 456.027344 906.429688 C 456.027344 906.082031 456 905.839844 455.953125 905.703125 C 455.898438 905.570312 455.824219 905.476562 455.726562 905.410156 C 455.65625 905.359375 455.597656 905.351562 455.558594 905.378906 C 455.515625 905.402344 455.496094 905.460938 455.496094 905.546875 C 455.496094 905.597656 455.5 905.660156 455.507812 905.738281 C 455.515625 905.835938 455.519531 905.929688 455.519531 906.015625 C 455.519531 906.203125 455.484375 906.328125 455.421875 906.386719 C 455.355469 906.449219 455.269531 906.445312 455.167969 906.378906 C 455.058594 906.308594 454.972656 906.195312 454.910156 906.046875 C 454.847656 905.890625 454.816406 905.734375 454.816406 905.574219 C 454.820312 905.25 454.910156 905.035156 455.097656 904.929688 C 455.289062 904.824219 455.539062 904.871094 455.851562 905.082031 " fill-opacity="1" fill-rule="nonzero"/><path fill="#2c5b28" d="M 338.132812 829.082031 C 338.132812 829.042969 338.128906 829.007812 338.125 828.976562 C 338.125 828.914062 338.121094 828.847656 338.117188 828.785156 C 338.117188 828.78125 338.117188 828.78125 338.117188 828.78125 C 338.101562 828.601562 338.082031 828.421875 338.058594 828.242188 C 338.058594 828.222656 338.058594 828.207031 338.054688 828.191406 C 338.03125 828.015625 338 827.839844 337.96875 827.664062 C 337.964844 827.640625 337.957031 827.613281 337.953125 827.589844 C 337.917969 827.417969 337.878906 827.246094 337.835938 827.074219 C 337.832031 827.046875 337.824219 827.019531 337.816406 826.992188 C 337.773438 826.820312 337.726562 826.652344 337.671875 826.480469 C 337.664062 826.453125 337.65625 826.421875 337.648438 826.398438 C 337.59375 826.226562 337.535156 826.054688 337.476562 825.886719 C 337.464844 825.859375 337.457031 825.835938 337.445312 825.8125 C 337.382812 825.636719 337.316406 825.46875 337.246094 825.296875 C 337.234375 825.277344 337.226562 825.257812 337.21875 825.234375 C 337.144531 825.0625 337.066406 824.890625 336.984375 824.71875 C 336.980469 824.707031 336.972656 824.699219 336.96875 824.683594 C 336.882812 824.507812 336.796875 824.335938 336.703125 824.164062 C 336.699219 824.160156 336.699219 824.15625 336.699219 824.15625 C 336.605469 823.984375 336.507812 823.816406 336.410156 823.652344 C 336.402344 823.636719 336.394531 823.625 336.382812 823.609375 C 336.289062 823.453125 336.191406 823.300781 336.089844 823.148438 C 336.074219 823.128906 336.0625 823.109375 336.046875 823.085938 C 335.949219 822.941406 335.847656 822.800781 335.742188 822.660156 C 335.726562 822.640625 335.707031 822.617188 335.691406 822.597656 C 335.585938 822.460938 335.480469 822.328125 335.375 822.199219 C 335.355469 822.175781 335.335938 822.15625 335.320312 822.136719 C 335.207031 822.007812 335.097656 821.886719 334.984375 821.765625 C 334.964844 821.746094 334.949219 821.730469 334.929688 821.710938 C 334.8125 821.589844 334.695312 821.476562 334.578125 821.367188 C 334.5625 821.355469 334.546875 821.34375 334.53125 821.328125 C 334.40625 821.214844 334.28125 821.109375 334.15625 821.011719 C 334.144531 821.003906 334.132812 820.996094 334.125 820.988281 C 333.992188 820.882812 333.855469 820.789062 333.71875 820.699219 C 333.644531 820.648438 333.574219 820.605469 333.5 820.5625 C 333.476562 820.550781 333.453125 820.535156 333.429688 820.523438 C 333.386719 820.5 333.347656 820.476562 333.308594 820.453125 C 333.300781 820.449219 333.292969 820.445312 333.285156 820.441406 C 333.257812 820.429688 333.230469 820.414062 333.203125 820.402344 C 333.160156 820.378906 333.113281 820.355469 333.070312 820.335938 C 333.042969 820.324219 333.015625 820.308594 332.984375 820.300781 C 332.945312 820.28125 332.902344 820.261719 332.863281 820.246094 C 332.832031 820.234375 332.804688 820.222656 332.777344 820.214844 C 332.734375 820.199219 332.695312 820.183594 332.65625 820.171875 C 332.625 820.160156 332.597656 820.152344 332.570312 820.144531 C 332.53125 820.132812 332.488281 820.121094 332.449219 820.109375 C 332.421875 820.101562 332.398438 820.09375 332.371094 820.085938 C 332.328125 820.078125 332.285156 820.070312 332.238281 820.058594 C 332.21875 820.058594 332.195312 820.050781 332.171875 820.046875 C 332.117188 820.039062 332.0625 820.03125 332.003906 820.023438 C 331.996094 820.023438 331.988281 820.023438 331.980469 820.019531 C 331.917969 820.015625 331.855469 820.011719 331.792969 820.011719 C 331.777344 820.007812 331.757812 820.011719 331.738281 820.011719 C 331.695312 820.011719 331.652344 820.011719 331.613281 820.011719 C 331.589844 820.011719 331.566406 820.015625 331.542969 820.019531 C 331.507812 820.019531 331.46875 820.023438 331.433594 820.027344 C 331.410156 820.03125 331.386719 820.035156 331.363281 820.039062 C 331.328125 820.046875 331.292969 820.054688 331.261719 820.058594 C 331.238281 820.066406 331.214844 820.070312 331.191406 820.074219 C 331.15625 820.082031 331.125 820.09375 331.09375 820.101562 C 331.070312 820.109375 331.046875 820.117188 331.027344 820.125 C 330.992188 820.132812 330.960938 820.148438 330.925781 820.160156 C 330.90625 820.167969 330.886719 820.175781 330.867188 820.1875 C 330.832031 820.199219 330.796875 820.21875 330.761719 820.234375 C 330.746094 820.246094 330.730469 820.253906 330.714844 820.261719 C 330.664062 820.289062 330.613281 820.316406 330.566406 820.347656 L 329.558594 821.011719 C 329.605469 820.980469 329.65625 820.953125 329.703125 820.925781 C 329.722656 820.917969 329.738281 820.910156 329.753906 820.898438 C 329.789062 820.882812 329.824219 820.867188 329.859375 820.851562 C 329.878906 820.84375 329.898438 820.832031 329.917969 820.824219 C 329.953125 820.8125 329.984375 820.800781 330.019531 820.789062 C 330.039062 820.78125 330.0625 820.773438 330.085938 820.765625 C 330.117188 820.757812 330.148438 820.75 330.183594 820.738281 C 330.207031 820.734375 330.230469 820.730469 330.253906 820.722656 C 330.285156 820.71875 330.320312 820.710938 330.355469 820.703125 C 330.378906 820.699219 330.402344 820.699219 330.425781 820.695312 C 330.460938 820.6875 330.5 820.683594 330.535156 820.683594 C 330.558594 820.679688 330.582031 820.675781 330.601562 820.675781 C 330.644531 820.675781 330.6875 820.675781 330.730469 820.675781 C 330.75 820.675781 330.765625 820.675781 330.785156 820.675781 C 330.847656 820.675781 330.910156 820.679688 330.972656 820.683594 C 330.980469 820.6875 330.988281 820.6875 330.996094 820.691406 C 331.054688 820.695312 331.109375 820.703125 331.164062 820.710938 C 331.1875 820.71875 331.210938 820.722656 331.230469 820.722656 C 331.277344 820.734375 331.320312 820.742188 331.363281 820.753906 C 331.386719 820.757812 331.414062 820.765625 331.441406 820.773438 C 331.480469 820.785156 331.523438 820.796875 331.5625 820.808594 C 331.589844 820.816406 331.617188 820.824219 331.644531 820.835938 C 331.6875 820.847656 331.726562 820.863281 331.769531 820.878906 C 331.796875 820.890625 331.824219 820.898438 331.855469 820.910156 C 331.894531 820.925781 331.9375 820.945312 331.976562 820.964844 C 332.007812 820.976562 332.035156 820.988281 332.0625 821 C 332.105469 821.019531 332.152344 821.042969 332.195312 821.066406 C 332.222656 821.078125 332.25 821.09375 332.277344 821.109375 C 332.324219 821.132812 332.371094 821.160156 332.421875 821.1875 C 332.445312 821.199219 332.46875 821.214844 332.492188 821.226562 C 332.566406 821.269531 332.636719 821.316406 332.710938 821.363281 C 332.847656 821.453125 332.984375 821.550781 333.117188 821.652344 C 333.125 821.660156 333.136719 821.667969 333.148438 821.675781 C 333.273438 821.777344 333.398438 821.882812 333.523438 821.992188 C 333.539062 822.007812 333.554688 822.019531 333.570312 822.035156 C 333.6875 822.140625 333.804688 822.257812 333.921875 822.375 C 333.9375 822.394531 333.957031 822.410156 333.976562 822.429688 C 334.089844 822.550781 334.203125 822.671875 334.308594 822.800781 C 334.328125 822.820312 334.347656 822.839844 334.363281 822.863281 C 334.472656 822.992188 334.582031 823.125 334.683594 823.261719 C 334.699219 823.28125 334.714844 823.304688 334.734375 823.324219 C 334.839844 823.464844 334.941406 823.609375 335.039062 823.753906 C 335.054688 823.773438 335.066406 823.792969 335.078125 823.8125 C 335.179688 823.964844 335.28125 824.117188 335.375 824.273438 C 335.386719 824.289062 335.394531 824.300781 335.402344 824.316406 C 335.5 824.484375 335.597656 824.648438 335.691406 824.820312 C 335.691406 824.820312 335.691406 824.824219 335.695312 824.828125 C 335.785156 825 335.875 825.175781 335.960938 825.351562 C 335.964844 825.359375 335.972656 825.371094 335.976562 825.382812 C 336.058594 825.554688 336.136719 825.726562 336.210938 825.902344 C 336.21875 825.921875 336.226562 825.941406 336.238281 825.960938 C 336.308594 826.132812 336.375 826.304688 336.4375 826.476562 C 336.449219 826.5 336.457031 826.523438 336.464844 826.550781 C 336.527344 826.71875 336.585938 826.890625 336.640625 827.0625 C 336.648438 827.089844 336.65625 827.117188 336.664062 827.144531 C 336.71875 827.316406 336.765625 827.484375 336.808594 827.65625 C 336.816406 827.683594 336.824219 827.710938 336.828125 827.738281 C 336.875 827.910156 336.910156 828.082031 336.945312 828.257812 C 336.949219 828.28125 336.953125 828.304688 336.960938 828.328125 C 336.992188 828.503906 337.023438 828.679688 337.046875 828.851562 C 337.046875 828.871094 337.050781 828.886719 337.050781 828.90625 C 337.074219 829.085938 337.09375 829.265625 337.109375 829.445312 C 337.113281 829.511719 337.117188 829.574219 337.117188 829.640625 C 337.121094 829.671875 337.121094 829.710938 337.121094 829.746094 C 337.125 829.84375 337.128906 829.941406 337.128906 830.042969 C 337.125 830.835938 337.003906 831.507812 336.78125 832.050781 C 336.695312 832.253906 336.597656 832.441406 336.488281 832.605469 C 336.414062 832.714844 336.335938 832.816406 336.25 832.910156 C 336.125 833.050781 335.984375 833.167969 335.835938 833.265625 L 336.84375 832.601562 C 337.640625 832.074219 338.132812 830.964844 338.136719 829.378906 C 338.136719 829.277344 338.136719 829.179688 338.132812 829.082031 " fill-opacity="1" fill-rule="nonzero"/><path fill="#638d2b" d="M 332.710938 821.363281 C 335.160156 822.964844 337.136719 826.851562 337.128906 830.042969 C 337.121094 833.230469 335.132812 834.519531 332.683594 832.917969 C 330.234375 831.3125 328.257812 827.425781 328.265625 824.234375 C 328.273438 821.046875 330.265625 819.761719 332.710938 821.363281 " fill-opacity="1" fill-rule="nonzero"/><path fill="#ffffff" d="M 331.828125 823.96875 L 331.816406 828.453125 C 331.816406 828.5 331.84375 828.558594 331.898438 828.628906 C 331.945312 828.6875 331.972656 828.738281 331.984375 828.773438 C 331.992188 828.816406 332 828.902344 331.996094 829.035156 C 331.996094 829.09375 331.96875 829.101562 331.914062 829.0625 L 330.824219 828.351562 C 330.78125 828.320312 330.753906 828.292969 330.742188 828.269531 C 330.730469 828.242188 330.726562 828.195312 330.726562 828.121094 C 330.726562 828.019531 330.730469 827.957031 330.738281 827.941406 C 330.75 827.917969 330.78125 827.917969 330.839844 827.933594 C 330.925781 827.953125 330.972656 827.933594 330.972656 827.867188 L 330.980469 824.777344 C 330.835938 824.746094 330.714844 824.699219 330.617188 824.632812 C 330.566406 824.601562 330.539062 824.550781 330.539062 824.480469 L 330.539062 824.355469 C 330.542969 824.308594 330.550781 824.277344 330.566406 824.261719 C 330.578125 824.25 330.613281 824.246094 330.671875 824.257812 C 330.746094 824.261719 330.851562 824.246094 330.984375 824.207031 C 331.117188 824.167969 331.242188 824.082031 331.371094 823.953125 C 331.46875 823.851562 331.523438 823.800781 331.542969 823.800781 C 331.558594 823.796875 331.589844 823.8125 331.632812 823.839844 L 331.828125 823.96875 " fill-opacity="1" fill-rule="nonzero"/><path fill="#ffffff" d="M 333.457031 824.992188 C 333.792969 825.214844 334.042969 825.511719 334.21875 825.894531 C 334.390625 826.269531 334.480469 826.617188 334.476562 826.933594 C 334.476562 827.183594 334.417969 827.367188 334.300781 827.484375 C 334.183594 827.605469 334.011719 827.632812 333.789062 827.574219 L 333.71875 827.550781 C 334.285156 828.117188 334.566406 828.734375 334.566406 829.410156 C 334.5625 829.699219 334.511719 829.917969 334.40625 830.066406 C 334.300781 830.214844 334.15625 830.289062 333.972656 830.289062 C 333.789062 830.285156 333.59375 830.21875 333.386719 830.082031 C 333.113281 829.902344 332.890625 829.644531 332.722656 829.3125 C 332.554688 828.980469 332.472656 828.667969 332.472656 828.371094 C 332.472656 828.222656 332.503906 828.113281 332.5625 828.050781 C 332.621094 827.980469 332.707031 827.984375 332.8125 828.054688 C 332.917969 828.125 333 828.222656 333.054688 828.351562 C 333.113281 828.480469 333.140625 828.617188 333.140625 828.753906 C 333.140625 828.808594 333.128906 828.894531 333.113281 829.015625 C 333.101562 829.070312 333.097656 829.117188 333.097656 829.167969 C 333.097656 829.257812 333.121094 829.34375 333.160156 829.433594 C 333.203125 829.527344 333.265625 829.597656 333.339844 829.644531 C 333.4375 829.710938 333.515625 829.707031 333.5625 829.628906 C 333.609375 829.554688 333.636719 829.394531 333.636719 829.152344 C 333.636719 829.09375 333.636719 829.027344 333.632812 828.964844 L 333.605469 828.183594 C 333.582031 828.015625 333.542969 827.878906 333.492188 827.773438 C 333.4375 827.667969 333.378906 827.589844 333.320312 827.53125 C 333.261719 827.480469 333.167969 827.410156 333.035156 827.324219 L 332.96875 827.28125 C 332.921875 827.25 332.894531 827.203125 332.890625 827.140625 L 332.886719 827 L 332.882812 826.960938 C 332.882812 826.867188 332.921875 826.84375 332.992188 826.890625 C 333.171875 827.007812 333.304688 827.074219 333.382812 827.082031 C 333.457031 827.09375 333.511719 827.066406 333.539062 827 C 333.566406 826.933594 333.582031 826.765625 333.582031 826.484375 C 333.582031 826.089844 333.570312 825.820312 333.535156 825.667969 C 333.503906 825.519531 333.4375 825.410156 333.339844 825.34375 C 333.28125 825.304688 333.230469 825.296875 333.183594 825.316406 C 333.136719 825.339844 333.113281 825.394531 333.113281 825.46875 C 333.113281 825.527344 333.121094 825.609375 333.132812 825.71875 C 333.15625 825.875 333.164062 825.988281 333.164062 826.058594 C 333.164062 826.183594 333.132812 826.253906 333.074219 826.285156 C 333.011719 826.316406 332.9375 826.304688 332.851562 826.246094 C 332.746094 826.175781 332.660156 826.070312 332.601562 825.921875 C 332.542969 825.773438 332.515625 825.613281 332.515625 825.453125 C 332.515625 825.167969 332.601562 824.972656 332.769531 824.871094 C 332.941406 824.765625 333.171875 824.808594 333.457031 824.992188 " fill-opacity="1" fill-rule="nonzero"/><path fill="#e95142" d="M 468.117188 746.386719 L 468.050781 772.84375 L 243.234375 625.59375 L 243.300781 599.140625 L 468.117188 746.386719 " fill-opacity="1" fill-rule="nonzero"/></svg>