<?xml version="1.0" encoding="UTF-8"?>
<svg version="1.1" xmlns="http://www.w3.org/2000/svg" width="512" height="512">
<path d="M0 0 C0.98672699 -0.00701431 1.97345398 -0.01402863 2.99008179 -0.02125549 C6.15749726 -0.03866982 9.32472591 -0.04510784 12.4921875 -0.046875 C13.57298584 -0.04754974 14.65378418 -0.04822449 15.76733398 -0.04891968 C31.19704751 -0.03358398 46.17021343 0.30846327 61.3671875 3.203125 C62.31174805 3.36941406 63.25630859 3.53570312 64.22949219 3.70703125 C101.35694832 10.29121066 139.6912896 23.82959845 170.3671875 46.203125 C171.8605097 47.26325665 173.35401599 48.32312902 174.84765625 49.3828125 C183.99009233 55.93044093 192.67250607 62.68354351 200.69677734 70.56787109 C202.53464239 72.36705556 204.39820495 74.13756774 206.26171875 75.91015625 C215.67609134 84.97330509 223.79627801 94.56133578 231.3671875 105.203125 C232.03524414 106.12810791 232.03524414 106.12810791 232.71679688 107.07177734 C254.4428843 137.3518954 269.34126173 176.10792727 269.5703125 213.69140625 C269.57732681 214.46825272 269.58434113 215.24509918 269.59156799 216.04548645 C269.60895589 218.53559246 269.61541939 221.02546053 269.6171875 223.515625 C269.61819962 224.79309601 269.61819962 224.79309601 269.61923218 226.09637451 C269.60334858 238.70735712 269.15719772 250.85903101 266.3671875 263.203125 C266.19558105 264.00733887 266.02397461 264.81155273 265.84716797 265.64013672 C257.38594587 304.78557624 237.98771736 339.40870136 210.3671875 368.203125 C209.78340332 368.81945801 209.19961914 369.43579102 208.59814453 370.07080078 C198.92749469 380.2378957 188.76217696 389.0267853 177.3671875 397.203125 C176.79403809 397.62142578 176.22088867 398.03972656 175.63037109 398.47070312 C133.28496712 429.33670158 78.54602838 448.35982666 25.95477295 448.35029602 C24.84790296 448.35397271 23.74103297 448.3576494 22.60062146 448.3614375 C18.91440688 448.37239701 15.22822056 448.37630481 11.54199219 448.38012695 C8.89018593 448.38639698 6.23838258 448.39303209 3.58657837 448.40003967 C-4.3470484 448.41970376 -12.28067626 448.42985124 -20.21432126 448.43876746 C-23.95524688 448.44316141 -27.69617111 448.44852481 -31.43709564 448.45375633 C-43.87610709 448.47074819 -56.31511769 448.48524603 -68.75413895 448.49250507 C-71.97411348 448.49441473 -75.194088 448.49633512 -78.4140625 448.49829102 C-79.21429961 448.49877476 -80.01453672 448.4992585 -80.83902344 448.4997569 C-93.82562987 448.50807179 -106.81214464 448.53344233 -119.79871097 448.56587169 C-133.14450482 448.59892597 -146.49025198 448.6169518 -159.83608699 448.62014931 C-167.32451126 448.62231445 -174.81280129 448.6310651 -182.30118561 448.65661049 C-188.67176176 448.67829405 -195.04217096 448.68637902 -201.41277984 448.67664371 C-204.66227003 448.67209394 -207.91134297 448.67619934 -211.16080093 448.69340515 C-214.68360468 448.71101803 -218.20552918 448.70406959 -221.72833252 448.69087219 C-222.75459031 448.70184144 -223.78084811 448.71281068 -224.83820462 448.72411233 C-230.61017054 448.67177288 -234.11339684 448.16912653 -238.6328125 444.203125 C-242.28969481 439.39143774 -243.08527911 435.81566269 -243.1640625 429.828125 C-241.80489206 423.11222399 -237.07395921 418.09591909 -232.6328125 413.140625 C-231.46703554 411.81807171 -230.30168036 410.49514654 -229.13671875 409.171875 C-228.55035645 408.50929688 -227.96399414 407.84671875 -227.35986328 407.1640625 C-224.73332989 404.18182951 -222.15092202 401.16258711 -219.5703125 398.140625 C-218.57950749 396.9830041 -217.58862208 395.825452 -216.59765625 394.66796875 C-215.86458252 393.81114502 -215.86458252 393.81114502 -215.11669922 392.93701172 C-212.62385726 390.02418454 -210.12818542 387.11378389 -207.6328125 384.203125 C-206.64842407 383.05469901 -205.66404912 381.90626147 -204.6796875 380.7578125 C-199.6640625 374.90625 -194.6484375 369.0546875 -189.6328125 363.203125 C-191.79687288 359.348175 -194.29207774 356.15542776 -197.1953125 352.828125 C-219.83798207 326.15879513 -234.47618807 292.4844065 -240.6328125 258.203125 C-240.81158936 257.21795898 -240.99036621 256.23279297 -241.17456055 255.21777344 C-242.81485159 245.15537333 -242.98986737 235.25238217 -242.9453125 225.078125 C-242.94348969 224.215289 -242.94166687 223.352453 -242.93978882 222.46347046 C-242.89477493 209.81456775 -242.45069341 197.5798078 -239.6328125 185.203125 C-239.46120605 184.40036133 -239.28959961 183.59759766 -239.11279297 182.77050781 C-230.65276578 143.62303615 -211.25460434 108.99886426 -183.6328125 80.203125 C-183.04902832 79.58679199 -182.46524414 78.97045898 -181.86376953 78.33544922 C-172.19311969 68.1683543 -162.02780196 59.3794647 -150.6328125 51.203125 C-150.05966309 50.78482422 -149.48651367 50.36652344 -148.89599609 49.93554688 C-106.75738075 19.22027877 -52.33258728 0.24945861 0 0 Z " fill="#2196F3" transform="translate(242.6328125,31.796875)"/>
<path d="M0 0 C4.42537821 2.87550655 7.9041146 5.6396448 10.80859375 10.078125 C11.29714844 10.80773437 11.78570312 11.53734375 12.2890625 12.2890625 C16.23344668 19.43753588 16.60437038 26.70976408 15.62109375 34.703125 C12.70352203 42.95379047 8.40535388 50.45269506 0.68359375 54.890625 C-0.56744141 55.62345703 -0.56744141 55.62345703 -1.84375 56.37109375 C-9.48993976 60.38858328 -17.54736225 61.22590207 -26.01171875 59.015625 C-28.27687551 58.06852113 -30.29211646 56.99475504 -32.37890625 55.703125 C-33.42498047 55.084375 -33.42498047 55.084375 -34.4921875 54.453125 C-41.48521654 49.81744473 -45.78127806 42.60227617 -48.37890625 34.703125 C-49.25523277 26.26593475 -48.89898033 18.9831197 -44.37890625 11.703125 C-43.95480469 11.00574219 -43.53070313 10.30835938 -43.09375 9.58984375 C-33.08957598 -5.20741644 -15.32873184 -8.4191093 0 0 Z " fill="#F7F8F9" transform="translate(400.37890625,228.296875)"/>
<path d="M0 0 C4.42537821 2.87550655 7.9041146 5.6396448 10.80859375 10.078125 C11.29714844 10.80773437 11.78570312 11.53734375 12.2890625 12.2890625 C16.23344668 19.43753588 16.60437038 26.70976408 15.62109375 34.703125 C12.70352203 42.95379047 8.40535388 50.45269506 0.68359375 54.890625 C-0.56744141 55.62345703 -0.56744141 55.62345703 -1.84375 56.37109375 C-9.48993976 60.38858328 -17.54736225 61.22590207 -26.01171875 59.015625 C-28.27687551 58.06852113 -30.29211646 56.99475504 -32.37890625 55.703125 C-33.42498047 55.084375 -33.42498047 55.084375 -34.4921875 54.453125 C-41.48521654 49.81744473 -45.78127806 42.60227617 -48.37890625 34.703125 C-49.25523277 26.26593475 -48.89898033 18.9831197 -44.37890625 11.703125 C-43.95480469 11.00574219 -43.53070313 10.30835938 -43.09375 9.58984375 C-33.08957598 -5.20741644 -15.32873184 -8.4191093 0 0 Z " fill="#F7F8F9" transform="translate(272.37890625,228.296875)"/>
<path d="M0 0 C4.42537821 2.87550655 7.9041146 5.6396448 10.80859375 10.078125 C11.29714844 10.80773437 11.78570312 11.53734375 12.2890625 12.2890625 C16.23344668 19.43753588 16.60437038 26.70976408 15.62109375 34.703125 C12.70352203 42.95379047 8.40535388 50.45269506 0.68359375 54.890625 C-0.56744141 55.62345703 -0.56744141 55.62345703 -1.84375 56.37109375 C-9.48993976 60.38858328 -17.54736225 61.22590207 -26.01171875 59.015625 C-28.27687551 58.06852113 -30.29211646 56.99475504 -32.37890625 55.703125 C-33.42498047 55.084375 -33.42498047 55.084375 -34.4921875 54.453125 C-41.48521654 49.81744473 -45.78127806 42.60227617 -48.37890625 34.703125 C-49.25523277 26.26593475 -48.89898033 18.9831197 -44.37890625 11.703125 C-43.95480469 11.00574219 -43.53070313 10.30835938 -43.09375 9.58984375 C-33.08957598 -5.20741644 -15.32873184 -8.4191093 0 0 Z " fill="#F7F8F9" transform="translate(144.37890625,228.296875)"/>
</svg>
