<svg xmlns="http://www.w3.org/2000/svg" xmlns:xlink="http://www.w3.org/1999/xlink" width="1080" zoomAndPan="magnify" viewBox="0 0 810 809.999993" height="1080" preserveAspectRatio="xMidYMid meet" version="1.0"><defs><clipPath id="00d76c7bf0"><path d="M 488 342 L 768.75 342 L 768.75 704.25 L 488 704.25 Z M 488 342 " clip-rule="nonzero"/></clipPath></defs><rect x="-81" width="972" fill="#ffffff" y="-80.999999" height="971.999992" fill-opacity="1"/><rect x="-81" width="972" fill="#ffffff" y="-80.999999" height="971.999992" fill-opacity="1"/><path fill="#96328e" d="M 319.375 120.378906 C 294.117188 105.789062 259.195312 107.898438 220.640625 130.167969 C 182.082031 152.429688 147.167969 190.644531 121.894531 234.425781 C 96.628906 278.207031 81 327.554688 81 372.097656 C 81 416.625 96.628906 447.925781 121.902344 462.507812 L 162.226562 484.367188 L 360.503906 140.851562 L 319.378906 120.378906 " fill-opacity="1" fill-rule="nonzero"/><path fill="#841e77" d="M 401.578125 231.648438 C 401.578125 276.363281 385.878906 325.902344 360.5 369.863281 C 335.140625 413.820312 300.082031 452.191406 261.378906 474.546875 C 222.652344 496.90625 187.601562 499.019531 162.226562 484.367188 C 136.859375 469.714844 121.164062 438.292969 121.164062 393.578125 C 121.164062 348.863281 136.851562 299.316406 162.226562 255.359375 C 187.601562 211.402344 222.648438 173.035156 261.363281 150.675781 C 300.082031 128.320312 335.125 126.203125 360.5 140.855469 C 385.878906 155.515625 401.578125 186.933594 401.578125 231.648438 " fill-opacity="1" fill-rule="nonzero"/><path fill="#86d7df" d="M 275.910156 287.414062 C 272.195312 285.265625 267.054688 285.574219 261.363281 288.859375 C 255.6875 292.144531 250.546875 297.769531 246.824219 304.21875 C 243.105469 310.667969 240.800781 317.925781 240.800781 324.492188 C 240.800781 331.046875 243.105469 335.671875 246.824219 337.804688 L 485.199219 472.757812 L 514.308594 422.367188 L 275.917969 287.414062 " fill-opacity="1" fill-rule="nonzero"/><path fill="#99dde8" d="M 273.535156 316.359375 C 273.84375 314.070312 274.808594 310.839844 276.835938 307.332031 C 278.898438 303.753906 281.238281 301.277344 283.09375 299.882812 L 500.542969 423.003906 L 491.035156 439.496094 L 273.535156 316.359375 " fill-opacity="1" fill-rule="nonzero"/><path fill="#af55b1" d="M 686.5625 330.996094 C 661.289062 316.410156 626.386719 318.507812 587.820312 340.78125 C 549.253906 363.050781 514.351562 401.265625 489.078125 445.035156 C 463.800781 488.820312 448.171875 538.164062 448.171875 582.707031 C 448.171875 627.234375 463.800781 658.535156 489.078125 673.132812 L 529.414062 694.992188 L 727.675781 351.476562 L 686.5625 330.996094 " fill-opacity="1" fill-rule="nonzero"/><g clip-path="url(#00d76c7bf0)"><path fill="#9d3a98" d="M 768.75 442.265625 C 768.75 486.980469 753.050781 536.53125 727.691406 580.488281 C 702.3125 624.429688 667.273438 662.796875 628.550781 685.15625 C 589.832031 707.515625 554.773438 709.628906 529.414062 694.992188 C 504.035156 680.324219 488.335938 648.917969 488.335938 604.1875 C 488.335938 559.472656 504.035156 509.925781 529.414062 465.984375 C 554.773438 422.023438 589.832031 383.65625 628.535156 361.296875 C 667.253906 338.941406 702.3125 336.824219 727.675781 351.476562 C 753.050781 366.128906 768.75 397.550781 768.75 442.265625 " fill-opacity="1" fill-rule="nonzero"/></g><path fill="#af55b1" d="M 685.324219 427.664062 C 670.953125 419.359375 651.09375 420.5625 629.136719 433.238281 C 607.199219 445.894531 587.339844 467.632812 572.949219 492.554688 C 558.574219 517.472656 549.683594 545.542969 549.683594 570.890625 C 549.683594 596.242188 558.589844 614.042969 572.964844 622.347656 L 608.574219 641.335938 L 721.449219 445.792969 L 685.324219 427.664062 " fill-opacity="1" fill-rule="nonzero"/><path fill="#922a86" d="M 744.832031 497.472656 C 744.832031 522.925781 735.894531 551.132812 721.449219 576.152344 C 707.007812 601.175781 687.046875 623.019531 665.003906 635.746094 C 642.976562 648.472656 623.015625 649.675781 608.574219 641.335938 C 594.128906 632.992188 585.207031 615.109375 585.207031 589.65625 C 585.207031 564.203125 594.128906 535.996094 608.574219 510.972656 C 623.015625 485.949219 642.976562 464.109375 665.003906 451.382812 C 687.046875 438.65625 707.007812 437.453125 721.449219 445.792969 C 735.894531 454.132812 744.832031 472.019531 744.832031 497.472656 " fill-opacity="1" fill-rule="nonzero"/><path fill="#af55b1" d="M 696.175781 488.117188 C 687.957031 483.371094 676.609375 484.058594 664.074219 491.296875 C 651.523438 498.539062 640.175781 510.972656 631.972656 525.195312 C 623.738281 539.4375 618.664062 555.480469 618.664062 569.964844 C 618.664062 584.445312 623.738281 594.625 631.972656 599.355469 L 660.273438 615.347656 L 724.800781 503.542969 L 696.175781 488.117188 " fill-opacity="1" fill-rule="nonzero"/><path fill="#841e77" d="M 738.164062 533.105469 C 738.164062 547.65625 733.054688 563.789062 724.804688 578.097656 C 716.550781 592.390625 705.132812 604.875 692.53125 612.167969 C 679.925781 619.441406 668.527344 620.128906 660.273438 615.347656 C 652.003906 610.585938 646.898438 600.371094 646.898438 585.800781 C 646.898438 571.253906 652.003906 555.136719 660.257812 540.828125 C 668.527344 526.503906 679.925781 514.035156 692.53125 506.742188 C 705.132812 499.46875 716.550781 498.78125 724.800781 503.542969 C 733.054688 508.324219 738.164062 518.558594 738.164062 533.105469 " fill-opacity="1" fill-rule="nonzero"/><path fill="#86d7df" d="M 707.246094 533.054688 C 703.535156 530.90625 698.394531 531.214844 692.71875 534.5 C 687.027344 537.769531 681.886719 543.410156 678.171875 549.839844 C 674.441406 556.308594 672.136719 563.566406 672.136719 570.117188 C 672.136719 576.6875 674.441406 581.296875 678.171875 583.445312 L 701.695312 595.332031 L 730.785156 544.941406 L 707.246094 533.054688 " fill-opacity="1" fill-rule="nonzero"/><path fill="#5dc8d3" d="M 736.820312 558.25 C 736.820312 564.804688 734.515625 572.078125 730.785156 578.527344 C 727.074219 584.976562 721.929688 590.601562 716.242188 593.886719 C 710.566406 597.171875 705.425781 597.480469 701.695312 595.332031 C 697.980469 593.179688 695.675781 588.570312 695.675781 582 C 695.675781 575.449219 697.980469 568.175781 701.695312 561.726562 C 705.425781 555.277344 710.566406 549.652344 716.242188 546.367188 C 721.929688 543.097656 727.074219 542.789062 730.785156 544.941406 C 734.515625 547.089844 736.820312 551.699219 736.820312 558.25 " fill-opacity="1" fill-rule="nonzero"/></svg>