<svg xmlns="http://www.w3.org/2000/svg" xmlns:xlink="http://www.w3.org/1999/xlink" width="1080" zoomAndPan="magnify" viewBox="0 0 810 809.999993" height="1080" preserveAspectRatio="xMidYMid meet" version="1.0"><defs><g/><clipPath id="6564752b2b"><path d="M 31.046875 317 L 773 317 L 773 540.585938 L 31.046875 540.585938 Z M 31.046875 317 " clip-rule="nonzero"/></clipPath></defs><g clip-path="url(#6564752b2b)"><path fill="#fcf6bd" d="M 74 330.195312 L 722.648438 317.050781 C 754.855469 316.398438 778.894531 346.53125 771.09375 377.785156 L 750.546875 460.210938 C 746.46875 476.558594 731.785156 488.027344 714.945312 488.027344 L 121.449219 488.027344 C 84.019531 488.027344 49.480469 508.152344 31.046875 540.726562 C 31.046875 540.726562 31.046875 488.027344 31.046875 488.027344 L 31.046875 374.035156 C 31.046875 350.15625 50.136719 330.6875 74 330.195312 Z M 74 330.195312 " fill-opacity="1" fill-rule="nonzero"/></g><g fill="#000000" fill-opacity="1"><g transform="translate(133.012497, 428.991121)"><g><path d="M 33.375 -49.375 L 33.375 -44.140625 L 11.90625 -44.140625 L 11.90625 -27.484375 L 29.328125 -27.484375 L 29.328125 -22.25 L 11.90625 -22.25 L 11.90625 0 L 5.453125 0 L 5.453125 -49.375 Z M 33.375 -49.375 "/></g></g></g><g fill="#000000" fill-opacity="1"><g transform="translate(168.709914, 428.991121)"><g><path d="M 40.875 -20.90625 C 40.875 -19.675781 40.804688 -18.375 40.671875 -17 L 9.640625 -17 C 9.867188 -13.175781 11.175781 -10.1875 13.5625 -8.03125 C 15.945312 -5.882812 18.84375 -4.8125 22.25 -4.8125 C 25.03125 -4.8125 27.351562 -5.460938 29.21875 -6.765625 C 31.082031 -8.066406 32.394531 -9.800781 33.15625 -11.96875 L 40.09375 -11.96875 C 39.050781 -8.238281 36.972656 -5.203125 33.859375 -2.859375 C 30.742188 -0.523438 26.875 0.640625 22.25 0.640625 C 18.5625 0.640625 15.265625 -0.1875 12.359375 -1.84375 C 9.453125 -3.5 7.171875 -5.847656 5.515625 -8.890625 C 3.867188 -11.929688 3.046875 -15.460938 3.046875 -19.484375 C 3.046875 -23.492188 3.847656 -27.007812 5.453125 -30.03125 C 7.054688 -33.0625 9.3125 -35.390625 12.21875 -37.015625 C 15.125 -38.640625 18.46875 -39.453125 22.25 -39.453125 C 25.925781 -39.453125 29.179688 -38.648438 32.015625 -37.046875 C 34.847656 -35.441406 37.03125 -33.234375 38.5625 -30.421875 C 40.101562 -27.617188 40.875 -24.445312 40.875 -20.90625 Z M 34.21875 -22.25 C 34.21875 -24.695312 33.671875 -26.804688 32.578125 -28.578125 C 31.492188 -30.347656 30.019531 -31.691406 28.15625 -32.609375 C 26.289062 -33.535156 24.226562 -34 21.96875 -34 C 18.707031 -34 15.929688 -32.957031 13.640625 -30.875 C 11.347656 -28.800781 10.035156 -25.925781 9.703125 -22.25 Z M 34.21875 -22.25 "/></g></g></g><g fill="#000000" fill-opacity="1"><g transform="translate(212.623398, 428.991121)"><g><path d="M 3.046875 -19.546875 C 3.046875 -23.515625 3.847656 -27 5.453125 -30 C 7.054688 -33 9.265625 -35.320312 12.078125 -36.96875 C 14.890625 -38.625 18.019531 -39.453125 21.46875 -39.453125 C 24.863281 -39.453125 27.8125 -38.71875 30.3125 -37.25 C 32.820312 -35.789062 34.691406 -33.953125 35.921875 -31.734375 L 35.921875 -38.828125 L 42.4375 -38.828125 L 42.4375 0 L 35.921875 0 L 35.921875 -7.21875 C 34.640625 -4.957031 32.734375 -3.082031 30.203125 -1.59375 C 27.679688 -0.101562 24.742188 0.640625 21.390625 0.640625 C 17.941406 0.640625 14.820312 -0.207031 12.03125 -1.90625 C 9.25 -3.613281 7.054688 -6 5.453125 -9.0625 C 3.847656 -12.132812 3.046875 -15.628906 3.046875 -19.546875 Z M 35.921875 -19.484375 C 35.921875 -22.410156 35.328125 -24.957031 34.140625 -27.125 C 32.960938 -29.300781 31.367188 -30.96875 29.359375 -32.125 C 27.359375 -33.28125 25.148438 -33.859375 22.734375 -33.859375 C 20.328125 -33.859375 18.128906 -33.289062 16.140625 -32.15625 C 14.160156 -31.03125 12.582031 -29.378906 11.40625 -27.203125 C 10.226562 -25.023438 9.640625 -22.472656 9.640625 -19.546875 C 9.640625 -16.578125 10.226562 -13.992188 11.40625 -11.796875 C 12.582031 -9.597656 14.160156 -7.921875 16.140625 -6.765625 C 18.128906 -5.609375 20.328125 -5.03125 22.734375 -5.03125 C 25.148438 -5.03125 27.359375 -5.609375 29.359375 -6.765625 C 31.367188 -7.921875 32.960938 -9.597656 34.140625 -11.796875 C 35.328125 -13.992188 35.921875 -16.554688 35.921875 -19.484375 Z M 35.921875 -19.484375 "/></g></g></g><g fill="#000000" fill-opacity="1"><g transform="translate(260.503255, 428.991121)"><g><path d="M 13.3125 -33.515625 L 13.3125 -10.625 C 13.3125 -8.738281 13.710938 -7.40625 14.515625 -6.625 C 15.328125 -5.84375 16.722656 -5.453125 18.703125 -5.453125 L 23.453125 -5.453125 L 23.453125 0 L 17.640625 0 C 14.046875 0 11.351562 -0.820312 9.5625 -2.46875 C 7.769531 -4.125 6.875 -6.84375 6.875 -10.625 L 6.875 -33.515625 L 1.84375 -33.515625 L 1.84375 -38.828125 L 6.875 -38.828125 L 6.875 -48.59375 L 13.3125 -48.59375 L 13.3125 -38.828125 L 23.453125 -38.828125 L 23.453125 -33.515625 Z M 13.3125 -33.515625 "/></g></g></g><g fill="#000000" fill-opacity="1"><g transform="translate(286.284722, 428.991121)"><g><path d="M 39.890625 -38.828125 L 39.890625 0 L 33.4375 0 L 33.4375 -5.734375 C 32.207031 -3.753906 30.492188 -2.207031 28.296875 -1.09375 C 26.109375 0.0078125 23.691406 0.5625 21.046875 0.5625 C 18.015625 0.5625 15.296875 -0.0625 12.890625 -1.3125 C 10.484375 -2.5625 8.582031 -4.4375 7.1875 -6.9375 C 5.789062 -9.445312 5.09375 -12.492188 5.09375 -16.078125 L 5.09375 -38.828125 L 11.484375 -38.828125 L 11.484375 -16.9375 C 11.484375 -13.101562 12.445312 -10.160156 14.375 -8.109375 C 16.3125 -6.054688 18.957031 -5.03125 22.3125 -5.03125 C 25.757812 -5.03125 28.472656 -6.09375 30.453125 -8.21875 C 32.441406 -10.34375 33.4375 -13.4375 33.4375 -17.5 L 33.4375 -38.828125 Z M 39.890625 -38.828125 "/></g></g></g><g fill="#000000" fill-opacity="1"><g transform="translate(331.614767, 428.991121)"><g><path d="M 11.90625 -32.515625 C 13.039062 -34.734375 14.65625 -36.457031 16.75 -37.6875 C 18.851562 -38.914062 21.414062 -39.53125 24.4375 -39.53125 L 24.4375 -32.875 L 22.734375 -32.875 C 15.515625 -32.875 11.90625 -28.953125 11.90625 -21.109375 L 11.90625 0 L 5.453125 0 L 5.453125 -38.828125 L 11.90625 -38.828125 Z M 11.90625 -32.515625 "/></g></g></g><g fill="#000000" fill-opacity="1"><g transform="translate(358.03368, 428.991121)"><g><path d="M 40.875 -20.90625 C 40.875 -19.675781 40.804688 -18.375 40.671875 -17 L 9.640625 -17 C 9.867188 -13.175781 11.175781 -10.1875 13.5625 -8.03125 C 15.945312 -5.882812 18.84375 -4.8125 22.25 -4.8125 C 25.03125 -4.8125 27.351562 -5.460938 29.21875 -6.765625 C 31.082031 -8.066406 32.394531 -9.800781 33.15625 -11.96875 L 40.09375 -11.96875 C 39.050781 -8.238281 36.972656 -5.203125 33.859375 -2.859375 C 30.742188 -0.523438 26.875 0.640625 22.25 0.640625 C 18.5625 0.640625 15.265625 -0.1875 12.359375 -1.84375 C 9.453125 -3.5 7.171875 -5.847656 5.515625 -8.890625 C 3.867188 -11.929688 3.046875 -15.460938 3.046875 -19.484375 C 3.046875 -23.492188 3.847656 -27.007812 5.453125 -30.03125 C 7.054688 -33.0625 9.3125 -35.390625 12.21875 -37.015625 C 15.125 -38.640625 18.46875 -39.453125 22.25 -39.453125 C 25.925781 -39.453125 29.179688 -38.648438 32.015625 -37.046875 C 34.847656 -35.441406 37.03125 -33.234375 38.5625 -30.421875 C 40.101562 -27.617188 40.875 -24.445312 40.875 -20.90625 Z M 34.21875 -22.25 C 34.21875 -24.695312 33.671875 -26.804688 32.578125 -28.578125 C 31.492188 -30.347656 30.019531 -31.691406 28.15625 -32.609375 C 26.289062 -33.535156 24.226562 -34 21.96875 -34 C 18.707031 -34 15.929688 -32.957031 13.640625 -30.875 C 11.347656 -28.800781 10.035156 -25.925781 9.703125 -22.25 Z M 34.21875 -22.25 "/></g></g></g><g fill="#000000" fill-opacity="1"><g transform="translate(401.947176, 428.991121)"><g><path d="M 3.046875 -19.546875 C 3.046875 -23.515625 3.847656 -27 5.453125 -30 C 7.054688 -33 9.265625 -35.320312 12.078125 -36.96875 C 14.890625 -38.625 18.039062 -39.453125 21.53125 -39.453125 C 24.5625 -39.453125 27.375 -38.753906 29.96875 -37.359375 C 32.5625 -35.972656 34.546875 -34.144531 35.921875 -31.875 L 35.921875 -52.421875 L 42.4375 -52.421875 L 42.4375 0 L 35.921875 0 L 35.921875 -7.296875 C 34.640625 -4.984375 32.75 -3.082031 30.25 -1.59375 C 27.75 -0.101562 24.820312 0.640625 21.46875 0.640625 C 18.019531 0.640625 14.890625 -0.207031 12.078125 -1.90625 C 9.265625 -3.613281 7.054688 -6 5.453125 -9.0625 C 3.847656 -12.132812 3.046875 -15.628906 3.046875 -19.546875 Z M 35.921875 -19.484375 C 35.921875 -22.410156 35.328125 -24.957031 34.140625 -27.125 C 32.960938 -29.300781 31.367188 -30.96875 29.359375 -32.125 C 27.359375 -33.28125 25.148438 -33.859375 22.734375 -33.859375 C 20.328125 -33.859375 18.128906 -33.289062 16.140625 -32.15625 C 14.160156 -31.03125 12.582031 -29.378906 11.40625 -27.203125 C 10.226562 -25.023438 9.640625 -22.472656 9.640625 -19.546875 C 9.640625 -16.578125 10.226562 -13.992188 11.40625 -11.796875 C 12.582031 -9.597656 14.160156 -7.921875 16.140625 -6.765625 C 18.128906 -5.609375 20.328125 -5.03125 22.734375 -5.03125 C 25.148438 -5.03125 27.359375 -5.609375 29.359375 -6.765625 C 31.367188 -7.921875 32.960938 -9.597656 34.140625 -11.796875 C 35.328125 -13.992188 35.921875 -16.554688 35.921875 -19.484375 Z M 35.921875 -19.484375 "/></g></g></g><g fill="#000000" fill-opacity="1"><g transform="translate(449.827034, 428.991121)"><g/></g></g><g fill="#000000" fill-opacity="1"><g transform="translate(468.738166, 428.991121)"><g><path d="M 11.90625 -52.421875 L 11.90625 0 L 5.453125 0 L 5.453125 -52.421875 Z M 11.90625 -52.421875 "/></g></g></g><g fill="#000000" fill-opacity="1"><g transform="translate(486.161909, 428.991121)"><g><path d="M 8.78125 -45.125 C 7.550781 -45.125 6.507812 -45.546875 5.65625 -46.390625 C 4.8125 -47.242188 4.390625 -48.285156 4.390625 -49.515625 C 4.390625 -50.742188 4.8125 -51.78125 5.65625 -52.625 C 6.507812 -53.476562 7.550781 -53.90625 8.78125 -53.90625 C 9.96875 -53.90625 10.972656 -53.476562 11.796875 -52.625 C 12.617188 -51.78125 13.03125 -50.742188 13.03125 -49.515625 C 13.03125 -48.285156 12.617188 -47.242188 11.796875 -46.390625 C 10.972656 -45.546875 9.96875 -45.125 8.78125 -45.125 Z M 11.90625 -38.828125 L 11.90625 0 L 5.453125 0 L 5.453125 -38.828125 Z M 11.90625 -38.828125 "/></g></g></g><g fill="#000000" fill-opacity="1"><g transform="translate(503.585629, 428.991121)"><g><path d="M 19.203125 0.640625 C 16.222656 0.640625 13.550781 0.132812 11.1875 -0.875 C 8.832031 -1.894531 6.96875 -3.3125 5.59375 -5.125 C 4.226562 -6.945312 3.472656 -9.039062 3.328125 -11.40625 L 9.984375 -11.40625 C 10.171875 -9.46875 11.078125 -7.882812 12.703125 -6.65625 C 14.335938 -5.425781 16.476562 -4.8125 19.125 -4.8125 C 21.582031 -4.8125 23.519531 -5.351562 24.9375 -6.4375 C 26.351562 -7.53125 27.0625 -8.90625 27.0625 -10.5625 C 27.0625 -12.257812 26.304688 -13.519531 24.796875 -14.34375 C 23.285156 -15.164062 20.945312 -15.984375 17.78125 -16.796875 C 14.894531 -17.546875 12.539062 -18.3125 10.71875 -19.09375 C 8.90625 -19.875 7.347656 -21.03125 6.046875 -22.5625 C 4.753906 -24.09375 4.109375 -26.113281 4.109375 -28.625 C 4.109375 -30.601562 4.695312 -32.421875 5.875 -34.078125 C 7.0625 -35.734375 8.738281 -37.039062 10.90625 -38 C 13.082031 -38.96875 15.5625 -39.453125 18.34375 -39.453125 C 22.644531 -39.453125 26.117188 -38.363281 28.765625 -36.1875 C 31.410156 -34.019531 32.828125 -31.050781 33.015625 -27.28125 L 26.5625 -27.28125 C 26.425781 -29.3125 25.613281 -30.9375 24.125 -32.15625 C 22.632812 -33.382812 20.640625 -34 18.140625 -34 C 15.828125 -34 13.984375 -33.503906 12.609375 -32.515625 C 11.242188 -31.523438 10.5625 -30.226562 10.5625 -28.625 C 10.5625 -27.34375 10.972656 -26.289062 11.796875 -25.46875 C 12.617188 -24.644531 13.65625 -23.984375 14.90625 -23.484375 C 16.164062 -22.984375 17.90625 -22.425781 20.125 -21.8125 C 22.90625 -21.0625 25.171875 -20.316406 26.921875 -19.578125 C 28.671875 -18.847656 30.171875 -17.75 31.421875 -16.28125 C 32.671875 -14.820312 33.320312 -12.914062 33.375 -10.5625 C 33.375 -8.4375 32.78125 -6.519531 31.59375 -4.8125 C 30.414062 -3.113281 28.75 -1.78125 26.59375 -0.8125 C 24.445312 0.15625 21.984375 0.640625 19.203125 0.640625 Z M 19.203125 0.640625 "/></g></g></g><g fill="#000000" fill-opacity="1"><g transform="translate(540.557963, 428.991121)"><g><path d="M 13.3125 -33.515625 L 13.3125 -10.625 C 13.3125 -8.738281 13.710938 -7.40625 14.515625 -6.625 C 15.328125 -5.84375 16.722656 -5.453125 18.703125 -5.453125 L 23.453125 -5.453125 L 23.453125 0 L 17.640625 0 C 14.046875 0 11.351562 -0.820312 9.5625 -2.46875 C 7.769531 -4.125 6.875 -6.84375 6.875 -10.625 L 6.875 -33.515625 L 1.84375 -33.515625 L 1.84375 -38.828125 L 6.875 -38.828125 L 6.875 -48.59375 L 13.3125 -48.59375 L 13.3125 -38.828125 L 23.453125 -38.828125 L 23.453125 -33.515625 Z M 13.3125 -33.515625 "/></g></g></g><g fill="#000000" fill-opacity="1"><g transform="translate(566.339441, 428.991121)"><g><path d="M 8.78125 -45.125 C 7.550781 -45.125 6.507812 -45.546875 5.65625 -46.390625 C 4.8125 -47.242188 4.390625 -48.285156 4.390625 -49.515625 C 4.390625 -50.742188 4.8125 -51.78125 5.65625 -52.625 C 6.507812 -53.476562 7.550781 -53.90625 8.78125 -53.90625 C 9.96875 -53.90625 10.972656 -53.476562 11.796875 -52.625 C 12.617188 -51.78125 13.03125 -50.742188 13.03125 -49.515625 C 13.03125 -48.285156 12.617188 -47.242188 11.796875 -46.390625 C 10.972656 -45.546875 9.96875 -45.125 8.78125 -45.125 Z M 11.90625 -38.828125 L 11.90625 0 L 5.453125 0 L 5.453125 -38.828125 Z M 11.90625 -38.828125 "/></g></g></g><g fill="#000000" fill-opacity="1"><g transform="translate(583.763161, 428.991121)"><g><path d="M 24.375 -39.53125 C 29.09375 -39.53125 32.914062 -38.097656 35.84375 -35.234375 C 38.769531 -32.378906 40.234375 -28.257812 40.234375 -22.875 L 40.234375 0 L 33.859375 0 L 33.859375 -21.96875 C 33.859375 -25.832031 32.890625 -28.789062 30.953125 -30.84375 C 29.015625 -32.90625 26.375 -33.9375 23.03125 -33.9375 C 19.625 -33.9375 16.914062 -32.875 14.90625 -30.75 C 12.90625 -28.625 11.90625 -25.53125 11.90625 -21.46875 L 11.90625 0 L 5.453125 0 L 5.453125 -38.828125 L 11.90625 -38.828125 L 11.90625 -33.296875 C 13.175781 -35.273438 14.910156 -36.804688 17.109375 -37.890625 C 19.304688 -38.984375 21.726562 -39.53125 24.375 -39.53125 Z M 24.375 -39.53125 "/></g></g></g><g fill="#000000" fill-opacity="1"><g transform="translate(629.093206, 428.991121)"><g><path d="M 21.46875 -39.453125 C 24.820312 -39.453125 27.757812 -38.71875 30.28125 -37.25 C 32.8125 -35.789062 34.691406 -33.953125 35.921875 -31.734375 L 35.921875 -38.828125 L 42.4375 -38.828125 L 42.4375 0.84375 C 42.4375 4.382812 41.679688 7.535156 40.171875 10.296875 C 38.660156 13.066406 36.5 15.226562 33.6875 16.78125 C 30.875 18.34375 27.601562 19.125 23.875 19.125 C 18.769531 19.125 14.515625 17.921875 11.109375 15.515625 C 7.710938 13.109375 5.707031 9.828125 5.09375 5.671875 L 11.484375 5.671875 C 12.191406 8.023438 13.65625 9.921875 15.875 11.359375 C 18.09375 12.804688 20.757812 13.53125 23.875 13.53125 C 27.414062 13.53125 30.304688 12.421875 32.546875 10.203125 C 34.796875 7.984375 35.921875 4.863281 35.921875 0.84375 L 35.921875 -7.296875 C 34.640625 -5.023438 32.75 -3.132812 30.25 -1.625 C 27.75 -0.113281 24.820312 0.640625 21.46875 0.640625 C 18.019531 0.640625 14.890625 -0.207031 12.078125 -1.90625 C 9.265625 -3.613281 7.054688 -6 5.453125 -9.0625 C 3.847656 -12.132812 3.046875 -15.628906 3.046875 -19.546875 C 3.046875 -23.515625 3.847656 -27 5.453125 -30 C 7.054688 -33 9.265625 -35.320312 12.078125 -36.96875 C 14.890625 -38.625 18.019531 -39.453125 21.46875 -39.453125 Z M 35.921875 -19.484375 C 35.921875 -22.410156 35.328125 -24.957031 34.140625 -27.125 C 32.960938 -29.300781 31.367188 -30.96875 29.359375 -32.125 C 27.359375 -33.28125 25.148438 -33.859375 22.734375 -33.859375 C 20.328125 -33.859375 18.128906 -33.289062 16.140625 -32.15625 C 14.160156 -31.03125 12.582031 -29.378906 11.40625 -27.203125 C 10.226562 -25.023438 9.640625 -22.472656 9.640625 -19.546875 C 9.640625 -16.578125 10.226562 -13.992188 11.40625 -11.796875 C 12.582031 -9.597656 14.160156 -7.921875 16.140625 -6.765625 C 18.128906 -5.609375 20.328125 -5.03125 22.734375 -5.03125 C 25.148438 -5.03125 27.359375 -5.609375 29.359375 -6.765625 C 31.367188 -7.921875 32.960938 -9.597656 34.140625 -11.796875 C 35.328125 -13.992188 35.921875 -16.554688 35.921875 -19.484375 Z M 35.921875 -19.484375 "/></g></g></g></svg>