<svg xmlns="http://www.w3.org/2000/svg" xmlns:xlink="http://www.w3.org/1999/xlink" width="1080" zoomAndPan="magnify" viewBox="0 0 810 809.999993" height="1080" preserveAspectRatio="xMidYMid meet" version="1.0"><defs><clipPath id="5c2cca3922"><path d="M 173 33.5625 L 625 33.5625 L 625 771 L 173 771 Z M 173 33.5625 " clip-rule="nonzero"/></clipPath></defs><rect x="-81" width="972" fill="#ffffff" y="-80.999999" height="971.999992" fill-opacity="1"/><rect x="-81" width="972" fill="#ffffff" y="-80.999999" height="971.999992" fill-opacity="1"/><path fill="#a5d4b6" d="M 637.953125 631.144531 C 637.195312 607.40625 634.328125 583.761719 635.136719 559.949219 C 635.277344 555.785156 635.378906 551.710938 635.941406 547.550781 C 637.664062 534.726562 637 521.996094 632.652344 509.660156 C 631.5625 506.566406 628.578125 504.308594 629.164062 500.566406 C 625.007812 501.21875 621.433594 501.742188 617.871094 502.351562 C 612.945312 503.191406 612.53125 502.972656 612.382812 497.835938 C 612.03125 485.460938 612.558594 473.066406 614.605469 460.898438 C 616.304688 450.777344 612.832031 441.78125 610.375 432.535156 C 609.707031 430.023438 606.449219 427.972656 603.992188 427.859375 C 597.335938 427.558594 590.527344 426.671875 584.171875 430.304688 C 581.941406 431.578125 579.914062 435.769531 576.898438 433.144531 C 574.285156 430.867188 576.214844 427.109375 576.796875 424.171875 C 579.082031 412.578125 580.320312 401.03125 576.363281 389.582031 C 574.78125 384.992188 574.75 380.578125 575.574219 375.808594 C 577.140625 366.757812 578.035156 357.59375 579.3125 348.488281 C 579.886719 344.398438 580.714844 340.347656 581.425781 336.277344 C 582.453125 340.003906 582.375 343.667969 582.46875 347.328125 C 582.726562 357.464844 581.777344 367.703125 585.152344 377.582031 C 585.992188 380.039062 586.75 382.519531 587.050781 385.1875 C 587.890625 392.585938 588.03125 392.570312 596.324219 394.117188 C 596.667969 392.90625 597.246094 391.683594 597.335938 390.429688 C 598.339844 376.546875 600.703125 362.75 600.203125 348.78125 C 599.84375 338.8125 599.980469 328.792969 598.125 318.929688 C 596.878906 312.316406 595.117188 305.828125 587.773438 303.53125 C 584.054688 302.367188 583.917969 299.929688 583.734375 296.917969 C 583.542969 293.769531 583.765625 291.40625 587.558594 290.375 C 590.3125 289.628906 592.714844 287.707031 593.222656 284.472656 C 594.691406 275.089844 588.578125 269.289062 579.175781 271.433594 C 575.703125 272.222656 572.382812 271.785156 569.085938 271.289062 C 567.011719 270.972656 565.597656 268.824219 568.089844 267.453125 C 574.785156 263.761719 575.03125 257.277344 575.601562 251.070312 C 576.25 244.003906 575.984375 236.738281 577.9375 229.941406 C 580.976562 219.371094 581.027344 208.441406 583.035156 197.675781 C 584.570312 196.46875 586.402344 197.648438 588.128906 197.488281 C 595.105469 196.839844 598.183594 199.972656 597.570312 206.816406 C 597.035156 212.792969 595.699219 218.703125 595.234375 224.6875 C 594.234375 237.605469 593.738281 250.570312 592.660156 263.480469 C 592.339844 267.316406 593.835938 268.578125 596.832031 270.585938 C 600.5 273.042969 601.953125 270.929688 604.140625 269.234375 C 607.386719 266.71875 609.292969 263.550781 610.0625 259.402344 C 611.859375 249.691406 611.527344 240.011719 609.710938 230.433594 C 605.269531 207.007812 605.332031 183.457031 607.816406 159.910156 C 609.917969 140.023438 611.148438 120.117188 611.144531 100.140625 C 611.144531 95.203125 611.757812 89.957031 609.335938 85.40625 C 606.75 80.550781 606.34375 75.402344 606.027344 70.148438 C 605.871094 67.527344 605.886719 64.875 605.457031 62.296875 C 604.695312 57.75 602.488281 55.9375 597.640625 55.617188 C 592.449219 55.273438 587.386719 54.316406 582.046875 54.402344 C 575.113281 54.511719 566.625 56.722656 561.953125 48.253906 C 561.882812 48.128906 561.394531 48.300781 561.203125 48.175781 C 554.574219 43.859375 547.832031 45.898438 541.246094 48.082031 C 538.25 49.074219 535.339844 50.496094 532.191406 50.613281 C 511.089844 51.390625 489.890625 53.578125 469.210938 46.914062 C 467.746094 46.441406 466.121094 46.261719 464.574219 46.285156 C 454.34375 46.445312 444.386719 45.546875 434.203125 43.492188 C 416.914062 40.003906 399.183594 41.035156 381.726562 43.800781 C 378.5625 44.304688 376.160156 43.914062 373.613281 42.261719 C 367.042969 38.007812 359.996094 37.386719 352.699219 40.03125 C 349.996094 41.015625 347.375 42.273438 344.816406 43.601562 C 343.007812 44.539062 341.269531 44.832031 339.648438 43.578125 C 332.164062 37.789062 325.359375 40.925781 318.585938 45.035156 C 312.570312 48.6875 307.460938 53.484375 301.734375 59.195312 C 301.539062 54.363281 299.523438 51.417969 295.671875 51.496094 C 291.660156 51.582031 290.226562 55.292969 289.1875 58.5625 C 287.835938 62.808594 286.707031 67.144531 285.796875 71.507812 C 281.449219 92.332031 279.242188 113.441406 277.71875 134.628906 C 274.828125 174.78125 274.664062 214.824219 280.226562 254.859375 C 283.433594 277.914062 286.472656 301.054688 283.648438 324.582031 C 282.894531 330.878906 281.578125 337.519531 282.554688 343.996094 C 283.507812 350.339844 282.554688 356.429688 281.636719 362.652344 C 276.96875 394.347656 273.15625 426.140625 271.292969 458.144531 C 270.914062 464.683594 271.570312 471.6875 269.378906 477.601562 C 267.242188 483.371094 266.824219 488.796875 267.464844 494.453125 C 268.265625 501.527344 268.878906 508.605469 268.730469 515.695312 C 268.261719 538.328125 268.859375 560.863281 273.085938 583.195312 C 273.710938 586.5 273.453125 589.988281 273.484375 593.394531 C 273.628906 608.871094 271.582031 624.289062 272.195312 639.777344 C 273.25 666.316406 276.308594 692.671875 279.878906 718.964844 C 280.898438 726.488281 281.667969 734.113281 284.175781 741.394531 C 286.011719 746.726562 289.519531 749.628906 294.804688 751.960938 C 302.585938 755.394531 310.390625 751.414062 318.164062 753.582031 C 321.222656 754.433594 323.722656 754.621094 326 757.257812 C 330.992188 763.046875 338.296875 764.546875 345.5625 761.429688 C 347.6875 760.515625 349.128906 760.859375 350.527344 762.109375 C 352.277344 763.667969 354.195312 764.980469 355.878906 766.683594 C 362.550781 773.421875 370.480469 776.773438 380.054688 773.78125 C 382.167969 773.121094 384.085938 772.917969 386.160156 773.636719 C 394.25 776.4375 400.855469 774.125 406.65625 768.070312 C 410.699219 763.859375 413.886719 758.980469 416.742188 754.082031 C 419.160156 749.933594 421.222656 748.949219 425.429688 750.796875 C 430.054688 752.824219 434.832031 754.183594 439.832031 751.570312 C 441.238281 750.835938 442.992188 750.949219 444.410156 751.785156 C 449.542969 754.800781 454.347656 752.148438 459.4375 751.609375 C 464.332031 751.089844 469.421875 754.894531 474.722656 752.65625 C 476.585938 751.867188 478.160156 751.960938 479.992188 752.664062 C 486.230469 755.0625 491.179688 752.867188 495.441406 748.171875 C 496.617188 746.878906 497.144531 743.9375 499.128906 744.5625 C 505.445312 746.558594 511.316406 742.335938 517.691406 743.992188 C 525.222656 745.941406 530.984375 742.613281 534.769531 735.886719 C 535.542969 734.515625 536.144531 733.019531 537.0625 731.757812 C 539.453125 728.480469 541.921875 725.941406 546.808594 727.675781 C 549.59375 728.664062 553.429688 729.644531 555.921875 727.6875 C 559.097656 725.195312 562.082031 725.9375 565.378906 726.238281 C 567.699219 726.453125 570.046875 726.511719 572.210938 725.070312 C 573.769531 724.03125 575.679688 723.929688 577.554688 724.15625 C 581.582031 724.644531 585.679688 726.304688 589.125 722.214844 C 590.179688 720.957031 592.054688 722.3125 593.453125 723.023438 C 598.636719 725.648438 603.347656 724.898438 607.8125 721.238281 C 615.085938 715.277344 619.027344 707.589844 619.917969 698.3125 C 620.847656 688.652344 621.722656 678.984375 622.464844 669.308594 C 622.714844 666.015625 623.382812 662.648438 625.980469 660.832031 C 636.535156 653.460938 638.328125 643 637.953125 631.144531 Z M 577.867188 63.59375 C 579.183594 62.347656 580.832031 62.683594 582.296875 63.277344 C 584.625 64.226562 585.816406 66.355469 587.039062 68.375 C 592.34375 77.140625 594.273438 86.871094 594.753906 96.914062 C 595.613281 114.871094 592.875 132.421875 588.242188 150.3125 C 583.855469 148.644531 583.492188 144.957031 582.621094 141.8125 C 579.480469 130.460938 580.109375 118.941406 581.582031 107.429688 C 582.882812 97.226562 583.148438 87.074219 581.066406 76.90625 C 580.367188 73.492188 578.402344 70.628906 577.640625 67.300781 C 577.359375 66.070312 576.726562 64.671875 577.867188 63.59375 Z M 318.175781 66.476562 C 318.976562 65.199219 320.3125 64.230469 322.527344 64.09375 C 324.6875 70.683594 324.46875 77.5625 324.695312 84.199219 C 325.300781 102.050781 325.257812 119.925781 325.351562 137.792969 C 325.410156 148.820312 324.734375 159.875 325.34375 170.863281 C 325.917969 181.261719 324.015625 191.242188 322.472656 201.355469 C 322.074219 203.96875 321.304688 205.5 318.648438 206.507812 C 314.304688 208.15625 313.949219 208.191406 313.648438 203.421875 C 312.359375 183.011719 311.683594 162.578125 311.578125 142.128906 C 311.476562 123.226562 311.695312 104.320312 311.429688 85.417969 C 311.328125 78.105469 314.539062 72.269531 318.175781 66.476562 Z M 322.167969 574.660156 C 321.753906 576.417969 321 578.164062 320.070312 579.714844 C 318.539062 582.277344 316.597656 581.921875 315.238281 579.617188 C 313.773438 577.132812 313.148438 574.28125 312.726562 571.410156 C 311.773438 564.917969 313.359375 558.242188 311.160156 553.277344 C 311.519531 549.609375 310.605469 546.796875 313.941406 546.101562 C 317.152344 545.4375 318.9375 547.332031 319.777344 550.082031 C 322.230469 558.101562 324.15625 566.21875 322.167969 574.660156 Z M 335.539062 573.269531 C 332.644531 577 331.367188 582.085938 331.285156 587.296875 C 331.15625 595.234375 330.390625 603.160156 329.867188 611.507812 C 326.746094 609.988281 327.457031 608.121094 327.722656 606.375 C 329.539062 594.398438 327.949219 582.378906 328.277344 570.386719 C 328.359375 567.359375 326.417969 565.289062 325.894531 562.460938 C 323.085938 547.261719 323.972656 531.902344 322.925781 516.644531 C 322.546875 511.171875 320.691406 505.996094 320.484375 500.46875 C 320.367188 497.359375 320.917969 493.132812 315.941406 491.875 C 314.921875 491.617188 314.449219 488.710938 313.949219 486.957031 C 311.574219 478.605469 310.460938 469.96875 309.867188 461.398438 C 307.878906 432.617188 306.371094 403.800781 304.859375 374.992188 C 304.570312 369.507812 305.097656 363.980469 305.261719 358.476562 C 305.316406 356.613281 305.578125 353.851562 307.304688 353.894531 C 309.664062 353.949219 312.785156 352.8125 314.578125 355.492188 C 317.578125 359.976562 320.171875 364.058594 319.859375 370.390625 C 318.609375 395.78125 318.597656 421.171875 321.484375 446.558594 C 323.230469 461.90625 325.617188 477.277344 325.121094 492.832031 C 324.800781 502.890625 328.84375 512.261719 329.582031 522.21875 C 330.644531 536.605469 333.320312 550.8125 336.886719 564.816406 C 337.675781 567.910156 337.972656 570.128906 335.539062 573.269531 Z M 336.035156 314.003906 C 335.847656 313.984375 335.511719 313.054688 335.660156 312.757812 C 336.535156 311.019531 338.046875 311.167969 340.328125 311.78125 C 338.851562 313.152344 337.710938 314.203125 336.035156 314.003906 Z M 388.457031 685.429688 C 386.242188 684.144531 386.949219 682.445312 386.542969 681.277344 C 386.117188 680.0625 385.785156 678.777344 385.667969 677.5 C 384.816406 668.214844 383.992188 658.929688 383.230469 649.636719 C 382.757812 643.871094 382.816406 643.867188 388.347656 642.925781 C 389.617188 642.710938 390.882812 642.46875 392.617188 642.15625 C 397.855469 657.667969 391.847656 671.0625 388.457031 685.429688 Z M 408.542969 305.957031 C 406.335938 308.425781 402.351562 310.488281 398.910156 310.027344 C 389.601562 308.773438 382.535156 312.597656 375.949219 318.347656 C 374.105469 319.960938 371.554688 321.308594 369.625 319.425781 C 366.066406 315.957031 360.941406 314.550781 357.289062 309.621094 C 373.6875 305.601562 388.445312 300.269531 402.945312 294.675781 C 404.753906 296.203125 405.109375 298.15625 405.253906 299.875 C 405.480469 302.621094 410.949219 303.269531 408.542969 305.957031 Z M 410.476562 206.484375 C 403.476562 224.199219 403.582031 242.859375 402.578125 261.382812 C 402.351562 265.527344 401.097656 267.832031 396.433594 268.734375 C 378.980469 272.113281 361.964844 277.261719 344.972656 282.441406 C 343.972656 282.746094 342.933594 282.90625 341.925781 283.179688 C 338.824219 284.007812 337.613281 282.707031 337.527344 279.628906 C 337.355469 273.359375 337.0625 267.09375 336.734375 260.832031 C 336.417969 254.804688 335.996094 248.785156 335.621094 242.761719 C 334.347656 227.019531 334.976562 211.300781 336.246094 195.589844 C 336.394531 193.785156 336.265625 191.871094 337.839844 190.496094 C 339.183594 189.320312 340.308594 187.789062 342.386719 189.5625 C 346.476562 193.046875 350.523438 193.078125 354.769531 189.476562 C 355.988281 188.441406 357.625 187.160156 359.757812 187.765625 C 364.386719 189.082031 369.480469 187.039062 373.664062 188.265625 C 381.054688 190.433594 385.148438 188.09375 388.632812 181.980469 C 389.980469 179.621094 397.285156 181.308594 398.355469 184.515625 C 400.371094 190.574219 403.769531 194.734375 409.582031 197.730469 C 412.359375 199.164062 411.523438 203.835938 410.476562 206.484375 Z M 466.171875 604.035156 C 465.769531 605.210938 465.496094 606.632812 463.777344 607.03125 C 461.539062 603.347656 454.96875 603.136719 455.769531 596.726562 C 456.25 592.914062 455.007812 588.769531 458.703125 585.496094 C 469.070312 590.597656 469.980469 592.941406 466.171875 604.035156 Z M 550.410156 229.613281 C 549.167969 225.875 548.683594 224.105469 548 222.417969 C 545.824219 217.039062 541.527344 216.402344 537.996094 221.007812 C 536.902344 222.441406 536.121094 224.164062 535.433594 225.851562 C 533.757812 229.984375 531.792969 234.066406 530.734375 238.367188 C 529.3125 244.132812 525.730469 246.34375 520.214844 247.207031 C 505.953125 249.445312 491.511719 249.847656 477.230469 251.664062 C 471.769531 252.359375 467.421875 251.183594 462.941406 248.503906 C 459.773438 246.613281 456.179688 246.59375 452.453125 246.835938 C 447.457031 247.160156 446.410156 245.339844 448.847656 240.839844 C 451.871094 235.25 451.773438 229.222656 451.953125 223.21875 C 452.066406 219.570312 452.207031 216.6875 457.1875 216.226562 C 461.433594 215.835938 463.519531 212.007812 465.179688 208.316406 C 468.21875 201.566406 469.1875 201.242188 475.222656 205.007812 C 478.199219 206.863281 481.390625 207.679688 484.921875 207.636719 C 490.074219 207.570312 495.230469 207.785156 499.808594 210.667969 C 501.960938 212.019531 504.3125 212.050781 506.605469 211.363281 C 507.894531 210.976562 508.894531 210.890625 510.28125 211.269531 C 515.492188 212.679688 518.734375 210.9375 520.464844 206.171875 C 521.566406 203.136719 521.34375 199.960938 521.332031 196.8125 C 521.273438 183.980469 521.128906 171.144531 521.226562 158.316406 C 521.261719 153.625 521.429688 154.359375 526.222656 155.015625 C 529.386719 155.445312 530.660156 158.5625 533.320312 158.527344 C 536.378906 158.492188 539.546875 159.570312 542.539062 158.082031 C 548.757812 162.773438 552.964844 158.480469 557.347656 154.808594 C 557.929688 154.320312 558.742188 154.097656 559.464844 153.789062 C 563.6875 151.960938 564.492188 152.34375 565.28125 156.679688 C 565.65625 158.742188 565.863281 160.835938 566.171875 162.914062 C 566.816406 167.277344 567.113281 171.695312 572.132812 173.84375 C 574.585938 174.894531 574.882812 177.230469 574.136719 179.867188 C 572.351562 186.171875 570.882812 192.5625 569.128906 198.878906 C 568.570312 200.875 567.835938 202.976562 566.625 204.617188 C 561.050781 212.152344 555.046875 219.378906 550.410156 229.613281 Z M 579.257812 548.007812 C 578.957031 563.238281 578.015625 578.425781 577.304688 593.621094 C 576.320312 614.808594 573.90625 635.902344 570.578125 656.855469 C 569.765625 661.964844 570.53125 667.4375 567.230469 673.050781 C 562.75 663.828125 562.902344 654.792969 562.257812 646.03125 C 561.21875 631.875 561.25 617.65625 562.207031 603.484375 C 563.367188 586.234375 564.917969 569.015625 566.132812 551.769531 C 566.613281 544.960938 566.726562 538.121094 566.871094 531.292969 C 567.109375 520.265625 566.53125 509.230469 567.78125 498.203125 C 568.367188 493.019531 568.160156 487.726562 567.03125 482.507812 C 566.527344 480.171875 566.777344 477.632812 569.953125 476.992188 C 572.988281 476.382812 575.144531 477.515625 576.042969 480.503906 C 576.644531 482.503906 577.226562 484.578125 577.34375 486.648438 C 578.480469 507.082031 579.660156 527.5 579.257812 548.007812 Z M 579.257812 548.007812 " fill-opacity="1" fill-rule="nonzero"/><path fill="#d7bb45" d="M 399.136719 200.589844 C 401.578125 205.78125 402.191406 210.894531 401.433594 216.597656 C 399.871094 228.3125 398.871094 240.101562 397.710938 251.867188 C 397.375 255.289062 397.125 258.703125 395.011719 261.597656 C 393.054688 264.277344 390.792969 266.367188 387.070312 265.140625 C 386.328125 264.894531 385.378906 264.253906 384.855469 264.5 C 379.097656 267.230469 375.082031 264.296875 371.234375 259.65625 C 369.648438 263.039062 370.054688 266.015625 369.410156 268.75 C 368.128906 274.179688 365.207031 276.207031 359.433594 275.789062 C 358.660156 275.734375 357.851562 275.527344 357.117188 275.671875 C 347.867188 277.511719 347.636719 274.492188 346.464844 266.746094 C 344.773438 255.609375 344.164062 244.3125 342.980469 233.09375 C 342.488281 228.410156 341.714844 223.757812 341.039062 219.09375 C 340.964844 218.585938 340.625 218.121094 340.53125 217.613281 C 339.5625 212.425781 340.976562 207.609375 343.808594 206.367188 C 346.917969 205.003906 351.199219 207.5625 354.25 212.582031 C 354.652344 213.242188 355.132812 213.855469 355.824219 214.839844 C 366.625 208.746094 369.660156 209.265625 376.824219 218.339844 C 377.699219 214.605469 378.324219 211.074219 379.363281 207.667969 C 381.734375 199.914062 387.503906 196.570312 395.472656 197.578125 C 397.71875 197.863281 398.238281 198.679688 399.136719 200.589844 Z M 559.921875 165.5 C 555.25 167.371094 549.148438 164.582031 545.121094 171.332031 C 542.011719 163.992188 537.160156 161.441406 530.878906 162.117188 C 526.152344 162.625 521.980469 167.40625 521.117188 173.117188 C 519.074219 186.691406 518.777344 200.375 521.722656 213.792969 C 525.15625 229.445312 527.632812 228.730469 538.457031 228.171875 C 545.515625 227.808594 548.570312 226.707031 551.121094 220.28125 C 556.144531 207.617188 560.738281 194.785156 565.753906 182.117188 C 567.996094 176.449219 564.835938 172.050781 563.03125 167.308594 C 562.605469 166.1875 561.382812 164.914062 559.921875 165.5 Z M 513.5625 222.300781 C 499.132812 222.992188 484.933594 225.265625 470.886719 228.546875 C 464.363281 230.074219 460.820312 233.769531 461.84375 240.0625 C 462.621094 244.839844 460.707031 245.417969 457.21875 245.828125 C 455.929688 245.980469 454.628906 246.300781 453.417969 246.769531 C 449.019531 248.476562 446.574219 251.878906 446.96875 255.566406 C 447.328125 258.953125 449.699219 260.769531 455.242188 261.015625 C 461.515625 261.296875 467.804688 261.117188 474.085938 261.128906 C 483.539062 261.148438 492.867188 262.695312 502.261719 263.394531 C 506.691406 263.726562 511.421875 263.039062 512.507812 258.382812 C 513.554688 253.867188 515.277344 251.9375 519.742188 250.972656 C 523.292969 250.207031 523.484375 246.683594 520.3125 244.59375 C 518.226562 243.21875 515.753906 242.425781 513.128906 241.222656 C 516.097656 239.878906 518.851562 238.933594 521.273438 237.445312 C 523.226562 236.246094 525.21875 234.613281 525.089844 231.882812 C 524.863281 227.191406 518.59375 222.058594 513.5625 222.300781 Z M 595.136719 248.546875 C 595.121094 245.554688 593.949219 243.085938 590.609375 243.394531 C 587.070312 243.726562 586.910156 246.828125 587.429688 249.402344 C 588.636719 255.363281 588.976562 261.359375 588.949219 267.398438 C 588.9375 269.359375 589.585938 270.902344 591.980469 272.386719 C 595.035156 264.535156 595.175781 256.550781 595.136719 248.546875 Z M 595.136719 248.546875 " fill-opacity="1" fill-rule="nonzero"/><path fill="#f4ebde" d="M 289.511719 102.378906 C 288.671875 109.644531 288.40625 117.210938 289.464844 124.40625 C 291.503906 138.308594 291.21875 152.128906 289.75 165.9375 C 285.441406 206.445312 283.027344 247.089844 280.5 287.726562 C 279.34375 306.367188 281.191406 324.976562 281.621094 343.601562 C 282.4375 379.070312 283.128906 414.519531 281.492188 450.011719 C 280.292969 475.992188 278.597656 501.9375 277.316406 527.910156 C 276.578125 542.855469 275.808594 557.835938 274.054688 572.683594 C 271.839844 591.410156 274.039062 609.914062 275.242188 628.496094 C 276.53125 648.40625 277.796875 668.320312 279.195312 688.222656 C 279.761719 696.308594 277.304688 704.238281 278.75 712.476562 C 279.410156 716.246094 277.875 720.683594 274.71875 724.035156 C 271.230469 727.734375 268.53125 732.015625 264.332031 735.25 C 261.34375 737.550781 258.757812 738.414062 255.90625 736.75 C 253.585938 735.398438 251.625 735.507812 249.230469 735.859375 C 241.804688 736.945312 234.003906 733.285156 230.722656 726.597656 C 228.742188 722.554688 226.03125 720.765625 221.734375 720.230469 C 213.859375 719.257812 207.433594 715.492188 202.355469 709.339844 C 196.316406 702.027344 190.636719 694.476562 186.125 686.113281 C 180.328125 675.359375 179.910156 663.464844 179.117188 651.695312 C 178.800781 646.984375 179.066406 642.234375 179.066406 637.503906 C 178.671875 630.140625 178.417969 622.769531 179.738281 615.472656 C 180.25 612.640625 180.371094 609.449219 181.804688 607.121094 C 185.941406 600.398438 185.425781 593.21875 185.257812 585.871094 C 184.4375 549.667969 183.96875 513.457031 183.007812 477.257812 C 182.480469 457.308594 181.09375 437.382812 180.347656 417.4375 C 179.542969 395.90625 179.863281 374.386719 181.347656 352.871094 C 182.285156 339.257812 182.621094 325.601562 183.347656 311.96875 C 183.90625 301.488281 184.578125 291.003906 187.242188 280.785156 C 187.992188 277.910156 187.796875 275.171875 187.140625 272.257812 C 180.800781 244.042969 175.75 215.570312 174.375 186.671875 C 173.304688 164.179688 171.730469 141.566406 175.753906 119.117188 C 177.304688 110.484375 179.773438 102.425781 186.386719 96.097656 C 189.316406 93.292969 190.390625 89.304688 190.960938 85.382812 C 191.691406 80.328125 193.976562 75.933594 196.410156 71.632812 C 199.195312 66.703125 203.167969 63.386719 209.316406 65.21875 C 214.1875 66.667969 217.921875 65.300781 221.15625 61.59375 C 226.832031 55.09375 234.71875 54.714844 242.222656 55.441406 C 250.300781 56.226562 257.667969 53.402344 265.40625 52.714844 C 269.046875 52.390625 272.671875 51.710938 276.253906 50.957031 C 282.074219 49.726562 286.210938 53.34375 290.617188 55.925781 C 292.449219 56.996094 292.625 59.410156 292.558594 61.628906 C 292.15625 75.257812 291.078125 88.820312 289.511719 102.378906 Z M 289.511719 102.378906 " fill-opacity="1" fill-rule="nonzero"/><g clip-path="url(#5c2cca3922)"><path fill="#272a29" d="M 624.171875 566.460938 C 623.613281 518.347656 623.921875 470.226562 623.515625 422.109375 C 623.097656 372.15625 623.21875 322.199219 622.308594 272.242188 C 621.257812 214.660156 622.832031 157.046875 621.570312 99.457031 C 621.394531 91.300781 621.605469 83.175781 622.664062 75.070312 C 623.761719 66.664062 622.34375 58.71875 616.226562 52.523438 C 611.734375 47.972656 607.667969 42.738281 600.574219 41.433594 C 590.828125 39.644531 581.105469 37.773438 571.183594 37.570312 C 557.789062 37.292969 544.394531 37.160156 531 37.082031 C 492.679688 36.847656 454.359375 36.644531 416.039062 36.496094 C 406.070312 36.457031 395.871094 38.027344 386.183594 36.414062 C 372.859375 34.199219 359.617188 33.53125 349.179688 33.5625 C 336.253906 33.777344 326.292969 33.574219 316.316406 34.796875 C 309.667969 35.613281 303.789062 38.710938 297.335938 39.847656 C 282.078125 42.535156 266.769531 44.953125 251.542969 47.785156 C 232.703125 51.292969 213.925781 55.132812 195.113281 58.773438 C 192.699219 59.242188 189.402344 59.886719 189.535156 62.238281 C 189.871094 68.164062 184.800781 69.9375 182.160156 73.519531 C 179.46875 77.167969 177.238281 80.835938 176.914062 85.582031 C 176.59375 90.261719 175.574219 94.886719 175.015625 99.554688 C 173.5625 111.792969 172.371094 124.015625 176.03125 136.140625 C 177.179688 139.9375 177.238281 143.933594 176.59375 147.847656 C 175.648438 153.582031 175.484375 159.367188 175.433594 165.140625 C 175.117188 203.003906 174.832031 240.867188 174.640625 278.730469 C 174.5625 294.4375 174.570312 310.148438 174.878906 325.851562 C 175.0625 335.273438 174.71875 344.667969 174.621094 354.066406 C 174.484375 367.636719 175.308594 381.203125 174.96875 394.824219 C 174.371094 418.652344 174.839844 442.503906 174.828125 466.347656 C 174.8125 496.136719 175.023438 525.929688 174.65625 555.71875 C 174.222656 591.453125 174.289062 627.191406 173.9375 662.925781 C 173.847656 671.851562 176.039062 679 182.460938 684.660156 C 187.082031 688.730469 189.039062 692.980469 187.570312 699.175781 C 186.507812 703.648438 188.164062 707.523438 193.078125 709.0625 C 195.414062 709.792969 197.179688 711.378906 199.078125 712.757812 C 206.925781 718.464844 215.25 723.539062 223.515625 728.484375 C 235.867188 735.871094 249.378906 741.28125 262.089844 748.101562 C 268.699219 751.648438 275.769531 754.300781 281.640625 759.480469 C 286.207031 763.511719 292.058594 766.445312 297.484375 769.105469 C 303.160156 771.894531 310.390625 770.5625 316.945312 770.566406 C 335.609375 770.582031 354.222656 769.492188 372.796875 767.640625 C 401.796875 764.742188 430.832031 762.15625 459.804688 759.019531 C 484.085938 756.390625 508.304688 753.171875 532.550781 750.195312 C 553.667969 747.605469 574.679688 744.261719 595.683594 740.890625 C 598.414062 740.453125 600.820312 739.992188 602.03125 737.121094 C 604.171875 732.058594 608.105469 729.480469 613.371094 727.902344 C 619.292969 726.125 623.605469 721.792969 623.59375 715.351562 C 623.582031 709.058594 624.710938 702.90625 624.703125 696.640625 C 624.636719 653.246094 624.675781 609.855469 624.171875 566.460938 Z M 614.007812 671.042969 C 614.085938 678.929688 614.0625 686.816406 614.238281 694.699219 C 614.460938 704.585938 609.84375 710.4375 600.042969 713.351562 C 587.183594 717.175781 573.875 718.160156 560.710938 720.0625 C 529.304688 724.609375 497.6875 727.292969 466.148438 730.640625 C 443.761719 733.019531 421.242188 734.167969 398.835938 736.375 C 381.839844 738.050781 364.8125 739.027344 347.789062 740.203125 C 332.300781 741.273438 316.875 739.625 301.421875 739.074219 C 301.160156 739.0625 300.902344 739 300.640625 738.964844 C 287.03125 737.152344 287.109375 737.152344 287.109375 723.542969 C 287.101562 642.535156 287.03125 561.527344 287.03125 480.523438 C 287.03125 427.132812 287.109375 373.742188 287.164062 320.355469 C 287.167969 318.535156 287.328125 316.714844 287.476562 313.585938 C 294.425781 317.496094 300.085938 321.285156 306.898438 322.636719 C 309.253906 323.105469 311.550781 323.480469 313.886719 323.308594 C 339.308594 321.4375 364.777344 320.949219 390.242188 320.144531 C 428.585938 318.933594 466.914062 317.167969 505.238281 315.488281 C 538.042969 314.050781 570.839844 312.390625 603.640625 310.84375 C 605.476562 310.757812 607.347656 310.984375 609.148438 310.71875 C 612.453125 310.238281 613.332031 311.925781 613.320312 314.769531 C 613.292969 321.34375 613.324219 327.914062 613.3125 334.488281 C 613.253906 379.980469 613.0625 425.46875 613.171875 470.960938 C 613.226562 494.308594 614.339844 517.664062 614.039062 541.003906 C 613.488281 584.351562 613.578125 627.695312 614.007812 671.042969 Z M 287.066406 302.339844 C 292.386719 302.925781 295.941406 306.15625 300.136719 307.554688 C 304.242188 308.921875 308.667969 309.324219 314.335938 310.421875 C 306.617188 315.207031 293.21875 310.902344 287.066406 302.339844 Z M 365.328125 313.035156 C 365.351562 312.507812 365.371094 311.980469 365.394531 311.453125 C 374.472656 309.449219 383.695312 309.449219 393.488281 309.863281 C 390.078125 316.382812 384.066406 311.359375 379.570312 313.703125 C 375.925781 315.601562 370.15625 313.410156 365.328125 313.035156 Z M 403.234375 311.90625 C 411.140625 310.140625 418.199219 310.109375 425.167969 309.898438 C 482.328125 308.15625 539.394531 304.113281 596.589844 303.339844 C 597.148438 303.332031 597.976562 304.09375 597.730469 306.082031 C 593.574219 307.347656 589.023438 307.0625 584.699219 306.601562 C 572.304688 305.273438 560.09375 307.054688 547.820312 307.933594 C 532.453125 309.03125 517.09375 310.214844 501.722656 311.261719 C 497.367188 311.558594 493.421875 309.476562 488.820312 309.558594 C 465.21875 309.972656 441.714844 312.871094 418.089844 312.273438 C 413.503906 312.160156 408.898438 314.164062 403.234375 311.90625 Z M 319.300781 41.460938 C 335.042969 40.945312 350.753906 42.050781 366.476562 42.433594 C 394.035156 43.101562 421.585938 44.050781 449.136719 44.882812 C 489.878906 45.269531 530.609375 46.320312 571.351562 46.199219 C 575.527344 46.1875 579.753906 46.746094 583.878906 45.410156 C 584.816406 45.109375 586.015625 45.019531 586.933594 45.320312 C 592.667969 47.207031 598.46875 48.96875 604.023438 51.300781 C 607.613281 52.808594 613.601562 64.683594 613.765625 69.136719 C 614.226562 81.492188 613.359375 93.8125 612.988281 106.148438 C 611.921875 141.90625 612.542969 177.667969 613.238281 213.429688 C 613.625 233.59375 613.550781 253.765625 613.59375 273.933594 C 613.601562 278.640625 613.164062 283.34375 613.066406 288.050781 C 613.007812 290.652344 611.84375 291.902344 609.269531 291.972656 C 604.019531 292.113281 598.769531 292.261719 593.523438 292.453125 C 558.890625 293.722656 524.265625 295.085938 489.632812 296.261719 C 460.773438 297.238281 431.90625 297.90625 403.050781 298.898438 C 382.835938 299.589844 362.628906 300.457031 342.433594 301.546875 C 336.46875 301.871094 330.558594 303.199219 324.628906 304.113281 C 321.996094 304.519531 319.425781 304.554688 316.859375 303.664062 C 309.175781 300.992188 301.4375 298.472656 293.785156 295.714844 C 287.34375 293.394531 287.246094 293.285156 287.226562 286.097656 C 287.179688 267.683594 287.316406 249.273438 287.289062 230.863281 C 287.246094 196.671875 287.285156 162.480469 286.980469 128.292969 C 286.855469 114.378906 285.332031 100.472656 287.414062 86.574219 C 287.71875 84.535156 287.285156 82.382812 287.183594 80.285156 C 286.769531 71.628906 289.089844 63.382812 293.023438 56.023438 C 298.433594 45.898438 308.027344 41.828125 319.300781 41.460938 Z M 278.332031 103.859375 C 277.605469 142.222656 276.6875 180.578125 276.964844 218.953125 C 277.132812 241.789062 277.242188 264.628906 277.320312 287.464844 C 277.429688 320.246094 277.460938 353.023438 277.578125 385.804688 C 277.675781 412.035156 277.941406 438.269531 277.972656 464.503906 C 278 488.324219 277.734375 512.148438 277.746094 535.96875 C 277.757812 558.265625 278.054688 580.5625 278.050781 602.855469 C 278.046875 620.707031 277.328125 638.566406 277.75 656.398438 C 278.3125 679.996094 277.617188 703.570312 277.695312 727.15625 C 277.699219 728.464844 277.910156 729.789062 277.777344 731.082031 C 277.492188 733.859375 276.078125 734.785156 273.496094 733.347656 C 267.992188 730.273438 262.398438 727.351562 257.007812 724.09375 C 240.847656 714.320312 224.78125 704.390625 208.640625 694.585938 C 201.679688 690.359375 194.894531 685.894531 188.261719 681.164062 C 185.34375 679.078125 184.433594 676.730469 184.507812 673.203125 C 185.585938 622.207031 184.632812 571.203125 184.871094 520.203125 C 185.089844 473.664062 185.25 427.121094 185.085938 380.585938 C 184.792969 297.761719 186.183594 214.933594 184.121094 132.125 C 183.734375 116.570312 183.757812 101.21875 185.976562 85.832031 C 187.429688 75.761719 193.640625 69.027344 202.648438 67.023438 C 230.316406 60.871094 258.023438 54.90625 285.542969 48.089844 C 285.964844 47.984375 286.503906 48.355469 287.488281 48.660156 C 278.71875 66.121094 278.691406 84.960938 278.332031 103.859375 Z M 609.042969 723.621094 C 601.035156 726.269531 592.796875 727.851562 584.492188 728.855469 C 575.378906 729.957031 566.1875 730.664062 557.015625 730.96875 C 546.988281 731.300781 537.242188 733.527344 527.339844 734.589844 C 507.523438 736.710938 487.667969 738.492188 467.824219 740.363281 C 435.402344 743.421875 402.976562 746.460938 370.546875 749.457031 C 350.671875 751.296875 330.773438 751.519531 310.824219 750.664062 C 302.972656 750.328125 294.035156 746.671875 283.25 739.011719 C 283.652344 738.832031 284.195312 738.390625 284.433594 738.519531 C 304.402344 749.117188 326.109375 747.789062 347.597656 747.636719 C 377.324219 747.425781 406.804688 743.648438 436.28125 740.433594 C 461.59375 737.667969 487.058594 736.558594 512.289062 733.101562 C 536.214844 729.824219 560.269531 727.554688 583.96875 722.566406 C 594.886719 720.269531 606.195312 719.785156 617.203125 712.78125 C 616.363281 719.722656 613.445312 722.164062 609.042969 723.621094 Z M 309.113281 511.722656 C 307.71875 504.1875 308.699219 496.53125 308.597656 488.929688 C 308.585938 487.910156 309.3125 486.917969 310.515625 486.777344 C 312.082031 486.59375 313.070312 487.605469 313.375 488.921875 C 314.199219 492.496094 314.78125 496.128906 315.527344 499.722656 C 315.988281 501.960938 315.527344 504.511719 318.589844 507.144531 C 319.316406 496.144531 317.570312 485.953125 318.585938 475.785156 C 319.601562 465.621094 319.3125 455.328125 319.683594 445.097656 C 320.066406 434.6875 319.667969 424.324219 318.933594 413.933594 C 318.214844 403.742188 317.96875 393.5 317.941406 383.28125 C 317.914062 372.882812 314.332031 362.9375 314.992188 352.394531 C 310.980469 355.632812 310.882812 359.765625 311.410156 363.785156 C 313.53125 380.035156 312.265625 396.324219 312.253906 412.597656 C 312.253906 415.492188 311.351562 418.117188 310.371094 421.167969 C 307.984375 419.582031 306.933594 417.644531 306.9375 415.136719 C 306.960938 405.96875 305.574219 396.867188 306.144531 387.652344 C 306.648438 379.53125 306.242188 371.359375 306.347656 363.210938 C 306.386719 360.066406 306.398438 356.894531 307.410156 353.839844 C 308.980469 349.078125 311.074219 347.292969 315.105469 347.386719 C 319.332031 347.480469 321.492188 349.011719 322.425781 354.085938 C 323.761719 361.300781 324.671875 368.613281 325.390625 375.921875 C 326.765625 389.816406 325.082031 403.734375 325.414062 417.648438 C 325.820312 434.421875 326.15625 451.199219 326.15625 467.972656 C 326.15625 481.902344 325.714844 495.835938 325.273438 509.761719 C 325.128906 514.246094 322.070312 517.242188 318.03125 517.671875 C 314.074219 518.085938 309.832031 515.605469 309.113281 511.722656 Z M 598.289062 352.625 C 598.125 346.496094 596.242188 344.28125 591.621094 343.609375 C 587.53125 343.011719 584.839844 344.652344 582.71875 349.6875 C 580.371094 355.257812 578.613281 360.953125 578.800781 367.199219 C 579.070312 376.109375 578.867188 385.035156 578.867188 392.414062 C 578.660156 404.722656 578.039062 415.503906 579.398438 426.234375 C 580.277344 433.164062 586.914062 436.390625 592.738281 432.683594 C 597.203125 429.839844 599.746094 425.730469 599.65625 420.25 C 599.59375 416.316406 599.574219 412.382812 599.492188 408.449219 C 599.113281 389.839844 598.796875 371.230469 598.289062 352.625 Z M 589.921875 366.472656 C 588.519531 379.480469 588.496094 392.503906 588.898438 405.5625 C 589.011719 409.261719 590.03125 413.261719 587.289062 417.519531 C 585.476562 415.390625 585.855469 413.765625 585.832031 412.242188 C 585.636719 398.382812 585.472656 384.523438 585.308594 370.660156 C 585.289062 369.089844 585.269531 367.515625 585.359375 365.949219 C 585.464844 364.105469 585.65625 361.847656 588.09375 362.085938 C 590.660156 362.339844 590.105469 364.800781 589.921875 366.472656 Z M 329.289062 571.726562 C 329.539062 575.777344 328.214844 578.960938 324.351562 580.6875 C 323.128906 581.234375 321.828125 581.273438 320.742188 580.160156 C 319.84375 579.242188 320.035156 578.328125 320.597656 577.355469 C 321.871094 575.15625 321.386719 572.796875 321.304688 570.4375 C 321.054688 563.117188 321.082031 555.78125 320.664062 548.472656 C 320.496094 545.511719 320.9375 542.152344 317.953125 539.605469 C 313.691406 543.222656 313.800781 548.148438 314.664062 552.625 C 316.164062 560.394531 314.371094 568.417969 316.835938 576.070312 C 317.097656 576.882812 316.6875 578.34375 316.058594 578.921875 C 314.917969 579.964844 313.621094 578.96875 312.488281 578.390625 C 310.28125 577.257812 310.007812 575.074219 309.957031 573 C 309.734375 564.089844 309.539062 555.171875 309.582031 546.261719 C 309.59375 544.242188 310.308594 542.085938 311.207031 540.242188 C 312.832031 536.914062 314.742188 533.605469 319.300781 533.984375 C 323.023438 534.296875 325.90625 537.304688 326.808594 541.957031 C 327.355469 544.78125 327.789062 547.648438 328 550.515625 C 328.511719 557.582031 328.851562 564.65625 329.289062 571.726562 Z M 308.320312 196.464844 C 308.320312 175.984375 307.890625 155.492188 308.472656 135.03125 C 308.867188 121.148438 308.585938 107.285156 308.890625 93.429688 C 309.050781 86.167969 308.996094 78.734375 310.777344 71.507812 C 312.121094 66.0625 314.839844 61.820312 319.914062 59.359375 C 327.117188 55.871094 332.253906 58.851562 332.851562 66.859375 C 333.40625 74.253906 331.988281 81.542969 330.964844 88.789062 C 329.492188 99.226562 328.929688 109.761719 328.730469 120.1875 C 327.769531 171.179688 326.171875 222.167969 327.117188 273.179688 C 327.183594 276.832031 327.605469 280.691406 324.761719 283.640625 C 323.15625 285.304688 321.292969 287.25 318.675781 285.335938 C 316.46875 283.726562 318.238281 282.132812 318.929688 280.539062 C 321.796875 273.96875 320.050781 266.996094 320.207031 260.285156 C 320.679688 239.839844 319.972656 219.378906 319.96875 198.917969 C 319.964844 179.300781 320.28125 159.6875 320.8125 140.097656 C 321.460938 116.039062 324.089844 92.085938 327.210938 68.207031 C 327.429688 66.550781 328.914062 64.453125 326.375 63.453125 C 324.457031 62.691406 322.859375 63.917969 321.476562 65.191406 C 318.582031 67.851562 317.652344 71.371094 317.222656 75.101562 C 315.785156 87.652344 315.070312 100.273438 315.699219 112.863281 C 316.179688 122.402344 314.382812 131.71875 314.25 141.144531 C 313.910156 164.804688 313.898438 188.472656 313.90625 212.136719 C 313.90625 228.960938 314.085938 245.789062 314.324219 262.609375 C 314.394531 267.589844 314.976562 272.554688 315.253906 277.53125 C 315.339844 279.078125 315.46875 281.050781 313.433594 281.277344 C 311.515625 281.488281 310.761719 279.457031 310.484375 278.085938 C 309.605469 273.742188 308.582031 269.324219 308.546875 264.929688 C 308.359375 242.109375 308.457031 219.285156 308.457031 196.464844 C 308.414062 196.464844 308.367188 196.464844 308.320312 196.464844 Z M 409.660156 130.539062 C 413.242188 132.957031 417.289062 134.042969 421.507812 134.425781 C 429.867188 135.183594 438.25 135.675781 446.601562 136.507812 C 452.472656 137.089844 458.820312 137.175781 460.417969 144.957031 C 460.5625 145.660156 461.234375 146.289062 461.75 146.878906 C 463.847656 149.265625 466.957031 149.304688 469.679688 149.808594 C 471.90625 150.222656 472.027344 147.429688 473.058594 146.03125 C 476.417969 141.480469 481.042969 139.433594 486.605469 139.285156 C 496.109375 139.03125 505.242188 136.40625 514.535156 134.828125 C 520.3125 133.847656 524.441406 130.128906 528.082031 125.9375 C 530.773438 122.84375 529.640625 120.011719 525.621094 119.011719 C 524.621094 118.761719 523.542969 118.738281 522.5 118.738281 C 504.929688 118.722656 487.359375 118.726562 469.792969 118.726562 C 452.765625 118.847656 435.738281 119.328125 418.703125 118.710938 C 416.359375 118.625 413.976562 118.890625 411.652344 119.261719 C 408.167969 119.816406 407.253906 122.925781 406.515625 125.589844 C 405.902344 127.8125 407.871094 129.332031 409.660156 130.539062 Z M 483.910156 132.289062 C 486.542969 132.5625 489.171875 132.832031 492.347656 133.160156 C 487.632812 135.214844 487.632812 135.148438 483.910156 132.289062 Z M 481.777344 127.105469 C 484.414062 124.429688 486.789062 127.378906 487.664062 127.265625 C 486.765625 126.972656 484.402344 130.742188 481.777344 127.773438 C 481.660156 127.644531 481.664062 127.222656 481.777344 127.105469 Z M 464.9375 132.492188 C 465.757812 130.335938 466.21875 127.363281 469.414062 127.019531 C 471.636719 128 473.945312 128.8125 474.308594 131.445312 C 474.523438 132.996094 469.378906 138.261719 468.386719 137.683594 C 466.457031 136.550781 463.882812 135.269531 464.9375 132.492188 Z M 431.683594 128.59375 C 435.074219 128.59375 438.519531 128.953125 441.839844 128.476562 C 444.367188 128.113281 448.589844 130.84375 449.03125 125.398438 C 452.679688 124.378906 456.179688 125.175781 459.710938 126.09375 C 457.328125 133.332031 457.339844 133.269531 450.96875 131.832031 C 447.660156 131.085938 444.496094 129.667969 441.015625 129.699219 C 437.898438 129.726562 434.777344 129.703125 431.65625 129.703125 C 431.664062 129.332031 431.675781 128.960938 431.683594 128.59375 Z M 343.167969 268.90625 C 344.613281 276.863281 344.730469 277.527344 352.417969 279.148438 C 354.699219 279.628906 357.144531 279.890625 359.445312 279.632812 C 373.234375 278.078125 386.679688 274.167969 400.613281 273.53125 C 402.238281 273.457031 404.0625 272.984375 404.109375 271.097656 C 404.167969 268.90625 402.320312 268.035156 400.386719 267.769531 C 399.097656 267.589844 397.769531 267.710938 396.457031 267.683594 C 386.09375 267.449219 376.199219 270.25 366.238281 272.5 C 361.824219 273.492188 357.429688 274.011719 352.960938 273.636719 C 347.136719 273.152344 346.226562 272.285156 345.875 266.53125 C 345.621094 262.34375 345.367188 258.101562 345.761719 253.941406 C 347.207031 238.777344 346.929688 223.59375 346.644531 208.40625 C 346.558594 203.726562 344.238281 198.046875 346.160156 194.644531 C 348.410156 190.660156 355.292969 192.519531 359.738281 190.324219 C 360.363281 190.015625 361.269531 190.28125 362.183594 190.28125 C 363.949219 194.308594 361.640625 199.089844 364.058594 202.535156 C 365.964844 205.253906 364.605469 205.980469 362.949219 207.351562 C 361.222656 208.78125 359.285156 208.972656 357.140625 209.222656 C 351.347656 209.90625 350.914062 210.992188 351.230469 216.988281 C 351.488281 221.792969 355.625 219.71875 357.769531 220.898438 C 359.75 221.988281 361.671875 220.101562 361.671875 217.460938 C 361.671875 209.933594 367.066406 206.738281 372.859375 204.632812 C 376.691406 203.238281 378.480469 201.394531 378.636719 197.429688 C 378.746094 194.65625 377.730469 191.65625 379.367188 189.582031 C 387.425781 190.09375 395.023438 190.007812 402.597656 189.347656 C 406.25 189.03125 407.957031 190.019531 407.730469 194.027344 C 406.566406 214.722656 406.527344 235.488281 403.878906 256.09375 C 403.613281 258.167969 403.398438 260.253906 403.324219 262.34375 C 403.277344 263.667969 403.570312 265.125 405.152344 265.402344 C 407.367188 265.789062 407.472656 263.8125 408.019531 262.4375 C 408.207031 261.964844 408.183594 261.410156 408.277344 260.894531 C 412.199219 239.097656 412.339844 217.003906 413.222656 194.984375 C 413.589844 185.726562 411.808594 184.332031 402.785156 184.890625 C 397.027344 185.25 391.292969 186.003906 385.535156 186.34375 C 379.988281 186.667969 379.550781 186.214844 378.679688 180.621094 C 378.433594 179.054688 378.488281 177.480469 376.914062 176.496094 C 374.03125 174.691406 364.277344 177.570312 364.074219 180.953125 C 363.699219 187.113281 359.605469 187.535156 355.324219 188.5625 C 352.511719 189.238281 349.785156 190.042969 346.828125 189.957031 C 344.382812 189.886719 342.765625 191.140625 343.113281 193.832031 C 344.125 201.667969 342.84375 209.472656 342.613281 217.273438 C 342.394531 224.632812 343.660156 232.015625 342.691406 239.265625 C 341.359375 249.230469 341.363281 259.003906 343.167969 268.90625 Z M 367.769531 182.171875 C 367.847656 180.574219 369.238281 180.25 370.617188 180.21875 C 372.476562 180.179688 373.582031 180.964844 373.496094 182.949219 C 373.394531 185.289062 373.246094 187.625 373.117188 189.964844 C 373.019531 189.964844 372.921875 189.960938 372.820312 189.960938 C 372.820312 192.5625 372.882812 195.167969 372.796875 197.769531 C 372.753906 199.054688 372.550781 200.425781 370.835938 200.621094 C 369.277344 200.800781 368.402344 199.976562 368.136719 198.53125 C 367.136719 193.101562 367.503906 187.628906 367.769531 182.171875 Z M 526.582031 253.832031 C 526.613281 253.820312 526.640625 253.804688 526.667969 253.792969 C 526.667969 253.828125 526.667969 253.867188 526.667969 253.902344 C 526.667969 253.902344 526.539062 253.796875 526.582031 253.832031 Z M 516.039062 162.199219 C 516.226562 172.960938 514.3125 183.703125 515.949219 194.480469 C 516.457031 197.835938 516.347656 201.285156 516.550781 204.691406 C 516.617188 205.800781 516.457031 206.726562 515.332031 207.269531 C 512.355469 208.707031 504.0625 206.820312 501.914062 204.203125 C 496.015625 197.023438 488.894531 196.839844 482.789062 204.175781 C 480.863281 206.488281 479.019531 207.433594 476.199219 207.367188 C 471.476562 207.261719 466.746094 207.273438 462.019531 207.378906 C 460.480469 207.414062 458.550781 206.847656 456.914062 209.335938 C 463.976562 210.785156 470.414062 211.269531 476.882812 211.40625 C 479.265625 211.453125 481.222656 211.683594 483.347656 213.351562 C 491.882812 220.039062 494.832031 219.785156 502.675781 211.976562 C 505.910156 208.761719 509.613281 210.890625 513.066406 210.414062 C 516.351562 209.957031 516.492188 212.316406 516.972656 214.816406 C 517.429688 217.207031 520.183594 217.183594 522.089844 217.898438 C 524.503906 218.804688 527.371094 217.644531 529.765625 219.527344 C 529.265625 230.96875 526.476562 242.253906 526.667969 253.792969 C 530.265625 252.300781 532.070312 249.976562 532.117188 245.699219 C 532.203125 238.101562 533.117188 230.515625 533.554688 222.917969 C 533.71875 220.066406 534.644531 218.78125 537.824219 218.824219 C 545.167969 218.917969 552.527344 218.738281 559.863281 218.390625 C 568.164062 218 570.808594 214.894531 569.28125 206.910156 C 568.273438 201.644531 568.347656 196.441406 568.84375 191.21875 C 569.921875 179.875 567.695312 168.753906 566.914062 157.535156 C 566.644531 153.699219 564.957031 152.320312 560.882812 152.164062 C 547.980469 151.660156 535.304688 153.683594 522.558594 154.921875 C 516.683594 155.492188 515.933594 156.066406 516.039062 162.199219 Z M 492.054688 213.753906 C 488.484375 213.582031 485.875 211.046875 486.035156 207.902344 C 486.191406 204.765625 488.914062 202.488281 492.5 202.496094 C 496.308594 202.503906 498.941406 204.699219 498.898438 207.828125 C 498.847656 211.355469 495.863281 213.9375 492.054688 213.753906 Z M 556.863281 155.855469 C 562.011719 155.480469 562.972656 156.386719 563.199219 162.316406 C 563.488281 169.914062 563.269531 177.527344 563.269531 185.132812 C 563.335938 185.132812 563.398438 185.132812 563.464844 185.132812 C 563.464844 192.480469 563.652344 199.832031 563.40625 207.167969 C 563.203125 213.332031 562.980469 213.421875 557.171875 213.574219 C 547.203125 213.835938 537.234375 214.046875 527.265625 214.109375 C 521.945312 214.144531 519.929688 212.578125 520.4375 207.820312 C 522.066406 192.546875 518.40625 177.445312 519.394531 162.207031 C 519.71875 157.230469 519.722656 156.785156 524.613281 156.714844 C 535.367188 156.554688 546.121094 156.640625 556.863281 155.855469 Z M 526.550781 253.84375 C 526.5625 253.839844 526.574219 253.835938 526.582031 253.832031 C 526.539062 253.796875 526.667969 253.902344 526.628906 253.875 C 526.605469 253.859375 526.578125 253.855469 526.550781 253.84375 Z M 511.089844 252.230469 C 499.96875 250.726562 488.820312 249.054688 477.507812 250.195312 C 472.566406 250.695312 467.597656 251.082031 462.632812 251.214844 C 454.894531 251.421875 454.03125 250.191406 455.683594 241.9375 C 459.414062 243.144531 463.15625 244.253906 466.824219 245.566406 C 470.875 247.015625 474.132812 245.121094 476.882812 242.800781 C 479.652344 240.460938 475.460938 238.285156 475.921875 235.425781 C 478.472656 235.492188 481.925781 234.605469 482.804688 237.503906 C 484.566406 243.320312 489.4375 243.308594 493.726562 244.652344 C 493.707031 244.613281 493.683594 244.582031 493.664062 244.542969 C 496.289062 245.210938 498.875 245.058594 501.359375 244.242188 C 503.816406 243.4375 506.578125 242.796875 507.203125 239.644531 C 507.867188 236.304688 506 233.261719 503.503906 232.535156 C 497.65625 230.828125 495.058594 225.882812 491.226562 222.15625 C 489.117188 220.105469 486.589844 218.714844 484.023438 217.402344 C 476.898438 213.742188 469.578125 214.929688 463.824219 220.628906 C 462.894531 221.550781 462.125 222.632812 461.273438 223.632812 C 460.15625 224.941406 458.742188 225.648438 457.105469 224.941406 C 455.648438 224.304688 455.945312 222.757812 455.910156 221.496094 C 455.835938 218.867188 455.9375 216.230469 455.757812 213.613281 C 455.667969 212.261719 455.921875 210.359375 453.542969 210.480469 C 451.289062 221.417969 451.238281 232.445312 451.617188 243.4375 C 451.921875 252.222656 454.746094 254.511719 463.398438 254.464844 C 464.449219 254.460938 465.511719 254.515625 466.546875 254.375 C 479.40625 252.628906 492.226562 253.503906 504.976562 255.316406 C 512.351562 256.363281 519.53125 256.53125 526.550781 253.84375 C 521.574219 251.480469 516.226562 252.925781 511.089844 252.230469 Z M 473.527344 232.652344 C 478.304688 228.839844 479.894531 229 484.632812 233.9375 C 480.550781 233.027344 477.167969 231.605469 473.527344 232.652344 Z M 500.996094 233.605469 C 504.570312 235.800781 504.628906 238.769531 501.144531 240.839844 C 500.265625 241.359375 499.277344 242.085938 498.445312 241.035156 C 496.445312 238.503906 495.058594 237.835938 494.714844 241.933594 C 494.636719 242.855469 493.164062 243.164062 493.527344 244.320312 C 492.1875 242.015625 489.765625 241.25 487.519531 240.167969 C 486.089844 239.476562 486.007812 237.828125 486.652344 236.753906 C 488.628906 233.464844 497.707031 231.589844 500.996094 233.605469 Z M 490.921875 227.410156 C 484.761719 223.601562 479.714844 220.609375 473.519531 221.183594 C 480.96875 218.570312 484.882812 219.835938 490.921875 227.410156 Z M 468.183594 222.855469 C 469.175781 224.742188 467.527344 225.195312 466.835938 225.96875 C 466.328125 226.535156 465.4375 226.761719 464.042969 227.496094 C 465.230469 224.726562 466.460938 223.636719 468.183594 222.855469 Z M 456.816406 227.628906 C 462.851562 231.761719 468.871094 234.699219 473.972656 239.714844 C 472.253906 242.214844 469.886719 242.683594 467.25 242.199219 C 465.734375 241.921875 464.292969 241.246094 462.8125 240.773438 C 453.816406 237.910156 453.753906 237.78125 456.816406 227.628906 Z M 584.488281 274.554688 C 594.703125 272.414062 600.257812 265.625 600 253.230469 C 599.796875 243.613281 598.425781 234.019531 597.507812 224.421875 C 597.3125 222.347656 596.90625 220.285156 596.488281 218.238281 C 595.953125 215.609375 594.699219 213.3125 592.785156 211.441406 C 591.667969 210.351562 591.039062 210.542969 588.320312 212.304688 C 588.316406 212.335938 588.316406 212.363281 588.3125 212.394531 C 585.613281 215.539062 584.636719 219.238281 583.78125 223.378906 C 581.066406 236.503906 581.804688 250.75 571.933594 261.765625 C 569.972656 263.957031 569.574219 267.433594 571.933594 269.726562 C 575.316406 273.007812 579.074219 275.691406 584.488281 274.554688 Z M 579.207031 263.78125 C 588.636719 251.773438 587.222656 237.652344 587.003906 223.785156 C 586.945312 219.929688 586.054688 216.027344 588.3125 212.441406 C 588.113281 214.570312 589.058594 216.390625 589.765625 218.332031 C 591.488281 223.050781 592.425781 227.914062 591.746094 233.003906 C 591.191406 237.1875 591.210938 241.492188 592.238281 245.503906 C 593.550781 250.632812 592.296875 255.382812 591.328125 260.210938 C 590.390625 264.902344 586.875 267.09375 582.566406 268.253906 C 581.21875 268.617188 579.953125 268.371094 578.972656 267.308594 C 577.839844 266.078125 578.394531 264.820312 579.207031 263.78125 Z M 392.664062 243.238281 C 394.109375 243.523438 396.222656 243.167969 395.835938 245.515625 C 395.558594 247.175781 393.878906 248.386719 392.292969 247.925781 C 388.65625 246.882812 385.015625 248.109375 381.625 247.695312 C 377.316406 247.167969 373.808594 246.417969 370.136719 249.742188 C 368.40625 251.308594 366.003906 249.554688 365.484375 247.195312 C 364.941406 244.734375 364.214844 242.085938 366.382812 239.203125 C 368.785156 240.542969 367.457031 242.890625 368.625 244.292969 C 376.613281 243.273438 384.566406 241.652344 392.664062 243.238281 Z M 400.507812 229.953125 C 388.707031 232.195312 377.125 230.640625 364.96875 230.714844 C 365.945312 226.636719 368.148438 225.71875 370.527344 226.40625 C 376.074219 228.007812 381.554688 224.503906 387.304688 226.804688 C 389.355469 227.625 392.835938 226.210938 395.6875 226.664062 C 397.394531 226.9375 399.355469 226.886719 400.507812 229.953125 Z M 367.085938 219.398438 C 364.726562 224.074219 360.234375 226.800781 361.085938 232.785156 C 361.488281 235.617188 357.203125 236.417969 353.589844 234.304688 C 350.449219 232.46875 349.855469 225.972656 353.011719 225.257812 C 358.070312 224.117188 362.175781 221.210938 367.085938 219.398438 Z M 368.230469 214.796875 C 367.933594 213.878906 368.5625 213.277344 369.175781 212.828125 C 369.785156 212.382812 370.570312 211.8125 371.238281 211.855469 C 378.9375 212.359375 386.523438 211.292969 394.136719 210.503906 C 396.085938 210.300781 397.71875 211.117188 398.546875 214.339844 C 393.753906 214.84375 389.535156 215.402344 385.066406 215.332031 C 380.074219 215.253906 375.03125 216.253906 369.949219 215.851562 C 369.058594 215.777344 368.496094 215.605469 368.230469 214.796875 Z M 356.984375 238.777344 C 352.953125 238.5 351.628906 239.585938 351.421875 243.328125 C 351.152344 248.152344 353.664062 251.796875 357.402344 251.796875 C 361.449219 251.796875 361.78125 248.945312 361.679688 246.136719 C 361.890625 240.214844 361.125 239.0625 356.984375 238.777344 Z M 356.347656 247.546875 C 355.769531 247.328125 355.351562 247.273438 355.328125 247.148438 C 355.054688 245.570312 353.460938 244.015625 355.09375 242.40625 C 355.339844 242.160156 356.253906 242.148438 356.457031 242.382812 C 358.023438 244.171875 357.226562 245.832031 356.347656 247.546875 Z M 523.171875 234.894531 C 520.558594 236.171875 517.527344 234.714844 514.925781 236.1875 C 512.148438 237.761719 511.863281 234.914062 511.355469 233.6875 C 510.410156 231.40625 511.992188 230.753906 514.136719 230.402344 C 520.089844 229.433594 521.421875 229.992188 523.171875 234.894531 Z M 522.296875 225.359375 C 517.242188 227.230469 512.132812 228.882812 506.828125 225.039062 C 511.277344 222.664062 511.277344 222.664062 522.296875 225.359375 Z M 501.121094 224.394531 C 500.320312 223.964844 500.378906 223.195312 500.507812 222.511719 C 500.679688 221.625 500.648438 220.371094 502.125 220.722656 C 502.382812 220.785156 502.695312 221.589844 502.597656 221.949219 C 502.351562 222.878906 502.265625 223.984375 501.121094 224.394531 Z M 274.457031 82.042969 C 274.632812 85.289062 271.628906 86.1875 269.113281 86.894531 C 261.492188 89.042969 253.5625 89.492188 245.769531 90.109375 C 232.132812 91.191406 218.742188 93.488281 205.339844 95.984375 C 201.214844 96.753906 196.851562 98.660156 191.230469 95.726562 C 216.40625 88.050781 241.433594 87.25 265.941406 82.789062 C 261.183594 80.53125 256.226562 82.011719 251.378906 82.289062 C 246.152344 82.589844 240.933594 83.136719 235.722656 83.6875 C 230.511719 84.234375 225.328125 85.179688 220.105469 85.476562 C 214.84375 85.773438 209.699219 86.667969 204.503906 87.394531 C 199.488281 88.097656 194.757812 90.605469 188.066406 90.160156 C 195.25 85.320312 202.234375 84.152344 209.0625 82.957031 C 227.683594 79.695312 246.472656 78.027344 265.394531 78.085938 C 266.445312 78.085938 267.507812 77.988281 268.539062 78.132812 C 271.128906 78.496094 274.277344 78.667969 274.457031 82.042969 Z M 526.910156 193.148438 C 528.277344 195.953125 529.554688 197.519531 532.410156 197.550781 C 539.214844 197.628906 546.019531 197.492188 552.824219 197.507812 C 556.214844 197.515625 557.398438 195.695312 557.355469 192.5625 C 557.296875 188.375 557.34375 184.183594 557.339844 179.992188 C 557.339844 176.589844 557.4375 173.179688 557.316406 169.78125 C 557.105469 163.667969 555.566406 161.992188 549.53125 161.132812 C 543.261719 160.242188 536.972656 160.890625 530.71875 161.199219 C 525.277344 161.464844 523.769531 163.066406 523.9375 168.691406 C 524.179688 176.890625 523.039062 185.203125 526.910156 193.148438 Z M 541.847656 187.097656 C 540.796875 187.28125 539.792969 186.929688 539.789062 185.503906 C 539.785156 183.878906 540.800781 183.125 542.203125 183.070312 C 543.238281 183.03125 544.203125 183.558594 544.339844 184.5625 C 544.523438 186.683594 543.050781 186.890625 541.847656 187.097656 Z M 549.769531 187.238281 C 548.253906 187.28125 547.441406 186.339844 547.289062 184.882812 C 547.207031 184.085938 547.5625 183.085938 548.3125 183.148438 C 549.824219 183.277344 551.40625 183.65625 551.917969 185.433594 C 551.703125 186.695312 550.828125 187.210938 549.769531 187.238281 Z M 536.226562 165.15625 C 539.5625 164.414062 542.964844 164.769531 546.3125 165.070312 C 548.425781 165.257812 551.542969 164.160156 552.21875 167.332031 C 552.867188 170.378906 552.734375 173.589844 548.851562 174.882812 C 548.4375 175.019531 548.109375 175.414062 547.753906 175.730469 C 547.195312 177.027344 546.636719 178.320312 546.082031 179.613281 C 546.082031 179.613281 546.082031 179.613281 546.078125 179.613281 C 546.015625 179.15625 546.003906 178.679688 545.875 178.238281 C 545.585938 177.238281 543.207031 177.121094 544.453125 175.609375 C 545.160156 174.746094 546.457031 175.042969 547.550781 175.460938 C 546.707031 171.0625 542.910156 172.246094 540.5 172.816406 C 537.792969 173.460938 538.371094 176.355469 539.089844 178.625 C 536.292969 174.542969 534.992188 170.140625 536.226562 165.15625 Z M 534.113281 181.386719 C 536.199219 182.386719 535.585938 183.902344 534.753906 185.148438 C 533.410156 187.164062 531.558594 186.421875 530.183594 185.234375 C 528.125 183.457031 529.296875 181.089844 529.082031 178.507812 C 531.089844 179.667969 532.546875 180.636719 534.113281 181.386719 Z M 527.882812 166.496094 C 528.210938 165.9375 529.074219 165.695312 529.707031 165.316406 C 529.84375 165.753906 530.179688 166.246094 530.078125 166.617188 C 529.792969 167.660156 529.039062 168.34375 527.816406 168.636719 C 527.816406 167.882812 527.570312 167.023438 527.882812 166.496094 Z M 547.828125 175.566406 C 547.800781 175.621094 547.777344 175.675781 547.753906 175.730469 C 547.710938 175.769531 547.671875 175.8125 547.628906 175.847656 Z M 557.902344 204.824219 C 547.570312 209.011719 537.144531 202.976562 527.039062 206.523438 C 528.097656 203.09375 530.667969 202.863281 533.089844 202.496094 C 541.898438 201.160156 552.660156 202.128906 557.902344 204.824219 Z M 547.394531 209.863281 C 547.679688 210.710938 546.84375 211.429688 546.160156 211.503906 C 542.210938 211.929688 538.199219 212.59375 534.558594 210.488281 C 534.535156 209.824219 534.507812 209.15625 534.484375 208.492188 C 538.285156 208.492188 542.09375 208.4375 545.894531 208.550781 C 546.425781 208.566406 547.207031 209.300781 547.394531 209.863281 Z M 458.339844 236.648438 C 458.035156 236.136719 458.375 235.457031 458.953125 235.558594 C 460.175781 235.769531 461.390625 236.203125 461.992188 237.488281 C 462.148438 238.066406 461.914062 238.484375 461.269531 238.570312 C 459.769531 238.765625 458.996094 237.738281 458.339844 236.648438 Z M 547.628906 175.847656 C 547.609375 175.707031 547.578125 175.589844 547.550781 175.460938 C 547.644531 175.492188 547.738281 175.527344 547.828125 175.566406 C 547.828125 175.566406 547.628906 175.847656 547.628906 175.847656 Z M 547.628906 175.847656 " fill-opacity="1" fill-rule="nonzero"/></g></svg>