<?xml version="1.0" encoding="UTF-8"?>
<svg version="1.1" xmlns="http://www.w3.org/2000/svg" width="512" height="512">
<path d="M0 0 C3.93168116 -1.68363962 7.02602562 -4.32638262 10.3125 -7 C29.20303406 -22.01954323 49.95863326 -33.64414445 73 -41 C73.96897217 -41.3105835 73.96897217 -41.3105835 74.95751953 -41.62744141 C113.07574052 -53.51247642 153.16103731 -49.54628473 188.4375 -31.3125 C195.93157457 -27.30905136 202.51821724 -22.46887657 209 -17 C210.51207031 -15.73542969 210.51207031 -15.73542969 212.0546875 -14.4453125 C238.288786 8.51804125 253.32857431 41.55298545 257 76 C257.3074983 81.13935987 257.33030852 86.28065976 257.31567383 91.42773438 C257.31252247 93.7335588 257.33604239 96.03808362 257.36132812 98.34375 C257.4060593 108.85963594 256.18810038 118.722414 254 129 C253.72579224 130.30300049 253.72579224 130.30300049 253.44604492 131.63232422 C243.19482101 176.8292475 213.61616015 215.45806345 183 249 C182.18273437 249.91007812 181.36546875 250.82015625 180.5234375 251.7578125 C171.21723539 262.05228386 161.6233241 272.31229135 151.0078125 281.2734375 C148.87019614 283.11162121 146.80302621 285.0182577 144.73730469 286.93652344 C139.58110826 291.72233147 134.31272392 296.28803419 128.828125 300.69921875 C126.32170018 302.73828535 123.86383482 304.82404151 121.41650391 306.93334961 C114.19986035 313.13834496 106.6725833 318.85091007 99.01757812 324.50146484 C97.07880447 325.9414688 95.15426864 327.39823152 93.234375 328.86328125 C77.13717587 341.12483593 60.48737579 352.68325223 43.38183594 363.49414062 C41.63036419 364.60146717 39.88137303 365.71271974 38.13378906 366.82617188 C34.98935414 368.82852898 31.8392262 370.82164222 28.6875 372.8125 C27.70918213 373.43519775 26.73086426 374.05789551 25.72290039 374.69946289 C5.70495703 387.26863393 5.70495703 387.26863393 -0.796875 386.62109375 C-14.59881867 382.73012027 -27.18544182 372.76054312 -39 365 C-39.54708618 364.64065369 -40.09417236 364.28130737 -40.65783691 363.91107178 C-62.34396119 349.6549581 -83.45670962 334.86939786 -104 319 C-104.68255859 318.47486816 -105.36511719 317.94973633 -106.06835938 317.40869141 C-114.34309421 311.03543061 -122.33352014 304.3854554 -130.21923828 297.53808594 C-132.05252387 295.95463389 -133.89739794 294.38573654 -135.74609375 292.8203125 C-146.54013192 283.66903008 -146.54013192 283.66903008 -151.31835938 278.68066406 C-153.02226145 276.97775148 -154.795516 275.4214585 -156.62890625 273.859375 C-161.3083266 269.79005765 -165.69013828 265.45711293 -170.0625 261.0625 C-171.2081543 259.92264648 -171.2081543 259.92264648 -172.37695312 258.75976562 C-176.58223788 254.5472862 -180.61813443 250.24717122 -184.50073242 245.7355957 C-186.32225987 243.62694261 -188.22334822 241.59888419 -190.125 239.5625 C-195.97177466 233.0793417 -201.17429408 226.11401231 -206.40087891 219.12988281 C-207.87372647 217.16818477 -209.36212621 215.219546 -210.85546875 213.2734375 C-233.93088917 182.90256746 -254.95611377 143.03840281 -255.203125 104.07421875 C-255.21018463 103.33355667 -255.21724426 102.59289459 -255.22451782 101.82978821 C-255.45183225 70.98023216 -255.45183225 70.98023216 -252 58 C-251.79068848 57.19224121 -251.58137695 56.38448242 -251.36572266 55.55224609 C-248.54456481 44.90851467 -245.1366296 34.77386465 -240 25 C-239.67128906 24.36610352 -239.34257812 23.73220703 -239.00390625 23.07910156 C-234.19619447 13.88193131 -228.93350165 5.78052628 -222 -2 C-221.29230469 -2.83917969 -220.58460938 -3.67835937 -219.85546875 -4.54296875 C-160.80928068 -73.16421434 -61.47697997 -51.65901451 0 0 Z M-186 9 C-186.80695313 9.65226562 -187.61390625 10.30453125 -188.4453125 10.9765625 C-203.92809132 23.93550277 -213.81933037 42.67885531 -219 62 C-219.29777344 63.05703125 -219.59554687 64.1140625 -219.90234375 65.203125 C-224.54622757 84.97708191 -224.05759679 108.60832791 -218 128 C-217.73687012 128.85287598 -217.47374023 129.70575195 -217.20263672 130.58447266 C-205.30161834 168.05213832 -181.26746702 199.37466586 -155 228 C-154.26837646 228.80727539 -154.26837646 228.80727539 -153.52197266 229.63085938 C-144.15755819 239.95491864 -134.25371514 249.56438653 -124 259 C-122.95416203 259.97106878 -121.90856157 260.94239347 -120.86328125 261.9140625 C-115.67758928 266.69288848 -110.35273126 271.23833901 -104.86328125 275.6640625 C-102.34645702 277.71735157 -99.87536321 279.81469814 -97.41503906 281.93505859 C-90.22814786 288.11245655 -82.74658319 293.81748025 -75.11572266 299.43310547 C-73.03744609 300.9722676 -70.97629828 302.53195195 -68.91796875 304.09765625 C-54.05233986 315.33022069 -38.49372578 325.54984869 -22.9095459 335.74786377 C-21.11663403 336.9235202 -19.32765662 338.10488852 -17.54003906 339.28857422 C-14.62266467 341.21288628 -11.69080326 343.11175902 -8.75 345 C-7.91807129 345.55179932 -7.08614258 346.10359863 -6.22900391 346.67211914 C-2.16459329 349.39653362 -2.16459329 349.39653362 2.5 349.62890625 C3.325 349.09136719 4.15 348.55382812 5 348 C6.32711453 347.25730609 7.6553744 346.51665736 8.984375 345.77734375 C10.57672125 344.83714313 12.16500111 343.89003467 13.75 342.9375 C14.61471924 342.41800781 15.47943848 341.89851563 16.37036133 341.36328125 C27.87752315 334.3565308 38.93574757 326.67947089 50 319 C50.82193848 318.43216797 51.64387695 317.86433594 52.49072266 317.27929688 C66.75198171 307.41528482 80.54908176 296.94311992 94 286 C95.26457031 284.9790625 95.26457031 284.9790625 96.5546875 283.9375 C107.81613151 274.79777733 118.79224994 265.35738569 129.40771484 255.47460938 C131.1024816 253.90509217 132.81030825 252.35062971 134.51953125 250.796875 C144.1702954 241.97554317 153.20426464 232.67142203 162 223 C162.56960449 222.37512695 163.13920898 221.75025391 163.72607422 221.10644531 C188.20109218 194.06696272 209.11307252 163.01983455 220 128 C220.24008789 127.23316895 220.48017578 126.46633789 220.72753906 125.67626953 C229.25482711 96.99992752 224.95337942 63.63315007 211.3125 37.3125 C198.80152906 14.30786864 177.85760877 -2.85242887 152.86230469 -10.66845703 C120.10628307 -20.05812006 86.36777769 -14.34720101 56.79492188 1.98828125 C41.92083061 10.37215424 29.20302058 20.42568667 16.78125 32.08203125 C11.38196894 37.01406683 6.66032506 40.33379519 -0.9375 40.125 C-6.9025385 39.2792781 -9.90529045 36.17300227 -14 32 C-44.23968547 3.7449571 -81.62845211 -16.38469779 -123.88671875 -15.28515625 C-146.81463303 -14.25724938 -168.72419299 -6.18176979 -186 9 Z " fill="#F3811A" transform="translate(255,87)"/>
</svg>
