<svg xmlns="http://www.w3.org/2000/svg" xmlns:xlink="http://www.w3.org/1999/xlink" width="1080" zoomAndPan="magnify" viewBox="0 0 810 1439.999935" height="1920" preserveAspectRatio="xMidYMid meet" version="1.0"><defs><clipPath id="0c49d42aad"><path d="M 332 752 L 351 752 L 351 802.984375 L 332 802.984375 Z M 332 752 " clip-rule="nonzero"/></clipPath><clipPath id="aefd4941b3"><path d="M 458.519531 752 L 477.414062 752 L 477.414062 802.925781 L 458.519531 802.925781 Z M 458.519531 752 " clip-rule="nonzero"/></clipPath><clipPath id="275ed967a3"><path d="M 416 752 L 435.519531 752 L 435.519531 802.925781 L 416 802.925781 Z M 416 752 " clip-rule="nonzero"/></clipPath><clipPath id="d8e4713017"><path d="M 374 752 L 394 752 L 394 802.984375 L 374 802.984375 Z M 374 752 " clip-rule="nonzero"/></clipPath><clipPath id="340027288e"><path d="M 244 637.234375 L 566 637.234375 L 566 666 L 244 666 Z M 244 637.234375 " clip-rule="nonzero"/></clipPath><clipPath id="74fb6c777e"><path d="M 246 637.234375 L 564 637.234375 L 564 658 L 246 658 Z M 246 637.234375 " clip-rule="nonzero"/></clipPath><clipPath id="06e4fad513"><path d="M 243 637.234375 L 304 637.234375 L 304 681 L 243 681 Z M 243 637.234375 " clip-rule="nonzero"/></clipPath><clipPath id="6a6759e765"><path d="M 243 637.234375 L 268 637.234375 L 268 735 L 243 735 Z M 243 637.234375 " clip-rule="nonzero"/></clipPath><clipPath id="b6085b9fbb"><path d="M 506.164062 637.398438 L 566.8125 637.398438 L 566.8125 681.816406 L 506.164062 681.816406 Z M 506.164062 637.398438 " clip-rule="nonzero"/></clipPath><clipPath id="e5b58b7f9e"><path d="M 542.308594 637.398438 L 566.8125 637.398438 L 566.8125 735 L 542.308594 735 Z M 542.308594 637.398438 " clip-rule="nonzero"/></clipPath></defs><g clip-path="url(#0c49d42aad)"><path fill="#5376c1" d="M 341.65625 802.554688 C 346.574219 799.933594 349.582031 796.488281 350.527344 792.167969 C 351.890625 785.933594 349.570312 780.25 345.632812 774.792969 C 343.441406 771.757812 341.203125 768.722656 339.410156 765.558594 C 337.171875 761.621094 338.015625 757.683594 340.378906 753.878906 C 340.648438 753.445312 340.863281 752.996094 341.238281 752.308594 C 338.65625 753.324219 336.910156 754.632812 335.53125 756.148438 C 333.035156 758.90625 332.160156 761.992188 332.492188 765.292969 C 332.941406 769.765625 335.257812 773.773438 337.957031 777.71875 C 340.265625 781.082031 342.707031 784.398438 343.84375 788.128906 C 345.226562 792.664062 344.117188 797 342.1875 801.292969 C 342 801.714844 341.832031 802.136719 341.65625 802.554688 " fill-opacity="1" fill-rule="nonzero"/></g><g clip-path="url(#aefd4941b3)"><path fill="#5376c1" d="M 467.773438 802.925781 C 473.230469 799.746094 476.199219 795.929688 476.980469 791.230469 C 477.964844 785.277344 475.578125 779.878906 471.800781 774.714844 C 470.214844 772.550781 468.554688 770.40625 467.027344 768.21875 C 463.738281 763.503906 463.542969 758.714844 466.566406 753.878906 C 466.847656 753.433594 467.101562 752.980469 467.359375 752.523438 C 467.371094 752.507812 467.300781 752.464844 467.183594 752.351562 C 462.878906 754.429688 460.011719 757.214844 459.113281 760.980469 C 457.832031 766.367188 459.992188 771.265625 463.066406 776.066406 C 465.460938 779.804688 467.960938 783.542969 469.796875 787.4375 C 471.574219 791.207031 470.894531 795.140625 469.398438 798.953125 C 468.921875 800.167969 468.410156 801.375 467.773438 802.925781 " fill-opacity="1" fill-rule="nonzero"/></g><g clip-path="url(#275ed967a3)"><path fill="#5376c1" d="M 425.367188 752.242188 C 420.636719 754.503906 417.882812 757.386719 416.96875 761.1875 C 415.824219 765.957031 417.519531 770.386719 420.136719 774.660156 C 421.988281 777.691406 424.117188 780.625 426.023438 783.632812 C 429.792969 789.582031 429.171875 795.578125 426.261719 801.585938 C 426.109375 801.894531 425.972656 802.207031 425.839844 802.515625 C 425.828125 802.550781 425.867188 802.59375 425.9375 802.765625 C 429.695312 800.617188 432.320312 797.96875 433.824219 794.714844 C 436.328125 789.28125 435.238281 783.980469 432.335938 778.878906 C 430.445312 775.5625 427.890625 772.449219 425.652344 769.238281 C 423.597656 766.289062 421.8125 763.234375 422.417969 759.847656 C 422.785156 757.808594 423.800781 755.828125 424.550781 753.824219 C 424.71875 753.375 425.003906 752.945312 425.367188 752.242188 " fill-opacity="1" fill-rule="nonzero"/></g><g clip-path="url(#d8e4713017)"><path fill="#5376c1" d="M 383.664062 802.589844 C 388.738281 799.933594 391.71875 796.359375 392.671875 791.902344 C 393.890625 786.199219 391.910156 780.933594 388.457031 775.894531 C 386.523438 773.074219 384.421875 770.316406 382.492188 767.496094 C 379.390625 762.972656 379.574219 758.421875 382.457031 753.875 C 382.734375 753.441406 382.9375 752.984375 383.339844 752.21875 C 380.015625 753.785156 377.699219 755.585938 376.257812 757.9375 C 373.007812 763.226562 374.546875 768.386719 377.351562 773.417969 C 379.078125 776.527344 381.183594 779.527344 383.257812 782.523438 C 387.589844 788.789062 387.375 795.140625 384.167969 801.582031 C 384 801.917969 383.832031 802.253906 383.664062 802.589844 " fill-opacity="1" fill-rule="nonzero"/></g><path fill="#5376c1" d="M 541.835938 736.664062 L 267.796875 736.664062 L 267.796875 697.464844 L 541.835938 697.464844 L 541.835938 736.664062 " fill-opacity="1" fill-rule="nonzero"/><g clip-path="url(#340027288e)"><path fill="#f68395" d="M 244.113281 641.851562 L 246.699219 637.53125 L 563.300781 637.53125 L 565.992188 641.402344 L 565.972656 665.980469 L 244.078125 665.980469 " fill-opacity="1" fill-rule="nonzero"/></g><path fill="#db5f6e" d="M 534.769531 726.289062 C 534.652344 728.121094 534.757812 729.964844 534.753906 731.808594 C 534.738281 734.835938 532.273438 736.605469 528.039062 736.609375 C 512.335938 736.617188 496.632812 736.617188 480.929688 736.617188 L 404.871094 736.617188 L 404.871094 736.609375 L 358.890625 736.609375 C 333.492188 736.609375 308.082031 736.5625 282.675781 736.660156 C 277.710938 736.675781 274.976562 734.429688 275.238281 731.371094 C 275.378906 729.800781 275.371094 728.222656 275.246094 726.660156 C 274.871094 721.773438 276.816406 717.324219 280.390625 713.25 C 281.96875 711.449219 283.824219 709.699219 286 708.265625 C 290.339844 705.425781 295.839844 704.621094 301.558594 704.613281 C 323.089844 704.578125 344.621094 704.597656 366.152344 704.597656 C 413.03125 704.597656 459.914062 704.605469 506.796875 704.589844 C 510.714844 704.589844 514.554688 704.820312 518.234375 705.796875 C 524.195312 707.378906 527.890625 710.59375 530.710938 714.5 C 533.390625 718.210938 535.023438 722.066406 534.769531 726.289062 Z M 559.8125 647.523438 C 559.722656 647.613281 559.632812 647.699219 559.535156 647.796875 C 557.917969 649.351562 556.273438 650.890625 554.542969 652.378906 C 547.207031 658.6875 538.082031 662.324219 526.128906 662.183594 C 510.871094 662.003906 495.601562 662.199219 480.328125 662.199219 C 470.25 662.210938 460.171875 662.136719 450.089844 662.136719 C 412.453125 662.121094 374.800781 662.121094 337.15625 662.121094 C 319.246094 662.121094 301.328125 662.136719 283.421875 662.121094 C 281.375 662.121094 279.300781 662.109375 277.285156 661.886719 C 268.289062 660.90625 261.382812 657.40625 255.714844 652.550781 C 253.945312 651.039062 252.230469 649.492188 250.511719 647.929688 C 250.488281 647.90625 250.472656 647.886719 250.449219 647.871094 L 244.113281 641.851562 L 244.113281 644.761719 C 244.074219 650.363281 244.089844 655.957031 244.089844 661.550781 C 244.097656 678.191406 244.03125 694.832031 244.164062 711.472656 C 244.199219 715.882812 245.652344 720.128906 248.996094 723.933594 C 250.480469 725.621094 252.015625 727.285156 253.578125 728.933594 C 256.617188 732.144531 259.636719 735.363281 263.671875 738.019531 C 268.964844 741.503906 275.035156 743.503906 282.433594 743.488281 C 310.539062 743.4375 338.648438 743.472656 366.761719 743.472656 C 401.121094 743.460938 435.492188 743.445312 469.863281 743.445312 C 489.386719 743.445312 508.925781 743.472656 528.449219 743.457031 C 530.050781 743.457031 531.6875 743.339844 533.257812 743.113281 C 540.507812 742.058594 545.84375 738.898438 550.320312 734.949219 C 552.988281 732.605469 555.265625 730.035156 557.785156 727.609375 C 562.988281 722.59375 565.917969 717.035156 565.925781 710.757812 C 565.941406 698.910156 565.941406 687.058594 565.960938 675.214844 C 565.96875 666.59375 565.992188 657.972656 565.992188 649.351562 L 565.992188 641.402344 L 559.8125 647.523438 " fill-opacity="1" fill-rule="nonzero"/><g clip-path="url(#74fb6c777e)"><path fill="#db5f6e" d="M 563.300781 637.53125 C 563.300781 637.53125 547.105469 657.71875 529.625 657.71875 L 405.074219 657.71875 C 404.976562 657.71875 404.925781 657.71875 404.925781 657.71875 L 280.375 657.71875 C 262.890625 657.71875 246.699219 637.53125 246.699219 637.53125 L 563.300781 637.53125 " fill-opacity="1" fill-rule="nonzero"/></g><path fill="#f8a30e" d="M 428.382812 690.644531 L 381.613281 690.644531 C 376.832031 690.644531 372.917969 686.730469 372.917969 681.941406 C 372.917969 677.15625 376.832031 673.242188 381.613281 673.242188 L 428.382812 673.242188 C 433.164062 673.242188 437.078125 677.15625 437.078125 681.941406 C 437.078125 686.730469 433.164062 690.644531 428.382812 690.644531 " fill-opacity="1" fill-rule="nonzero"/><path fill="#db5f6e" d="M 516.820312 711.617188 L 516.820312 712.347656 C 516.730469 714.175781 515.894531 718.824219 509.78125 718.980469 L 300.214844 718.980469 C 294.09375 718.824219 293.265625 714.175781 293.175781 712.347656 L 293.175781 711.617188 L 516.820312 711.617188 " fill-opacity="1" fill-rule="nonzero"/><path fill="#db5f6e" d="M 509.78125 718.980469 C 515.894531 718.824219 516.730469 714.175781 516.820312 712.347656 L 516.820312 711.617188 L 301.9375 718.980469 L 509.78125 718.980469 " fill-opacity="1" fill-rule="nonzero"/><path fill="#f68395" d="M 293.175781 712.347656 C 293.265625 714.175781 294.09375 718.824219 300.214844 718.980469 L 301.9375 718.980469 L 516.820312 711.617188 L 293.175781 711.617188 L 293.175781 712.347656 " fill-opacity="1" fill-rule="nonzero"/><path fill="#db5f6e" d="M 516.636719 722.535156 L 516.636719 723.265625 C 516.546875 725.09375 515.707031 729.742188 509.597656 729.894531 L 300.03125 729.894531 C 293.910156 729.742188 293.082031 725.09375 292.988281 723.265625 L 292.988281 722.535156 L 516.636719 722.535156 " fill-opacity="1" fill-rule="nonzero"/><path fill="#db5f6e" d="M 509.597656 729.894531 C 515.707031 729.742188 516.546875 725.09375 516.636719 723.265625 L 516.636719 722.535156 L 301.753906 729.894531 L 509.597656 729.894531 " fill-opacity="1" fill-rule="nonzero"/><path fill="#f68395" d="M 292.988281 723.265625 C 293.082031 725.09375 293.910156 729.742188 300.03125 729.894531 L 301.753906 729.894531 L 516.636719 722.535156 L 292.988281 722.535156 L 292.988281 723.265625 " fill-opacity="1" fill-rule="nonzero"/><path fill="#f8a30e" d="M 467.574219 681.941406 C 467.574219 683.320312 466.34375 684.433594 464.824219 684.433594 C 463.304688 684.433594 462.070312 683.320312 462.070312 681.941406 C 462.070312 680.566406 463.304688 679.449219 464.824219 679.449219 C 466.34375 679.449219 467.574219 680.566406 467.574219 681.941406 " fill-opacity="1" fill-rule="nonzero"/><path fill="#f8a30e" d="M 477.203125 681.941406 C 477.203125 683.320312 475.972656 684.433594 474.453125 684.433594 C 472.933594 684.433594 471.703125 683.320312 471.703125 681.941406 C 471.703125 680.566406 472.933594 679.449219 474.453125 679.449219 C 475.972656 679.449219 477.203125 680.566406 477.203125 681.941406 " fill-opacity="1" fill-rule="nonzero"/><path fill="#f8a30e" d="M 486.335938 681.941406 C 486.335938 683.320312 485.105469 684.433594 483.582031 684.433594 C 482.066406 684.433594 480.832031 683.320312 480.832031 681.941406 C 480.832031 680.566406 482.066406 679.449219 483.582031 679.449219 C 485.105469 679.449219 486.335938 680.566406 486.335938 681.941406 " fill-opacity="1" fill-rule="nonzero"/><g clip-path="url(#06e4fad513)"><path stroke-linecap="round" transform="matrix(0.0821476, 0, 0, -0.0822581, 243.292512, 802.92507)" fill="none" stroke-linejoin="miter" d="M 451.413158 1765.253281 C 269.528186 1765.253281 95.917197 1948.508487 52.074597 1998.323131 C 46.748815 2004.354074 37.143386 2003.451807 33.006394 1996.518597 L 10.799785 1959.525644 C 10.37182 1958.76584 10.466923 1957.673622 11.180198 1957.056281 L 111.038614 1863.315473 " stroke="#293982" stroke-width="20" stroke-opacity="1" stroke-miterlimit="10"/></g><g clip-path="url(#6a6759e765)"><path stroke-linecap="round" transform="matrix(0.0821476, 0, 0, -0.0822581, 243.292512, 802.92507)" fill="none" stroke-linejoin="miter" d="M 9.991407 1958.148499 L 10.609578 1111.77443 " stroke="#293982" stroke-width="20" stroke-opacity="1" stroke-miterlimit="10"/></g><g clip-path="url(#b6085b9fbb)"><path stroke-linecap="round" transform="matrix(0.0821476, 0, 0, -0.0822581, 243.292512, 802.92507)" fill="none" stroke-linejoin="miter" d="M 3486.918497 1763.496389 C 3668.755902 1763.496389 3842.414428 1946.751611 3886.209472 1996.566259 C 3891.582805 2002.597203 3901.140681 2001.694936 3905.277673 1994.761725 L 3927.48428 1957.768768 C 3927.959797 1957.008964 3927.817142 1955.964234 3927.151419 1955.299405 L 3827.24546 1861.55859 " stroke="#293982" stroke-width="20" stroke-opacity="1" stroke-miterlimit="10"/></g><g clip-path="url(#e5b58b7f9e)"><path stroke-linecap="round" transform="matrix(0.0821476, 0, 0, -0.0822581, 243.292512, 802.92507)" fill="none" stroke-linejoin="miter" d="M 3928.292658 1956.391624 L 3927.674487 1110.01748 " stroke="#293982" stroke-width="20" stroke-opacity="1" stroke-miterlimit="10"/></g><path stroke-linecap="round" transform="matrix(0.0821476, 0, 0, -0.0822581, 243.292512, 802.92507)" fill="none" stroke-linejoin="miter" d="M 388.882769 869.87186 C 388.882769 869.87186 343.61362 1195.162909 709.28563 1195.162909 C 1075.005191 1195.162909 1197.640837 1195.162909 1197.640837 1195.162909 " stroke="#293982" stroke-width="20" stroke-opacity="1" stroke-miterlimit="10"/><path stroke-linecap="round" transform="matrix(0.0821476, 0, 0, -0.0822581, 243.292512, 802.92507)" fill="none" stroke-linejoin="miter" d="M 607.239839 1110.017383 L 1197.640837 1110.017383 " stroke="#293982" stroke-width="20" stroke-opacity="1" stroke-miterlimit="10"/></svg>