<svg xmlns="http://www.w3.org/2000/svg" xmlns:xlink="http://www.w3.org/1999/xlink" width="1080" zoomAndPan="magnify" viewBox="0 0 810 809.999993" height="1080" preserveAspectRatio="xMidYMid meet" version="1.0"><defs><clipPath id="fc7c0882fd"><path d="M 523.085938 487 L 564.726562 487 L 564.726562 598.953125 L 523.085938 598.953125 Z M 523.085938 487 " clip-rule="nonzero"/></clipPath><clipPath id="1bac696466"><path d="M 430 487 L 472 487 L 472 598.953125 L 430 598.953125 Z M 430 487 " clip-rule="nonzero"/></clipPath><clipPath id="8c70963dbd"><path d="M 48.140625 234.578125 L 182 234.578125 L 182 331 L 48.140625 331 Z M 48.140625 234.578125 " clip-rule="nonzero"/></clipPath><clipPath id="1ff4b06e28"><path d="M 48.140625 234.578125 L 102 234.578125 L 102 450 L 48.140625 450 Z M 48.140625 234.578125 " clip-rule="nonzero"/></clipPath><clipPath id="a90594a7c6"><path d="M 628.089844 234.9375 L 761.746094 234.9375 L 761.746094 332 L 628.089844 332 Z M 628.089844 234.9375 " clip-rule="nonzero"/></clipPath><clipPath id="d04bdab792"><path d="M 708 234.9375 L 761.746094 234.9375 L 761.746094 450 L 708 450 Z M 708 234.9375 " clip-rule="nonzero"/></clipPath></defs><rect x="-81" width="972" fill="#ffffff" y="-80.999999" height="971.999992" fill-opacity="1"/><rect x="-81" width="972" fill="#ffffff" y="-80.999999" height="971.999992" fill-opacity="1"/><path fill="#5376c1" d="M 265.539062 598.140625 C 276.382812 592.375 283.015625 584.796875 285.09375 575.292969 C 288.097656 561.585938 282.984375 549.085938 274.308594 537.085938 C 269.480469 530.410156 264.542969 523.734375 260.589844 516.78125 C 255.660156 508.125 257.519531 499.460938 262.734375 491.09375 C 263.320312 490.140625 263.792969 489.152344 264.621094 487.640625 C 258.933594 489.871094 255.082031 492.746094 252.046875 496.082031 C 246.546875 502.152344 244.613281 508.9375 245.351562 516.191406 C 246.339844 526.027344 251.4375 534.847656 257.394531 543.519531 C 262.476562 550.917969 267.859375 558.207031 270.363281 566.414062 C 273.410156 576.382812 270.972656 585.921875 266.714844 595.363281 C 266.304688 596.289062 265.929688 597.21875 265.539062 598.140625 " fill-opacity="1" fill-rule="nonzero"/><g clip-path="url(#fc7c0882fd)"><path fill="#5376c1" d="M 543.480469 598.953125 C 555.503906 591.964844 562.050781 583.570312 563.769531 573.230469 C 565.941406 560.144531 560.679688 548.265625 552.355469 536.917969 C 548.863281 532.15625 545.199219 527.441406 541.835938 522.628906 C 534.585938 512.257812 534.160156 501.730469 540.824219 491.09375 C 541.4375 490.113281 541.996094 489.117188 542.570312 488.113281 C 542.589844 488.078125 542.441406 487.984375 542.179688 487.738281 C 532.699219 492.300781 526.375 498.429688 524.394531 506.710938 C 521.574219 518.554688 526.332031 529.328125 533.109375 539.886719 C 538.382812 548.109375 543.890625 556.328125 547.945312 564.894531 C 551.863281 573.179688 550.363281 581.832031 547.058594 590.21875 C 546.011719 592.890625 544.882812 595.546875 543.480469 598.953125 " fill-opacity="1" fill-rule="nonzero"/></g><g clip-path="url(#1bac696466)"><path fill="#5376c1" d="M 450.027344 487.492188 C 439.597656 492.472656 433.53125 498.808594 431.515625 507.167969 C 428.996094 517.65625 432.730469 527.394531 438.5 536.796875 C 442.582031 543.460938 447.269531 549.914062 451.472656 556.527344 C 459.78125 569.605469 458.414062 582.796875 451.996094 596.003906 C 451.660156 596.683594 451.363281 597.367188 451.066406 598.054688 C 451.039062 598.125 451.132812 598.222656 451.289062 598.597656 C 459.5625 593.878906 465.347656 588.054688 468.664062 580.898438 C 474.1875 568.949219 471.78125 557.289062 465.382812 546.070312 C 461.214844 538.777344 455.585938 531.929688 450.652344 524.871094 C 446.125 518.382812 442.191406 511.664062 443.53125 504.222656 C 444.335938 499.734375 446.570312 495.382812 448.226562 490.972656 C 448.601562 489.984375 449.222656 489.039062 450.027344 487.492188 " fill-opacity="1" fill-rule="nonzero"/></g><path fill="#5376c1" d="M 358.125 598.21875 C 369.304688 592.375 375.875 584.515625 377.972656 574.714844 C 380.65625 562.164062 376.292969 550.589844 368.683594 539.503906 C 364.425781 533.308594 359.792969 527.238281 355.535156 521.039062 C 348.703125 511.089844 349.105469 501.085938 355.464844 491.085938 C 356.074219 490.132812 356.519531 489.121094 357.402344 487.441406 C 350.082031 490.890625 344.976562 494.847656 341.796875 500.019531 C 334.636719 511.648438 338.027344 522.996094 344.207031 534.0625 C 348.019531 540.894531 352.65625 547.496094 357.226562 554.089844 C 366.773438 567.859375 366.296875 581.832031 359.234375 596 C 358.859375 596.738281 358.492188 597.476562 358.125 598.21875 " fill-opacity="1" fill-rule="nonzero"/><path fill="#5376c1" d="M 706.699219 453.234375 L 102.769531 453.234375 L 102.769531 367.035156 L 706.699219 367.035156 L 706.699219 453.234375 " fill-opacity="1" fill-rule="nonzero"/><path fill="#f68395" d="M 50.578125 244.734375 L 56.277344 235.234375 L 754 235.234375 L 759.933594 243.75 L 759.890625 297.800781 L 50.5 297.800781 " fill-opacity="1" fill-rule="nonzero"/><path fill="#db5f6e" d="M 691.125 430.417969 C 690.871094 434.453125 691.105469 438.5 691.089844 442.558594 C 691.054688 449.214844 685.625 453.105469 676.296875 453.121094 C 641.6875 453.136719 607.085938 453.136719 572.476562 453.136719 L 404.855469 453.136719 L 404.855469 453.121094 L 303.523438 453.121094 C 247.550781 453.121094 191.554688 453.015625 135.5625 453.226562 C 124.621094 453.261719 118.59375 448.324219 119.175781 441.597656 C 119.480469 438.140625 119.464844 434.671875 119.191406 431.238281 C 118.363281 420.488281 122.648438 410.703125 130.527344 401.75 C 134.003906 397.785156 138.09375 393.933594 142.886719 390.78125 C 152.449219 384.542969 164.578125 382.769531 177.179688 382.757812 C 224.628906 382.679688 272.082031 382.71875 319.527344 382.71875 C 422.84375 382.71875 526.164062 382.734375 629.480469 382.699219 C 638.117188 382.699219 646.574219 383.207031 654.683594 385.355469 C 667.824219 388.832031 675.972656 395.90625 682.179688 404.5 C 688.085938 412.652344 691.683594 421.140625 691.125 430.417969 Z M 746.320312 257.210938 C 746.125 257.410156 745.925781 257.59375 745.707031 257.8125 C 742.140625 261.226562 738.519531 264.609375 734.703125 267.890625 C 718.535156 281.757812 698.425781 289.757812 672.082031 289.449219 C 638.460938 289.050781 604.808594 289.484375 571.152344 289.484375 C 548.941406 289.503906 526.730469 289.339844 504.507812 289.339844 C 421.566406 289.304688 338.589844 289.304688 255.625 289.304688 C 216.15625 289.304688 176.667969 289.339844 137.207031 289.304688 C 132.695312 289.304688 128.121094 289.285156 123.679688 288.796875 C 103.859375 286.640625 88.632812 278.941406 76.144531 268.261719 C 72.246094 264.933594 68.464844 261.535156 64.679688 258.101562 C 64.632812 258.046875 64.589844 258.011719 64.539062 257.976562 L 50.578125 244.734375 L 50.578125 251.136719 C 50.488281 263.453125 50.523438 275.753906 50.523438 288.054688 C 50.542969 324.652344 50.394531 361.246094 50.683594 397.84375 C 50.761719 407.535156 53.964844 416.871094 61.335938 425.246094 C 64.609375 428.953125 67.996094 432.609375 71.433594 436.238281 C 78.132812 443.296875 84.792969 450.371094 93.683594 456.214844 C 105.34375 463.882812 118.722656 468.277344 135.03125 468.242188 C 196.964844 468.136719 258.914062 468.207031 320.871094 468.207031 C 396.59375 468.1875 472.339844 468.148438 548.085938 468.148438 C 591.117188 468.148438 634.171875 468.207031 677.203125 468.171875 C 680.730469 468.171875 684.335938 467.917969 687.796875 467.414062 C 703.777344 465.097656 715.53125 458.152344 725.394531 449.46875 C 731.28125 444.308594 736.292969 438.664062 741.851562 433.328125 C 753.316406 422.296875 759.773438 410.066406 759.792969 396.265625 C 759.828125 370.214844 759.828125 344.148438 759.863281 318.101562 C 759.886719 299.140625 759.933594 280.183594 759.933594 261.226562 L 759.933594 243.75 L 746.320312 257.210938 " fill-opacity="1" fill-rule="nonzero"/><path fill="#db5f6e" d="M 754 235.234375 C 754 235.234375 718.316406 279.625 679.789062 279.625 L 405.304688 279.625 C 405.085938 279.625 404.980469 279.625 404.980469 279.625 L 130.492188 279.625 C 91.964844 279.625 56.277344 235.234375 56.277344 235.234375 L 754 235.234375 " fill-opacity="1" fill-rule="nonzero"/><path fill="#f8a30e" d="M 456.675781 352.039062 L 353.597656 352.039062 C 343.0625 352.039062 334.441406 343.425781 334.441406 332.898438 C 334.441406 322.375 343.0625 313.761719 353.597656 313.761719 L 456.675781 313.761719 C 467.210938 313.761719 475.832031 322.375 475.832031 332.898438 C 475.832031 343.425781 467.210938 352.039062 456.675781 352.039062 " fill-opacity="1" fill-rule="nonzero"/><path fill="#db5f6e" d="M 651.574219 398.160156 L 651.574219 399.765625 C 651.375 403.785156 649.53125 414.003906 636.058594 414.347656 L 174.214844 414.347656 C 160.730469 414.003906 158.898438 403.785156 158.699219 399.765625 L 158.699219 398.160156 L 651.574219 398.160156 " fill-opacity="1" fill-rule="nonzero"/><path fill="#db5f6e" d="M 636.058594 414.347656 C 649.53125 414.003906 651.375 403.785156 651.574219 399.765625 L 651.574219 398.160156 L 178.011719 414.347656 L 636.058594 414.347656 " fill-opacity="1" fill-rule="nonzero"/><path fill="#f68395" d="M 158.699219 399.765625 C 158.898438 403.785156 160.730469 414.003906 174.214844 414.347656 L 178.011719 414.347656 L 651.574219 398.160156 L 158.699219 398.160156 L 158.699219 399.765625 " fill-opacity="1" fill-rule="nonzero"/><path fill="#db5f6e" d="M 651.171875 422.164062 L 651.171875 423.773438 C 650.964844 427.789062 649.121094 438.011719 635.65625 438.351562 L 173.8125 438.351562 C 160.320312 438.011719 158.496094 427.789062 158.289062 423.773438 L 158.289062 422.164062 L 651.171875 422.164062 " fill-opacity="1" fill-rule="nonzero"/><path fill="#db5f6e" d="M 635.65625 438.351562 C 649.121094 438.011719 650.964844 427.789062 651.171875 423.773438 L 651.171875 422.164062 L 177.609375 438.351562 L 635.65625 438.351562 " fill-opacity="1" fill-rule="nonzero"/><path fill="#f68395" d="M 158.289062 423.773438 C 158.496094 427.789062 160.320312 438.011719 173.8125 438.351562 L 177.609375 438.351562 L 651.171875 422.164062 L 158.289062 422.164062 L 158.289062 423.773438 " fill-opacity="1" fill-rule="nonzero"/><path fill="#f8a30e" d="M 543.042969 332.898438 C 543.042969 335.929688 540.328125 338.378906 536.984375 338.378906 C 533.632812 338.378906 530.914062 335.929688 530.914062 332.898438 C 530.914062 329.871094 533.632812 327.414062 536.984375 327.414062 C 540.328125 327.414062 543.042969 329.871094 543.042969 332.898438 " fill-opacity="1" fill-rule="nonzero"/><path fill="#f8a30e" d="M 564.257812 332.898438 C 564.257812 335.929688 561.550781 338.378906 558.199219 338.378906 C 554.851562 338.378906 552.136719 335.929688 552.136719 332.898438 C 552.136719 329.871094 554.851562 327.414062 558.199219 327.414062 C 561.550781 327.414062 564.257812 329.871094 564.257812 332.898438 " fill-opacity="1" fill-rule="nonzero"/><path fill="#f8a30e" d="M 584.390625 332.898438 C 584.390625 335.929688 581.675781 338.378906 578.324219 338.378906 C 574.980469 338.378906 572.265625 335.929688 572.265625 332.898438 C 572.265625 329.871094 574.980469 327.414062 578.324219 327.414062 C 581.675781 327.414062 584.390625 329.871094 584.390625 332.898438 " fill-opacity="1" fill-rule="nonzero"/><g clip-path="url(#8c70963dbd)"><path stroke-linecap="round" transform="matrix(0.181037, 0, 0, -0.180893, 48.768975, 598.950878)" fill="none" stroke-linejoin="miter" d="M 451.416223 1765.271982 C 269.521817 1765.271982 95.891415 1948.520544 52.068456 1998.316818 C 46.760505 2004.3632 37.158725 2003.434649 33.015934 1996.524498 L 10.813165 1959.533597 C 10.360047 1958.73461 10.467932 1957.698088 11.179974 1957.071855 L 111.06007 1863.309746 " stroke="#293982" stroke-width="20" stroke-opacity="1" stroke-miterlimit="10"/></g><g clip-path="url(#1ff4b06e28)"><path stroke-linecap="round" transform="matrix(0.181037, 0, 0, -0.180893, 48.768975, 598.950878)" fill="none" stroke-linejoin="miter" d="M 9.993237 1958.151566 L 10.575817 1111.744468 " stroke="#293982" stroke-width="20" stroke-opacity="1" stroke-miterlimit="10"/></g><g clip-path="url(#a90594a7c6)"><path stroke-linecap="round" transform="matrix(0.181037, 0, 0, -0.180893, 48.768975, 598.950878)" fill="none" stroke-linejoin="miter" d="M 3486.916689 1763.501256 C 3668.746365 1763.501256 3842.419921 1946.749818 3886.221302 1996.567686 C 3891.572407 2002.614068 3901.131034 2001.685517 3905.273825 1994.753772 L 3927.498171 1957.76287 C 3927.972866 1956.985479 3927.821826 1955.97055 3927.152938 1955.301129 L 3827.229688 1861.560615 " stroke="#293982" stroke-width="20" stroke-opacity="1" stroke-miterlimit="10"/></g><g clip-path="url(#d04bdab792)"><path stroke-linecap="round" transform="matrix(0.181037, 0, 0, -0.180893, 48.768975, 598.950878)" fill="none" stroke-linejoin="miter" d="M 3928.274944 1956.402435 L 3927.692364 1109.995336 " stroke="#293982" stroke-width="20" stroke-opacity="1" stroke-miterlimit="10"/></g><path stroke-linecap="round" transform="matrix(0.181037, 0, 0, -0.180893, 48.768975, 598.950878)" fill="none" stroke-linejoin="miter" d="M 388.907553 869.867595 C 388.907553 869.867595 343.595779 1195.14135 709.304948 1195.14135 C 1074.992541 1195.14135 1197.614832 1195.14135 1197.614832 1195.14135 " stroke="#293982" stroke-width="20" stroke-opacity="1" stroke-miterlimit="10"/><path stroke-linecap="round" transform="matrix(0.181037, 0, 0, -0.180893, 48.768975, 598.950878)" fill="none" stroke-linejoin="miter" d="M 607.223995 1109.995336 L 1197.614832 1109.995336 " stroke="#293982" stroke-width="20" stroke-opacity="1" stroke-miterlimit="10"/></svg>