<svg xmlns="http://www.w3.org/2000/svg" xmlns:xlink="http://www.w3.org/1999/xlink" width="1080" zoomAndPan="magnify" viewBox="0 0 810 809.999993" height="1080" preserveAspectRatio="xMidYMid meet" version="1.0"><defs><clipPath id="94c0b9a12c"><path d="M 295 70.507812 L 516 70.507812 L 516 291 L 295 291 Z M 295 70.507812 " clip-rule="nonzero"/></clipPath></defs><rect x="-81" width="972" fill="#ffffff" y="-80.999999" height="971.999992" fill-opacity="1"/><rect x="-81" width="972" fill="#ffffff" y="-80.999999" height="971.999992" fill-opacity="1"/><path fill="#cd0000" d="M 207.753906 154.914062 L 602.5625 154.914062 C 603.136719 154.914062 603.703125 154.941406 604.273438 155 C 604.839844 155.054688 605.402344 155.136719 605.960938 155.25 C 606.523438 155.359375 607.074219 155.5 607.621094 155.664062 C 608.167969 155.828125 608.703125 156.019531 609.230469 156.238281 C 609.757812 156.457031 610.273438 156.703125 610.773438 156.96875 C 611.277344 157.238281 611.765625 157.53125 612.242188 157.847656 C 612.714844 158.164062 613.171875 158.503906 613.613281 158.867188 C 614.054688 159.226562 614.476562 159.609375 614.878906 160.011719 C 615.285156 160.417969 615.667969 160.839844 616.027344 161.28125 C 616.390625 161.71875 616.730469 162.175781 617.046875 162.652344 C 617.363281 163.125 617.65625 163.613281 617.925781 164.117188 C 618.195312 164.621094 618.4375 165.136719 618.65625 165.660156 C 618.875 166.1875 619.066406 166.726562 619.234375 167.269531 C 619.398438 167.816406 619.535156 168.367188 619.648438 168.925781 C 619.757812 169.488281 619.84375 170.050781 619.898438 170.617188 C 619.953125 171.183594 619.984375 171.753906 619.984375 172.324219 L 619.984375 195.539062 L 190.335938 195.539062 L 190.335938 172.324219 C 190.335938 171.753906 190.363281 171.183594 190.417969 170.617188 C 190.476562 170.050781 190.558594 169.488281 190.671875 168.925781 C 190.78125 168.367188 190.921875 167.816406 191.085938 167.269531 C 191.25 166.726562 191.445312 166.1875 191.660156 165.660156 C 191.878906 165.136719 192.125 164.621094 192.394531 164.117188 C 192.660156 163.613281 192.953125 163.125 193.269531 162.652344 C 193.589844 162.175781 193.929688 161.71875 194.289062 161.28125 C 194.652344 160.839844 195.035156 160.417969 195.4375 160.011719 C 195.839844 159.609375 196.261719 159.226562 196.703125 158.867188 C 197.144531 158.503906 197.601562 158.164062 198.078125 157.847656 C 198.550781 157.53125 199.039062 157.238281 199.542969 156.96875 C 200.046875 156.703125 200.5625 156.457031 201.089844 156.238281 C 201.617188 156.019531 202.152344 155.828125 202.699219 155.664062 C 203.242188 155.5 203.796875 155.359375 204.355469 155.25 C 204.914062 155.136719 205.480469 155.054688 206.046875 155 C 206.613281 154.941406 207.183594 154.914062 207.753906 154.914062 Z M 207.753906 154.914062 " fill-opacity="1" fill-rule="nonzero"/><path fill="#ffcd00" d="M 106.148438 331.972656 L 704.226562 331.972656 L 704.226562 728.746094 L 106.148438 728.746094 Z M 106.148438 331.972656 " fill-opacity="1" fill-rule="nonzero"/><path fill="#cd0000" d="M 75.957031 692.011719 L 734.304688 692.011719 L 734.304688 728.804688 L 75.957031 728.804688 Z M 75.957031 692.011719 " fill-opacity="1" fill-rule="nonzero"/><path fill="#ff641a" d="M 216.8125 195.710938 L 150.507812 384.320312 C 149.804688 386.128906 148.964844 387.875 147.996094 389.554688 C 147.023438 391.238281 145.929688 392.835938 144.710938 394.347656 C 143.496094 395.863281 142.171875 397.273438 140.738281 398.585938 C 139.304688 399.894531 137.777344 401.085938 136.164062 402.164062 C 134.546875 403.242188 132.855469 404.1875 131.09375 405.003906 C 129.332031 405.820312 127.519531 406.5 125.652344 407.039062 C 123.785156 407.578125 121.890625 407.972656 119.964844 408.21875 C 118.035156 408.46875 116.101562 408.566406 114.160156 408.519531 C 86.8125 408.519531 68.351562 382.984375 79.324219 360.003906 L 150.972656 205.808594 C 151.316406 205.058594 151.714844 204.339844 152.167969 203.644531 C 152.617188 202.953125 153.113281 202.296875 153.65625 201.671875 C 154.199219 201.050781 154.785156 200.46875 155.410156 199.933594 C 156.035156 199.394531 156.695312 198.902344 157.390625 198.457031 C 158.089844 198.011719 158.8125 197.617188 159.5625 197.273438 C 160.316406 196.933594 161.089844 196.644531 161.882812 196.414062 C 162.675781 196.179688 163.480469 196.007812 164.296875 195.890625 C 165.113281 195.769531 165.9375 195.710938 166.761719 195.710938 Z M 216.8125 195.710938 " fill-opacity="1" fill-rule="nonzero"/><path fill="#d9f2ff" d="M 279.632812 195.710938 L 236.203125 380.953125 C 235.925781 381.957031 235.609375 382.949219 235.25 383.925781 C 234.890625 384.902344 234.492188 385.863281 234.054688 386.808594 C 233.613281 387.75 233.136719 388.675781 232.621094 389.582031 C 232.105469 390.484375 231.554688 391.367188 230.964844 392.226562 C 230.375 393.085938 229.75 393.917969 229.09375 394.722656 C 228.433594 395.53125 227.742188 396.308594 227.019531 397.058594 C 226.296875 397.808594 225.542969 398.523438 224.757812 399.210938 C 223.976562 399.898438 223.167969 400.550781 222.328125 401.171875 C 221.492188 401.789062 220.628906 402.371094 219.742188 402.921875 C 218.859375 403.46875 217.949219 403.976562 217.023438 404.449219 C 216.09375 404.921875 215.148438 405.355469 214.183594 405.75 C 213.21875 406.140625 212.238281 406.496094 211.246094 406.808594 C 210.253906 407.121094 209.246094 407.390625 208.230469 407.617188 C 207.214844 407.847656 206.191406 408.03125 205.160156 408.175781 C 204.128906 408.320312 203.089844 408.417969 202.050781 408.476562 C 201.011719 408.535156 199.96875 408.546875 198.929688 408.519531 L 194.34375 408.519531 C 168.445312 408.519531 150.101562 385.304688 157.996094 362.960938 L 216.8125 195.710938 Z M 279.632812 195.710938 " fill-opacity="1" fill-rule="nonzero"/><path fill="#ff641a" d="M 342.339844 195.710938 L 321.085938 377.355469 C 320.914062 378.457031 320.6875 379.550781 320.414062 380.636719 C 320.140625 381.71875 319.820312 382.785156 319.449219 383.839844 C 319.078125 384.894531 318.660156 385.929688 318.195312 386.945312 C 317.730469 387.960938 317.21875 388.953125 316.664062 389.925781 C 316.109375 390.894531 315.511719 391.835938 314.871094 392.753906 C 314.230469 393.667969 313.550781 394.554688 312.832031 395.40625 C 312.109375 396.261719 311.351562 397.082031 310.558594 397.867188 C 309.761719 398.652344 308.933594 399.398438 308.070312 400.109375 C 307.207031 400.820312 306.316406 401.492188 305.390625 402.121094 C 304.46875 402.75 303.519531 403.335938 302.542969 403.878906 C 301.5625 404.421875 300.566406 404.917969 299.542969 405.371094 C 298.519531 405.824219 297.480469 406.230469 296.421875 406.589844 C 295.363281 406.949219 294.292969 407.257812 293.203125 407.519531 C 292.117188 407.78125 291.019531 407.992188 289.914062 408.152344 C 288.808594 408.316406 287.699219 408.425781 286.582031 408.488281 C 285.464844 408.546875 284.347656 408.558594 283.234375 408.519531 L 276.960938 408.519531 C 252.632812 408.519531 234.578125 388.089844 239.628906 366.328125 L 279.632812 195.710938 Z M 342.339844 195.710938 " fill-opacity="1" fill-rule="nonzero"/><path fill="#d9f2ff" d="M 405.160156 195.710938 L 405.160156 373.640625 C 405.101562 374.835938 404.984375 376.023438 404.8125 377.203125 C 404.636719 378.386719 404.40625 379.558594 404.117188 380.714844 C 403.828125 381.875 403.484375 383.019531 403.085938 384.144531 C 402.683594 385.269531 402.230469 386.375 401.71875 387.453125 C 401.210938 388.535156 400.652344 389.589844 400.039062 390.617188 C 399.429688 391.644531 398.765625 392.636719 398.058594 393.597656 C 397.347656 394.5625 396.59375 395.484375 395.796875 396.375 C 394.996094 397.261719 394.152344 398.109375 393.269531 398.914062 C 392.386719 399.71875 391.46875 400.480469 390.511719 401.195312 C 389.554688 401.914062 388.5625 402.578125 387.542969 403.199219 C 386.519531 403.816406 385.46875 404.386719 384.390625 404.902344 C 383.3125 405.417969 382.210938 405.878906 381.089844 406.289062 C 379.964844 406.695312 378.824219 407.050781 377.667969 407.347656 C 376.507812 407.644531 375.339844 407.882812 374.15625 408.066406 C 372.976562 408.246094 371.789062 408.371094 370.59375 408.4375 C 369.402344 408.503906 368.207031 408.511719 367.011719 408.460938 L 359.929688 408.460938 C 337.230469 408.460938 319.289062 390.527344 321.957031 369.867188 L 342.339844 195.769531 Z M 405.160156 195.710938 " fill-opacity="1" fill-rule="nonzero"/><path fill="#ff641a" d="M 450.386719 408.519531 L 443.304688 408.519531 C 442.109375 408.570312 440.917969 408.5625 439.722656 408.496094 C 438.53125 408.429688 437.34375 408.304688 436.160156 408.121094 C 434.980469 407.941406 433.808594 407.699219 432.652344 407.402344 C 431.492188 407.105469 430.351562 406.753906 429.230469 406.347656 C 428.105469 405.9375 427.003906 405.476562 425.925781 404.960938 C 424.847656 404.441406 423.800781 403.875 422.777344 403.257812 C 421.753906 402.636719 420.765625 401.96875 419.808594 401.253906 C 418.851562 400.539062 417.929688 399.777344 417.046875 398.972656 C 416.164062 398.167969 415.324219 397.320312 414.523438 396.433594 C 413.722656 395.542969 412.96875 394.617188 412.261719 393.65625 C 411.550781 392.695312 410.890625 391.699219 410.277344 390.675781 C 409.667969 389.648438 409.105469 388.59375 408.597656 387.511719 C 408.089844 386.433594 407.632812 385.328125 407.234375 384.203125 C 406.832031 383.078125 406.488281 381.933594 406.199219 380.773438 C 405.910156 379.613281 405.679688 378.445312 405.507812 377.261719 C 405.332031 376.082031 405.21875 374.890625 405.160156 373.699219 L 405.160156 195.710938 L 467.980469 195.710938 L 488.359375 369.8125 C 490.738281 390.585938 473.089844 408.519531 450.386719 408.519531 Z M 450.386719 408.519531 " fill-opacity="1" fill-rule="nonzero"/><path fill="#d9f2ff" d="M 533.355469 408.519531 L 527.085938 408.519531 C 525.96875 408.5625 524.851562 408.550781 523.734375 408.492188 C 522.613281 408.433594 521.503906 408.324219 520.394531 408.164062 C 519.289062 408 518.191406 407.792969 517.101562 407.53125 C 516.011719 407.269531 514.9375 406.960938 513.878906 406.605469 C 512.820312 406.246094 511.777344 405.84375 510.753906 405.390625 C 509.730469 404.9375 508.730469 404.441406 507.75 403.898438 C 506.773438 403.355469 505.820312 402.769531 504.894531 402.140625 C 503.96875 401.511719 503.074219 400.839844 502.210938 400.128906 C 501.347656 399.417969 500.515625 398.671875 499.71875 397.886719 C 498.925781 397.101562 498.164062 396.28125 497.441406 395.425781 C 496.722656 394.570312 496.039062 393.683594 495.398438 392.769531 C 494.757812 391.851562 494.15625 390.910156 493.601562 389.9375 C 493.046875 388.96875 492.535156 387.972656 492.070312 386.957031 C 491.605469 385.9375 491.1875 384.902344 490.816406 383.847656 C 490.445312 382.792969 490.121094 381.722656 489.847656 380.640625 C 489.570312 379.554688 489.347656 378.460938 489.171875 377.355469 L 467.921875 195.710938 L 530.628906 195.710938 L 570.632812 366.328125 C 575.742188 388.148438 557.683594 408.519531 533.355469 408.519531 Z M 533.355469 408.519531 " fill-opacity="1" fill-rule="nonzero"/><path fill="#ff641a" d="M 615.976562 408.519531 L 611.390625 408.519531 C 610.347656 408.546875 609.308594 408.535156 608.265625 408.476562 C 607.226562 408.417969 606.191406 408.320312 605.160156 408.175781 C 604.128906 408.03125 603.105469 407.847656 602.085938 407.617188 C 601.070312 407.390625 600.066406 407.121094 599.074219 406.808594 C 598.078125 406.496094 597.097656 406.140625 596.136719 405.75 C 595.171875 405.355469 594.222656 404.921875 593.296875 404.449219 C 592.367188 403.976562 591.460938 403.46875 590.574219 402.921875 C 589.6875 402.371094 588.828125 401.789062 587.988281 401.171875 C 587.152344 400.550781 586.339844 399.898438 585.558594 399.210938 C 584.777344 398.523438 584.023438 397.808594 583.300781 397.058594 C 582.574219 396.308594 581.886719 395.53125 581.226562 394.722656 C 580.566406 393.917969 579.945312 393.085938 579.355469 392.226562 C 578.765625 391.367188 578.214844 390.484375 577.695312 389.582031 C 577.179688 388.675781 576.703125 387.75 576.265625 386.808594 C 575.824219 385.863281 575.425781 384.902344 575.066406 383.925781 C 574.710938 382.949219 574.390625 381.957031 574.113281 380.953125 L 530.6875 195.710938 L 593.507812 195.710938 L 652.320312 362.960938 C 660.21875 385.480469 641.871094 408.519531 615.976562 408.519531 Z M 615.976562 408.519531 " fill-opacity="1" fill-rule="nonzero"/><path fill="#d9f2ff" d="M 696.15625 408.519531 C 694.214844 408.566406 692.28125 408.46875 690.355469 408.21875 C 688.429688 407.972656 686.53125 407.578125 684.667969 407.039062 C 682.800781 406.5 680.984375 405.820312 679.222656 405.003906 C 677.460938 404.1875 675.773438 403.242188 674.15625 402.164062 C 672.539062 401.085938 671.015625 399.894531 669.582031 398.585938 C 668.148438 397.273438 666.824219 395.863281 665.605469 394.347656 C 664.390625 392.835938 663.296875 391.238281 662.324219 389.554688 C 661.351562 387.875 660.515625 386.128906 659.8125 384.320312 L 593.507812 195.710938 L 643.554688 195.710938 C 644.382812 195.710938 645.203125 195.769531 646.019531 195.890625 C 646.839844 196.007812 647.644531 196.179688 648.4375 196.414062 C 649.230469 196.644531 650.003906 196.933594 650.753906 197.273438 C 651.507812 197.617188 652.230469 198.011719 652.925781 198.457031 C 653.621094 198.902344 654.285156 199.394531 654.910156 199.933594 C 655.535156 200.472656 656.121094 201.050781 656.664062 201.671875 C 657.207031 202.296875 657.703125 202.953125 658.152344 203.644531 C 658.601562 204.339844 659 205.058594 659.347656 205.808594 L 731.226562 360.003906 C 741.910156 382.984375 723.503906 408.519531 696.15625 408.519531 Z M 696.15625 408.519531 " fill-opacity="1" fill-rule="nonzero"/><g clip-path="url(#94c0b9a12c)"><path fill="#63ba00" d="M 515.300781 180.796875 C 515.300781 182.597656 515.253906 184.398438 515.167969 186.199219 C 515.078125 188 514.945312 189.792969 514.769531 191.585938 C 514.59375 193.378906 514.371094 195.167969 514.109375 196.949219 C 513.84375 198.734375 513.535156 200.507812 513.183594 202.273438 C 512.832031 204.042969 512.4375 205.796875 512 207.546875 C 511.5625 209.292969 511.082031 211.03125 510.558594 212.753906 C 510.035156 214.476562 509.46875 216.1875 508.859375 217.882812 C 508.253906 219.582031 507.605469 221.261719 506.914062 222.925781 C 506.226562 224.589844 505.496094 226.238281 504.726562 227.867188 C 503.953125 229.496094 503.144531 231.105469 502.292969 232.691406 C 501.445312 234.28125 500.554688 235.847656 499.628906 237.394531 C 498.703125 238.9375 497.738281 240.460938 496.738281 241.960938 C 495.734375 243.457031 494.699219 244.929688 493.625 246.375 C 492.550781 247.824219 491.441406 249.242188 490.300781 250.636719 C 489.15625 252.027344 487.976562 253.394531 486.769531 254.726562 C 485.558594 256.0625 484.316406 257.367188 483.039062 258.640625 C 481.765625 259.914062 480.460938 261.15625 479.125 262.367188 C 477.789062 263.578125 476.425781 264.753906 475.03125 265.898438 C 473.636719 267.039062 472.21875 268.148438 470.769531 269.222656 C 469.320312 270.292969 467.847656 271.332031 466.351562 272.332031 C 464.851562 273.332031 463.328125 274.296875 461.78125 275.222656 C 460.238281 276.148438 458.667969 277.039062 457.078125 277.886719 C 455.488281 278.734375 453.878906 279.546875 452.25 280.316406 C 450.621094 281.085938 448.972656 281.816406 447.308594 282.503906 C 445.644531 283.195312 443.960938 283.84375 442.265625 284.449219 C 440.566406 285.058594 438.855469 285.621094 437.132812 286.144531 C 435.40625 286.667969 433.667969 287.148438 431.921875 287.585938 C 430.171875 288.023438 428.414062 288.417969 426.648438 288.769531 C 424.878906 289.121094 423.101562 289.429688 421.320312 289.695312 C 419.539062 289.957031 417.75 290.179688 415.953125 290.355469 C 414.160156 290.53125 412.363281 290.664062 410.5625 290.753906 C 408.761719 290.839844 406.960938 290.886719 405.160156 290.886719 C 403.355469 290.886719 401.554688 290.839844 399.753906 290.753906 C 397.953125 290.664062 396.15625 290.53125 394.363281 290.355469 C 392.570312 290.179688 390.78125 289.957031 389 289.695312 C 387.214844 289.429688 385.441406 289.121094 383.671875 288.769531 C 381.902344 288.417969 380.144531 288.023438 378.398438 287.585938 C 376.648438 287.148438 374.910156 286.667969 373.1875 286.144531 C 371.460938 285.621094 369.75 285.058594 368.054688 284.449219 C 366.355469 283.84375 364.675781 283.195312 363.011719 282.503906 C 361.34375 281.816406 359.699219 281.085938 358.066406 280.316406 C 356.4375 279.546875 354.828125 278.734375 353.238281 277.886719 C 351.648438 277.039062 350.082031 276.148438 348.535156 275.222656 C 346.988281 274.296875 345.46875 273.332031 343.96875 272.332031 C 342.46875 271.332031 340.996094 270.292969 339.546875 269.222656 C 338.101562 268.148438 336.679688 267.039062 335.285156 265.898438 C 333.894531 264.753906 332.527344 263.578125 331.195312 262.367188 C 329.859375 261.15625 328.550781 259.914062 327.277344 258.640625 C 326.003906 257.367188 324.761719 256.0625 323.550781 254.726562 C 322.339844 253.394531 321.164062 252.027344 320.019531 250.636719 C 318.875 249.242188 317.765625 247.824219 316.695312 246.375 C 315.621094 244.929688 314.582031 243.457031 313.582031 241.960938 C 312.578125 240.460938 311.613281 238.9375 310.6875 237.394531 C 309.761719 235.847656 308.875 234.28125 308.023438 232.691406 C 307.175781 231.105469 306.363281 229.496094 305.59375 227.867188 C 304.824219 226.238281 304.09375 224.589844 303.402344 222.925781 C 302.710938 221.261719 302.0625 219.582031 301.457031 217.882812 C 300.851562 216.1875 300.285156 214.476562 299.761719 212.753906 C 299.238281 211.03125 298.757812 209.292969 298.320312 207.546875 C 297.882812 205.796875 297.488281 204.042969 297.136719 202.273438 C 296.785156 200.507812 296.476562 198.734375 296.210938 196.949219 C 295.945312 195.167969 295.726562 193.378906 295.550781 191.585938 C 295.371094 189.792969 295.238281 188 295.152344 186.199219 C 295.0625 184.398438 295.019531 182.597656 295.019531 180.796875 C 295.019531 178.996094 295.0625 177.195312 295.152344 175.394531 C 295.238281 173.59375 295.371094 171.800781 295.550781 170.007812 C 295.726562 168.214844 295.945312 166.425781 296.210938 164.644531 C 296.476562 162.863281 296.785156 161.085938 297.136719 159.320312 C 297.488281 157.550781 297.882812 155.796875 298.320312 154.046875 C 298.757812 152.300781 299.238281 150.5625 299.761719 148.839844 C 300.285156 147.117188 300.851562 145.40625 301.457031 143.710938 C 302.0625 142.011719 302.710938 140.332031 303.402344 138.667969 C 304.09375 137.003906 304.824219 135.355469 305.59375 133.726562 C 306.363281 132.097656 307.175781 130.492188 308.023438 128.902344 C 308.875 127.3125 309.761719 125.746094 310.6875 124.199219 C 311.613281 122.65625 312.578125 121.132812 313.582031 119.636719 C 314.582031 118.136719 315.621094 116.664062 316.695312 115.21875 C 317.765625 113.769531 318.875 112.351562 320.019531 110.957031 C 321.164062 109.566406 322.339844 108.199219 323.550781 106.867188 C 324.761719 105.53125 326.003906 104.226562 327.277344 102.953125 C 328.550781 101.679688 329.859375 100.4375 331.195312 99.226562 C 332.527344 98.015625 333.894531 96.839844 335.285156 95.695312 C 336.679688 94.554688 338.101562 93.445312 339.546875 92.371094 C 340.996094 91.300781 342.46875 90.261719 343.96875 89.261719 C 345.46875 88.261719 346.988281 87.296875 348.535156 86.371094 C 350.082031 85.445312 351.648438 84.558594 353.238281 83.707031 C 354.828125 82.859375 356.4375 82.046875 358.066406 81.277344 C 359.699219 80.507812 361.34375 79.777344 363.011719 79.089844 C 364.675781 78.398438 366.355469 77.75 368.054688 77.144531 C 369.75 76.535156 371.460938 75.972656 373.1875 75.449219 C 374.910156 74.925781 376.648438 74.445312 378.398438 74.007812 C 380.144531 73.570312 381.902344 73.175781 383.671875 72.824219 C 385.441406 72.472656 387.214844 72.164062 389 71.898438 C 390.78125 71.636719 392.570312 71.414062 394.363281 71.238281 C 396.15625 71.0625 397.953125 70.929688 399.753906 70.839844 C 401.554688 70.753906 403.355469 70.707031 405.160156 70.707031 C 406.960938 70.707031 408.761719 70.753906 410.5625 70.839844 C 412.363281 70.929688 414.160156 71.0625 415.953125 71.238281 C 417.75 71.414062 419.539062 71.636719 421.320312 71.898438 C 423.101562 72.164062 424.878906 72.472656 426.648438 72.824219 C 428.414062 73.175781 430.171875 73.570312 431.921875 74.007812 C 433.667969 74.445312 435.40625 74.925781 437.132812 75.449219 C 438.855469 75.972656 440.566406 76.535156 442.265625 77.144531 C 443.960938 77.75 445.644531 78.398438 447.308594 79.089844 C 448.972656 79.777344 450.621094 80.507812 452.25 81.277344 C 453.878906 82.046875 455.488281 82.859375 457.078125 83.707031 C 458.667969 84.558594 460.238281 85.445312 461.78125 86.371094 C 463.328125 87.296875 464.851562 88.261719 466.351562 89.261719 C 467.847656 90.261719 469.320312 91.300781 470.769531 92.371094 C 472.21875 93.445312 473.636719 94.554688 475.03125 95.695312 C 476.425781 96.839844 477.789062 98.015625 479.125 99.226562 C 480.460938 100.4375 481.765625 101.679688 483.039062 102.953125 C 484.316406 104.226562 485.558594 105.53125 486.769531 106.867188 C 487.976562 108.199219 489.15625 109.566406 490.300781 110.957031 C 491.441406 112.351562 492.550781 113.769531 493.625 115.21875 C 494.699219 116.664062 495.734375 118.136719 496.738281 119.636719 C 497.738281 121.132812 498.703125 122.65625 499.628906 124.199219 C 500.554688 125.746094 501.445312 127.3125 502.292969 128.902344 C 503.144531 130.492188 503.953125 132.097656 504.726562 133.726562 C 505.496094 135.355469 506.226562 137.003906 506.914062 138.667969 C 507.605469 140.332031 508.253906 142.011719 508.859375 143.710938 C 509.46875 145.40625 510.035156 147.117188 510.558594 148.839844 C 511.082031 150.5625 511.5625 152.300781 512 154.046875 C 512.4375 155.796875 512.832031 157.550781 513.183594 159.320312 C 513.535156 161.085938 513.84375 162.863281 514.109375 164.644531 C 514.371094 166.425781 514.59375 168.214844 514.769531 170.007812 C 514.945312 171.800781 515.078125 173.59375 515.167969 175.394531 C 515.253906 177.195312 515.300781 178.996094 515.300781 180.796875 Z M 515.300781 180.796875 " fill-opacity="1" fill-rule="nonzero"/></g><path fill="#d9f2ff" d="M 395.984375 118.46875 C 395.605469 118.46875 395.226562 118.507812 394.851562 118.582031 C 394.480469 118.65625 394.117188 118.765625 393.765625 118.910156 C 393.410156 119.058594 393.078125 119.234375 392.761719 119.449219 C 392.441406 119.660156 392.148438 119.898438 391.878906 120.167969 C 391.609375 120.4375 391.371094 120.730469 391.15625 121.046875 C 390.945312 121.367188 390.765625 121.699219 390.621094 122.050781 C 390.476562 122.402344 390.367188 122.765625 390.292969 123.140625 C 390.21875 123.515625 390.179688 123.890625 390.179688 124.273438 L 390.179688 148.007812 C 390.175781 148.859375 390.105469 149.707031 389.972656 150.546875 C 389.839844 151.386719 389.644531 152.214844 389.382812 153.023438 C 389.125 153.835938 388.804688 154.621094 388.425781 155.382812 C 388.046875 156.148438 387.613281 156.875 387.121094 157.574219 C 386.632812 158.269531 386.09375 158.921875 385.503906 159.539062 C 384.914062 160.152344 384.28125 160.71875 383.601562 161.234375 C 382.925781 161.753906 382.214844 162.214844 381.46875 162.625 C 380.722656 163.035156 379.949219 163.386719 379.148438 163.675781 L 379.148438 124.273438 C 379.148438 123.890625 379.109375 123.515625 379.035156 123.140625 C 378.960938 122.765625 378.851562 122.402344 378.707031 122.050781 C 378.558594 121.699219 378.382812 121.367188 378.167969 121.046875 C 377.957031 120.730469 377.71875 120.4375 377.449219 120.167969 C 377.179688 119.898438 376.882812 119.660156 376.566406 119.449219 C 376.25 119.234375 375.917969 119.058594 375.5625 118.910156 C 375.210938 118.765625 374.847656 118.65625 374.476562 118.582031 C 374.101562 118.507812 373.722656 118.46875 373.34375 118.46875 C 372.960938 118.46875 372.582031 118.507812 372.210938 118.582031 C 371.835938 118.65625 371.472656 118.765625 371.121094 118.910156 C 370.769531 119.058594 370.433594 119.234375 370.117188 119.449219 C 369.800781 119.660156 369.507812 119.898438 369.238281 120.167969 C 368.96875 120.4375 368.726562 120.730469 368.515625 121.046875 C 368.304688 121.367188 368.125 121.699219 367.976562 122.050781 C 367.832031 122.402344 367.722656 122.765625 367.648438 123.140625 C 367.574219 123.515625 367.535156 123.890625 367.535156 124.273438 L 367.535156 163.675781 C 366.738281 163.386719 365.964844 163.035156 365.21875 162.625 C 364.476562 162.214844 363.765625 161.75 363.089844 161.230469 C 362.417969 160.714844 361.785156 160.148438 361.199219 159.53125 C 360.609375 158.917969 360.074219 158.261719 359.585938 157.566406 C 359.097656 156.871094 358.664062 156.140625 358.289062 155.378906 C 357.914062 154.617188 357.597656 153.828125 357.339844 153.019531 C 357.082031 152.207031 356.890625 151.382812 356.761719 150.542969 C 356.628906 149.703125 356.5625 148.859375 356.5625 148.007812 L 356.5625 124.273438 C 356.5625 123.890625 356.527344 123.515625 356.449219 123.140625 C 356.375 122.765625 356.265625 122.402344 356.121094 122.050781 C 355.976562 121.699219 355.796875 121.367188 355.585938 121.046875 C 355.371094 120.730469 355.132812 120.4375 354.863281 120.167969 C 354.59375 119.898438 354.300781 119.660156 353.980469 119.449219 C 353.664062 119.234375 353.332031 119.058594 352.976562 118.910156 C 352.625 118.765625 352.261719 118.65625 351.890625 118.582031 C 351.515625 118.507812 351.136719 118.46875 350.757812 118.46875 C 350.375 118.46875 349.996094 118.507812 349.625 118.582031 C 349.25 118.65625 348.886719 118.765625 348.535156 118.910156 C 348.183594 119.058594 347.847656 119.234375 347.53125 119.449219 C 347.214844 119.660156 346.921875 119.898438 346.652344 120.167969 C 346.382812 120.4375 346.140625 120.730469 345.929688 121.046875 C 345.71875 121.367188 345.539062 121.699219 345.390625 122.050781 C 345.246094 122.402344 345.136719 122.765625 345.0625 123.140625 C 344.988281 123.515625 344.949219 123.890625 344.949219 124.273438 L 344.949219 148.007812 C 344.949219 149.625 345.085938 151.234375 345.359375 152.828125 C 345.632812 154.425781 346.042969 155.984375 346.582031 157.511719 C 347.125 159.035156 347.789062 160.503906 348.582031 161.914062 C 349.375 163.328125 350.28125 164.660156 351.304688 165.917969 C 352.324219 167.175781 353.445312 168.335938 354.664062 169.398438 C 355.882812 170.464844 357.183594 171.417969 358.566406 172.261719 C 359.949219 173.101562 361.394531 173.820312 362.898438 174.417969 C 364.40625 175.011719 365.949219 175.476562 367.535156 175.804688 L 367.535156 237.261719 C 367.535156 237.644531 367.574219 238.023438 367.648438 238.394531 C 367.722656 238.769531 367.832031 239.132812 367.976562 239.484375 C 368.125 239.835938 368.304688 240.171875 368.515625 240.488281 C 368.726562 240.804688 368.96875 241.097656 369.238281 241.367188 C 369.507812 241.636719 369.800781 241.875 370.117188 242.089844 C 370.433594 242.300781 370.769531 242.480469 371.121094 242.625 C 371.472656 242.769531 371.835938 242.878906 372.210938 242.953125 C 372.582031 243.03125 372.960938 243.066406 373.34375 243.066406 C 373.722656 243.066406 374.101562 243.03125 374.476562 242.953125 C 374.847656 242.878906 375.210938 242.769531 375.5625 242.625 C 375.917969 242.480469 376.25 242.300781 376.566406 242.089844 C 376.882812 241.875 377.179688 241.636719 377.449219 241.367188 C 377.71875 241.097656 377.957031 240.804688 378.167969 240.488281 C 378.382812 240.171875 378.558594 239.835938 378.707031 239.484375 C 378.851562 239.132812 378.960938 238.769531 379.035156 238.394531 C 379.109375 238.023438 379.148438 237.644531 379.148438 237.261719 L 379.148438 175.804688 C 380.734375 175.476562 382.28125 175.011719 383.789062 174.417969 C 385.296875 173.824219 386.742188 173.105469 388.128906 172.261719 C 389.511719 171.421875 390.816406 170.46875 392.035156 169.402344 C 393.257812 168.339844 394.378906 167.179688 395.402344 165.921875 C 396.425781 164.667969 397.335938 163.332031 398.132812 161.921875 C 398.925781 160.507812 399.597656 159.039062 400.140625 157.515625 C 400.683594 155.988281 401.09375 154.429688 401.371094 152.832031 C 401.648438 151.234375 401.789062 149.628906 401.792969 148.007812 L 401.792969 124.273438 C 401.792969 123.890625 401.753906 123.515625 401.679688 123.140625 C 401.605469 122.765625 401.496094 122.402344 401.351562 122.050781 C 401.203125 121.699219 401.023438 121.367188 400.8125 121.046875 C 400.601562 120.730469 400.359375 120.4375 400.089844 120.167969 C 399.820312 119.898438 399.527344 119.660156 399.210938 119.449219 C 398.894531 119.234375 398.558594 119.058594 398.207031 118.910156 C 397.855469 118.765625 397.492188 118.65625 397.117188 118.582031 C 396.746094 118.507812 396.367188 118.46875 395.984375 118.46875 Z M 395.984375 118.46875 " fill-opacity="1" fill-rule="nonzero"/><path fill="#d9f2ff" d="M 465.367188 147.429688 C 465.367188 131.46875 454.453125 118.410156 441.039062 118.410156 C 427.628906 118.410156 416.769531 131.46875 416.769531 147.429688 C 416.695312 148.925781 416.738281 150.421875 416.898438 151.917969 C 417.058594 153.410156 417.335938 154.878906 417.734375 156.328125 C 418.128906 157.777344 418.636719 159.183594 419.253906 160.554688 C 419.875 161.921875 420.597656 163.230469 421.425781 164.484375 C 422.253906 165.738281 423.175781 166.917969 424.191406 168.023438 C 425.207031 169.128906 426.300781 170.148438 427.480469 171.082031 C 428.65625 172.011719 429.902344 172.84375 431.210938 173.578125 C 432.523438 174.3125 433.882812 174.941406 435.292969 175.457031 L 435.292969 237.261719 C 435.292969 237.644531 435.328125 238.023438 435.402344 238.394531 C 435.476562 238.769531 435.589844 239.132812 435.734375 239.484375 C 435.878906 239.835938 436.058594 240.171875 436.269531 240.488281 C 436.484375 240.804688 436.722656 241.097656 436.992188 241.367188 C 437.261719 241.636719 437.554688 241.875 437.871094 242.089844 C 438.191406 242.300781 438.523438 242.480469 438.875 242.625 C 439.230469 242.769531 439.59375 242.878906 439.964844 242.953125 C 440.339844 243.03125 440.71875 243.066406 441.097656 243.066406 C 441.480469 243.066406 441.855469 243.03125 442.230469 242.953125 C 442.605469 242.878906 442.96875 242.769531 443.320312 242.625 C 443.671875 242.480469 444.007812 242.300781 444.324219 242.089844 C 444.640625 241.875 444.933594 241.636719 445.203125 241.367188 C 445.472656 241.097656 445.714844 240.804688 445.925781 240.488281 C 446.136719 240.171875 446.316406 239.835938 446.460938 239.484375 C 446.609375 239.132812 446.71875 238.769531 446.792969 238.394531 C 446.867188 238.023438 446.90625 237.644531 446.90625 237.261719 L 446.90625 175.457031 C 448.3125 174.9375 449.667969 174.308594 450.976562 173.574219 C 452.285156 172.835938 453.523438 172.003906 454.699219 171.070312 C 455.875 170.136719 456.96875 169.117188 457.980469 168.011719 C 458.992188 166.902344 459.914062 165.722656 460.738281 164.472656 C 461.5625 163.21875 462.285156 161.910156 462.902344 160.542969 C 463.515625 159.175781 464.023438 157.765625 464.414062 156.320312 C 464.808594 154.871094 465.085938 153.402344 465.246094 151.910156 C 465.40625 150.421875 465.445312 148.925781 465.367188 147.429688 Z M 441.039062 164.839844 C 434.132812 164.839844 428.324219 156.886719 428.324219 147.429688 C 428.324219 137.96875 434.132812 130.019531 441.039062 130.019531 C 447.949219 130.019531 453.753906 137.96875 453.753906 147.429688 C 453.753906 156.886719 447.949219 164.78125 441.039062 164.78125 Z M 441.039062 164.839844 " fill-opacity="1" fill-rule="nonzero"/><path fill="#f03800" d="M 168.621094 474.964844 L 280.15625 474.964844 L 280.15625 692.011719 L 168.621094 692.011719 Z M 168.621094 474.964844 " fill-opacity="1" fill-rule="nonzero"/><path fill="#d9f2ff" d="M 342.859375 474.964844 L 641.753906 474.964844 L 641.753906 633.804688 L 342.859375 633.804688 Z M 342.859375 474.964844 " fill-opacity="1" fill-rule="nonzero"/><path fill="#b6ebfe" d="M 391.6875 555.109375 C 391.121094 555.097656 390.566406 555 390.023438 554.824219 C 389.484375 554.648438 388.976562 554.398438 388.511719 554.070312 C 388.042969 553.746094 387.632812 553.359375 387.28125 552.914062 C 386.925781 552.46875 386.644531 551.980469 386.433594 551.453125 C 386.222656 550.925781 386.09375 550.375 386.042969 549.808594 C 385.996094 549.242188 386.027344 548.679688 386.144531 548.125 C 386.261719 547.566406 386.453125 547.039062 386.726562 546.539062 C 387 546.039062 387.335938 545.585938 387.742188 545.1875 L 413.519531 519.421875 C 413.789062 519.152344 414.082031 518.914062 414.398438 518.703125 C 414.714844 518.492188 415.046875 518.316406 415.398438 518.171875 C 415.75 518.027344 416.113281 517.917969 416.484375 517.84375 C 416.855469 517.769531 417.234375 517.734375 417.613281 517.734375 C 417.992188 517.734375 418.367188 517.769531 418.742188 517.84375 C 419.113281 517.917969 419.476562 518.027344 419.828125 518.171875 C 420.179688 518.316406 420.511719 518.492188 420.828125 518.703125 C 421.144531 518.914062 421.4375 519.152344 421.707031 519.421875 C 421.980469 519.691406 422.222656 519.984375 422.433594 520.300781 C 422.648438 520.621094 422.828125 520.953125 422.976562 521.308594 C 423.125 521.664062 423.234375 522.027344 423.3125 522.402344 C 423.386719 522.777344 423.421875 523.15625 423.425781 523.539062 C 423.421875 523.921875 423.386719 524.304688 423.3125 524.679688 C 423.234375 525.054688 423.125 525.417969 422.976562 525.773438 C 422.828125 526.125 422.648438 526.460938 422.433594 526.78125 C 422.222656 527.097656 421.980469 527.390625 421.707031 527.660156 L 395.925781 553.371094 C 395.371094 553.9375 394.722656 554.371094 393.988281 554.675781 C 393.25 554.976562 392.484375 555.121094 391.6875 555.109375 Z M 391.6875 555.109375 " fill-opacity="1" fill-rule="nonzero"/><path fill="#b6ebfe" d="M 393.140625 591.265625 C 392.367188 591.269531 391.625 591.125 390.910156 590.835938 C 390.199219 590.542969 389.566406 590.125 389.019531 589.582031 C 388.75 589.3125 388.511719 589.019531 388.300781 588.703125 C 388.089844 588.386719 387.914062 588.054688 387.769531 587.703125 C 387.625 587.351562 387.515625 586.992188 387.441406 586.617188 C 387.367188 586.246094 387.332031 585.871094 387.332031 585.492188 C 387.332031 585.109375 387.367188 584.734375 387.441406 584.363281 C 387.515625 583.992188 387.625 583.628906 387.769531 583.277344 C 387.914062 582.925781 388.089844 582.59375 388.300781 582.277344 C 388.511719 581.960938 388.75 581.667969 389.019531 581.398438 L 449.226562 520.871094 C 449.496094 520.601562 449.792969 520.363281 450.109375 520.152344 C 450.429688 519.941406 450.761719 519.765625 451.117188 519.621094 C 451.46875 519.476562 451.832031 519.371094 452.207031 519.296875 C 452.582031 519.222656 452.957031 519.1875 453.339844 519.191406 C 453.71875 519.191406 454.097656 519.230469 454.472656 519.304688 C 454.84375 519.382812 455.207031 519.492188 455.558594 519.640625 C 455.910156 519.789062 456.246094 519.96875 456.558594 520.179688 C 456.875 520.394531 457.167969 520.632812 457.4375 520.90625 C 457.707031 521.175781 457.945312 521.46875 458.15625 521.785156 C 458.367188 522.105469 458.542969 522.4375 458.6875 522.792969 C 458.835938 523.144531 458.941406 523.507812 459.015625 523.882812 C 459.089844 524.253906 459.125 524.632812 459.125 525.011719 C 459.125 525.394531 459.085938 525.769531 459.007812 526.144531 C 458.933594 526.519531 458.824219 526.878906 458.675781 527.230469 C 458.53125 527.582031 458.351562 527.917969 458.136719 528.234375 C 457.925781 528.550781 457.683594 528.84375 457.414062 529.113281 L 397.203125 589.292969 C 396.6875 589.882812 396.078125 590.347656 395.371094 590.691406 C 394.667969 591.03125 393.921875 591.222656 393.140625 591.265625 Z M 393.140625 591.265625 " fill-opacity="1" fill-rule="nonzero"/></svg>