<svg xmlns="http://www.w3.org/2000/svg" xmlns:xlink="http://www.w3.org/1999/xlink" width="1080" zoomAndPan="magnify" viewBox="0 0 810 809.999993" height="1080" preserveAspectRatio="xMidYMid meet" version="1.0"><defs><clipPath id="845729c6c2"><path d="M 373.050781 187.363281 L 715 187.363281 L 715 722.101562 L 373.050781 722.101562 Z M 373.050781 187.363281 " clip-rule="nonzero"/></clipPath><clipPath id="73c8420000"><path d="M 122 704.214844 L 411 704.214844 L 411 722 L 122 722 Z M 122 704.214844 " clip-rule="nonzero"/></clipPath><clipPath id="a4a49dae64"><path d="M 404 721.398438 L 410 721.398438 L 410 722.101562 L 404 722.101562 Z M 404 721.398438 " clip-rule="nonzero"/></clipPath><clipPath id="ce274c98a5"><path d="M 409 721.398438 L 410 721.398438 L 410 722 L 409 722 Z M 409 721.398438 " clip-rule="nonzero"/></clipPath><clipPath id="4376921dc1"><path d="M 122 704.214844 L 410 704.214844 L 410 722 L 122 722 Z M 122 704.214844 " clip-rule="nonzero"/></clipPath><clipPath id="266a23013f"><path d="M 154 360 L 266 360 L 266 385.644531 L 154 385.644531 Z M 154 360 " clip-rule="nonzero"/></clipPath><clipPath id="29ed64116f"><path d="M 159.179688 385.386719 L 154.601562 372.179688 L 247.941406 369.90625 L 247.839844 363.464844 L 243.253906 362.617188 L 242.523438 360.429688 L 253.914062 364.164062 L 265.871094 379.324219 L 258.507812 384.171875 L 159.179688 385.386719 " clip-rule="nonzero"/></clipPath><clipPath id="4cc8f58e28"><path d="M 442 161 L 741.75 161 L 741.75 246 L 442 246 Z M 442 161 " clip-rule="nonzero"/></clipPath><clipPath id="82670dbd10"><path d="M 409 692 L 673 692 L 673 722.101562 L 409 722.101562 Z M 409 692 " clip-rule="nonzero"/></clipPath></defs><rect x="-81" width="972" fill="#ffffff" y="-80.999999" height="971.999992" fill-opacity="1"/><rect x="-81" width="972" fill="#ffffff" y="-80.999999" height="971.999992" fill-opacity="1"/><path fill="#c9a9a4" d="M 730.238281 243.023438 L 725.632812 249.9375 L 426.339844 194.667969 L 428.640625 171.636719 L 730.238281 243.023438 " fill-opacity="1" fill-rule="nonzero"/><path fill="#942d42" d="M 336.808594 89.242188 L 702.609375 208.480469 L 739.449219 240.722656 L 424.039062 167.03125 L 336.808594 89.242188 " fill-opacity="1" fill-rule="nonzero"/><g clip-path="url(#845729c6c2)"><path fill="#d29f9a" d="M 714.105469 247.785156 L 665.773438 696.703125 L 409.972656 722.027344 L 373.390625 705.914062 L 396.410156 187.757812 L 714.105469 247.785156 " fill-opacity="1" fill-rule="nonzero"/></g><path fill="#bb5b72" d="M 88.355469 164.121094 L 175.734375 88.679688 L 336.691406 88.679688 L 429.585938 164.121094 L 88.355469 164.121094 " fill-opacity="1" fill-rule="nonzero"/><path fill="#d86a87" d="M 86.519531 161.824219 L 173.890625 89.140625 L 248.398438 88.222656 L 237.355469 95.578125 L 198.726562 97.421875 L 137.105469 157.222656 L 162.859375 157.222656 L 159.179688 166.421875 L 86.519531 161.824219 " fill-opacity="1" fill-rule="nonzero"/><path fill="#a83c56" d="M 139.878906 114.824219 L 139.882812 114.886719 C 140.011719 114.539062 142.066406 109.253906 147.949219 109.03125 C 154.027344 108.804688 154.714844 114.125 154.714844 114.125 C 154.714844 114.125 154.765625 109.222656 160.367188 108.859375 C 165.96875 108.492188 166.875 113.71875 166.875 113.71875 C 166.875 113.71875 168.410156 108.226562 172.5 108.023438 C 176.585938 107.820312 182.714844 113.734375 182.714844 113.734375 C 182.714844 113.734375 182.136719 108.226562 187.640625 108.148438 C 193.148438 108.070312 195.101562 113.183594 195.101562 113.183594 C 195.101562 113.183594 196.972656 107.492188 203.429688 107.59375 C 209.558594 107.6875 211.863281 112.550781 212.085938 113.046875 C 211.878906 112.546875 210.046875 107.636719 217.371094 107.402344 C 222.421875 107.238281 224.691406 110.429688 225.664062 112.65625 C 226.175781 113.835938 226.320312 114.824219 226.320312 114.824219 L 139.878906 114.824219 " fill-opacity="1" fill-rule="nonzero"/><path fill="#a83c56" d="M 115.050781 135.984375 L 115.054688 136.046875 C 115.179688 135.699219 117.234375 130.40625 123.117188 130.191406 C 129.195312 129.964844 129.878906 135.28125 129.878906 135.28125 C 129.878906 135.28125 129.9375 130.382812 135.539062 130.019531 C 141.132812 129.652344 142.046875 134.878906 142.046875 134.878906 C 142.046875 134.878906 143.574219 129.386719 147.664062 129.183594 C 151.75 128.988281 157.878906 134.894531 157.878906 134.894531 C 157.878906 134.894531 157.300781 129.386719 162.808594 129.308594 C 168.3125 129.230469 170.269531 134.34375 170.269531 134.34375 C 170.269531 134.34375 172.136719 128.652344 178.59375 128.753906 C 184.726562 128.847656 187.035156 133.710938 187.25 134.207031 C 187.046875 133.707031 185.210938 128.796875 192.539062 128.558594 C 197.585938 128.398438 199.859375 131.589844 200.828125 133.816406 C 201.339844 134.996094 201.488281 135.984375 201.488281 135.984375 L 115.050781 135.984375 " fill-opacity="1" fill-rule="nonzero"/><path fill="#a83c56" d="M 95.734375 151.625 L 95.738281 151.6875 C 95.867188 151.339844 97.917969 146.046875 103.800781 145.832031 C 109.882812 145.605469 110.5625 150.921875 110.5625 150.921875 C 110.5625 150.921875 110.621094 146.023438 116.222656 145.65625 C 121.820312 145.292969 122.730469 150.519531 122.730469 150.519531 C 122.730469 150.519531 124.257812 145.027344 128.351562 144.824219 C 132.441406 144.621094 138.566406 150.535156 138.566406 150.535156 C 138.566406 150.535156 137.984375 145.027344 143.492188 144.949219 C 149 144.871094 150.957031 149.984375 150.957031 149.984375 C 150.957031 149.984375 152.820312 144.292969 159.277344 144.394531 C 165.410156 144.488281 167.71875 149.351562 167.941406 149.847656 C 167.734375 149.347656 165.894531 144.4375 173.226562 144.203125 C 178.269531 144.039062 180.546875 147.230469 181.511719 149.457031 C 182.027344 150.636719 182.171875 151.625 182.171875 151.625 L 95.734375 151.625 " fill-opacity="1" fill-rule="nonzero"/><path fill="#a83c56" d="M 370.71875 116.769531 L 370.714844 116.828125 C 370.589844 116.480469 368.535156 111.195312 362.65625 110.972656 C 356.574219 110.746094 355.886719 116.066406 355.886719 116.066406 C 355.886719 116.066406 355.835938 111.164062 350.234375 110.800781 C 344.632812 110.441406 343.726562 115.660156 343.726562 115.660156 C 343.726562 115.660156 342.191406 110.167969 338.105469 109.964844 C 334.015625 109.769531 327.886719 115.675781 327.886719 115.675781 C 327.886719 115.675781 328.464844 110.167969 322.964844 110.089844 C 317.457031 110.011719 315.5 115.125 315.5 115.125 C 315.5 115.125 313.628906 109.4375 307.171875 109.535156 C 301.046875 109.628906 298.738281 114.492188 298.515625 114.996094 C 298.722656 114.492188 300.554688 109.578125 293.230469 109.34375 C 288.179688 109.179688 285.910156 112.371094 284.9375 114.597656 C 284.429688 115.777344 284.277344 116.769531 284.277344 116.769531 L 370.71875 116.769531 " fill-opacity="1" fill-rule="nonzero"/><path fill="#a83c56" d="M 159.601562 98.472656 L 159.609375 98.527344 C 159.738281 98.183594 161.792969 92.894531 167.671875 92.671875 C 173.753906 92.445312 174.433594 97.769531 174.433594 97.769531 C 174.433594 97.769531 174.492188 92.867188 180.09375 92.5 C 185.691406 92.140625 186.601562 97.359375 186.601562 97.359375 C 186.601562 97.359375 188.132812 91.867188 192.222656 91.664062 C 196.3125 91.46875 202.4375 97.382812 202.4375 97.382812 C 202.4375 97.382812 201.855469 91.867188 207.363281 91.789062 C 212.871094 91.710938 214.828125 96.828125 214.828125 96.828125 C 214.828125 96.828125 216.691406 91.136719 223.152344 91.238281 C 229.28125 91.335938 231.589844 96.195312 231.8125 96.695312 C 231.605469 96.195312 229.765625 91.28125 237.097656 91.046875 C 242.144531 90.878906 244.417969 94.070312 245.382812 96.300781 C 245.898438 97.484375 246.042969 98.472656 246.042969 98.472656 L 159.601562 98.472656 " fill-opacity="1" fill-rule="nonzero"/><path fill="#a83c56" d="M 350.488281 99.183594 L 350.484375 99.246094 C 350.355469 98.898438 348.300781 93.613281 342.417969 93.390625 C 336.339844 93.164062 335.652344 98.484375 335.652344 98.484375 C 335.652344 98.484375 335.601562 93.582031 330 93.21875 C 324.398438 92.859375 323.488281 98.078125 323.488281 98.078125 C 323.488281 98.078125 321.957031 92.585938 317.867188 92.382812 C 313.78125 92.179688 307.652344 98.097656 307.652344 98.097656 C 307.652344 98.097656 308.230469 92.585938 302.726562 92.507812 C 297.21875 92.429688 295.261719 97.542969 295.261719 97.542969 C 295.261719 97.542969 293.394531 91.851562 286.9375 91.953125 C 280.808594 92.046875 278.503906 96.910156 278.28125 97.40625 C 278.488281 96.910156 280.320312 91.996094 272.996094 91.761719 C 267.945312 91.597656 265.675781 94.789062 264.710938 97.015625 C 264.191406 98.195312 264.046875 99.183594 264.046875 99.183594 L 350.488281 99.183594 " fill-opacity="1" fill-rule="nonzero"/><path fill="#a83c56" d="M 397.394531 137.925781 L 397.386719 137.988281 C 397.261719 137.640625 395.207031 132.355469 389.328125 132.132812 C 383.246094 131.90625 382.558594 137.230469 382.558594 137.230469 C 382.558594 137.230469 382.503906 132.324219 376.90625 131.960938 C 371.308594 131.59375 370.398438 136.820312 370.398438 136.820312 C 370.398438 136.820312 368.863281 131.328125 364.777344 131.125 C 360.6875 130.929688 354.5625 136.835938 354.5625 136.835938 C 354.5625 136.835938 355.140625 131.328125 349.636719 131.25 C 344.128906 131.171875 342.171875 136.285156 342.171875 136.285156 C 342.171875 136.285156 340.304688 130.597656 333.84375 130.695312 C 327.71875 130.789062 325.410156 135.652344 325.1875 136.15625 C 325.394531 135.652344 327.226562 130.738281 319.902344 130.5 C 314.855469 130.339844 312.582031 133.53125 311.613281 135.761719 C 311.101562 136.9375 310.957031 137.925781 310.957031 137.925781 L 397.394531 137.925781 " fill-opacity="1" fill-rule="nonzero"/><path fill="#a83c56" d="M 417.625 153.566406 L 417.621094 153.628906 C 417.496094 153.28125 415.441406 147.996094 409.5625 147.773438 C 403.476562 147.546875 402.796875 152.863281 402.796875 152.863281 C 402.796875 152.863281 402.738281 147.964844 397.136719 147.601562 C 391.542969 147.234375 390.628906 152.460938 390.628906 152.460938 C 390.628906 152.460938 389.101562 146.96875 385.011719 146.765625 C 380.921875 146.570312 374.792969 152.476562 374.792969 152.476562 C 374.792969 152.476562 375.375 146.96875 369.871094 146.890625 C 364.363281 146.8125 362.40625 151.925781 362.40625 151.925781 C 362.40625 151.925781 360.539062 146.238281 354.082031 146.335938 C 347.949219 146.429688 345.640625 151.292969 345.425781 151.796875 C 345.625 151.292969 347.464844 146.378906 340.136719 146.140625 C 335.089844 145.980469 332.816406 149.171875 331.847656 151.402344 C 331.335938 152.578125 331.1875 153.566406 331.1875 153.566406 L 417.625 153.566406 " fill-opacity="1" fill-rule="nonzero"/><path fill="#ffefda" d="M 153.046875 167.222656 C 153.046875 167.222656 182.925781 96.027344 269.304688 94.679688 C 355.679688 93.328125 368.835938 173.441406 368.835938 173.441406 L 153.046875 167.222656 " fill-opacity="1" fill-rule="nonzero"/><path fill="#fbc0a2" d="M 357.945312 171.699219 L 168.476562 166.242188 C 168.476562 166.242188 194.710938 103.734375 270.550781 102.542969 C 320.941406 101.761719 342.953125 132.535156 352.046875 153.292969 C 356.644531 163.773438 357.945312 171.699219 357.945312 171.699219 " fill-opacity="1" fill-rule="nonzero"/><path fill="#9e7479" d="M 317.585938 166.832031 L 212.117188 163.164062 C 212.117188 163.164062 226.714844 121.226562 268.9375 120.429688 C 311.152344 119.636719 317.585938 166.832031 317.585938 166.832031 " fill-opacity="1" fill-rule="nonzero"/><path fill="#72bfa8" d="M 317.585938 173.574219 L 212.117188 169.914062 C 212.117188 169.914062 213.042969 167.261719 215.097656 163.269531 C 220.835938 152.140625 235.398438 130.632812 263.285156 127.542969 C 265.113281 127.339844 266.992188 127.214844 268.9375 127.179688 C 301.050781 126.574219 312.457031 153.746094 316.078125 166.78125 L 316.09375 166.832031 C 317.21875 170.898438 317.585938 173.574219 317.585938 173.574219 " fill-opacity="1" fill-rule="nonzero"/><path fill="#9e7479" d="M 263.210938 125.941406 L 264.824219 162.636719 L 267.433594 162.753906 L 269.035156 125.023438 L 263.210938 125.941406 " fill-opacity="1" fill-rule="nonzero"/><path fill="#c07d6f" d="M 185.609375 161.824219 L 170.65625 161.824219 C 178.3125 147.550781 207.03125 103.542969 270.550781 102.542969 C 271.183594 102.535156 271.816406 102.53125 272.441406 102.53125 C 321.496094 102.53125 343.066406 132.796875 352.046875 153.292969 C 343.039062 136.71875 320.316406 106.671875 274.023438 106.671875 C 272.917969 106.671875 271.808594 106.691406 270.671875 106.722656 C 222.113281 108.214844 196.128906 143.042969 185.609375 161.824219 " fill-opacity="1" fill-rule="nonzero"/><path fill="#834c55" d="M 316.550781 161.824219 L 314.511719 161.824219 C 309.644531 148.070312 297.683594 127.171875 269.980469 127.171875 C 269.640625 127.171875 269.292969 127.171875 268.945312 127.179688 L 269.035156 125.023438 L 263.210938 125.941406 L 263.285156 127.542969 C 236.558594 130.503906 222.082031 150.375 215.867188 161.824219 L 212.632812 161.824219 C 215.566406 154.644531 231.242188 121.140625 268.9375 120.429688 C 269.289062 120.425781 269.640625 120.421875 269.988281 120.421875 C 302.839844 120.421875 313.546875 149.824219 316.550781 161.824219 " fill-opacity="1" fill-rule="nonzero"/><path fill="#667c73" d="M 314.511719 161.824219 L 311.78125 161.824219 C 306.574219 151.808594 292.621094 130.183594 268.863281 129.132812 L 268.945312 127.179688 C 269.292969 127.171875 269.640625 127.171875 269.980469 127.171875 C 297.683594 127.171875 309.644531 148.070312 314.511719 161.824219 M 226.070312 161.824219 L 215.867188 161.824219 C 222.082031 150.375 236.558594 130.503906 263.285156 127.542969 L 263.355469 129.273438 C 244.265625 131.1875 232.414062 148.558594 226.070312 161.824219 " fill-opacity="1" fill-rule="nonzero"/><path fill="#834c55" d="M 263.355469 129.273438 L 263.285156 127.542969 L 263.210938 125.941406 L 269.035156 125.023438 L 268.945312 127.179688 L 268.863281 129.132812 C 268.261719 129.105469 267.652344 129.089844 267.039062 129.089844 C 266.613281 129.089844 266.191406 129.097656 265.765625 129.113281 C 264.953125 129.136719 264.152344 129.1875 263.355469 129.273438 " fill-opacity="1" fill-rule="nonzero"/><path fill="#fbc0a2" d="M 409.042969 188.085938 L 400.789062 690.835938 L 128.511719 690.835938 L 115.695312 188.085938 L 409.042969 188.085938 " fill-opacity="1" fill-rule="nonzero"/><path fill="#a5686a" d="M 408.90625 196.273438 L 408.933594 194.730469 L 408.984375 194.730469 L 408.90625 196.273438 " fill-opacity="1" fill-rule="nonzero"/><path fill="#c07d6f" d="M 116.871094 209.664062 L 116.242188 194.730469 L 408.933594 194.730469 L 408.90625 196.273438 L 408.566406 203.335938 L 116.871094 209.664062 " fill-opacity="1" fill-rule="nonzero"/><path fill="#ffefda" d="M 81 161.824219 L 84.113281 178.898438 L 442.550781 178.898438 L 447.0625 161.824219 L 81 161.824219 " fill-opacity="1" fill-rule="nonzero"/><path fill="#ffefda" d="M 90.671875 175.605469 L 96.574219 194.730469 L 429.585938 194.730469 L 434.03125 175.605469 L 90.671875 175.605469 " fill-opacity="1" fill-rule="nonzero"/><path fill="#9f6e71" d="M 431.445312 187.164062 L 431.347656 187.164062 L 432.164062 183.652344 L 431.445312 187.164062 " fill-opacity="1" fill-rule="nonzero"/><path fill="#c2a6ac" d="M 92.128906 180.320312 L 91.570312 178.941406 L 91.707031 178.941406 L 92.128906 180.320312 " fill-opacity="1" fill-rule="nonzero"/><path fill="#c29c94" d="M 431.347656 187.164062 L 92.949219 182.351562 L 92.128906 180.320312 L 91.707031 178.941406 L 433.121094 178.941406 L 432.164062 183.652344 L 431.347656 187.164062 " fill-opacity="1" fill-rule="nonzero"/><path fill="#ffe1cb" d="M 131.027344 571.738281 L 131.027344 689.5 L 128.429688 688.257812 L 118.136719 252.285156 L 120.449219 255.253906 L 130.566406 568.976562 L 159.996094 566.21875 L 131.027344 571.738281 " fill-opacity="1" fill-rule="nonzero"/><path fill="#db7986" d="M 172.261719 693.894531 L 179.617188 554.511719 L 358.050781 554.511719 L 366.324219 700.332031 L 172.261719 693.894531 " fill-opacity="1" fill-rule="nonzero"/><path fill="#dd567d" d="M 364.179688 563.378906 L 366.019531 695.9375 L 358.660156 562.535156 L 364.179688 563.378906 " fill-opacity="1" fill-rule="nonzero"/><path fill="#01836a" d="M 428.667969 548.617188 L 400.152344 713.828125 L 128.828125 707.375 L 99.394531 554.675781 L 311.757812 548.617188 L 428.667969 548.617188 " fill-opacity="1" fill-rule="nonzero"/><path fill="#01836a" d="M 134.34375 708.308594 L 114.109375 574.910156 L 103.074219 574.910156 L 129.746094 710.148438 L 134.34375 708.308594 " fill-opacity="1" fill-rule="nonzero"/><path fill="#c2a6ac" d="M 103.296875 574.910156 L 103.285156 574.871094 L 103.296875 574.910156 " fill-opacity="1" fill-rule="nonzero"/><path fill="#1d554b" d="M 184.0625 585.949219 L 115.789062 585.949219 L 114.109375 574.910156 L 103.296875 574.910156 L 103.285156 574.871094 L 183.089844 573.984375 L 184.0625 585.949219 " fill-opacity="1" fill-rule="nonzero"/><path fill="#1d554b" d="M 115.789062 585.949219 L 105.421875 585.949219 L 103.296875 574.910156 L 114.109375 574.910156 L 115.789062 585.949219 " fill-opacity="1" fill-rule="nonzero"/><path fill="#005046" d="M 398.871094 707.386719 L 339.625 706.839844 L 340.875 659.648438 L 362.285156 660.644531 L 367.488281 573.804688 L 424.601562 571.320312 L 398.871094 707.386719 M 197.359375 705.519531 L 196.570312 705.515625 L 192.902344 652.761719 L 193.40625 652.785156 L 195.773438 684.398438 L 195.769531 684.398438 L 196.242188 690.734375 L 196.25 690.734375 L 197.359375 705.519531 M 193.75 705.488281 L 133.835938 704.9375 L 125.445312 649.621094 L 189.464844 652.601562 L 193.75 705.488281 M 128.707031 704.890625 L 128.347656 704.886719 L 117.625 649.253906 L 117.738281 649.257812 L 128.707031 704.890625 M 425.644531 565.789062 L 400.847656 565.789062 L 425.714844 565.421875 L 425.644531 565.789062 " fill-opacity="1" fill-rule="nonzero"/><path fill="#005046" d="M 133.835938 704.9375 L 128.707031 704.890625 L 117.738281 649.257812 L 125.445312 649.621094 L 133.835938 704.9375 " fill-opacity="1" fill-rule="nonzero"/><path fill="#cc8770" d="M 338.53125 564.328125 L 338.53125 711.992188 L 198.050781 714.75 L 186.773438 564.328125 L 338.53125 564.328125 " fill-opacity="1" fill-rule="nonzero"/><path fill="#126757" d="M 188.175781 583.097656 L 188.148438 583.097656 L 187.675781 576.757812 L 187.699219 576.757812 L 188.175781 583.097656 " fill-opacity="1" fill-rule="nonzero"/><path fill="#b26a5c" d="M 212.769531 583.097656 L 188.175781 583.097656 L 187.699219 576.757812 L 212.066406 576.757812 L 212.769531 583.097656 " fill-opacity="1" fill-rule="nonzero"/><path fill="#c5b7b9" d="M 555.269531 567.738281 L 527.640625 703.609375 L 398.710938 708.214844 L 426.339844 562.109375 L 555.269531 567.738281 " fill-opacity="1" fill-rule="nonzero"/><path fill="#ffefda" d="M 186.773438 564.328125 L 196.890625 710.148438 L 194.128906 710.148438 L 183.089844 573.984375 L 100.316406 574.910156 L 99.394531 569.390625 L 186.773438 564.328125 " fill-opacity="1" fill-rule="nonzero"/><path fill="#126757" d="M 189.140625 595.960938 L 189.113281 595.960938 L 188.640625 589.628906 L 188.667969 589.628906 L 189.140625 595.960938 " fill-opacity="1" fill-rule="nonzero"/><path fill="#b26a5c" d="M 205.164062 595.960938 L 189.140625 595.960938 L 188.667969 589.628906 L 205.164062 589.628906 L 205.164062 595.960938 " fill-opacity="1" fill-rule="nonzero"/><path fill="#126757" d="M 190.453125 613.449219 L 190.429688 613.449219 L 189.957031 607.113281 L 189.976562 607.113281 L 190.453125 613.449219 " fill-opacity="1" fill-rule="nonzero"/><path fill="#b26a5c" d="M 219.882812 613.449219 L 190.453125 613.449219 L 189.976562 607.113281 L 219.882812 607.113281 L 219.882812 613.449219 " fill-opacity="1" fill-rule="nonzero"/><path fill="#126757" d="M 191.761719 630.914062 L 191.742188 630.914062 L 191.269531 624.585938 L 191.289062 624.585938 L 191.761719 630.914062 " fill-opacity="1" fill-rule="nonzero"/><path fill="#b26a5c" d="M 197.808594 630.914062 L 191.761719 630.914062 L 191.289062 624.585938 L 197.808594 624.585938 L 197.808594 630.914062 " fill-opacity="1" fill-rule="nonzero"/><path fill="#1c3434" d="M 196.25 690.734375 L 196.242188 690.734375 L 195.769531 684.398438 L 195.773438 684.398438 L 196.25 690.734375 " fill-opacity="1" fill-rule="nonzero"/><path fill="#a1584f" d="M 226.320312 690.734375 L 196.25 690.734375 L 195.773438 684.398438 L 226.320312 684.398438 L 226.320312 690.734375 " fill-opacity="1" fill-rule="nonzero"/><path fill="#a1584f" d="M 214.570312 639.210938 L 195.355469 639.210938 L 195.050781 632.875 L 214.570312 632.875 L 214.570312 639.210938 " fill-opacity="1" fill-rule="nonzero"/><path fill="#a1584f" d="M 329.332031 643.492188 L 316.660156 643.492188 L 316.460938 639.3125 L 329.332031 639.3125 L 329.332031 643.492188 " fill-opacity="1" fill-rule="nonzero"/><path fill="#b26a5c" d="M 336.9375 699.097656 L 307.347656 699.097656 L 307.453125 692.757812 L 337.035156 692.757812 L 336.9375 699.097656 " fill-opacity="1" fill-rule="nonzero"/><path fill="#b26a5c" d="M 337.132812 686.226562 L 320.132812 686.226562 L 320.132812 679.894531 L 337.226562 679.894531 L 337.132812 686.226562 " fill-opacity="1" fill-rule="nonzero"/><path fill="#b26a5c" d="M 337.398438 668.742188 L 307.839844 668.742188 L 307.9375 662.40625 L 337.488281 662.40625 L 337.398438 668.742188 " fill-opacity="1" fill-rule="nonzero"/><path fill="#b26a5c" d="M 337.65625 651.261719 L 327.492188 651.261719 L 327.492188 644.9375 L 337.753906 644.9375 L 337.65625 651.261719 " fill-opacity="1" fill-rule="nonzero"/><path fill="#b26a5c" d="M 337.902344 634.691406 L 308.386719 634.691406 L 308.488281 628.339844 L 338 628.339844 L 337.902344 634.691406 " fill-opacity="1" fill-rule="nonzero"/><path fill="#b26a5c" d="M 338.53125 588.695312 L 333.5 588.695312 L 333.851562 582.339844 L 338.53125 582.339844 L 338.53125 588.695312 " fill-opacity="1" fill-rule="nonzero"/><path fill="#ffefda" d="M 426.433594 565.789062 L 425.820312 571.269531 L 343.109375 574.863281 L 339.507812 711.417969 L 336.75 711.574219 L 338.941406 565.789062 L 426.433594 565.789062 " fill-opacity="1" fill-rule="nonzero"/><path fill="#8d7179" d="M 440.625 544.355469 L 438.386719 565.230469 L 94.273438 570.34375 L 92.035156 544.355469 L 440.625 544.355469 " fill-opacity="1" fill-rule="nonzero"/><path fill="#805963" d="M 433.929688 565.300781 L 432.054688 548.328125 L 408.746094 548.015625 L 405.855469 544.355469 L 440.625 544.355469 L 438.386719 565.230469 L 433.929688 565.300781 M 301.339844 546.582031 L 266.527344 546.117188 L 265.136719 544.355469 L 286.605469 544.355469 L 286.855469 545.488281 L 300.839844 545.140625 L 301.339844 546.582031 M 145.914062 544.503906 L 135.0625 544.355469 L 145.882812 544.355469 L 145.914062 544.503906 " fill-opacity="1" fill-rule="nonzero"/><g clip-path="url(#73c8420000)"><path fill="#8d7179" d="M 122.550781 704.835938 L 122.550781 721.648438 L 410.28125 721.648438 L 410.28125 707.488281 L 122.550781 704.835938 " fill-opacity="1" fill-rule="nonzero"/></g><g clip-path="url(#a4a49dae64)"><path fill="#dac9cd" d="M 409.871094 722.101562 L 404.691406 722.101562 L 404.679688 721.648438 L 409.097656 721.648438 L 409.871094 721.988281 L 409.871094 722.101562 " fill-opacity="1" fill-rule="nonzero"/></g><g clip-path="url(#ce274c98a5)"><path fill="#b77d7d" d="M 409.871094 721.988281 L 409.097656 721.648438 L 409.871094 721.648438 L 409.871094 721.988281 " fill-opacity="1" fill-rule="nonzero"/></g><path fill="#dac9cd" d="M 122.550781 704.984375 L 122.140625 704.980469 L 122.140625 704.835938 L 122.550781 704.835938 L 122.550781 704.984375 " fill-opacity="1" fill-rule="nonzero"/><g clip-path="url(#4376921dc1)"><path fill="#805963" d="M 409.871094 721.648438 L 404.679688 721.648438 L 404.34375 708.308594 L 307.21875 707.164062 L 307.230469 706.542969 L 409.871094 707.488281 L 409.871094 721.648438 M 237.914062 706.347656 L 122.550781 704.984375 L 122.550781 704.835938 L 237.867188 705.898438 L 237.914062 706.347656 " fill-opacity="1" fill-rule="nonzero"/></g><path fill="#c07d6f" d="M 298.0625 383.542969 L 293.484375 370.34375 L 386.824219 368.066406 L 386.726562 361.628906 L 382.140625 360.773438 L 381.402344 358.589844 L 392.796875 362.320312 L 404.753906 377.480469 L 397.394531 382.332031 L 298.0625 383.542969 " fill-opacity="1" fill-rule="nonzero"/><path fill="#ffefda" d="M 303.578125 357.804688 L 293.460938 231.230469 L 285.1875 231.230469 C 285.1875 231.230469 292.542969 210.582031 330.253906 210.582031 C 367.960938 210.582031 370.71875 231.230469 370.71875 231.230469 L 362.441406 231.230469 L 351.40625 358.703125 L 303.578125 357.804688 " fill-opacity="1" fill-rule="nonzero"/><path fill="#942d42" d="M 352.734375 231.542969 L 347.855469 356.859375 L 306.457031 356.859375 L 299.082031 231.542969 L 352.734375 231.542969 " fill-opacity="1" fill-rule="nonzero"/><path fill="#72bfa8" d="M 349.363281 236.347656 L 345.289062 351.898438 L 310.75 351.898438 L 304.601562 236.347656 L 349.363281 236.347656 " fill-opacity="1" fill-rule="nonzero"/><path fill="#942d42" d="M 304.5 303.703125 L 349.5625 303.703125 L 348.574219 305.371094 L 305.503906 307.183594 L 304.5 303.703125 " fill-opacity="1" fill-rule="nonzero"/><path fill="#942d42" d="M 324.734375 234.5 L 327.492188 355.023438 L 327.949219 355.023438 L 327.949219 234.5 L 324.734375 234.5 " fill-opacity="1" fill-rule="nonzero"/><path fill="#7d1d31" d="M 312.03125 356.039062 L 306.402344 356.039062 L 299.082031 231.542969 L 352.734375 231.542969 L 352.222656 244.753906 L 349.066406 244.667969 L 349.363281 236.347656 L 327.949219 236.347656 L 327.949219 234.5 L 324.734375 234.5 L 324.777344 236.347656 L 304.601562 236.347656 L 308.183594 303.703125 L 304.5 303.703125 L 305.503906 307.183594 L 308.363281 307.0625 L 310.75 351.898438 L 311.855469 351.898438 L 312.03125 356.039062 " fill-opacity="1" fill-rule="nonzero"/><path fill="#667c73" d="M 311.855469 351.898438 L 310.75 351.898438 L 308.363281 307.0625 L 309.949219 306.996094 L 311.855469 351.898438 M 309.808594 303.703125 L 308.183594 303.703125 L 304.601562 236.347656 L 324.777344 236.347656 L 324.949219 243.984375 L 307.261719 243.480469 L 309.808594 303.703125 M 349.066406 244.667969 L 327.949219 244.066406 L 327.949219 236.347656 L 349.363281 236.347656 L 349.066406 244.667969 " fill-opacity="1" fill-rule="nonzero"/><path fill="#7d1d31" d="M 305.503906 307.183594 L 304.5 303.703125 L 309.808594 303.703125 L 309.949219 306.996094 L 308.363281 307.0625 L 305.503906 307.183594 " fill-opacity="1" fill-rule="nonzero"/><path fill="#7d1d31" d="M 327.949219 244.066406 L 324.949219 243.984375 L 324.777344 236.347656 L 324.734375 234.5 L 327.949219 234.5 L 327.949219 244.066406 " fill-opacity="1" fill-rule="nonzero"/><path fill="#ffefda" d="M 386.726562 361.628906 L 386.824219 368.066406 L 279.5 370.683594 L 277.855469 363.347656 L 283.175781 362.34375 L 284.59375 356.039062 L 380.546875 356.039062 L 382.140625 360.773438 L 386.726562 361.628906 " fill-opacity="1" fill-rule="nonzero"/><path fill="#c29c94" d="M 382.734375 368.164062 L 382.183594 363.539062 L 296.117188 362.136719 L 379.855469 360.816406 L 379.050781 358.070312 L 322.972656 356.039062 L 380.546875 356.039062 L 382.140625 360.773438 L 386.726562 361.628906 L 386.824219 368.066406 L 382.734375 368.164062 " fill-opacity="1" fill-rule="nonzero"/><path fill="#c07d6f" d="M 265.136719 544.355469 L 192.285156 544.355469 L 249.371094 542.964844 L 253.460938 542.863281 L 253.359375 536.425781 L 248.777344 535.582031 L 248.039062 533.394531 L 259.433594 537.121094 L 265.136719 544.355469 " fill-opacity="1" fill-rule="nonzero"/><path fill="#784a55" d="M 164.699219 558.34375 L 160.121094 545.140625 L 172.027344 544.851562 L 266.527344 546.117188 L 271.390625 552.28125 L 264.03125 557.128906 L 164.699219 558.34375 " fill-opacity="1" fill-rule="nonzero"/><path fill="#703a46" d="M 266.527344 546.117188 L 172.027344 544.851562 L 192.285156 544.355469 L 265.136719 544.355469 L 266.527344 546.117188 " fill-opacity="1" fill-rule="nonzero"/><path fill="#ffefda" d="M 170.214844 532.609375 L 160.097656 406.035156 L 151.820312 406.035156 C 151.820312 406.035156 159.179688 385.386719 196.890625 385.386719 C 234.597656 385.386719 237.355469 406.035156 237.355469 406.035156 L 229.082031 406.035156 L 218.042969 533.507812 L 170.214844 532.609375 " fill-opacity="1" fill-rule="nonzero"/><path fill="#942d42" d="M 219.371094 406.339844 L 214.492188 531.667969 L 173.085938 531.667969 L 165.71875 406.339844 L 219.371094 406.339844 " fill-opacity="1" fill-rule="nonzero"/><path fill="#72bfa8" d="M 216 411.152344 L 211.933594 526.703125 L 177.386719 526.703125 L 171.238281 411.152344 L 216 411.152344 " fill-opacity="1" fill-rule="nonzero"/><path fill="#343238" d="M 213.269531 488.625 L 213.5625 480.238281 L 213.269531 488.625 " fill-opacity="1" fill-rule="nonzero"/><path fill="#28655b" d="M 212.699219 504.816406 L 194.585938 504.441406 L 194.585938 481.039062 L 213.5625 480.238281 L 213.269531 488.625 L 212.699219 504.816406 M 193.550781 504.414062 L 177.53125 504.085938 L 176.585938 481.800781 L 193.011719 481.105469 L 193.550781 504.414062 " fill-opacity="1" fill-rule="nonzero"/><path fill="#343238" d="M 213.625 478.503906 L 214.5625 451.898438 L 213.625 478.503906 " fill-opacity="1" fill-rule="nonzero"/><path fill="#28655b" d="M 213.625 478.503906 L 194.585938 478.503906 L 194.585938 453.464844 L 214.5625 451.898438 L 213.625 478.503906 M 192.957031 478.503906 L 176.449219 478.503906 L 175.449219 454.96875 L 192.382812 453.636719 L 192.957031 478.503906 " fill-opacity="1" fill-rule="nonzero"/><path fill="#942d42" d="M 171.136719 478.503906 L 216.199219 478.503906 L 215.210938 480.171875 L 172.140625 481.984375 L 171.136719 478.503906 " fill-opacity="1" fill-rule="nonzero"/><path fill="#942d42" d="M 191.371094 409.300781 L 194.128906 529.824219 L 194.585938 529.824219 L 194.585938 409.300781 L 191.371094 409.300781 " fill-opacity="1" fill-rule="nonzero"/><path fill="#7d1d31" d="M 178.660156 530.84375 L 173.039062 530.84375 L 165.71875 406.339844 L 219.371094 406.339844 L 218.859375 419.558594 L 215.707031 419.46875 L 216 411.152344 L 194.585938 411.152344 L 194.585938 409.300781 L 191.371094 409.300781 L 191.414062 411.152344 L 171.238281 411.152344 L 174.820312 478.503906 L 171.136719 478.503906 L 172.140625 481.984375 L 175.003906 481.867188 L 177.386719 526.703125 L 178.488281 526.703125 L 178.660156 530.84375 " fill-opacity="1" fill-rule="nonzero"/><path fill="#667c73" d="M 178.488281 526.703125 L 177.386719 526.703125 L 175.003906 481.867188 L 175.765625 496.199219 L 176.652344 504.0625 L 177.53125 504.085938 L 178.488281 526.703125 M 174.820312 478.503906 L 171.238281 411.152344 L 191.414062 411.152344 L 191.585938 418.78125 L 173.890625 418.28125 L 175.449219 454.96875 L 173.578125 455.113281 L 174.820312 478.503906 M 215.707031 419.46875 L 194.585938 418.871094 L 194.585938 411.152344 L 216 411.152344 L 215.707031 419.46875 " fill-opacity="1" fill-rule="nonzero"/><path fill="#364241" d="M 177.53125 504.085938 L 176.652344 504.0625 L 175.765625 496.199219 L 175.003906 481.867188 L 176.585938 481.800781 L 177.53125 504.085938 " fill-opacity="1" fill-rule="nonzero"/><path fill="#364241" d="M 176.449219 478.503906 L 174.820312 478.503906 L 173.578125 455.113281 L 175.449219 454.96875 L 176.449219 478.503906 " fill-opacity="1" fill-rule="nonzero"/><path fill="#7d1d31" d="M 172.140625 481.984375 L 171.136719 478.503906 L 176.449219 478.503906 L 176.585938 481.800781 L 175.003906 481.867188 L 172.140625 481.984375 " fill-opacity="1" fill-rule="nonzero"/><path fill="#7d1d31" d="M 194.585938 418.871094 L 191.585938 418.78125 L 191.414062 411.152344 L 191.371094 409.300781 L 194.585938 409.300781 L 194.585938 418.871094 " fill-opacity="1" fill-rule="nonzero"/><path fill="#ffefda" d="M 253.359375 536.425781 L 253.460938 542.863281 L 146.136719 545.488281 L 144.492188 538.148438 L 149.8125 537.140625 L 151.230469 530.84375 L 247.183594 530.84375 L 248.777344 535.582031 L 253.359375 536.425781 " fill-opacity="1" fill-rule="nonzero"/><path fill="#99514e" d="M 249.371094 542.964844 L 253.460938 542.863281 L 249.371094 542.964844 " fill-opacity="1" fill-rule="nonzero"/><path fill="#c29c94" d="M 249.371094 542.964844 L 248.820312 538.339844 L 162.753906 536.941406 L 246.492188 535.613281 L 245.6875 532.867188 L 189.609375 530.84375 L 247.183594 530.84375 L 248.777344 535.582031 L 253.359375 536.425781 L 253.460938 542.863281 L 249.371094 542.964844 " fill-opacity="1" fill-rule="nonzero"/><path fill="#a8a438" d="M 166.230469 511.425781 C 166.230469 511.425781 147.832031 502.226562 154.277344 494.867188 C 160.714844 487.503906 164.390625 502.226562 164.390625 502.226562 C 164.390625 502.226562 162.550781 481.984375 175.429688 481.984375 C 188.304688 481.984375 189.222656 492.105469 189.222656 492.105469 C 189.222656 492.105469 185.542969 485.667969 192.902344 484.746094 C 200.261719 483.824219 196.585938 493.945312 196.585938 493.945312 C 196.585938 493.945312 195.660156 484.746094 211.296875 487.503906 C 226.933594 490.265625 219.578125 500.386719 219.578125 500.386719 C 219.578125 500.386719 224.175781 492.105469 232.449219 493.945312 C 240.730469 495.789062 229.695312 508.664062 229.695312 508.664062 L 166.230469 511.425781 " fill-opacity="1" fill-rule="nonzero"/><path fill="#8b8728" d="M 190.171875 503.144531 C 190.171875 509.75 185.089844 515.105469 178.816406 515.105469 C 172.542969 515.105469 167.453125 509.75 167.453125 503.144531 C 167.453125 496.542969 172.542969 491.1875 178.816406 491.1875 C 185.089844 491.1875 190.171875 496.542969 190.171875 503.144531 " fill-opacity="1" fill-rule="nonzero"/><path fill="#8b8728" d="M 220.832031 510.507812 C 220.832031 517.113281 214.71875 522.46875 207.171875 522.46875 C 199.628906 522.46875 193.519531 517.113281 193.519531 510.507812 C 193.519531 503.898438 199.628906 498.542969 207.171875 498.542969 C 214.71875 498.542969 220.832031 503.898438 220.832031 510.507812 " fill-opacity="1" fill-rule="nonzero"/><path fill="#8b8728" d="M 218.652344 499.464844 C 218.652344 501.5 217.285156 503.144531 215.589844 503.144531 C 213.898438 503.144531 212.523438 501.5 212.523438 499.464844 C 212.523438 497.433594 213.898438 495.789062 215.589844 495.789062 C 217.285156 495.789062 218.652344 497.433594 218.652344 499.464844 " fill-opacity="1" fill-rule="nonzero"/><path fill="#8b8728" d="M 206.5625 493.839844 C 205.53125 495.042969 203.878906 495.324219 202.871094 494.460938 C 201.871094 493.597656 201.898438 491.917969 202.929688 490.714844 C 203.964844 489.511719 205.617188 489.234375 206.621094 490.097656 C 207.625 490.960938 207.601562 492.636719 206.5625 493.839844 " fill-opacity="1" fill-rule="nonzero"/><path fill="#8b8728" d="M 196.753906 490.980469 C 195.71875 492.183594 194.066406 492.460938 193.0625 491.59375 C 192.058594 490.738281 192.082031 489.058594 193.121094 487.855469 C 194.152344 486.648438 195.804688 486.375 196.8125 487.234375 C 197.8125 488.097656 197.789062 489.773438 196.753906 490.980469 " fill-opacity="1" fill-rule="nonzero"/><path fill="#8b8728" d="M 163.332031 499.175781 C 164.363281 501.519531 164.21875 503.859375 163.011719 504.390625 C 161.796875 504.921875 159.980469 503.449219 158.949219 501.101562 C 157.914062 498.75 158.054688 496.417969 159.269531 495.886719 C 160.480469 495.351562 162.296875 496.824219 163.332031 499.175781 " fill-opacity="1" fill-rule="nonzero"/><path fill="#8b8728" d="M 197.808594 505.90625 C 197.808594 512.511719 194.515625 517.867188 190.453125 517.867188 C 186.382812 517.867188 183.089844 512.511719 183.089844 505.90625 C 183.089844 499.296875 186.382812 493.945312 190.453125 493.945312 C 194.515625 493.945312 197.808594 499.296875 197.808594 505.90625 " fill-opacity="1" fill-rule="nonzero"/><path fill="#8b8728" d="M 231.449219 508.4375 C 228.214844 512.496094 223.820312 514.375 221.636719 512.628906 C 219.453125 510.890625 220.304688 506.1875 223.542969 502.128906 C 226.773438 498.074219 231.171875 496.195312 233.355469 497.933594 C 235.539062 499.679688 234.6875 504.378906 231.449219 508.4375 " fill-opacity="1" fill-rule="nonzero"/><path fill="#942d42" d="M 244.714844 504.984375 L 239.199219 530.746094 L 155.5 530.746094 L 149.0625 504.984375 L 244.714844 504.984375 " fill-opacity="1" fill-rule="nonzero"/><path fill="#bd4562" d="M 228.160156 516.949219 L 227.5 530.746094 L 155.5 530.746094 L 150.96875 512.609375 L 228.160156 516.949219 " fill-opacity="1" fill-rule="nonzero"/><path fill="#a5686a" d="M 405.855469 544.355469 L 403.191406 544.355469 L 403.25 541.046875 L 405.855469 544.355469 " fill-opacity="1" fill-rule="nonzero"/><path fill="#c07d6f" d="M 403.191406 544.355469 L 333.007812 544.355469 L 390.097656 542.964844 L 394.179688 542.863281 L 394.082031 536.425781 L 389.496094 535.582031 L 388.761719 533.394531 L 400.152344 537.121094 L 403.25 541.046875 L 403.191406 544.355469 " fill-opacity="1" fill-rule="nonzero"/><path fill="#784a55" d="M 305.417969 558.34375 L 301.339844 546.582031 L 408.746094 548.015625 L 412.109375 552.28125 L 404.753906 557.128906 L 305.417969 558.34375 " fill-opacity="1" fill-rule="nonzero"/><path fill="#703a46" d="M 408.746094 548.015625 L 301.339844 546.582031 L 300.839844 545.140625 L 333.007812 544.355469 L 405.855469 544.355469 L 408.746094 548.015625 " fill-opacity="1" fill-rule="nonzero"/><path fill="#ffefda" d="M 310.9375 532.609375 L 300.816406 406.035156 L 292.542969 406.035156 C 292.542969 406.035156 299.898438 385.386719 337.609375 385.386719 C 375.324219 385.386719 378.078125 406.035156 378.078125 406.035156 L 369.800781 406.035156 L 358.761719 533.507812 L 310.9375 532.609375 " fill-opacity="1" fill-rule="nonzero"/><path fill="#942d42" d="M 360.09375 406.339844 L 355.214844 531.667969 L 313.8125 531.667969 L 306.441406 406.339844 L 360.09375 406.339844 " fill-opacity="1" fill-rule="nonzero"/><path fill="#72bfa8" d="M 356.71875 411.152344 L 352.652344 526.703125 L 318.109375 526.703125 L 311.957031 411.152344 L 356.71875 411.152344 " fill-opacity="1" fill-rule="nonzero"/><path fill="#28655b" d="M 353.027344 516.011719 C 346.929688 514.886719 340.742188 513.746094 335.3125 512.738281 L 335.3125 481.039062 L 354.289062 480.238281 L 353.027344 516.011719 M 334.453125 512.578125 C 326.070312 511.03125 319.65625 509.835938 318.488281 509.621094 L 317.304688 481.800781 L 333.738281 481.105469 L 334.453125 512.578125 M 354.347656 478.503906 L 335.3125 478.503906 L 335.3125 444.941406 L 340.371094 444.265625 L 339.875 419 L 356.429688 419.46875 L 354.347656 478.503906 M 333.675781 478.503906 L 317.167969 478.503906 L 315.855469 447.535156 L 332.917969 445.261719 L 333.675781 478.503906 " fill-opacity="1" fill-rule="nonzero"/><path fill="#942d42" d="M 311.855469 478.503906 L 356.925781 478.503906 L 355.933594 480.171875 L 312.859375 481.984375 L 311.855469 478.503906 " fill-opacity="1" fill-rule="nonzero"/><path fill="#942d42" d="M 332.089844 409.300781 L 334.851562 529.824219 L 335.3125 529.824219 L 335.3125 409.300781 L 332.089844 409.300781 " fill-opacity="1" fill-rule="nonzero"/><path fill="#7d1d31" d="M 319.386719 530.84375 L 313.765625 530.84375 L 306.441406 406.339844 L 360.09375 406.339844 L 359.578125 419.558594 L 356.429688 419.46875 L 356.71875 411.152344 L 335.3125 411.152344 L 335.3125 409.300781 L 332.089844 409.300781 L 332.132812 411.152344 L 311.957031 411.152344 L 315.546875 478.503906 L 311.855469 478.503906 L 312.859375 481.984375 L 315.722656 481.867188 L 318.109375 526.703125 L 319.210938 526.703125 L 319.386719 530.84375 " fill-opacity="1" fill-rule="nonzero"/><path fill="#667c73" d="M 319.210938 526.703125 L 318.109375 526.703125 L 315.722656 481.867188 L 315.8125 481.859375 L 318.296875 509.585938 C 318.296875 509.585938 318.359375 509.601562 318.488281 509.621094 L 319.210938 526.703125 M 315.546875 478.503906 L 311.957031 411.152344 L 332.132812 411.152344 L 332.308594 418.78125 L 314.617188 418.28125 L 315.855469 447.535156 L 313.910156 447.792969 L 315.546875 478.503906 M 356.429688 419.46875 L 356.71875 411.152344 L 356.429688 419.46875 M 339.875 419 L 335.3125 418.871094 L 335.3125 411.152344 L 356.71875 411.152344 L 339.71875 411.152344 L 339.875 419 " fill-opacity="1" fill-rule="nonzero"/><path fill="#364241" d="M 318.488281 509.621094 C 318.359375 509.601562 318.296875 509.585938 318.296875 509.585938 L 315.8125 481.859375 L 317.304688 481.800781 L 318.488281 509.621094 M 317.167969 478.503906 L 315.546875 478.503906 L 313.910156 447.792969 L 315.855469 447.535156 L 317.167969 478.503906 M 356.429688 419.46875 L 339.875 419 L 339.71875 411.152344 L 356.71875 411.152344 L 356.429688 419.46875 " fill-opacity="1" fill-rule="nonzero"/><path fill="#7d1d31" d="M 312.859375 481.984375 L 311.855469 478.503906 L 317.167969 478.503906 L 317.304688 481.800781 L 315.8125 481.859375 L 315.722656 481.867188 L 312.859375 481.984375 " fill-opacity="1" fill-rule="nonzero"/><path fill="#7d1d31" d="M 335.3125 418.871094 L 332.308594 418.78125 L 332.132812 411.152344 L 332.089844 409.300781 L 335.3125 409.300781 L 335.3125 418.871094 " fill-opacity="1" fill-rule="nonzero"/><path fill="#ffefda" d="M 394.082031 536.425781 L 394.179688 542.863281 L 286.855469 545.488281 L 285.21875 538.148438 L 290.53125 537.140625 L 291.953125 530.84375 L 387.902344 530.84375 L 389.496094 535.582031 L 394.082031 536.425781 " fill-opacity="1" fill-rule="nonzero"/><path fill="#99514e" d="M 390.097656 542.964844 L 394.179688 542.863281 L 390.097656 542.964844 " fill-opacity="1" fill-rule="nonzero"/><path fill="#c29c94" d="M 390.097656 542.964844 L 389.542969 538.339844 L 303.472656 536.941406 L 387.214844 535.613281 L 386.410156 532.867188 L 330.335938 530.84375 L 387.902344 530.84375 L 389.496094 535.582031 L 394.082031 536.425781 L 394.179688 542.863281 L 390.097656 542.964844 " fill-opacity="1" fill-rule="nonzero"/><path fill="#a8a438" d="M 363.621094 508.96875 C 363.621094 508.96875 381.152344 498.207031 374.097656 491.433594 C 367.046875 484.660156 364.65625 499.644531 364.65625 499.644531 C 364.65625 499.644531 364.742188 479.320312 351.914062 480.4375 C 339.078125 481.550781 339.042969 491.714844 339.042969 491.714844 C 339.042969 491.714844 342.152344 484.976562 334.738281 484.695312 C 327.332031 484.417969 331.867188 494.179688 331.867188 494.179688 C 331.867188 494.179688 331.992188 484.933594 316.648438 489.039062 C 301.3125 493.144531 309.519531 502.585938 309.519531 502.585938 C 309.519531 502.585938 304.21875 494.734375 296.136719 497.285156 C 288.046875 499.835938 300.15625 511.710938 300.15625 511.710938 L 363.621094 508.96875 " fill-opacity="1" fill-rule="nonzero"/><path fill="#8b8728" d="M 339.046875 502.792969 C 339.621094 509.371094 345.148438 514.269531 351.402344 513.726562 C 357.648438 513.183594 362.253906 507.40625 361.679688 500.828125 C 361.113281 494.242188 355.578125 489.347656 349.332031 489.894531 C 343.082031 490.4375 338.476562 496.210938 339.046875 502.792969 " fill-opacity="1" fill-rule="nonzero"/><path fill="#8b8728" d="M 309.144531 512.78125 C 309.710938 519.359375 316.269531 524.160156 323.785156 523.511719 C 331.300781 522.859375 336.925781 516.992188 336.355469 510.414062 C 335.785156 503.832031 329.230469 499.023438 321.714844 499.679688 C 314.199219 500.335938 308.570312 506.195312 309.144531 512.78125 " fill-opacity="1" fill-rule="nonzero"/><path fill="#8b8728" d="M 310.359375 501.589844 C 310.53125 503.613281 312.039062 505.136719 313.730469 504.992188 C 315.417969 504.84375 316.640625 503.082031 316.464844 501.058594 C 316.289062 499.035156 314.777344 497.511719 313.09375 497.65625 C 311.40625 497.804688 310.183594 499.566406 310.359375 501.589844 " fill-opacity="1" fill-rule="nonzero"/><path fill="#8b8728" d="M 321.914062 494.941406 C 323.050781 496.050781 324.722656 496.183594 325.648438 495.234375 C 326.570312 494.289062 326.402344 492.628906 325.265625 491.515625 C 324.128906 490.40625 322.460938 490.265625 321.535156 491.21875 C 320.609375 492.164062 320.78125 493.832031 321.914062 494.941406 " fill-opacity="1" fill-rule="nonzero"/><path fill="#8b8728" d="M 331.445312 491.238281 C 332.574219 492.351562 334.246094 492.484375 335.171875 491.539062 C 336.097656 490.59375 335.925781 488.925781 334.796875 487.816406 C 333.652344 486.703125 331.988281 486.570312 331.0625 487.515625 C 330.140625 488.460938 330.308594 490.128906 331.445312 491.238281 " fill-opacity="1" fill-rule="nonzero"/><path fill="#8b8728" d="M 365.449219 496.511719 C 364.621094 498.9375 364.96875 501.253906 366.21875 501.679688 C 367.472656 502.105469 369.160156 500.484375 369.984375 498.054688 C 370.8125 495.628906 370.464844 493.308594 369.210938 492.886719 C 367.957031 492.460938 366.273438 494.082031 365.449219 496.511719 " fill-opacity="1" fill-rule="nonzero"/><path fill="#8b8728" d="M 331.683594 506.203125 C 332.253906 512.785156 335.996094 517.835938 340.046875 517.480469 C 344.097656 517.128906 346.914062 511.511719 346.34375 504.925781 C 345.769531 498.347656 342.027344 493.296875 337.980469 493.648438 C 333.929688 494 331.109375 499.625 331.683594 506.203125 " fill-opacity="1" fill-rule="nonzero"/><path fill="#8b8728" d="M 298.386719 511.640625 C 301.957031 515.398438 306.496094 516.890625 308.523438 514.964844 C 310.546875 513.042969 309.292969 508.433594 305.722656 504.667969 C 302.144531 500.902344 297.605469 499.417969 295.582031 501.339844 C 293.554688 503.265625 294.808594 507.875 298.386719 511.640625 " fill-opacity="1" fill-rule="nonzero"/><path fill="#942d42" d="M 385.433594 504.984375 L 379.917969 530.746094 L 296.222656 530.746094 L 289.78125 504.984375 L 385.433594 504.984375 " fill-opacity="1" fill-rule="nonzero"/><path fill="#bd4562" d="M 368.878906 516.949219 L 368.226562 530.746094 L 296.222656 530.746094 L 291.6875 512.609375 L 368.878906 516.949219 " fill-opacity="1" fill-rule="nonzero"/><path fill="#faf2a0" d="M 311.878906 486.0625 C 311.917969 485.242188 313.613281 484.660156 315.664062 484.757812 C 317.71875 484.855469 319.351562 485.597656 319.3125 486.421875 C 319.273438 487.242188 317.574219 487.832031 315.523438 487.730469 C 313.46875 487.628906 311.839844 486.886719 311.878906 486.0625 " fill-opacity="1" fill-rule="nonzero"/><path fill="#faf2a0" d="M 312.746094 493.953125 C 312.769531 493.511719 313.6875 493.191406 314.800781 493.246094 C 315.910156 493.296875 316.792969 493.699219 316.773438 494.148438 C 316.753906 494.59375 315.835938 494.910156 314.726562 494.859375 C 313.609375 494.800781 312.726562 494.398438 312.746094 493.953125 " fill-opacity="1" fill-rule="nonzero"/><path fill="#faf2a0" d="M 308.597656 487.882812 C 308.617188 487.4375 309.535156 487.117188 310.652344 487.167969 C 311.761719 487.226562 312.648438 487.628906 312.628906 488.074219 C 312.609375 488.515625 311.683594 488.835938 310.574219 488.78125 C 309.464844 488.730469 308.578125 488.324219 308.597656 487.882812 " fill-opacity="1" fill-rule="nonzero"/><path fill="#faf2a0" d="M 344.953125 484.308594 C 345.050781 485.320312 343.085938 486.34375 340.554688 486.597656 C 338.027344 486.847656 335.898438 486.230469 335.800781 485.21875 C 335.699219 484.207031 337.664062 483.183594 340.195312 482.933594 C 342.722656 482.683594 344.851562 483.300781 344.953125 484.308594 " fill-opacity="1" fill-rule="nonzero"/><path fill="#faf2a0" d="M 340.902344 488.140625 C 340.949219 488.582031 340.085938 489.035156 338.976562 489.140625 C 337.871094 489.25 336.9375 488.980469 336.890625 488.539062 C 336.84375 488.09375 337.710938 487.644531 338.816406 487.535156 C 339.925781 487.425781 340.859375 487.695312 340.902344 488.140625 " fill-opacity="1" fill-rule="nonzero"/><path fill="#faf2a0" d="M 348.476562 488.613281 C 348.515625 489.054688 347.652344 489.503906 346.542969 489.617188 C 345.4375 489.726562 344.503906 489.457031 344.457031 489.011719 C 344.417969 488.570312 345.28125 488.121094 346.390625 488.011719 C 347.492188 487.898438 348.429688 488.171875 348.476562 488.613281 " fill-opacity="1" fill-rule="nonzero"/><path fill="#faf2a0" d="M 322.105469 501.0625 C 321.929688 500.0625 323.820312 498.902344 326.324219 498.46875 C 328.828125 498.039062 330.996094 498.496094 331.167969 499.5 C 331.339844 500.5 329.453125 501.664062 326.949219 502.097656 C 324.445312 502.527344 322.277344 502.066406 322.105469 501.0625 " fill-opacity="1" fill-rule="nonzero"/><path fill="#faf2a0" d="M 325.871094 496.953125 C 325.792969 496.515625 326.625 496.003906 327.71875 495.816406 C 328.816406 495.628906 329.765625 495.828125 329.84375 496.265625 C 329.917969 496.707031 329.089844 497.21875 327.992188 497.410156 C 326.898438 497.59375 325.941406 497.394531 325.871094 496.953125 " fill-opacity="1" fill-rule="nonzero"/><path fill="#faf2a0" d="M 318.285156 497.019531 C 318.210938 496.582031 319.039062 496.078125 320.132812 495.886719 C 321.230469 495.699219 322.183594 495.902344 322.257812 496.339844 C 322.332031 496.777344 321.503906 497.285156 320.410156 497.476562 C 319.3125 497.660156 318.359375 497.460938 318.285156 497.019531 " fill-opacity="1" fill-rule="nonzero"/><g clip-path="url(#266a23013f)"><g clip-path="url(#29ed64116f)"><path fill="#c07d6f" d="M 154.601562 385.386719 L 265.871094 385.386719 L 265.871094 360.429688 L 154.601562 360.429688 Z M 154.601562 385.386719 " fill-opacity="1" fill-rule="nonzero"/></g></g><path fill="#ffefda" d="M 164.699219 359.648438 L 154.582031 233.070312 L 146.300781 233.070312 C 146.300781 233.070312 153.660156 212.425781 191.371094 212.425781 C 229.082031 212.425781 231.835938 233.070312 231.835938 233.070312 L 223.5625 233.070312 L 212.523438 360.542969 L 164.699219 359.648438 " fill-opacity="1" fill-rule="nonzero"/><path fill="#942d42" d="M 213.851562 233.378906 L 208.972656 358.703125 L 167.574219 358.703125 L 160.203125 233.378906 L 213.851562 233.378906 " fill-opacity="1" fill-rule="nonzero"/><path fill="#72bfa8" d="M 210.480469 238.1875 L 206.414062 353.742188 L 171.867188 353.742188 L 165.71875 238.1875 L 210.480469 238.1875 " fill-opacity="1" fill-rule="nonzero"/><path fill="#942d42" d="M 165.617188 305.539062 L 210.683594 305.539062 L 209.691406 307.207031 L 166.625 309.019531 L 165.617188 305.539062 " fill-opacity="1" fill-rule="nonzero"/><path fill="#942d42" d="M 185.851562 236.34375 L 188.609375 356.859375 L 189.070312 356.859375 L 189.070312 236.34375 L 185.851562 236.34375 " fill-opacity="1" fill-rule="nonzero"/><path fill="#7d1d31" d="M 173.144531 357.878906 L 167.523438 357.878906 L 160.203125 233.378906 L 213.851562 233.378906 L 213.335938 246.59375 L 210.1875 246.503906 L 210.480469 238.1875 L 189.070312 238.1875 L 189.070312 236.34375 L 185.851562 236.34375 L 185.894531 238.1875 L 165.71875 238.1875 L 169.304688 305.539062 L 165.617188 305.539062 L 166.625 309.019531 L 169.484375 308.902344 L 171.867188 353.742188 L 172.96875 353.742188 L 173.144531 357.878906 " fill-opacity="1" fill-rule="nonzero"/><path fill="#667c73" d="M 172.96875 353.742188 L 171.867188 353.742188 L 169.484375 308.902344 L 171.070312 308.835938 L 172.96875 353.742188 M 170.929688 305.539062 L 169.304688 305.539062 L 165.71875 238.1875 L 185.894531 238.1875 L 186.070312 245.824219 L 168.375 245.324219 L 170.929688 305.539062 M 210.1875 246.503906 L 189.070312 245.90625 L 189.070312 238.1875 L 210.480469 238.1875 L 210.1875 246.503906 " fill-opacity="1" fill-rule="nonzero"/><path fill="#7d1d31" d="M 166.625 309.019531 L 165.617188 305.539062 L 170.929688 305.539062 L 171.070312 308.835938 L 169.484375 308.902344 L 166.625 309.019531 " fill-opacity="1" fill-rule="nonzero"/><path fill="#7d1d31" d="M 189.070312 245.90625 L 186.070312 245.824219 L 185.894531 238.1875 L 185.851562 236.34375 L 189.070312 236.34375 L 189.070312 245.90625 " fill-opacity="1" fill-rule="nonzero"/><path fill="#ffefda" d="M 247.839844 363.464844 L 247.941406 369.90625 L 140.617188 372.523438 L 138.976562 365.183594 L 144.292969 364.183594 L 145.710938 357.878906 L 241.660156 357.878906 L 243.253906 362.617188 L 247.839844 363.464844 " fill-opacity="1" fill-rule="nonzero"/><path fill="#c29c94" d="M 243.855469 370.003906 L 243.300781 365.375 L 157.234375 363.976562 L 240.972656 362.65625 L 240.167969 359.90625 L 184.09375 357.878906 L 241.660156 357.878906 L 243.253906 362.617188 L 247.839844 363.464844 L 247.941406 369.90625 L 243.855469 370.003906 " fill-opacity="1" fill-rule="nonzero"/><path fill="#ffefda" d="M 120.546875 674.265625 L 192.289062 674.265625 L 192.289062 677.949219 L 121.472656 677.027344 L 120.546875 674.265625 " fill-opacity="1" fill-rule="nonzero"/><path fill="#ffefda" d="M 406.476562 677.105469 L 339.460938 678.375 L 339.460938 674.695312 L 406.960938 674.695312 L 406.476562 677.105469 " fill-opacity="1" fill-rule="nonzero"/><path fill="#ffefda" d="M 309.097656 590.539062 L 307.039062 718.417969 L 238.992188 716.355469 L 225.585938 591.566406 L 309.097656 590.539062 " fill-opacity="1" fill-rule="nonzero"/><path fill="#01836a" d="M 304.039062 596.0625 L 304.039062 713.828125 L 242.875 713.828125 L 230 597.90625 L 304.039062 596.0625 " fill-opacity="1" fill-rule="nonzero"/><path fill="#005046" d="M 304.039062 713.828125 L 274.351562 713.828125 L 272.660156 662.484375 L 304.039062 665.742188 L 304.039062 713.828125 M 271.351562 713.828125 L 245.261719 713.828125 C 244.714844 702.242188 243.652344 680.285156 242.628906 659.363281 L 269.351562 662.136719 L 271.351562 713.828125 " fill-opacity="1" fill-rule="nonzero"/><path fill="#ffefda" d="M 266.789062 596.0625 L 271.390625 714.75 L 274.394531 715.121094 L 270.464844 596.0625 L 266.789062 596.0625 " fill-opacity="1" fill-rule="nonzero"/><g clip-path="url(#4cc8f58e28)"><path fill="#c9a9a4" d="M 741.75 240.722656 L 737.144531 245.332031 L 442.457031 180.335938 L 447.0625 161.914062 L 741.75 240.722656 " fill-opacity="1" fill-rule="nonzero"/></g><path fill="#a07a79" d="M 534.546875 710.515625 L 672.679688 696.703125 L 681.890625 590.765625 L 550.664062 581.554688 L 523.035156 710.515625 L 534.546875 710.515625 " fill-opacity="1" fill-rule="nonzero"/><path fill="#b38b89" d="M 727.800781 246.6875 L 431.457031 187.242188 L 433.246094 180.335938 L 440.152344 180.851562 L 729.769531 243.726562 L 729.015625 244.867188 L 727.800781 246.6875 " fill-opacity="1" fill-rule="nonzero"/><path fill="#734f5a" d="M 440.664062 544.707031 L 569.082031 558.523438 L 564.476562 572.34375 L 438.363281 565.179688 L 440.664062 544.707031 " fill-opacity="1" fill-rule="nonzero"/><g clip-path="url(#82670dbd10)"><path fill="#734f5a" d="M 409.972656 707.445312 L 672.679688 692.097656 L 670.378906 696.703125 L 409.972656 722.027344 L 409.972656 707.445312 " fill-opacity="1" fill-rule="nonzero"/></g><path fill="#01836a" d="M 552.964844 574.644531 L 529.945312 699.003906 L 405.621094 701.308594 L 426.339844 570.039062 L 552.964844 574.644531 " fill-opacity="1" fill-rule="nonzero"/><path fill="#456261" d="M 552.078125 581.652344 L 551.671875 581.625 L 552.542969 576.933594 L 552.964844 576.949219 L 552.078125 581.652344 " fill-opacity="1" fill-rule="nonzero"/><path fill="#384d4b" d="M 529.945312 699.003906 L 551.671875 581.625 L 552.078125 581.652344 L 529.945312 699.003906 " fill-opacity="1" fill-rule="nonzero"/><path fill="#005046" d="M 529.945312 699.003906 L 437.851562 699.003906 L 449.289062 573.179688 L 552.542969 576.933594 L 551.671875 581.625 L 529.945312 699.003906 " fill-opacity="1" fill-rule="nonzero"/><path fill="#c5b7b9" d="M 407.921875 678.277344 L 534.546875 682.882812 L 534.546875 680.582031 L 410.222656 675.976562 L 407.921875 678.277344 " fill-opacity="1" fill-rule="nonzero"/><path fill="#c9a9a4" d="M 555.269531 572.34375 L 684.191406 586.160156 L 681.890625 593.070312 L 552.964844 581.554688 L 555.269531 572.34375 " fill-opacity="1" fill-rule="nonzero"/><path fill="#e0d1d4" d="M 681.890625 595.371094 L 681.492188 595.351562 L 681.695312 593.046875 L 681.890625 593.070312 L 681.890625 595.371094 " fill-opacity="1" fill-rule="nonzero"/><path fill="#bb8281" d="M 561.417969 582.308594 L 555.160156 581.867188 L 555.203125 581.753906 L 561.417969 582.308594 " fill-opacity="1" fill-rule="nonzero"/><path fill="#926466" d="M 681.492188 595.351562 L 552.964844 588.464844 L 555.160156 581.867188 L 561.417969 582.308594 L 681.695312 593.046875 L 681.492188 595.351562 " fill-opacity="1" fill-rule="nonzero"/><path fill="#b38b89" d="M 681.890625 593.070312 L 681.695312 593.046875 L 561.417969 582.308594 L 555.203125 581.753906 L 555.269531 581.554688 L 681.890625 590.765625 L 681.890625 593.070312 " fill-opacity="1" fill-rule="nonzero"/><path fill="#bb8281" d="M 481.59375 332.839844 L 451.664062 330.539062 L 458.570312 236.121094 L 493.105469 243.023438 L 481.59375 332.839844 " fill-opacity="1" fill-rule="nonzero"/><path fill="#894455" d="M 486.199219 245.328125 L 475.050781 332.339844 L 451.664062 330.539062 L 458.308594 239.75 L 486.199219 245.328125 " fill-opacity="1" fill-rule="nonzero"/><path fill="#72bfa8" d="M 481.59375 247.636719 L 470.78125 332.007812 L 451.664062 330.539062 L 458.078125 242.925781 L 481.59375 247.636719 " fill-opacity="1" fill-rule="nonzero"/><path fill="#894455" d="M 456.269531 270.664062 L 479.292969 272.964844 L 479.292969 275.265625 L 456.269531 272.964844 L 456.269531 270.664062 " fill-opacity="1" fill-rule="nonzero"/><path fill="#bb8281" d="M 558.851562 337.445312 L 532.246094 335.402344 L 538.382812 251.472656 L 569.082031 257.613281 L 558.851562 337.445312 " fill-opacity="1" fill-rule="nonzero"/><path fill="#894455" d="M 562.941406 259.65625 L 553.027344 336.996094 L 532.246094 335.402344 L 538.144531 254.699219 L 562.941406 259.65625 " fill-opacity="1" fill-rule="nonzero"/><path fill="#72bfa8" d="M 558.851562 261.707031 L 549.234375 336.707031 L 532.246094 335.402344 L 537.941406 257.523438 L 558.851562 261.707031 " fill-opacity="1" fill-rule="nonzero"/><path fill="#894455" d="M 536.339844 282.175781 L 556.800781 284.226562 L 556.800781 286.269531 L 536.339844 284.226562 L 536.339844 282.175781 " fill-opacity="1" fill-rule="nonzero"/><path fill="#bb8281" d="M 615.417969 344.230469 L 589.804688 342.257812 L 595.714844 261.453125 L 625.265625 267.367188 L 615.417969 344.230469 " fill-opacity="1" fill-rule="nonzero"/><path fill="#894455" d="M 619.355469 269.332031 L 609.8125 343.800781 L 589.804688 342.257812 L 595.488281 264.558594 L 619.355469 269.332031 " fill-opacity="1" fill-rule="nonzero"/><path fill="#72bfa8" d="M 615.417969 271.304688 L 606.160156 343.519531 L 589.804688 342.257812 L 595.285156 267.277344 L 615.417969 271.304688 " fill-opacity="1" fill-rule="nonzero"/><path fill="#894455" d="M 593.742188 291.015625 L 613.445312 292.988281 L 613.445312 294.957031 L 593.742188 292.988281 L 593.742188 291.015625 " fill-opacity="1" fill-rule="nonzero"/><path fill="#bb8281" d="M 668.09375 348.171875 L 644.1875 346.332031 L 649.703125 270.910156 L 677.285156 276.433594 L 668.09375 348.171875 " fill-opacity="1" fill-rule="nonzero"/><path fill="#894455" d="M 671.773438 278.265625 L 662.863281 347.773438 L 644.1875 346.332031 L 649.488281 273.808594 L 671.773438 278.265625 " fill-opacity="1" fill-rule="nonzero"/><path fill="#72bfa8" d="M 668.09375 280.109375 L 659.449219 347.511719 L 644.1875 346.332031 L 649.300781 276.351562 L 668.09375 280.109375 " fill-opacity="1" fill-rule="nonzero"/><path fill="#894455" d="M 647.863281 298.503906 L 666.253906 300.347656 L 666.253906 302.183594 L 647.863281 300.347656 L 647.863281 298.503906 " fill-opacity="1" fill-rule="nonzero"/><path fill="#bb8281" d="M 465.480469 500.949219 L 435.550781 498.648438 L 442.457031 404.230469 L 476.992188 411.140625 L 465.480469 500.949219 " fill-opacity="1" fill-rule="nonzero"/><path fill="#894455" d="M 470.082031 413.445312 L 458.933594 500.449219 L 435.550781 498.648438 L 442.191406 407.863281 L 470.082031 413.445312 " fill-opacity="1" fill-rule="nonzero"/><path fill="#009086" d="M 465.480469 415.746094 L 454.664062 500.121094 L 435.550781 498.648438 L 441.960938 411.042969 L 465.480469 415.746094 " fill-opacity="1" fill-rule="nonzero"/><path fill="#894455" d="M 440.152344 438.777344 L 463.175781 441.078125 L 463.175781 443.382812 L 440.152344 441.078125 L 440.152344 438.777344 " fill-opacity="1" fill-rule="nonzero"/><path fill="#bb8281" d="M 542.230469 503.320312 L 514.339844 501.171875 L 520.777344 413.183594 L 552.957031 419.625 L 542.230469 503.320312 " fill-opacity="1" fill-rule="nonzero"/><path fill="#894455" d="M 546.519531 421.773438 L 536.128906 502.851562 L 514.339844 501.171875 L 520.527344 416.566406 L 546.519531 421.773438 " fill-opacity="1" fill-rule="nonzero"/><path fill="#009086" d="M 542.230469 423.914062 L 532.152344 502.546875 L 514.339844 501.171875 L 520.3125 419.53125 L 542.230469 423.914062 " fill-opacity="1" fill-rule="nonzero"/><path fill="#894455" d="M 518.628906 445.375 L 540.082031 447.523438 L 540.082031 449.671875 L 518.628906 447.523438 L 518.628906 445.375 " fill-opacity="1" fill-rule="nonzero"/><path fill="#bb8281" d="M 602.105469 505.480469 L 575.957031 503.46875 L 581.992188 420.976562 L 612.164062 427.011719 L 602.105469 505.480469 " fill-opacity="1" fill-rule="nonzero"/><path fill="#894455" d="M 606.132812 429.027344 L 596.390625 505.039062 L 575.957031 503.46875 L 581.761719 424.152344 L 606.132812 429.027344 " fill-opacity="1" fill-rule="nonzero"/><path fill="#009086" d="M 602.105469 431.042969 L 592.65625 504.75 L 575.957031 503.46875 L 581.558594 426.925781 L 602.105469 431.042969 " fill-opacity="1" fill-rule="nonzero"/><path fill="#894455" d="M 579.980469 451.160156 L 600.097656 453.171875 L 600.097656 455.179688 L 579.980469 453.171875 L 579.980469 451.160156 " fill-opacity="1" fill-rule="nonzero"/><path fill="#bb8281" d="M 656.390625 506.066406 L 631.984375 504.1875 L 637.613281 427.199219 L 665.773438 432.832031 L 656.390625 506.066406 " fill-opacity="1" fill-rule="nonzero"/><path fill="#894455" d="M 660.140625 434.707031 L 651.050781 505.65625 L 631.984375 504.1875 L 637.398438 430.15625 L 660.140625 434.707031 " fill-opacity="1" fill-rule="nonzero"/><path fill="#72bfa8" d="M 656.390625 436.585938 L 647.574219 505.390625 L 631.984375 504.1875 L 637.207031 432.75 L 656.390625 436.585938 " fill-opacity="1" fill-rule="nonzero"/><path fill="#894455" d="M 635.742188 455.367188 L 654.511719 457.242188 L 654.511719 459.121094 L 635.742188 457.242188 L 635.742188 455.367188 " fill-opacity="1" fill-rule="nonzero"/><path fill="#926466" d="M 592.105469 602.28125 L 557.570312 599.976562 L 555.269531 595.371094 L 592.105469 599.976562 L 592.105469 602.28125 " fill-opacity="1" fill-rule="nonzero"/><path fill="#926466" d="M 580.851562 608.507812 L 565.601562 607.46875 L 564.476562 604.582031 L 580.660156 606.214844 L 580.851562 608.507812 " fill-opacity="1" fill-rule="nonzero"/><path fill="#926466" d="M 587.507812 613.859375 L 574.0625 612.882812 L 573.429688 609.957031 L 587.316406 611.566406 L 587.507812 613.859375 " fill-opacity="1" fill-rule="nonzero"/><path fill="#926466" d="M 575.988281 682.882812 L 541.453125 680.582031 L 539.152344 675.976562 L 575.988281 680.582031 L 575.988281 682.882812 " fill-opacity="1" fill-rule="nonzero"/><path fill="#926466" d="M 576.246094 691.414062 L 561 690.371094 L 559.875 687.488281 L 576.054688 689.117188 L 576.246094 691.414062 " fill-opacity="1" fill-rule="nonzero"/><path fill="#926466" d="M 644.910156 661.457031 L 625.378906 660.152344 L 624.078125 657.550781 L 644.910156 660.152344 L 644.910156 661.457031 " fill-opacity="1" fill-rule="nonzero"/><path fill="#926466" d="M 645.054688 666.285156 L 636.433594 665.695312 L 635.796875 664.0625 L 644.945312 664.980469 L 645.054688 666.285156 " fill-opacity="1" fill-rule="nonzero"/><path fill="#926466" d="M 674.183594 614.8125 L 620.921875 609.792969 L 617.542969 606.949219 L 674.269531 613.511719 L 674.183594 614.8125 " fill-opacity="1" fill-rule="nonzero"/><path fill="#926466" d="M 674.246094 619.652344 L 650.730469 617.425781 L 649.105469 615.675781 L 674.042969 618.335938 L 674.246094 619.652344 " fill-opacity="1" fill-rule="nonzero"/><path fill="#926466" d="M 663.734375 684.503906 L 648.484375 683.46875 L 647.355469 680.582031 L 663.539062 682.207031 L 663.734375 684.503906 " fill-opacity="1" fill-rule="nonzero"/><path fill="#926466" d="M 670.636719 678.359375 L 655.394531 677.324219 L 654.261719 674.441406 L 670.445312 676.066406 L 670.636719 678.359375 " fill-opacity="1" fill-rule="nonzero"/><path fill="#926466" d="M 557.578125 691.394531 L 544.132812 690.414062 L 543.5 687.488281 L 557.386719 689.097656 L 557.578125 691.394531 " fill-opacity="1" fill-rule="nonzero"/><path fill="#926466" d="M 564.734375 696.765625 L 551.292969 695.789062 L 550.664062 692.859375 L 564.546875 694.472656 L 564.734375 696.765625 " fill-opacity="1" fill-rule="nonzero"/><path fill="#784a55" d="M 245.390625 716.550781 L 238.992188 716.355469 L 237.914062 706.347656 L 238.992188 716.355469 L 245.390625 716.550781 " fill-opacity="1" fill-rule="nonzero"/><path fill="#c29c94" d="M 245.390625 716.550781 L 238.992188 716.355469 L 237.914062 706.347656 L 226.214844 597.449219 L 248.53125 597.449219 L 230 597.90625 L 236.757812 658.753906 L 242.875 713.828125 L 245.261719 713.828125 C 245.308594 714.808594 245.351562 715.722656 245.390625 716.550781 M 308.8125 608.027344 L 304.039062 608.027344 L 304.039062 597.449219 L 308.984375 597.449219 L 308.8125 608.027344 " fill-opacity="1" fill-rule="nonzero"/><path fill="#1d554b" d="M 242.628906 659.363281 L 236.757812 658.753906 L 230 597.90625 L 248.53125 597.449219 L 266.839844 597.449219 L 267.253906 608.027344 L 240.117188 608.027344 C 240.117188 608.027344 241.335938 632.863281 242.628906 659.363281 M 304.039062 608.027344 L 270.863281 608.027344 L 270.511719 597.449219 L 304.039062 597.449219 L 304.039062 608.027344 " fill-opacity="1" fill-rule="nonzero"/><path fill="#1c3434" d="M 245.261719 713.828125 L 242.875 713.828125 L 236.757812 658.753906 L 242.628906 659.363281 C 243.652344 680.285156 244.714844 702.242188 245.261719 713.828125 " fill-opacity="1" fill-rule="nonzero"/><path fill="#c29c94" d="M 270.863281 608.027344 L 267.253906 608.027344 L 266.839844 597.449219 L 270.511719 597.449219 L 270.863281 608.027344 " fill-opacity="1" fill-rule="nonzero"/><path fill="#883d3c" d="M 333.007812 597.449219 L 308.984375 597.449219 L 309.097656 590.539062 L 225.585938 591.566406 L 226.214844 597.449219 L 214.363281 597.449219 L 212.769531 583.097656 L 255.753906 583.097656 L 255.753906 576.757812 L 212.066406 576.757812 L 211.15625 568.609375 L 334.710938 566.769531 L 333.851562 582.339844 L 282.425781 582.339844 L 282.425781 588.695312 L 333.5 588.695312 L 333.007812 597.449219 M 274.152344 573.996094 L 274.457031 580.332031 L 293.667969 580.332031 L 293.667969 573.996094 L 274.152344 573.996094 " fill-opacity="1" fill-rule="nonzero"/><path fill="#7d3033" d="M 255.753906 583.097656 L 212.769531 583.097656 L 212.066406 576.757812 L 255.753906 576.757812 L 255.753906 583.097656 " fill-opacity="1" fill-rule="nonzero"/><path fill="#75282d" d="M 293.667969 580.332031 L 274.457031 580.332031 L 274.152344 573.996094 L 293.667969 573.996094 L 293.667969 580.332031 " fill-opacity="1" fill-rule="nonzero"/><path fill="#7d3033" d="M 333.5 588.695312 L 282.425781 588.695312 L 282.425781 582.339844 L 333.851562 582.339844 L 333.5 588.695312 " fill-opacity="1" fill-rule="nonzero"/><path fill="#6c3340" d="M 211.15625 568.609375 L 210.683594 564.328125 L 334.851562 564.328125 L 334.710938 566.769531 L 211.15625 568.609375 " fill-opacity="1" fill-rule="nonzero"/><path fill="#9f6c6c" d="M 308.984375 597.449219 L 309.097656 590.539062 L 308.984375 597.449219 " fill-opacity="1" fill-rule="nonzero"/><path fill="#84464c" d="M 308.984375 597.449219 L 304.039062 597.449219 L 304.039062 596.0625 L 270.496094 596.898438 L 270.464844 596.0625 L 266.789062 596.0625 L 266.824219 596.992188 L 248.53125 597.449219 L 226.214844 597.449219 L 225.585938 591.566406 L 309.097656 590.539062 L 308.984375 597.449219 " fill-opacity="1" fill-rule="nonzero"/><path fill="#3a262b" d="M 304.039062 597.449219 L 270.511719 597.449219 L 270.496094 596.898438 L 304.039062 596.0625 L 304.039062 597.449219 M 266.839844 597.449219 L 248.53125 597.449219 L 266.824219 596.992188 L 266.839844 597.449219 " fill-opacity="1" fill-rule="nonzero"/><path fill="#84464c" d="M 270.511719 597.449219 L 266.839844 597.449219 L 266.824219 596.992188 L 266.789062 596.0625 L 270.464844 596.0625 L 270.496094 596.898438 L 270.511719 597.449219 " fill-opacity="1" fill-rule="nonzero"/><path fill="#e5a490" d="M 328.414062 551.445312 L 326.570312 584.566406 L 207.925781 584.566406 L 204.246094 551.445312 L 328.414062 551.445312 " fill-opacity="1" fill-rule="nonzero"/><path fill="#fddaa2" d="M 323.558594 551.445312 L 321.972656 579.949219 L 207.410156 579.949219 L 204.246094 551.445312 L 323.558594 551.445312 " fill-opacity="1" fill-rule="nonzero"/></svg>