<svg xmlns="http://www.w3.org/2000/svg" xmlns:xlink="http://www.w3.org/1999/xlink" width="1080" zoomAndPan="magnify" viewBox="0 0 810 809.999993" height="1080" preserveAspectRatio="xMidYMid meet" version="1.0"><defs><clipPath id="a358d07a5d"><path d="M 337 155.34375 L 473 155.34375 L 473 335 L 337 335 Z M 337 155.34375 " clip-rule="nonzero"/></clipPath><clipPath id="c94171b16d"><path d="M 156.558594 374 L 653.808594 374 L 653.808594 687.84375 L 156.558594 687.84375 Z M 156.558594 374 " clip-rule="nonzero"/></clipPath><clipPath id="81f8f4cef3"><path d="M 286 269 L 525 269 L 525 687.84375 L 286 687.84375 Z M 286 269 " clip-rule="nonzero"/></clipPath><clipPath id="dc0f8d207e"><path d="M 355 578 L 455 578 L 455 687.84375 L 355 687.84375 Z M 355 578 " clip-rule="nonzero"/></clipPath></defs><rect x="-81" width="972" fill="#ffffff" y="-80.999999" height="971.999992" fill-opacity="1"/><rect x="-81" width="972" fill="#ffffff" y="-80.999999" height="971.999992" fill-opacity="1"/><g clip-path="url(#a358d07a5d)"><path fill="#e30613" d="M 472.453125 334.152344 L 337.914062 334.152344 L 337.914062 175.058594 C 337.914062 164.308594 346.648438 155.582031 357.410156 155.582031 L 452.972656 155.582031 C 463.734375 155.582031 472.472656 164.308594 472.472656 175.058594 L 472.472656 334.152344 Z M 472.453125 334.152344 " fill-opacity="1" fill-rule="nonzero"/></g><g clip-path="url(#c94171b16d)"><path fill="#bae3fa" d="M 653.769531 687.605469 L 156.613281 687.605469 L 156.613281 389.601562 C 156.613281 381.351562 163.304688 374.652344 171.578125 374.652344 L 638.824219 374.652344 C 647.082031 374.652344 653.789062 381.332031 653.789062 389.601562 L 653.789062 687.605469 Z M 653.769531 687.605469 " fill-opacity="1" fill-rule="nonzero"/></g><path fill="#575756" d="M 166.195312 489.082031 L 233.503906 489.082031 L 233.503906 552.300781 L 166.195312 552.300781 Z M 166.195312 489.082031 " fill-opacity="1" fill-rule="nonzero"/><path fill="#575756" d="M 276.058594 489.082031 L 343.367188 489.082031 L 343.367188 552.300781 L 276.058594 552.300781 Z M 276.058594 489.082031 " fill-opacity="1" fill-rule="nonzero"/><path fill="#575756" d="M 166.195312 397.589844 L 233.503906 397.589844 L 233.503906 460.804688 L 166.195312 460.804688 Z M 166.195312 397.589844 " fill-opacity="1" fill-rule="nonzero"/><path fill="#575756" d="M 166.195312 580.574219 L 233.503906 580.574219 L 233.503906 643.792969 L 166.195312 643.792969 Z M 166.195312 580.574219 " fill-opacity="1" fill-rule="nonzero"/><path fill="#575756" d="M 276.058594 397.589844 L 343.367188 397.589844 L 343.367188 460.804688 L 276.058594 460.804688 Z M 276.058594 397.589844 " fill-opacity="1" fill-rule="nonzero"/><path fill="#575756" d="M 276.058594 580.574219 L 343.367188 580.574219 L 343.367188 643.792969 L 276.058594 643.792969 Z M 276.058594 580.574219 " fill-opacity="1" fill-rule="nonzero"/><path fill="#575756" d="M 467 487.242188 L 534.304688 487.242188 L 534.304688 550.457031 L 467 550.457031 Z M 467 487.242188 " fill-opacity="1" fill-rule="nonzero"/><path fill="#575756" d="M 576.863281 487.242188 L 644.167969 487.242188 L 644.167969 550.457031 L 576.863281 550.457031 Z M 576.863281 487.242188 " fill-opacity="1" fill-rule="nonzero"/><path fill="#575756" d="M 467 395.75 L 534.304688 395.75 L 534.304688 458.964844 L 467 458.964844 Z M 467 395.75 " fill-opacity="1" fill-rule="nonzero"/><path fill="#575756" d="M 467 578.734375 L 534.304688 578.734375 L 534.304688 641.953125 L 467 641.953125 Z M 467 578.734375 " fill-opacity="1" fill-rule="nonzero"/><path fill="#575756" d="M 576.863281 395.75 L 644.167969 395.75 L 644.167969 458.964844 L 576.863281 458.964844 Z M 576.863281 395.75 " fill-opacity="1" fill-rule="nonzero"/><path fill="#575756" d="M 576.863281 578.734375 L 644.167969 578.734375 L 644.167969 641.953125 L 576.863281 641.953125 Z M 576.863281 578.734375 " fill-opacity="1" fill-rule="nonzero"/><g clip-path="url(#81f8f4cef3)"><path fill="#79cdf4" d="M 524.003906 687.605469 L 286.363281 687.605469 L 286.363281 285.9375 C 286.363281 276.992188 293.625 269.71875 302.601562 269.71875 L 507.746094 269.71875 C 516.703125 269.71875 523.984375 276.972656 523.984375 285.9375 L 523.984375 687.605469 Z M 524.003906 687.605469 " fill-opacity="1" fill-rule="nonzero"/></g><path fill="#575756" d="M 310.671875 400 L 382.476562 400 L 382.476562 463.21875 L 310.671875 463.21875 Z M 310.671875 400 " fill-opacity="1" fill-rule="nonzero"/><path fill="#575756" d="M 427.890625 400 L 499.695312 400 L 499.695312 463.21875 L 427.890625 463.21875 Z M 427.890625 400 " fill-opacity="1" fill-rule="nonzero"/><path fill="#575756" d="M 310.671875 308.507812 L 382.476562 308.507812 L 382.476562 371.722656 L 310.671875 371.722656 Z M 310.671875 308.507812 " fill-opacity="1" fill-rule="nonzero"/><path fill="#575756" d="M 310.671875 491.496094 L 382.476562 491.496094 L 382.476562 554.710938 L 310.671875 554.710938 Z M 310.671875 491.496094 " fill-opacity="1" fill-rule="nonzero"/><path fill="#575756" d="M 427.890625 308.507812 L 499.695312 308.507812 L 499.695312 371.722656 L 427.890625 371.722656 Z M 427.890625 308.507812 " fill-opacity="1" fill-rule="nonzero"/><path fill="#575756" d="M 427.890625 491.496094 L 499.695312 491.496094 L 499.695312 554.710938 L 427.890625 554.710938 Z M 427.890625 491.496094 " fill-opacity="1" fill-rule="nonzero"/><g clip-path="url(#dc0f8d207e)"><path fill="#2fac66" d="M 454.945312 687.605469 L 355.421875 687.605469 L 355.421875 614.28125 C 355.421875 594.789062 371.234375 578.992188 390.753906 578.992188 L 419.613281 578.992188 C 439.132812 578.992188 454.945312 594.789062 454.945312 614.28125 Z M 454.945312 687.605469 " fill-opacity="1" fill-rule="nonzero"/></g><path fill="#ffffff" d="M 451.039062 197.722656 L 420.8125 197.722656 L 420.8125 167.546875 L 389.554688 167.546875 L 389.554688 197.722656 L 359.347656 197.722656 L 359.347656 228.960938 L 389.554688 228.960938 L 389.554688 259.132812 L 420.8125 259.132812 L 420.8125 228.960938 L 451.039062 228.960938 Z M 451.039062 197.722656 " fill-opacity="1" fill-rule="nonzero"/></svg>