<svg xmlns="http://www.w3.org/2000/svg" xmlns:xlink="http://www.w3.org/1999/xlink" width="1080" zoomAndPan="magnify" viewBox="0 0 810 1439.999935" height="1920" preserveAspectRatio="xMidYMid meet" version="1.0"><defs><clipPath id="67f3c7052c"><path d="M 243 603.496094 L 567 603.496094 L 567 836.746094 L 243 836.746094 Z M 243 603.496094 " clip-rule="nonzero"/></clipPath></defs><g clip-path="url(#67f3c7052c)"><path fill="#000000" d="M 280.648438 791.015625 C 280.351562 791.78125 280.339844 792.582031 280.433594 793.371094 C 280.570312 794.546875 280.6875 795.710938 279.898438 796.796875 C 280.6875 797 280.820312 796.453125 281.085938 796.136719 C 283.171875 793.648438 285.238281 791.144531 287.335938 788.664062 C 287.761719 788.164062 288.273438 787.734375 288.78125 787.316406 C 289.050781 787.09375 289.414062 787.042969 289.660156 787.367188 C 289.84375 787.605469 289.71875 787.871094 289.550781 788.085938 C 288.160156 789.855469 286.875 791.726562 285.335938 793.359375 C 283.777344 795.019531 282.515625 796.867188 281.238281 798.722656 C 280.445312 799.867188 280.578125 801.269531 280.441406 802.566406 C 280.296875 803.941406 280.410156 805.34375 280.410156 806.664062 C 281.75 803.46875 284.167969 800.941406 286.480469 798.339844 C 286.691406 798.101562 286.984375 797.824219 287.316406 798.097656 C 287.617188 798.347656 287.53125 798.746094 287.335938 799.007812 C 286.160156 800.605469 285.015625 802.234375 283.742188 803.757812 C 281.917969 805.9375 280.648438 808.3125 280.46875 811.214844 C 280.425781 811.914062 279.910156 812.554688 280.175781 813.394531 C 281.070312 809.421875 284.191406 807.128906 286.757812 804.417969 C 287.03125 804.128906 287.285156 803.804688 287.707031 803.746094 C 287.886719 803.71875 288.113281 803.75 288.269531 803.839844 C 288.578125 804.019531 288.464844 804.328125 288.316406 804.527344 C 287.675781 805.371094 287.03125 806.214844 286.332031 807.011719 C 285.414062 808.054688 284.421875 809.039062 283.507812 810.085938 C 281.625 812.234375 280.710938 814.773438 280.5625 817.675781 C 282.402344 815.941406 284.308594 814.34375 286.1875 812.707031 C 286.6875 812.273438 287.191406 811.84375 287.714844 811.441406 C 287.929688 811.277344 288.230469 811.210938 288.402344 811.5 C 288.484375 811.640625 288.492188 811.90625 288.414062 812.042969 C 288.144531 812.492188 287.867188 812.960938 287.503906 813.332031 C 286.671875 814.183594 285.851562 815.074219 284.90625 815.785156 C 282.722656 817.433594 281.148438 819.675781 279.164062 821.511719 C 278.84375 821.808594 278.835938 822.222656 278.828125 822.617188 C 278.804688 824.605469 278.746094 826.597656 278.785156 828.585938 C 278.808594 829.757812 279.113281 830.042969 280.253906 829.863281 C 283.917969 829.277344 287.609375 828.953125 291.292969 828.5625 C 293.128906 828.367188 293.199219 828.171875 293.25 826.273438 C 293.425781 819.242188 293.039062 812.21875 292.910156 805.195312 C 292.609375 789.015625 292.90625 772.839844 293.007812 756.664062 C 293.042969 751.097656 292.984375 745.53125 292.886719 739.964844 C 292.855469 738.289062 292.777344 738.207031 291.027344 738.207031 C 284.933594 738.199219 278.835938 738.199219 272.75 738.585938 C 272.355469 738.613281 271.917969 738.554688 271.605469 738.824219 C 270.902344 739.429688 270.328125 739.496094 269.53125 738.847656 C 268.972656 738.394531 268.128906 738.625 267.414062 738.808594 C 266.699219 738.996094 265.976562 739.042969 265.246094 738.945312 C 264.828125 738.890625 264.457031 738.714844 264.371094 738.265625 C 264.289062 737.828125 264.527344 737.359375 264.917969 737.328125 C 266.988281 737.164062 266.855469 735.5625 267.140625 734.152344 C 268.882812 725.519531 270.90625 716.953125 273.109375 708.421875 C 275.792969 698.027344 278.976562 687.777344 281.980469 677.472656 C 284 670.546875 286.429688 663.738281 289.117188 657.035156 C 290.078125 654.648438 290.875 652.175781 292.125 649.902344 C 292.6875 648.878906 293.375 648.335938 294.644531 648.398438 C 301.777344 648.75 308.914062 648.792969 316.054688 648.8125 C 327.980469 648.839844 339.910156 648.816406 351.835938 648.964844 C 357.128906 649.03125 362.414062 648.945312 367.703125 648.761719 C 368.828125 648.722656 369.703125 648.332031 370.550781 647.59375 C 373.699219 644.835938 376.574219 641.800781 379.394531 638.726562 C 383.480469 634.265625 387.914062 630.191406 392.480469 626.25 C 397.847656 621.617188 403.222656 616.996094 408.625 612.40625 C 410.695312 610.648438 412.824219 608.960938 414.96875 607.292969 C 416.421875 606.160156 416.660156 606.203125 418.050781 607.339844 C 418.921875 608.054688 419.734375 609 420.796875 609.257812 C 422.132812 609.582031 422.425781 607.933594 423.382812 607.402344 C 424.738281 606.65625 425.585938 605.3125 426.703125 604.28125 C 427.484375 603.558594 428.175781 603.507812 428.96875 604.164062 C 429.328125 604.460938 429.707031 604.730469 430.039062 605.054688 C 434.925781 609.835938 440.304688 614.042969 445.601562 618.34375 C 449.832031 621.777344 453.695312 625.605469 457.519531 629.460938 C 463.078125 635.058594 468.511719 640.78125 473.59375 646.820312 C 474.347656 647.71875 475.167969 648.078125 476.324219 648.074219 C 484.875 648.039062 493.421875 648.042969 501.96875 648.042969 C 506.078125 648.042969 510.183594 648.035156 514.292969 648.074219 C 518.074219 648.105469 521.832031 647.617188 525.609375 647.570312 C 526.136719 647.566406 526.667969 647.558594 527.195312 647.550781 C 527.964844 647.542969 528.351562 647.894531 528.5625 648.675781 C 529.625 652.648438 531.0625 656.5 532.417969 660.378906 C 535.808594 670.074219 539.320312 679.734375 542.542969 689.484375 C 545.339844 697.957031 549.277344 705.898438 553.074219 713.925781 C 556.214844 720.578125 559.699219 727.066406 562.46875 733.894531 C 562.941406 735.0625 563.53125 736.167969 564.664062 736.855469 C 564.914062 737.003906 565.078125 737.234375 564.992188 737.507812 C 564.910156 737.773438 564.632812 737.90625 564.367188 737.929688 C 563.058594 738.058594 561.75 738.261719 560.441406 738.261719 C 556.667969 738.261719 552.894531 738.144531 549.121094 738.136719 C 547.222656 738.128906 547.199219 738.183594 547.066406 740.175781 C 546.941406 742.027344 546.84375 743.882812 546.777344 745.734375 C 546.257812 760.054688 546.371094 774.382812 546.277344 788.710938 C 546.25 792.949219 546.039062 797.191406 546.101562 801.429688 C 546.183594 806.996094 545.816406 812.554688 546.128906 818.128906 C 546.285156 820.890625 546.367188 823.683594 546.265625 826.464844 C 546.234375 827.347656 546.210938 828.152344 547.308594 828.546875 C 548.023438 828.804688 547.671875 829.378906 547.371094 829.855469 C 546.195312 831.714844 546.328125 831.886719 548.527344 832.066406 C 554.140625 832.523438 559.753906 832.902344 565.390625 832.679688 C 565.714844 832.664062 566.050781 832.699219 566.371094 832.75 C 566.652344 832.796875 566.851562 832.976562 566.890625 833.269531 C 566.9375 833.648438 566.746094 833.941406 566.398438 834.007812 C 565.882812 834.105469 565.347656 834.148438 564.824219 834.148438 C 560.054688 834.167969 555.28125 834.28125 550.523438 833.777344 C 549.5625 833.675781 548.570312 833.601562 547.65625 833.8125 C 547.429688 834.335938 547.648438 834.679688 547.824219 835.035156 C 548.023438 835.441406 548.390625 835.921875 547.777344 836.222656 C 547.183594 836.507812 546.609375 836.34375 546.226562 835.753906 C 546.191406 835.699219 546.171875 835.628906 546.167969 835.566406 C 546.011719 833.628906 544.6875 833.527344 543.179688 833.597656 C 541.726562 833.664062 540.265625 833.625 538.808594 833.636719 C 538.476562 833.640625 538.101562 833.765625 537.824219 833.644531 C 536.703125 833.167969 536.34375 835.355469 535.085938 834.375 C 534.234375 833.707031 533.179688 833.953125 532.203125 833.921875 C 524.648438 833.679688 517.097656 833.769531 509.546875 833.882812 C 499.476562 834.035156 489.40625 834.058594 479.335938 834.125 C 475.628906 834.148438 471.914062 834.15625 468.207031 834.121094 C 467.1875 834.109375 466.246094 834.65625 465.375 834.65625 C 464.507812 834.660156 463.558594 834.039062 462.542969 834.128906 C 460.523438 834.3125 458.4375 833.691406 456.476562 834.628906 C 456.371094 834.679688 456.210938 834.679688 456.097656 834.644531 C 452.589844 833.570312 448.988281 834.160156 445.441406 834.144531 C 428.28125 834.066406 411.117188 834.113281 393.953125 834.121094 C 393.09375 834.121094 392.230469 834.128906 391.371094 834.148438 C 390.90625 834.15625 390.429688 834.285156 389.984375 834.207031 C 388.84375 834.003906 388.238281 835.796875 387.417969 835.234375 C 386.488281 834.589844 385.636719 834.542969 384.671875 834.542969 C 383.675781 834.539062 382.683594 834.519531 381.714844 834.257812 C 381.320312 834.148438 380.882812 834.097656 380.550781 834.316406 C 379.320312 835.113281 377.992188 834.839844 376.691406 834.703125 C 373.527344 834.371094 370.347656 834.46875 367.175781 834.199219 C 352.101562 832.917969 336.988281 833.378906 321.886719 833.371094 C 317.121094 833.367188 312.347656 833.128906 307.585938 833.625 C 306.796875 833.710938 306.019531 833.625 305.65625 834.628906 C 305.449219 835.191406 304.863281 835.105469 304.511719 834.714844 C 303.855469 833.992188 302.992188 833.910156 302.144531 833.882812 C 300.027344 833.816406 297.902344 833.90625 295.792969 833.765625 C 294.710938 833.691406 294.574219 834.988281 293.667969 834.949219 C 292.859375 834.914062 292.824219 833.691406 291.769531 833.757812 C 288.414062 833.972656 285.019531 833.785156 281.726562 834.609375 C 280.816406 834.835938 280.210938 834.800781 279.640625 834.09375 C 279.113281 833.4375 278.542969 833.488281 277.921875 833.976562 C 275.28125 836.050781 272.203125 836.460938 269.058594 835.921875 C 263.230469 834.925781 257.457031 835.101562 251.699219 836.304688 C 249.480469 836.765625 247.355469 836.265625 245.207031 835.914062 C 244.769531 835.84375 244.339844 835.585938 243.964844 835.324219 C 243.53125 835.023438 243.058594 834.605469 243.339844 834.011719 C 243.664062 833.328125 244.265625 833.703125 244.730469 833.863281 C 248.089844 835.023438 251.472656 834.972656 254.902344 834.191406 C 259.167969 833.222656 263.457031 833.472656 267.734375 834.109375 C 269.515625 834.371094 271.304688 834.386719 273.089844 834.34375 C 274.792969 834.304688 276.296875 833.679688 277.417969 832.390625 C 277.417969 832.15625 277.328125 832.085938 277.15625 832.109375 C 271.480469 832.816406 265.769531 832.230469 260.082031 832.539062 C 259.089844 832.589844 258.097656 832.621094 257.105469 832.660156 C 256.777344 832.675781 256.4375 832.738281 256.121094 832.679688 C 255.542969 832.566406 255.128906 832.195312 255.210938 831.578125 C 255.285156 830.976562 255.816406 830.980469 256.296875 830.984375 C 259.410156 831.007812 262.523438 830.988281 265.636719 831.066406 C 268.6875 831.140625 271.726562 830.902344 274.769531 830.792969 C 276.867188 830.71875 277.203125 830.457031 277.273438 828.375 C 277.398438 824.796875 277.367188 821.214844 277.402344 817.632812 C 277.40625 817.015625 277.214844 816.46875 276.882812 815.949219 C 276.242188 814.945312 275.621094 813.925781 274.988281 812.914062 C 274.5 812.128906 273.960938 811.363281 273.535156 810.542969 C 273.246094 809.988281 272.660156 809.160156 273.351562 808.765625 C 274.097656 808.34375 274.378906 809.351562 274.730469 809.851562 C 275.558594 811.027344 276.328125 812.242188 277.367188 813.8125 C 277.597656 811.4375 277.410156 809.484375 277.371094 807.535156 C 277.355469 806.800781 276.585938 806.664062 276.363281 806.140625 C 275.417969 803.90625 273.839844 802.113281 272.34375 800.257812 C 271.851562 799.644531 271.496094 798.914062 271.121094 798.21875 C 270.964844 797.921875 270.9375 797.542969 271.269531 797.324219 C 271.582031 797.113281 271.933594 797.238281 272.164062 797.484375 C 272.621094 797.964844 273.058594 798.464844 273.445312 798.996094 C 274.523438 800.492188 275.574219 802.011719 276.765625 803.710938 C 277.382812 800.613281 276.671875 797.886719 275.941406 795.167969 C 274.925781 791.402344 273.566406 787.726562 272.964844 783.851562 C 272.847656 783.117188 272.519531 782.472656 272.125 781.851562 C 271.804688 781.347656 271.507812 780.828125 271.253906 780.289062 C 271.039062 779.828125 270.671875 779.230469 271.335938 778.90625 C 271.9375 778.613281 272.339844 779.148438 272.570312 779.625 C 273.425781 781.410156 275.140625 782.441406 276.5 784.40625 C 276.394531 782.222656 276.195312 780.496094 276.171875 778.765625 C 276.140625 776.433594 276.371094 774.179688 276.832031 771.878906 C 277.710938 767.453125 278.867188 763.105469 280.007812 758.75 C 280.15625 758.175781 280.21875 757.5625 280.621094 757.082031 C 281.019531 756.605469 281.722656 756.707031 281.839844 757.308594 C 281.964844 757.949219 281.976562 758.628906 281.9375 759.285156 C 281.699219 763.1875 281.390625 767.085938 281.191406 770.992188 C 281.019531 774.367188 281.042969 777.757812 280.007812 781.03125 C 279.957031 781.199219 280.03125 781.410156 280.058594 781.695312 C 280.679688 781.570312 280.679688 781.015625 280.796875 780.667969 C 281.808594 777.65625 283.816406 775.238281 285.535156 772.652344 C 285.644531 772.488281 285.769531 772.324219 285.917969 772.195312 C 286.34375 771.832031 286.761719 771.007812 287.332031 771.46875 C 287.945312 771.960938 287.175781 772.523438 286.886719 772.976562 C 285.347656 775.371094 283.597656 777.621094 282.363281 780.21875 C 280.871094 783.359375 280.71875 786.738281 280.414062 790.097656 C 280.386719 790.398438 280.578125 790.722656 280.667969 791.035156 Z M 535.015625 704.339844 C 535.148438 704.253906 535.28125 704.164062 535.414062 704.078125 C 535.605469 704.402344 535.832031 704.710938 535.988281 705.050781 C 537.042969 707.339844 538.074219 709.636719 539.132812 711.921875 C 541.277344 716.554688 543.464844 721.164062 545.566406 725.816406 C 546.050781 726.886719 546.691406 727.300781 547.851562 727.25 C 549.703125 727.171875 551.5625 727.257812 553.417969 727.214844 C 554.464844 727.1875 554.601562 726.972656 554.195312 725.996094 C 553.429688 724.160156 552.660156 722.324219 551.785156 720.542969 C 548.777344 714.414062 545.683594 708.324219 543.113281 701.996094 C 542.503906 700.5 541.707031 699.894531 540.03125 699.914062 C 531.484375 700.011719 522.941406 699.914062 514.398438 700.21875 C 508.109375 700.445312 501.808594 700.4375 495.515625 700.347656 C 487.503906 700.234375 479.5 701.046875 471.488281 700.484375 C 470.847656 700.4375 469.726562 700.972656 469.726562 699.984375 C 469.726562 699.140625 470.90625 699.390625 471.585938 699.378906 C 474.691406 699.316406 477.800781 699.414062 480.902344 699.273438 C 486.660156 699.011719 492.421875 699.058594 498.1875 699.035156 C 504.613281 699.007812 511.042969 699.042969 517.460938 698.816406 C 524.28125 698.574219 531.101562 698.617188 537.921875 698.511719 C 539.871094 698.480469 539.867188 698.574219 539.125 696.726562 C 537.074219 691.621094 534.902344 686.5625 533.007812 681.402344 C 529.191406 671.011719 525.4375 660.601562 520.925781 650.484375 C 520.261719 649.003906 520.273438 648.972656 518.730469 649.136719 C 516.089844 649.417969 513.4375 649.390625 510.789062 649.394531 C 499.589844 649.40625 488.394531 649.398438 477.195312 649.410156 C 476.707031 649.410156 476.171875 649.273438 475.585938 649.644531 C 477.199219 651.3125 478.371094 653.15625 479.652344 654.917969 C 480.859375 656.574219 480.75 656.964844 478.855469 657.871094 C 478.023438 658.273438 477.128906 658.542969 476.28125 658.917969 C 473.816406 660.011719 471.296875 661.011719 469.007812 662.601562 C 469.359375 663.484375 470.03125 664.050781 470.539062 664.722656 C 471.125 665.496094 471.0625 666.195312 470.4375 666.859375 C 469.648438 667.699219 468.824219 668.503906 467.902344 669.433594 C 467.710938 668.484375 468.0625 667.882812 468.390625 667.351562 C 469.273438 665.914062 469.265625 665.449219 467.933594 664.058594 C 464.726562 660.707031 461.425781 657.449219 457.996094 654.328125 C 452.210938 649.054688 445.9375 644.382812 439.757812 639.597656 C 432.433594 633.925781 424.929688 628.472656 418.328125 621.925781 C 418.066406 621.664062 417.816406 621.273438 417.222656 621.496094 C 416.941406 623.539062 417.476562 625.507812 418.046875 627.464844 C 418.128906 627.75 418.4375 627.992188 418.683594 628.199219 C 422.125 631.109375 425.566406 634.019531 429.027344 636.90625 C 433.707031 640.808594 438.71875 644.285156 443.464844 648.117188 C 447.949219 651.738281 452.175781 655.660156 456.644531 659.300781 C 458.589844 660.886719 460.535156 662.488281 462.4375 664.132812 C 464.515625 665.933594 465.828125 668.183594 466.296875 670.902344 C 466.449219 671.78125 466.566406 672.671875 465.957031 673.664062 C 464.683594 672.054688 465.277344 669.894531 463.609375 668.191406 C 463.890625 670.738281 463.777344 672.84375 463.761719 674.945312 C 463.671875 686.617188 463.71875 698.289062 463.714844 709.964844 C 463.714844 710.566406 463.796875 711.136719 463.988281 711.714844 C 465.292969 715.679688 466.578125 719.652344 467.847656 723.628906 C 468.085938 724.386719 468.292969 725.160156 468.234375 725.96875 C 468.207031 726.320312 468.03125 726.664062 467.65625 726.664062 C 467.28125 726.664062 467.113281 726.320312 467.097656 725.960938 C 466.992188 723.394531 465.886719 721.105469 465.089844 718.730469 C 464.832031 717.96875 464.765625 717.101562 463.972656 716.242188 C 463.757812 719.90625 464.03125 723.273438 464.085938 726.636719 C 464.101562 727.664062 464.800781 727.773438 465.589844 727.765625 C 471.152344 727.714844 476.71875 727.675781 482.28125 727.597656 C 483.691406 727.582031 483.746094 727.464844 483.304688 726.0625 C 482.113281 722.269531 480.890625 718.488281 479.71875 714.691406 C 479.230469 713.109375 478.828125 711.5 478.414062 709.898438 C 478.3125 709.503906 478.195312 709.050781 478.640625 708.613281 C 479.300781 709.515625 479.132812 710.503906 479.414062 711.367188 C 480.890625 715.902344 482.28125 720.464844 483.726562 725.011719 C 484.570312 727.664062 484.589844 727.65625 487.453125 727.542969 C 487.519531 727.542969 487.585938 727.539062 487.652344 727.539062 C 498.511719 727.113281 509.378906 727.273438 520.242188 727.152344 C 527.925781 727.0625 535.613281 727.179688 543.296875 727.191406 C 545.015625 727.195312 545.085938 727.066406 544.453125 725.542969 C 544.328125 725.238281 544.179688 724.941406 544.042969 724.640625 C 541.953125 719.984375 539.859375 715.328125 537.777344 710.667969 C 536.839844 708.566406 535.933594 706.449219 535.015625 704.339844 Z M 368.046875 650.566406 C 367.988281 650.460938 367.929688 650.355469 367.867188 650.246094 C 364.832031 650.34375 361.796875 650.585938 358.765625 650.507812 C 349.628906 650.265625 340.488281 650.144531 331.347656 650.222656 C 325.714844 650.269531 320.085938 650.257812 314.453125 650.382812 C 309.160156 650.496094 303.859375 650.265625 298.5625 650.1875 C 297.769531 650.175781 296.972656 650.195312 296.179688 650.1875 C 295.332031 650.179688 294.851562 650.523438 294.648438 651.402344 C 294.332031 652.753906 293.878906 654.074219 293.511719 655.414062 C 291.222656 663.785156 288.945312 672.152344 286.664062 680.523438 C 285.464844 684.933594 284.355469 689.367188 283.050781 693.746094 C 281.578125 698.699219 279.976562 703.613281 278.351562 708.519531 C 276.808594 713.183594 275.746094 717.96875 274.621094 722.738281 C 273.644531 726.859375 272.792969 731.015625 271.925781 735.164062 C 271.609375 736.6875 271.722656 736.835938 273.171875 736.835938 C 279.269531 736.828125 285.363281 736.792969 291.460938 736.746094 C 292.695312 736.738281 292.773438 736.640625 292.734375 735.332031 C 292.6875 733.742188 292.597656 732.152344 292.503906 730.566406 C 292.425781 729.21875 291.949219 727.988281 291.410156 726.769531 C 290.757812 725.296875 289.855469 724.382812 288.070312 724.640625 C 287.304688 724.753906 286.488281 724.570312 285.703125 724.453125 C 284.25 724.238281 283.363281 723.300781 282.800781 722.011719 C 282.320312 720.917969 282.4375 720.316406 283.34375 719.554688 C 284.300781 718.75 285.441406 718.207031 286.46875 717.515625 C 292.472656 713.488281 298.8125 710.023438 305.039062 706.371094 C 316.804688 699.46875 328.789062 692.917969 339.941406 685.011719 C 346.445312 680.402344 353.609375 676.921875 360.457031 672.902344 C 362.398438 671.765625 364.328125 670.597656 366.210938 669.363281 C 367.363281 668.609375 367.34375 668.371094 366.21875 667.496094 C 365.054688 666.589844 364.175781 664.914062 362.21875 665.945312 C 361.898438 666.113281 361.375 665.882812 361.28125 665.429688 C 361.179688 664.960938 361.585938 664.746094 361.960938 664.585938 C 363.394531 663.96875 364.453125 662.855469 365.578125 661.832031 C 366.261719 661.207031 366.933594 660.566406 367.632812 659.960938 C 373.136719 655.175781 378.394531 650.136719 383.414062 644.839844 C 387.882812 640.125 392.5 635.566406 397.597656 631.511719 C 400.609375 629.121094 403.640625 626.761719 406.714844 624.457031 C 409.46875 622.390625 412.238281 620.339844 415 618.285156 C 416.097656 617.46875 416.429688 617.511719 417.191406 618.679688 C 417.59375 619.300781 418.113281 619.800781 418.597656 620.34375 C 422.660156 624.851562 427.488281 628.496094 432.246094 632.175781 C 437.589844 636.304688 443.015625 640.335938 448.300781 644.539062 C 452.808594 648.128906 457.363281 651.671875 461.460938 655.746094 C 463.246094 657.523438 465.058594 659.269531 466.871094 661.019531 C 467.230469 661.367188 467.554688 661.925781 468.171875 661.363281 C 469.792969 659.894531 471.707031 658.996094 473.96875 658.589844 C 471.917969 655.460938 469.691406 652.675781 467.210938 650.101562 C 463.398438 646.144531 459.675781 642.101562 455.65625 638.34375 C 452.421875 635.3125 449.15625 632.351562 445.566406 629.714844 C 441.78125 626.9375 437.96875 624.1875 434.261719 621.304688 C 429.03125 617.238281 423.839844 613.121094 418.425781 609.296875 C 416.398438 607.867188 416.402344 607.882812 414.554688 609.386719 C 408.125 614.613281 402.050781 620.253906 395.660156 625.523438 C 388.789062 631.191406 382.554688 637.5 376.53125 644.035156 C 373.207031 647.648438 369.632812 651.003906 366.140625 654.445312 C 364.628906 655.929688 363.09375 657.402344 361.488281 658.78125 C 360.128906 659.945312 360.082031 659.878906 360.789062 661.496094 C 361.082031 662.167969 361.597656 662.824219 361.171875 663.652344 C 360.941406 663.566406 360.769531 663.558594 360.710938 663.472656 C 359.621094 661.925781 358.8125 660.074219 356.457031 660.0625 C 356.070312 660.0625 356.078125 659.546875 356.378906 659.3125 C 356.628906 659.117188 356.976562 658.949219 357.28125 658.945312 C 358.71875 658.9375 359.828125 658.183594 360.808594 657.304688 C 363.261719 655.101562 365.640625 652.816406 368.046875 650.566406 Z M 386.171875 710.933594 C 386.148438 711.632812 386.714844 711.859375 387.074219 712.199219 C 388.757812 713.796875 390.511719 715.320312 392.148438 716.960938 C 393.515625 718.328125 394.894531 718.914062 397 718.921875 C 406.003906 718.957031 415.007812 718.601562 424.015625 718.773438 C 428.914062 718.867188 433.8125 718.609375 438.710938 718.613281 C 445.863281 718.621094 453.015625 718.523438 460.167969 718.738281 C 462.320312 718.800781 462.351562 718.710938 462.351562 716.535156 C 462.34375 705.324219 462.320312 694.113281 462.328125 682.902344 C 462.332031 680.316406 462.296875 677.71875 462.542969 675.152344 C 462.820312 672.28125 462.398438 669.464844 462.351562 666.621094 C 462.339844 665.871094 461.90625 665.382812 461.398438 664.953125 C 459.171875 663.078125 457.035156 661.09375 454.785156 659.257812 C 451.757812 656.785156 448.925781 654.097656 445.914062 651.609375 C 442.746094 648.992188 439.65625 646.289062 436.332031 643.867188 C 432.632812 641.175781 429.03125 638.371094 425.558594 635.390625 C 423.34375 633.492188 421.027344 631.714844 418.71875 629.9375 C 417.226562 628.792969 417.214844 628.863281 415.707031 630.105469 C 414.53125 631.074219 413.363281 632.082031 412.066406 632.867188 C 405.839844 636.652344 400.574219 641.621094 395.417969 646.664062 C 387.925781 653.988281 380.609375 661.484375 372.109375 667.671875 C 371.316406 668.25 371.058594 668.941406 371.078125 669.875 C 371.226562 678.296875 370.800781 686.71875 371.269531 695.136719 C 371.335938 696.273438 371.695312 697.183594 372.496094 697.964844 C 375.488281 700.875 378.457031 703.816406 381.761719 706.382812 C 383.835938 707.992188 386.183594 708.0625 388.386719 706.632812 C 388.894531 706.300781 389.085938 705.902344 389.113281 705.328125 C 389.203125 703.476562 389.390625 701.621094 389.40625 699.769531 C 389.453125 692.9375 389.445312 686.105469 389.464844 679.277344 C 389.46875 678.144531 389.371094 677.023438 389.183594 675.910156 C 389.109375 675.46875 388.964844 675.15625 388.402344 675.324219 C 387.996094 675.445312 387.558594 675.410156 387.496094 674.875 C 387.425781 674.285156 387.75 673.785156 388.28125 673.632812 C 388.835938 673.46875 389.457031 673.480469 390.050781 673.492188 C 394.21875 673.59375 398.386719 673.785156 402.554688 673.816406 C 416.925781 673.933594 431.304688 673.820312 445.675781 674.257812 C 447.332031 674.308594 448.988281 674.28125 450.644531 674.3125 C 451.101562 674.320312 451.558594 674.398438 452.007812 674.492188 C 452.207031 674.53125 452.308594 674.742188 452.257812 674.949219 C 452.226562 675.058594 452.121094 675.179688 452.019531 675.226562 C 451.585938 675.441406 451.121094 675.378906 450.65625 675.378906 C 449.730469 675.386719 448.804688 675.410156 447.878906 675.464844 C 446.941406 675.515625 446.460938 675.992188 446.441406 676.984375 C 446.410156 678.308594 446.273438 679.632812 446.226562 680.957031 C 445.949219 688.582031 446.171875 696.210938 446.226562 703.835938 C 446.230469 704.296875 446.183594 704.792969 446.328125 705.21875 C 446.851562 706.765625 446.464844 707.113281 448.675781 707.289062 C 449.863281 707.386719 451.042969 707.546875 452.226562 707.6875 C 452.882812 707.765625 453.34375 708.070312 453.410156 708.796875 C 453.472656 709.492188 453.109375 709.917969 452.539062 710.222656 C 451.875 710.582031 451.132812 710.554688 450.414062 710.648438 C 446.265625 711.199219 442.105469 711.152344 437.929688 711.1875 C 431.179688 711.242188 424.429688 711.570312 417.671875 711.402344 C 412.773438 711.28125 407.875 711.234375 402.980469 711.128906 C 397.382812 711.011719 391.78125 711.289062 386.171875 710.933594 Z M 522.234375 800.550781 C 523.003906 800.550781 523.722656 800.550781 524.441406 800.550781 C 525.433594 800.554688 526.433594 800.371094 527.414062 800.59375 C 527.9375 800.710938 528.496094 800.945312 528.496094 801.585938 C 528.492188 802.371094 527.804688 802.21875 527.308594 802.277344 C 527.046875 802.304688 526.777344 802.296875 526.515625 802.292969 C 513.796875 802.148438 501.078125 802.539062 488.363281 802.550781 C 481.742188 802.554688 475.121094 802.238281 468.5 802.558594 C 468.039062 802.582031 467.570312 802.542969 467.109375 802.589844 C 466.558594 802.648438 465.746094 802.488281 465.785156 803.367188 C 465.816406 804.101562 466.535156 803.972656 467.039062 803.976562 C 468.496094 803.992188 469.953125 804.007812 471.410156 803.957031 C 480.152344 803.652344 488.898438 803.675781 497.636719 803.867188 C 507.835938 804.09375 518.035156 803.976562 528.238281 804.039062 C 528.898438 804.042969 529.546875 804.074219 529.992188 803.390625 C 530.285156 802.9375 530.757812 802.90625 531.199219 803.257812 C 531.625 803.605469 531.574219 804.078125 531.476562 804.539062 C 531.386719 804.980469 531.121094 805.199219 530.644531 805.21875 C 529.390625 805.269531 528.132812 805.410156 526.878906 805.410156 C 514.492188 805.429688 502.101562 805.429688 489.714844 805.429688 C 482.359375 805.429688 475.007812 805.410156 467.652344 805.417969 C 465.757812 805.421875 465.679688 805.453125 465.675781 807.253906 C 465.65625 813.683594 465.667969 820.117188 465.71875 826.546875 C 465.734375 828.28125 465.871094 828.351562 467.546875 828.351562 C 470.59375 828.351562 473.644531 828.285156 476.691406 828.3125 C 486.882812 828.40625 497.074219 828.597656 507.265625 828.613281 C 513.691406 828.625 520.113281 828.402344 526.535156 828.265625 C 528.785156 828.21875 531.03125 828.128906 533.277344 828.019531 C 534.769531 827.949219 534.96875 827.75 535.015625 826.230469 C 535.070312 824.574219 535.042969 822.917969 535.066406 821.257812 C 535.210938 809.328125 534.902344 797.394531 535.304688 785.457031 C 535.570312 777.644531 535.777344 769.820312 535.804688 761.996094 C 535.828125 754.703125 535.84375 747.40625 535.835938 740.113281 C 535.835938 738.289062 535.746094 738.203125 533.917969 738.210938 C 526.503906 738.230469 519.085938 738.183594 511.675781 738.332031 C 501.011719 738.542969 490.347656 738.507812 479.683594 738.417969 C 475.449219 738.382812 471.210938 738.484375 466.976562 738.242188 C 465.488281 738.15625 465.316406 738.371094 465.3125 739.773438 C 465.292969 744.015625 465.300781 748.261719 465.347656 752.503906 C 465.363281 754.085938 465.5625 754.300781 467.039062 754.300781 C 471.078125 754.296875 475.117188 754.289062 479.15625 754.132812 C 485.375 753.890625 491.597656 753.679688 497.820312 753.652344 C 502.515625 753.632812 507.214844 753.863281 511.914062 753.84375 C 514.75 753.832031 517.585938 753.507812 520.429688 753.78125 C 521.78125 753.914062 521.859375 753.9375 521.816406 755.289062 C 521.789062 756.148438 521.757812 757.011719 521.8125 757.871094 C 522.347656 766.746094 522.121094 775.632812 522.164062 784.515625 C 522.1875 789.808594 521.984375 795.101562 522.234375 800.550781 Z M 361.046875 744.691406 C 368.734375 744.828125 377.417969 744.542969 386.085938 745.074219 C 387.847656 745.183594 387.917969 745.109375 387.941406 743.410156 C 387.976562 741.222656 387.871094 739.027344 388.003906 736.847656 C 388.117188 734.949219 387.480469 733.53125 386.039062 732.335938 C 383.59375 730.304688 381.246094 728.152344 378.78125 726.140625 C 373.753906 722.042969 368.925781 717.726562 364.226562 713.253906 C 360.335938 709.550781 356.609375 705.6875 353.082031 701.632812 C 352.476562 700.9375 351.769531 700.328125 351.113281 699.671875 C 350.398438 698.949219 349.691406 698.917969 348.816406 699.484375 C 346.148438 701.214844 343.4375 702.871094 340.75 704.570312 C 333.75 708.996094 326.671875 713.285156 319.457031 717.347656 C 314.609375 720.074219 309.789062 722.855469 304.835938 725.386719 C 303.722656 725.957031 303.277344 726.707031 303.46875 727.921875 C 303.878906 730.488281 303.742188 733.078125 303.753906 735.664062 C 303.765625 738.582031 303.769531 741.5 303.757812 744.417969 C 303.753906 745.347656 304.085938 745.71875 305.078125 745.589844 C 306.652344 745.386719 308.238281 745.230469 309.824219 745.191406 C 316.640625 745.007812 323.457031 744.863281 330.273438 744.730469 C 335.964844 744.621094 341.65625 744.425781 347.347656 744.5 C 351.582031 744.550781 355.820312 744.730469 361.046875 744.691406 Z M 456.285156 769.703125 C 456.363281 763.671875 456.171875 757.640625 456.316406 751.605469 C 456.402344 748.027344 456.351562 744.445312 456.328125 740.863281 C 456.3125 738.601562 456.285156 738.601562 453.953125 738.601562 C 453.886719 738.601562 453.820312 738.601562 453.753906 738.601562 C 446.136719 738.589844 438.519531 738.640625 430.902344 738.542969 C 426.46875 738.488281 422.035156 738.238281 417.605469 737.988281 C 413.503906 737.757812 409.398438 737.921875 405.296875 737.8125 C 404.140625 737.78125 403.972656 739.160156 402.988281 739.074219 C 402.089844 738.992188 401.546875 738.042969 400.460938 738.140625 C 397.375 738.414062 394.28125 738.601562 391.167969 738.226562 C 389.378906 738.007812 389.320312 738.195312 389.320312 740.085938 C 389.324219 743.65625 389.378906 747.226562 389.296875 750.800781 C 389.140625 757.429688 389.109375 764.058594 388.964844 770.6875 C 388.746094 780.4375 389.351562 790.175781 389.320312 799.925781 C 389.3125 802.449219 389.351562 802.589844 391.859375 801.84375 C 394.835938 800.953125 397.84375 800.835938 400.894531 800.851562 C 402.683594 800.859375 404.472656 800.851562 406.261719 800.800781 C 408.988281 800.722656 409.058594 800.664062 409.050781 797.980469 C 409.019531 787.304688 408.992188 776.628906 408.910156 765.953125 C 408.886719 762.441406 408.679688 758.929688 408.605469 755.417969 C 408.570312 753.773438 408.832031 753.535156 410.390625 753.496094 C 411.910156 753.457031 413.4375 753.40625 414.957031 753.441406 C 420.453125 753.5625 425.949219 753.546875 431.441406 753.800781 C 436.203125 754.019531 440.976562 753.949219 445.746094 754.011719 C 446.140625 754.015625 446.546875 753.964844 446.929688 754.035156 C 447.546875 754.152344 447.9375 754.574219 447.597656 755.171875 C 447.003906 756.214844 447.042969 757.347656 447.003906 758.457031 C 446.929688 760.578125 446.882812 762.703125 446.945312 764.820312 C 447.164062 772.304688 446.769531 779.792969 447.277344 787.28125 C 447.519531 790.898438 447.816406 794.554688 447.46875 798.203125 C 447.433594 798.59375 447.496094 798.996094 447.539062 799.390625 C 447.625 800.230469 448.074219 800.742188 448.945312 800.761719 C 451 800.804688 453.050781 800.835938 455.105469 800.855469 C 455.828125 800.863281 456.183594 800.417969 456.253906 799.742188 C 456.292969 799.347656 456.285156 798.945312 456.285156 798.546875 C 456.285156 788.933594 456.285156 779.320312 456.285156 769.703125 Z M 387.59375 789.449219 C 387.570312 789.449219 387.550781 789.449219 387.53125 789.449219 C 387.53125 787.921875 387.53125 786.398438 387.53125 784.871094 C 387.53125 774.066406 387.535156 763.257812 387.53125 752.449219 C 387.53125 750.621094 387.480469 750.542969 385.644531 750.519531 C 378.558594 750.425781 371.484375 749.9375 364.402344 749.832031 C 350.296875 749.628906 336.1875 749.625 322.078125 749.675781 C 316.121094 749.699219 310.1875 750.09375 304.238281 750.277344 C 303.429688 750.300781 303.164062 750.609375 303.117188 751.296875 C 303.089844 751.757812 303.070312 752.226562 303.105469 752.6875 C 303.453125 757.386719 303.074219 762.089844 303.253906 766.792969 C 303.449219 772.027344 303.285156 777.277344 303.535156 782.507812 C 304.058594 793.300781 304.152344 804.105469 304.558594 814.898438 C 304.703125 818.738281 304.5625 822.585938 304.960938 826.417969 C 305.039062 827.1875 305.0625 827.925781 306.085938 827.9375 C 307.9375 827.960938 309.792969 827.96875 311.648438 827.964844 C 312.355469 827.960938 312.742188 827.574219 312.761719 826.851562 C 312.773438 826.453125 312.792969 826.054688 312.789062 825.660156 C 312.609375 810.078125 312.953125 794.503906 313.578125 778.9375 C 313.707031 775.824219 313.621094 772.703125 313.742188 769.589844 C 313.878906 766.078125 314.054688 762.570312 313.695312 759.0625 C 313.652344 758.671875 313.644531 758.265625 313.703125 757.878906 C 313.878906 756.660156 314.117188 756.449219 315.371094 756.441406 C 319.675781 756.410156 323.980469 756.359375 328.285156 756.382812 C 339.738281 756.445312 351.195312 756.585938 362.652344 756.617188 C 367.609375 756.628906 372.578125 756.882812 377.535156 756.445312 C 378.664062 756.34375 379.046875 756.773438 378.816406 758.050781 C 377.851562 763.429688 378.023438 768.882812 377.824219 774.300781 C 377.570312 781.054688 377.726562 787.820312 377.703125 794.582031 C 377.671875 803.074219 378.03125 811.542969 378.671875 820.003906 C 378.828125 822.050781 378.886719 824.105469 379.082031 826.148438 C 379.226562 827.648438 379.464844 827.832031 380.910156 827.925781 C 382.761719 828.046875 384.613281 828.160156 386.460938 828.261719 C 387.929688 828.34375 388.0625 828.210938 388.117188 826.785156 C 388.269531 822.679688 388.242188 818.578125 388.117188 814.46875 C 387.859375 806.132812 387.757812 797.789062 387.59375 789.449219 Z M 391.066406 803.523438 C 392.046875 804.609375 393.171875 804.476562 394.273438 804.46875 C 399.902344 804.421875 405.527344 804.386719 411.160156 804.222656 C 418.902344 804 426.65625 804.03125 434.40625 804.019531 C 441.027344 804.003906 447.644531 803.320312 454.261719 803.984375 C 454.585938 804.015625 454.925781 803.992188 455.25 803.941406 C 455.707031 803.871094 455.941406 803.566406 455.917969 803.105469 C 455.890625 802.652344 455.636719 802.367188 455.175781 802.335938 C 454.710938 802.304688 454.246094 802.3125 453.785156 802.308594 C 449.546875 802.273438 445.304688 802.25 441.066406 802.203125 C 435.902344 802.144531 430.738281 801.996094 425.574219 802.019531 C 418.953125 802.050781 412.332031 802.277344 405.710938 802.285156 C 401.472656 802.292969 397.242188 802.472656 393.007812 802.671875 C 392.058594 802.71875 391.207031 803.074219 390.316406 803.308594 C 389.652344 803.484375 389.320312 803.914062 389.34375 804.613281 C 389.359375 805.078125 389.328125 805.542969 389.363281 806.003906 C 389.667969 809.902344 389.710938 813.8125 389.726562 817.71875 C 389.742188 820.570312 389.683594 823.421875 389.6875 826.273438 C 389.691406 828.269531 389.742188 828.296875 391.648438 828.371094 C 391.78125 828.375 391.914062 828.375 392.046875 828.378906 C 401.578125 828.589844 411.113281 828.605469 420.644531 828.679688 C 429.125 828.75 437.59375 828.425781 446.070312 828.433594 C 448.851562 828.433594 451.632812 828.398438 454.414062 828.34375 C 455.769531 828.316406 455.882812 828.171875 455.996094 826.875 C 456.027344 826.542969 456.003906 826.210938 456.027344 825.878906 C 456.414062 819.917969 455.988281 813.957031 456.046875 807.996094 C 456.070312 805.417969 455.988281 805.386719 453.324219 805.398438 C 441.203125 805.445312 429.085938 805.347656 416.964844 805.703125 C 409.09375 805.933594 401.214844 806.027344 393.335938 805.914062 C 391.433594 805.886719 391.414062 805.886719 391.066406 803.523438 Z M 349.183594 794.847656 C 349.183594 803.734375 349.148438 810.164062 349.195312 816.597656 C 349.21875 819.84375 349.371094 823.089844 349.496094 826.332031 C 349.554688 827.800781 349.609375 827.621094 351.140625 827.773438 C 353.988281 828.0625 356.8125 827.683594 359.648438 827.773438 C 363.21875 827.882812 366.796875 827.882812 370.371094 827.890625 C 371.964844 827.894531 372.023438 827.796875 372.089844 826.195312 C 372.109375 825.664062 372.117188 825.132812 372.097656 824.601562 C 371.875 818.507812 372.035156 812.410156 371.761719 806.3125 C 371.324219 796.574219 371.808594 786.832031 372.199219 777.101562 C 372.367188 772.933594 372.1875 768.746094 372.742188 764.589844 C 372.953125 762.988281 372.628906 762.753906 370.976562 762.765625 C 364.417969 762.808594 357.859375 762.863281 351.304688 762.925781 C 349.300781 762.945312 349.148438 763.074219 349.210938 765.097656 C 349.300781 768.011719 349.523438 770.917969 349.515625 773.839844 C 349.492188 781.660156 349.359375 789.480469 349.183594 794.847656 Z M 325.976562 762.285156 C 325.960938 762.234375 325.941406 762.183594 325.921875 762.128906 C 324.074219 762.128906 322.21875 762.0625 320.371094 762.148438 C 318.28125 762.246094 318.011719 762.570312 318.011719 764.703125 C 318.011719 769.144531 317.949219 773.585938 317.863281 778.027344 C 317.722656 785.578125 317.804688 793.136719 317.804688 800.691406 C 317.808594 805.269531 318.199219 809.835938 318.078125 814.414062 C 318.011719 816.933594 318.042969 819.457031 318.082031 821.976562 C 318.101562 823.359375 318.25 823.539062 319.535156 823.550781 C 325.296875 823.609375 331.0625 823.648438 336.824219 823.640625 C 338.515625 823.640625 338.589844 823.5 338.613281 821.773438 C 338.648438 818.660156 338.601562 815.542969 338.757812 812.425781 C 339.128906 805.089844 339.15625 797.746094 338.980469 790.398438 C 338.972656 790.132812 338.898438 789.855469 339.097656 789.648438 C 339.636719 789.105469 339.445312 788.414062 339.539062 787.769531 C 339.804688 785.988281 339.707031 784.199219 339.722656 782.414062 C 339.769531 776.246094 339.808594 770.078125 339.808594 763.910156 C 339.808594 762.191406 339.660156 762.082031 337.96875 762.136719 C 335.1875 762.226562 332.410156 762.371094 329.628906 762.464844 C 328.8125 762.492188 328.082031 762.769531 327.335938 763.046875 C 325.226562 763.824219 323.113281 764.597656 320.996094 765.355469 C 320.414062 765.5625 319.601562 766.078125 319.34375 765.15625 C 319.152344 764.460938 320.050781 764.355469 320.578125 764.167969 C 322.371094 763.527344 324.175781 762.910156 325.976562 762.285156 Z M 403.425781 736.136719 C 404.109375 736.449219 404.847656 736.296875 405.554688 736.316406 C 410.257812 736.429688 414.960938 736.488281 419.664062 736.636719 C 423.699219 736.761719 427.730469 737.078125 431.769531 737.132812 C 440.3125 737.25 448.859375 737.203125 457.410156 737.15625 C 480.066406 737.042969 502.726562 737.464844 525.386719 736.898438 C 531.078125 736.757812 536.777344 736.816406 542.472656 736.78125 C 543.269531 736.777344 544.066406 736.75 544.859375 736.777344 C 545.792969 736.8125 546.1875 736.335938 546.210938 735.460938 C 546.261719 733.667969 546.230469 731.882812 545.832031 730.117188 C 545.519531 728.726562 545.4375 728.585938 544.011719 728.554688 C 539.378906 728.449219 534.742188 728.3125 530.109375 728.328125 C 523.882812 728.347656 517.660156 728.511719 511.4375 728.585938 C 506.53125 728.644531 501.621094 728.484375 496.726562 728.734375 C 488.253906 729.167969 479.773438 728.90625 471.296875 729.253906 C 464.152344 729.542969 456.984375 729.304688 449.832031 729.542969 C 440.824219 729.839844 431.816406 729.839844 422.808594 730.046875 C 417.578125 730.167969 412.339844 730.117188 407.105469 730.164062 C 405.640625 730.175781 405.601562 730.210938 405.425781 731.667969 C 405.289062 732.820312 404.964844 733.847656 404.132812 734.707031 C 403.78125 735.074219 403.410156 735.492188 403.425781 736.136719 Z M 441.246094 772.734375 C 441.6875 768.238281 441.0625 764.003906 441.175781 759.761719 C 441.21875 758.175781 441.085938 758.105469 439.464844 758.085938 C 432.441406 758 425.425781 757.804688 418.417969 757.347656 C 415.523438 757.160156 415.519531 757.222656 415.554688 760.039062 C 415.5625 760.632812 415.566406 761.230469 415.585938 761.828125 C 415.945312 771.570312 416.359375 781.308594 416.386719 791.058594 C 416.390625 793.171875 416.84375 795.265625 416.527344 797.402344 C 416.148438 799.976562 416.488281 800.292969 419.039062 800.367188 C 419.238281 800.375 419.4375 800.375 419.636719 800.359375 C 423.40625 800.089844 427.183594 800.164062 430.960938 800.183594 C 433.738281 800.199219 436.519531 800.339844 439.296875 800.414062 C 440.867188 800.453125 441.246094 800.261719 441.214844 799.109375 C 441.101562 794.996094 441.65625 790.890625 441.472656 786.796875 C 441.261719 782.019531 441.484375 777.25 441.246094 772.734375 Z M 489.703125 763.886719 C 489.699219 761.011719 489.730469 758.960938 489.382812 756.917969 C 489.230469 756.003906 488.839844 755.632812 487.949219 755.71875 C 487.621094 755.75 487.289062 755.738281 486.957031 755.761719 C 480.105469 756.234375 473.242188 756.050781 466.378906 756.078125 C 465.699219 756.082031 465.398438 756.367188 465.351562 756.984375 C 465.316406 757.445312 465.328125 757.914062 465.320312 758.375 C 465.257812 761.820312 465.433594 765.257812 465.335938 768.707031 C 465.085938 777.589844 465.390625 786.46875 465.582031 795.347656 C 465.597656 796.078125 465.609375 796.808594 465.582031 797.535156 C 465.550781 798.542969 466.050781 798.988281 467.015625 799.007812 C 467.347656 799.015625 467.675781 799.050781 468.007812 799.054688 C 474.421875 799.144531 480.835938 799.589844 487.25 799.035156 C 487.828125 798.984375 488.472656 799.476562 488.960938 798.96875 C 489.464844 798.441406 489.226562 797.699219 489.238281 797.054688 C 489.457031 785.726562 489.03125 774.386719 489.703125 763.886719 Z M 294.71875 759.414062 C 294.609375 765.71875 294.4375 773.199219 294.359375 780.679688 C 294.25 791.015625 294.277344 801.347656 294.609375 811.683594 C 294.769531 816.648438 294.6875 821.621094 294.734375 826.589844 C 294.75 828.125 294.871094 828.265625 296.304688 828.128906 C 298.222656 827.945312 300.140625 827.964844 302.058594 827.898438 C 303.441406 827.855469 303.46875 827.761719 303.414062 826.367188 C 303.234375 821.597656 303.039062 816.832031 302.910156 812.066406 C 302.628906 801.734375 302.378906 791.40625 302.128906 781.074219 C 301.984375 774.980469 301.796875 768.882812 301.761719 762.789062 C 301.730469 756.773438 301.507812 750.769531 302.011719 744.734375 C 302.445312 739.539062 302.027344 734.273438 301.984375 729.035156 C 301.984375 728.769531 301.980469 728.5 301.933594 728.242188 C 301.738281 727.207031 301.394531 727.019531 300.425781 727.503906 C 298.769531 728.335938 297.167969 729.277344 295.484375 730.050781 C 294.546875 730.480469 294.242188 731.082031 294.261719 732.058594 C 294.285156 733.050781 294.550781 734 294.539062 735.011719 C 294.519531 737.257812 294.324219 739.523438 294.453125 741.742188 C 294.765625 747.242188 294.621094 752.738281 294.71875 759.414062 Z M 536.574219 810.109375 C 536.769531 811.066406 536.554688 812.253906 536.539062 813.445312 C 536.480469 817.953125 536.476562 822.460938 536.441406 826.96875 C 536.4375 827.617188 536.480469 828.140625 537.355469 828.164062 C 539.140625 828.210938 540.921875 828.378906 542.707031 828.402344 C 544.65625 828.429688 544.828125 828.179688 544.933594 826.25 C 545.0625 823.921875 544.632812 821.621094 544.640625 819.300781 C 544.660156 812.9375 544.613281 806.574219 544.835938 800.210938 C 544.996094 795.652344 544.890625 791.085938 544.921875 786.523438 C 545 774.324219 544.945312 762.121094 545.425781 749.925781 C 545.496094 748.140625 545.566406 746.351562 545.613281 744.5625 C 545.65625 742.90625 545.683594 741.246094 545.683594 739.589844 C 545.683594 738.632812 545.210938 738.148438 544.199219 738.167969 C 542.34375 738.203125 540.488281 738.148438 538.632812 738.191406 C 537.300781 738.222656 537.199219 738.371094 537.09375 739.699219 C 536.917969 741.949219 537.0625 744.191406 537.09375 746.441406 C 537.191406 754.199219 537.25 761.960938 537.027344 769.714844 C 536.789062 777.933594 536.804688 786.152344 536.582031 794.371094 C 536.441406 799.53125 536.699219 804.707031 536.574219 810.109375 Z M 516.476562 777.402344 C 516.476562 770.847656 516.492188 764.289062 516.46875 757.730469 C 516.464844 755.757812 516.371094 755.726562 514.304688 755.484375 C 511.0625 755.109375 507.828125 755.652344 504.585938 755.492188 C 502.875 755.40625 501.15625 755.542969 499.4375 755.570312 C 498.640625 755.582031 498.214844 755.957031 498.175781 756.769531 C 498.082031 758.820312 497.742188 760.890625 497.929688 762.917969 C 498.507812 769.210938 498.261719 775.503906 498.179688 781.796875 C 498.121094 786.5625 497.628906 791.320312 498.167969 796.085938 C 498.375 797.898438 498.359375 797.972656 500.144531 798.070312 C 504.96875 798.335938 509.792969 798.589844 514.617188 798.832031 C 516.328125 798.917969 516.480469 798.789062 516.453125 796.886719 C 516.351562 790.390625 516.628906 783.898438 516.476562 777.402344 Z M 463.945312 783.632812 C 463.945312 770.578125 463.945312 757.519531 463.945312 744.464844 C 463.945312 743.003906 463.96875 741.546875 463.925781 740.089844 C 463.882812 738.734375 463.742188 738.601562 462.4375 738.554688 C 461.578125 738.523438 460.714844 738.5625 459.855469 738.574219 C 457.664062 738.609375 457.664062 738.613281 457.574219 740.785156 C 457.5625 741.117188 457.550781 741.445312 457.550781 741.777344 C 457.535156 744.558594 457.617188 747.339844 457.472656 750.113281 C 457.371094 752.089844 457.410156 754.085938 457.484375 756.027344 C 457.6875 761.191406 457.734375 766.359375 457.757812 771.519531 C 457.800781 780.527344 457.5 789.53125 457.609375 798.542969 C 457.714844 807.488281 457.597656 816.433594 457.582031 825.382812 C 457.582031 825.976562 457.597656 826.574219 457.609375 827.171875 C 457.628906 827.988281 458.054688 828.359375 458.863281 828.355469 C 460.121094 828.347656 461.378906 828.402344 462.636719 828.359375 C 464.183594 828.3125 464.25 828.210938 464.285156 826.578125 C 464.289062 826.3125 464.277344 826.046875 464.277344 825.785156 C 464.441406 811.730469 463.921875 797.683594 463.945312 783.632812 Z M 415.382812 691.40625 C 415.363281 691.40625 415.347656 691.40625 415.328125 691.40625 C 415.328125 687.5 415.347656 683.59375 415.316406 679.6875 C 415.304688 678.300781 415.246094 678.3125 414.015625 678.328125 C 408.132812 678.398438 402.246094 678.472656 396.359375 678.519531 C 393.871094 678.539062 393.761719 678.507812 393.714844 681.078125 C 393.582031 688.492188 393.683594 695.90625 393.914062 703.316406 C 393.945312 704.3125 394.335938 704.703125 395.355469 704.707031 C 401.304688 704.730469 407.25 705.054688 413.203125 704.898438 C 415.191406 704.847656 415.367188 704.683594 415.378906 702.726562 C 415.398438 698.953125 415.382812 695.179688 415.382812 691.40625 Z M 433.671875 704.1875 C 435.011719 704.277344 436.132812 704.375 437.253906 704.421875 C 439.242188 704.503906 441.226562 704.585938 443.214844 704.605469 C 444.546875 704.617188 444.710938 704.429688 444.800781 703.144531 C 444.835938 702.617188 444.820312 702.085938 444.808594 701.554688 C 444.734375 698.640625 444.578125 695.726562 444.597656 692.8125 C 444.621094 688.703125 444.785156 684.59375 444.859375 680.484375 C 444.894531 678.742188 444.863281 678.71875 443.097656 678.730469 C 437 678.761719 430.90625 678.804688 424.8125 678.859375 C 422.703125 678.882812 422.703125 678.910156 422.71875 680.976562 C 422.75 684.488281 422.902344 688.007812 422.871094 691.507812 C 422.839844 695.222656 423.089844 698.921875 423.082031 702.628906 C 423.078125 704.070312 423.28125 704.183594 424.742188 704.1875 C 427.789062 704.195312 430.835938 704.1875 433.671875 704.1875 Z M 432.5625 721.8125 C 433.476562 722.148438 433.308594 722.613281 433.199219 723.042969 C 432.898438 724.21875 432.96875 725.414062 433.019531 726.605469 C 433.085938 728.175781 433.335938 728.398438 434.953125 728.355469 C 436.078125 728.324219 437.199219 728.175781 438.324219 728.167969 C 443.753906 728.113281 449.183594 728.089844 454.617188 728.054688 C 457 728.039062 459.382812 728 461.769531 728.011719 C 462.6875 728.011719 463.125 727.664062 463.046875 726.710938 C 462.894531 724.859375 462.757812 723.011719 462.636719 721.160156 C 462.578125 720.25 462.179688 719.910156 461.230469 719.964844 C 459.191406 720.085938 457.144531 720.132812 455.101562 720.140625 C 435.890625 720.199219 416.683594 720.242188 397.476562 720.289062 C 397.089844 720.292969 396.664062 720.203125 396.425781 720.71875 C 396.5 721.183594 396.871094 721.472656 397.207031 721.785156 C 399.339844 723.769531 401.664062 725.542969 403.652344 727.6875 C 404.238281 728.320312 404.96875 728.464844 405.792969 728.539062 C 409.097656 728.839844 412.390625 728.601562 415.691406 728.527344 C 420.660156 728.421875 425.628906 728.453125 430.59375 728.417969 C 432.382812 728.402344 432.507812 728.296875 432.550781 726.5 C 432.59375 724.941406 432.5625 723.375 432.5625 721.8125 Z M 350.617188 680.796875 C 349.503906 680.738281 348.902344 681.1875 348.265625 681.511719 C 344.949219 683.195312 342.050781 685.535156 338.949219 687.558594 C 332.183594 691.976562 325.265625 696.136719 318.277344 700.195312 C 311.125 704.355469 303.90625 708.394531 296.796875 712.628906 C 292.816406 715 288.917969 717.507812 285.007812 719.992188 C 283.714844 720.8125 283.753906 721.957031 285.015625 722.808594 C 285.472656 723.117188 285.984375 723.199219 286.527344 723.214844 C 288.148438 723.253906 289.660156 722.820312 291.128906 722.171875 C 294.707031 720.597656 298 718.484375 301.460938 716.6875 C 304.746094 714.980469 307.933594 713.082031 311.164062 711.265625 C 314.742188 709.253906 318.359375 707.3125 321.886719 705.214844 C 327.863281 701.667969 333.839844 698.117188 339.644531 694.28125 C 342.460938 692.421875 345.3125 690.609375 347.855469 688.367188 C 348.648438 687.667969 349.453125 687.003906 349.507812 685.785156 C 349.582031 684.140625 349.804688 682.507812 350.617188 680.796875 Z M 416.457031 626.191406 C 416.125 624.726562 416.179688 622.933594 416.125 621.148438 C 416.082031 619.722656 415.808594 619.5625 414.652344 620.40625 C 412.191406 622.199219 409.789062 624.070312 407.347656 625.886719 C 400.96875 630.632812 394.773438 635.597656 389.175781 641.265625 C 385.828125 644.65625 382.550781 648.117188 379.195312 651.5 C 375.507812 655.214844 371.402344 658.480469 367.609375 662.078125 C 364.675781 664.859375 364.550781 664.039062 367.816406 666.867188 C 368.585938 667.535156 369.214844 667.617188 370.097656 667.03125 C 372.589844 665.390625 374.941406 663.566406 377.222656 661.660156 C 382.460938 657.28125 387.28125 652.449219 392.136719 647.664062 C 398.519531 641.375 405.175781 635.433594 412.804688 630.667969 C 413.996094 629.921875 414.914062 628.867188 415.929688 627.921875 C 416.335938 627.542969 416.535156 627.058594 416.457031 626.191406 Z M 403.894531 731.804688 C 403.960938 730.828125 403.742188 730.292969 403.296875 729.851562 C 402.683594 729.242188 402.085938 728.625 401.460938 728.03125 C 395.703125 722.558594 389.917969 717.117188 384.1875 711.613281 C 377.027344 704.730469 369.929688 697.78125 362.769531 690.894531 C 359.8125 688.050781 356.773438 685.289062 353.746094 682.519531 C 353.242188 682.054688 352.738281 681.296875 351.898438 681.671875 C 351.21875 681.976562 351.210938 682.722656 351.097656 683.386719 C 350.976562 684.097656 350.867188 684.847656 350.558594 685.488281 C 350.066406 686.515625 350.335938 687.164062 351.160156 687.878906 C 356.277344 692.296875 361.03125 697.097656 365.695312 701.980469 C 375.675781 712.4375 386.558594 721.933594 397.191406 731.691406 C 398.3125 732.71875 399.515625 733.660156 400.6875 734.632812 C 400.925781 734.832031 401.253906 735.207031 401.53125 734.886719 C 402.4375 733.828125 404.023438 733.226562 403.894531 731.804688 Z M 347.621094 788.789062 C 347.785156 786.988281 348.078125 785.1875 348.097656 783.386719 C 348.160156 777.089844 348.3125 770.792969 347.90625 764.5 C 347.726562 761.769531 347.988281 761.570312 350.714844 761.554688 C 356.011719 761.527344 361.3125 761.492188 366.609375 761.453125 C 368.59375 761.441406 370.582031 761.492188 372.558594 761.207031 C 373.148438 761.121094 373.8125 761.074219 374.261719 761.519531 C 374.753906 762.003906 374.148438 762.492188 374.082031 762.984375 C 374.023438 763.441406 373.910156 763.898438 373.894531 764.359375 C 373.613281 771.972656 373.28125 779.589844 373.085938 787.207031 C 372.800781 798.476562 373.082031 809.746094 373.394531 821.011719 C 373.441406 822.734375 373.414062 824.460938 373.472656 826.183594 C 373.53125 827.742188 373.695312 827.875 375.210938 827.929688 C 377.515625 828.015625 377.664062 827.863281 377.5625 825.488281 C 377.546875 825.09375 377.507812 824.695312 377.476562 824.300781 C 377.019531 818.15625 376.507812 812.015625 376.3125 805.851562 C 376.164062 801.148438 376.085938 796.449219 376.101562 791.746094 C 376.113281 787.835938 376.007812 783.917969 376.171875 780.015625 C 376.460938 773.328125 376.304688 766.628906 376.84375 759.949219 C 376.976562 758.300781 376.773438 758.132812 375.074219 758.125 C 366.265625 758.078125 357.457031 758.03125 348.648438 758.027344 C 345.425781 758.027344 345.226562 758.296875 345.269531 761.554688 C 345.269531 761.621094 345.261719 761.6875 345.273438 761.753906 C 345.734375 764.785156 345.285156 767.835938 345.449219 770.878906 C 345.679688 775.109375 345.660156 779.355469 345.757812 783.59375 C 345.769531 784.207031 345.90625 784.847656 346.433594 785.183594 C 347.117188 785.621094 347.128906 786.234375 347.152344 786.90625 C 347.175781 787.53125 347.03125 788.183594 347.621094 788.789062 Z M 347.609375 690.882812 C 345.878906 692.128906 344.273438 693.273438 342.589844 694.332031 C 337.714844 697.394531 332.972656 700.667969 328 703.574219 C 324 705.910156 320.042969 708.328125 315.980469 710.546875 C 308.84375 714.445312 301.847656 718.605469 294.5625 722.234375 C 293.6875 722.671875 292.582031 723.101562 292.152344 723.859375 C 291.660156 724.71875 292.753906 725.632812 292.984375 726.582031 C 293.050781 726.839844 293.152344 727.085938 293.238281 727.335938 C 293.832031 729.027344 294.042969 729.121094 295.609375 728.320312 C 298.613281 726.78125 301.613281 725.238281 304.613281 723.6875 C 316.4375 717.570312 327.953125 710.910156 339.164062 703.722656 C 341.558594 702.183594 343.933594 700.613281 346.304688 699.039062 C 347.222656 698.429688 347.988281 697.675781 347.777344 696.441406 C 347.464844 694.617188 347.300781 692.792969 347.609375 690.882812 Z M 427.699219 605.300781 C 427.558594 605.371094 427.289062 605.445312 427.105469 605.609375 C 425.6875 606.894531 424.15625 608.058594 422.917969 609.550781 C 422.332031 610.257812 422.488281 610.675781 423.148438 611.15625 C 424.003906 611.777344 424.816406 612.460938 425.664062 613.097656 C 432.109375 617.953125 438.441406 622.953125 444.96875 627.703125 C 450.484375 631.710938 455.480469 636.359375 460.261719 641.238281 C 465.085938 646.15625 470.035156 650.945312 474.199219 656.46875 C 475.273438 657.894531 475.554688 657.90625 477.210938 657.125 C 479.015625 656.269531 479 656.28125 477.769531 654.617188 C 476.152344 652.429688 474.339844 650.410156 472.5 648.414062 C 466.570312 641.992188 460.660156 635.546875 454.488281 629.355469 C 446.300781 621.144531 437.273438 613.847656 428.835938 605.902344 C 428.546875 605.632812 428.238281 605.382812 427.699219 605.300781 Z M 399.644531 736.730469 C 399.222656 735.433594 398.367188 734.871094 397.652344 734.222656 C 393.476562 730.441406 389.300781 726.660156 385.089844 722.921875 C 378.246094 716.847656 371.613281 710.550781 365.304688 703.925781 C 361.234375 699.652344 357.121094 695.429688 352.773438 691.441406 C 352.039062 690.765625 351.320312 690.074219 350.441406 689.59375 C 349.542969 689.101562 349.074219 689.285156 348.878906 690.292969 C 348.613281 691.667969 348.664062 693.074219 348.761719 694.460938 C 348.855469 695.820312 349.171875 697.109375 350.867188 697.386719 C 351.335938 697.464844 351.660156 697.855469 351.964844 698.207031 C 356.507812 703.484375 361.328125 708.496094 366.332031 713.339844 C 369.332031 716.246094 372.488281 718.976562 375.683594 721.652344 C 379.492188 724.839844 383.445312 727.859375 387.011719 731.332031 C 388.046875 732.339844 389.304688 733.269531 389.597656 734.777344 C 389.804688 735.851562 390.433594 736.15625 391.316406 736.382812 C 393.992188 737.070312 396.691406 736.859375 399.644531 736.730469 Z M 316.460938 792.039062 C 316.460938 782.890625 316.464844 773.746094 316.457031 764.597656 C 316.453125 763.140625 316.375 761.683594 316.347656 760.226562 C 316.34375 759.824219 316.394531 759.371094 316.882812 759.292969 C 317.238281 759.234375 317.53125 759.53125 317.632812 759.839844 C 318.03125 761.09375 319.011719 761.070312 320.042969 761.03125 C 321.695312 760.96875 323.359375 760.808594 325.003906 760.921875 C 329.4375 761.226562 333.871094 760.996094 338.304688 760.984375 C 338.636719 760.984375 338.972656 760.988281 339.296875 760.929688 C 340.53125 760.710938 340.234375 759.613281 340.355469 758.851562 C 340.511719 757.910156 339.664062 758.078125 339.117188 758.0625 C 337.992188 758.03125 336.863281 758.066406 335.738281 758.0625 C 329.648438 758.058594 323.554688 758.027344 317.464844 758.054688 C 315.375 758.0625 315.3125 758.1875 315.308594 760.183594 C 315.28125 766.476562 315.324219 772.773438 314.949219 779.058594 C 314.503906 786.601562 314.515625 794.15625 314.273438 801.703125 C 314.082031 807.730469 314.195312 813.765625 314.179688 819.796875 C 314.175781 821.519531 314.207031 823.242188 314.222656 824.964844 C 314.246094 827.476562 314.339844 827.574219 316.753906 827.613281 C 316.886719 827.613281 317.019531 827.613281 317.152344 827.613281 C 324.5 827.628906 331.851562 827.648438 339.199219 827.660156 C 339.597656 827.660156 339.996094 827.667969 340.390625 827.613281 C 341.363281 827.472656 341.609375 826.960938 341.144531 826.097656 C 340.84375 825.542969 340.414062 825.144531 339.769531 825.074219 C 339.175781 825.007812 338.582031 824.953125 337.988281 824.949219 C 331.894531 824.914062 325.804688 824.886719 319.714844 824.863281 C 319.117188 824.863281 318.519531 824.851562 317.929688 824.921875 C 316.925781 825.039062 316.628906 824.535156 316.691406 823.644531 C 316.710938 823.378906 316.695312 823.113281 316.695312 822.847656 C 316.699219 818.273438 316.757812 813.699219 316.6875 809.128906 C 316.597656 803.429688 316.308594 797.738281 316.460938 792.039062 Z M 525.949219 648.648438 C 524.761719 648.765625 523.777344 648.867188 522.789062 648.960938 C 521.28125 649.101562 521.230469 649.175781 521.859375 650.652344 C 522.742188 652.722656 523.652344 654.78125 524.53125 656.851562 C 529.367188 668.246094 533.28125 680.003906 538.011719 691.4375 C 538.820312 693.394531 539.671875 695.332031 540.46875 697.296875 C 540.871094 698.296875 541.554688 698.664062 542.621094 698.640625 C 544.101562 698.605469 544.207031 698.539062 543.753906 697.234375 C 540.398438 687.542969 537.019531 677.859375 533.695312 668.160156 C 531.617188 662.089844 529.277344 656.105469 527.625 649.894531 C 527.335938 648.808594 526.734375 648.523438 525.949219 648.648438 Z M 352.1875 679.351562 C 358.164062 684.402344 363.660156 689.582031 369.085938 694.78125 C 369.742188 694.265625 369.625 693.757812 369.570312 693.332031 C 369.273438 691.027344 369.429688 688.703125 369.5 686.414062 C 369.65625 681.183594 369.527344 675.957031 369.601562 670.730469 C 369.605469 670.363281 369.746094 669.914062 368.984375 669.558594 C 363.65625 672.875 358.078125 676.085938 352.1875 679.351562 Z M 332.453125 831.582031 C 343.242188 831.613281 354.035156 831.507812 364.824219 831.863281 C 371.433594 832.078125 378.042969 832.257812 384.648438 832.636719 C 385.441406 832.679688 386.238281 832.671875 387.03125 832.660156 C 387.578125 832.652344 387.832031 832.316406 387.945312 831.796875 C 388.257812 830.410156 387.847656 829.777344 386.425781 829.75 C 381.394531 829.644531 376.378906 829.242188 371.339844 829.308594 C 363.527344 829.410156 355.714844 829.351562 347.898438 829.335938 C 337.570312 829.316406 327.238281 829.269531 316.90625 829.242188 C 315.722656 829.238281 314.46875 829.664062 313.386719 829.476562 C 310.941406 829.046875 308.488281 829.640625 306.074219 829.121094 C 305.417969 828.980469 305.109375 829.375 305.105469 830.039062 C 305.101562 831.398438 305.578125 831.914062 307.035156 831.882812 C 310.078125 831.8125 313.121094 831.621094 316.164062 831.59375 C 321.59375 831.546875 327.023438 831.582031 332.453125 831.582031 Z M 343.074219 827.601562 C 343.578125 827.011719 343.34375 826.253906 343.363281 825.574219 C 343.496094 820.539062 343.636719 815.5 343.703125 810.464844 C 343.828125 800.917969 344.007812 791.371094 344.089844 781.824219 C 344.140625 775.464844 343.800781 769.097656 343.832031 762.730469 C 343.839844 761.601562 343.796875 760.476562 343.816406 759.347656 C 343.832031 758.398438 343.371094 758.042969 342.464844 758.089844 C 341.414062 758.144531 341.253906 758.3125 341.242188 759.878906 C 341.183594 769.03125 341.144531 778.1875 341.097656 787.339844 C 341.09375 788.214844 341.21875 788.976562 341.933594 789.664062 C 342.597656 790.304688 342.503906 793.335938 341.96875 794.054688 C 341.859375 794.199219 341.636719 794.40625 341.519531 794.378906 C 340.042969 794.003906 340.453125 795.128906 340.445312 795.789062 C 340.375 801.292969 340.398438 806.800781 340.269531 812.304688 C 340.210938 814.753906 339.933594 817.199219 340.089844 819.652344 C 340.21875 821.691406 339.777344 823.898438 341.714844 825.476562 C 342.074219 825.773438 342.15625 826.421875 342.347656 826.914062 C 342.46875 827.230469 342.570312 827.542969 343.074219 827.601562 Z M 503.023438 832.332031 C 511.089844 832.332031 521.8125 832.332031 532.535156 832.332031 C 533 832.332031 533.464844 832.308594 533.925781 832.316406 C 534.785156 832.332031 535.058594 831.855469 535.089844 831.066406 C 535.140625 829.738281 534.898438 829.371094 533.558594 829.390625 C 531.242188 829.421875 528.929688 829.574219 526.613281 829.636719 C 520.394531 829.804688 514.171875 829.894531 507.953125 829.960938 C 497.832031 830.066406 487.707031 829.828125 477.585938 829.753906 C 474.144531 829.730469 470.703125 829.75 467.257812 829.769531 C 466.757812 829.773438 466.179688 829.625 465.851562 830.234375 C 465.199219 831.46875 465.824219 832.613281 467.203125 832.675781 C 467.601562 832.691406 467.996094 832.683594 468.394531 832.6875 C 479.050781 832.78125 489.707031 832.578125 503.023438 832.332031 Z M 293.460938 651.050781 C 292.726562 651.714844 292.523438 652.265625 292.339844 652.816406 C 290.695312 657.714844 288.609375 662.445312 286.960938 667.347656 C 282.859375 679.539062 279.210938 691.863281 275.972656 704.304688 C 274.039062 711.738281 272.257812 719.210938 270.464844 726.679688 C 269.722656 729.765625 268.953125 732.851562 268.582031 736.015625 C 268.539062 736.414062 268.445312 736.847656 268.964844 736.996094 C 269.378906 737.113281 269.808594 736.96875 270.03125 736.636719 C 270.277344 736.261719 270.425781 735.800781 270.535156 735.359375 C 270.84375 734.070312 271.109375 732.773438 271.398438 731.480469 C 272.914062 724.691406 274.269531 717.867188 276.324219 711.210938 C 278.84375 703.050781 281.511719 694.941406 283.625 686.652344 C 285.300781 680.066406 287.015625 673.480469 289.113281 667 C 290.148438 663.792969 290.925781 660.496094 291.910156 657.265625 C 292.492188 655.34375 293.167969 653.421875 293.460938 651.050781 Z M 394.410156 829.914062 C 393.285156 829.914062 392.160156 829.894531 391.035156 829.921875 C 389.765625 829.949219 389.554688 830.203125 389.660156 831.445312 C 389.753906 832.519531 389.921875 832.617188 391.691406 832.632812 C 410.886719 832.800781 430.082031 832.664062 449.277344 832.570312 C 451.0625 832.5625 452.835938 832.796875 454.621094 832.671875 C 455.804688 832.585938 455.96875 832.433594 455.949219 831.230469 C 455.929688 830.054688 455.761719 829.902344 454.566406 829.847656 C 450.996094 829.6875 447.425781 829.902344 443.863281 829.953125 C 437.175781 830.046875 430.484375 830.1875 423.796875 830.082031 C 414.003906 829.925781 404.199219 830.488281 394.410156 829.914062 Z M 387.285156 746.066406 C 386.058594 746.671875 384.671875 746.441406 383.304688 746.425781 C 382.046875 746.410156 380.792969 746.207031 379.539062 746.203125 C 360.804688 746.167969 342.066406 745.863281 323.332031 746.457031 C 317.972656 746.625 312.605469 746.648438 307.25 746.9375 C 306.253906 746.992188 305.269531 747.0625 304.300781 747.308594 C 303.972656 747.394531 303.597656 747.464844 303.605469 747.867188 C 303.609375 748.335938 303.984375 748.554688 304.398438 748.613281 C 304.71875 748.660156 305.054688 748.601562 305.382812 748.585938 C 310.808594 748.390625 316.230469 748.078125 321.65625 748.027344 C 331.191406 747.945312 340.726562 748.023438 350.261719 748.039062 C 353.308594 748.042969 356.359375 747.984375 359.402344 748.09375 C 368.332031 748.417969 377.265625 748.6875 386.199219 748.808594 C 387.21875 748.824219 387.710938 748.566406 387.648438 747.515625 C 387.625 747.0625 387.777344 746.582031 387.285156 746.066406 Z M 445.539062 775.316406 C 445.652344 771.011719 445.234375 766.707031 445.496094 762.398438 C 445.597656 760.679688 445.585938 758.953125 445.582031 757.226562 C 445.578125 755.8125 445.382812 755.652344 443.96875 755.632812 C 443.703125 755.628906 443.4375 755.648438 443.175781 755.660156 C 442.535156 755.695312 442.242188 756.019531 442.238281 756.679688 C 442.214844 762.367188 442.652344 768.046875 442.542969 773.742188 C 442.429688 779.902344 442.527344 786.070312 442.527344 792.234375 C 442.53125 794.488281 442.511719 796.742188 442.515625 798.996094 C 442.515625 799.75 442.582031 800.445312 443.535156 800.671875 C 444.816406 800.972656 445.425781 800.542969 445.699219 799.160156 C 446.214844 796.574219 445.632812 794.003906 445.675781 791.425781 C 445.761719 786.054688 445.382812 780.6875 445.539062 775.316406 Z M 418.730469 690.109375 C 418.84375 690.109375 418.957031 690.109375 419.070312 690.109375 C 419.070312 694.417969 419.058594 698.722656 419.082031 703.027344 C 419.085938 704.285156 419.332031 704.507812 420.398438 704.503906 C 421.453125 704.5 421.640625 704.292969 421.710938 703.011719 C 421.726562 702.75 421.722656 702.480469 421.71875 702.21875 C 421.601562 694.804688 421.488281 687.386719 421.363281 679.972656 C 421.332031 678.136719 421.457031 677.957031 423.257812 677.714844 C 423.585938 677.667969 423.925781 677.597656 424.246094 677.636719 C 428.40625 678.144531 432.566406 677.566406 436.726562 677.625 C 438.839844 677.65625 440.957031 677.5625 443.074219 677.472656 C 443.785156 677.441406 444.890625 677.777344 444.789062 676.476562 C 444.699219 675.328125 443.683594 675.796875 443.046875 675.765625 C 435.976562 675.453125 428.886719 675.96875 421.816406 675.375 C 421.226562 675.328125 420.628906 675.425781 420.03125 675.410156 C 419.199219 675.394531 418.824219 675.824219 418.777344 676.609375 C 418.75 677.074219 418.734375 677.535156 418.734375 678 C 418.730469 682.035156 418.730469 686.074219 418.730469 690.109375 Z M 517.769531 777.492188 C 517.628906 780.136719 518.007812 782.785156 517.882812 785.425781 C 517.6875 789.59375 518.21875 793.753906 517.894531 797.921875 C 517.816406 798.9375 518.195312 799.160156 519.355469 799.335938 C 520.316406 799.484375 520.484375 798.867188 520.65625 798.222656 C 520.738281 797.910156 520.726562 797.566406 520.710938 797.238281 C 520.484375 793.273438 520.710938 789.3125 520.710938 785.347656 C 520.710938 778.003906 520.65625 770.65625 520.605469 763.308594 C 520.589844 761.125 520.5 758.941406 520.457031 756.757812 C 520.4375 755.933594 520.222656 755.351562 519.238281 755.316406 C 518.15625 755.277344 517.792969 755.507812 517.773438 756.640625 C 517.734375 759.222656 517.765625 761.808594 517.769531 764.390625 C 517.769531 768.757812 517.769531 773.125 517.769531 777.492188 Z M 494.296875 784.488281 C 494.296875 788.167969 494.296875 792.140625 494.300781 796.113281 C 494.300781 796.511719 494.28125 796.910156 494.332031 797.304688 C 494.464844 798.292969 495.070312 798.703125 496.175781 798.566406 C 497.152344 798.441406 496.804688 797.679688 496.75 797.175781 C 496.316406 793.144531 496.480469 789.105469 496.621094 785.074219 C 496.726562 782.097656 496.710938 779.113281 496.867188 776.144531 C 497.164062 770.457031 496.355469 764.78125 496.84375 759.097656 C 496.898438 758.441406 496.84375 757.777344 496.839844 757.113281 C 496.832031 756.304688 496.644531 755.664062 495.628906 755.6875 C 494.648438 755.710938 494.3125 756.023438 494.324219 757.21875 C 494.339844 758.871094 494.492188 760.519531 494.503906 762.171875 C 494.570312 769.515625 494.0625 776.851562 494.296875 784.488281 Z M 493.210938 777.410156 C 493.210938 775.6875 493.207031 773.96875 493.214844 772.246094 C 493.238281 767.140625 493.285156 762.039062 493.28125 756.933594 C 493.28125 755.855469 492.890625 755.621094 491.769531 755.664062 C 490.761719 755.703125 490.804688 756.285156 490.921875 757.023438 C 491.015625 757.609375 490.960938 758.214844 491.007812 758.8125 C 491.285156 762.398438 490.65625 765.953125 490.683594 769.535156 C 490.726562 775.632812 490.699219 781.734375 490.6875 787.832031 C 490.675781 791.210938 490.632812 794.59375 490.613281 797.972656 C 490.609375 798.429688 490.570312 798.953125 491.117188 799.15625 C 491.644531 799.355469 492.171875 799.207031 492.636719 798.925781 C 493.304688 798.519531 492.992188 797.84375 492.984375 797.292969 C 492.863281 790.664062 492.941406 784.035156 493.210938 777.410156 Z M 392.390625 691.863281 C 392.386719 691.863281 392.382812 691.863281 392.378906 691.863281 C 392.378906 689.742188 392.355469 687.621094 392.386719 685.503906 C 392.417969 683.316406 392.441406 681.128906 392.578125 678.949219 C 392.679688 677.304688 392.753906 677.367188 394.328125 677.390625 C 396.777344 677.429688 399.230469 677.472656 401.671875 677.351562 C 405.433594 677.164062 409.1875 676.765625 412.945312 677.363281 C 413.480469 677.445312 414 677.339844 414.492188 677.109375 C 414.832031 676.949219 414.972656 676.671875 414.921875 676.308594 C 414.835938 675.695312 414.339844 675.648438 413.878906 675.625 C 411.898438 675.527344 409.917969 675.414062 407.933594 675.363281 C 402.707031 675.226562 397.476562 675.40625 392.253906 675.101562 C 390.53125 675 390.476562 675.046875 390.546875 676.828125 C 390.847656 684.242188 390.839844 691.660156 390.777344 699.078125 C 390.761719 700.867188 390.675781 702.652344 390.644531 704.4375 C 390.632812 704.988281 390.730469 705.566406 391.417969 705.625 C 392.113281 705.683594 392.292969 705.152344 392.332031 704.582031 C 392.367188 704.050781 392.386719 703.523438 392.386719 702.992188 C 392.394531 699.28125 392.390625 695.574219 392.390625 691.863281 Z M 412.699219 780.210938 C 412.75 780.210938 412.804688 780.210938 412.855469 780.210938 C 412.921875 781.46875 413.027344 782.722656 413.050781 783.980469 C 413.125 788.21875 413.160156 792.457031 413.234375 796.695312 C 413.25 797.621094 413.339844 798.546875 413.425781 799.46875 C 413.460938 799.886719 413.652344 800.253906 414.121094 800.308594 C 414.664062 800.375 415.042969 800.078125 415.132812 799.570312 C 415.257812 798.859375 415.386719 798.121094 415.335938 797.410156 C 415.027344 793.117188 415.320312 788.820312 415.113281 784.519531 C 414.664062 775.261719 414.46875 765.992188 414.148438 756.730469 C 414.128906 756.066406 414.433594 755.054688 413.351562 755.007812 C 412.089844 754.953125 412.453125 756.0625 412.40625 756.777344 C 412.226562 759.496094 412.679688 762.199219 412.691406 764.914062 C 412.714844 770.011719 412.699219 775.113281 412.699219 780.210938 Z M 553.28125 736.84375 C 554.328125 736.890625 555.777344 736.960938 557.230469 737.015625 C 558.242188 737.054688 558.445312 736.867188 558.175781 735.867188 C 557.535156 733.5 556.660156 731.210938 555.527344 729.03125 C 555.222656 728.441406 554.730469 728.160156 554.054688 728.28125 C 552.152344 728.621094 550.226562 728.53125 548.308594 728.566406 C 547.421875 728.582031 546.976562 728.808594 547.085938 729.839844 C 547.300781 731.878906 547.683594 733.910156 547.492188 735.980469 C 547.417969 736.742188 547.929688 736.84375 548.503906 736.84375 C 549.960938 736.847656 551.417969 736.84375 553.28125 736.84375 Z M 451.660156 709.25 C 450.371094 709.183594 449.03125 708.558594 447.84375 709.023438 C 446.628906 709.5 445.773438 709.1875 444.960938 708.480469 C 444.316406 707.921875 443.609375 707.648438 442.808594 707.613281 C 440.03125 707.492188 437.253906 707.285156 434.476562 707.335938 C 429.453125 707.425781 424.429688 707.464844 419.40625 707.386719 C 418.269531 707.371094 418.355469 708.152344 418.167969 708.804688 C 417.929688 709.621094 418.464844 709.867188 419.105469 709.984375 C 419.429688 710.042969 419.765625 710.046875 420.09375 710.054688 C 423.464844 710.125 426.832031 709.753906 430.203125 709.953125 C 433.175781 710.128906 436.167969 709.6875 439.117188 709.902344 C 442.574219 710.15625 445.980469 709.914062 449.398438 709.582031 C 450.148438 709.507812 450.949219 709.738281 451.660156 709.25 Z M 345.230469 815.226562 C 345.164062 815.226562 345.101562 815.226562 345.039062 815.226562 C 345.039062 818.605469 345.039062 821.988281 345.039062 825.367188 C 345.039062 825.898438 345 826.433594 345.066406 826.953125 C 345.1875 827.863281 345.796875 828.277344 346.753906 828.183594 C 347.578125 828.101562 347.882812 827.605469 347.859375 826.832031 C 347.832031 825.902344 347.800781 824.976562 347.792969 824.046875 C 347.757812 818.28125 347.742188 812.515625 347.683594 806.746094 C 347.671875 805.625 347.511719 804.503906 347.40625 803.382812 C 347.347656 802.773438 346.992188 802.40625 346.390625 802.34375 C 345.710938 802.277344 345.445312 802.75 345.351562 803.308594 C 345.265625 803.828125 345.234375 804.359375 345.234375 804.886719 C 345.222656 808.332031 345.230469 811.78125 345.230469 815.226562 Z M 416.835938 706.503906 C 416.644531 707.359375 416.558594 708.015625 416.34375 708.628906 C 416.171875 709.113281 415.609375 709.175781 415.46875 708.734375 C 415.050781 707.410156 414.019531 707.585938 413.046875 707.582031 C 410.46875 707.566406 407.894531 707.566406 405.316406 707.578125 C 399.171875 707.609375 393.03125 707.695312 386.914062 708.347656 C 386.03125 708.445312 385.160156 708.542969 384.277344 708.894531 C 384.738281 709.515625 385.304688 709.488281 385.804688 709.460938 C 388.453125 709.324219 391.085938 709.625 393.726562 709.652344 C 400.53125 709.726562 407.339844 709.753906 414.144531 709.78125 C 416.90625 709.792969 416.992188 709.683594 417.003906 706.875 C 417.003906 706.816406 416.953125 706.757812 416.835938 706.503906 Z M 561.90625 736.175781 C 561.804688 735.960938 561.652344 735.667969 561.519531 735.363281 C 558.78125 729.117188 555.84375 722.964844 552.761719 716.882812 C 550.273438 711.980469 548.011719 706.96875 545.644531 702.007812 C 545.386719 701.472656 545.113281 700.941406 544.792969 700.4375 C 544.613281 700.15625 544.28125 699.945312 543.945312 700.148438 C 543.585938 700.363281 543.730469 700.71875 543.859375 701.03125 C 544.59375 702.804688 545.265625 704.609375 546.082031 706.34375 C 550.683594 716.101562 555.78125 725.632812 559.679688 735.71875 C 559.773438 735.964844 559.890625 736.210938 560.050781 736.417969 C 560.414062 736.898438 560.921875 736.972656 561.476562 736.839844 C 561.769531 736.769531 561.910156 736.574219 561.90625 736.175781 Z M 410.453125 777.757812 C 410.453125 784.507812 410.449219 791.261719 410.457031 798.015625 C 410.457031 798.609375 410.492188 799.207031 410.570312 799.792969 C 410.621094 800.148438 410.898438 800.378906 411.277344 800.332031 C 411.554688 800.296875 411.753906 800.097656 411.785156 799.804688 C 411.820312 799.480469 411.828125 799.148438 411.820312 798.816406 C 411.71875 794.382812 411.734375 789.949219 411.585938 785.511719 C 411.371094 778.894531 411.355469 772.269531 411.402344 765.644531 C 411.425781 762.40625 410.8125 759.175781 411.277344 755.929688 C 411.332031 755.550781 411.242188 755.070312 410.707031 755.074219 C 410.21875 755.078125 410.070312 755.492188 410.046875 755.910156 C 410.015625 756.4375 410.023438 756.96875 410.019531 757.5 C 409.972656 764.253906 410.558594 771 410.453125 777.757812 Z M 418.164062 754.949219 C 418.183594 754.949219 417.972656 754.902344 417.789062 754.957031 C 417.121094 755.15625 415.863281 754.445312 415.886719 755.597656 C 415.90625 756.558594 417.15625 756.261719 417.890625 756.289062 C 425.085938 756.546875 432.285156 756.773438 439.484375 757.011719 C 439.746094 757.019531 440.011719 757.023438 440.277344 757.019531 C 440.636719 757.019531 440.957031 756.878906 441.019531 756.507812 C 441.09375 756.042969 440.796875 755.769531 440.363281 755.679688 C 440.105469 755.625 439.839844 755.628906 439.574219 755.617188 C 432.515625 755.289062 425.4375 755.472656 418.164062 754.949219 Z M 416.957031 704.308594 C 417.625 703.945312 417.597656 703.429688 417.601562 703 C 417.734375 694.25 417.894531 685.496094 417.386719 676.75 C 417.371094 676.5 417.308594 676.21875 416.964844 676.175781 C 416.5625 677.332031 416.53125 702.320312 416.957031 704.308594 Z M 286.125 832.339844 C 286.125 832.304688 286.125 832.273438 286.125 832.238281 C 288.035156 832.238281 289.949219 832.285156 291.855469 832.214844 C 292.753906 832.183594 292.988281 831.640625 292.933594 830.480469 C 292.890625 829.601562 292.375 829.582031 291.71875 829.644531 C 289.425781 829.851562 287.121094 829.992188 284.835938 830.261719 C 283.402344 830.429688 281.984375 830.769531 280.566406 831.058594 C 280.179688 831.140625 279.761719 831.320312 279.84375 831.824219 C 279.902344 832.183594 280.234375 832.339844 280.589844 832.347656 C 280.984375 832.359375 281.378906 832.339844 281.773438 832.339844 C 283.226562 832.339844 284.675781 832.339844 286.125 832.339844 Z M 301.566406 832.273438 C 301.894531 832.273438 302.226562 832.296875 302.550781 832.269531 C 303.4375 832.199219 303.59375 831.574219 303.519531 830.859375 C 303.449219 830.125 303.703125 829.085938 302.5625 829.007812 C 300.203125 828.84375 297.839844 829.085938 295.503906 829.410156 C 294.488281 829.554688 294.777344 830.503906 294.75 831.183594 C 294.71875 831.941406 295.144531 832.277344 295.871094 832.164062 C 297.777344 831.871094 299.671875 832.105469 301.566406 832.273438 Z M 519.476562 800.574219 C 519.484375 800.503906 519.492188 800.429688 519.496094 800.359375 C 516.273438 800.089844 513.054688 799.742188 509.824219 799.570312 C 506.324219 799.382812 502.8125 799.363281 499.304688 799.269531 C 499.175781 799.265625 499.039062 799.230469 498.910156 799.242188 C 498.527344 799.28125 498.335938 799.511719 498.296875 799.886719 C 498.253906 800.332031 498.367188 800.703125 498.847656 800.789062 C 499.164062 800.847656 499.503906 800.773438 499.832031 800.789062 C 503.277344 800.917969 506.714844 800.613281 510.15625 800.578125 C 513.261719 800.550781 516.367188 800.574219 519.476562 800.574219 Z M 540.746094 832.019531 C 540.746094 832.074219 540.746094 832.128906 540.746094 832.179688 C 541.734375 832.179688 542.71875 832.195312 543.707031 832.175781 C 544.878906 832.15625 544.957031 832 545.035156 830.777344 C 545.097656 829.847656 544.652344 829.632812 543.871094 829.644531 C 541.824219 829.667969 539.78125 829.722656 537.746094 829.441406 C 536.96875 829.332031 536.472656 829.640625 536.464844 830.519531 C 536.457031 831.316406 536.566406 832.007812 537.582031 832.015625 C 538.636719 832.027344 539.691406 832.019531 540.746094 832.019531 Z M 460.773438 832.628906 C 460.773438 832.640625 460.773438 832.648438 460.773438 832.660156 C 461.5625 832.660156 462.351562 832.710938 463.136719 832.648438 C 464.160156 832.566406 464.324219 832.246094 464.304688 831.03125 C 464.289062 830.152344 463.988281 829.683594 463.027344 829.726562 C 461.589844 829.796875 460.160156 830.121094 458.710938 829.894531 C 457.785156 829.75 457.382812 830.1875 457.34375 831.097656 C 457.296875 832.21875 457.515625 832.542969 458.609375 832.617188 C 459.328125 832.667969 460.050781 832.628906 460.773438 832.628906 Z M 489.050781 800.324219 C 481.328125 800.410156 473.742188 800.15625 466.160156 800.574219 C 473.605469 801.015625 481.066406 800.609375 488.503906 801.132812 C 488.703125 801.144531 488.875 801.003906 489.050781 800.324219 Z M 277.820312 794.886719 C 278.730469 792.027344 277.550781 785.886719 274.613281 784.777344 C 274.707031 787.238281 276.664062 793.40625 277.820312 794.886719 Z M 278.066406 782.199219 C 278.882812 780.199219 280.226562 767.089844 279.9375 764.414062 C 278.789062 770.53125 277.667969 776.28125 278.066406 782.199219 Z M 278.28125 796.777344 C 278.433594 802.039062 278.921875 806.957031 278.914062 811.894531 C 279.050781 811.039062 279.046875 810.183594 279.050781 809.328125 C 279.0625 806.753906 278.792969 804.164062 279.164062 801.613281 C 279.398438 799.96875 279.144531 798.519531 278.28125 796.777344 Z M 435.945312 706.023438 C 432.351562 705.480469 428.746094 705.496094 425.128906 705.730469 C 428.738281 705.695312 432.335938 706.105469 435.945312 706.023438 Z M 394.976562 705.976562 C 394.988281 706.007812 395.003906 706.035156 395.015625 706.066406 C 398.152344 706.066406 401.285156 706.066406 404.421875 706.066406 C 404.421875 706.035156 404.421875 706.007812 404.421875 705.976562 C 401.273438 705.976562 398.125 705.976562 394.976562 705.976562 Z M 394.976562 705.976562 " fill-opacity="1" fill-rule="nonzero"/></g><path fill="#000000" d="M 280.667969 791.035156 C 281.613281 789.601562 281.542969 787.792969 282.429688 786.324219 C 282.703125 785.871094 282.4375 785.296875 282.300781 784.78125 C 282.148438 784.207031 282.039062 783.625 281.945312 783.039062 C 281.910156 782.824219 282.078125 782.667969 282.296875 782.65625 C 282.410156 782.648438 282.566406 782.699219 282.640625 782.78125 C 283.621094 783.859375 284.050781 787.140625 283.3125 788.375 C 282.828125 789.183594 282.410156 789.980469 282.328125 790.9375 C 282.289062 791.402344 282.109375 791.835938 281.628906 792.03125 C 280.984375 791.988281 281.785156 790.574219 280.648438 791.015625 C 280.648438 791.015625 280.667969 791.035156 280.667969 791.035156 Z M 280.667969 791.035156 " fill-opacity="1" fill-rule="nonzero"/><path fill="#000000" d="M 299.878906 652.246094 C 294.722656 670.242188 289.785156 688.300781 285 706.414062 C 284.292969 706.195312 284.367188 705.847656 284.414062 705.527344 C 285.210938 700.207031 298.371094 654.25 299.878906 652.246094 Z M 299.878906 652.246094 " fill-opacity="1" fill-rule="nonzero"/><path fill="#000000" d="M 322.171875 802.140625 C 322.210938 801.164062 322.636719 800.34375 323.269531 799.644531 C 324.816406 797.925781 326.339844 796.183594 327.976562 794.546875 C 329.015625 793.507812 329.9375 792.410156 330.628906 791.117188 C 330.816406 790.769531 331.070312 790.457031 331.304688 790.140625 C 331.625 789.71875 332.035156 789.511719 332.484375 789.902344 C 332.894531 790.257812 332.542969 790.582031 332.355469 790.933594 C 330.695312 793.988281 328.492188 796.589844 325.894531 798.886719 C 324.757812 799.890625 323.632812 800.9375 323.210938 802.5 C 323.128906 802.804688 322.890625 803.128906 322.484375 802.980469 C 322.089844 802.839844 322.15625 802.464844 322.171875 802.140625 Z M 322.171875 802.140625 " fill-opacity="1" fill-rule="nonzero"/><path fill="#000000" d="M 335.117188 781.949219 C 335.175781 782.675781 334.570312 783.058594 334.128906 783.492188 C 333.039062 784.566406 332.105469 785.765625 331.152344 786.953125 C 330.265625 788.058594 329.683594 789.273438 329.394531 790.675781 C 329.265625 791.304688 329.078125 792.371094 328.128906 792.089844 C 327.164062 791.800781 327.660156 790.914062 327.84375 790.222656 C 328.820312 786.53125 331.410156 784.113281 334.324219 781.953125 C 334.46875 781.84375 334.691406 781.832031 334.878906 781.796875 C 334.925781 781.789062 334.984375 781.863281 335.117188 781.949219 Z M 335.117188 781.949219 " fill-opacity="1" fill-rule="nonzero"/><path fill="#000000" d="M 486.25 759.917969 C 486.519531 760.257812 486.71875 760.394531 486.742188 760.558594 C 487.035156 762.578125 487.382812 764.597656 487.550781 766.628906 C 487.675781 768.132812 486.804688 769.25 485.683594 770.183594 C 484.066406 771.535156 482.269531 772.667969 480.996094 774.429688 C 480.414062 775.234375 479.828125 776.019531 479.363281 776.902344 C 478.402344 778.714844 477.394531 780.507812 476.398438 782.304688 C 476.074219 782.882812 475.75 783.472656 475.183594 783.851562 C 475.039062 783.949219 474.78125 783.992188 474.628906 783.929688 C 474.339844 783.8125 474.324219 783.523438 474.441406 783.261719 C 474.578125 782.960938 474.757812 782.679688 474.902344 782.382812 C 475.722656 780.71875 476.597656 779.074219 477.339844 777.378906 C 478.742188 774.179688 480.957031 771.707031 483.804688 769.75 C 484.675781 769.152344 485.628906 768.652344 486.316406 767.816406 C 486.53125 767.554688 486.628906 767.234375 486.460938 766.894531 C 486.289062 766.542969 485.976562 766.503906 485.628906 766.511719 C 482.792969 766.566406 480 767.082031 477.15625 767.144531 C 476.023438 767.171875 474.75 767.601562 473.816406 768.25 C 472.4375 769.207031 470.882812 768.8125 469.464844 769.25 C 469.152344 769.347656 468.777344 769.257812 468.722656 768.820312 C 468.671875 768.410156 468.996094 768.28125 469.308594 768.148438 C 470.058594 767.828125 470.890625 767.949219 471.644531 767.738281 C 471.988281 767.640625 473.121094 767.695312 472.257812 766.699219 C 471.992188 766.394531 472.375 766.273438 472.605469 766.191406 C 472.917969 766.082031 473.234375 765.949219 473.554688 765.917969 C 474.785156 765.800781 476.058594 766.320312 477.246094 765.648438 C 479.085938 766.707031 480.9375 765.523438 482.785156 765.652344 C 483.363281 765.691406 483.910156 765.460938 484.460938 765.160156 C 485.453125 764.621094 485.84375 763.925781 485.777344 762.796875 C 485.726562 761.921875 485.507812 760.964844 486.25 759.917969 Z M 486.25 759.917969 " fill-opacity="1" fill-rule="nonzero"/><path fill="#000000" d="M 468.527344 757.15625 C 473.566406 757.480469 478.484375 757.132812 483.40625 756.859375 C 484.328125 756.808594 485.253906 756.738281 486.175781 756.734375 C 486.585938 756.734375 487.265625 756.570312 487.183594 757.292969 C 487.125 757.773438 486.816406 758.359375 486.167969 758.296875 C 480.820312 757.769531 475.535156 759.019531 470.199219 758.867188 C 468.882812 758.828125 468.777344 758.058594 468.527344 757.15625 Z M 468.527344 757.15625 " fill-opacity="1" fill-rule="nonzero"/><path fill="#000000" d="M 501.539062 780.191406 C 501.789062 779.691406 502.082031 779.53125 502.382812 779.398438 C 503.753906 778.804688 504.167969 777.675781 503.980469 776.3125 C 503.515625 772.90625 502.988281 769.507812 502.128906 766.171875 C 502 765.667969 501.738281 765.195312 501.496094 764.730469 C 500.886719 763.542969 500.878906 763.546875 502.476562 762.71875 C 502.921875 764.378906 503.457031 765.984375 503.773438 767.632812 C 504.34375 770.617188 504.816406 773.625 505.273438 776.632812 C 505.621094 778.925781 504.058594 780.433594 501.539062 780.191406 Z M 501.539062 780.191406 " fill-opacity="1" fill-rule="nonzero"/><path fill="#000000" d="M 515.136719 756.335938 C 515.488281 758.902344 511.664062 765.058594 507.992188 767.605469 C 509.46875 764.839844 511.460938 762.375 513.011719 759.578125 C 511.0625 760.453125 509.226562 761.527344 506.757812 760.511719 C 510.339844 760.351562 512.652344 758.195312 515.136719 756.335938 Z M 515.136719 756.335938 " fill-opacity="1" fill-rule="nonzero"/><path fill="#000000" d="M 511.652344 757.050781 C 507.613281 756.621094 503.558594 756.78125 499.503906 757.089844 C 500.976562 756.226562 509.28125 756.152344 511.652344 757.050781 Z M 511.652344 757.050781 " fill-opacity="1" fill-rule="nonzero"/><path fill="#000000" d="M 499.738281 778.070312 C 500.125 774.542969 499.175781 771.042969 499.46875 767.515625 C 500.230469 771.019531 500.511719 774.535156 499.738281 778.070312 Z M 499.738281 778.070312 " fill-opacity="1" fill-rule="nonzero"/><path fill="#000000" d="M 397.722656 684.300781 C 397.300781 683.910156 397.351562 683.648438 397.488281 683.417969 C 398.363281 681.90625 399.703125 680.8125 400.925781 679.621094 C 401.183594 679.371094 401.519531 679.292969 401.832031 679.484375 C 402.199219 679.710938 402.136719 680.09375 401.917969 680.339844 C 400.628906 681.800781 399.199219 683.097656 397.722656 684.300781 Z M 397.722656 684.300781 " fill-opacity="1" fill-rule="nonzero"/></svg>