<svg xmlns="http://www.w3.org/2000/svg" xmlns:xlink="http://www.w3.org/1999/xlink" width="1080" zoomAndPan="magnify" viewBox="0 0 810 1439.999935" height="1920" preserveAspectRatio="xMidYMid meet" version="1.0"><defs><clipPath id="27ab68e28e"><path d="M 346 602.550781 L 428 602.550781 L 428 660 L 346 660 Z M 346 602.550781 " clip-rule="nonzero"/></clipPath><clipPath id="d8141e8b1e"><path d="M 410.554688 834 L 481.398438 834 L 481.398438 837.28125 L 410.554688 837.28125 Z M 410.554688 834 " clip-rule="nonzero"/></clipPath></defs><g clip-path="url(#27ab68e28e)"><path fill="#2c2c2c" d="M 427.503906 602.546875 C 413.183594 609.6875 400.886719 620.164062 387.6875 629.101562 C 379.46875 635.074219 371.066406 640.792969 362.695312 646.546875 C 356.949219 650.464844 351.164062 654.488281 346.355469 659.542969 C 353.546875 656.367188 359.878906 651.625 366.242188 647.078125 C 374.703125 640.898438 383.308594 634.917969 391.929688 628.964844 C 403.886719 620.316406 416.847656 612.835938 427.503906 602.546875 " fill-opacity="1" fill-rule="nonzero"/></g><path fill="#2c2c2c" d="M 361.46875 659.25 C 357.644531 660.707031 353.984375 662.886719 351.539062 666.230469 C 355.523438 665.050781 358.808594 662.355469 361.46875 659.25 " fill-opacity="1" fill-rule="nonzero"/><path fill="#2c2c2c" d="M 420.902344 617.511719 C 413.09375 621.550781 405.929688 626.664062 398.742188 631.691406 C 389.898438 638.167969 380.0625 643.539062 372.464844 651.53125 C 380.578125 648.042969 387.472656 642.414062 394.640625 637.371094 C 403.550781 630.972656 412.835938 624.976562 420.902344 617.511719 " fill-opacity="1" fill-rule="nonzero"/><path fill="#2c2c2c" d="M 426.140625 630.554688 C 414.5625 637.023438 404.210938 645.386719 393.15625 652.671875 C 384.308594 658.886719 374.5625 664.109375 367.082031 672.035156 C 378.214844 667.074219 387.304688 658.6875 397.246094 651.808594 C 406.90625 644.773438 417.128906 638.425781 426.140625 630.554688 " fill-opacity="1" fill-rule="nonzero"/><path fill="#2c2c2c" d="M 422.367188 622.117188 C 414.273438 626.804688 406.707031 632.328125 398.957031 637.550781 C 390.914062 643.164062 382.097656 647.929688 375.332031 655.152344 C 383.539062 651.644531 390.425781 645.78125 397.601562 640.589844 C 405.855469 634.445312 414.503906 628.761719 422.367188 622.117188 " fill-opacity="1" fill-rule="nonzero"/><path fill="#2c2c2c" d="M 428.929688 603.242188 C 436.558594 610.964844 446.351562 615.929688 455.265625 621.957031 C 473.214844 633.375 490.460938 645.886719 508.582031 657.03125 C 512.308594 659.21875 513.507812 659.886719 509.121094 656.570312 C 492.5 644.410156 474.929688 633.597656 458.089844 621.742188 C 448.46875 615.449219 439.632812 607.675781 428.929688 603.242188 " fill-opacity="1" fill-rule="nonzero"/><path fill="#2c2c2c" d="M 434.878906 616.609375 C 441.90625 623.691406 450.84375 628.351562 459.089844 633.820312 C 466.589844 638.757812 473.847656 644.148438 481.921875 648.132812 C 475.269531 642.25 467.613281 637.628906 460.28125 632.644531 C 451.980469 627.066406 444.199219 620.449219 434.878906 616.609375 " fill-opacity="1" fill-rule="nonzero"/><path fill="#2c2c2c" d="M 507.148438 664.476562 C 507.167969 664.496094 507.183594 664.507812 507.199219 664.523438 C 507.183594 664.507812 507.167969 664.496094 507.148438 664.476562 Z M 498.8125 659.449219 C 500.085938 661.027344 501.582031 662.4375 503.296875 663.527344 C 505.027344 664.589844 506.902344 665.421875 508.800781 666.144531 C 508.273438 665.554688 507.6875 664.988281 507.109375 664.441406 C 507.113281 664.445312 507.121094 664.449219 507.125 664.453125 C 504.808594 662.136719 501.980469 660.328125 498.8125 659.449219 " fill-opacity="1" fill-rule="nonzero"/><path fill="#2c2c2c" d="M 434.375 622.882812 C 439.921875 628.453125 446.59375 632.699219 453.28125 636.753906 C 458.050781 639.824219 462.746094 643.007812 467.464844 646.164062 C 479.476562 654.007812 490.578125 663.359375 503.714844 669.34375 C 493.019531 659.300781 479.875 652.527344 467.886719 644.21875 C 456.632812 637.253906 446.613281 628.125 434.375 622.882812 " fill-opacity="1" fill-rule="nonzero"/><path fill="#2c2c2c" d="M 429.351562 632.050781 C 438.84375 641.269531 450.832031 647.332031 461.667969 654.78125 C 470.625 660.683594 479.21875 667.25 488.898438 671.949219 C 480.75 664.671875 471.269531 659.183594 462.292969 653.039062 C 451.421875 645.914062 441.339844 637.257812 429.351562 632.050781 " fill-opacity="1" fill-rule="nonzero"/><path fill="#2c2c2c" d="M 487.125 673.242188 C 485.328125 681.929688 486.203125 690.8125 486.371094 699.605469 C 486.472656 707.015625 486.484375 714.488281 487.636719 721.8125 C 488.8125 713.246094 488.371094 704.574219 488.453125 695.953125 C 488.613281 688.371094 488.796875 680.679688 487.125 673.242188 " fill-opacity="1" fill-rule="nonzero"/><path fill="#2c2c2c" d="M 506.933594 661.363281 C 500.125 667.480469 494.777344 675.242188 490.988281 683.550781 C 497.640625 677.316406 503.335938 669.761719 506.933594 661.363281 " fill-opacity="1" fill-rule="nonzero"/><path fill="#2c2c2c" d="M 509.65625 675.65625 C 504.980469 675.757812 500.292969 676.101562 495.675781 676.867188 C 499.421875 677.574219 503.261719 677.878906 507.070312 678.164062 C 515.738281 678.472656 524.421875 678.304688 533.09375 678.332031 C 543.003906 678.167969 552.953125 679.15625 562.824219 677.980469 C 564.167969 677.816406 565.5 677.566406 566.824219 677.316406 C 564.632812 676.835938 562.390625 676.488281 560.144531 676.285156 C 553.238281 675.585938 546.300781 675.984375 539.375 675.933594 C 529.46875 675.859375 519.5625 675.601562 509.65625 675.65625 " fill-opacity="1" fill-rule="nonzero"/><path fill="#2c2c2c" d="M 503.554688 666.960938 C 513.753906 670.515625 524.621094 671.429688 535.226562 673.226562 C 545.199219 674.503906 555.144531 676.808594 565.253906 676.328125 C 557.464844 673.472656 549.144531 672.476562 540.972656 671.265625 C 528.566406 669.433594 516.144531 666.703125 503.554688 666.960938 " fill-opacity="1" fill-rule="nonzero"/><path fill="#2c2c2c" d="M 540.476562 682.027344 C 530.589844 682.214844 520.703125 682.238281 510.820312 682.230469 C 504.058594 682.050781 497.304688 682.203125 490.601562 683.164062 C 489.257812 683.332031 487.898438 683.527344 486.578125 683.78125 C 496.058594 685.433594 505.671875 685.121094 515.242188 684.855469 C 528.894531 684.394531 542.597656 685.210938 556.21875 684.136719 C 556.140625 684.148438 556.058594 684.15625 555.980469 684.164062 C 558.167969 683.96875 560.359375 683.636719 562.496094 683.164062 C 555.253906 681.746094 547.820312 681.851562 540.476562 682.027344 " fill-opacity="1" fill-rule="nonzero"/><path fill="#2c2c2c" d="M 546.746094 687.855469 C 545.992188 691.566406 545.800781 695.359375 545.707031 699.136719 C 545.710938 699.042969 545.714844 698.949219 545.714844 698.851562 C 546.007812 719.359375 546.496094 739.871094 546.460938 760.386719 C 546.691406 770.832031 545.359375 781.351562 546.789062 791.738281 C 547.558594 797.367188 547.421875 795.679688 548.066406 791.214844 C 549.03125 783.761719 548.265625 776.234375 548.136719 768.75 C 547.792969 759.199219 547.988281 749.632812 547.757812 740.078125 C 547.695312 729.457031 547.835938 718.832031 547.890625 708.210938 C 548.097656 701.425781 548.113281 694.527344 546.746094 687.855469 " fill-opacity="1" fill-rule="nonzero"/><path fill="#2c2c2c" d="M 547.425781 796.6875 C 546.082031 801.308594 546.449219 806.277344 547.515625 810.910156 C 548.511719 806.253906 548.835938 801.28125 547.425781 796.6875 " fill-opacity="1" fill-rule="nonzero"/><path fill="#2c2c2c" d="M 521.648438 724.277344 C 521.722656 723.996094 521.773438 723.582031 521.832031 723.253906 C 521.777344 723.59375 521.714844 723.9375 521.648438 724.277344 " fill-opacity="1" fill-rule="nonzero"/><path fill="#2c2c2c" d="M 499.636719 697.449219 C 499.566406 697.726562 499.496094 698.003906 499.433594 698.28125 C 499.496094 698.011719 499.574219 697.734375 499.640625 697.449219 C 499.640625 697.449219 499.636719 697.449219 499.636719 697.449219 " fill-opacity="1" fill-rule="nonzero"/><path fill="#2c2c2c" d="M 499.441406 721.128906 C 499.558594 720.695312 499.644531 720.179688 499.738281 719.71875 C 499.644531 720.207031 499.546875 720.671875 499.441406 721.128906 " fill-opacity="1" fill-rule="nonzero"/><path fill="#2c2c2c" d="M 515.117188 725.558594 C 514.441406 725.65625 513.757812 725.789062 513.109375 725.96875 C 514.453125 726.359375 515.859375 726.632812 517.261719 726.691406 C 518.699219 726.746094 520.117188 726.511719 521.488281 726.097656 C 519.460938 725.363281 517.242188 725.195312 515.117188 725.558594 " fill-opacity="1" fill-rule="nonzero"/><path fill="#2c2c2c" d="M 510.382812 722.414062 C 510.488281 721.984375 510.5625 721.480469 510.636719 721.027344 C 510.5625 721.492188 510.480469 721.953125 510.382812 722.414062 " fill-opacity="1" fill-rule="nonzero"/><path fill="#2c2c2c" d="M 531.644531 687.976562 C 524.972656 688.140625 518.304688 688.492188 511.628906 688.339844 C 503.261719 688.085938 494.824219 687.894531 486.535156 689.3125 C 486.539062 689.3125 486.542969 689.3125 486.546875 689.308594 C 485.335938 689.5 489.96875 689.878906 490.65625 689.953125 C 490.605469 689.945312 490.550781 689.941406 490.5 689.933594 C 501.449219 691.101562 512.449219 689.550781 523.421875 689.921875 C 530.515625 690.042969 537.730469 690.382812 544.707031 688.898438 C 540.410156 688.058594 536.011719 687.933594 531.644531 687.976562 " fill-opacity="1" fill-rule="nonzero"/><path fill="#2c2c2c" d="M 563.199219 683.335938 C 557.132812 686.007812 551.996094 690.464844 547.742188 695.492188 C 553.617188 692.550781 559.191406 688.597656 563.199219 683.335938 " fill-opacity="1" fill-rule="nonzero"/><path fill="#2c2c2c" d="M 507.230469 724.65625 C 472.183594 725.71875 437.132812 727.03125 402.066406 727.554688 C 386.902344 728.050781 371.695312 727.5 356.554688 728.464844 C 353.332031 728.769531 350.132812 729.289062 346.980469 730.019531 C 348.191406 730.230469 349.429688 730.421875 350.660156 730.574219 C 357.4375 731.414062 364.273438 731.117188 371.074219 730.742188 C 410.796875 728.890625 450.539062 727.8125 490.292969 726.960938 C 498.289062 726.636719 506.324219 726.953125 514.277344 725.941406 C 515.816406 725.761719 517.371094 725.570312 518.890625 725.285156 C 515.019531 724.847656 511.121094 724.671875 507.230469 724.65625 " fill-opacity="1" fill-rule="nonzero"/><path fill="#2c2c2c" d="M 498.539062 730.75 C 470.394531 732.003906 442.230469 732.792969 414.066406 733.410156 C 401.871094 733.660156 389.675781 733.792969 377.476562 733.871094 C 371.167969 733.839844 364.824219 734.371094 358.683594 735.804688 C 366.066406 737.144531 373.605469 736.976562 381.066406 736.527344 C 411.71875 735.054688 442.402344 734.167969 473.082031 733.527344 C 487.148438 733.050781 501.371094 733.9375 515.285156 731.488281 C 509.734375 730.851562 504.121094 730.640625 498.539062 730.75 " fill-opacity="1" fill-rule="nonzero"/><path fill="#2c2c2c" d="M 397.613281 682.960938 C 396.394531 689.378906 396.800781 695.976562 396.78125 702.476562 C 396.835938 706.917969 396.90625 711.359375 397.066406 715.792969 C 397.078125 716.085938 397.308594 716.351562 397.613281 716.34375 C 401.878906 716.289062 406.140625 715.90625 410.390625 715.792969 C 406.320312 715.695312 402.261719 715.320312 398.183594 715.257812 C 398.378906 708.792969 398.507812 702.320312 398.484375 695.855469 C 398.449219 691.550781 398.488281 687.1875 397.613281 682.960938 " fill-opacity="1" fill-rule="nonzero"/><path fill="#2c2c2c" d="M 410.390625 679.671875 C 395.644531 679.667969 392.792969 680.789062 409.773438 680.886719 C 409.738281 692.523438 410.183594 704.160156 410.386719 715.792969 C 410.625 706.917969 410.75 698.011719 410.96875 689.125 C 410.804688 687.914062 411.652344 679.226562 410.390625 679.671875 " fill-opacity="1" fill-rule="nonzero"/><path fill="#2c2c2c" d="M 420.664062 679.808594 C 419.683594 688.597656 420.226562 697.472656 420.25 706.296875 C 420.285156 709.304688 420.257812 712.3125 420.246094 715.320312 C 420.246094 715.550781 420.4375 715.734375 420.664062 715.738281 C 424.921875 715.78125 429.207031 715.644531 433.4375 715.320312 C 429.328125 715.015625 425.203125 714.875 421.082031 714.898438 C 420.8125 703.214844 421.878906 691.449219 420.664062 679.808594 " fill-opacity="1" fill-rule="nonzero"/><path fill="#2c2c2c" d="M 433.4375 679.257812 C 429.1875 679.554688 424.875 679.066406 420.671875 679.808594 C 424.675781 680.558594 428.816406 680.046875 432.875 680.34375 C 432.914062 692 432.207031 703.722656 433.441406 715.320312 C 434.34375 707.625 434.136719 699.871094 434.089844 692.136719 C 434.050781 688.027344 434.082031 683.917969 433.992188 679.8125 C 433.984375 679.515625 433.746094 679.25 433.4375 679.257812 " fill-opacity="1" fill-rule="nonzero"/><path fill="#2c2c2c" d="M 443.039062 679.332031 C 441.90625 687.953125 442.148438 696.644531 442.039062 705.324219 C 442.007812 708.296875 442.117188 711.277344 442.265625 714.25 C 442.351562 715.410156 443.777344 714.902344 444.546875 714.96875 C 448.230469 714.789062 451.945312 714.683594 455.601562 714.246094 C 451.703125 713.808594 447.769531 713.65625 443.851562 713.507812 C 444.15625 708.277344 443.988281 703.042969 443.957031 697.808594 C 444.132812 691.640625 443.738281 685.449219 443.039062 679.332031 " fill-opacity="1" fill-rule="nonzero"/><path fill="#2c2c2c" d="M 455.601562 678.390625 C 451.40625 678.574219 447.210938 678.839844 443.039062 679.328125 C 446.871094 679.796875 450.761719 680.027344 454.625 680.230469 C 454.429688 685.445312 454.703125 690.65625 454.726562 695.871094 C 454.492188 702.007812 455.066406 708.152344 455.601562 714.25 C 456.59375 705.570312 456.464844 696.859375 456.613281 688.148438 C 456.660156 685.210938 456.65625 682.269531 456.542969 679.332031 C 456.527344 678.832031 456.125 678.367188 455.601562 678.390625 " fill-opacity="1" fill-rule="nonzero"/><path fill="#2c2c2c" d="M 402.972656 674.167969 C 400.011719 674.285156 397.027344 674.554688 394.179688 675.371094 C 398.457031 676.386719 402.910156 676.339844 407.273438 676.132812 C 410.613281 676.03125 413.964844 675.644531 417.226562 674.945312 C 412.527344 674.125 407.730469 674 402.972656 674.167969 " fill-opacity="1" fill-rule="nonzero"/><path fill="#2c2c2c" d="M 446.707031 673.242188 C 443.1875 673.351562 439.625 673.632812 436.226562 674.601562 C 439.679688 675.464844 443.300781 675.578125 446.855469 675.574219 C 450.402344 675.410156 453.972656 675 457.441406 674.214844 C 453.921875 673.539062 450.292969 673.289062 446.707031 673.242188 " fill-opacity="1" fill-rule="nonzero"/><path fill="#2c2c2c" d="M 405.613281 719.941406 C 400.488281 719.992188 395.339844 720.320312 390.324219 721.40625 C 399.398438 723.285156 408.726562 722.550781 417.925781 722.410156 C 430.910156 721.785156 443.960938 722.722656 456.910156 721.457031 C 460.148438 721.046875 462.109375 721.015625 457.324219 720.5625 C 451.613281 719.929688 445.863281 719.976562 440.125 720.097656 C 428.621094 720.246094 417.117188 720.027344 405.613281 719.941406 " fill-opacity="1" fill-rule="nonzero"/><path fill="#2c2c2c" d="M 460.085938 675.082031 C 458.355469 683.570312 458.523438 692.261719 458.449219 700.878906 C 458.328125 706.34375 458.675781 711.800781 459.429688 717.210938 C 459.425781 717.199219 459.425781 717.191406 459.421875 717.179688 C 459.535156 717.988281 459.679688 718.800781 459.839844 719.589844 C 460.226562 717.714844 460.492188 715.816406 460.71875 713.917969 C 461.5625 707.5 461.417969 701.027344 461.449219 694.570312 C 461.535156 688.0625 461.296875 681.488281 460.085938 675.082031 " fill-opacity="1" fill-rule="nonzero"/><path fill="#2c2c2c" d="M 394.457031 720.914062 C 394.460938 720.933594 394.460938 720.949219 394.460938 720.964844 C 394.460938 720.949219 394.460938 720.933594 394.457031 720.914062 Z M 395.15625 676.347656 C 393.8125 682.765625 393.652344 689.367188 393.621094 695.910156 C 393.601562 704.234375 393.429688 712.585938 394.453125 720.871094 C 394.449219 720.863281 394.449219 720.855469 394.449219 720.847656 C 394.5625 721.726562 394.726562 722.617188 394.898438 723.476562 C 395.753906 719.484375 395.898438 715.386719 396.210938 711.324219 C 396.417969 699.695312 397.226562 687.84375 395.15625 676.347656 " fill-opacity="1" fill-rule="nonzero"/><path fill="#2c2c2c" d="M 389.558594 717.355469 C 384 717.753906 378.542969 718.984375 373.160156 720.375 C 367.71875 721.796875 362.195312 722.890625 356.777344 724.417969 C 353.484375 725.339844 350.160156 726.261719 346.945312 727.421875 C 353.519531 726.746094 360.03125 725.558594 366.476562 724.132812 C 372.027344 722.964844 377.648438 722.089844 383.128906 720.632812 C 386.449219 719.765625 389.691406 718.625 392.828125 717.226562 C 391.746094 717.246094 390.644531 717.296875 389.558594 717.355469 " fill-opacity="1" fill-rule="nonzero"/><path fill="#2c2c2c" d="M 464.730469 719.699219 C 463.007812 719.746094 461.285156 719.886719 459.585938 720.074219 C 463.875 721.375 468.3125 722.101562 472.765625 722.539062 C 487.964844 723.589844 503.140625 725.15625 518.375 725.660156 C 520.242188 725.710938 522.132812 725.757812 523.996094 725.710938 C 517.449219 724.515625 510.835938 723.699219 504.21875 723.035156 C 496.136719 722.226562 488.054688 721.429688 479.972656 720.640625 C 474.914062 720.046875 469.828125 719.550781 464.730469 719.699219 " fill-opacity="1" fill-rule="nonzero"/><path fill="#2c2c2c" d="M 337.398438 676.59375 C 312.867188 677.296875 288.328125 676.773438 263.796875 676.972656 C 261.203125 677.152344 258.636719 677.578125 256.074219 678 C 259.601562 678.605469 263.1875 679.109375 266.78125 679.070312 C 290.121094 678.949219 313.46875 678.597656 336.804688 679.117188 C 342.515625 679.183594 348.261719 678.960938 353.875 677.835938 C 348.46875 676.738281 342.90625 676.578125 337.398438 676.59375 " fill-opacity="1" fill-rule="nonzero"/><path fill="#2c2c2c" d="M 339.316406 664.035156 C 334.640625 664.222656 330 664.960938 325.417969 665.886719 C 325.515625 665.867188 325.605469 665.847656 325.703125 665.832031 C 307.886719 669.519531 289.757812 671.488281 271.976562 675.265625 C 267.699219 676.300781 268.128906 676.269531 272.261719 675.9375 C 290.699219 673.863281 308.898438 669.957031 327.34375 667.882812 C 332.933594 667.117188 338.523438 666.054688 343.8125 664.042969 C 342.324219 663.984375 340.816406 663.980469 339.316406 664.035156 " fill-opacity="1" fill-rule="nonzero"/><path fill="#2c2c2c" d="M 270.480469 683.445312 C 266.871094 683.597656 263.246094 683.917969 259.71875 684.660156 C 264.378906 685.65625 269.15625 685.929688 273.914062 686.027344 C 298.785156 685.507812 323.664062 685.355469 348.535156 685.851562 C 352.160156 685.789062 355.769531 685.441406 359.351562 684.890625 C 357.824219 684.640625 356.261719 684.453125 354.71875 684.277344 C 345.027344 683.351562 335.277344 684.242188 325.566406 684.078125 C 307.199219 684.300781 288.835938 683.375 270.480469 683.445312 " fill-opacity="1" fill-rule="nonzero"/><path fill="#2c2c2c" d="M 287.492188 689.917969 C 284.375 690.050781 281.269531 690.40625 278.210938 691.023438 C 280.878906 691.582031 283.621094 691.929688 286.351562 692.097656 C 300.625 692.546875 314.925781 691.957031 329.210938 692.03125 C 341.085938 691.855469 353.023438 693.097656 364.824219 691.226562 C 356.554688 689.902344 348.148438 689.949219 339.796875 690.246094 C 322.363281 690.417969 304.921875 689.71875 287.492188 689.917969 " fill-opacity="1" fill-rule="nonzero"/><path fill="#2c2c2c" d="M 279.296875 684.890625 C 278.625 688.214844 278.371094 691.613281 278.3125 695.003906 C 278.316406 694.90625 278.320312 694.816406 278.324219 694.722656 C 278.285156 695.804688 278.261719 696.878906 278.257812 697.957031 C 278.257812 697.953125 278.257812 697.949219 278.257812 697.941406 C 278.171875 708.238281 278.214844 718.539062 278.316406 728.832031 C 278.546875 733.46875 278.925781 738.113281 279.800781 742.675781 C 280.167969 740.757812 280.363281 738.785156 280.574219 736.835938 C 281.445312 728.164062 280.867188 719.453125 280.804688 710.757812 C 280.59375 702.140625 281.023438 693.375 279.296875 684.890625 " fill-opacity="1" fill-rule="nonzero"/><path fill="#2c2c2c" d="M 284.066406 741.699219 C 282.582031 741.789062 281.109375 741.976562 279.640625 742.1875 C 282.175781 742.859375 284.785156 743.320312 287.40625 743.59375 C 295.449219 744.441406 303.558594 744.148438 311.625 744.574219 C 321.03125 744.9375 330.4375 745.25 339.828125 745.921875 C 345.605469 746.46875 351.410156 746.960938 357.222656 746.675781 C 358.703125 746.605469 360.1875 746.566406 361.664062 746.433594 C 359.148438 745.957031 356.574219 745.628906 354.023438 745.324219 C 343.339844 744.367188 332.582031 744.714844 321.882812 743.773438 C 309.269531 743.296875 296.695312 741.292969 284.066406 741.699219 " fill-opacity="1" fill-rule="nonzero"/><path fill="#2c2c2c" d="M 256.402344 747.050781 C 251.96875 747.152344 247.519531 747.417969 243.175781 748.359375 C 246.914062 749.15625 250.765625 749.433594 254.585938 749.539062 C 283.851562 749.050781 313.117188 748.742188 342.390625 748.855469 C 349.035156 748.941406 355.6875 748.65625 362.296875 747.925781 C 360.382812 747.714844 358.4375 747.554688 356.503906 747.441406 C 343.066406 746.738281 329.589844 747.320312 316.140625 747.320312 C 296.226562 747.578125 276.3125 747.238281 256.402344 747.050781 " fill-opacity="1" fill-rule="nonzero"/><path fill="#2c2c2c" d="M 263.226562 751.53125 C 259 751.628906 254.765625 751.890625 250.632812 752.808594 C 255.972656 753.941406 261.480469 754.066406 266.925781 754.003906 C 295.316406 752.917969 323.726562 753.5625 352.125 753.28125 C 356.3125 753.117188 360.507812 752.933594 364.664062 752.394531 C 355.507812 751.28125 346.242188 751.605469 337.035156 751.671875 C 331.453125 751.683594 325.871094 751.675781 320.292969 751.695312 C 301.269531 752.222656 282.25 751.726562 263.226562 751.53125 " fill-opacity="1" fill-rule="nonzero"/><path fill="#2c2c2c" d="M 337.519531 767.015625 C 334.757812 767.148438 332.023438 767.667969 329.347656 768.3125 C 335.800781 769.941406 342.503906 769.851562 349.085938 769.253906 C 351.839844 769.003906 354.621094 768.765625 357.320312 768.203125 C 350.800781 767.109375 344.121094 766.652344 337.519531 767.015625 " fill-opacity="1" fill-rule="nonzero"/><path fill="#2c2c2c" d="M 335.097656 754.976562 C 331.246094 755.097656 327.371094 755.394531 323.613281 756.226562 C 332.359375 757.96875 341.355469 757.425781 350.210938 757.058594 C 353.964844 756.816406 357.726562 756.597656 361.457031 756.085938 C 360.429688 755.921875 359.363281 755.839844 358.3125 755.742188 C 350.597656 755.066406 342.84375 754.808594 335.097656 754.976562 " fill-opacity="1" fill-rule="nonzero"/><path fill="#2c2c2c" d="M 278.015625 757.039062 C 273.96875 757.203125 269.882812 757.492188 265.921875 758.367188 C 270.21875 759.257812 274.613281 759.527344 278.992188 759.628906 C 285.398438 759.667969 291.796875 759.355469 298.203125 759.347656 C 304.222656 759.246094 310.261719 759.042969 316.226562 758.179688 C 315.230469 758.007812 314.195312 757.914062 313.183594 757.816406 C 301.5 756.835938 289.734375 757.066406 278.015625 757.039062 " fill-opacity="1" fill-rule="nonzero"/><path fill="#2c2c2c" d="M 276.378906 736.25 C 265.441406 738.535156 254.738281 742.125 244.558594 746.71875 C 246.65625 746.433594 248.753906 745.964844 250.832031 745.53125 C 257.757812 744.078125 264.550781 742.078125 271.242188 739.78125 C 274.519531 738.660156 277.742188 737.347656 280.777344 735.664062 C 279.3125 735.804688 277.835938 735.992188 276.378906 736.25 " fill-opacity="1" fill-rule="nonzero"/><path fill="#2c2c2c" d="M 259.710938 752.855469 C 258.246094 761.484375 258.914062 770.277344 259.210938 778.972656 C 259.472656 786.964844 259.699219 794.980469 260.972656 802.894531 C 261.324219 805.425781 261.382812 802.289062 261.511719 801.375 C 262.398438 789.914062 261.695312 778.402344 261.429688 766.929688 C 261.433594 766.960938 261.433594 766.992188 261.433594 767.023438 C 261.195312 762.273438 260.820312 757.484375 259.710938 752.855469 " fill-opacity="1" fill-rule="nonzero"/><path fill="#2c2c2c" d="M 268.285156 757.886719 C 267.164062 764.429688 267.289062 771.117188 267.46875 777.734375 C 267.746094 786.253906 267.964844 794.851562 269.613281 803.230469 C 270.765625 794.636719 270.488281 785.941406 270.253906 777.300781 C 270.039062 770.804688 269.765625 764.226562 268.285156 757.886719 " fill-opacity="1" fill-rule="nonzero"/><path fill="#2c2c2c" d="M 285.6875 763.804688 C 284.609375 770.246094 284.679688 776.824219 284.929688 783.332031 C 285.230469 790.507812 285.558594 797.738281 286.890625 804.796875 C 287.703125 798.414062 287.726562 791.953125 287.625 785.527344 C 287.523438 778.265625 287.308594 770.90625 285.6875 763.804688 " fill-opacity="1" fill-rule="nonzero"/><path fill="#2c2c2c" d="M 292.441406 765.039062 C 291.1875 771.464844 291.246094 778.042969 291.34375 784.558594 C 291.441406 792.0625 291.585938 799.636719 292.902344 807.035156 C 293.898438 800.632812 294.035156 794.121094 293.984375 787.65625 C 293.921875 780.105469 294.058594 772.449219 292.441406 765.039062 " fill-opacity="1" fill-rule="nonzero"/><path fill="#2c2c2c" d="M 303.703125 767 C 301.738281 778.621094 302.34375 790.644531 304.082031 802.257812 C 305.585938 790.625 305.910156 778.558594 303.703125 767 " fill-opacity="1" fill-rule="nonzero"/><path fill="#2c2c2c" d="M 308.773438 768.550781 C 306.804688 780.496094 307.128906 792.898438 309.171875 804.804688 C 310.480469 796.984375 310.625 789.015625 310.246094 781.109375 C 310.25 781.226562 310.257812 781.339844 310.261719 781.453125 C 310.046875 777.132812 309.730469 772.773438 308.773438 768.550781 " fill-opacity="1" fill-rule="nonzero"/><path fill="#2c2c2c" d="M 317.269531 754.078125 C 315.621094 762.683594 316.179688 771.503906 316.296875 780.214844 C 316.480469 788.484375 316.367188 796.824219 317.820312 805 C 319.171875 796.367188 318.78125 787.574219 318.808594 778.859375 C 318.757812 770.597656 319.015625 762.195312 317.269531 754.078125 " fill-opacity="1" fill-rule="nonzero"/><path fill="#2c2c2c" d="M 328.953125 768.414062 C 326.988281 779.578125 327.527344 791.164062 329.324219 802.3125 C 330.871094 791.121094 331.160156 779.527344 328.953125 768.414062 " fill-opacity="1" fill-rule="nonzero"/><path fill="#2c2c2c" d="M 499.625 693.929688 C 499.425781 694.144531 499.351562 694.40625 499.34375 694.695312 C 499.316406 696.628906 499.289062 698.558594 499.261719 700.492188 C 499.238281 705.289062 499.175781 710.101562 499.648438 714.878906 C 499.757812 715.8125 499.921875 716.738281 500.085938 717.660156 C 500.5 715.847656 500.765625 713.984375 500.90625 712.121094 C 501.3125 706.667969 501.402344 701.195312 501.460938 695.726562 C 508.734375 695.824219 516.0625 695.96875 523.277344 694.96875 C 518.136719 694.089844 512.921875 693.890625 507.71875 693.703125 C 506.296875 693.628906 504.875 693.648438 503.457031 693.628906 C 502.273438 693.777344 500.585938 693.191406 499.625 693.929688 " fill-opacity="1" fill-rule="nonzero"/><path fill="#2c2c2c" d="M 523.625 720.550781 C 523.625 720.554688 523.625 720.558594 523.625 720.566406 C 523.628906 720.53125 523.632812 720.496094 523.632812 720.457031 C 523.632812 720.488281 523.628906 720.519531 523.625 720.550781 Z M 523.207031 699.742188 C 521.617188 706.136719 521.886719 712.832031 522.132812 719.363281 C 522.65625 725 522.699219 729.269531 523.644531 720.375 C 523.640625 720.402344 523.636719 720.429688 523.632812 720.457031 C 524.144531 713.585938 524.695312 706.519531 523.207031 699.742188 " fill-opacity="1" fill-rule="nonzero"/><path fill="#2c2c2c" d="M 511.589844 696.386719 C 510.503906 700.660156 510.414062 705.09375 510.382812 709.480469 C 510.496094 715.035156 510.425781 720.640625 511.171875 726.148438 C 511.898438 721.914062 512.027344 717.609375 512.257812 713.324219 C 512.515625 707.683594 512.808594 701.929688 511.589844 696.386719 " fill-opacity="1" fill-rule="nonzero"/><path fill="#2c2c2c" d="M 475.140625 740.929688 C 474.617188 744.324219 475.089844 747.941406 475.070312 751.40625 C 475.148438 755.78125 475.015625 760.164062 475.296875 764.535156 C 475.363281 772.042969 475.113281 779.664062 476.636719 787.054688 C 477.742188 780.023438 477.351562 772.8125 477.03125 765.722656 C 476.90625 757.800781 476.707031 749.871094 476.347656 741.957031 C 478.578125 741.710938 480.851562 741.558594 483.0625 741.195312 C 480.582031 740.925781 478.082031 740.851562 475.589844 740.703125 C 475.425781 740.695312 475.242188 740.816406 475.140625 740.929688 " fill-opacity="1" fill-rule="nonzero"/><path fill="#2c2c2c" d="M 487.734375 740.363281 C 487.15625 743.152344 487.851562 746.207031 487.804688 749.074219 C 487.695312 757.386719 488.527344 765.667969 488.476562 773.980469 C 488.648438 781.351562 488.023438 788.867188 489.5625 796.117188 C 490.917969 787.402344 489.601562 778.535156 489.535156 769.765625 C 489.492188 760.390625 489.398438 751.019531 489.199219 741.648438 C 492.609375 741.390625 496.066406 741.261719 499.425781 740.652344 C 496.785156 740.3125 494.109375 740.210938 491.449219 740.167969 C 490.394531 740.300781 488.535156 739.726562 487.734375 740.363281 " fill-opacity="1" fill-rule="nonzero"/><path fill="#2c2c2c" d="M 499.707031 746.304688 C 498.628906 752.25 499.152344 758.3125 499.289062 764.308594 C 499.53125 773.550781 499.402344 782.886719 500.710938 792.046875 C 501.574219 783.398438 501.085938 774.664062 500.960938 765.988281 C 500.722656 759.425781 501.183594 752.746094 499.707031 746.304688 " fill-opacity="1" fill-rule="nonzero"/><path fill="#2c2c2c" d="M 486.117188 748.230469 C 484.691406 756.945312 485.941406 765.808594 485.863281 774.585938 C 485.871094 782.492188 485.9375 790.449219 487.210938 798.277344 C 488.246094 789.734375 487.761719 781.09375 487.46875 772.511719 C 487.109375 764.425781 487.839844 756.1875 486.117188 748.230469 " fill-opacity="1" fill-rule="nonzero"/><path fill="#2c2c2c" d="M 522.257812 755.109375 C 501.527344 755.441406 497.757812 756.359375 521.492188 756.734375 C 521.660156 765.566406 521.042969 774.488281 522.351562 783.257812 C 522.355469 783.257812 522.359375 783.257812 522.359375 783.257812 C 523.4375 776.253906 523.066406 769.121094 523.128906 762.058594 C 523.125 759.996094 523.121094 757.9375 523.117188 755.875 C 523.109375 755.4375 522.6875 755.085938 522.257812 755.109375 " fill-opacity="1" fill-rule="nonzero"/><path fill="#2c2c2c" d="M 507.480469 781.972656 C 495.914062 783.054688 511.8125 783.996094 515.03125 783.597656 C 517.242188 783.441406 519.460938 783.214844 521.625 782.722656 C 520.96875 782.558594 520.28125 782.457031 519.609375 782.347656 C 515.601562 781.746094 511.519531 781.628906 507.480469 781.972656 " fill-opacity="1" fill-rule="nonzero"/><path fill="#2c2c2c" d="M 511.097656 756.863281 C 510.144531 760.476562 510.167969 764.257812 510.234375 767.964844 C 510.453125 771.613281 510.472656 775.296875 511.136719 778.894531 C 511.699219 775.933594 511.753906 772.882812 511.917969 769.871094 C 512.089844 765.539062 512.222656 761.082031 511.097656 756.863281 " fill-opacity="1" fill-rule="nonzero"/><path fill="#2c2c2c" d="M 363.832031 741.636719 C 363.054688 744.96875 363.515625 748.640625 363.484375 752.082031 C 363.59375 758.144531 363.628906 764.210938 363.910156 770.269531 C 364.144531 778.585938 363.617188 786.988281 365.15625 795.207031 C 365.8125 799.25 365.707031 796.046875 366.097656 794.167969 C 366.632812 789.769531 366.617188 785.320312 366.449219 780.898438 C 365.75 768.195312 366.242188 755.421875 365.125 742.746094 C 366.433594 742.480469 368.796875 742.351562 369.578125 741.992188 C 368.644531 741.808594 367.691406 741.796875 366.746094 741.664062 C 365.808594 741.699219 364.664062 741.144531 363.832031 741.636719 " fill-opacity="1" fill-rule="nonzero"/><path fill="#2c2c2c" d="M 376.863281 742.269531 C 376.707031 751.160156 377.402344 760.050781 377.292969 768.949219 C 377.621094 778.832031 376.941406 788.894531 379.101562 798.609375 C 380.667969 789.921875 379.789062 781.070312 379.648438 772.308594 C 379.160156 762.578125 379.234375 752.824219 378.804688 743.101562 C 381.425781 742.769531 384.097656 742.675781 386.667969 742.0625 C 384.53125 741.65625 382.367188 741.613281 380.203125 741.480469 C 379.132812 741.578125 377.0625 740.675781 376.863281 742.269531 " fill-opacity="1" fill-rule="nonzero"/><path fill="#2c2c2c" d="M 359.597656 798.9375 C 359.628906 804.539062 359.582031 810.183594 360.550781 815.722656 C 361.742188 810.71875 362.015625 805.535156 362.347656 800.410156 C 372.925781 800.429688 383.503906 800.40625 394.082031 800.632812 C 402.140625 800.765625 410.246094 801.203125 418.28125 800.523438 C 405.140625 798.917969 391.84375 799.277344 378.636719 798.46875 C 374.203125 798.238281 369.769531 797.960938 365.335938 797.75 C 363.714844 797.925781 359.757812 796.566406 359.597656 798.9375 " fill-opacity="1" fill-rule="nonzero"/><path fill="#2c2c2c" d="M 460.296875 741.230469 C 441.132812 742.195312 421.933594 741.441406 402.769531 741.992188 C 399.769531 742.199219 396.777344 742.554688 393.835938 743.199219 C 396.390625 743.6875 399 743.964844 401.601562 744.085938 C 420.472656 744.351562 439.351562 742.855469 458.234375 743.257812 C 464.3125 743.347656 470.433594 743.082031 476.421875 742.027344 C 471.085938 741.25 465.679688 741.117188 460.296875 741.230469 " fill-opacity="1" fill-rule="nonzero"/><path fill="#2c2c2c" d="M 496.476562 798.105469 C 479.164062 798.367188 461.855469 798.855469 444.542969 798.402344 C 438.765625 798.210938 433.027344 799.035156 427.402344 800.277344 C 429.992188 800.738281 432.625 801.101562 435.25 801.375 C 440.585938 801.96875 445.953125 801.328125 451.292969 801.109375 C 464.609375 800.417969 477.9375 800.105469 491.269531 799.902344 C 496.929688 799.761719 502.636719 799.582031 508.226562 798.707031 C 504.332031 798.238281 500.394531 798.164062 496.476562 798.105469 " fill-opacity="1" fill-rule="nonzero"/><path fill="#2c2c2c" d="M 523.289062 796.035156 C 517.789062 796.273438 512.304688 796.894531 506.859375 797.695312 C 515.65625 798.59375 524.652344 799.40625 533.421875 797.800781 C 534.4375 797.609375 535.464844 797.371094 536.464844 797.121094 C 532.140625 796.199219 527.707031 795.90625 523.289062 796.035156 " fill-opacity="1" fill-rule="nonzero"/><path fill="#2c2c2c" d="M 531.742188 810.609375 C 516.769531 811.394531 501.78125 811.851562 486.792969 812.285156 C 483.109375 812.453125 479.414062 812.582031 475.757812 813.085938 C 478 813.332031 480.273438 813.367188 482.53125 813.421875 C 497.382812 813.535156 512.238281 813.039062 527.089844 813.367188 C 533.207031 813.554688 539.347656 813.132812 545.3125 811.734375 C 540.851562 810.886719 536.289062 810.5 531.742188 810.609375 " fill-opacity="1" fill-rule="nonzero"/><path fill="#2c2c2c" d="M 429.957031 805.992188 C 425.539062 806.128906 421.117188 806.589844 416.816406 807.605469 C 425.476562 809.332031 434.339844 808.605469 443.089844 808.191406 C 447.566406 807.925781 452.058594 807.535156 456.476562 806.832031 C 447.679688 805.824219 438.796875 805.878906 429.957031 805.992188 " fill-opacity="1" fill-rule="nonzero"/><path fill="#2c2c2c" d="M 424.675781 810.921875 C 420.882812 811.125 417.09375 811.585938 413.398438 812.445312 C 417.683594 813.257812 422.046875 813.566406 426.410156 813.542969 C 432.75 813.464844 439.082031 813.027344 445.417969 812.84375 C 451.15625 812.578125 456.898438 812.195312 462.601562 811.488281 C 461.539062 811.367188 460.449219 811.3125 459.375 811.238281 C 447.824219 810.644531 436.234375 810.640625 424.675781 810.921875 " fill-opacity="1" fill-rule="nonzero"/><path fill="#2c2c2c" d="M 451.660156 814.976562 C 447.722656 815.035156 443.746094 815.40625 439.957031 816.496094 C 443.746094 817.402344 447.664062 817.679688 451.550781 817.558594 C 455.640625 817.351562 459.75 816.835938 463.753906 816.03125 C 459.757812 815.398438 455.707031 815.023438 451.660156 814.976562 " fill-opacity="1" fill-rule="nonzero"/><path fill="#2c2c2c" d="M 452.453125 823.980469 C 437.890625 824.660156 423.078125 822.859375 408.71875 825.910156 C 415.207031 827.132812 421.878906 827.230469 428.464844 826.921875 C 443.023438 826.015625 457.726562 826.796875 472.179688 824.679688 C 465.636719 823.933594 459.03125 823.785156 452.453125 823.980469 " fill-opacity="1" fill-rule="nonzero"/><g clip-path="url(#d8141e8b1e)"><path fill="#2c2c2c" d="M 467.273438 834.289062 C 450.816406 834.730469 434.308594 834.039062 417.878906 835.066406 C 415.464844 835.304688 413.078125 835.714844 410.714844 836.25 C 412.90625 836.664062 415.140625 836.964844 417.375 837.125 C 428.945312 837.671875 440.539062 836.59375 452.121094 836.46875 C 461.773438 836 471.5 836.296875 481.082031 834.882812 C 476.519531 834.324219 471.878906 834.332031 467.273438 834.289062 " fill-opacity="1" fill-rule="nonzero"/></g><path fill="#2c2c2c" d="M 401.265625 698.046875 C 399.59375 698.175781 397.933594 698.488281 396.355469 699.011719 C 398.429688 699.597656 400.609375 699.890625 402.765625 699.828125 C 404.949219 699.730469 407.152344 699.378906 409.25 698.785156 C 406.644531 698.183594 403.9375 697.824219 401.265625 698.046875 " fill-opacity="1" fill-rule="nonzero"/><path fill="#2c2c2c" d="M 445.253906 697.460938 C 444.242188 697.621094 443.234375 697.886719 442.269531 698.210938 C 444.203125 698.761719 446.214844 699.074219 448.230469 698.976562 C 450.191406 698.882812 452.164062 698.578125 454.039062 698 C 451.183594 697.273438 448.175781 696.992188 445.253906 697.460938 " fill-opacity="1" fill-rule="nonzero"/><path fill="#2c2c2c" d="M 396.816406 746.335938 C 396.550781 746.566406 396.355469 746.921875 396.34375 747.277344 C 396.28125 750.039062 396.316406 752.800781 396.375 755.554688 C 396.414062 762.109375 396.433594 768.671875 397.15625 775.195312 C 397.351562 777.101562 397.640625 779.011719 398.050781 780.875 C 398.894531 776.628906 399.0625 772.292969 399.253906 767.980469 C 399.375 761.539062 399.222656 755.097656 399.144531 748.660156 C 400.6875 748.554688 402.226562 748.425781 403.769531 748.289062 C 403.679688 748.296875 403.59375 748.300781 403.503906 748.304688 C 406.195312 748.128906 408.898438 747.757812 411.539062 747.242188 C 408.195312 746.636719 404.808594 746.378906 401.421875 746.1875 C 399.925781 746.265625 398.164062 745.585938 396.816406 746.335938 " fill-opacity="1" fill-rule="nonzero"/><path fill="#2c2c2c" d="M 435.300781 752.898438 C 435.21875 759.445312 435.285156 765.996094 435.175781 772.539062 C 435.203125 778.585938 435.140625 784.71875 436.160156 790.691406 C 437.28125 784.371094 437.28125 777.847656 437.296875 771.429688 C 437.273438 765.609375 437.378906 759.785156 437.355469 753.964844 C 443.648438 754.015625 449.953125 753.675781 456.214844 753.019531 C 451.328125 752.4375 446.375 752.125 441.445312 751.949219 C 439.75 751.902344 438.054688 751.910156 436.363281 751.902344 C 435.8125 751.898438 435.300781 752.324219 435.300781 752.898438 " fill-opacity="1" fill-rule="nonzero"/><path fill="#2c2c2c" d="M 456.210938 753.246094 C 454.472656 761.1875 454.855469 769.550781 456.109375 777.535156 C 457.332031 770.890625 457.527344 764.070312 456.917969 757.347656 C 456.921875 757.371094 456.925781 757.398438 456.925781 757.429688 C 456.796875 756.019531 456.570312 754.605469 456.210938 753.246094 " fill-opacity="1" fill-rule="nonzero"/><path fill="#2c2c2c" d="M 455.636719 786.847656 C 454.972656 789.636719 454.78125 792.503906 454.527344 795.351562 C 448.246094 795.140625 441.941406 796.050781 435.710938 796.78125 C 437.316406 797.054688 438.964844 797.234375 440.589844 797.429688 C 444.03125 797.8125 447.480469 798.175781 450.9375 798.386719 C 452.582031 798.433594 454.300781 798.617188 455.886719 798.066406 C 456.699219 797.875 456.964844 797.015625 456.746094 796.277344 C 456.621094 794.554688 456.484375 792.828125 456.304688 791.109375 C 456.3125 791.171875 456.320312 791.234375 456.328125 791.296875 C 456.195312 789.800781 455.976562 788.300781 455.636719 786.847656 " fill-opacity="1" fill-rule="nonzero"/><path fill="#2c2c2c" d="M 432.746094 744.027344 C 430.664062 754.984375 432.351562 766.222656 432.074219 777.292969 C 432.070312 781.804688 431.738281 786.304688 431.542969 790.808594 C 431.777344 792.96875 432.195312 795.101562 432.511719 797.25 C 432.828125 794.992188 433.429688 792.722656 433.53125 790.4375 C 433.347656 785.847656 433.085938 781.253906 433.132812 776.65625 C 432.996094 765.800781 434.710938 754.777344 432.746094 744.027344 " fill-opacity="1" fill-rule="nonzero"/><path fill="#2c2c2c" d="M 460.191406 742.648438 C 459.039062 747.921875 459.011719 753.382812 459.0625 758.765625 C 459.289062 763.351562 459.15625 767.988281 460.0625 772.507812 C 460.964844 768.378906 460.886719 764.101562 461.144531 759.890625 C 461.296875 754.148438 461.367188 748.289062 460.191406 742.648438 " fill-opacity="1" fill-rule="nonzero"/><path fill="#2c2c2c" d="M 414.488281 746.070312 C 412.953125 753.640625 413.65625 761.433594 413.734375 769.101562 C 413.902344 775.332031 412.992188 781.625 414.308594 787.769531 C 415.707031 781.53125 414.796875 775.09375 415.058594 768.75 C 415.210938 761.207031 415.949219 753.523438 414.488281 746.070312 " fill-opacity="1" fill-rule="nonzero"/><path fill="#2c2c2c" d="M 387.277344 746.238281 C 386.007812 752.800781 386.273438 759.527344 386.503906 766.167969 C 386.832031 776.472656 386.371094 786.855469 387.820312 797.085938 C 388.953125 787.363281 388.445312 777.5625 388.453125 767.800781 C 388.511719 760.609375 388.820312 753.304688 387.277344 746.238281 " fill-opacity="1" fill-rule="nonzero"/><path fill="#2c2c2c" d="M 374.226562 744.75 C 372.960938 751.222656 373.230469 757.859375 373.230469 764.417969 C 373.441406 773.011719 373.601562 781.671875 374.710938 790.1875 C 375.632812 781.558594 375.617188 772.835938 375.640625 764.164062 C 375.5 757.683594 375.625 751.101562 374.226562 744.75 " fill-opacity="1" fill-rule="nonzero"/><path fill="#2c2c2c" d="M 295.726562 696.109375 C 295.210938 696.183594 294.734375 696.648438 294.707031 697.175781 C 294.707031 698.878906 294.703125 700.582031 294.699219 702.28125 C 294.628906 706.527344 294.714844 710.769531 294.992188 715.003906 C 295.144531 717.546875 295.386719 720.082031 295.894531 722.582031 C 296.320312 720.539062 296.558594 718.441406 296.714844 716.355469 C 297.226562 710.421875 297.140625 704.46875 297.128906 698.523438 C 304.527344 698.5625 311.972656 698.441406 319.289062 697.332031 C 311.496094 696.148438 303.59375 696.050781 295.726562 696.109375 " fill-opacity="1" fill-rule="nonzero"/><path fill="#2c2c2c" d="M 318.957031 705.445312 C 317.566406 712.5625 317.945312 719.875 317.867188 727.085938 C 311.542969 726.660156 305.1875 727.367188 298.925781 728.136719 C 305.523438 729.015625 312.167969 729.585938 318.820312 729.21875 C 319.386719 729.273438 319.972656 728.859375 320.007812 728.273438 C 320.027344 724.691406 320.0625 721.117188 319.964844 717.539062 C 319.882812 713.496094 319.820312 709.410156 318.957031 705.445312 " fill-opacity="1" fill-rule="nonzero"/><path fill="#2c2c2c" d="M 308.644531 697.742188 C 306.722656 707.671875 307.371094 718.050781 308.617188 728.023438 C 309.492188 722.347656 309.742188 716.574219 309.78125 710.839844 C 309.695312 706.460938 309.671875 702.015625 308.644531 697.742188 " fill-opacity="1" fill-rule="nonzero"/><path fill="#2c2c2c" d="M 300.460938 711.667969 C 299.582031 711.785156 298.707031 712 297.867188 712.269531 C 300.367188 713.101562 303.042969 713.179688 305.636719 712.789062 C 306.472656 712.675781 307.324219 712.503906 308.132812 712.273438 C 305.648438 711.617188 303.019531 711.324219 300.460938 711.667969 " fill-opacity="1" fill-rule="nonzero"/><path fill="#2c2c2c" d="M 335.230469 697.222656 C 334.714844 698.34375 335.132812 699.742188 335.007812 700.960938 C 334.984375 703.855469 335.070312 706.746094 335.117188 709.640625 C 335.101562 713.34375 335.101562 717.058594 335.464844 720.753906 C 335.589844 721.988281 335.789062 723.210938 336.027344 724.429688 C 336.445312 722.453125 336.679688 720.421875 336.800781 718.398438 C 337.078125 711.921875 337.066406 705.429688 337.128906 698.949219 C 343.328125 698.894531 349.574219 698.566406 355.726562 697.914062 C 351.769531 697.328125 347.75 697.367188 343.765625 697.023438 C 341.164062 696.777344 338.542969 696.832031 335.933594 696.820312 C 335.671875 696.820312 335.382812 697.027344 335.230469 697.222656 " fill-opacity="1" fill-rule="nonzero"/><path fill="#2c2c2c" d="M 358.316406 697.917969 C 357.425781 701.5625 357.335938 705.335938 357.257812 709.070312 C 357.140625 714.410156 357.285156 719.8125 358.277344 725.070312 C 359.308594 719.789062 359.441406 714.328125 359.347656 708.949219 C 359.277344 705.261719 359.203125 701.511719 358.316406 697.917969 " fill-opacity="1" fill-rule="nonzero"/><path fill="#2c2c2c" d="M 337.183594 726.496094 C 335.96875 726.625 334.789062 726.890625 333.613281 727.234375 C 334.148438 727.394531 334.703125 727.535156 335.25 727.667969 C 338.394531 728.296875 341.664062 728.351562 344.835938 727.886719 C 345.941406 727.722656 347.070312 727.554688 348.136719 727.253906 C 344.570312 726.355469 340.839844 726.0625 337.183594 726.496094 " fill-opacity="1" fill-rule="nonzero"/><path fill="#2c2c2c" d="M 347.191406 698.871094 C 345.953125 703.691406 346.164062 708.699219 346.074219 713.636719 C 346.074219 713.625 346.074219 713.617188 346.074219 713.609375 C 346.019531 717.574219 346.25 721.578125 347.152344 725.441406 C 348.179688 721.09375 348.347656 716.605469 348.242188 712.15625 C 348.230469 707.714844 348.296875 703.199219 347.191406 698.871094 " fill-opacity="1" fill-rule="nonzero"/><path fill="#2c2c2c" d="M 337.488281 712.378906 C 340.382812 713.363281 343.542969 713.125 346.476562 712.394531 C 343.554688 711.636719 340.398438 711.417969 337.488281 712.378906 " fill-opacity="1" fill-rule="nonzero"/><path fill="#2c2c2c" d="M 367.617188 667.871094 C 365.785156 676.554688 366.355469 685.476562 366.300781 694.292969 C 366.398438 704.039062 365.898438 713.863281 367.304688 723.535156 C 368.945312 712.671875 368.410156 701.652344 368.683594 690.707031 C 368.800781 683.089844 369.140625 675.378906 367.617188 667.871094 " fill-opacity="1" fill-rule="nonzero"/><path fill="#2c2c2c" d="M 362.5 661.964844 C 363.117188 663.527344 364.308594 664.886719 364.546875 666.578125 C 362.488281 670.75 364.96875 671.40625 368.265625 672.9375 C 367.65625 671.640625 366.039062 670.941406 365.695312 669.523438 C 365.710938 668.378906 366.746094 667.414062 366.371094 666.222656 C 365.878906 664.25 364.121094 662.988281 362.5 661.964844 " fill-opacity="1" fill-rule="nonzero"/><path fill="#2c2c2c" d="M 361.78125 681.621094 C 360.675781 681.652344 359.539062 681.78125 358.519531 682.226562 C 357.421875 682.746094 357.171875 682.800781 358.5625 682.855469 C 360.992188 683.136719 363.484375 682.949219 365.703125 681.839844 C 364.410156 681.703125 363.089844 681.621094 361.78125 681.621094 " fill-opacity="1" fill-rule="nonzero"/><path fill="#2c2c2c" d="M 347.257812 658.910156 C 347.496094 667.613281 351.652344 675.578125 356.175781 682.808594 C 353.882812 674.644531 351.519531 666.304688 347.257812 658.910156 " fill-opacity="1" fill-rule="nonzero"/><path fill="#2c2c2c" d="M 357.417969 682.480469 C 359.21875 684.035156 361.054688 685.683594 363.460938 686.175781 C 364.597656 686.492188 365.761719 686.777344 366.863281 687.183594 C 365.84375 686.039062 364.496094 685.246094 363.164062 684.523438 C 363.179688 684.535156 363.199219 684.546875 363.21875 684.554688 C 361.390625 683.613281 359.496094 682.648438 357.417969 682.480469 " fill-opacity="1" fill-rule="nonzero"/><path fill="#2c2c2c" d="M 383.820312 619.269531 C 383.820312 619.277344 383.824219 619.289062 383.828125 619.296875 C 383.824219 619.289062 383.820312 619.277344 383.820312 619.269531 Z M 383.632812 618.210938 C 381.816406 623.175781 383.558594 628.488281 384.238281 633.503906 C 384.984375 630.667969 384.941406 627.636719 384.878906 624.71875 C 384.820312 622.488281 384.007812 620.378906 383.632812 618.210938 " fill-opacity="1" fill-rule="nonzero"/><path fill="#2c2c2c" d="M 390.394531 616.851562 C 387.453125 616.949219 384.539062 617.339844 381.601562 617.449219 C 385.8125 619.554688 390.75 619.414062 395.335938 619.023438 C 397.855469 618.757812 400.371094 618.46875 402.898438 618.273438 C 403.84375 618.179688 407.347656 618.027344 404.898438 617.882812 C 400.085938 617.300781 395.253906 616.652344 390.394531 616.851562 " fill-opacity="1" fill-rule="nonzero"/><path fill="#2c2c2c" d="M 390.101562 613.542969 C 390.09375 613.558594 390.089844 613.570312 390.082031 613.582031 C 390.089844 613.570312 390.09375 613.558594 390.101562 613.542969 Z M 392.699219 612.464844 C 392.699219 612.472656 392.699219 612.480469 392.699219 612.488281 C 392.699219 612.480469 392.699219 612.472656 392.699219 612.464844 Z M 391.628906 611.257812 C 390.207031 611.175781 387.417969 612.4375 388.875 614.09375 C 391.328125 615.136719 390.605469 614.167969 391.363281 617.011719 C 391.871094 615.734375 392.335938 613.726562 390.660156 613.121094 C 391.285156 612.785156 391.957031 612.421875 392.691406 612.464844 C 392.613281 612.953125 392.417969 613.429688 392.277344 613.894531 C 394.027344 612.609375 394.085938 611.25 391.628906 611.257812 " fill-opacity="1" fill-rule="nonzero"/><path fill="#2c2c2c" d="M 395.59375 614.484375 C 395.597656 614.492188 395.597656 614.503906 395.601562 614.511719 C 395.597656 614.503906 395.597656 614.492188 395.59375 614.484375 Z M 395.679688 613.125 C 395.664062 613.152344 395.652344 613.179688 395.632812 613.207031 C 395.648438 613.175781 395.664062 613.152344 395.679688 613.125 Z M 399.210938 612.683594 C 399.214844 612.683594 399.21875 612.683594 399.222656 612.6875 C 399.21875 612.683594 399.214844 612.683594 399.210938 612.683594 Z M 395.820312 610.90625 C 393.855469 611.085938 392.796875 613.4375 395.164062 614.035156 C 396.035156 614.589844 395.277344 615.953125 395.921875 616.753906 C 396.691406 617.789062 396.757812 618.027344 396.511719 616.621094 C 396.550781 615.308594 397.664062 613.886719 396.4375 612.78125 C 397.363281 612.515625 398.363281 612.460938 399.296875 612.710938 C 399.148438 613.210938 398.800781 613.632812 398.472656 614.023438 C 398.992188 613.84375 399.523438 613.605469 399.902344 613.1875 C 401.265625 611.355469 397.003906 610.632812 395.820312 610.90625 " fill-opacity="1" fill-rule="nonzero"/><path fill="#2c2c2c" d="M 426.097656 621.140625 C 424.445312 621.160156 422.800781 621.53125 421.234375 622.027344 C 424.785156 623.21875 428.398438 623.128906 432.058594 622.652344 C 432.464844 622.621094 432.886719 622.613281 433.285156 622.578125 C 433.070312 622.488281 432.855469 622.417969 432.636719 622.34375 C 432.644531 622.347656 432.644531 622.347656 432.652344 622.347656 C 430.542969 621.640625 428.328125 621.148438 426.097656 621.140625 " fill-opacity="1" fill-rule="nonzero"/><path fill="#2c2c2c" d="M 426.746094 615.53125 C 424.828125 615.839844 422.917969 616.324219 421.039062 616.796875 C 423.371094 617.644531 425.871094 617.71875 428.316406 617.527344 C 430.628906 617.320312 432.917969 616.503906 435.246094 616.816406 C 432.6875 615.445312 429.589844 615.351562 426.746094 615.53125 " fill-opacity="1" fill-rule="nonzero"/><path fill="#2c2c2c" d="M 426.144531 631.0625 C 423.074219 631.664062 422.710938 631.789062 426.070312 632.25 C 427.960938 632.675781 429.875 632.382812 431.769531 632.167969 C 430.003906 631.460938 428.070312 630.945312 426.144531 631.0625 " fill-opacity="1" fill-rule="nonzero"/><path fill="#2c2c2c" d="M 419.730469 674.589844 C 419.726562 674.597656 419.71875 674.601562 419.710938 674.605469 C 419.71875 674.601562 419.726562 674.597656 419.730469 674.589844 Z M 424.011719 673.308594 C 424.011719 673.3125 424.011719 673.3125 424.015625 673.3125 C 424.011719 673.3125 424.011719 673.3125 424.011719 673.308594 Z M 424 673.308594 C 424 673.308594 424.003906 673.308594 424.011719 673.308594 C 424.003906 673.308594 424 673.308594 424 673.308594 Z M 421.453125 672.917969 C 420.441406 673.242188 419.335938 673.898438 419.179688 675.039062 C 419.496094 674.757812 419.839844 674.484375 420.253906 674.351562 C 421.578125 674.023438 422.808594 673 424.214844 673.34375 C 423.496094 672.59375 422.375 672.628906 421.453125 672.917969 " fill-opacity="1" fill-rule="nonzero"/><path fill="#2c2c2c" d="M 425.125 671.933594 C 424.679688 672.238281 424.417969 672.730469 424.40625 673.261719 C 425.519531 671.917969 427.769531 672.351562 428.964844 673.375 C 428.59375 671.792969 426.453125 670.949219 425.125 671.933594 " fill-opacity="1" fill-rule="nonzero"/><path fill="#2c2c2c" d="M 429.9375 673.785156 C 429.957031 673.789062 429.972656 673.792969 429.992188 673.792969 C 429.972656 673.792969 429.953125 673.789062 429.9375 673.785156 Z M 429.492188 673.203125 C 427.796875 673.84375 429.039062 673.6875 430.015625 673.800781 C 431.074219 674.023438 432.222656 674.253906 433.121094 674.882812 C 432.585938 673.566406 430.863281 672.699219 429.492188 673.203125 " fill-opacity="1" fill-rule="nonzero"/><path fill="#2c2c2c" d="M 440.867188 673.996094 C 440.875 673.996094 440.878906 673.996094 440.886719 673.996094 C 440.878906 673.996094 440.875 673.996094 440.867188 673.996094 Z M 437.03125 673.703125 C 435.636719 673.75 434.265625 674.121094 433 674.6875 C 435.59375 675.234375 438.273438 675.222656 440.851562 674.59375 C 441.34375 674.480469 441.84375 674.335938 442.320312 674.1875 C 440.5625 673.972656 438.808594 673.597656 437.03125 673.703125 " fill-opacity="1" fill-rule="nonzero"/><path fill="#2c2c2c" d="M 256.054688 678.136719 C 256.3125 679.011719 257.027344 679.59375 257.785156 680.042969 C 258.835938 680.859375 260.035156 681.746094 260.636719 682.949219 C 260.621094 683.808594 260.6875 684.675781 261.453125 685.21875 C 260.984375 684.257812 261.792969 683.417969 261.6875 682.457031 C 260.84375 679.441406 258.265625 679.386719 256.054688 678.136719 " fill-opacity="1" fill-rule="nonzero"/><path fill="#2c2c2c" d="M 261.042969 684.988281 C 262.554688 688.382812 265.609375 690.65625 268.445312 692.898438 C 270.28125 694.234375 272.4375 695.015625 274.34375 696.230469 C 275.113281 696.496094 278.972656 699.773438 277.28125 697.699219 C 275.414062 694.976562 272.675781 693.125 270.003906 691.285156 C 267.09375 689.085938 263.980469 687.148438 261.042969 684.988281 " fill-opacity="1" fill-rule="nonzero"/><path fill="#2c2c2c" d="M 269.507812 687.0625 C 272.066406 690.519531 275.683594 692.871094 279.316406 695.039062 C 276.933594 691.441406 273.753906 688.273438 269.507812 687.0625 " fill-opacity="1" fill-rule="nonzero"/><path fill="#2c2c2c" d="M 350.699219 685.082031 C 353.292969 687.613281 356.886719 688.695312 360.242188 689.820312 C 363.226562 690.777344 366.085938 692.140625 369.152344 692.828125 C 360.769531 686.769531 360.765625 686.800781 350.699219 685.082031 " fill-opacity="1" fill-rule="nonzero"/><path fill="#2c2c2c" d="M 370.847656 654.832031 C 370.785156 654.851562 370.714844 654.863281 370.652344 654.878906 C 370.714844 654.863281 370.785156 654.851562 370.847656 654.832031 Z M 373.101562 650.199219 C 371.949219 653.800781 373.5 655.195312 368.679688 654.871094 C 368.707031 654.871094 368.730469 654.875 368.757812 654.875 C 364.886719 654.421875 361.753906 655.71875 359.941406 659.265625 C 363.257812 657.179688 365.171875 657.183594 368.929688 657.523438 C 370.421875 657.554688 371.960938 657.292969 373.195312 656.402344 C 375.066406 654.84375 373.316406 652.152344 373.101562 650.199219 " fill-opacity="1" fill-rule="nonzero"/><path fill="#2c2c2c" d="M 484.441406 653.210938 C 484.445312 653.214844 484.449219 653.222656 484.457031 653.230469 C 484.449219 653.222656 484.445312 653.214844 484.441406 653.210938 Z M 482.480469 648.332031 C 482.824219 650.292969 482.246094 652.230469 482.4375 654.113281 C 483.703125 656.386719 486.910156 656.480469 489.222656 656.789062 C 491.492188 656.957031 493.789062 656.871094 496.046875 657.132812 C 494.765625 656.296875 493.375 655.675781 491.9375 655.171875 C 489.503906 654.210938 486.871094 653.867188 484.394531 653.089844 C 484.203125 651.359375 483.527344 649.714844 482.480469 648.332031 " fill-opacity="1" fill-rule="nonzero"/><path fill="#2c2c2c" d="M 556.800781 684.644531 C 552.332031 686.332031 549.101562 689.609375 546.867188 693.757812 C 550.710938 691.40625 554.367188 688.488281 556.800781 684.644531 " fill-opacity="1" fill-rule="nonzero"/><path fill="#2c2c2c" d="M 500.550781 710.527344 C 499.902344 710.730469 499.253906 711.003906 498.648438 711.292969 C 501.238281 711.71875 503.917969 711.894531 506.492188 711.289062 C 508.394531 710.78125 511.242188 710.851562 507.40625 710.089844 C 505.125 709.65625 502.757812 709.78125 500.550781 710.527344 " fill-opacity="1" fill-rule="nonzero"/><path fill="#2c2c2c" d="M 503.082031 770.859375 C 502.042969 771.035156 501.007812 771.355469 500.023438 771.722656 C 502.359375 772.253906 504.761719 772.667969 507.164062 772.53125 C 508.8125 772.429688 510.480469 772.246094 512.070312 771.804688 C 509.164062 770.933594 506.109375 770.265625 503.082031 770.859375 " fill-opacity="1" fill-rule="nonzero"/><path fill="#2c2c2c" d="M 411.292969 747.816406 C 409.425781 754.378906 409.472656 761.34375 410.007812 768.101562 C 410.402344 772.226562 411.089844 777.167969 411.089844 780.898438 C 411.089844 780.898438 411.089844 780.898438 411.089844 780.902344 C 411.824219 776.402344 411.59375 771.832031 411.976562 767.300781 C 412.59375 760.796875 412.296875 754.253906 411.292969 747.816406 " fill-opacity="1" fill-rule="nonzero"/><path fill="#2c2c2c" d="M 399.398438 779.761719 C 399.390625 779.761719 399.382812 779.757812 399.371094 779.753906 C 399.382812 779.757812 399.390625 779.761719 399.398438 779.761719 Z M 402.128906 779.042969 C 401.4375 779.09375 397.238281 779.214844 399.371094 779.753906 C 399.367188 779.753906 399.363281 779.75 399.355469 779.746094 C 399.375 779.753906 399.398438 779.761719 399.417969 779.773438 C 399.410156 779.769531 399.40625 779.765625 399.398438 779.761719 C 403.0625 781.332031 407.09375 780.953125 410.859375 779.96875 C 407.996094 779.382812 405.0625 779 402.128906 779.042969 " fill-opacity="1" fill-rule="nonzero"/><path fill="#2c2c2c" d="M 405.804688 763.191406 C 403.875 763.324219 401.914062 763.53125 400.089844 764.171875 C 403.15625 765.148438 406.386719 765.402344 409.488281 764.445312 C 410.457031 764.253906 411.453125 764.058594 412.433594 764.035156 C 410.355469 763.195312 408.023438 763.132812 405.804688 763.191406 " fill-opacity="1" fill-rule="nonzero"/><path fill="#2c2c2c" d="M 303.78125 803.683594 C 303.785156 803.695312 303.789062 803.707031 303.792969 803.722656 C 303.789062 803.707031 303.78125 803.695312 303.78125 803.683594 Z M 303.773438 803.644531 C 303.785156 803.65625 303.800781 803.671875 303.816406 803.683594 C 303.800781 803.671875 303.785156 803.660156 303.773438 803.644531 Z M 303.710938 803.570312 C 303.722656 803.582031 303.730469 803.597656 303.742188 803.613281 C 303.730469 803.597656 303.71875 803.582031 303.710938 803.570312 Z M 303.761719 803.566406 C 303.761719 803.582031 303.765625 803.597656 303.765625 803.617188 C 303.765625 803.597656 303.761719 803.582031 303.761719 803.566406 Z M 304.066406 802.054688 C 302.550781 803.191406 302.292969 804.789062 304.527344 805.070312 C 306.082031 805.269531 307.628906 804.835938 309.136719 804.5 C 307.421875 803.859375 305.53125 803.945312 303.773438 803.632812 C 303.777344 803.097656 303.96875 802.570312 304.066406 802.054688 " fill-opacity="1" fill-rule="nonzero"/><path fill="#2c2c2c" d="M 286.40625 804.015625 C 285.6875 805.394531 287.058594 806.367188 288.328125 806.460938 C 289.820312 806.695312 291.273438 805.984375 292.625 805.445312 C 291.3125 805.238281 289.972656 805.304688 288.648438 805.253906 C 287.664062 805.292969 286.519531 805.214844 286.40625 804.015625 " fill-opacity="1" fill-rule="nonzero"/><path fill="#2c2c2c" d="M 270.914062 804.222656 C 269.179688 806.765625 268.585938 806.074219 265.933594 806.144531 C 264.117188 806.257812 262.367188 806.914062 260.535156 806.738281 C 262.847656 808.574219 266.042969 807.9375 268.769531 807.683594 C 270.308594 807.554688 270.796875 805.496094 270.914062 804.222656 " fill-opacity="1" fill-rule="nonzero"/><path fill="#2c2c2c" d="M 323.050781 805.089844 C 321.25 805.351562 319.433594 805.585938 317.636719 805.78125 C 320 807.089844 322.78125 807.320312 325.378906 806.675781 C 326.773438 806.382812 328.144531 805.945312 329.503906 805.539062 C 327.398438 805.09375 325.199219 804.882812 323.050781 805.089844 " fill-opacity="1" fill-rule="nonzero"/><path fill="#2c2c2c" d="M 332.988281 801.777344 C 332.246094 802.171875 331.511719 802.667969 330.933594 803.28125 C 330.472656 803.757812 328.773438 806.015625 330.199219 804.945312 C 330.183594 804.957031 330.167969 804.964844 330.152344 804.976562 C 331.417969 804.242188 332.425781 803.121094 332.988281 801.777344 " fill-opacity="1" fill-rule="nonzero"/><path fill="#2c2c2c" d="M 342.867188 804.238281 C 342.585938 804.25 342.300781 804.265625 342.019531 804.28125 C 342.09375 804.273438 342.167969 804.273438 342.238281 804.269531 C 337.992188 804.472656 333.742188 805.121094 329.582031 805.84375 C 329.589844 805.84375 329.597656 805.839844 329.605469 805.835938 C 328.25 806.292969 327.265625 806.351562 329.410156 806.480469 C 339.824219 808.332031 350.722656 807.394531 361 804.929688 C 354.957031 804.972656 348.917969 803.960938 342.867188 804.238281 " fill-opacity="1" fill-rule="nonzero"/><path fill="#2c2c2c" d="M 342.703125 800.609375 C 338.925781 800.996094 335.105469 801.695312 331.605469 803.195312 C 337.773438 803.585938 343.996094 803.960938 350.164062 803.15625 C 351.71875 803.113281 365.445312 801.238281 358.890625 801.355469 C 353.5 801.007812 348.113281 799.945312 342.703125 800.609375 " fill-opacity="1" fill-rule="nonzero"/><path fill="#2c2c2c" d="M 500.652344 799.777344 C 500.210938 801.875 499.957031 804.039062 499.957031 806.179688 C 499.960938 806.128906 499.960938 806.074219 499.964844 806.019531 C 499.890625 808.652344 500.488281 811.246094 501.214844 813.757812 C 502.195312 809.15625 502.59375 804.191406 500.652344 799.777344 " fill-opacity="1" fill-rule="nonzero"/><path fill="#2c2c2c" d="M 404.679688 815.574219 C 404.6875 815.574219 404.699219 815.574219 404.707031 815.574219 C 404.640625 815.570312 404.570312 815.566406 404.5 815.5625 C 404.558594 815.566406 404.621094 815.566406 404.679688 815.574219 Z M 373.21875 814.507812 C 368.847656 814.792969 364.5 815.425781 360.222656 816.3125 C 368.332031 817.996094 376.601562 818.144531 384.847656 818.179688 C 389.886719 818.246094 394.933594 818.480469 399.964844 818.234375 C 404.699219 817.898438 409.386719 817 414.105469 816.621094 C 410.945312 815.894531 407.675781 815.792969 404.453125 815.558594 C 404.464844 815.558594 404.472656 815.558594 404.484375 815.5625 C 404.484375 815.5625 404.480469 815.558594 404.480469 815.558594 C 404.488281 815.5625 404.492188 815.5625 404.5 815.5625 C 402.894531 815.449219 401.289062 815.367188 399.683594 815.316406 C 399.808594 815.328125 399.933594 815.335938 400.058594 815.339844 C 391.113281 815.15625 382.164062 814.195312 373.21875 814.507812 " fill-opacity="1" fill-rule="nonzero"/><path fill="#2c2c2c" d="M 446.132812 767.730469 C 446.152344 767.730469 446.171875 767.730469 446.1875 767.730469 C 446.171875 767.730469 446.152344 767.730469 446.132812 767.730469 Z M 446.738281 765.417969 C 446.742188 765.4375 446.746094 765.457031 446.753906 765.476562 C 446.746094 765.457031 446.742188 765.4375 446.738281 765.417969 Z M 446.625 765.21875 C 446.628906 765.21875 446.632812 765.222656 446.632812 765.226562 C 446.632812 765.222656 446.628906 765.21875 446.625 765.21875 Z M 446.214844 765.070312 C 447.234375 765.28125 446.886719 767.089844 446.332031 767.671875 C 445.441406 766.761719 445.46875 765.980469 446.558594 765.292969 C 445.769531 765.296875 444.882812 765.597656 444.71875 766.46875 C 444.484375 767.714844 445.644531 769.9375 447.089844 768.878906 C 448.34375 768.160156 447.90625 764.570312 446.214844 765.070312 " fill-opacity="1" fill-rule="nonzero"/><path fill="#2c2c2c" d="M 440.644531 776.617188 C 440.648438 776.628906 440.652344 776.636719 440.65625 776.644531 C 440.652344 776.636719 440.644531 776.628906 440.644531 776.617188 Z M 439.609375 775.492188 C 438.929688 775.625 437.792969 775.507812 439.152344 775.949219 C 438.53125 775.996094 437.917969 776.132812 437.335938 776.320312 C 438.527344 776.695312 439.75 777.113281 441.011719 777.117188 C 442.058594 777.035156 441.773438 775.703125 440.902344 775.554688 C 440.488281 775.421875 440.039062 775.453125 439.609375 775.492188 " fill-opacity="1" fill-rule="nonzero"/><path fill="#2c2c2c" d="M 437.910156 777.539062 C 437.679688 778.0625 437.339844 779.878906 438.402344 779.292969 C 438.730469 778.851562 438.765625 778.054688 438.515625 777.574219 C 438.503906 777.902344 438.300781 778.210938 438.171875 778.519531 C 438.097656 778.195312 438.03125 777.851562 437.910156 777.539062 " fill-opacity="1" fill-rule="nonzero"/><path fill="#2c2c2c" d="M 438.398438 770.027344 C 438.386719 770.039062 438.375 770.050781 438.363281 770.0625 C 438.375 770.046875 438.386719 770.039062 438.398438 770.027344 Z M 438.449219 769.984375 C 438.453125 769.984375 438.460938 769.988281 438.46875 769.988281 C 438.460938 769.988281 438.453125 769.984375 438.449219 769.984375 Z M 438.460938 769.933594 C 438.453125 769.949219 438.445312 769.960938 438.4375 769.976562 C 438.445312 769.960938 438.453125 769.949219 438.460938 769.933594 Z M 438.460938 769.878906 C 438.453125 769.898438 438.453125 769.914062 438.445312 769.929688 C 438.449219 769.914062 438.453125 769.898438 438.460938 769.878906 Z M 438.328125 769.226562 C 438.476562 769.445312 438.496094 769.722656 438.429688 769.972656 C 438.398438 769.96875 438.371094 769.957031 438.34375 769.941406 C 438.347656 769.941406 438.347656 769.941406 438.351562 769.941406 C 438.347656 769.941406 438.347656 769.941406 438.34375 769.941406 C 438.34375 769.703125 438.328125 769.464844 438.328125 769.226562 Z M 438.0625 768.976562 C 438.070312 768.976562 438.078125 768.980469 438.089844 768.984375 C 438.078125 768.980469 438.070312 768.976562 438.0625 768.976562 Z M 438.007812 768.300781 C 437.539062 768.519531 437.714844 769.101562 437.941406 769.4375 C 437.359375 770.246094 438.585938 771.25 439.160156 770.367188 C 439.765625 769.574219 439.046875 768.0625 438.007812 768.300781 " fill-opacity="1" fill-rule="nonzero"/><path fill="#2c2c2c" d="M 446.058594 761.691406 C 444.75 761.816406 444.996094 763.882812 446.300781 763.703125 C 447.609375 763.578125 447.359375 761.511719 446.058594 761.691406 " fill-opacity="1" fill-rule="nonzero"/><path fill="#2c2c2c" d="M 456.433594 776.890625 C 454.957031 781.238281 455.238281 785.8125 455.941406 790.269531 C 457.636719 785.996094 457.75 781.28125 456.433594 776.890625 " fill-opacity="1" fill-rule="nonzero"/><path fill="#2c2c2c" d="M 460.902344 755.871094 C 459.117188 761.8125 459.421875 768.125 459.570312 774.261719 C 459.550781 778.785156 459.742188 783.300781 460.132812 787.808594 C 460.363281 790.703125 460.492188 793.644531 461.253906 796.457031 C 461.445312 787.652344 462.394531 778.84375 462.316406 770.019531 C 462.273438 765.261719 461.429688 760.574219 460.902344 755.871094 " fill-opacity="1" fill-rule="nonzero"/><path fill="#2c2c2c" d="M 389.164062 777.523438 C 389.15625 777.523438 389.152344 777.523438 389.140625 777.527344 C 389.152344 777.523438 389.15625 777.523438 389.164062 777.523438 Z M 400.121094 777.140625 C 398.71875 777.203125 397.320312 777.195312 395.917969 777.15625 C 393.257812 777.082031 390.601562 777.394531 387.964844 777.621094 C 392.78125 778.671875 397.75 778.335938 402.628906 778.078125 C 404.527344 778.035156 406.441406 777.917969 408.300781 777.496094 C 405.582031 777.539062 402.851562 777.121094 400.121094 777.140625 " fill-opacity="1" fill-rule="nonzero"/><path fill="#2c2c2c" d="M 409.789062 774.117188 C 408.429688 781.742188 408.804688 789.621094 409.648438 797.277344 C 409.925781 793.636719 409.914062 789.980469 409.90625 786.332031 C 410.269531 782.261719 410.351562 778.167969 409.789062 774.117188 " fill-opacity="1" fill-rule="nonzero"/><path fill="#2c2c2c" d="M 402.875 778.097656 C 402.515625 781.363281 402.960938 784.640625 403.085938 787.90625 C 403.238281 791.90625 403.273438 795.925781 403.433594 799.917969 C 404.332031 792.671875 404.773438 785.214844 402.875 778.097656 " fill-opacity="1" fill-rule="nonzero"/><path fill="#2c2c2c" d="M 396.144531 777.558594 C 396.75 784.277344 397.089844 791.035156 398.628906 797.617188 C 398.679688 795.09375 398.246094 792.582031 398.253906 790.058594 C 398.195312 785.828125 397.980469 781.441406 396.144531 777.558594 " fill-opacity="1" fill-rule="nonzero"/><path fill="#2c2c2c" d="M 392.453125 777.933594 C 390.660156 784.117188 393.136719 790.449219 393.113281 796.71875 C 393.140625 797.089844 393.148438 797.484375 393.199219 797.847656 C 393.636719 794.023438 393.6875 790.179688 393.289062 786.351562 C 393.039062 783.539062 392.488281 780.753906 392.453125 777.933594 " fill-opacity="1" fill-rule="nonzero"/><path fill="#2c2c2c" d="M 464.300781 775.820312 C 464.3125 775.820312 464.320312 775.816406 464.332031 775.816406 C 464.320312 775.816406 464.3125 775.820312 464.300781 775.820312 Z M 464.21875 775.828125 C 464.246094 775.824219 464.273438 775.820312 464.300781 775.820312 C 464.273438 775.820312 464.246094 775.824219 464.21875 775.828125 Z M 467.464844 775.625 C 466.417969 775.625 465.371094 775.710938 464.332031 775.816406 C 464.339844 775.816406 464.34375 775.8125 464.351562 775.8125 C 449.867188 777.664062 475.042969 776.78125 478.097656 775.871094 C 474.5625 776.015625 471.011719 775.523438 467.464844 775.625 " fill-opacity="1" fill-rule="nonzero"/><path fill="#2c2c2c" d="M 465.507812 777.113281 C 465.378906 783.976562 465.699219 790.851562 466.269531 797.683594 C 466.796875 794.960938 466.585938 792.164062 466.738281 789.40625 C 466.847656 785.304688 466.746094 781.050781 465.507812 777.113281 " fill-opacity="1" fill-rule="nonzero"/><path fill="#2c2c2c" d="M 471.703125 776.316406 C 470.058594 783.082031 471.667969 790.121094 471.894531 796.96875 C 472.449219 793.664062 472.339844 790.28125 472.203125 786.9375 C 472.289062 783.382812 471.914062 779.847656 471.703125 776.316406 " fill-opacity="1" fill-rule="nonzero"/><path fill="#2c2c2c" d="M 393.46875 762.929688 C 393.46875 762.941406 393.46875 762.957031 393.46875 762.96875 C 393.46875 762.957031 393.46875 762.941406 393.46875 762.929688 Z M 394.527344 744.144531 C 393.316406 749.199219 393.601562 754.464844 393.457031 759.628906 C 393.503906 764.515625 393.359375 769.402344 393.460938 774.285156 C 393.582031 777.132812 393.792969 779.976562 393.929688 782.828125 C 394.152344 784.101562 393.246094 788.054688 395.695312 786.765625 C 396.878906 785.992188 398.351562 786.03125 399.691406 785.867188 C 398.21875 785.589844 396.648438 785.277344 395.207031 785.863281 C 394.042969 777.441406 394.222656 768.96875 394.46875 760.492188 C 394.683594 755.039062 395.128906 749.582031 394.527344 744.144531 " fill-opacity="1" fill-rule="nonzero"/><path fill="#2c2c2c" d="M 411.621094 786.40625 C 411.636719 786.429688 411.648438 786.453125 411.664062 786.476562 C 411.648438 786.457031 411.636719 786.429688 411.621094 786.40625 Z M 404.96875 784.65625 C 402.675781 784.851562 400.300781 784.96875 398.140625 785.800781 C 401.855469 785.777344 405.605469 785.914062 409.335938 785.996094 C 412.171875 786.367188 409.164062 788.5625 415.042969 786.660156 C 413.949219 786.527344 412.75 786.925781 411.703125 786.535156 C 411.4375 786.039062 411.265625 785.464844 410.792969 785.117188 C 410.394531 784.796875 409.847656 784.816406 409.363281 784.789062 C 407.898438 784.746094 406.433594 784.617188 404.96875 784.65625 " fill-opacity="1" fill-rule="nonzero"/></svg>