<svg xmlns="http://www.w3.org/2000/svg" xmlns:xlink="http://www.w3.org/1999/xlink" width="1080" zoomAndPan="magnify" viewBox="0 0 810 1439.999935" height="1920" preserveAspectRatio="xMidYMid meet" version="1.0"><defs><clipPath id="1eeda8908c"><path d="M 261 687 L 549 687 L 549 878.785156 L 261 878.785156 Z M 261 687 " clip-rule="nonzero"/></clipPath><clipPath id="2f095260db"><path d="M 246 860 L 564 860 L 564 878.785156 L 246 878.785156 Z M 246 860 " clip-rule="nonzero"/></clipPath><clipPath id="54137ad533"><path d="M 352 561.535156 L 458 561.535156 L 458 668 L 352 668 Z M 352 561.535156 " clip-rule="nonzero"/></clipPath></defs><path fill="#cd0000" d="M 310.035156 602.195312 L 499.964844 602.195312 C 500.515625 602.195312 501.0625 602.25 501.601562 602.359375 C 502.140625 602.464844 502.664062 602.625 503.171875 602.835938 C 503.679688 603.046875 504.164062 603.304688 504.621094 603.609375 C 505.078125 603.917969 505.5 604.265625 505.890625 604.652344 C 506.28125 605.042969 506.625 605.464844 506.933594 605.925781 C 507.238281 606.382812 507.496094 606.867188 507.707031 607.375 C 507.917969 607.882812 508.078125 608.40625 508.183594 608.949219 C 508.292969 609.488281 508.34375 610.035156 508.34375 610.585938 L 508.34375 621.769531 L 301.65625 621.769531 L 301.65625 610.585938 C 301.65625 610.035156 301.707031 609.488281 301.816406 608.949219 C 301.921875 608.40625 302.082031 607.882812 302.292969 607.375 C 302.503906 606.867188 302.761719 606.382812 303.066406 605.925781 C 303.371094 605.464844 303.71875 605.042969 304.109375 604.652344 C 304.5 604.265625 304.921875 603.917969 305.378906 603.609375 C 305.835938 603.304688 306.320312 603.046875 306.828125 602.835938 C 307.335938 602.625 307.859375 602.464844 308.398438 602.359375 C 308.9375 602.25 309.484375 602.195312 310.035156 602.195312 Z M 310.035156 602.195312 " fill-opacity="1" fill-rule="nonzero"/><g clip-path="url(#1eeda8908c)"><path fill="#ffcd00" d="M 261.15625 687.503906 L 548.871094 687.503906 L 548.871094 878.664062 L 261.15625 878.664062 Z M 261.15625 687.503906 " fill-opacity="1" fill-rule="nonzero"/></g><g clip-path="url(#2f095260db)"><path fill="#cd0000" d="M 246.632812 860.964844 L 563.339844 860.964844 L 563.339844 878.691406 L 246.632812 878.691406 Z M 246.632812 860.964844 " fill-opacity="1" fill-rule="nonzero"/></g><path fill="#ff641a" d="M 314.390625 621.851562 L 282.496094 712.722656 C 282.15625 713.59375 281.753906 714.433594 281.285156 715.246094 C 280.820312 716.054688 280.292969 716.824219 279.707031 717.554688 C 279.121094 718.285156 278.484375 718.964844 277.796875 719.59375 C 277.105469 720.226562 276.371094 720.800781 275.59375 721.320312 C 274.816406 721.839844 274.003906 722.292969 273.15625 722.6875 C 272.308594 723.082031 271.4375 723.410156 270.539062 723.667969 C 269.640625 723.929688 268.726562 724.117188 267.800781 724.238281 C 266.875 724.355469 265.945312 724.40625 265.007812 724.382812 C 251.855469 724.382812 242.972656 712.078125 248.25 701.007812 L 282.71875 626.71875 C 283.054688 625.992188 283.484375 625.328125 284.007812 624.726562 C 284.535156 624.121094 285.132812 623.605469 285.808594 623.175781 C 286.480469 622.742188 287.199219 622.414062 287.964844 622.191406 C 288.734375 621.964844 289.515625 621.851562 290.316406 621.851562 Z M 314.390625 621.851562 " fill-opacity="1" fill-rule="nonzero"/><path fill="#d9f2ff" d="M 344.613281 621.851562 L 323.71875 711.101562 C 323.453125 712.070312 323.109375 713.011719 322.6875 713.921875 C 322.261719 714.832031 321.769531 715.703125 321.199219 716.53125 C 320.632812 717.359375 320 718.136719 319.300781 718.859375 C 318.605469 719.582031 317.851562 720.242188 317.046875 720.839844 C 316.238281 721.4375 315.386719 721.964844 314.492188 722.421875 C 313.597656 722.878906 312.671875 723.257812 311.714844 723.558594 C 310.757812 723.859375 309.78125 724.078125 308.785156 724.214844 C 307.792969 724.355469 306.792969 724.410156 305.789062 724.382812 L 303.582031 724.382812 C 291.125 724.382812 282.300781 713.199219 286.097656 702.433594 L 314.390625 621.851562 Z M 344.613281 621.851562 " fill-opacity="1" fill-rule="nonzero"/><path fill="#ff641a" d="M 374.777344 621.851562 L 364.554688 709.367188 C 364.386719 710.433594 364.125 711.472656 363.765625 712.492188 C 363.410156 713.507812 362.964844 714.488281 362.429688 715.421875 C 361.894531 716.359375 361.277344 717.238281 360.582031 718.066406 C 359.890625 718.890625 359.125 719.644531 358.292969 720.332031 C 357.460938 721.015625 356.574219 721.621094 355.632812 722.144531 C 354.691406 722.671875 353.710938 723.105469 352.691406 723.453125 C 351.667969 723.796875 350.625 724.050781 349.558594 724.207031 C 348.492188 724.363281 347.421875 724.421875 346.34375 724.382812 L 343.328125 724.382812 C 331.625 724.382812 322.9375 714.539062 325.367188 704.054688 L 344.613281 621.851562 Z M 374.777344 621.851562 " fill-opacity="1" fill-rule="nonzero"/><path fill="#d9f2ff" d="M 405 621.851562 L 405 707.578125 C 404.972656 708.152344 404.917969 708.726562 404.832031 709.292969 C 404.75 709.863281 404.636719 710.429688 404.5 710.988281 C 404.359375 711.546875 404.195312 712.097656 404 712.636719 C 403.808594 713.179688 403.589844 713.710938 403.34375 714.234375 C 403.101562 714.753906 402.832031 715.261719 402.539062 715.757812 C 402.242188 716.25 401.925781 716.730469 401.582031 717.195312 C 401.242188 717.65625 400.878906 718.101562 400.496094 718.53125 C 400.109375 718.957031 399.707031 719.367188 399.28125 719.753906 C 398.855469 720.144531 398.414062 720.507812 397.953125 720.855469 C 397.492188 721.199219 397.015625 721.519531 396.523438 721.820312 C 396.03125 722.117188 395.527344 722.390625 395.007812 722.640625 C 394.492188 722.886719 393.960938 723.109375 393.421875 723.308594 C 392.878906 723.503906 392.332031 723.671875 391.773438 723.816406 C 391.21875 723.960938 390.65625 724.074219 390.085938 724.164062 C 389.519531 724.25 388.945312 724.3125 388.371094 724.34375 C 387.796875 724.375 387.222656 724.378906 386.648438 724.355469 L 383.242188 724.355469 C 372.320312 724.355469 363.691406 715.714844 364.976562 705.761719 L 374.777344 621.878906 Z M 405 621.851562 " fill-opacity="1" fill-rule="nonzero"/><path fill="#ff641a" d="M 426.757812 724.382812 L 423.351562 724.382812 C 422.777344 724.40625 422.203125 724.402344 421.628906 724.371094 C 421.054688 724.339844 420.480469 724.277344 419.914062 724.191406 C 419.34375 724.101562 418.78125 723.988281 418.226562 723.84375 C 417.667969 723.703125 417.121094 723.53125 416.578125 723.335938 C 416.039062 723.136719 415.507812 722.914062 414.992188 722.667969 C 414.472656 722.417969 413.96875 722.144531 413.476562 721.847656 C 412.984375 721.546875 412.507812 721.226562 412.046875 720.882812 C 411.585938 720.539062 411.144531 720.171875 410.71875 719.78125 C 410.292969 719.394531 409.890625 718.984375 409.503906 718.558594 C 409.121094 718.128906 408.757812 717.683594 408.414062 717.222656 C 408.074219 716.757812 407.757812 716.277344 407.460938 715.785156 C 407.167969 715.289062 406.898438 714.78125 406.652344 714.261719 C 406.410156 713.742188 406.191406 713.207031 406 712.667969 C 405.804688 712.125 405.640625 711.574219 405.5 711.015625 C 405.363281 710.457031 405.25 709.890625 405.167969 709.324219 C 405.082031 708.753906 405.027344 708.179688 405 707.605469 L 405 621.851562 L 435.222656 621.851562 L 445.023438 705.734375 C 446.171875 715.742188 437.679688 724.382812 426.757812 724.382812 Z M 426.757812 724.382812 " fill-opacity="1" fill-rule="nonzero"/><path fill="#d9f2ff" d="M 466.671875 724.382812 L 463.65625 724.382812 C 462.578125 724.421875 461.503906 724.363281 460.4375 724.210938 C 459.367188 724.054688 458.324219 723.804688 457.300781 723.460938 C 456.28125 723.113281 455.296875 722.679688 454.351562 722.15625 C 453.410156 721.632812 452.523438 721.027344 451.6875 720.339844 C 450.855469 719.652344 450.089844 718.898438 449.394531 718.074219 C 448.699219 717.25 448.082031 716.367188 447.546875 715.429688 C 447.011719 714.492188 446.5625 713.515625 446.207031 712.496094 C 445.847656 711.476562 445.585938 710.433594 445.417969 709.367188 L 435.195312 621.851562 L 465.359375 621.851562 L 484.601562 704.054688 C 487.0625 714.566406 478.375 724.382812 466.671875 724.382812 Z M 466.671875 724.382812 " fill-opacity="1" fill-rule="nonzero"/><path fill="#ff641a" d="M 506.417969 724.382812 L 504.210938 724.382812 C 503.207031 724.410156 502.207031 724.355469 501.214844 724.214844 C 500.21875 724.078125 499.242188 723.859375 498.285156 723.558594 C 497.328125 723.257812 496.402344 722.878906 495.507812 722.421875 C 494.613281 721.964844 493.761719 721.4375 492.953125 720.839844 C 492.148438 720.242188 491.394531 719.582031 490.699219 718.859375 C 490 718.136719 489.367188 717.359375 488.800781 716.53125 C 488.230469 715.703125 487.738281 714.832031 487.3125 713.921875 C 486.890625 713.011719 486.546875 712.070312 486.277344 711.101562 L 465.386719 621.851562 L 495.609375 621.851562 L 523.902344 702.433594 C 527.699219 713.28125 518.875 724.382812 506.417969 724.382812 Z M 506.417969 724.382812 " fill-opacity="1" fill-rule="nonzero"/><path fill="#d9f2ff" d="M 544.992188 724.382812 C 544.054688 724.40625 543.125 724.355469 542.199219 724.238281 C 541.273438 724.117188 540.359375 723.929688 539.460938 723.667969 C 538.5625 723.410156 537.691406 723.082031 536.84375 722.6875 C 535.996094 722.292969 535.183594 721.839844 534.40625 721.320312 C 533.628906 720.800781 532.894531 720.226562 532.203125 719.59375 C 531.515625 718.964844 530.878906 718.285156 530.292969 717.554688 C 529.707031 716.824219 529.179688 716.054688 528.714844 715.246094 C 528.246094 714.433594 527.84375 713.59375 527.503906 712.722656 L 495.609375 621.851562 L 519.683594 621.851562 C 520.484375 621.851562 521.265625 621.964844 522.035156 622.191406 C 522.800781 622.414062 523.519531 622.742188 524.191406 623.175781 C 524.867188 623.605469 525.464844 624.121094 525.992188 624.726562 C 526.515625 625.328125 526.945312 625.992188 527.28125 626.71875 L 561.859375 701.007812 C 567 712.078125 558.144531 724.382812 544.992188 724.382812 Z M 544.992188 724.382812 " fill-opacity="1" fill-rule="nonzero"/><g clip-path="url(#54137ad533)"><path fill="#63ba00" d="M 457.984375 614.667969 C 457.984375 616.402344 457.898438 618.136719 457.730469 619.867188 C 457.558594 621.59375 457.304688 623.3125 456.96875 625.015625 C 456.628906 626.71875 456.207031 628.402344 455.703125 630.0625 C 455.199219 631.726562 454.617188 633.359375 453.953125 634.964844 C 453.289062 636.570312 452.546875 638.136719 451.730469 639.667969 C 450.910156 641.203125 450.019531 642.691406 449.054688 644.132812 C 448.089844 645.578125 447.058594 646.972656 445.957031 648.316406 C 444.855469 649.65625 443.691406 650.945312 442.464844 652.171875 C 441.238281 653.398438 439.953125 654.566406 438.613281 655.667969 C 437.273438 656.769531 435.878906 657.804688 434.4375 658.769531 C 432.992188 659.734375 431.507812 660.625 429.976562 661.445312 C 428.445312 662.261719 426.878906 663.003906 425.277344 663.667969 C 423.671875 664.335938 422.042969 664.917969 420.378906 665.421875 C 418.71875 665.925781 417.039062 666.347656 415.335938 666.6875 C 413.636719 667.027344 411.921875 667.28125 410.195312 667.453125 C 408.464844 667.621094 406.734375 667.707031 405 667.707031 C 403.265625 667.707031 401.535156 667.621094 399.804688 667.453125 C 398.078125 667.28125 396.363281 667.027344 394.664062 666.6875 C 392.960938 666.347656 391.28125 665.925781 389.621094 665.421875 C 387.957031 664.917969 386.328125 664.335938 384.722656 663.667969 C 383.121094 663.003906 381.554688 662.261719 380.023438 661.445312 C 378.492188 660.625 377.007812 659.734375 375.5625 658.769531 C 374.121094 657.804688 372.726562 656.769531 371.386719 655.667969 C 370.046875 654.566406 368.761719 653.398438 367.535156 652.171875 C 366.308594 650.945312 365.144531 649.65625 364.042969 648.316406 C 362.941406 646.972656 361.910156 645.578125 360.945312 644.132812 C 359.980469 642.691406 359.089844 641.203125 358.269531 639.667969 C 357.453125 638.136719 356.710938 636.570312 356.046875 634.964844 C 355.382812 633.359375 354.800781 631.726562 354.296875 630.0625 C 353.792969 628.402344 353.371094 626.71875 353.03125 625.015625 C 352.695312 623.3125 352.441406 621.59375 352.269531 619.867188 C 352.101562 618.136719 352.015625 616.402344 352.015625 614.667969 C 352.015625 612.929688 352.101562 611.195312 352.269531 609.46875 C 352.441406 607.738281 352.695312 606.023438 353.03125 604.320312 C 353.371094 602.617188 353.792969 600.933594 354.296875 599.269531 C 354.800781 597.609375 355.382812 595.972656 356.046875 594.371094 C 356.710938 592.765625 357.453125 591.195312 358.269531 589.664062 C 359.089844 588.132812 359.980469 586.644531 360.945312 585.199219 C 361.910156 583.753906 362.941406 582.363281 364.042969 581.019531 C 365.144531 579.675781 366.308594 578.390625 367.535156 577.160156 C 368.761719 575.933594 370.046875 574.769531 371.386719 573.667969 C 372.726562 572.5625 374.121094 571.53125 375.5625 570.566406 C 377.003906 569.601562 378.492188 568.707031 380.023438 567.890625 C 381.554688 567.070312 383.121094 566.328125 384.722656 565.664062 C 386.328125 565 387.957031 564.414062 389.621094 563.910156 C 391.28125 563.40625 392.960938 562.984375 394.664062 562.644531 C 396.363281 562.308594 398.078125 562.050781 399.804688 561.882812 C 401.535156 561.710938 403.265625 561.625 405 561.625 C 406.734375 561.625 408.464844 561.710938 410.195312 561.882812 C 411.921875 562.050781 413.636719 562.308594 415.335938 562.644531 C 417.039062 562.984375 418.71875 563.40625 420.378906 563.910156 C 422.042969 564.414062 423.671875 565 425.277344 565.664062 C 426.878906 566.328125 428.445312 567.070312 429.976562 567.890625 C 431.507812 568.707031 432.992188 569.601562 434.4375 570.566406 C 435.878906 571.53125 437.273438 572.5625 438.613281 573.667969 C 439.953125 574.769531 441.238281 575.933594 442.464844 577.160156 C 443.691406 578.390625 444.855469 579.675781 445.957031 581.019531 C 447.058594 582.363281 448.089844 583.753906 449.054688 585.199219 C 450.019531 586.644531 450.910156 588.132812 451.730469 589.664062 C 452.546875 591.195312 453.289062 592.765625 453.953125 594.371094 C 454.617188 595.972656 455.199219 597.609375 455.703125 599.269531 C 456.207031 600.933594 456.628906 602.617188 456.96875 604.320312 C 457.304688 606.023438 457.558594 607.738281 457.730469 609.46875 C 457.898438 611.195312 457.984375 612.929688 457.984375 614.667969 Z M 457.984375 614.667969 " fill-opacity="1" fill-rule="nonzero"/></g><path fill="#d9f2ff" d="M 400.585938 584.636719 C 400.214844 584.636719 399.859375 584.707031 399.519531 584.851562 C 399.175781 584.992188 398.875 585.195312 398.613281 585.457031 C 398.351562 585.71875 398.148438 586.019531 398.007812 586.363281 C 397.863281 586.707031 397.792969 587.0625 397.792969 587.433594 L 397.792969 598.871094 C 397.789062 599.695312 397.660156 600.5 397.410156 601.285156 C 397.160156 602.070312 396.796875 602.800781 396.324219 603.476562 C 395.847656 604.152344 395.285156 604.742188 394.628906 605.242188 C 393.976562 605.742188 393.261719 606.136719 392.488281 606.417969 L 392.488281 587.433594 C 392.488281 587.0625 392.414062 586.707031 392.273438 586.363281 C 392.132812 586.019531 391.929688 585.71875 391.667969 585.457031 C 391.40625 585.195312 391.105469 584.992188 390.761719 584.851562 C 390.421875 584.707031 390.0625 584.636719 389.695312 584.636719 C 389.324219 584.636719 388.96875 584.707031 388.625 584.851562 C 388.28125 584.992188 387.980469 585.195312 387.71875 585.457031 C 387.457031 585.71875 387.253906 586.019531 387.113281 586.363281 C 386.972656 586.707031 386.902344 587.0625 386.902344 587.433594 L 386.902344 606.417969 C 386.128906 606.136719 385.414062 605.742188 384.761719 605.242188 C 384.109375 604.738281 383.546875 604.148438 383.074219 603.476562 C 382.605469 602.800781 382.242188 602.070312 381.996094 601.285156 C 381.746094 600.5 381.621094 599.695312 381.621094 598.871094 L 381.621094 587.433594 C 381.621094 587.0625 381.550781 586.707031 381.410156 586.363281 C 381.265625 586.019531 381.066406 585.71875 380.804688 585.457031 C 380.542969 585.195312 380.238281 584.992188 379.898438 584.851562 C 379.554688 584.707031 379.199219 584.636719 378.828125 584.636719 C 378.457031 584.636719 378.101562 584.707031 377.757812 584.851562 C 377.417969 584.992188 377.117188 585.195312 376.855469 585.457031 C 376.589844 585.71875 376.390625 586.019531 376.25 586.363281 C 376.105469 586.707031 376.035156 587.0625 376.035156 587.433594 L 376.035156 598.871094 C 376.035156 599.648438 376.101562 600.421875 376.230469 601.191406 C 376.363281 601.960938 376.558594 602.710938 376.820312 603.449219 C 377.082031 604.183594 377.402344 604.890625 377.78125 605.570312 C 378.164062 606.25 378.601562 606.894531 379.089844 607.5 C 379.582031 608.101562 380.121094 608.664062 380.707031 609.175781 C 381.292969 609.6875 381.921875 610.148438 382.585938 610.554688 C 383.25 610.960938 383.945312 611.304688 384.671875 611.59375 C 385.394531 611.878906 386.136719 612.101562 386.902344 612.261719 L 386.902344 641.871094 C 386.902344 642.242188 386.972656 642.597656 387.113281 642.941406 C 387.253906 643.285156 387.457031 643.585938 387.71875 643.847656 C 387.980469 644.109375 388.28125 644.3125 388.625 644.457031 C 388.96875 644.597656 389.324219 644.667969 389.695312 644.667969 C 390.0625 644.667969 390.421875 644.597656 390.761719 644.457031 C 391.105469 644.3125 391.40625 644.109375 391.667969 643.847656 C 391.929688 643.585938 392.132812 643.285156 392.273438 642.941406 C 392.414062 642.597656 392.488281 642.242188 392.488281 641.871094 L 392.488281 612.261719 C 393.25 612.101562 393.996094 611.878906 394.71875 611.59375 C 395.445312 611.308594 396.140625 610.960938 396.804688 610.554688 C 397.472656 610.148438 398.097656 609.691406 398.6875 609.175781 C 399.273438 608.664062 399.816406 608.105469 400.308594 607.5 C 400.800781 606.894531 401.238281 606.253906 401.621094 605.574219 C 402 604.890625 402.324219 604.183594 402.585938 603.449219 C 402.847656 602.714844 403.046875 601.960938 403.179688 601.195312 C 403.3125 600.425781 403.378906 599.648438 403.378906 598.871094 L 403.378906 587.433594 C 403.378906 587.0625 403.308594 586.707031 403.167969 586.363281 C 403.027344 586.019531 402.824219 585.71875 402.5625 585.457031 C 402.300781 585.195312 401.996094 584.992188 401.65625 584.851562 C 401.3125 584.707031 400.957031 584.636719 400.585938 584.636719 Z M 400.585938 584.636719 " fill-opacity="1" fill-rule="nonzero"/><path fill="#d9f2ff" d="M 433.964844 598.589844 C 433.964844 590.902344 428.714844 584.609375 422.261719 584.609375 C 415.808594 584.609375 410.585938 590.902344 410.585938 598.589844 C 410.550781 599.3125 410.570312 600.03125 410.648438 600.753906 C 410.726562 601.472656 410.859375 602.179688 411.046875 602.878906 C 411.238281 603.574219 411.484375 604.253906 411.78125 604.914062 C 412.078125 605.574219 412.425781 606.203125 412.824219 606.808594 C 413.222656 607.410156 413.667969 607.980469 414.15625 608.511719 C 414.644531 609.046875 415.171875 609.535156 415.738281 609.984375 C 416.304688 610.433594 416.902344 610.835938 417.535156 611.191406 C 418.164062 611.542969 418.816406 611.84375 419.496094 612.09375 L 419.496094 641.871094 C 419.496094 642.242188 419.566406 642.597656 419.707031 642.941406 C 419.851562 643.285156 420.050781 643.585938 420.3125 643.847656 C 420.574219 644.109375 420.878906 644.3125 421.21875 644.457031 C 421.5625 644.597656 421.917969 644.667969 422.289062 644.667969 C 422.660156 644.667969 423.015625 644.597656 423.359375 644.457031 C 423.699219 644.3125 424.003906 644.109375 424.265625 643.847656 C 424.527344 643.585938 424.726562 643.285156 424.871094 642.941406 C 425.011719 642.597656 425.082031 642.242188 425.082031 641.871094 L 425.082031 612.09375 C 425.757812 611.84375 426.414062 611.542969 427.042969 611.1875 C 427.671875 610.832031 428.265625 610.429688 428.832031 609.980469 C 429.398438 609.53125 429.921875 609.039062 430.410156 608.507812 C 430.898438 607.972656 431.339844 607.40625 431.738281 606.800781 C 432.132812 606.199219 432.480469 605.566406 432.777344 604.90625 C 433.074219 604.25 433.316406 603.570312 433.507812 602.875 C 433.695312 602.175781 433.828125 601.46875 433.90625 600.75 C 433.980469 600.03125 434 599.3125 433.964844 598.589844 Z M 422.261719 606.976562 C 418.9375 606.976562 416.144531 603.148438 416.144531 598.589844 C 416.144531 594.03125 418.9375 590.203125 422.261719 590.203125 C 425.585938 590.203125 428.378906 594.03125 428.378906 598.589844 C 428.378906 603.148438 425.585938 606.949219 422.261719 606.949219 Z M 422.261719 606.976562 " fill-opacity="1" fill-rule="nonzero"/><path fill="#f03800" d="M 291.207031 756.394531 L 344.863281 756.394531 L 344.863281 860.964844 L 291.207031 860.964844 Z M 291.207031 756.394531 " fill-opacity="1" fill-rule="nonzero"/><path fill="#d9f2ff" d="M 375.03125 756.394531 L 518.820312 756.394531 L 518.820312 832.921875 L 375.03125 832.921875 Z M 375.03125 756.394531 " fill-opacity="1" fill-rule="nonzero"/><path fill="#b6ebfe" d="M 398.519531 795.007812 C 397.960938 794.996094 397.449219 794.828125 396.992188 794.507812 C 396.53125 794.1875 396.199219 793.765625 395.992188 793.246094 C 395.785156 792.726562 395.738281 792.191406 395.851562 791.640625 C 395.96875 791.09375 396.222656 790.621094 396.621094 790.226562 L 409.023438 777.8125 C 409.285156 777.554688 409.585938 777.351562 409.925781 777.210938 C 410.265625 777.070312 410.621094 777 410.992188 777 C 411.359375 777 411.714844 777.070312 412.054688 777.210938 C 412.398438 777.351562 412.699219 777.554688 412.960938 777.8125 C 413.226562 778.074219 413.429688 778.378906 413.570312 778.722656 C 413.714844 779.066406 413.785156 779.425781 413.785156 779.796875 C 413.785156 780.171875 413.714844 780.53125 413.570312 780.875 C 413.429688 781.21875 413.226562 781.519531 412.960938 781.785156 L 400.558594 794.167969 C 400 794.742188 399.320312 795.019531 398.519531 795.007812 Z M 398.519531 795.007812 " fill-opacity="1" fill-rule="nonzero"/><path fill="#b6ebfe" d="M 399.21875 812.425781 C 398.445312 812.433594 397.785156 812.160156 397.234375 811.617188 C 396.976562 811.355469 396.773438 811.054688 396.632812 810.710938 C 396.492188 810.371094 396.421875 810.015625 396.421875 809.644531 C 396.421875 809.277344 396.492188 808.921875 396.632812 808.578125 C 396.773438 808.238281 396.976562 807.9375 397.234375 807.675781 L 426.199219 778.511719 C 426.460938 778.25 426.765625 778.050781 427.109375 777.910156 C 427.449219 777.769531 427.808594 777.699219 428.179688 777.703125 C 428.546875 777.703125 428.902344 777.777344 429.246094 777.917969 C 429.585938 778.0625 429.886719 778.265625 430.148438 778.527344 C 430.410156 778.792969 430.609375 779.09375 430.75 779.4375 C 430.890625 779.78125 430.960938 780.136719 430.960938 780.507812 C 430.960938 780.878906 430.886719 781.234375 430.746094 781.578125 C 430.601562 781.917969 430.398438 782.222656 430.136719 782.484375 L 401.171875 811.476562 C 400.65625 812.070312 400.003906 812.386719 399.21875 812.425781 Z M 399.21875 812.425781 " fill-opacity="1" fill-rule="nonzero"/></svg>