<svg xmlns="http://www.w3.org/2000/svg" xmlns:xlink="http://www.w3.org/1999/xlink" width="1080" zoomAndPan="magnify" viewBox="0 0 810 809.999993" height="1080" preserveAspectRatio="xMidYMid meet" version="1.0"><defs><clipPath id="3d146aeaf1"><path d="M 207 568.058594 L 445 568.058594 L 445 781.570312 L 207 781.570312 Z M 207 568.058594 " clip-rule="nonzero"/></clipPath><clipPath id="639d497123"><path d="M 350 28.570312 L 734.835938 28.570312 L 734.835938 574 L 350 574 Z M 350 28.570312 " clip-rule="nonzero"/></clipPath><clipPath id="9ddaff34ec"><path d="M 350 28.570312 L 468 28.570312 L 468 574 L 350 574 Z M 350 28.570312 " clip-rule="nonzero"/></clipPath><clipPath id="df93928537"><path d="M 620.480469 28.570312 L 734.835938 28.570312 L 734.835938 574 L 620.480469 574 Z M 620.480469 28.570312 " clip-rule="nonzero"/></clipPath><clipPath id="d93f02d34a"><path d="M 620 28.570312 L 642 28.570312 L 642 574 L 620 574 Z M 620 28.570312 " clip-rule="nonzero"/></clipPath><clipPath id="d02a5c07c9"><path d="M 446 28.570312 L 456 28.570312 L 456 30 L 446 30 Z M 446 28.570312 " clip-rule="nonzero"/></clipPath><clipPath id="f63f8877a3"><path d="M 446 28.570312 L 468 28.570312 L 468 36 L 446 36 Z M 446 28.570312 " clip-rule="nonzero"/></clipPath><clipPath id="e4599b60a6"><path d="M 663 120 L 734.835938 120 L 734.835938 574 L 663 574 Z M 663 120 " clip-rule="nonzero"/></clipPath><clipPath id="01de545b42"><path d="M 583 28.570312 L 621 28.570312 L 621 36 L 583 36 Z M 583 28.570312 " clip-rule="nonzero"/></clipPath><clipPath id="343d95537d"><path d="M 627 28.570312 L 659 28.570312 L 659 34 L 627 34 Z M 627 28.570312 " clip-rule="nonzero"/></clipPath><clipPath id="b901884608"><path d="M 626 28.570312 L 734.835938 28.570312 L 734.835938 574 L 626 574 Z M 626 28.570312 " clip-rule="nonzero"/></clipPath><clipPath id="7ebe0e5cdb"><path d="M 620 28.570312 L 642 28.570312 L 642 46 L 620 46 Z M 620 28.570312 " clip-rule="nonzero"/></clipPath></defs><rect x="-81" width="972" fill="#ffffff" y="-80.999999" height="971.999992" fill-opacity="1"/><rect x="-81" width="972" fill="#ffffff" y="-80.999999" height="971.999992" fill-opacity="1"/><g clip-path="url(#3d146aeaf1)"><path fill="#726c67" d="M 326.230469 781.589844 C 260.855469 781.589844 207.675781 728.382812 207.675781 662.992188 L 207.675781 568.203125 L 230.480469 568.203125 L 230.480469 662.992188 C 230.480469 715.804688 273.433594 758.765625 326.230469 758.765625 C 379.035156 758.765625 421.992188 715.804688 421.992188 662.992188 L 421.992188 568.203125 L 444.800781 568.203125 L 444.800781 662.992188 C 444.800781 728.382812 391.605469 781.589844 326.230469 781.589844 " fill-opacity="1" fill-rule="nonzero"/></g><path fill="#615c58" d="M 421.992188 588.050781 L 444.800781 588.050781 L 444.800781 573.101562 L 421.992188 573.101562 Z M 421.992188 588.050781 " fill-opacity="1" fill-rule="nonzero"/><path fill="#615c58" d="M 207.675781 588.050781 L 230.480469 588.050781 L 230.480469 568.21875 L 207.675781 568.21875 Z M 207.675781 588.050781 " fill-opacity="1" fill-rule="nonzero"/><path fill="#8c847d" d="M 92.539062 405.90625 L 196.988281 405.90625 L 196.988281 383.082031 L 92.539062 383.082031 Z M 92.539062 405.90625 " fill-opacity="1" fill-rule="nonzero"/><path fill="#8c847d" d="M 92.539062 448.945312 L 196.988281 448.945312 L 196.988281 426.121094 L 92.539062 426.121094 Z M 92.539062 448.945312 " fill-opacity="1" fill-rule="nonzero"/><path fill="#77706a" d="M 179.332031 405.90625 L 158.640625 405.90625 L 157.390625 383.082031 L 178.089844 383.082031 L 179.332031 405.90625 " fill-opacity="1" fill-rule="nonzero"/><path fill="#77706a" d="M 181.667969 448.945312 L 160.96875 448.945312 L 159.734375 426.121094 L 180.425781 426.121094 L 181.667969 448.945312 " fill-opacity="1" fill-rule="nonzero"/><path fill="#fcaa3f" d="M 271.597656 274.929688 L 259.5625 497.941406 L 258.316406 520.746094 L 257.4375 537.015625 C 257.4375 554.238281 248.417969 568.21875 237.296875 568.21875 L 206.574219 568.21875 C 195.449219 568.21875 186.441406 554.238281 186.441406 537.015625 L 185.5625 520.746094 L 184.328125 497.941406 L 172.214844 274.929688 C 172.214844 274.929688 220.628906 307.585938 271.472656 271.410156 C 272.40625 270.746094 271.597656 273.738281 271.597656 274.929688 " fill-opacity="1" fill-rule="nonzero"/><path fill="#d1872f" d="M 259.5625 497.941406 L 258.316406 520.746094 L 185.5625 520.746094 L 184.328125 497.941406 L 259.5625 497.941406 " fill-opacity="1" fill-rule="nonzero"/><path fill="#8c847d" d="M 103.945312 574.597656 L 81.132812 574.597656 L 81.132812 31.84375 L 103.945312 31.84375 L 103.945312 574.597656 " fill-opacity="1" fill-rule="nonzero"/><g clip-path="url(#639d497123)"><path fill="#fcaa3f" d="M 734.839844 545.378906 C 734.839844 560.691406 722.4375 573.089844 707.140625 573.089844 L 377.910156 573.089844 C 362.601562 573.089844 350.1875 560.679688 350.1875 545.359375 L 350.1875 136.984375 C 350.1875 77.105469 398.714844 28.566406 458.578125 28.566406 L 626.46875 28.566406 C 686.328125 28.566406 734.839844 77.09375 734.839844 136.96875 L 734.839844 545.378906 " fill-opacity="1" fill-rule="nonzero"/></g><path fill="#f2533d" d="M 577.324219 457.820312 C 577.324219 477.035156 561.738281 492.613281 542.519531 492.613281 C 523.300781 492.613281 507.753906 477.035156 507.753906 457.820312 C 507.753906 438.59375 523.300781 423.011719 542.519531 423.011719 C 561.738281 423.011719 577.324219 438.59375 577.324219 457.820312 " fill-opacity="1" fill-rule="nonzero"/><path fill="#d69136" d="M 542.519531 492.613281 C 542.386719 492.613281 542.246094 492.613281 542.109375 492.613281 C 542.246094 492.613281 542.382812 492.613281 542.519531 492.613281 C 561.738281 492.613281 577.324219 477.035156 577.324219 457.820312 C 577.324219 477.035156 561.738281 492.613281 542.519531 492.613281 M 541.867188 492.605469 C 541.816406 492.605469 541.769531 492.605469 541.726562 492.605469 C 541.769531 492.605469 541.816406 492.605469 541.867188 492.605469 M 542.113281 423.011719 C 542.253906 423.011719 542.386719 423.011719 542.519531 423.011719 C 542.386719 423.011719 542.253906 423.011719 542.113281 423.011719 " fill-opacity="1" fill-rule="nonzero"/><path fill="#ce4734" d="M 542.519531 492.613281 C 542.382812 492.613281 542.246094 492.613281 542.109375 492.613281 C 542.023438 492.613281 541.941406 492.613281 541.867188 492.605469 C 541.816406 492.605469 541.769531 492.605469 541.726562 492.605469 C 537.847656 492.511719 534.164062 491.765625 530.703125 490.519531 C 544.082031 485.660156 553.667969 472.882812 553.667969 457.820312 C 553.667969 442.757812 544.082031 429.964844 530.703125 425.125 C 534.277344 423.835938 538.097656 423.0625 542.113281 423.011719 C 542.253906 423.011719 542.386719 423.011719 542.519531 423.011719 C 561.738281 423.011719 577.324219 438.59375 577.324219 457.820312 C 577.324219 477.035156 561.738281 492.613281 542.519531 492.613281 " fill-opacity="1" fill-rule="nonzero"/><path fill="#c6baaf" d="M 518.882812 271.421875 L 566.160156 271.421875 L 566.160156 96.980469 L 518.882812 96.980469 Z M 518.882812 271.421875 " fill-opacity="1" fill-rule="nonzero"/><path fill="#a89e95" d="M 548.949219 271.421875 L 566.160156 271.421875 L 566.160156 96.980469 L 548.949219 96.980469 Z M 548.949219 271.421875 " fill-opacity="1" fill-rule="nonzero"/><path fill="#d69136" d="M 220.273438 313.539062 C 203.027344 313.539062 186.984375 308.40625 173.566406 299.621094 L 172.503906 280.195312 C 186.136719 289.421875 202.578125 294.808594 220.273438 294.808594 C 231.800781 294.808594 242.785156 292.527344 252.816406 288.390625 C 252.796875 288.402344 252.785156 288.414062 252.773438 288.425781 L 251.695312 307.570312 C 241.96875 311.417969 231.371094 313.539062 220.273438 313.539062 M 270.734375 290.910156 L 271.441406 277.800781 C 271.441406 277.800781 271.445312 277.800781 271.445312 277.796875 L 270.734375 290.910156 " fill-opacity="1" fill-rule="nonzero"/><path fill="#c6baaf" d="M 659.210938 618.914062 L 706.1875 618.914062 L 706.1875 573.101562 L 659.210938 573.101562 Z M 659.210938 618.914062 " fill-opacity="1" fill-rule="nonzero"/><path fill="#a89e95" d="M 659.210938 588.050781 L 706.1875 588.050781 L 706.1875 573.101562 L 659.210938 573.101562 Z M 659.210938 588.050781 " fill-opacity="1" fill-rule="nonzero"/><path fill="#c6baaf" d="M 305.710938 209.359375 C 305.710938 256.550781 267.480469 294.808594 220.273438 294.808594 C 173.113281 294.808594 134.878906 256.550781 134.878906 209.359375 C 134.878906 162.183594 173.113281 123.957031 220.273438 123.957031 C 267.480469 123.957031 305.710938 162.183594 305.710938 209.359375 " fill-opacity="1" fill-rule="nonzero"/><path fill="#d9d9d9" d="M 254.472656 553.320312 C 256.347656 548.578125 257.4375 542.992188 257.4375 537.015625 L 258.085938 524.925781 L 257.4375 537.035156 C 257.4375 543 256.347656 548.578125 254.472656 553.320312 " fill-opacity="1" fill-rule="nonzero"/><path fill="#d69136" d="M 237.296875 568.203125 L 218.628906 568.203125 C 229.730469 568.203125 238.769531 554.238281 238.769531 537.035156 L 239.683594 520.746094 L 258.316406 520.746094 L 258.085938 524.925781 L 257.4375 537.015625 C 257.4375 542.992188 256.347656 548.578125 254.472656 553.320312 C 250.925781 562.246094 244.5625 568.203125 237.296875 568.203125 M 259.542969 497.941406 L 240.972656 497.941406 L 251.695312 307.570312 C 258.378906 304.921875 264.65625 301.453125 270.382812 297.285156 L 270.734375 290.910156 L 259.542969 497.941406 " fill-opacity="1" fill-rule="nonzero"/><path fill="#b27328" d="M 258.316406 520.746094 L 239.683594 520.746094 L 240.972656 497.941406 L 259.542969 497.941406 L 258.316406 520.746094 " fill-opacity="1" fill-rule="nonzero"/><path fill="#b67b2e" d="M 251.695312 307.570312 L 252.773438 288.425781 C 252.785156 288.414062 252.796875 288.402344 252.816406 288.390625 C 259.492188 285.640625 265.742188 282.066406 271.441406 277.800781 L 270.734375 290.910156 L 270.382812 297.285156 C 264.65625 301.453125 258.378906 304.921875 251.695312 307.570312 " fill-opacity="1" fill-rule="nonzero"/><path fill="#d9d9d9" d="M 297.460938 246.039062 C 297.46875 246.03125 297.472656 246.011719 297.480469 246.007812 C 297.472656 246.019531 297.46875 246.03125 297.460938 246.039062 M 297.964844 244.96875 C 297.976562 244.9375 297.988281 244.910156 298 244.886719 C 297.988281 244.910156 297.976562 244.9375 297.964844 244.96875 M 298.726562 243.257812 C 298.746094 243.21875 298.757812 243.179688 298.777344 243.140625 C 298.757812 243.179688 298.746094 243.21875 298.726562 243.257812 M 299.171875 242.207031 C 299.203125 242.136719 299.230469 242.066406 299.261719 241.996094 C 299.230469 242.066406 299.203125 242.136719 299.171875 242.207031 M 299.5625 241.25 C 299.605469 241.140625 299.65625 241.019531 299.703125 240.90625 C 299.65625 241.019531 299.605469 241.136719 299.5625 241.25 M 299.878906 240.449219 C 299.9375 240.316406 299.988281 240.1875 300.039062 240.054688 C 299.988281 240.1875 299.9375 240.316406 299.878906 240.449219 M 300.273438 239.429688 C 300.324219 239.289062 300.375 239.15625 300.425781 239.007812 C 300.375 239.148438 300.324219 239.289062 300.273438 239.429688 M 300.617188 238.488281 C 300.6875 238.308594 300.75 238.128906 300.816406 237.953125 C 300.75 238.128906 300.6875 238.308594 300.617188 238.488281 M 300.949219 237.5625 C 301.03125 237.335938 301.113281 237.097656 301.191406 236.871094 C 301.113281 237.097656 301.03125 237.335938 300.949219 237.5625 M 301.304688 236.519531 C 301.363281 236.347656 301.417969 236.183594 301.476562 236.011719 C 301.417969 236.183594 301.363281 236.347656 301.304688 236.519531 M 301.597656 235.636719 C 301.675781 235.40625 301.746094 235.183594 301.8125 234.953125 C 301.746094 235.183594 301.675781 235.40625 301.597656 235.636719 M 301.921875 234.609375 C 302 234.363281 302.074219 234.113281 302.144531 233.863281 C 302.074219 234.113281 302 234.367188 301.921875 234.609375 M 302.234375 233.570312 C 302.296875 233.355469 302.355469 233.152344 302.417969 232.9375 C 302.363281 233.144531 302.296875 233.363281 302.234375 233.570312 M 302.5 232.636719 C 302.570312 232.386719 302.640625 232.140625 302.710938 231.890625 C 302.640625 232.140625 302.570312 232.386719 302.5 232.636719 M 302.789062 231.609375 C 302.859375 231.34375 302.929688 231.078125 303 230.816406 C 302.929688 231.082031 302.859375 231.34375 302.789062 231.609375 M 303.0625 230.554688 C 303.132812 230.28125 303.203125 230.011719 303.265625 229.746094 C 303.203125 230.011719 303.132812 230.285156 303.0625 230.554688 M 303.285156 229.667969 C 303.355469 229.375 303.425781 229.089844 303.496094 228.796875 C 303.425781 229.082031 303.355469 229.375 303.285156 229.667969 M 303.546875 228.5625 C 303.609375 228.273438 303.671875 227.996094 303.738281 227.707031 C 303.671875 227.996094 303.609375 228.28125 303.546875 228.5625 M 303.789062 227.492188 C 303.84375 227.210938 303.910156 226.925781 303.964844 226.652344 C 303.910156 226.933594 303.84375 227.210938 303.789062 227.492188 M 303.996094 226.472656 C 304.054688 226.199219 304.105469 225.933594 304.15625 225.664062 C 304.105469 225.933594 304.054688 226.207031 303.996094 226.472656 M 304.203125 225.460938 C 304.257812 225.160156 304.308594 224.867188 304.359375 224.570312 C 304.308594 224.867188 304.253906 225.160156 304.203125 225.460938 M 304.398438 224.371094 C 304.449219 224.066406 304.507812 223.761719 304.558594 223.457031 C 304.507812 223.761719 304.457031 224.066406 304.398438 224.371094 M 304.570312 223.355469 C 304.621094 223.066406 304.664062 222.78125 304.710938 222.496094 C 304.664062 222.78125 304.621094 223.066406 304.570312 223.355469 M 304.734375 222.316406 C 304.78125 222.011719 304.824219 221.703125 304.871094 221.40625 C 304.824219 221.710938 304.785156 222.011719 304.734375 222.316406 M 304.894531 221.207031 C 304.941406 220.894531 304.984375 220.589844 305.023438 220.277344 C 304.984375 220.589844 304.941406 220.894531 304.894531 221.207031 M 305.035156 220.164062 C 305.074219 219.859375 305.113281 219.558594 305.144531 219.253906 C 305.113281 219.558594 305.074219 219.859375 305.035156 220.164062 M 305.164062 219.132812 C 305.195312 218.828125 305.226562 218.507812 305.257812 218.203125 C 305.226562 218.515625 305.195312 218.820312 305.164062 219.132812 M 305.285156 217.992188 C 305.316406 217.679688 305.339844 217.367188 305.371094 217.058594 C 305.339844 217.367188 305.316406 217.679688 305.285156 217.992188 M 305.378906 216.929688 C 305.410156 216.625 305.4375 216.3125 305.460938 216 C 305.4375 216.3125 305.410156 216.625 305.378906 216.929688 M 305.46875 215.910156 C 305.488281 215.585938 305.511719 215.261719 305.53125 214.941406 C 305.511719 215.261719 305.488281 215.585938 305.46875 215.910156 M 305.542969 214.769531 C 305.5625 214.453125 305.582031 214.132812 305.601562 213.816406 C 305.582031 214.132812 305.5625 214.453125 305.542969 214.769531 M 305.609375 213.644531 C 305.621094 213.339844 305.632812 213.027344 305.644531 212.722656 C 305.632812 213.035156 305.621094 213.339844 305.609375 213.644531 M 305.652344 212.644531 C 305.664062 212.328125 305.671875 212.007812 305.683594 211.683594 C 305.671875 212.007812 305.664062 212.328125 305.652344 212.644531 M 305.683594 211.472656 C 305.695312 211.160156 305.695312 210.847656 305.703125 210.539062 C 305.695312 210.847656 305.695312 211.160156 305.683594 211.472656 M 305.703125 210.351562 C 305.710938 210.023438 305.710938 209.691406 305.710938 209.359375 C 305.710938 209.691406 305.710938 210.023438 305.703125 210.351562 M 217.3125 124.007812 C 217.402344 124.007812 217.496094 124 217.585938 124 C 217.496094 124 217.402344 124.007812 217.3125 124.007812 M 218.296875 123.984375 C 218.574219 123.976562 218.847656 123.96875 219.113281 123.964844 C 218.839844 123.96875 218.574219 123.976562 218.296875 123.984375 M 219.277344 123.964844 C 219.609375 123.957031 219.941406 123.957031 220.273438 123.957031 C 219.941406 123.957031 219.609375 123.964844 219.277344 123.964844 " fill-opacity="1" fill-rule="nonzero"/><path fill="#a89e95" d="M 252.816406 288.390625 C 273.597656 272.796875 287.042969 237.339844 287.042969 209.359375 C 287.042969 165.339844 253.738281 129.121094 210.945312 124.472656 C 213.046875 124.238281 215.167969 124.085938 217.3125 124.007812 C 217.402344 124.007812 217.496094 124 217.585938 124 C 217.828125 123.996094 218.0625 123.988281 218.296875 123.984375 C 218.574219 123.976562 218.839844 123.96875 219.113281 123.964844 C 219.171875 123.964844 219.222656 123.964844 219.277344 123.964844 C 219.609375 123.964844 219.941406 123.957031 220.273438 123.957031 C 267.480469 123.957031 305.710938 162.183594 305.710938 209.359375 C 305.710938 209.691406 305.710938 210.023438 305.703125 210.351562 C 305.703125 210.417969 305.703125 210.472656 305.703125 210.539062 C 305.695312 210.847656 305.695312 211.160156 305.683594 211.472656 C 305.683594 211.542969 305.683594 211.613281 305.683594 211.683594 C 305.671875 212.007812 305.664062 212.328125 305.652344 212.644531 C 305.644531 212.671875 305.644531 212.695312 305.644531 212.722656 C 305.632812 213.027344 305.621094 213.339844 305.609375 213.644531 C 305.601562 213.703125 305.601562 213.757812 305.601562 213.816406 C 305.582031 214.132812 305.5625 214.453125 305.542969 214.769531 C 305.539062 214.828125 305.539062 214.886719 305.53125 214.941406 C 305.511719 215.261719 305.488281 215.585938 305.46875 215.910156 C 305.460938 215.941406 305.460938 215.96875 305.460938 216 C 305.4375 216.3125 305.410156 216.625 305.378906 216.929688 C 305.378906 216.972656 305.371094 217.011719 305.371094 217.058594 C 305.339844 217.367188 305.316406 217.679688 305.285156 217.992188 C 305.277344 218.0625 305.269531 218.132812 305.257812 218.203125 C 305.226562 218.507812 305.195312 218.828125 305.164062 219.132812 C 305.15625 219.171875 305.148438 219.214844 305.144531 219.253906 C 305.113281 219.558594 305.074219 219.859375 305.035156 220.164062 C 305.027344 220.203125 305.027344 220.242188 305.023438 220.277344 C 304.984375 220.589844 304.941406 220.894531 304.894531 221.207031 C 304.890625 221.273438 304.875 221.34375 304.871094 221.40625 C 304.824219 221.703125 304.78125 222.011719 304.734375 222.316406 C 304.730469 222.375 304.71875 222.429688 304.710938 222.496094 C 304.664062 222.78125 304.621094 223.066406 304.570312 223.355469 C 304.5625 223.386719 304.558594 223.421875 304.558594 223.457031 C 304.507812 223.761719 304.449219 224.066406 304.398438 224.371094 C 304.386719 224.4375 304.375 224.507812 304.359375 224.570312 C 304.308594 224.867188 304.257812 225.160156 304.203125 225.460938 C 304.1875 225.53125 304.175781 225.59375 304.15625 225.664062 C 304.105469 225.933594 304.054688 226.199219 303.996094 226.472656 C 303.984375 226.53125 303.976562 226.589844 303.964844 226.652344 C 303.910156 226.925781 303.84375 227.210938 303.789062 227.492188 C 303.769531 227.570312 303.753906 227.636719 303.738281 227.707031 C 303.671875 227.996094 303.609375 228.273438 303.546875 228.5625 C 303.527344 228.644531 303.515625 228.722656 303.496094 228.796875 C 303.425781 229.089844 303.355469 229.375 303.285156 229.667969 C 303.277344 229.695312 303.273438 229.71875 303.265625 229.746094 C 303.203125 230.011719 303.132812 230.28125 303.0625 230.554688 C 303.042969 230.636719 303.023438 230.726562 303 230.816406 C 302.929688 231.078125 302.859375 231.34375 302.789062 231.609375 C 302.761719 231.707031 302.738281 231.796875 302.710938 231.890625 C 302.640625 232.140625 302.570312 232.386719 302.5 232.636719 C 302.476562 232.738281 302.445312 232.839844 302.417969 232.9375 C 302.355469 233.152344 302.296875 233.355469 302.234375 233.570312 C 302.210938 233.667969 302.175781 233.769531 302.144531 233.863281 C 302.074219 234.113281 302 234.363281 301.921875 234.609375 C 301.882812 234.722656 301.847656 234.839844 301.8125 234.953125 C 301.746094 235.183594 301.675781 235.40625 301.597656 235.636719 C 301.558594 235.757812 301.515625 235.882812 301.476562 236.011719 C 301.417969 236.183594 301.363281 236.347656 301.304688 236.519531 C 301.265625 236.632812 301.230469 236.753906 301.191406 236.871094 C 301.113281 237.097656 301.03125 237.335938 300.949219 237.5625 C 300.902344 237.691406 300.859375 237.824219 300.816406 237.953125 C 300.75 238.128906 300.6875 238.308594 300.617188 238.488281 C 300.554688 238.664062 300.492188 238.835938 300.425781 239.007812 C 300.375 239.15625 300.324219 239.289062 300.273438 239.429688 C 300.191406 239.640625 300.113281 239.851562 300.039062 240.054688 C 299.988281 240.1875 299.9375 240.316406 299.878906 240.449219 C 299.820312 240.601562 299.765625 240.753906 299.703125 240.90625 C 299.65625 241.019531 299.605469 241.140625 299.5625 241.25 C 299.464844 241.5 299.363281 241.746094 299.261719 241.996094 C 299.230469 242.066406 299.203125 242.136719 299.171875 242.207031 C 299.039062 242.515625 298.910156 242.828125 298.777344 243.140625 C 298.757812 243.179688 298.746094 243.21875 298.726562 243.257812 C 298.492188 243.804688 298.25 244.34375 298 244.886719 C 297.988281 244.910156 297.976562 244.9375 297.964844 244.96875 C 297.804688 245.3125 297.644531 245.664062 297.480469 246.007812 C 297.472656 246.011719 297.46875 246.03125 297.460938 246.039062 C 291.472656 258.625 282.488281 269.519531 271.441406 277.789062 L 271.441406 277.800781 C 265.742188 282.066406 259.492188 285.640625 252.816406 288.390625 " fill-opacity="1" fill-rule="nonzero"/><g clip-path="url(#9ddaff34ec)"><path fill="#fc723f" d="M 458.578125 28.566406 C 398.714844 28.566406 350.1875 77.105469 350.1875 136.984375 L 350.1875 545.359375 C 350.1875 560.679688 362.601562 573.089844 377.910156 573.089844 L 467.554688 573.089844 L 467.554688 28.566406 L 458.578125 28.566406 " fill-opacity="1" fill-rule="nonzero"/><path fill="#fd9d79" d="M 404.808594 573.089844 L 377.910156 573.089844 C 362.601562 573.089844 350.1875 560.679688 350.1875 545.359375 L 350.1875 136.984375 C 350.1875 81.238281 392.25 35.320312 446.363281 29.246094 L 446.363281 35.859375 C 405.824219 51.554688 377.074219 90.894531 377.074219 136.984375 L 377.074219 545.359375 C 377.074219 560.679688 389.492188 573.089844 404.808594 573.089844 M 467.554688 29.679688 C 463.53125 29.105469 459.433594 28.742188 455.28125 28.617188 C 456.375 28.585938 457.476562 28.566406 458.578125 28.566406 L 467.554688 28.566406 L 467.554688 29.679688 " fill-opacity="1" fill-rule="nonzero"/></g><g clip-path="url(#df93928537)"><path fill="#fc723f" d="M 626.46875 28.566406 L 620.761719 28.566406 L 620.761719 573.089844 L 707.140625 573.089844 C 722.4375 573.089844 734.839844 560.691406 734.839844 545.378906 L 734.839844 136.96875 C 734.839844 77.09375 686.328125 28.566406 626.46875 28.566406 " fill-opacity="1" fill-rule="nonzero"/></g><g clip-path="url(#d93f02d34a)"><path fill="#d66136" d="M 641.9375 573.089844 L 620.761719 573.089844 L 620.761719 35.328125 C 628.246094 38.109375 635.335938 41.691406 641.9375 45.972656 L 641.9375 573.089844 M 627.53125 28.570312 C 627.488281 28.570312 627.4375 28.570312 627.394531 28.570312 C 627.398438 28.570312 627.398438 28.570312 627.398438 28.570312 C 627.4375 28.570312 627.46875 28.570312 627.515625 28.570312 C 627.519531 28.570312 627.527344 28.570312 627.53125 28.570312 " fill-opacity="1" fill-rule="nonzero"/></g><g clip-path="url(#d02a5c07c9)"><path fill="#d9d9d9" d="M 446.363281 29.246094 L 446.363281 28.566406 L 452.085938 28.566406 C 453.15625 28.566406 454.21875 28.585938 455.28125 28.617188 C 452.277344 28.707031 449.304688 28.921875 446.363281 29.246094 " fill-opacity="1" fill-rule="nonzero"/></g><path fill="#d66136" d="M 467.554688 573.089844 L 446.363281 573.089844 L 446.363281 35.859375 C 453.128906 33.246094 460.214844 31.285156 467.554688 30.0625 L 467.554688 573.089844 " fill-opacity="1" fill-rule="nonzero"/><g clip-path="url(#f63f8877a3)"><path fill="#d78667" d="M 446.363281 35.859375 L 446.363281 29.246094 C 449.304688 28.921875 452.277344 28.707031 455.28125 28.617188 C 459.433594 28.742188 463.53125 29.105469 467.554688 29.679688 L 467.554688 30.0625 C 460.214844 31.285156 453.128906 33.246094 446.363281 35.859375 " fill-opacity="1" fill-rule="nonzero"/></g><g clip-path="url(#e4599b60a6)"><path fill="#d9d9d9" d="M 707.140625 573.089844 L 663.71875 573.089844 L 707.140625 573.089844 C 722.4375 573.089844 734.839844 560.691406 734.839844 545.378906 L 734.839844 136.96875 L 734.839844 545.378906 C 734.839844 553.03125 731.746094 559.960938 726.730469 564.976562 C 721.714844 569.992188 714.796875 573.089844 707.140625 573.089844 M 734.839844 136.105469 C 734.835938 136.023438 734.835938 135.9375 734.835938 135.855469 C 734.835938 135.9375 734.835938 136.023438 734.839844 136.105469 M 734.828125 135.199219 C 734.828125 135.125 734.828125 135.046875 734.824219 134.972656 C 734.828125 135.046875 734.828125 135.125 734.828125 135.199219 M 734.804688 134.113281 C 734.804688 134.066406 734.804688 134.023438 734.804688 133.976562 C 734.804688 134.023438 734.804688 134.066406 734.804688 134.113281 M 734.777344 133.265625 C 734.777344 133.175781 734.769531 133.082031 734.769531 132.984375 C 734.769531 133.082031 734.777344 133.175781 734.777344 133.265625 M 734.738281 132.296875 C 734.738281 132.238281 734.738281 132.1875 734.734375 132.132812 C 734.738281 132.1875 734.738281 132.238281 734.738281 132.296875 M 734.695312 131.273438 C 734.695312 131.214844 734.6875 131.15625 734.6875 131.101562 C 734.6875 131.15625 734.695312 131.214844 734.695312 131.273438 M 734.644531 130.394531 C 734.644531 130.324219 734.636719 130.246094 734.632812 130.175781 C 734.636719 130.246094 734.644531 130.324219 734.644531 130.394531 M 734.511719 128.445312 C 734.503906 128.382812 734.503906 128.316406 734.496094 128.253906 C 734.503906 128.316406 734.503906 128.382812 734.511719 128.445312 M 734.433594 127.523438 C 734.433594 127.476562 734.425781 127.425781 734.421875 127.382812 C 734.425781 127.425781 734.433594 127.476562 734.433594 127.523438 M 734.253906 125.613281 C 734.25 125.566406 734.242188 125.515625 734.238281 125.472656 C 734.242188 125.515625 734.25 125.566406 734.253906 125.613281 M 734.039062 123.695312 C 734.03125 123.671875 734.03125 123.644531 734.027344 123.621094 C 734.03125 123.644531 734.03125 123.671875 734.039062 123.695312 M 733.925781 122.796875 C 733.917969 122.761719 733.914062 122.726562 733.914062 122.695312 C 733.914062 122.726562 733.917969 122.761719 733.925781 122.796875 M 733.65625 120.894531 C 733.65625 120.882812 733.65625 120.875 733.652344 120.855469 C 733.65625 120.871094 733.65625 120.882812 733.65625 120.894531 " fill-opacity="1" fill-rule="nonzero"/></g><g clip-path="url(#01de545b42)"><path fill="#d69136" d="M 620.761719 35.328125 C 609.015625 30.957031 596.320312 28.566406 583.042969 28.566406 L 620.761719 28.566406 L 620.761719 35.328125 " fill-opacity="1" fill-rule="nonzero"/></g><g clip-path="url(#343d95537d)"><path fill="#d9d9d9" d="M 658.59375 33.410156 C 658.574219 33.402344 658.554688 33.398438 658.53125 33.382812 C 658.554688 33.398438 658.574219 33.402344 658.59375 33.410156 M 657.914062 33.199219 C 657.902344 33.195312 657.886719 33.195312 657.875 33.1875 C 657.886719 33.195312 657.902344 33.195312 657.914062 33.199219 M 657.265625 33.003906 C 657.226562 32.988281 657.1875 32.984375 657.144531 32.972656 C 657.179688 32.984375 657.226562 32.996094 657.265625 33.003906 M 656.597656 32.8125 C 656.546875 32.792969 656.5 32.78125 656.449219 32.765625 C 656.5 32.78125 656.546875 32.792969 656.597656 32.8125 M 655.945312 32.621094 C 655.882812 32.609375 655.820312 32.589844 655.753906 32.570312 C 655.820312 32.589844 655.882812 32.609375 655.945312 32.621094 M 655.257812 32.429688 C 655.203125 32.417969 655.144531 32.402344 655.09375 32.386719 C 655.152344 32.402344 655.203125 32.417969 655.257812 32.429688 M 654.597656 32.25 C 654.535156 32.230469 654.464844 32.21875 654.398438 32.199219 C 654.46875 32.21875 654.535156 32.230469 654.597656 32.25 M 653.929688 32.078125 C 653.859375 32.058594 653.78125 32.042969 653.710938 32.023438 C 653.789062 32.042969 653.859375 32.058594 653.929688 32.078125 M 653.265625 31.90625 C 653.191406 31.886719 653.113281 31.871094 653.039062 31.851562 C 653.113281 31.871094 653.191406 31.886719 653.265625 31.90625 M 652.546875 31.722656 C 652.492188 31.710938 652.433594 31.699219 652.371094 31.679688 C 652.433594 31.699219 652.492188 31.710938 652.546875 31.722656 M 651.859375 31.558594 C 651.804688 31.542969 651.746094 31.53125 651.6875 31.519531 C 651.746094 31.53125 651.804688 31.542969 651.859375 31.558594 M 651.109375 31.378906 C 651.078125 31.371094 651.046875 31.367188 651.015625 31.359375 C 651.046875 31.367188 651.078125 31.371094 651.109375 31.378906 M 648.265625 30.761719 C 648.199219 30.75 648.128906 30.730469 648.066406 30.71875 C 648.128906 30.730469 648.199219 30.75 648.265625 30.761719 M 647.5625 30.621094 C 647.5 30.601562 647.429688 30.589844 647.359375 30.578125 C 647.429688 30.589844 647.5 30.601562 647.5625 30.621094 M 646.890625 30.488281 C 646.804688 30.46875 646.722656 30.457031 646.640625 30.441406 C 646.722656 30.457031 646.804688 30.46875 646.890625 30.488281 M 646.203125 30.359375 C 646.113281 30.339844 646.015625 30.324219 645.933594 30.308594 C 646.023438 30.324219 646.113281 30.339844 646.203125 30.359375 M 645.507812 30.234375 C 645.417969 30.21875 645.335938 30.203125 645.246094 30.1875 C 645.335938 30.203125 645.417969 30.21875 645.507812 30.234375 M 644.8125 30.113281 C 644.71875 30.097656 644.636719 30.082031 644.539062 30.066406 C 644.628906 30.082031 644.726562 30.097656 644.8125 30.113281 M 644.113281 29.996094 C 644.023438 29.976562 643.941406 29.964844 643.851562 29.953125 C 643.941406 29.964844 644.023438 29.976562 644.113281 29.996094 M 643.433594 29.890625 C 643.332031 29.871094 643.234375 29.859375 643.132812 29.839844 C 643.234375 29.859375 643.332031 29.871094 643.433594 29.890625 M 642.738281 29.78125 C 642.636719 29.761719 642.542969 29.75 642.441406 29.738281 C 642.535156 29.75 642.636719 29.761719 642.738281 29.78125 M 642.050781 29.679688 C 641.949219 29.667969 641.839844 29.648438 641.734375 29.632812 C 641.839844 29.648438 641.949219 29.667969 642.050781 29.679688 M 641.3125 29.578125 C 641.230469 29.566406 641.140625 29.550781 641.058594 29.539062 C 641.140625 29.550781 641.230469 29.566406 641.3125 29.578125 M 640.601562 29.480469 C 640.511719 29.46875 640.429688 29.457031 640.347656 29.445312 C 640.429688 29.457031 640.511719 29.46875 640.601562 29.480469 M 639.882812 29.386719 C 639.804688 29.378906 639.722656 29.367188 639.644531 29.359375 C 639.722656 29.367188 639.804688 29.378906 639.882812 29.386719 M 639.167969 29.304688 C 639.09375 29.296875 639.007812 29.285156 638.933594 29.277344 C 639.007812 29.285156 639.09375 29.296875 639.167969 29.304688 M 637.546875 29.125 C 637.4375 29.113281 637.328125 29.105469 637.21875 29.09375 C 637.328125 29.105469 637.4375 29.113281 637.546875 29.125 M 636.820312 29.054688 C 636.730469 29.042969 636.636719 29.035156 636.550781 29.03125 C 636.640625 29.035156 636.730469 29.042969 636.820312 29.054688 M 636.121094 28.992188 C 636.019531 28.984375 635.914062 28.972656 635.8125 28.964844 C 635.921875 28.972656 636.019531 28.984375 636.121094 28.992188 M 635.394531 28.929688 C 635.296875 28.921875 635.203125 28.914062 635.109375 28.902344 C 635.203125 28.914062 635.296875 28.921875 635.394531 28.929688 M 634.707031 28.878906 C 634.59375 28.863281 634.484375 28.859375 634.367188 28.851562 C 634.476562 28.859375 634.59375 28.863281 634.707031 28.878906 M 633.980469 28.824219 C 633.871094 28.8125 633.765625 28.808594 633.65625 28.800781 C 633.765625 28.808594 633.871094 28.8125 633.980469 28.824219 M 633.273438 28.773438 C 633.167969 28.769531 633.0625 28.761719 632.957031 28.757812 C 633.0625 28.761719 633.167969 28.769531 633.273438 28.773438 M 632.535156 28.738281 C 632.433594 28.730469 632.339844 28.722656 632.238281 28.71875 C 632.332031 28.722656 632.441406 28.730469 632.535156 28.738281 M 631.847656 28.699219 C 631.734375 28.691406 631.625 28.6875 631.511719 28.679688 C 631.621094 28.6875 631.734375 28.691406 631.847656 28.699219 M 631.117188 28.667969 C 631.015625 28.660156 630.898438 28.652344 630.792969 28.652344 C 630.898438 28.652344 631.007812 28.660156 631.117188 28.667969 M 630.398438 28.636719 C 630.289062 28.636719 630.1875 28.628906 630.085938 28.621094 C 630.1875 28.628906 630.289062 28.636719 630.398438 28.636719 M 629.644531 28.609375 C 629.550781 28.609375 629.457031 28.609375 629.359375 28.601562 C 629.457031 28.609375 629.550781 28.609375 629.644531 28.609375 M 628.945312 28.597656 C 628.839844 28.589844 628.742188 28.589844 628.632812 28.589844 C 628.742188 28.589844 628.84375 28.589844 628.945312 28.597656 M 628.1875 28.585938 C 628.097656 28.578125 628.011719 28.578125 627.914062 28.578125 C 628.003906 28.578125 628.097656 28.578125 628.1875 28.585938 M 627.359375 28.570312 C 627.308594 28.570312 627.253906 28.570312 627.203125 28.566406 C 627.253906 28.570312 627.308594 28.570312 627.359375 28.570312 " fill-opacity="1" fill-rule="nonzero"/></g><g clip-path="url(#b901884608)"><path fill="#d66136" d="M 707.140625 573.089844 L 663.71875 573.089844 C 679.011719 573.089844 691.417969 560.691406 691.417969 545.378906 L 691.417969 136.96875 C 691.417969 98.820312 671.71875 65.28125 641.9375 45.972656 L 641.9375 29.679688 C 637.234375 29.011719 632.429688 28.621094 627.53125 28.570312 C 627.660156 28.570312 627.789062 28.578125 627.914062 28.578125 C 628.011719 28.578125 628.097656 28.578125 628.1875 28.585938 C 628.339844 28.585938 628.488281 28.585938 628.632812 28.589844 C 628.742188 28.589844 628.839844 28.589844 628.945312 28.597656 C 629.078125 28.597656 629.21875 28.601562 629.359375 28.601562 C 629.457031 28.609375 629.550781 28.609375 629.644531 28.609375 C 629.792969 28.617188 629.9375 28.621094 630.085938 28.621094 C 630.1875 28.628906 630.289062 28.636719 630.398438 28.636719 C 630.53125 28.640625 630.660156 28.648438 630.792969 28.652344 C 630.898438 28.652344 631.015625 28.660156 631.117188 28.667969 C 631.242188 28.671875 631.378906 28.671875 631.511719 28.679688 C 631.625 28.6875 631.734375 28.691406 631.847656 28.699219 C 631.976562 28.707031 632.101562 28.710938 632.238281 28.71875 C 632.339844 28.722656 632.433594 28.730469 632.535156 28.738281 C 632.675781 28.742188 632.816406 28.75 632.957031 28.757812 C 633.0625 28.761719 633.167969 28.769531 633.273438 28.773438 C 633.402344 28.789062 633.527344 28.792969 633.65625 28.800781 C 633.765625 28.808594 633.871094 28.8125 633.980469 28.824219 C 634.109375 28.832031 634.234375 28.839844 634.367188 28.851562 C 634.484375 28.859375 634.59375 28.863281 634.707031 28.878906 C 634.839844 28.882812 634.972656 28.894531 635.109375 28.902344 C 635.203125 28.914062 635.296875 28.921875 635.394531 28.929688 C 635.535156 28.941406 635.675781 28.953125 635.8125 28.964844 C 635.914062 28.972656 636.019531 28.984375 636.121094 28.992188 C 636.265625 29.003906 636.40625 29.015625 636.550781 29.03125 C 636.636719 29.035156 636.730469 29.042969 636.820312 29.054688 C 636.953125 29.066406 637.085938 29.082031 637.21875 29.09375 C 637.328125 29.105469 637.4375 29.113281 637.546875 29.125 C 638.011719 29.171875 638.46875 29.222656 638.933594 29.277344 C 639.007812 29.285156 639.09375 29.296875 639.167969 29.304688 C 639.328125 29.324219 639.488281 29.34375 639.644531 29.359375 C 639.722656 29.367188 639.804688 29.378906 639.882812 29.386719 C 640.039062 29.40625 640.191406 29.425781 640.347656 29.445312 C 640.429688 29.457031 640.511719 29.46875 640.601562 29.480469 C 640.746094 29.5 640.90625 29.519531 641.058594 29.539062 C 641.140625 29.550781 641.230469 29.566406 641.3125 29.578125 C 641.453125 29.597656 641.59375 29.617188 641.734375 29.632812 C 641.839844 29.648438 641.949219 29.667969 642.050781 29.679688 C 642.179688 29.699219 642.304688 29.71875 642.441406 29.738281 C 642.542969 29.75 642.636719 29.761719 642.738281 29.78125 C 642.871094 29.800781 643.007812 29.820312 643.132812 29.839844 C 643.234375 29.859375 643.332031 29.871094 643.433594 29.890625 C 643.574219 29.910156 643.714844 29.933594 643.851562 29.953125 C 643.941406 29.964844 644.023438 29.976562 644.113281 29.996094 C 644.253906 30.023438 644.402344 30.042969 644.539062 30.066406 C 644.636719 30.082031 644.71875 30.097656 644.8125 30.113281 C 644.960938 30.136719 645.101562 30.164062 645.246094 30.1875 C 645.335938 30.203125 645.417969 30.21875 645.507812 30.234375 C 645.648438 30.257812 645.789062 30.285156 645.933594 30.308594 C 646.015625 30.324219 646.113281 30.339844 646.203125 30.359375 C 646.347656 30.386719 646.496094 30.410156 646.640625 30.441406 C 646.722656 30.457031 646.804688 30.46875 646.890625 30.488281 C 647.042969 30.519531 647.199219 30.550781 647.359375 30.578125 C 647.429688 30.589844 647.5 30.601562 647.5625 30.621094 C 647.734375 30.652344 647.894531 30.683594 648.066406 30.71875 C 648.128906 30.730469 648.199219 30.75 648.265625 30.761719 C 649.179688 30.945312 650.105469 31.144531 651.015625 31.359375 C 651.046875 31.367188 651.078125 31.371094 651.109375 31.378906 C 651.300781 31.421875 651.496094 31.46875 651.6875 31.519531 C 651.746094 31.53125 651.804688 31.542969 651.859375 31.558594 C 652.03125 31.59375 652.203125 31.640625 652.371094 31.679688 C 652.433594 31.699219 652.492188 31.710938 652.546875 31.722656 C 652.714844 31.765625 652.878906 31.804688 653.039062 31.851562 C 653.113281 31.871094 653.191406 31.886719 653.265625 31.90625 C 653.414062 31.945312 653.566406 31.984375 653.710938 32.023438 C 653.78125 32.042969 653.859375 32.058594 653.929688 32.078125 C 654.089844 32.117188 654.246094 32.15625 654.398438 32.199219 C 654.464844 32.21875 654.535156 32.230469 654.597656 32.25 C 654.761719 32.296875 654.929688 32.339844 655.09375 32.386719 C 655.144531 32.402344 655.203125 32.417969 655.257812 32.429688 C 655.425781 32.480469 655.589844 32.523438 655.753906 32.570312 C 655.820312 32.589844 655.882812 32.609375 655.945312 32.621094 C 656.113281 32.671875 656.285156 32.722656 656.449219 32.765625 C 656.5 32.78125 656.546875 32.792969 656.597656 32.8125 C 656.78125 32.863281 656.964844 32.914062 657.144531 32.972656 C 657.1875 32.984375 657.226562 32.988281 657.265625 33.003906 C 657.46875 33.066406 657.671875 33.125 657.875 33.1875 C 657.886719 33.195312 657.902344 33.195312 657.914062 33.199219 C 658.125 33.265625 658.328125 33.320312 658.53125 33.382812 C 658.554688 33.398438 658.574219 33.402344 658.59375 33.410156 C 677.300781 39.210938 693.84375 49.9375 706.683594 64.078125 C 711.347656 69.214844 715.53125 74.789062 719.152344 80.757812 C 726.457031 92.785156 731.492188 106.351562 733.652344 120.855469 C 733.65625 120.875 733.65625 120.882812 733.65625 120.894531 C 733.746094 121.492188 733.828125 122.097656 733.914062 122.695312 C 733.914062 122.726562 733.917969 122.761719 733.925781 122.796875 C 733.957031 123.070312 733.996094 123.347656 734.027344 123.621094 C 734.03125 123.644531 734.03125 123.671875 734.039062 123.695312 C 734.109375 124.289062 734.179688 124.878906 734.238281 125.472656 C 734.242188 125.515625 734.25 125.566406 734.253906 125.613281 C 734.289062 125.90625 734.3125 126.191406 734.34375 126.484375 C 734.371094 126.785156 734.394531 127.082031 734.421875 127.382812 C 734.425781 127.425781 734.433594 127.476562 734.433594 127.523438 C 734.460938 127.765625 734.480469 128.011719 734.496094 128.253906 C 734.503906 128.316406 734.503906 128.382812 734.511719 128.445312 C 734.535156 128.738281 734.554688 129.023438 734.574219 129.316406 C 734.59375 129.605469 734.613281 129.890625 734.632812 130.175781 C 734.636719 130.246094 734.644531 130.324219 734.644531 130.394531 C 734.65625 130.628906 734.667969 130.863281 734.6875 131.101562 C 734.6875 131.15625 734.695312 131.214844 734.695312 131.273438 C 734.707031 131.558594 734.71875 131.84375 734.734375 132.132812 C 734.738281 132.1875 734.738281 132.238281 734.738281 132.296875 C 734.753906 132.527344 734.765625 132.753906 734.769531 132.984375 C 734.769531 133.082031 734.777344 133.175781 734.777344 133.265625 C 734.785156 133.507812 734.796875 133.742188 734.804688 133.976562 C 734.804688 134.023438 734.804688 134.066406 734.804688 134.113281 C 734.808594 134.398438 734.824219 134.683594 734.824219 134.972656 C 734.828125 135.046875 734.828125 135.125 734.828125 135.199219 C 734.828125 135.421875 734.835938 135.640625 734.835938 135.855469 C 734.835938 135.9375 734.835938 136.023438 734.839844 136.105469 C 734.839844 136.390625 734.839844 136.675781 734.839844 136.96875 L 734.839844 545.378906 C 734.839844 560.691406 722.4375 573.089844 707.140625 573.089844 M 627.394531 28.570312 C 627.085938 28.566406 626.777344 28.566406 626.46875 28.566406 C 626.710938 28.566406 626.953125 28.566406 627.203125 28.566406 C 627.253906 28.570312 627.308594 28.570312 627.359375 28.570312 C 627.375 28.570312 627.386719 28.570312 627.394531 28.570312 " fill-opacity="1" fill-rule="nonzero"/></g><g clip-path="url(#7ebe0e5cdb)"><path fill="#b6532e" d="M 641.9375 45.972656 C 635.335938 41.691406 628.246094 38.109375 620.761719 35.328125 L 620.761719 28.566406 L 626.46875 28.566406 C 626.777344 28.566406 627.085938 28.566406 627.394531 28.570312 C 627.4375 28.570312 627.488281 28.570312 627.53125 28.570312 C 632.429688 28.621094 637.234375 29.011719 641.9375 29.679688 L 641.9375 45.972656 " fill-opacity="1" fill-rule="nonzero"/></g><path fill="#c6baaf" d="M 566.167969 336.636719 L 518.882812 336.636719 L 518.882812 313.816406 L 566.167969 313.816406 L 566.167969 336.636719 " fill-opacity="1" fill-rule="nonzero"/><path fill="#c6baaf" d="M 566.167969 375.753906 L 518.882812 375.753906 L 518.882812 352.933594 L 566.167969 352.933594 L 566.167969 375.753906 " fill-opacity="1" fill-rule="nonzero"/><path fill="#8c847d" d="M 219.074219 176.742188 C 218.28125 176.742188 217.476562 176.660156 216.695312 176.507812 C 215.917969 176.347656 215.148438 176.113281 214.410156 175.808594 C 213.675781 175.5 212.964844 175.125 212.308594 174.6875 C 211.640625 174.246094 211.015625 173.730469 210.449219 173.171875 C 209.890625 172.609375 209.382812 171.988281 208.9375 171.320312 C 208.496094 170.65625 208.121094 169.945312 207.816406 169.210938 C 207.511719 168.472656 207.273438 167.707031 207.121094 166.933594 C 206.960938 166.144531 206.878906 165.339844 206.878906 164.542969 C 206.878906 163.75 206.960938 162.945312 207.121094 162.164062 C 207.273438 161.386719 207.511719 160.617188 207.816406 159.878906 C 208.121094 159.144531 208.496094 158.4375 208.9375 157.777344 C 209.382812 157.109375 209.890625 156.484375 210.449219 155.917969 C 211.015625 155.359375 211.640625 154.847656 212.308594 154.402344 C 212.964844 153.964844 213.675781 153.585938 214.410156 153.28125 C 215.148438 152.976562 215.917969 152.742188 216.695312 152.589844 C 218.265625 152.269531 219.890625 152.269531 221.457031 152.589844 C 222.230469 152.742188 223.007812 152.976562 223.742188 153.28125 C 224.472656 153.585938 225.1875 153.964844 225.839844 154.402344 C 226.507812 154.847656 227.132812 155.359375 227.699219 155.917969 C 228.261719 156.484375 228.769531 157.109375 229.214844 157.777344 C 229.652344 158.4375 230.035156 159.144531 230.339844 159.878906 C 230.640625 160.617188 230.875 161.386719 231.035156 162.164062 C 231.195312 162.945312 231.269531 163.75 231.269531 164.542969 C 231.269531 165.339844 231.195312 166.144531 231.035156 166.933594 C 230.875 167.707031 230.640625 168.472656 230.339844 169.210938 C 230.035156 169.945312 229.652344 170.65625 229.214844 171.320312 C 228.769531 171.988281 228.261719 172.609375 227.699219 173.171875 C 227.132812 173.730469 226.507812 174.246094 225.839844 174.6875 C 225.1875 175.125 224.472656 175.5 223.742188 175.808594 C 223.007812 176.113281 222.230469 176.347656 221.457031 176.507812 C 220.671875 176.660156 219.871094 176.742188 219.074219 176.742188 " fill-opacity="1" fill-rule="nonzero"/><path fill="#8c847d" d="M 219.074219 259.867188 C 218.28125 259.867188 217.476562 259.785156 216.695312 259.632812 C 215.917969 259.472656 215.148438 259.234375 214.410156 258.929688 C 213.675781 258.625 212.964844 258.25 212.308594 257.808594 C 211.640625 257.371094 211.015625 256.855469 210.449219 256.292969 C 209.890625 255.734375 209.382812 255.109375 208.9375 254.441406 C 208.496094 253.78125 208.121094 253.066406 207.816406 252.335938 C 207.511719 251.597656 207.273438 250.832031 207.121094 250.054688 C 206.960938 249.265625 206.878906 248.464844 206.878906 247.667969 C 206.878906 246.871094 206.960938 246.070312 207.121094 245.285156 C 207.273438 244.511719 207.511719 243.738281 207.816406 243 C 208.121094 242.269531 208.496094 241.5625 208.9375 240.898438 C 209.382812 240.230469 209.890625 239.609375 210.449219 239.042969 C 211.015625 238.480469 211.640625 237.972656 212.308594 237.527344 C 212.964844 237.085938 213.675781 236.710938 214.410156 236.40625 C 215.148438 236.101562 215.917969 235.863281 216.695312 235.710938 C 218.265625 235.394531 219.890625 235.394531 221.457031 235.710938 C 222.230469 235.863281 223.007812 236.101562 223.742188 236.40625 C 224.472656 236.710938 225.1875 237.085938 225.839844 237.527344 C 226.507812 237.972656 227.132812 238.480469 227.699219 239.042969 C 228.261719 239.609375 228.769531 240.230469 229.214844 240.898438 C 229.652344 241.5625 230.035156 242.269531 230.339844 243 C 230.640625 243.738281 230.875 244.511719 231.035156 245.285156 C 231.195312 246.070312 231.269531 246.871094 231.269531 247.667969 C 231.269531 248.464844 231.195312 249.265625 231.035156 250.054688 C 230.875 250.832031 230.640625 251.597656 230.339844 252.335938 C 230.035156 253.066406 229.652344 253.78125 229.214844 254.441406 C 228.769531 255.109375 228.261719 255.734375 227.699219 256.292969 C 227.132812 256.855469 226.507812 257.371094 225.839844 257.808594 C 225.1875 258.25 224.472656 258.625 223.742188 258.929688 C 223.007812 259.234375 222.230469 259.472656 221.457031 259.632812 C 220.671875 259.785156 219.871094 259.867188 219.074219 259.867188 " fill-opacity="1" fill-rule="nonzero"/><path fill="#8c847d" d="M 219.074219 219.949219 C 218.28125 219.949219 217.476562 219.863281 216.695312 219.707031 C 215.917969 219.546875 215.148438 219.3125 214.410156 219.011719 C 213.675781 218.707031 212.964844 218.332031 212.308594 217.882812 C 211.640625 217.445312 211.015625 216.9375 210.449219 216.375 C 209.890625 215.808594 209.382812 215.183594 208.9375 214.515625 C 208.496094 213.855469 208.121094 213.148438 207.816406 212.410156 C 207.511719 211.675781 207.273438 210.90625 207.121094 210.128906 C 206.960938 209.339844 206.878906 208.539062 206.878906 207.742188 C 206.878906 206.953125 206.960938 206.152344 207.121094 205.363281 C 207.273438 204.585938 207.511719 203.8125 207.816406 203.082031 C 208.121094 202.34375 208.496094 201.636719 208.9375 200.976562 C 209.382812 200.304688 209.890625 199.683594 210.449219 199.121094 C 211.015625 198.554688 211.640625 198.046875 212.308594 197.605469 C 212.964844 197.167969 213.675781 196.785156 214.410156 196.480469 C 215.148438 196.179688 215.917969 195.945312 216.695312 195.785156 C 218.265625 195.46875 219.890625 195.46875 221.457031 195.785156 C 222.230469 195.945312 223.007812 196.179688 223.742188 196.480469 C 224.472656 196.785156 225.1875 197.167969 225.839844 197.605469 C 226.507812 198.046875 227.132812 198.554688 227.699219 199.121094 C 228.261719 199.683594 228.769531 200.304688 229.214844 200.976562 C 229.652344 201.636719 230.035156 202.34375 230.339844 203.082031 C 230.640625 203.8125 230.875 204.585938 231.035156 205.363281 C 231.195312 206.152344 231.269531 206.953125 231.269531 207.742188 C 231.269531 208.539062 231.195312 209.339844 231.035156 210.128906 C 230.875 210.90625 230.640625 211.675781 230.339844 212.410156 C 230.035156 213.148438 229.652344 213.855469 229.214844 214.515625 C 228.769531 215.183594 228.261719 215.808594 227.699219 216.375 C 227.132812 216.9375 226.507812 217.445312 225.839844 217.882812 C 225.1875 218.332031 224.472656 218.707031 223.742188 219.011719 C 223.007812 219.3125 222.230469 219.546875 221.457031 219.707031 C 220.671875 219.863281 219.871094 219.949219 219.074219 219.949219 " fill-opacity="1" fill-rule="nonzero"/><path fill="#8c847d" d="M 173.859375 219.949219 C 173.0625 219.949219 172.261719 219.863281 171.476562 219.707031 C 170.699219 219.546875 169.929688 219.3125 169.191406 219.011719 C 168.460938 218.707031 167.746094 218.332031 167.089844 217.882812 C 166.421875 217.445312 165.800781 216.9375 165.234375 216.375 C 164.671875 215.808594 164.164062 215.183594 163.71875 214.515625 C 163.277344 213.855469 162.902344 213.148438 162.597656 212.410156 C 162.292969 211.675781 162.058594 210.90625 161.902344 210.128906 C 161.746094 209.339844 161.664062 208.539062 161.664062 207.742188 C 161.664062 206.953125 161.746094 206.152344 161.902344 205.363281 C 162.058594 204.585938 162.292969 203.8125 162.597656 203.082031 C 162.902344 202.34375 163.277344 201.636719 163.71875 200.976562 C 164.164062 200.304688 164.671875 199.683594 165.234375 199.121094 C 165.800781 198.554688 166.421875 198.046875 167.089844 197.605469 C 167.746094 197.167969 168.460938 196.785156 169.191406 196.480469 C 169.929688 196.179688 170.699219 195.945312 171.476562 195.785156 C 173.050781 195.46875 174.671875 195.46875 176.238281 195.785156 C 177.015625 195.945312 177.792969 196.179688 178.523438 196.480469 C 179.253906 196.785156 179.96875 197.167969 180.625 197.605469 C 181.292969 198.046875 181.914062 198.554688 182.484375 199.121094 C 183.042969 199.683594 183.550781 200.304688 183.996094 200.976562 C 184.4375 201.636719 184.820312 202.34375 185.125 203.082031 C 185.421875 203.8125 185.660156 204.585938 185.816406 205.363281 C 185.976562 206.152344 186.054688 206.953125 186.054688 207.742188 C 186.054688 208.539062 185.976562 209.339844 185.816406 210.128906 C 185.660156 210.90625 185.421875 211.675781 185.125 212.410156 C 184.820312 213.148438 184.4375 213.855469 183.996094 214.515625 C 183.550781 215.183594 183.042969 215.808594 182.484375 216.375 C 181.914062 216.9375 181.292969 217.445312 180.625 217.882812 C 179.96875 218.332031 179.253906 218.707031 178.523438 219.011719 C 177.792969 219.3125 177.015625 219.546875 176.238281 219.707031 C 175.457031 219.863281 174.652344 219.949219 173.859375 219.949219 " fill-opacity="1" fill-rule="nonzero"/><path fill="#8c847d" d="M 186.054688 191.015625 C 185.257812 191.015625 184.457031 190.933594 183.671875 190.777344 C 182.894531 190.617188 182.125 190.378906 181.394531 190.082031 C 180.65625 189.777344 179.941406 189.398438 179.28125 188.953125 C 178.617188 188.515625 177.996094 188.007812 177.429688 187.4375 C 176.867188 186.878906 176.359375 186.253906 175.914062 185.585938 C 175.472656 184.925781 175.097656 184.21875 174.792969 183.480469 C 174.488281 182.746094 174.253906 181.976562 174.101562 181.199219 C 173.941406 180.410156 173.859375 179.609375 173.859375 178.8125 C 173.859375 178.023438 173.941406 177.222656 174.101562 176.429688 C 174.253906 175.65625 174.488281 174.882812 174.792969 174.152344 C 175.097656 173.414062 175.472656 172.707031 175.914062 172.042969 C 176.359375 171.375 176.867188 170.753906 177.429688 170.191406 C 177.996094 169.625 178.617188 169.117188 179.28125 168.675781 C 179.941406 168.238281 180.65625 167.855469 181.386719 167.550781 C 182.125 167.25 182.894531 167.015625 183.667969 166.855469 C 185.246094 166.539062 186.863281 166.539062 188.433594 166.855469 C 189.214844 167.015625 189.980469 167.25 190.71875 167.550781 C 191.457031 167.855469 192.164062 168.238281 192.820312 168.675781 C 193.492188 169.117188 194.117188 169.625 194.679688 170.191406 C 195.238281 170.753906 195.746094 171.375 196.191406 172.042969 C 196.632812 172.707031 197.007812 173.414062 197.3125 174.152344 C 197.617188 174.882812 197.855469 175.65625 198.007812 176.429688 C 198.171875 177.222656 198.25 178.023438 198.25 178.8125 C 198.25 179.609375 198.171875 180.410156 198.007812 181.199219 C 197.855469 181.976562 197.617188 182.746094 197.3125 183.480469 C 197.007812 184.21875 196.632812 184.925781 196.191406 185.585938 C 195.746094 186.253906 195.238281 186.878906 194.679688 187.4375 C 194.117188 188.007812 193.492188 188.515625 192.820312 188.953125 C 192.164062 189.398438 191.457031 189.777344 190.71875 190.082031 C 189.980469 190.378906 189.214844 190.617188 188.433594 190.777344 C 187.652344 190.933594 186.847656 191.015625 186.054688 191.015625 " fill-opacity="1" fill-rule="nonzero"/><path fill="#8c847d" d="M 251.230469 191.015625 C 250.4375 191.015625 249.632812 190.933594 248.851562 190.777344 C 248.066406 190.617188 247.304688 190.378906 246.566406 190.082031 C 245.832031 189.777344 245.121094 189.398438 244.457031 188.953125 C 243.796875 188.515625 243.171875 188.007812 242.605469 187.4375 C 242.046875 186.878906 241.539062 186.253906 241.09375 185.585938 C 240.652344 184.925781 240.277344 184.21875 239.972656 183.480469 C 239.667969 182.746094 239.429688 181.976562 239.277344 181.199219 C 239.117188 180.410156 239.035156 179.609375 239.035156 178.8125 C 239.035156 178.023438 239.117188 177.222656 239.277344 176.429688 C 239.429688 175.65625 239.667969 174.882812 239.972656 174.152344 C 240.277344 173.414062 240.652344 172.707031 241.09375 172.042969 C 241.539062 171.375 242.046875 170.753906 242.605469 170.191406 C 243.171875 169.625 243.796875 169.117188 244.457031 168.675781 C 245.121094 168.238281 245.832031 167.855469 246.566406 167.550781 C 247.304688 167.25 248.066406 167.015625 248.851562 166.855469 C 250.421875 166.539062 252.039062 166.539062 253.613281 166.855469 C 254.386719 167.015625 255.160156 167.25 255.898438 167.550781 C 256.628906 167.855469 257.339844 168.238281 258.003906 168.675781 C 258.664062 169.117188 259.296875 169.625 259.855469 170.191406 C 260.417969 170.753906 260.925781 171.375 261.371094 172.042969 C 261.808594 172.707031 262.1875 173.414062 262.492188 174.152344 C 262.796875 174.882812 263.03125 175.65625 263.191406 176.429688 C 263.34375 177.222656 263.425781 178.023438 263.425781 178.8125 C 263.425781 179.609375 263.34375 180.410156 263.191406 181.199219 C 263.03125 181.976562 262.796875 182.746094 262.492188 183.480469 C 262.1875 184.21875 261.808594 184.925781 261.371094 185.585938 C 260.925781 186.253906 260.417969 186.878906 259.855469 187.4375 C 259.296875 188.007812 258.664062 188.515625 258.003906 188.953125 C 257.339844 189.398438 256.628906 189.777344 255.898438 190.082031 C 255.160156 190.378906 254.386719 190.617188 253.613281 190.777344 C 252.828125 190.933594 252.027344 191.015625 251.230469 191.015625 " fill-opacity="1" fill-rule="nonzero"/><path fill="#8c847d" d="M 186.054688 248.878906 C 185.257812 248.878906 184.457031 248.796875 183.671875 248.636719 C 182.894531 248.476562 182.125 248.242188 181.394531 247.941406 C 180.65625 247.636719 179.941406 247.261719 179.28125 246.816406 C 178.617188 246.375 177.996094 245.867188 177.429688 245.304688 C 176.867188 244.738281 176.359375 244.117188 175.914062 243.445312 C 175.472656 242.785156 175.097656 242.078125 174.792969 241.339844 C 174.488281 240.605469 174.253906 239.835938 174.101562 239.058594 C 173.941406 238.269531 173.859375 237.46875 173.859375 236.671875 C 173.859375 235.882812 173.941406 235.082031 174.101562 234.292969 C 174.253906 233.515625 174.488281 232.746094 174.792969 232.011719 C 175.097656 231.273438 175.472656 230.566406 175.914062 229.90625 C 176.359375 229.238281 176.867188 228.613281 177.429688 228.050781 C 177.996094 227.484375 178.617188 226.976562 179.28125 226.535156 C 179.941406 226.097656 180.65625 225.714844 181.386719 225.410156 C 182.125 225.109375 182.894531 224.875 183.667969 224.714844 C 185.246094 224.398438 186.863281 224.398438 188.433594 224.714844 C 189.214844 224.875 189.980469 225.109375 190.71875 225.410156 C 191.457031 225.714844 192.164062 226.097656 192.820312 226.535156 C 193.492188 226.976562 194.117188 227.484375 194.679688 228.050781 C 195.238281 228.613281 195.746094 229.238281 196.191406 229.90625 C 196.632812 230.566406 197.007812 231.273438 197.3125 232.011719 C 197.617188 232.746094 197.855469 233.515625 198.007812 234.292969 C 198.171875 235.082031 198.25 235.882812 198.25 236.671875 C 198.25 237.46875 198.171875 238.269531 198.007812 239.058594 C 197.855469 239.835938 197.617188 240.605469 197.3125 241.339844 C 197.007812 242.078125 196.632812 242.785156 196.191406 243.445312 C 195.746094 244.117188 195.238281 244.738281 194.679688 245.304688 C 194.117188 245.867188 193.492188 246.375 192.820312 246.816406 C 192.164062 247.261719 191.457031 247.636719 190.71875 247.941406 C 189.980469 248.242188 189.214844 248.476562 188.433594 248.636719 C 187.652344 248.796875 186.847656 248.878906 186.054688 248.878906 " fill-opacity="1" fill-rule="nonzero"/><path fill="#8c847d" d="M 251.230469 248.878906 C 250.4375 248.878906 249.632812 248.796875 248.851562 248.636719 C 248.066406 248.476562 247.304688 248.242188 246.566406 247.941406 C 245.832031 247.636719 245.121094 247.261719 244.457031 246.816406 C 243.796875 246.375 243.171875 245.867188 242.605469 245.304688 C 242.046875 244.738281 241.539062 244.117188 241.09375 243.445312 C 240.652344 242.785156 240.277344 242.078125 239.972656 241.339844 C 239.667969 240.605469 239.429688 239.835938 239.277344 239.058594 C 239.117188 238.269531 239.035156 237.46875 239.035156 236.671875 C 239.035156 235.882812 239.117188 235.082031 239.277344 234.292969 C 239.429688 233.515625 239.667969 232.746094 239.972656 232.011719 C 240.277344 231.273438 240.652344 230.566406 241.09375 229.90625 C 241.539062 229.238281 242.046875 228.613281 242.605469 228.050781 C 243.171875 227.484375 243.796875 226.976562 244.457031 226.535156 C 245.121094 226.097656 245.832031 225.714844 246.566406 225.410156 C 247.304688 225.109375 248.066406 224.875 248.851562 224.714844 C 250.421875 224.398438 252.039062 224.398438 253.613281 224.714844 C 254.386719 224.875 255.160156 225.109375 255.898438 225.410156 C 256.628906 225.714844 257.339844 226.097656 258.003906 226.535156 C 258.664062 226.976562 259.296875 227.484375 259.855469 228.050781 C 260.417969 228.613281 260.925781 229.238281 261.371094 229.90625 C 261.808594 230.566406 262.1875 231.273438 262.492188 232.011719 C 262.796875 232.746094 263.03125 233.515625 263.191406 234.292969 C 263.34375 235.082031 263.425781 235.882812 263.425781 236.671875 C 263.425781 237.46875 263.34375 238.269531 263.191406 239.058594 C 263.03125 239.835938 262.796875 240.605469 262.492188 241.339844 C 262.1875 242.078125 261.808594 242.785156 261.371094 243.445312 C 260.925781 244.117188 260.417969 244.738281 259.855469 245.304688 C 259.296875 245.867188 258.664062 246.375 258.003906 246.816406 C 257.339844 247.261719 256.628906 247.636719 255.898438 247.941406 C 255.160156 248.242188 254.386719 248.476562 253.613281 248.636719 C 252.828125 248.796875 252.027344 248.878906 251.230469 248.878906 " fill-opacity="1" fill-rule="nonzero"/><path fill="#8c847d" d="M 266.738281 219.949219 C 265.941406 219.949219 265.140625 219.863281 264.355469 219.707031 C 263.578125 219.546875 262.808594 219.3125 262.078125 219.011719 C 261.339844 218.707031 260.625 218.332031 259.96875 217.882812 C 259.300781 217.445312 258.679688 216.9375 258.113281 216.375 C 257.550781 215.808594 257.042969 215.183594 256.597656 214.515625 C 256.15625 213.855469 255.78125 213.148438 255.476562 212.410156 C 255.171875 211.675781 254.9375 210.90625 254.78125 210.128906 C 254.625 209.339844 254.542969 208.539062 254.542969 207.742188 C 254.542969 206.953125 254.625 206.152344 254.78125 205.363281 C 254.9375 204.585938 255.171875 203.8125 255.476562 203.082031 C 255.78125 202.34375 256.15625 201.636719 256.597656 200.976562 C 257.042969 200.304688 257.550781 199.683594 258.113281 199.121094 C 258.679688 198.554688 259.300781 198.046875 259.96875 197.605469 C 260.625 197.167969 261.339844 196.785156 262.070312 196.480469 C 262.808594 196.179688 263.578125 195.945312 264.351562 195.785156 C 265.929688 195.46875 267.546875 195.46875 269.117188 195.785156 C 269.898438 195.945312 270.664062 196.179688 271.402344 196.480469 C 272.140625 196.785156 272.847656 197.167969 273.507812 197.605469 C 274.175781 198.046875 274.800781 198.554688 275.359375 199.121094 C 275.921875 199.683594 276.429688 200.304688 276.875 200.976562 C 277.316406 201.636719 277.695312 202.34375 277.996094 203.082031 C 278.300781 203.8125 278.539062 204.585938 278.695312 205.363281 C 278.855469 206.152344 278.933594 206.953125 278.933594 207.742188 C 278.933594 208.539062 278.855469 209.339844 278.695312 210.128906 C 278.539062 210.90625 278.300781 211.675781 277.996094 212.410156 C 277.695312 213.148438 277.316406 213.855469 276.875 214.515625 C 276.429688 215.183594 275.921875 215.808594 275.359375 216.375 C 274.800781 216.9375 274.175781 217.445312 273.507812 217.882812 C 272.847656 218.332031 272.140625 218.707031 271.402344 219.011719 C 270.664062 219.3125 269.898438 219.546875 269.117188 219.707031 C 268.335938 219.863281 267.53125 219.949219 266.738281 219.949219 " fill-opacity="1" fill-rule="nonzero"/><path fill="#726c67" d="M 694.105469 757.140625 L 671.292969 757.140625 L 671.292969 618.914062 L 694.105469 618.914062 L 694.105469 757.140625 " fill-opacity="1" fill-rule="nonzero"/><path fill="#842920" d="M 553.941406 450.726562 L 531.128906 450.726562 L 531.128906 401.015625 L 553.941406 401.015625 L 553.941406 450.726562 " fill-opacity="1" fill-rule="nonzero"/></svg>