<svg xmlns="http://www.w3.org/2000/svg" xmlns:xlink="http://www.w3.org/1999/xlink" width="1080" zoomAndPan="magnify" viewBox="0 0 810 809.999993" height="1080" preserveAspectRatio="xMidYMid meet" version="1.0"><defs><clipPath id="b3fba503c0"><path d="M 77 180.035156 L 752.90625 180.035156 L 752.90625 658.535156 L 77 658.535156 Z M 77 180.035156 " clip-rule="nonzero"/></clipPath></defs><rect x="-81" width="972" fill="#ffffff" y="-80.999999" height="971.999992" fill-opacity="1"/><rect x="-81" width="972" fill="#ffffff" y="-80.999999" height="971.999992" fill-opacity="1"/><path fill="#9dcdff" d="M 749.617188 534.375 C 712.6875 569.226562 615.761719 598.851562 515.390625 628.15625 L 181.738281 415.082031 C 355.164062 356.160156 565.863281 317.15625 746.675781 289.453125 Z M 749.617188 534.375 " fill-opacity="1" fill-rule="nonzero"/><path fill="#67b0ff" d="M 749.3125 508.890625 C 713.949219 533.039062 605.667969 507.152344 535.160156 529.652344 C 586.625 466.390625 710.328125 524.898438 749.007812 484.207031 Z M 749.3125 508.890625 " fill-opacity="1" fill-rule="nonzero"/><path fill="#8888e8" d="M 746.683594 258.96875 L 746.683594 289.460938 C 565.5625 368.898438 451.191406 335.449219 212.894531 421.878906 C 163.875 429.355469 56.898438 391.15625 292.019531 351.535156 C 379.695312 336.726562 502.433594 280.339844 712.21875 248.277344 C 733.96875 244.957031 733.070312 250.882812 746.683594 258.96875 Z M 746.683594 258.96875 " fill-opacity="1" fill-rule="nonzero"/><path fill="#a4a4f7" d="M 518.269531 600.167969 L 166.121094 395.371094 L 746.683594 258.964844 L 746.683594 221.054688 L 80.621094 386.980469 L 511.835938 655.367188 L 749.625 584.441406 L 749.625 534.378906 Z M 518.269531 600.167969 " fill-opacity="1" fill-rule="nonzero"/><path fill="#f0e3e7" d="M 395.882812 324.53125 C 395.347656 359.453125 392.261719 403.085938 391.191406 411.855469 C 383.296875 415.855469 373.464844 416.5625 360.632812 411.550781 C 361.078125 408.414062 364.035156 376.871094 365.542969 348.519531 C 366.65625 327.257812 367.628906 298.667969 365.730469 277.367188 C 363.371094 250.59375 352.46875 241.65625 350.164062 241.65625 L 350.121094 241.65625 C 348.222656 241.773438 336.046875 253.214844 337.710938 299.730469 C 330.746094 305.308594 317.929688 304.730469 308.777344 300.773438 C 305.921875 221.546875 338.320312 213.363281 348.308594 212.742188 C 360.386719 211.988281 372.234375 218.8125 380.777344 231.445312 C 388.277344 242.570312 393.058594 257.5625 394.578125 274.816406 C 395.984375 290.574219 396.097656 308.667969 395.882812 324.53125 Z M 395.882812 324.53125 " fill-opacity="1" fill-rule="nonzero"/><path fill="#f0e3e7" d="M 497.210938 379.929688 C 485.378906 382.96875 475.9375 387.171875 468.824219 391.15625 C 468.972656 389.910156 478.050781 294.851562 473.953125 248.554688 C 471.578125 221.769531 460.6875 212.828125 458.386719 212.828125 C 458.371094 212.828125 458.339844 212.828125 458.328125 212.84375 C 456.429688 212.960938 444.265625 224.386719 445.929688 270.917969 C 437.761719 276.613281 426.292969 275.917969 416.996094 271.960938 C 414.144531 192.734375 446.539062 184.535156 456.53125 183.914062 C 468.621094 183.160156 480.453125 189.984375 489 202.632812 C 496.5 213.742188 501.277344 228.734375 502.800781 246.003906 C 507.1875 295.488281 497.617188 376.683594 497.210938 379.929688 Z M 497.210938 379.929688 " fill-opacity="1" fill-rule="nonzero"/><path fill="#67b0ff" d="M 452.246094 403.164062 C 452.246094 403.164062 487.980469 387.613281 544.238281 394.871094 C 608.539062 403.164062 669.359375 394.871094 654 351.535156 C 639.359375 389.980469 594.046875 376.566406 536.703125 375.523438 C 496.554688 374.804688 463.160156 391.605469 452.246094 403.164062 Z M 452.246094 403.164062 " fill-opacity="1" fill-rule="nonzero"/><g clip-path="url(#b3fba503c0)"><path fill="#000000" d="M 748.789062 581.664062 L 512.25 652.214844 L 87.964844 388.136719 L 363.757812 319.433594 C 363.578125 327.597656 363.246094 336.5 362.761719 346.183594 L 165.445312 392.546875 C 162.902344 393.144531 162.394531 396.558594 164.652344 397.871094 L 516.816406 602.679688 C 517.484375 603.066406 518.292969 603.179688 519.0625 602.960938 L 750.40625 537.164062 C 751.945312 536.726562 752.835938 535.125 752.398438 533.582031 C 751.960938 532.042969 750.355469 531.152344 748.820312 531.589844 L 518.664062 597.050781 L 219.015625 422.785156 C 262.464844 407.539062 301.957031 394.621094 360.449219 381.261719 C 359.203125 397.195312 358.003906 409.480469 357.765625 411.144531 C 357.542969 412.726562 358.644531 414.195312 360.226562 414.417969 C 361.820312 414.644531 363.273438 413.542969 363.503906 411.957031 C 364.5625 404.480469 372.4375 319.976562 368.617188 277.109375 C 366.589844 254.105469 358.179688 242.320312 352.597656 239.457031 C 350.554688 238.410156 349.109375 238.539062 347.277344 239.925781 C 341.601562 244.234375 333.660156 260.96875 334.765625 298.277344 C 328.769531 302.0625 318.957031 301.460938 311.609375 298.785156 C 309.410156 223.929688 339.234375 216.210938 348.492188 215.632812 C 359.542969 214.945312 370.421875 221.296875 378.378906 233.0625 C 385.617188 243.796875 390.21875 258.324219 391.695312 275.074219 C 395.472656 317.410156 390.125 396.679688 388.316406 411.503906 C 388.121094 413.09375 389.25 414.539062 390.839844 414.730469 C 392.453125 414.921875 393.875 413.777344 394.066406 412.207031 C 394.6875 407.125 395.863281 391.871094 396.898438 373.511719 C 423.335938 368.269531 447.695312 364.257812 468.433594 361 C 467.382812 375.132812 466.429688 385.703125 466.085938 389.394531 C 455.578125 395.492188 450.367188 400.941406 450.140625 401.179688 C 448.390625 403.03125 449.730469 406.066406 452.246094 406.066406 C 453.011719 406.066406 453.78125 405.761719 454.347656 405.164062 C 458.894531 400.371094 469.445312 393.082031 482.710938 387.726562 C 512.714844 375.613281 539.871094 378.070312 570.722656 380.113281 C 611.863281 382.835938 644.367188 384.988281 656.710938 352.574219 C 657.277344 351.082031 656.527344 349.40625 655.035156 348.835938 C 653.539062 348.269531 651.867188 349.015625 651.296875 350.511719 C 640.476562 378.921875 611.378906 376.996094 571.105469 374.332031 C 544.519531 372.574219 523.96875 370.914062 500.558594 376.164062 C 501.023438 371.972656 501.785156 364.816406 502.617188 355.753906 C 581.78125 343.707031 656.785156 332.050781 747.839844 292.117188 C 749.308594 291.476562 749.976562 289.765625 749.332031 288.300781 C 748.691406 286.835938 746.976562 286.167969 745.515625 286.808594 C 655.695312 326.203125 581.410156 337.902344 503.148438 349.8125 C 503.953125 340.605469 504.777344 329.917969 505.441406 318.621094 L 747.339844 261.792969 C 748.898438 261.425781 749.863281 259.867188 749.5 258.308594 C 749.132812 256.75 747.566406 255.785156 746.015625 256.152344 L 505.777344 312.585938 C 506.273438 303.140625 506.640625 293.386719 506.773438 283.8125 L 747.378906 223.871094 C 748.929688 223.484375 749.875 221.910156 749.488281 220.359375 C 749.101562 218.804688 747.527344 217.867188 745.976562 218.246094 L 506.828125 277.824219 C 506.921875 251.539062 506.132812 222.84375 491.398438 201.019531 C 482.261719 187.5 469.457031 180.210938 456.351562 181.03125 C 445.695312 181.695312 411.15625 190.222656 414.101562 272.078125 C 414.140625 273.199219 414.828125 274.199219 415.863281 274.640625 C 424.8125 278.449219 437.847656 280.09375 447.585938 273.308594 C 448.394531 272.746094 448.859375 271.808594 448.824219 270.828125 C 447.480469 233.363281 455.441406 218.988281 458.601562 216.042969 C 461.296875 217.914062 469.105469 226.710938 471.0625 248.820312 C 471.996094 259.347656 472.234375 272.484375 472.046875 286.484375 L 398.8125 304.734375 C 398.507812 278.792969 397.582031 251.207031 383.171875 229.832031 C 374.035156 216.320312 361.234375 209.039062 348.128906 209.863281 C 337.472656 210.527344 302.929688 219.054688 305.875 300.890625 C 305.917969 302.007812 306.597656 303.003906 307.625 303.445312 C 317.335938 307.644531 331.410156 308.496094 339.515625 302.003906 C 340.230469 301.433594 340.632812 300.554688 340.601562 299.640625 C 339.261719 262.234375 347.207031 247.847656 350.375 244.871094 C 353.074219 246.738281 360.894531 255.53125 362.839844 277.636719 C 363.703125 287.300781 364.039062 299.164062 363.855469 313.445312 L 79.925781 384.167969 C 77.449219 384.785156 76.925781 388.089844 79.09375 389.441406 L 510.296875 657.828125 C 511.003906 658.265625 511.867188 658.378906 512.65625 658.144531 L 750.441406 587.21875 C 751.976562 586.761719 752.847656 585.144531 752.390625 583.613281 C 751.933594 582.078125 750.320312 581.207031 748.789062 581.664062 Z M 397.21875 367.539062 C 397.621094 359.855469 397.988281 351.785156 398.273438 343.792969 L 470.625 326.796875 C 470.09375 336.820312 469.472656 346.453125 468.863281 355.066406 C 448.15625 358.3125 423.765625 362.304688 397.21875 367.539062 Z M 453.65625 212.871094 C 448.265625 219.117188 442.007812 236.003906 442.980469 269.371094 C 435.902344 273.476562 426.785156 272.523438 419.828125 269.972656 C 417.628906 195.121094 447.449219 187.386719 456.707031 186.8125 C 467.746094 186.113281 478.640625 192.484375 486.59375 204.257812 C 493.832031 214.972656 498.4375 229.5 499.910156 246.265625 C 503.179688 283.121094 498.664062 341.710938 494.558594 377.640625 C 486.65625 379.796875 479.164062 382.632812 472.199219 386.101562 C 475.382812 350.503906 479.996094 283.988281 476.835938 248.300781 C 475.050781 228.15625 468.386719 216.609375 463.03125 212.125 C 459.332031 209.03125 456.804688 209.21875 453.65625 212.871094 Z M 471.945312 292.472656 C 471.75 301.808594 471.386719 311.402344 470.929688 320.773438 L 398.46875 337.792969 C 398.746094 328.675781 398.878906 320.378906 398.855469 310.6875 Z M 212.363281 418.914062 L 173.859375 396.523438 L 362.4375 352.210938 C 361.992188 360.027344 361.460938 367.890625 360.914062 375.214844 C 276.488281 394.367188 221.964844 416.003906 212.363281 418.914062 Z M 212.363281 418.914062 " fill-opacity="1" fill-rule="nonzero"/></g></svg>