<svg xmlns="http://www.w3.org/2000/svg" xmlns:xlink="http://www.w3.org/1999/xlink" width="1080" zoomAndPan="magnify" viewBox="0 0 810 809.999993" height="1080" preserveAspectRatio="xMidYMid meet" version="1.0"><defs><clipPath id="ed3ae4888a"><path d="M 66.640625 731.308594 L 212.960938 731.308594 L 212.960938 737.839844 L 66.640625 737.839844 Z M 66.640625 731.308594 " clip-rule="nonzero"/></clipPath><clipPath id="0a7b133e61"><path d="M 664.414062 341 L 735.101562 341 L 735.101562 490.390625 L 664.414062 490.390625 Z M 664.414062 341 " clip-rule="nonzero"/></clipPath></defs><rect x="-81" width="972" fill="#ffffff" y="-80.999999" height="971.999992" fill-opacity="1"/><rect x="-81" width="972" fill="#ffffff" y="-80.999999" height="971.999992" fill-opacity="1"/><path fill="#5cbec6" d="M 644.945312 676.859375 C 644.945312 682.097656 528.554688 686.34375 384.972656 686.34375 C 241.390625 686.34375 124.996094 682.097656 124.996094 676.859375 C 124.996094 671.621094 241.390625 667.375 384.972656 667.375 C 528.554688 667.375 644.945312 671.621094 644.945312 676.859375 " fill-opacity="1" fill-rule="nonzero"/><path fill="#ffd45c" d="M 289.078125 72.085938 L 255.96875 92.269531 L 196.902344 153.40625 L 187.351562 173.820312 L 187.351562 679.75 L 597.917969 679.75 L 597.917969 72.085938 L 289.078125 72.085938 " fill-opacity="1" fill-rule="nonzero"/><path fill="#f4b442" d="M 518.855469 565.789062 L 448.140625 565.789062 L 448.140625 553.210938 L 518.855469 553.210938 L 518.855469 565.789062 " fill-opacity="1" fill-rule="nonzero"/><path fill="#ffffff" d="M 246.273438 233.320312 L 249.703125 233.320312 C 254.117188 233.320312 255.84375 231.421875 255.84375 227.292969 C 255.84375 223.773438 254.164062 221.734375 250.421875 221.734375 L 246.273438 221.734375 Z M 246.273438 239.242188 L 246.273438 256.660156 L 239 256.660156 L 239 215.8125 L 251.507812 215.8125 C 258.929688 215.8125 263.140625 219.683594 263.140625 226.96875 C 263.140625 232.878906 259.976562 235.429688 257.84375 236.277344 C 261.003906 237.753906 262.503906 240.441406 262.503906 246.472656 L 262.503906 248.105469 C 262.503906 252.746094 262.722656 254.476562 263.054688 256.660156 L 255.980469 256.660156 C 255.382812 254.789062 255.277344 251.554688 255.277344 248.035156 L 255.277344 246.550781 C 255.277344 241.089844 254.023438 239.242188 249.40625 239.242188 L 246.273438 239.242188 " fill-opacity="1" fill-rule="nonzero"/><path fill="#ffffff" d="M 289.007812 238.503906 L 275.898438 238.503906 L 275.898438 250.367188 L 290.617188 250.367188 L 289.714844 256.660156 L 268.679688 256.660156 L 268.679688 215.8125 L 289.628906 215.8125 L 289.628906 222.214844 L 275.898438 222.214844 L 275.898438 232.15625 L 289.007812 232.15625 L 289.007812 238.503906 " fill-opacity="1" fill-rule="nonzero"/><path fill="#ffffff" d="M 319.726562 256.660156 L 314.152344 256.660156 C 313.976562 255.414062 313.855469 254.496094 313.804688 253.183594 C 311.980469 256.417969 309.144531 257.363281 305.691406 257.363281 C 297.164062 257.363281 294.074219 249.761719 294.074219 236.492188 C 294.074219 221.578125 299.109375 215.164062 307.882812 215.164062 C 318.949219 215.164062 319.558594 224.648438 319.679688 227.070312 L 312.453125 227.070312 C 312.332031 225.425781 311.976562 221.351562 307.660156 221.351562 C 302.949219 221.351562 301.636719 227.632812 301.636719 236.476562 C 301.636719 246 302.753906 251.226562 307.414062 251.226562 C 311.292969 251.226562 312.460938 248.257812 312.460938 242.234375 L 312.460938 239.949219 L 306.960938 239.949219 L 306.960938 233.707031 L 319.726562 233.707031 C 319.726562 233.707031 319.726562 256.660156 319.726562 256.660156 " fill-opacity="1" fill-rule="nonzero"/><path fill="#ffffff" d="M 333.402344 215.8125 L 333.402344 256.660156 L 326.078125 256.660156 L 326.078125 215.8125 L 333.402344 215.8125 " fill-opacity="1" fill-rule="nonzero"/><path fill="#ffffff" d="M 345.480469 245.21875 C 345.835938 248.605469 347.195312 251.59375 350.929688 251.59375 C 354.53125 251.59375 355.867188 249.339844 355.867188 246.296875 C 355.867188 242.941406 354.214844 240.992188 349.050781 238.523438 C 342.054688 235.203125 339.320312 232.265625 339.320312 226.195312 C 339.320312 219.644531 343.527344 215.171875 350.914062 215.171875 C 360.101562 215.171875 362.367188 221.386719 362.488281 226.703125 L 355.324219 226.703125 C 355.089844 224.367188 354.484375 220.933594 350.785156 220.933594 C 347.890625 220.933594 346.597656 222.8125 346.597656 225.582031 C 346.597656 228.523438 347.90625 229.902344 352.695312 232.125 C 360.023438 235.511719 363.3125 238.804688 363.3125 245.636719 C 363.3125 252.050781 359.339844 257.355469 350.710938 257.355469 C 341.320312 257.355469 338.457031 251.339844 338.203125 245.21875 L 345.480469 245.21875 " fill-opacity="1" fill-rule="nonzero"/><path fill="#ffffff" d="M 374.121094 222.214844 L 365.394531 222.214844 L 365.394531 215.8125 L 390.171875 215.8125 L 390.171875 222.214844 L 381.445312 222.214844 L 381.445312 256.660156 L 374.121094 256.660156 L 374.121094 222.214844 " fill-opacity="1" fill-rule="nonzero"/><path fill="#ffffff" d="M 401.390625 233.320312 L 404.820312 233.320312 C 409.234375 233.320312 410.964844 231.421875 410.964844 227.292969 C 410.964844 223.773438 409.28125 221.734375 405.539062 221.734375 L 401.390625 221.734375 Z M 401.390625 239.242188 L 401.390625 256.660156 L 394.117188 256.660156 L 394.117188 215.8125 L 406.625 215.8125 C 414.046875 215.8125 418.257812 219.683594 418.257812 226.96875 C 418.257812 232.878906 415.09375 235.429688 412.960938 236.277344 C 416.125 237.753906 417.621094 240.441406 417.621094 246.472656 L 417.621094 248.105469 C 417.621094 252.746094 417.839844 254.476562 418.171875 256.660156 L 411.097656 256.660156 C 410.5 254.789062 410.394531 251.554688 410.394531 248.035156 L 410.394531 246.550781 C 410.394531 241.089844 409.144531 239.242188 404.527344 239.242188 L 401.390625 239.242188 " fill-opacity="1" fill-rule="nonzero"/><path fill="#ffffff" d="M 438.652344 240.03125 C 437.132812 232.214844 435.910156 226.5 435.269531 222.597656 L 435.09375 222.597656 C 434.597656 226.359375 433.304688 232.5 431.800781 240.03125 Z M 430.503906 246.378906 L 428.476562 256.660156 L 421.152344 256.660156 L 430.609375 215.8125 L 440.101562 215.8125 L 449.667969 256.660156 L 441.988281 256.660156 L 439.957031 246.378906 L 430.503906 246.378906 " fill-opacity="1" fill-rule="nonzero"/><path fill="#ffffff" d="M 455.703125 222.214844 L 446.980469 222.214844 L 446.980469 215.8125 L 471.757812 215.8125 L 471.757812 222.214844 L 463.03125 222.214844 L 463.03125 256.660156 L 455.703125 256.660156 L 455.703125 222.214844 " fill-opacity="1" fill-rule="nonzero"/><path fill="#ffffff" d="M 483.027344 215.8125 L 483.027344 256.660156 L 475.703125 256.660156 L 475.703125 215.8125 L 483.027344 215.8125 " fill-opacity="1" fill-rule="nonzero"/><path fill="#ffffff" d="M 496.375 235.773438 C 496.375 245.464844 497.84375 251.226562 502.128906 251.226562 C 506.640625 251.226562 507.929688 245.886719 507.929688 235.785156 C 507.929688 226.296875 506.558594 221.351562 502.125 221.351562 C 497.75 221.351562 496.375 226.667969 496.375 235.773438 Z M 515.429688 235.921875 C 515.429688 250.859375 511.371094 257.363281 501.957031 257.363281 C 493.164062 257.363281 488.875 250.953125 488.875 235.839844 C 488.875 221.101562 493.867188 215.164062 502.289062 215.164062 C 511.191406 215.164062 515.429688 221.742188 515.429688 235.921875 " fill-opacity="1" fill-rule="nonzero"/><path fill="#ffffff" d="M 521.171875 256.660156 L 521.171875 215.8125 L 529.476562 215.8125 C 537.921875 238.386719 539.546875 242.691406 540.035156 244.695312 L 540.09375 244.695312 C 539.746094 239.789062 539.730469 233.773438 539.730469 227.082031 L 539.730469 215.8125 L 546.269531 215.8125 L 546.269531 256.660156 L 538.304688 256.660156 C 529.582031 232.59375 528.035156 228.257812 527.503906 226.382812 L 527.445312 226.382812 C 527.742188 231.414062 527.75 237.429688 527.75 244.75 L 527.75 256.660156 L 521.171875 256.660156 " fill-opacity="1" fill-rule="nonzero"/><path fill="#f4b442" d="M 441.640625 319.660156 L 251.933594 319.660156 L 251.933594 305.207031 L 441.640625 305.207031 L 441.640625 319.660156 " fill-opacity="1" fill-rule="nonzero"/><path fill="#f4b442" d="M 525.867188 319.660156 L 451.863281 319.660156 L 451.863281 305.207031 L 525.867188 305.207031 L 525.867188 319.660156 " fill-opacity="1" fill-rule="nonzero"/><path fill="#f4b442" d="M 475.546875 376.390625 L 251.933594 376.390625 L 251.933594 361.9375 L 475.546875 361.9375 L 475.546875 376.390625 " fill-opacity="1" fill-rule="nonzero"/><path fill="#f4b442" d="M 525.867188 376.390625 L 486.039062 376.390625 L 486.039062 361.9375 L 525.867188 361.9375 L 525.867188 376.390625 " fill-opacity="1" fill-rule="nonzero"/><path fill="#f4b442" d="M 392.632812 347.914062 L 251.933594 347.914062 L 251.933594 333.464844 L 392.632812 333.464844 L 392.632812 347.914062 " fill-opacity="1" fill-rule="nonzero"/><path fill="#f4b442" d="M 525.867188 347.914062 L 405.3125 347.914062 L 405.3125 333.464844 L 525.867188 333.464844 L 525.867188 347.914062 " fill-opacity="1" fill-rule="nonzero"/><path fill="#54678c" d="M 483.496094 515.632812 C 456.242188 515.632812 434.066406 493.453125 434.066406 466.195312 C 434.066406 438.9375 456.242188 416.761719 483.496094 416.761719 C 510.757812 416.761719 532.929688 438.9375 532.929688 466.195312 C 532.929688 493.453125 510.757812 515.632812 483.496094 515.632812 " fill-opacity="1" fill-rule="nonzero"/><path fill="#54678c" d="M 471.800781 522.878906 C 472.171875 522.878906 472.539062 522.972656 472.863281 523.164062 L 483.496094 529.332031 L 494.136719 523.164062 C 494.542969 522.929688 495.015625 522.835938 495.476562 522.894531 L 507.664062 524.539062 L 515.113281 514.757812 C 515.394531 514.382812 515.800781 514.117188 516.253906 513.996094 L 528.136719 510.839844 L 531.292969 498.953125 C 531.414062 498.5 531.683594 498.097656 532.054688 497.816406 L 541.835938 490.363281 L 540.195312 478.179688 C 540.132812 477.714844 540.226562 477.238281 540.460938 476.835938 L 546.625 466.195312 L 540.460938 455.554688 C 540.226562 455.152344 540.132812 454.679688 540.195312 454.214844 L 541.835938 442.03125 L 532.054688 434.582031 C 531.683594 434.296875 531.414062 433.890625 531.292969 433.4375 L 528.136719 421.554688 L 516.253906 418.398438 C 515.800781 418.277344 515.398438 418.007812 515.113281 417.632812 L 507.664062 407.855469 L 495.476562 409.496094 C 495.015625 409.558594 494.542969 409.464844 494.136719 409.230469 L 483.496094 403.0625 L 472.863281 409.230469 C 472.457031 409.464844 471.984375 409.558594 471.515625 409.496094 L 459.335938 407.855469 L 451.886719 417.632812 C 451.601562 418.007812 451.199219 418.277344 450.746094 418.398438 L 438.859375 421.554688 L 435.707031 433.4375 C 435.582031 433.890625 435.316406 434.296875 434.941406 434.578125 L 425.164062 442.03125 L 426.804688 454.214844 C 426.867188 454.679688 426.773438 455.152344 426.535156 455.554688 L 420.371094 466.195312 L 426.535156 476.835938 C 426.773438 477.238281 426.867188 477.714844 426.804688 478.179688 L 425.164062 490.363281 L 434.941406 497.816406 C 435.316406 498.097656 435.582031 498.5 435.707031 498.953125 L 438.859375 510.839844 L 450.746094 513.996094 C 451.199219 514.117188 451.601562 514.382812 451.886719 514.757812 L 459.335938 524.539062 L 471.515625 522.894531 C 471.609375 522.886719 471.707031 522.878906 471.800781 522.878906 Z M 483.496094 533.890625 C 483.132812 533.890625 482.765625 533.800781 482.4375 533.609375 L 471.363281 527.191406 L 458.679688 528.898438 C 457.929688 529 457.175781 528.6875 456.714844 528.082031 L 448.957031 517.898438 L 436.585938 514.617188 C 435.855469 514.417969 435.28125 513.847656 435.082031 513.113281 L 431.800781 500.742188 L 421.617188 492.984375 C 421.011719 492.523438 420.703125 491.773438 420.804688 491.015625 L 422.511719 478.332031 L 416.09375 467.257812 C 415.714844 466.601562 415.714844 465.792969 416.09375 465.136719 L 422.511719 454.0625 L 420.804688 441.378906 C 420.703125 440.621094 421.011719 439.871094 421.617188 439.410156 L 431.800781 431.652344 L 435.082031 419.28125 C 435.28125 418.546875 435.855469 417.972656 436.585938 417.777344 L 448.960938 414.492188 L 456.714844 404.308594 C 457.175781 403.703125 457.929688 403.394531 458.679688 403.496094 L 471.363281 405.207031 L 482.4375 398.785156 C 483.09375 398.402344 483.90625 398.402344 484.5625 398.785156 L 495.632812 405.207031 L 508.320312 403.496094 C 509.070312 403.394531 509.820312 403.703125 510.28125 404.308594 L 518.039062 414.492188 L 530.410156 417.777344 C 531.144531 417.972656 531.71875 418.546875 531.910156 419.28125 L 535.199219 431.652344 L 545.382812 439.410156 C 545.984375 439.871094 546.292969 440.621094 546.195312 441.378906 L 544.484375 454.0625 L 550.90625 465.136719 C 551.285156 465.792969 551.285156 466.601562 550.90625 467.257812 L 544.484375 478.332031 L 546.195312 491.015625 C 546.292969 491.773438 545.984375 492.523438 545.382812 492.984375 L 535.199219 500.742188 L 531.910156 513.113281 C 531.714844 513.847656 531.144531 514.417969 530.410156 514.617188 L 518.039062 517.898438 L 510.28125 528.082031 C 509.820312 528.6875 509.070312 529 508.316406 528.898438 L 495.632812 527.191406 L 484.5625 533.609375 C 484.234375 533.800781 483.867188 533.890625 483.496094 533.890625 " fill-opacity="1" fill-rule="nonzero"/><path fill="#ffd45c" d="M 486.230469 436.179688 C 485.675781 436.132812 485.269531 435.640625 485.3125 435.089844 C 485.363281 434.535156 485.855469 434.128906 486.40625 434.171875 C 486.964844 434.226562 487.371094 434.714844 487.320312 435.269531 C 487.273438 435.792969 486.835938 436.1875 486.316406 436.1875 C 486.289062 436.1875 486.257812 436.183594 486.230469 436.179688 Z M 479.570312 435.28125 C 479.519531 434.726562 479.929688 434.238281 480.480469 434.1875 C 481.03125 434.132812 481.523438 434.542969 481.574219 435.09375 C 481.628906 435.648438 481.222656 436.136719 480.664062 436.191406 C 480.632812 436.195312 480.605469 436.195312 480.570312 436.195312 C 480.058594 436.195312 479.621094 435.800781 479.570312 435.28125 Z M 491.695312 437.1875 C 491.15625 437.039062 490.847656 436.480469 491 435.945312 C 491.148438 435.410156 491.707031 435.097656 492.242188 435.25 C 492.777344 435.402344 493.085938 435.957031 492.9375 436.492188 C 492.8125 436.9375 492.40625 437.222656 491.964844 437.222656 C 491.878906 437.222656 491.785156 437.210938 491.695312 437.1875 Z M 473.957031 436.523438 C 473.804688 435.992188 474.117188 435.429688 474.652344 435.28125 C 475.1875 435.128906 475.742188 435.4375 475.894531 435.96875 C 476.046875 436.503906 475.734375 437.0625 475.203125 437.214844 C 475.109375 437.238281 475.019531 437.253906 474.925781 437.253906 C 474.492188 437.253906 474.082031 436.964844 473.957031 436.523438 Z M 496.878906 439.1875 C 496.386719 438.9375 496.183594 438.335938 496.425781 437.839844 C 496.675781 437.339844 497.277344 437.136719 497.777344 437.382812 C 498.273438 437.628906 498.476562 438.238281 498.230469 438.734375 C 498.054688 439.085938 497.699219 439.292969 497.328125 439.292969 C 497.175781 439.292969 497.027344 439.257812 496.878906 439.1875 Z M 468.671875 438.78125 C 468.425781 438.285156 468.628906 437.683594 469.125 437.433594 C 469.621094 437.183594 470.222656 437.382812 470.476562 437.882812 C 470.722656 438.378906 470.523438 438.980469 470.027344 439.230469 C 469.878906 439.308594 469.726562 439.339844 469.578125 439.339844 C 469.207031 439.339844 468.851562 439.136719 468.671875 438.78125 Z M 501.609375 442.109375 C 501.167969 441.773438 501.078125 441.144531 501.414062 440.703125 C 501.75 440.257812 502.378906 440.167969 502.824219 440.503906 C 503.265625 440.832031 503.355469 441.46875 503.019531 441.914062 C 502.824219 442.171875 502.519531 442.3125 502.21875 442.3125 C 502.007812 442.3125 501.792969 442.246094 501.609375 442.109375 Z M 463.894531 441.976562 C 463.558594 441.535156 463.644531 440.902344 464.089844 440.566406 C 464.53125 440.230469 465.160156 440.316406 465.496094 440.761719 C 465.832031 441.207031 465.746094 441.832031 465.304688 442.167969 C 465.121094 442.308594 464.90625 442.375 464.699219 442.375 C 464.390625 442.375 464.089844 442.238281 463.894531 441.976562 Z M 505.730469 445.847656 C 505.355469 445.4375 505.382812 444.804688 505.789062 444.429688 C 506.199219 444.054688 506.839844 444.078125 507.214844 444.492188 C 507.585938 444.898438 507.558594 445.535156 507.148438 445.910156 C 506.960938 446.089844 506.710938 446.171875 506.46875 446.171875 C 506.199219 446.171875 505.929688 446.066406 505.730469 445.847656 Z M 459.78125 445.992188 C 459.371094 445.617188 459.335938 444.980469 459.710938 444.566406 C 460.085938 444.15625 460.722656 444.128906 461.136719 444.503906 C 461.542969 444.875 461.574219 445.515625 461.199219 445.925781 C 461.003906 446.144531 460.730469 446.25 460.457031 446.25 C 460.214844 446.25 459.972656 446.167969 459.78125 445.992188 Z M 509.089844 450.277344 C 508.796875 449.808594 508.941406 449.1875 509.410156 448.894531 C 509.886719 448.597656 510.503906 448.742188 510.800781 449.214844 C 511.089844 449.6875 510.949219 450.304688 510.476562 450.601562 C 510.3125 450.703125 510.128906 450.753906 509.945312 450.753906 C 509.609375 450.753906 509.28125 450.585938 509.089844 450.277344 Z M 456.46875 450.691406 C 455.992188 450.398438 455.847656 449.777344 456.140625 449.304688 C 456.4375 448.832031 457.054688 448.691406 457.523438 448.980469 C 457.996094 449.273438 458.144531 449.894531 457.851562 450.363281 C 457.664062 450.671875 457.332031 450.84375 456.996094 450.84375 C 456.8125 450.84375 456.632812 450.792969 456.46875 450.691406 Z M 511.582031 455.246094 C 511.382812 454.726562 511.636719 454.148438 512.15625 453.945312 C 512.671875 453.738281 513.253906 453.996094 513.457031 454.515625 C 513.65625 455.035156 513.40625 455.613281 512.882812 455.816406 C 512.765625 455.867188 512.640625 455.886719 512.519531 455.886719 C 512.121094 455.886719 511.738281 455.644531 511.582031 455.246094 Z M 454.078125 455.921875 C 453.558594 455.71875 453.300781 455.136719 453.503906 454.617188 C 453.699219 454.101562 454.285156 453.84375 454.800781 454.039062 C 455.320312 454.242188 455.578125 454.824219 455.375 455.34375 C 455.222656 455.742188 454.84375 455.984375 454.4375 455.984375 C 454.316406 455.984375 454.195312 455.96875 454.078125 455.921875 Z M 513.113281 460.59375 C 513.011719 460.042969 513.371094 459.519531 513.914062 459.414062 C 514.460938 459.3125 514.984375 459.671875 515.089844 460.21875 C 515.191406 460.765625 514.832031 461.292969 514.285156 461.398438 C 514.226562 461.40625 514.160156 461.410156 514.101562 461.410156 C 513.625 461.410156 513.199219 461.074219 513.113281 460.59375 Z M 452.691406 461.5 C 452.148438 461.398438 451.785156 460.875 451.886719 460.328125 C 451.984375 459.78125 452.511719 459.417969 453.058594 459.519531 C 453.605469 459.621094 453.964844 460.148438 453.867188 460.691406 C 453.777344 461.179688 453.351562 461.519531 452.878906 461.519531 C 452.816406 461.519531 452.757812 461.511719 452.691406 461.5 Z M 513.632812 466.195312 C 513.632812 466.183594 513.632812 466.171875 513.632812 466.160156 C 513.632812 466.148438 513.632812 466.140625 513.632812 466.128906 C 513.632812 465.574219 514.082031 465.121094 514.636719 465.121094 C 515.191406 465.121094 515.644531 465.566406 515.644531 466.125 C 515.644531 466.136719 515.644531 466.148438 515.644531 466.160156 C 515.644531 466.171875 515.644531 466.183594 515.644531 466.195312 C 515.644531 466.753906 515.195312 467.203125 514.640625 467.203125 C 514.082031 467.203125 513.632812 466.753906 513.632812 466.195312 Z M 451.351562 466.230469 C 451.351562 465.675781 451.800781 465.226562 452.355469 465.226562 C 452.914062 465.226562 453.363281 465.675781 453.363281 466.230469 C 453.363281 466.785156 452.914062 467.238281 452.359375 467.238281 C 451.804688 467.238281 451.351562 466.789062 451.351562 466.230469 Z M 513.933594 472.90625 C 513.382812 472.808594 513.023438 472.277344 513.121094 471.730469 C 513.226562 471.1875 513.753906 470.824219 514.296875 470.925781 C 514.84375 471.03125 515.207031 471.554688 515.105469 472.101562 C 515.015625 472.585938 514.59375 472.925781 514.117188 472.925781 C 514.054688 472.925781 513.992188 472.917969 513.933594 472.90625 Z M 451.898438 472.136719 C 451.800781 471.589844 452.160156 471.066406 452.707031 470.960938 C 453.25 470.863281 453.777344 471.222656 453.875 471.769531 C 453.980469 472.316406 453.621094 472.839844 453.074219 472.941406 C 453.007812 472.953125 452.949219 472.960938 452.886719 472.960938 C 452.414062 472.960938 451.992188 472.621094 451.898438 472.136719 Z M 512.183594 478.382812 C 511.664062 478.183594 511.40625 477.601562 511.609375 477.082031 C 511.808594 476.5625 512.390625 476.304688 512.90625 476.503906 C 513.425781 476.707031 513.6875 477.289062 513.484375 477.804688 C 513.328125 478.207031 512.945312 478.453125 512.542969 478.453125 C 512.421875 478.453125 512.300781 478.429688 512.183594 478.382812 Z M 453.527344 477.84375 C 453.324219 477.324219 453.582031 476.738281 454.101562 476.539062 C 454.617188 476.339844 455.199219 476.597656 455.398438 477.109375 L 455.40625 477.109375 C 455.605469 477.632812 455.347656 478.214844 454.832031 478.417969 C 454.710938 478.464844 454.582031 478.484375 454.464844 478.484375 C 454.0625 478.484375 453.679688 478.242188 453.527344 477.84375 Z M 509.449219 483.445312 C 508.980469 483.152344 508.832031 482.527344 509.125 482.058594 C 509.417969 481.582031 510.042969 481.441406 510.515625 481.734375 C 510.984375 482.027344 511.128906 482.644531 510.839844 483.117188 C 510.644531 483.425781 510.316406 483.59375 509.980469 483.59375 C 509.800781 483.59375 509.613281 483.546875 509.449219 483.445312 Z M 456.179688 483.144531 C 455.886719 482.675781 456.027344 482.054688 456.5 481.761719 C 456.972656 481.46875 457.597656 481.617188 457.890625 482.085938 C 458.179688 482.558594 458.035156 483.175781 457.5625 483.472656 C 457.398438 483.570312 457.214844 483.621094 457.03125 483.621094 C 456.699219 483.621094 456.367188 483.453125 456.179688 483.144531 Z M 505.839844 487.914062 C 505.429688 487.539062 505.398438 486.90625 505.773438 486.492188 C 506.148438 486.082031 506.785156 486.054688 507.195312 486.425781 C 507.605469 486.800781 507.632812 487.441406 507.261719 487.851562 C 507.0625 488.066406 506.789062 488.175781 506.515625 488.175781 C 506.273438 488.175781 506.03125 488.089844 505.839844 487.914062 Z M 459.761719 487.875 C 459.761719 487.875 459.761719 487.875 459.757812 487.875 C 459.386719 487.464844 459.414062 486.828125 459.824219 486.453125 C 460.234375 486.082031 460.871094 486.105469 461.246094 486.515625 C 461.621094 486.925781 461.589844 487.566406 461.183594 487.941406 C 460.988281 488.117188 460.746094 488.203125 460.503906 488.203125 C 460.230469 488.203125 459.957031 488.089844 459.761719 487.875 Z M 501.472656 491.652344 C 501.136719 491.210938 501.222656 490.578125 501.667969 490.242188 C 502.109375 489.90625 502.742188 489.996094 503.078125 490.4375 C 503.410156 490.882812 503.324219 491.511719 502.878906 491.84375 C 502.878906 491.84375 502.878906 491.84375 502.878906 491.847656 C 502.699219 491.984375 502.488281 492.050781 502.273438 492.050781 C 501.96875 492.050781 501.667969 491.914062 501.472656 491.652344 Z M 464.144531 491.871094 C 463.703125 491.535156 463.613281 490.902344 463.949219 490.460938 C 464.285156 490.015625 464.914062 489.929688 465.359375 490.265625 C 465.800781 490.59375 465.890625 491.230469 465.554688 491.671875 C 465.355469 491.933594 465.054688 492.074219 464.75 492.074219 C 464.542969 492.074219 464.328125 492.003906 464.144531 491.871094 Z M 496.492188 494.523438 C 496.242188 494.03125 496.445312 493.421875 496.941406 493.175781 C 497.4375 492.925781 498.042969 493.125 498.292969 493.625 C 498.539062 494.121094 498.335938 494.726562 497.839844 494.976562 C 497.699219 495.050781 497.546875 495.082031 497.390625 495.082031 C 497.023438 495.082031 496.667969 494.878906 496.492188 494.523438 Z M 469.1875 494.992188 C 468.691406 494.742188 468.488281 494.140625 468.738281 493.644531 C 468.984375 493.144531 469.585938 492.941406 470.085938 493.191406 C 470.582031 493.441406 470.785156 494.042969 470.535156 494.539062 C 470.363281 494.890625 470.003906 495.097656 469.636719 495.097656 C 469.488281 495.097656 469.328125 495.0625 469.1875 494.992188 Z M 491.066406 496.433594 C 490.917969 495.894531 491.226562 495.339844 491.761719 495.191406 C 492.296875 495.035156 492.851562 495.34375 493.003906 495.882812 C 493.15625 496.414062 492.847656 496.96875 492.3125 497.121094 C 492.21875 497.148438 492.125 497.164062 492.035156 497.164062 C 491.597656 497.164062 491.195312 496.871094 491.066406 496.433594 Z M 474.722656 497.132812 C 474.1875 496.980469 473.878906 496.421875 474.03125 495.886719 C 474.179688 495.355469 474.738281 495.042969 475.269531 495.195312 C 475.804688 495.351562 476.113281 495.902344 475.964844 496.4375 C 475.839844 496.878906 475.4375 497.167969 474.992188 497.167969 C 474.90625 497.167969 474.816406 497.160156 474.722656 497.132812 Z M 485.386719 497.300781 C 485.335938 496.746094 485.742188 496.257812 486.296875 496.207031 C 486.847656 496.152344 487.339844 496.5625 487.390625 497.117188 C 487.441406 497.664062 487.035156 498.160156 486.480469 498.207031 C 486.449219 498.210938 486.417969 498.210938 486.390625 498.210938 C 485.875 498.210938 485.433594 497.824219 485.386719 497.300781 Z M 480.554688 498.210938 C 480 498.160156 479.589844 497.671875 479.640625 497.121094 C 479.691406 496.5625 480.183594 496.15625 480.734375 496.210938 C 481.289062 496.261719 481.695312 496.75 481.644531 497.300781 C 481.597656 497.824219 481.160156 498.214844 480.648438 498.214844 C 480.613281 498.214844 480.585938 498.214844 480.554688 498.210938 " fill-opacity="1" fill-rule="nonzero"/><path fill="#f4b442" d="M 187.351562 173.820312 C 187.351562 173.820312 201.882812 157.84375 233.367188 150.042969 C 242.195312 147.855469 257.3125 147.621094 269.691406 147.890625 C 269.691406 147.890625 269.710938 83.742188 289.078125 72.085938 C 289.078125 72.085938 261.628906 88.144531 238.214844 104.832031 C 214.796875 121.515625 189.234375 161.539062 187.351562 173.820312 " fill-opacity="1" fill-rule="nonzero"/><path fill="#ff5f4a" d="M 327.105469 466.019531 C 325.035156 469.152344 323.988281 470.71875 321.878906 473.847656 C 322.574219 477.527344 322.910156 479.367188 323.550781 483.046875 C 320.371094 485.144531 318.777344 486.191406 315.582031 488.289062 C 314.714844 491.972656 314.265625 493.816406 313.335938 497.503906 C 309.617188 498.25 307.753906 498.625 304.03125 499.375 C 301.769531 502.507812 300.628906 504.070312 298.316406 507.203125 C 294.6875 506.484375 292.871094 506.125 289.242188 505.40625 C 285.976562 507.5 284.335938 508.546875 281.046875 510.644531 C 278.089844 508.574219 276.605469 507.539062 273.628906 505.464844 C 269.894531 506.214844 268.027344 506.585938 264.292969 507.335938 C 262.4375 504.21875 261.496094 502.660156 259.589844 499.542969 C 255.949219 498.824219 254.128906 498.460938 250.488281 497.742188 C 249.949219 494.0625 249.664062 492.222656 249.058594 488.542969 C 246.011719 486.46875 244.480469 485.433594 241.414062 483.359375 C 242.242188 479.675781 242.636719 477.832031 243.40625 474.148438 C 241.355469 471.035156 240.316406 469.476562 238.222656 466.363281 C 240.296875 463.226562 241.320312 461.664062 243.351562 458.53125 C 242.5625 454.855469 242.152344 453.011719 241.3125 449.335938 C 244.371094 447.238281 245.898438 446.191406 248.941406 444.097656 C 249.542969 440.410156 249.828125 438.566406 250.382812 434.886719 C 254.027344 434.132812 255.847656 433.765625 259.492188 433.015625 C 261.414062 429.882812 262.367188 428.316406 264.261719 425.1875 C 267.988281 425.90625 269.851562 426.265625 273.574219 426.984375 C 276.574219 424.890625 278.070312 423.84375 281.058594 421.75 C 284.320312 423.820312 285.945312 424.855469 289.191406 426.925781 C 292.828125 426.179688 294.648438 425.804688 298.285156 425.058594 C 300.558594 428.171875 301.691406 429.730469 303.933594 432.84375 C 307.652344 433.566406 309.511719 433.925781 313.230469 434.644531 C 314.148438 438.324219 314.59375 440.164062 315.464844 443.839844 C 318.664062 445.914062 320.261719 446.949219 323.445312 449.023438 C 322.824219 452.707031 322.5 454.546875 321.824219 458.230469 C 323.957031 461.347656 325.015625 462.90625 327.105469 466.019531 " fill-opacity="1" fill-rule="nonzero"/><path fill="#434a59" d="M 282.664062 546.832031 C 282.25 547.066406 281.613281 547.511719 280.707031 548.347656 C 276.75 551.992188 273.421875 558.785156 271.566406 565.1875 C 279.171875 557.714844 282.503906 549.519531 282.664062 546.832031 Z M 272.589844 583.515625 C 272.3125 583.515625 272.03125 583.5 271.734375 583.476562 C 269.53125 583.285156 267.859375 581.839844 267.03125 579.414062 C 266.539062 577.964844 266.335938 576.167969 266.386719 574.15625 C 256.65625 580.816406 251.644531 578.652344 251.015625 578.332031 L 252.664062 575.105469 L 252.609375 575.082031 C 252.660156 575.101562 257.230469 576.902344 266.902344 569.277344 C 268.402344 560.75 272.964844 550.554688 278.253906 545.683594 C 280.714844 543.414062 282.59375 542.585938 284.164062 543.082031 C 285.175781 543.402344 285.898438 544.257812 286.15625 545.429688 C 287.144531 549.953125 281.542969 561.09375 272.566406 569.21875 C 271.769531 569.941406 271 570.609375 270.25 571.230469 C 269.855469 574.09375 269.890625 576.574219 270.457031 578.242188 C 270.980469 579.773438 271.730469 579.839844 272.046875 579.867188 C 274.804688 580.109375 275.882812 578.457031 277.5625 575.519531 C 279.269531 572.527344 281.398438 568.800781 286.742188 569.257812 C 291.078125 569.628906 294.269531 571.902344 297.085938 573.910156 C 300.167969 576.109375 302.597656 577.84375 305.894531 577.078125 C 306.117188 577.027344 307.378906 576.515625 310.394531 571.492188 C 312.542969 567.917969 315.003906 563.054688 317.609375 557.914062 C 325.746094 541.84375 334.972656 523.632812 344.65625 522.929688 C 347.515625 522.71875 349.089844 523.941406 349.902344 525 C 353.503906 529.710938 350.074219 540.648438 344.425781 556.800781 C 341.492188 565.203125 338.453125 573.890625 338.988281 577.132812 C 339.011719 577.273438 339.03125 577.398438 339.054688 577.511719 C 339.890625 576.636719 341.097656 575 342.042969 573.71875 C 345.679688 568.765625 350.203125 562.609375 355.542969 564.003906 C 364.078125 566.230469 370.566406 573.066406 370.835938 573.359375 C 371.519531 574.089844 371.484375 575.234375 370.753906 575.917969 C 370.027344 576.605469 368.878906 576.566406 368.195312 575.835938 C 368.136719 575.773438 362.132812 569.46875 354.628906 567.511719 C 351.667969 566.738281 347.628906 572.230469 344.957031 575.863281 C 342.171875 579.652344 340.328125 582.164062 337.992188 581.597656 C 335.96875 581.109375 335.566406 578.652344 335.414062 577.722656 C 334.730469 573.5625 337.640625 565.242188 341.007812 555.605469 C 344.679688 545.101562 349.710938 530.710938 347.023438 527.203125 C 346.863281 526.992188 346.433594 526.433594 344.917969 526.542969 C 337.277344 527.097656 327.777344 545.851562 320.839844 559.546875 C 314.136719 572.785156 310.460938 579.734375 306.71875 580.605469 C 301.828125 581.746094 298.347656 579.257812 294.980469 576.859375 C 292.308594 574.953125 289.78125 573.148438 286.4375 572.867188 C 283.539062 572.628906 282.425781 574.308594 280.707031 577.316406 C 279.121094 580.09375 277.164062 583.515625 272.589844 583.515625 " fill-opacity="1" fill-rule="nonzero"/><path fill="#fff385" d="M 289.078125 72.085938 C 289.078125 72.085938 255.96875 96.355469 262.023438 135.914062 C 262.023438 135.914062 209.953125 132.203125 187.351562 173.820312 C 187.351562 173.820312 192.390625 133.507812 226.636719 103.488281 C 262.5625 72 289.078125 72.085938 289.078125 72.085938 " fill-opacity="1" fill-rule="nonzero"/><g clip-path="url(#ed3ae4888a)"><path fill="#5cbec6" d="M 212.894531 734.648438 C 212.894531 736.410156 180.15625 737.839844 139.765625 737.839844 C 99.382812 737.839844 66.640625 736.410156 66.640625 734.648438 C 66.640625 732.878906 99.382812 731.449219 139.765625 731.449219 C 180.15625 731.449219 212.894531 732.878906 212.894531 734.648438 " fill-opacity="1" fill-rule="nonzero"/></g><path fill="#54678c" d="M 198.273438 374.167969 C 198.273438 374.167969 232.242188 383.214844 232.242188 386.90625 C 232.242188 390.605469 229.761719 412.714844 220.917969 411.542969 C 212.078125 410.371094 192.613281 403.394531 189.046875 394.378906 C 185.484375 385.363281 198.273438 374.167969 198.273438 374.167969 " fill-opacity="1" fill-rule="nonzero"/><path fill="#434a59" d="M 180.570312 727.492188 C 177.039062 725.945312 174.40625 715.332031 174.402344 714.996094 C 174.382812 713.515625 170.113281 709.589844 168.121094 712.667969 C 164.199219 718.734375 159.902344 709.257812 160.128906 711.785156 C 160.804688 719.324219 157.347656 731.476562 160.15625 732.300781 C 166.132812 734.058594 194.046875 736.097656 194.574219 733.164062 C 194.890625 731.40625 186.675781 730.167969 180.570312 727.492188 " fill-opacity="1" fill-rule="nonzero"/><path fill="#434a59" d="M 102.789062 727.492188 C 95.601562 725.449219 96.625 715.332031 96.621094 714.996094 C 96.601562 713.515625 92.332031 709.589844 90.34375 712.667969 C 86.421875 718.734375 82.121094 709.257812 82.347656 711.785156 C 83.027344 719.324219 79.566406 731.476562 82.375 732.300781 C 88.355469 734.058594 116.265625 736.097656 116.792969 733.164062 C 117.109375 731.40625 109.203125 729.316406 102.789062 727.492188 " fill-opacity="1" fill-rule="nonzero"/><path fill="#434a59" d="M 112.792969 429.636719 C 119.84375 414.0625 173.464844 393.851562 187.609375 390.523438 C 188.644531 406.207031 195.878906 415.980469 204.4375 432.902344 C 216.402344 456.554688 183.640625 715.890625 183.640625 715.890625 L 154.289062 715.890625 L 161.652344 473.515625 L 106.089844 715.890625 L 77.933594 715.890625 C 77.933594 715.890625 104.703125 447.503906 112.792969 429.636719 " fill-opacity="1" fill-rule="nonzero"/><path fill="#2a2f38" d="M 108.597656 448.296875 L 139.347656 447.359375 L 170.253906 431.609375 L 179.179688 431.609375 C 179.179688 431.609375 197.113281 432.890625 204.8125 433.753906 C 205.699219 436.027344 206.296875 439.652344 206.652344 444.398438 C 206.160156 447.390625 205.742188 449.882812 205.742188 449.882812 C 205.742188 449.882812 192.410156 458.277344 175.648438 461.378906 C 159.359375 464.390625 131.867188 472.339844 105.171875 470.003906 C 106.386719 461.753906 107.539062 454.414062 108.597656 448.296875 " fill-opacity="1" fill-rule="nonzero"/><path fill="#5679bf" d="M 107.246094 395.703125 C 104.875 361.308594 98.652344 342.3125 101.933594 330.570312 C 106.144531 315.523438 128.15625 305.261719 140.753906 303.515625 C 151.113281 302.074219 176.5625 302.949219 185.785156 309.410156 C 200.570312 319.769531 209.222656 448.058594 209.222656 448.058594 C 209.222656 448.058594 200.265625 453.984375 176.269531 458.390625 C 175 458.625 173.976562 435.472656 172.617188 435.699219 C 169.773438 436.167969 166.445312 459.996094 163.210938 460.40625 C 119.085938 466.03125 104.140625 460.40625 104.140625 460.40625 C 104.140625 460.40625 110.058594 436.492188 107.246094 395.703125 " fill-opacity="1" fill-rule="nonzero"/><path fill="#6c98dd" d="M 147.128906 302.101562 C 139.5 303.28125 134.257812 310.300781 132.277344 313.414062 C 131.75 314.242188 131.933594 315.332031 132.695312 315.949219 L 143.589844 324.746094 C 143.589844 324.746094 132.914062 319.671875 131.851562 320.730469 C 130.792969 321.792969 161.265625 370.789062 165.050781 372.53125 C 168.835938 374.273438 173.652344 316.492188 171.761719 316.566406 C 169.867188 316.644531 167.109375 320.308594 167.109375 320.308594 L 169.449219 310.191406 C 169.578125 309.640625 169.449219 309.058594 169.097656 308.613281 C 167.3125 306.355469 160.929688 299.964844 147.128906 302.101562 " fill-opacity="1" fill-rule="nonzero"/><path fill="#f7f7f7" d="M 141.648438 306.472656 C 141.648438 306.472656 147.925781 322.753906 151.082031 330.929688 C 154.242188 339.109375 166.519531 376.574219 166.519531 376.574219 C 166.519531 376.574219 161.601562 312.425781 160.207031 307.945312 C 159.152344 304.566406 148.460938 296.273438 141.648438 306.472656 " fill-opacity="1" fill-rule="nonzero"/><path fill="#e7f2f2" d="M 254.421875 550.054688 C 255.925781 521.15625 264.25 510.875 264.25 510.875 L 250.335938 476.582031 L 239.4375 478.878906 L 228.539062 481.171875 L 229.632812 518.164062 C 229.632812 518.164062 241.394531 524.214844 254.421875 550.054688 " fill-opacity="1" fill-rule="nonzero"/><path fill="#434a59" d="M 220.683594 478.898438 C 221.3125 480.988281 223.429688 482.25 225.558594 481.800781 L 253.316406 475.957031 C 255.449219 475.507812 256.875 473.5 256.605469 471.335938 C 246.359375 388.871094 207.066406 237.636719 207.066406 237.636719 L 171.800781 245.0625 C 171.800781 245.0625 196.8125 399.300781 220.683594 478.898438 " fill-opacity="1" fill-rule="nonzero"/><path fill="#ffe67b" d="M 173.929688 274.621094 L 217.035156 265.546875 L 213.851562 252.320312 L 171.378906 261.265625 L 173.929688 274.621094 " fill-opacity="1" fill-rule="nonzero"/><path fill="#434a59" d="M 213.851562 252.320312 L 192.785156 164.703125 C 191.242188 158.292969 184.878906 154.273438 178.425781 155.632812 L 163.957031 158.675781 C 157.457031 160.046875 153.253906 166.367188 154.5 172.890625 L 171.378906 261.261719 L 213.851562 252.320312 " fill-opacity="1" fill-rule="nonzero"/><path fill="#ffe67b" d="M 171.5625 166.070312 C 172.453125 165.882812 173.414062 166.066406 174.195312 166.65625 C 175.625 167.742188 175.90625 169.773438 174.824219 171.207031 L 174.421875 171.742188 C 171.945312 175.011719 171.011719 179.195312 171.855469 183.210938 L 196.441406 300.003906 C 196.8125 301.757812 195.691406 303.480469 193.933594 303.851562 C 192.179688 304.21875 190.457031 303.097656 190.089844 301.339844 L 165.5 184.546875 C 164.269531 178.691406 165.632812 172.59375 169.242188 167.824219 L 169.644531 167.289062 C 170.136719 166.636719 170.824219 166.222656 171.5625 166.070312 " fill-opacity="1" fill-rule="nonzero"/><path fill="#434a59" d="M 247.902344 524.253906 C 249.648438 523.480469 251.691406 524.269531 252.464844 526.019531 C 253.234375 527.765625 252.441406 529.804688 250.695312 530.578125 C 248.949219 531.347656 246.90625 530.558594 246.136719 528.8125 C 245.367188 527.066406 246.15625 525.023438 247.902344 524.253906 " fill-opacity="1" fill-rule="nonzero"/><path fill="#434a59" d="M 254.5625 547.714844 L 249.816406 527.546875 C 249.808594 527.519531 249.800781 527.492188 249.789062 527.464844 C 249.695312 527.253906 249.464844 527.132812 249.234375 527.1875 C 248.972656 527.25 248.8125 527.511719 248.875 527.773438 L 253.863281 548.96875 C 254.050781 549.332031 254.234375 549.683594 254.421875 550.054688 C 254.460938 549.257812 254.511719 548.480469 254.5625 547.714844 " fill-opacity="1" fill-rule="nonzero"/><path fill="#ffffff" d="M 209.425781 410.679688 C 209.425781 410.679688 209.421875 410.679688 209.421875 410.679688 C 208.613281 410.878906 207.796875 410.382812 207.601562 409.574219 C 200.625 380.824219 191.410156 339.917969 187.164062 308.300781 C 187.050781 307.472656 187.625 306.714844 188.453125 306.605469 C 189.28125 306.496094 190.039062 307.074219 190.148438 307.898438 C 194.382812 339.386719 203.570312 380.179688 210.53125 408.863281 C 210.726562 409.667969 210.234375 410.484375 209.425781 410.679688 " fill-opacity="1" fill-rule="nonzero"/><path fill="#d8d8d8" d="M 144.402344 269.539062 C 145.453125 267.574219 148.210938 263.773438 152.4375 265.152344 C 155.1875 266.046875 156.820312 267.429688 157.0625 271.199219 C 158.851562 272.679688 158.765625 273.960938 157.945312 275.898438 C 157.101562 277.902344 157.796875 276.472656 156.703125 278.523438 C 156.042969 279.757812 156.996094 281.105469 156.34375 280.992188 C 155.695312 280.886719 145.335938 290.40625 144.496094 290.363281 C 143.976562 290.335938 142.789062 290.136719 142.261719 288.503906 C 141.757812 286.953125 141.136719 285.535156 140.191406 284.207031 C 136.460938 278.929688 141.457031 273.09375 141.457031 273.09375 C 141.457031 273.09375 143.84375 270.589844 144.402344 269.539062 " fill-opacity="1" fill-rule="nonzero"/><path fill="#ff867a" d="M 158.035156 307.503906 C 153.234375 310.898438 144.238281 306.511719 143.878906 304.085938 L 143.949219 287.847656 L 144.011719 287.164062 L 144.261719 287.269531 L 152.519531 290.660156 L 153.535156 292.941406 L 153.867188 293.683594 L 154.222656 294.480469 L 154.339844 294.734375 L 155.902344 299.882812 C 155.902344 299.882812 159.222656 306.671875 158.035156 307.503906 " fill-opacity="1" fill-rule="nonzero"/><path fill="#ff867a" d="M 161.09375 289.339844 C 161.1875 290.46875 161.039062 291.402344 160.628906 292.148438 C 160.625 292.152344 160.625 292.15625 160.621094 292.164062 C 160.496094 292.398438 160.34375 292.609375 160.167969 292.800781 C 160.066406 292.910156 159.960938 293.019531 159.851562 293.117188 C 158.800781 294.0625 157.226562 294.511719 154.574219 294.484375 L 154.5625 294.484375 C 154.457031 294.484375 154.34375 294.484375 154.226562 294.476562 L 154.222656 294.480469 C 153.984375 294.472656 153.734375 294.464844 153.480469 294.453125 C 153.179688 294.433594 152.867188 294.417969 152.550781 294.386719 C 151.664062 294.53125 150.679688 294.382812 149.707031 294.019531 C 149.496094 293.945312 149.292969 293.859375 149.085938 293.765625 C 146.597656 292.617188 144.304688 290.199219 143.949219 287.847656 C 143.902344 287.519531 143.890625 287.191406 143.921875 286.875 L 143.878906 284.625 L 144.160156 284.253906 C 145.847656 282.015625 145.777344 278.542969 145.777344 278.542969 C 145.679688 274.71875 149.613281 273.125 151.214844 272.519531 C 156.667969 270.457031 156.0625 273.183594 157.621094 276.054688 C 158.90625 278.417969 160.667969 284.171875 161.09375 289.339844 " fill-opacity="1" fill-rule="nonzero"/><path fill="#ff867a" d="M 144.578125 282.738281 C 144.046875 281.679688 143.011719 280.226562 141.824219 281.785156 C 140.097656 284.054688 142.640625 289.230469 145.480469 288.351562 C 147.585938 287.699219 144.855469 283.300781 144.578125 282.738281 " fill-opacity="1" fill-rule="nonzero"/><path fill="#c66c67" d="M 155.050781 284.929688 C 155.019531 285.003906 155.222656 285.101562 155.519531 285.082031 C 155.824219 285.074219 156.238281 284.953125 156.628906 284.601562 C 156.632812 284.59375 156.644531 284.585938 156.652344 284.582031 C 156.886719 284.351562 157.027344 284.109375 157.109375 283.878906 C 157.234375 283.546875 157.230469 283.242188 157.175781 283.09375 C 157.148438 283.003906 157.113281 282.972656 157.066406 282.972656 C 157.042969 282.972656 157.027344 282.984375 157.003906 283 C 156.933594 283.074219 156.84375 283.28125 156.707031 283.519531 C 156.597656 283.695312 156.464844 283.890625 156.289062 284.066406 C 156.273438 284.089844 156.253906 284.105469 156.230469 284.132812 C 155.957031 284.402344 155.644531 284.5625 155.40625 284.675781 C 155.191406 284.78125 155.050781 284.84375 155.050781 284.929688 " fill-opacity="1" fill-rule="nonzero"/><path fill="#d8d8d8" d="M 149.273438 278.835938 C 150.195312 277.824219 151.007812 277.023438 152.472656 277.074219 C 152.882812 277.089844 152.980469 277.601562 152.488281 277.808594 C 151.125 278.390625 150.6875 278.542969 149.640625 279.417969 C 149.171875 279.804688 148.738281 279.417969 149.273438 278.835938 " fill-opacity="1" fill-rule="nonzero"/><path fill="#d8d8d8" d="M 158.515625 277.015625 C 157.863281 276.773438 157.1875 276.984375 156.613281 277.191406 C 156.226562 277.335938 156.105469 277.800781 156.640625 277.8125 C 158.117188 277.855469 158.058594 277.691406 158.773438 277.816406 C 159.28125 277.902344 159.261719 277.289062 158.515625 277.015625 " fill-opacity="1" fill-rule="nonzero"/><path fill="#434a59" d="M 152.953125 281.195312 C 152.980469 281.574219 152.804688 281.902344 152.550781 281.921875 C 152.300781 281.941406 152.074219 281.648438 152.046875 281.261719 C 152.015625 280.878906 152.195312 280.554688 152.449219 280.539062 C 152.695312 280.515625 152.925781 280.8125 152.953125 281.195312 " fill-opacity="1" fill-rule="nonzero"/><path fill="#434a59" d="M 159.199219 280.296875 C 159.230469 280.683594 159.050781 281.007812 158.800781 281.023438 C 158.550781 281.046875 158.324219 280.75 158.292969 280.367188 C 158.265625 279.984375 158.445312 279.660156 158.695312 279.640625 C 158.945312 279.621094 159.171875 279.914062 159.199219 280.296875 " fill-opacity="1" fill-rule="nonzero"/><path fill="#c66c67" d="M 154.386719 294.902344 L 155.902344 299.882812 C 152.84375 298.890625 150.855469 296.316406 149.902344 294.425781 C 149.828125 294.289062 149.765625 294.152344 149.707031 294.019531 C 149.316406 293.167969 149.167969 292.507812 149.25 292.296875 C 149.472656 291.71875 151.109375 293.285156 153.285156 293.605469 C 153.484375 293.632812 153.679688 293.660156 153.867188 293.683594 C 156.78125 294.023438 158.722656 293.605469 159.851562 293.117188 C 158.800781 294.0625 157.226562 294.511719 154.574219 294.484375 L 154.5625 294.484375 C 154.539062 294.484375 154.507812 294.503906 154.484375 294.523438 C 154.378906 294.617188 154.347656 294.769531 154.386719 294.902344 " fill-opacity="1" fill-rule="nonzero"/><path fill="#ffffff" d="M 154.628906 306.105469 C 154.628906 306.105469 145.082031 302.101562 143.0625 301.054688 L 141.648438 306.472656 L 150.875 314.84375 L 154.476562 309.171875 L 161.601562 311.625 L 156.699219 301.433594 L 154.628906 306.105469 " fill-opacity="1" fill-rule="nonzero"/><path fill="#2a2f38" d="M 113.492188 481.210938 Z M 113.496094 481.21875 C 113.496094 481.214844 113.492188 481.214844 113.492188 481.214844 C 113.492188 481.214844 113.496094 481.214844 113.496094 481.21875 Z M 83.953125 711.890625 C 83.65625 711.847656 83.449219 711.566406 83.492188 711.265625 L 96.324219 604.441406 C 96.4375 603.554688 107.90625 515.835938 110.808594 498.878906 C 113.453125 483.421875 113.480469 481.347656 113.472656 481.125 C 113.433594 480.867188 113.582031 480.605469 113.839844 480.519531 C 114.128906 480.421875 114.4375 480.578125 114.535156 480.863281 C 114.734375 481.449219 113.769531 488.082031 111.890625 499.066406 C 108.996094 516 97.527344 603.699219 97.410156 604.589844 L 84.582031 711.429688 C 84.539062 711.699219 84.304688 711.898438 84.035156 711.898438 C 84.011719 711.898438 83.984375 711.894531 83.953125 711.890625 " fill-opacity="1" fill-rule="nonzero"/><path fill="#2a2f38" d="M 161.652344 474.066406 C 161.851562 474.066406 162.046875 473.957031 162.144531 473.769531 C 165.226562 467.6875 168.414062 465.828125 168.449219 465.8125 C 168.710938 465.660156 168.804688 465.324219 168.652344 465.0625 C 168.503906 464.796875 168.167969 464.707031 167.902344 464.855469 C 167.761719 464.933594 164.394531 466.898438 161.164062 473.269531 C 161.027344 473.539062 161.132812 473.871094 161.40625 474.011719 C 161.484375 474.050781 161.570312 474.066406 161.652344 474.066406 " fill-opacity="1" fill-rule="nonzero"/><path fill="#2a2f38" d="M 160.128906 712.335938 C 160.417969 712.335938 160.660156 712.113281 160.679688 711.820312 C 160.6875 711.660156 161.582031 696.109375 162.125 690.140625 C 162.453125 686.511719 162.78125 672.933594 163.070312 660.953125 C 163.261719 652.996094 163.445312 624.214844 163.589844 621.1875 C 163.703125 618.949219 163.761719 613.46875 163.835938 606.535156 C 164.011719 590.523438 164.277344 566.324219 165.453125 560.964844 C 166.3125 557.03125 166.34375 545.375 166.378906 533.035156 C 166.40625 521.398438 166.4375 509.359375 167.25 505.21875 C 168.898438 496.785156 165.597656 477.773438 165.457031 476.96875 C 165.402344 476.671875 165.121094 476.46875 164.820312 476.523438 C 164.519531 476.574219 164.320312 476.863281 164.375 477.160156 C 164.40625 477.351562 167.78125 496.773438 166.167969 505.007812 C 165.339844 509.25 165.308594 521.339844 165.277344 533.03125 C 165.246094 544.769531 165.214844 556.910156 164.378906 560.730469 C 163.179688 566.199219 162.914062 590.46875 162.738281 606.523438 C 162.660156 613.449219 162.601562 618.917969 162.492188 621.132812 C 162.34375 624.175781 162.164062 652.960938 161.972656 660.921875 C 161.683594 672.890625 161.355469 686.449219 161.027344 690.039062 C 160.484375 696.027344 159.589844 711.601562 159.578125 711.753906 C 159.5625 712.058594 159.792969 712.316406 160.097656 712.335938 C 160.109375 712.335938 160.121094 712.335938 160.128906 712.335938 " fill-opacity="1" fill-rule="nonzero"/><path fill="#2a2f38" d="M 107.585938 483.851562 C 107.625 483.851562 107.667969 483.84375 107.710938 483.835938 C 118.1875 481.421875 126.207031 473.304688 127.042969 471.828125 C 127.191406 471.566406 127.097656 471.230469 126.835938 471.078125 C 126.574219 470.929688 126.234375 471.023438 126.085938 471.285156 C 125.390625 472.515625 117.550781 480.441406 107.460938 482.761719 C 107.167969 482.828125 106.980469 483.125 107.050781 483.421875 C 107.109375 483.675781 107.335938 483.851562 107.585938 483.851562 " fill-opacity="1" fill-rule="nonzero"/><path fill="#434a59" d="M 151.363281 279.535156 C 151.125 279.519531 150.882812 279.539062 150.640625 279.597656 C 150.035156 279.742188 149.519531 280.097656 149.1875 280.59375 C 148.859375 281.085938 148.75 281.660156 148.882812 282.214844 C 149.15625 283.359375 150.386719 284.050781 151.628906 283.753906 C 152.234375 283.609375 152.75 283.257812 153.082031 282.761719 C 153.414062 282.265625 153.519531 281.691406 153.390625 281.140625 C 153.167969 280.21875 152.328125 279.589844 151.363281 279.535156 Z M 150.882812 284.289062 C 149.710938 284.21875 148.691406 283.449219 148.425781 282.320312 C 148.261719 281.644531 148.394531 280.9375 148.796875 280.332031 C 149.195312 279.738281 149.808594 279.3125 150.53125 279.140625 C 152.023438 278.785156 153.515625 279.632812 153.847656 281.03125 C 154.007812 281.710938 153.875 282.417969 153.476562 283.019531 C 153.078125 283.617188 152.460938 284.039062 151.738281 284.210938 C 151.449219 284.28125 151.164062 284.304688 150.882812 284.289062 " fill-opacity="1" fill-rule="nonzero"/><path fill="#434a59" d="M 158.527344 278.460938 C 158.382812 278.453125 158.238281 278.46875 158.097656 278.5 C 157.210938 278.714844 156.683594 279.703125 156.925781 280.71875 C 157.164062 281.730469 158.082031 282.378906 158.972656 282.167969 C 159.398438 282.0625 159.753906 281.78125 159.976562 281.371094 C 160.207031 280.945312 160.265625 280.445312 160.148438 279.953125 C 160.03125 279.457031 159.75 279.03125 159.355469 278.757812 C 159.097656 278.582031 158.8125 278.476562 158.527344 278.460938 Z M 158.523438 282.675781 C 157.578125 282.621094 156.71875 281.882812 156.464844 280.824219 C 156.167969 279.5625 156.851562 278.3125 157.992188 278.042969 C 158.546875 277.910156 159.128906 278.027344 159.625 278.375 C 160.113281 278.714844 160.460938 279.234375 160.605469 279.839844 C 160.75 280.449219 160.675781 281.074219 160.390625 281.59375 C 160.105469 282.125 159.640625 282.492188 159.082031 282.625 C 158.894531 282.671875 158.707031 282.6875 158.523438 282.675781 " fill-opacity="1" fill-rule="nonzero"/><path fill="#434a59" d="M 153.578125 281.230469 C 153.511719 281.226562 153.449219 281.195312 153.40625 281.140625 C 153.324219 281.035156 153.339844 280.890625 153.441406 280.808594 C 153.5 280.765625 154.84375 279.714844 156.734375 280.339844 C 156.855469 280.382812 156.925781 280.515625 156.882812 280.640625 C 156.84375 280.761719 156.710938 280.828125 156.585938 280.789062 C 154.945312 280.246094 153.785156 281.140625 153.734375 281.179688 C 153.6875 281.214844 153.632812 281.234375 153.578125 281.230469 " fill-opacity="1" fill-rule="nonzero"/><path fill="#434a59" d="M 144.976562 282.144531 C 144.855469 282.136719 144.757812 282.039062 144.753906 281.917969 C 144.75 281.785156 144.851562 281.679688 144.980469 281.671875 L 148.585938 281.546875 C 148.710938 281.546875 148.824219 281.648438 148.828125 281.773438 C 148.832031 281.90625 148.730469 282.015625 148.601562 282.019531 L 144.996094 282.144531 C 144.988281 282.144531 144.984375 282.144531 144.976562 282.144531 " fill-opacity="1" fill-rule="nonzero"/><path fill="#ffffff" d="M 153.441406 286.214844 C 153.441406 286.214844 158.089844 285.589844 159.597656 285.082031 C 159.597656 285.082031 160.089844 286.898438 158.878906 287.589844 C 157.664062 288.277344 154.566406 287.753906 153.441406 286.214844 " fill-opacity="1" fill-rule="nonzero"/><path fill="#434a59" d="M 172.1875 434.304688 C 172.167969 434.304688 172.148438 434.304688 172.128906 434.304688 C 171.695312 434.269531 171.375 433.890625 171.40625 433.464844 C 171.417969 433.320312 172.464844 419.199219 171.40625 406.34375 C 170.347656 393.476562 167.019531 378.097656 166.984375 377.941406 C 166.894531 377.523438 167.160156 377.105469 167.585938 377.011719 C 168.003906 376.921875 168.421875 377.1875 168.515625 377.609375 C 168.546875 377.765625 171.898438 393.242188 172.964844 406.214844 C 174.035156 419.195312 172.976562 433.4375 172.964844 433.582031 C 172.933594 433.992188 172.59375 434.304688 172.1875 434.304688 " fill-opacity="1" fill-rule="nonzero"/><path fill="#5679bf" d="M 106.328125 326.210938 C 104.171875 328.992188 103.175781 332.496094 103.316406 336.011719 C 103.90625 350.679688 108.550781 405.597656 145.03125 425.363281 C 170.496094 439.160156 234.769531 446.535156 228.683594 421.082031 C 227.1875 414.835938 216.445312 411.761719 213.933594 410.949219 C 204.347656 407.847656 158.292969 395.425781 158.292969 395.425781 C 158.292969 395.425781 139.964844 340.59375 121.113281 325.804688 C 113.753906 320.035156 109.054688 322.699219 106.328125 326.210938 " fill-opacity="1" fill-rule="nonzero"/><path fill="#ffffff" d="M 220.492188 430.886719 C 220.742188 431.800781 221.617188 432.398438 222.558594 432.296875 C 224.359375 432.101562 227.128906 431.730469 227.621094 431.269531 C 230.117188 428.957031 230.046875 417.664062 228.882812 415.898438 C 227.714844 414.132812 223.691406 414.972656 222.625 415.265625 C 220.203125 415.917969 218.621094 424.042969 220.492188 430.886719 " fill-opacity="1" fill-rule="nonzero"/><path fill="#ff867a" d="M 225.617188 416.644531 C 225.617188 416.644531 229.910156 410.21875 231.476562 409.023438 C 233.046875 407.828125 244.476562 405.066406 244.703125 405.757812 C 245.296875 407.589844 237.171875 410.054688 237.171875 410.054688 C 237.171875 410.054688 245.238281 408.691406 245.753906 409.691406 C 246.273438 410.695312 245.847656 411.1875 245.847656 411.1875 C 245.847656 411.1875 246.710938 411.78125 246.355469 412.996094 C 246.128906 413.761719 239.894531 416.535156 239.894531 416.535156 C 239.894531 416.535156 242.707031 415.679688 244.550781 415.753906 C 246.394531 415.828125 241.367188 417.945312 239.304688 419.195312 C 237.242188 420.449219 234.804688 424.851562 230.964844 427.335938 C 227.128906 429.820312 224.210938 429.832031 223.417969 428.710938 C 222.625 427.585938 223.640625 419.5 225.617188 416.644531 " fill-opacity="1" fill-rule="nonzero"/><path fill="#434a59" d="M 200.304688 438.660156 C 194.75 438.660156 189.488281 438.320312 189.15625 438.296875 C 159.691406 435.421875 147.085938 430.519531 130.484375 415.507812 C 114.136719 400.722656 109.152344 377 109.105469 376.761719 C 109 376.25 109.332031 375.753906 109.839844 375.652344 C 110.351562 375.546875 110.851562 375.875 110.953125 376.386719 C 111.003906 376.617188 115.871094 399.75 131.75 414.109375 C 147.988281 428.792969 160.363281 433.589844 189.308594 436.414062 C 189.398438 436.421875 201.492188 437.203125 208.316406 436.417969 C 208.832031 436.359375 209.300781 436.730469 209.363281 437.246094 C 209.421875 437.765625 209.050781 438.230469 208.53125 438.292969 C 206.144531 438.566406 203.1875 438.660156 200.304688 438.660156 " fill-opacity="1" fill-rule="nonzero"/><path fill="#434a59" d="M 205.867188 409.488281 C 205.796875 409.488281 205.726562 409.484375 205.65625 409.464844 C 205.539062 409.4375 194.039062 406.773438 182.410156 403.640625 C 158.523438 397.203125 157.394531 395.152344 156.914062 394.277344 C 154.644531 390.152344 141.003906 356.398438 140.425781 354.964844 C 140.230469 354.480469 140.464844 353.929688 140.945312 353.734375 C 141.429688 353.539062 141.980469 353.773438 142.175781 354.257812 C 142.316406 354.605469 156.351562 389.34375 158.566406 393.367188 C 159.859375 395.714844 183.738281 402.460938 206.078125 407.625 C 206.585938 407.742188 206.902344 408.25 206.785156 408.757812 C 206.6875 409.195312 206.296875 409.488281 205.867188 409.488281 " fill-opacity="1" fill-rule="nonzero"/><path fill="#f27872" d="M 241.429688 364.566406 C 244.175781 366.578125 247.261719 382.234375 247.261719 382.234375 C 247.261719 382.234375 240.605469 386.042969 236.441406 383.203125 C 234.375 381.796875 233.488281 377.601562 233.488281 377.601562 C 233.488281 377.601562 232.617188 377.769531 231.621094 374.464844 C 230.925781 372.148438 233.492188 370.640625 235.101562 369.941406 C 233.8125 370.3125 231.730469 370.585938 230.054688 369.261719 C 227.433594 367.191406 238.683594 362.558594 241.429688 364.566406 " fill-opacity="1" fill-rule="nonzero"/><path fill="#aa5b50" d="M 599.640625 337.332031 C 599.640625 337.332031 555.722656 376.28125 549.925781 402.066406 C 544.128906 427.851562 573.269531 476.0625 583.792969 475.605469 C 594.320312 475.148438 578.285156 413.050781 579.503906 409.082031 C 580.726562 405.117188 600.269531 376.28125 605.605469 363.160156 C 610.945312 350.039062 604.347656 332.984375 599.640625 337.332031 " fill-opacity="1" fill-rule="nonzero"/><path fill="#f2c3a7" d="M 622.0625 289.691406 C 623.105469 285.191406 627.960938 278.566406 633.539062 281 C 640.222656 283.917969 641.234375 288.074219 641.234375 288.074219 C 641.234375 288.074219 641.46875 288.164062 641.832031 288.324219 C 643.085938 288.300781 646.011719 288.410156 647.464844 289.804688 C 649.34375 291.609375 649.960938 294.109375 648.960938 293.574219 C 647.964844 293.03125 647.386719 291.273438 646.503906 290.980469 C 646.332031 290.925781 646.164062 290.902344 645.996094 290.890625 C 646.367188 291.277344 646.640625 291.691406 646.730469 292.113281 C 649.15625 303.066406 644.851562 303.71875 644.390625 305.902344 C 643.910156 308.199219 641.3125 311 640.605469 311.113281 C 639.472656 311.292969 629.398438 300.078125 628.527344 300.320312 C 627.65625 300.5625 626.875 297.566406 626.578125 295.675781 C 626.277344 293.785156 621.222656 293.351562 622.0625 289.691406 " fill-opacity="1" fill-rule="nonzero"/><path fill="#b1d5de" d="M 661.242188 729.652344 L 671.386719 729.652344 C 685.21875 729.652344 743.128906 730.511719 730.132812 732.402344 C 718.082031 734.15625 665.082031 735.152344 651.246094 735.152344 L 638.96875 735.152344 C 596.890625 735.152344 559.566406 733.914062 573.335938 732.402344 C 587.105469 730.886719 615.453125 729.652344 661.242188 729.652344 " fill-opacity="1" fill-rule="nonzero"/><path fill="#434a59" d="M 697.035156 721.617188 C 694.871094 717.472656 694.785156 710.789062 694.691406 710.472656 C 694.308594 709.101562 691.089844 708.625 690.222656 711.871094 C 688.5 718.269531 682.148438 710.554688 682.960938 712.867188 C 685.386719 719.75 686.023438 731.445312 688.535156 731.671875 C 693.890625 732.160156 714.433594 735.492188 714.136719 732.660156 C 713.960938 730.964844 698.480469 724.371094 697.035156 721.617188 " fill-opacity="1" fill-rule="nonzero"/><path fill="#434a59" d="M 594.664062 727.714844 C 597.570312 726.355469 597.878906 723.730469 599.070312 721.214844 C 599.148438 721.042969 599.539062 717.46875 599.539062 717.1875 C 599.523438 715.957031 604.25 696.246094 605.96875 698.761719 C 609.359375 703.730469 612 712.234375 611.863281 714.347656 C 611.457031 720.632812 614.074219 730.546875 611.753906 731.289062 C 606.816406 732.875 583.632812 735.15625 583.132812 732.726562 C 582.832031 731.269531 589.640625 730.066406 594.664062 727.714844 " fill-opacity="1" fill-rule="nonzero"/><path fill="#434a59" d="M 665.234375 455.796875 C 664.523438 454.53125 584.78125 437.484375 579.503906 455.523438 C 579.503906 455.523438 587.898438 709.535156 592.90625 713.144531 C 597.910156 716.757812 609.796875 718.574219 612.433594 712.914062 C 619.554688 697.597656 621.292969 530.882812 620.027344 505.222656 C 621.523438 513.277344 669.46875 708 673.398438 712.914062 C 677.328125 717.824219 690.636719 716.1875 695.21875 712.914062 C 697.90625 710.992188 683.085938 619.695312 677.472656 552.363281 C 672.800781 496.339844 668.929688 462.390625 665.234375 455.796875 " fill-opacity="1" fill-rule="nonzero"/><path fill="#323842" d="M 579.894531 466.988281 C 579.644531 459.699219 579.507812 455.523438 579.507812 455.523438 C 581.042969 450.261719 588.921875 447.984375 599.324219 447.429688 C 611.8125 449.53125 625.613281 451.558594 632.945312 451.667969 C 637.875 451.742188 643.59375 451.898438 649.09375 452.078125 C 658.488281 453.8125 665.03125 455.441406 665.234375 455.796875 C 666.023438 457.203125 666.816406 459.851562 667.625 463.691406 C 660.46875 465.53125 638.53125 470.425781 612.171875 468.925781 C 597.777344 468.101562 587.199219 467.453125 579.894531 466.988281 " fill-opacity="1" fill-rule="nonzero"/><path fill="#d17a69" d="M 667.785156 460.039062 C 667.804688 442.179688 667.9375 436.4375 668.527344 422.402344 C 670.632812 372.398438 686.898438 365.203125 680.988281 351.667969 C 675.617188 339.367188 658.261719 327.09375 641.558594 325.484375 C 623.445312 323.738281 603.546875 331.132812 596.324219 340.910156 C 582.984375 358.976562 586.816406 406.847656 578.269531 454.226562 C 575.792969 467.941406 667.785156 462.015625 667.785156 460.039062 " fill-opacity="1" fill-rule="nonzero"/><path fill="#ff867a" d="M 631.914062 335.496094 C 641.886719 337.867188 647.289062 329.167969 647.160156 326.285156 C 647.160156 326.285156 645.097656 319.714844 644.851562 317.160156 C 644.554688 314.082031 644.382812 304.898438 644.382812 304.898438 L 644.117188 305.070312 L 635.339844 310.84375 L 634.675781 313.707031 L 634.15625 315.957031 L 632.589844 322.703125 C 632.589844 322.703125 628.671875 334.726562 631.914062 335.496094 " fill-opacity="1" fill-rule="nonzero"/><path fill="#ff867a" d="M 642.714844 301.164062 C 643.207031 299.859375 644.246094 298.035156 645.820312 299.722656 C 648.113281 302.171875 645.75 308.53125 642.324219 307.839844 C 639.777344 307.324219 642.453125 301.851562 642.714844 301.164062 " fill-opacity="1" fill-rule="nonzero"/><path fill="#c66c67" d="M 633.285156 316.082031 C 633.566406 316.046875 633.855469 316.003906 634.15625 315.957031 L 632.589844 322.703125 C 636.5 321.03125 638.46875 317.214844 639.207031 314.605469 C 639.585938 313.277344 639.648438 312.257812 639.484375 312 C 639.09375 311.386719 637.554688 313.558594 635.113281 314.414062 C 630.042969 316.195312 626.726562 315.472656 625.777344 314.898438 C 627.132812 316.132812 629.453125 316.527344 632.875 316.132812 L 632.890625 316.128906 C 632.964844 316.113281 633.042969 316.101562 633.117188 316.085938 L 633.132812 316.082031 C 633.203125 316.066406 633.25 316.070312 633.285156 316.082031 " fill-opacity="1" fill-rule="nonzero"/><path fill="#ff867a" d="M 625.167969 314.191406 C 625.175781 314.203125 625.179688 314.203125 625.183594 314.214844 C 625.355469 314.46875 625.554688 314.695312 625.777344 314.898438 C 627.132812 316.132812 629.453125 316.527344 632.875 316.132812 L 632.890625 316.128906 C 633.019531 316.117188 633.152344 316.101562 633.285156 316.082031 C 633.566406 316.046875 633.855469 316.003906 634.15625 315.957031 C 634.503906 315.898438 634.863281 315.839844 635.234375 315.765625 C 636.515625 315.832031 637.90625 315.382812 639.207031 314.605469 C 642.363281 312.726562 645.015625 308.941406 644.394531 305.902344 L 644.117188 305.070312 L 641.105469 296.097656 C 639.480469 291.675781 636.769531 291.128906 632.785156 290.386719 C 628.726562 289.632812 628.28125 291.902344 627.019531 294.949219 C 625.808594 297.875 624.265625 304.851562 624.324219 310.964844 C 624.335938 312.296875 624.609375 313.371094 625.167969 314.191406 " fill-opacity="1" fill-rule="nonzero"/><path fill="#f2c3a7" d="M 642.390625 298.414062 C 642.390625 298.414062 642.152344 303.351562 641.234375 304.898438 C 640.316406 306.445312 637.863281 306.632812 635.863281 306.480469 C 633.863281 306.328125 630.542969 304.296875 628.71875 304.0625 C 626.894531 303.832031 624.964844 305.140625 624.324219 305.945312 C 623.679688 306.753906 623.621094 309.992188 623.195312 311.414062 C 622.773438 312.832031 622.601562 315.554688 624.488281 316.707031 C 626.367188 317.859375 632.710938 317.390625 635.320312 316.277344 C 637.933594 315.167969 641.480469 313.746094 643.007812 312.25 C 644.53125 310.75 643.699219 307.171875 643.199219 305.332031 C 642.699219 303.484375 643.699219 299.261719 643.082031 298.683594 C 642.46875 298.109375 642.390625 298.414062 642.390625 298.414062 " fill-opacity="1" fill-rule="nonzero"/><path fill="#c66c67" d="M 630.25 304.363281 C 630.292969 304.449219 630.070312 304.585938 629.722656 304.601562 C 629.363281 304.628906 628.863281 304.535156 628.363281 304.179688 C 628.359375 304.167969 628.339844 304.15625 628.332031 304.152344 C 628.03125 303.917969 627.839844 303.648438 627.707031 303.390625 C 627.519531 303.015625 627.492188 302.660156 627.535156 302.480469 C 627.558594 302.375 627.589844 302.324219 627.648438 302.328125 C 627.675781 302.324219 627.699219 302.335938 627.722656 302.351562 C 627.816406 302.429688 627.949219 302.660156 628.136719 302.917969 C 628.289062 303.113281 628.464844 303.324219 628.691406 303.507812 C 628.714844 303.535156 628.742188 303.550781 628.769531 303.574219 C 629.121094 303.859375 629.511719 304.007812 629.804688 304.113281 C 630.066406 304.207031 630.238281 304.265625 630.25 304.363281 " fill-opacity="1" fill-rule="nonzero"/><path fill="#f2c3a7" d="M 637.65625 296.625 C 636.316406 295.734375 635.160156 295.050781 633.5 295.527344 C 633.035156 295.660156 633.074219 296.269531 633.699219 296.371094 C 635.414062 296.644531 635.960938 296.691406 637.402344 297.394531 C 638.046875 297.703125 638.429688 297.140625 637.65625 296.625 " fill-opacity="1" fill-rule="nonzero"/><path fill="#f2c3a7" d="M 626.386719 296.398438 C 627.011719 295.875 627.84375 295.839844 628.570312 295.84375 C 629.050781 295.84375 629.371094 296.3125 628.78125 296.542969 C 627.160156 297.171875 627.164062 296.96875 626.421875 297.390625 C 625.890625 297.6875 625.671875 297 626.386719 296.398438 " fill-opacity="1" fill-rule="nonzero"/><path fill="#e7f2f2" d="M 634.902344 333.550781 C 634.902344 333.550781 640.292969 331.261719 641.777344 330.410156 C 643.257812 329.554688 646.492188 324.082031 646.492188 324.082031 L 649.757812 327.824219 C 649.757812 327.824219 646.488281 334.6875 643.871094 336.730469 C 641.257812 338.773438 639.628906 339.363281 639.511719 339.390625 C 639.390625 339.417969 634.964844 336.234375 634.390625 336.4375 C 633.824219 336.648438 628.492188 340.460938 628.476562 339.667969 C 628.457031 338.871094 629.125 331.695312 629.519531 330.847656 C 629.910156 329.996094 630.882812 326.671875 631.265625 327.652344 C 632.703125 331.316406 634.902344 333.550781 634.902344 333.550781 " fill-opacity="1" fill-rule="nonzero"/><path fill="#323842" d="M 691.734375 709.753906 C 691.238281 709.753906 690.832031 709.363281 690.820312 708.863281 C 690.714844 704.613281 685.976562 671.207031 684.5625 664.742188 C 683.644531 660.515625 681.511719 640.816406 679.960938 626.4375 C 679.140625 618.871094 678.4375 612.339844 678.160156 610.378906 C 677.351562 604.734375 662.609375 474.9375 662.460938 473.628906 C 662.402344 473.125 662.765625 472.671875 663.265625 472.613281 C 663.769531 472.558594 664.21875 472.917969 664.277344 473.421875 C 664.425781 474.730469 679.167969 604.5 679.96875 610.117188 C 680.253906 612.109375 680.925781 618.347656 681.78125 626.238281 C 683.328125 640.582031 685.449219 660.222656 686.351562 664.347656 C 687.824219 671.113281 692.535156 704.359375 692.648438 708.816406 C 692.664062 709.324219 692.265625 709.746094 691.757812 709.753906 C 691.75 709.753906 691.742188 709.753906 691.734375 709.753906 " fill-opacity="1" fill-rule="nonzero"/><path fill="#323842" d="M 620.027344 506.140625 C 619.695312 506.140625 619.371094 505.953125 619.207031 505.632812 C 615.117188 497.484375 608.988281 494.554688 608.925781 494.523438 C 608.46875 494.3125 608.269531 493.769531 608.484375 493.308594 C 608.699219 492.851562 609.242188 492.652344 609.703125 492.867188 C 609.976562 492.992188 616.472656 496.097656 620.847656 504.8125 C 621.070312 505.265625 620.890625 505.816406 620.441406 506.042969 C 620.308594 506.109375 620.167969 506.140625 620.027344 506.140625 " fill-opacity="1" fill-rule="nonzero"/><path fill="#323842" d="M 608.617188 500.375 C 608.144531 500.375 607.746094 500.015625 607.703125 499.535156 C 607.660156 499.035156 608.035156 498.589844 608.542969 498.546875 L 615.65625 497.953125 C 616.148438 497.917969 616.597656 498.285156 616.644531 498.785156 C 616.683594 499.289062 616.3125 499.734375 615.804688 499.773438 L 608.691406 500.371094 C 608.664062 500.375 608.640625 500.375 608.617188 500.375 " fill-opacity="1" fill-rule="nonzero"/><path fill="#323842" d="M 608.617188 710.339844 C 608.589844 710.339844 608.570312 710.335938 608.542969 710.335938 C 608.039062 710.296875 607.664062 709.855469 607.703125 709.351562 C 607.726562 709.046875 610.160156 678.539062 611.265625 670.921875 C 611.890625 666.640625 611.78125 632.125 611.683594 601.667969 C 611.609375 578.128906 611.539062 555.894531 611.8125 549.984375 C 612.425781 536.523438 614.789062 505.464844 614.816406 505.152344 C 614.855469 504.648438 615.304688 504.273438 615.796875 504.3125 C 616.304688 504.347656 616.675781 504.789062 616.644531 505.292969 C 616.617188 505.605469 614.253906 536.632812 613.636719 550.066406 C 613.371094 555.933594 613.441406 578.148438 613.515625 601.664062 C 613.617188 633.671875 613.71875 666.769531 613.078125 671.1875 C 611.980469 678.742188 609.550781 709.191406 609.53125 709.496094 C 609.492188 709.976562 609.089844 710.339844 608.617188 710.339844 " fill-opacity="1" fill-rule="nonzero"/><g clip-path="url(#0a7b133e61)"><path fill="#d17a69" d="M 674.792969 342.484375 C 667.414062 335.484375 663.417969 358.277344 665.082031 369.414062 C 667.414062 385.035156 704.5625 409.414062 705.152344 418.933594 C 705.757812 428.6875 662.15625 480.539062 665.238281 488.652344 C 668.378906 496.933594 723.011719 471.59375 733.445312 437.917969 C 745.492188 399.0625 688.167969 355.171875 674.792969 342.484375 " fill-opacity="1" fill-rule="nonzero"/></g><path fill="#ff867a" d="M 671.507812 479.164062 C 671.507812 479.164062 656.101562 472.242188 654.238281 473.082031 C 652.375 473.925781 644.324219 482.875 646.109375 482.449219 C 647.894531 482.015625 649.714844 480.34375 649.714844 480.34375 C 649.714844 480.34375 646.636719 484.433594 646.664062 485.125 C 646.691406 485.816406 648.359375 485.722656 648.359375 485.722656 C 648.359375 485.722656 648.96875 487.84375 648.992188 487.988281 C 649.011719 488.128906 653.347656 483.9375 653.347656 483.9375 C 653.347656 483.9375 651.625 487.28125 652.308594 487.660156 C 652.996094 488.03125 657.292969 484.644531 657.292969 484.644531 C 657.292969 484.644531 663.554688 492.042969 672.058594 490.535156 C 680.566406 489.027344 671.507812 479.164062 671.507812 479.164062 " fill-opacity="1" fill-rule="nonzero"/><path fill="#aa5b50" d="M 705.242188 428.910156 C 705.195312 428.90625 705.140625 428.898438 705.09375 428.886719 C 704.457031 428.734375 704.066406 428.097656 704.21875 427.460938 C 704.75 425.207031 705.640625 418.886719 703.378906 416.710938 C 702.90625 416.257812 702.894531 415.507812 703.347656 415.035156 C 703.800781 414.5625 704.546875 414.550781 705.019531 415.003906 C 708.65625 418.5 706.75 427.046875 706.519531 428.007812 C 706.382812 428.59375 705.824219 428.976562 705.242188 428.910156 " fill-opacity="1" fill-rule="nonzero"/><path fill="#aa5b50" d="M 674.09375 386.28125 C 673.5625 386.28125 673.042969 386.035156 672.703125 385.578125 L 663.921875 373.582031 C 663.363281 372.820312 663.527344 371.746094 664.292969 371.183594 C 665.054688 370.625 666.128906 370.792969 666.691406 371.554688 L 675.472656 383.550781 C 676.03125 384.3125 675.863281 385.390625 675.101562 385.949219 C 674.796875 386.171875 674.441406 386.28125 674.09375 386.28125 " fill-opacity="1" fill-rule="nonzero"/><path fill="#ffffff" d="M 625.542969 305.792969 C 625.542969 305.792969 628.464844 305.96875 633.1875 306.554688 C 633.1875 306.554688 630.960938 309.355469 627.894531 309.125 C 624.828125 308.898438 625.542969 305.792969 625.542969 305.792969 " fill-opacity="1" fill-rule="nonzero"/></svg>