<svg xmlns="http://www.w3.org/2000/svg" xmlns:xlink="http://www.w3.org/1999/xlink" width="1080" zoomAndPan="magnify" viewBox="0 0 810 809.999993" height="1080" preserveAspectRatio="xMidYMid meet" version="1.0"><defs><clipPath id="065847c8e0"><path d="M 487.117188 650 L 555.929688 650 L 555.929688 700.316406 L 487.117188 700.316406 Z M 487.117188 650 " clip-rule="nonzero"/></clipPath><clipPath id="c1a3b3f580"><path d="M 616 109.316406 L 633 109.316406 L 633 148 L 616 148 Z M 616 109.316406 " clip-rule="nonzero"/></clipPath><clipPath id="cd4870b7b7"><path d="M 624 109.316406 L 637 109.316406 L 637 147 L 624 147 Z M 624 109.316406 " clip-rule="nonzero"/></clipPath><clipPath id="f0eed535ab"><path d="M 196 109.316406 L 415 109.316406 L 415 229 L 196 229 Z M 196 109.316406 " clip-rule="nonzero"/></clipPath></defs><rect x="-81" width="972" fill="#ffffff" y="-80.999999" height="971.999992" fill-opacity="1"/><rect x="-81" width="972" fill="#ffffff" y="-80.999999" height="971.999992" fill-opacity="1"/><path fill="#e4e2f3" d="M 443.339844 571.140625 C 441.402344 570.601562 531.679688 548.003906 604.503906 529.941406 L 598.640625 523.519531 C 475 543.582031 273.316406 575.152344 254.550781 570.71875 C 235.058594 566.109375 457.777344 523.421875 593.84375 497.601562 L 680.144531 406.363281 L 646.121094 323.667969 L 510.679688 394.804688 L 628.753906 281.472656 L 618.175781 255.765625 L 457.640625 350.828125 L 595.5 200.644531 L 569.941406 138.53125 L 398.496094 195.359375 L 398.496094 258.78125 L 320.066406 161 L 88.53125 326.28125 L 170.335938 504.40625 L 134.769531 618.042969 L 680.144531 612.863281 L 637.074219 565.648438 C 552.273438 568.367188 445.292969 571.683594 443.339844 571.140625 " fill-opacity="1" fill-rule="nonzero"/><path fill="#c8ace3" d="M 144.136719 447.355469 L 170.335938 504.40625 L 159.382812 539.410156 L 178.242188 558.898438 L 139.269531 618 L 680.144531 612.863281 L 660.402344 591.222656 C 573.90625 592.527344 479.550781 593.882812 477.632812 593.632812 C 475.59375 593.363281 566.316406 582.5625 644.136719 573.390625 L 640.511719 569.414062 C 504.421875 579.875 290.800781 595.675781 270.597656 593.410156 C 256.289062 591.808594 360.96875 581.320312 476.503906 570.535156 C 456.703125 571.0625 444.003906 571.324219 443.339844 571.140625 C 441.402344 570.601562 531.679688 548.003906 604.503906 529.941406 L 598.640625 523.519531 C 475 543.582031 273.316406 575.152344 254.550781 570.71875 C 235.058594 566.109375 457.777344 523.425781 593.84375 497.601562 L 601.652344 489.347656 L 551.476562 501.851562 L 618.855469 471.160156 L 654.253906 433.734375 L 493.316406 478.964844 L 644.492188 400.800781 L 616.46875 368.472656 L 537.019531 380.972656 L 510.679688 394.804688 L 522.753906 383.21875 L 428.453125 398.046875 L 428.453125 431.058594 L 342.441406 380.164062 L 144.136719 447.355469 " fill-opacity="1" fill-rule="nonzero"/><path fill="#c8ace3" d="M 149.671875 280.257812 L 131.996094 304.671875 L 128.289062 332.339844 L 193.113281 331.417969 L 215.53125 318.507812 L 187.089844 286.375 L 149.671875 280.257812 " fill-opacity="1" fill-rule="nonzero"/><path fill="#383530" d="M 283.398438 309.691406 C 288.246094 314.027344 292.414062 319.480469 295.679688 326.277344 C 301.59375 338.578125 302.414062 352.042969 305.128906 365.191406 C 310.328125 390.421875 315.53125 415.648438 320.730469 440.878906 C 330.277344 487.203125 339.828125 533.527344 349.378906 579.851562 C 350.996094 587.710938 352.621094 595.570312 354.238281 603.433594 C 355.597656 610.011719 351.355469 616.445312 344.777344 617.804688 L 161.984375 655.46875 C 155.402344 656.824219 148.964844 652.585938 147.613281 646.011719 C 141.503906 616.410156 135.402344 586.808594 129.304688 557.207031 C 118.621094 505.390625 107.941406 453.570312 97.253906 401.75 C 92.957031 380.890625 85.085938 359.554688 97.738281 339.941406 C 108.472656 323.300781 128.753906 315.992188 146.664062 310.015625 C 173.867188 300.933594 200.742188 295.960938 229.292969 294.753906 C 249.3125 293.90625 269.238281 297.027344 283.398438 309.691406 " fill-opacity="1" fill-rule="nonzero"/><path fill="#ccced0" d="M 278.882812 339.523438 L 114.824219 373.328125 C 112.621094 373.785156 111.203125 375.941406 111.652344 378.140625 L 120.335938 420.246094 C 120.789062 422.449219 122.949219 423.867188 125.144531 423.417969 L 289.203125 389.609375 C 291.40625 389.15625 292.824219 387 292.375 384.800781 L 283.691406 342.695312 C 283.242188 340.492188 281.078125 339.074219 278.882812 339.523438 " fill-opacity="1" fill-rule="nonzero"/><path fill="#a0a1a3" d="M 113.722656 373.726562 C 112.175781 374.558594 111.285156 376.335938 111.652344 378.140625 L 120.335938 420.246094 C 120.417969 420.644531 120.554688 421.011719 120.730469 421.351562 C 121.5625 422.894531 123.339844 423.785156 125.144531 423.417969 L 289.203125 389.609375 C 289.601562 389.53125 289.964844 389.394531 290.304688 389.214844 C 291.851562 388.382812 292.746094 386.605469 292.375 384.800781 L 283.691406 342.695312 C 283.609375 342.296875 283.472656 341.929688 283.296875 341.589844 C 282.464844 340.042969 280.6875 339.15625 278.882812 339.523438 L 114.824219 373.328125 C 114.429688 373.410156 114.0625 373.546875 113.722656 373.726562 " fill-opacity="1" fill-rule="nonzero"/><path fill="#ccced0" d="M 278.253906 336.492188 L 114.195312 370.296875 C 110.320312 371.09375 107.820312 374.898438 108.617188 378.769531 L 117.296875 420.875 C 118.09375 424.746094 121.898438 427.25 125.773438 426.449219 L 289.832031 392.644531 C 293.707031 391.847656 296.207031 388.042969 295.410156 384.171875 L 286.730469 342.066406 C 285.933594 338.191406 282.128906 335.691406 278.253906 336.492188 Z M 292.375 384.800781 C 292.824219 387 291.40625 389.15625 289.203125 389.609375 L 125.144531 423.417969 C 122.949219 423.867188 120.789062 422.449219 120.335938 420.246094 L 111.652344 378.140625 C 111.203125 375.941406 112.621094 373.785156 114.824219 373.328125 L 278.882812 339.523438 C 281.078125 339.074219 283.242188 340.492188 283.691406 342.695312 L 292.375 384.800781 " fill-opacity="1" fill-rule="nonzero"/><path fill="#7fc69d" d="M 152 466.265625 L 131.824219 470.425781 C 129.542969 470.894531 127.304688 469.425781 126.839844 467.144531 L 124.4375 455.523438 C 123.96875 453.234375 125.4375 451.003906 127.722656 450.53125 L 147.902344 446.375 C 150.183594 445.910156 152.414062 447.375 152.886719 449.65625 L 155.28125 461.28125 C 155.75 463.5625 154.28125 465.800781 152 466.265625 " fill-opacity="1" fill-rule="nonzero"/><path fill="#ccced0" d="M 160.183594 505.964844 L 140.007812 510.121094 C 137.722656 510.59375 135.429688 508.832031 134.886719 506.1875 L 132.113281 492.730469 C 131.566406 490.082031 132.976562 487.558594 135.257812 487.089844 L 155.4375 482.933594 C 157.71875 482.460938 160.011719 484.222656 160.554688 486.867188 L 163.328125 500.324219 C 163.875 502.972656 162.464844 505.496094 160.183594 505.964844 " fill-opacity="1" fill-rule="nonzero"/><path fill="#ccced0" d="M 170.429688 549.230469 L 147.707031 553.914062 C 146.125 554.238281 144.539062 553.019531 144.164062 551.191406 L 140.78125 534.78125 C 140.40625 532.953125 141.378906 531.203125 142.957031 530.878906 L 165.679688 526.195312 C 167.265625 525.871094 168.847656 527.09375 169.226562 528.917969 L 172.609375 545.332031 C 172.984375 547.160156 172.011719 548.90625 170.429688 549.230469 " fill-opacity="1" fill-rule="nonzero"/><path fill="#ccced0" d="M 179.398438 592.761719 L 156.679688 597.441406 C 155.097656 597.765625 153.507812 596.546875 153.132812 594.71875 L 149.75 578.308594 C 149.375 576.480469 150.351562 574.734375 151.933594 574.40625 L 174.652344 569.726562 C 176.234375 569.402344 177.824219 570.617188 178.199219 572.449219 L 181.582031 588.855469 C 181.957031 590.6875 180.980469 592.4375 179.398438 592.761719 " fill-opacity="1" fill-rule="nonzero"/><path fill="#ccced0" d="M 197.597656 498.257812 L 177.421875 502.414062 C 175.140625 502.886719 172.847656 501.121094 172.300781 498.480469 L 169.527344 485.019531 C 168.984375 482.375 170.394531 479.851562 172.675781 479.378906 L 192.851562 475.222656 C 195.132812 474.75 197.429688 476.515625 197.972656 479.15625 L 200.746094 492.617188 C 201.292969 495.261719 199.882812 497.785156 197.597656 498.257812 " fill-opacity="1" fill-rule="nonzero"/><path fill="#ccced0" d="M 207.847656 541.523438 L 185.121094 546.203125 C 183.542969 546.527344 181.957031 545.3125 181.582031 543.480469 L 178.199219 527.070312 C 177.816406 525.242188 178.796875 523.496094 180.375 523.167969 L 203.097656 518.488281 C 204.675781 518.164062 206.265625 519.378906 206.640625 521.210938 L 210.023438 537.617188 C 210.402344 539.449219 209.421875 541.199219 207.847656 541.523438 " fill-opacity="1" fill-rule="nonzero"/><path fill="#ccced0" d="M 216.816406 585.046875 L 194.097656 589.734375 C 192.515625 590.058594 190.925781 588.835938 190.550781 587.011719 L 187.167969 570.597656 C 186.789062 568.773438 187.769531 567.023438 189.34375 566.699219 L 212.070312 562.019531 C 213.648438 561.6875 215.234375 562.910156 215.617188 564.734375 L 219 581.148438 C 219.375 582.980469 218.398438 584.722656 216.816406 585.046875 " fill-opacity="1" fill-rule="nonzero"/><path fill="#ccced0" d="M 235.015625 490.542969 L 214.839844 494.703125 C 212.558594 495.171875 210.265625 493.414062 209.71875 490.765625 L 206.945312 477.308594 C 206.402344 474.664062 207.804688 472.136719 210.09375 471.671875 L 230.269531 467.515625 C 232.550781 467.042969 234.84375 468.800781 235.390625 471.449219 L 238.164062 484.90625 C 238.710938 487.554688 237.300781 490.078125 235.015625 490.542969 " fill-opacity="1" fill-rule="nonzero"/><path fill="#ccced0" d="M 245.265625 533.8125 L 222.539062 538.496094 C 220.957031 538.820312 219.375 537.597656 218.992188 535.773438 L 215.609375 519.359375 C 215.234375 517.535156 216.210938 515.785156 217.792969 515.460938 L 240.511719 510.777344 C 242.09375 510.449219 243.683594 511.671875 244.058594 513.5 L 247.441406 529.910156 C 247.816406 531.742188 246.839844 533.488281 245.265625 533.8125 " fill-opacity="1" fill-rule="nonzero"/><path fill="#ccced0" d="M 254.234375 577.339844 L 231.511719 582.019531 C 229.933594 582.34375 228.34375 581.128906 227.96875 579.296875 L 224.582031 562.890625 C 224.207031 561.058594 225.1875 559.316406 226.761719 558.992188 L 249.488281 554.304688 C 251.066406 553.980469 252.652344 555.199219 253.027344 557.027344 L 256.410156 573.4375 C 256.792969 575.265625 255.8125 577.015625 254.234375 577.339844 " fill-opacity="1" fill-rule="nonzero"/><path fill="#c8ace3" d="M 271.785156 479.695312 L 251.609375 483.851562 C 249.328125 484.324219 247.09375 482.851562 246.625 480.570312 L 244.226562 468.949219 C 243.753906 466.664062 245.222656 464.429688 247.507812 463.960938 L 267.6875 459.800781 C 269.96875 459.332031 272.199219 460.800781 272.671875 463.082031 L 275.066406 474.710938 C 275.535156 476.992188 274.066406 479.226562 271.785156 479.695312 " fill-opacity="1" fill-rule="nonzero"/><path fill="#c8ace3" d="M 280.8125 517.027344 L 258.085938 521.707031 C 256.503906 522.03125 254.960938 521.019531 254.632812 519.4375 L 251.710938 505.265625 C 251.386719 503.683594 252.40625 502.140625 253.980469 501.816406 L 276.707031 497.132812 C 278.285156 496.804688 279.832031 497.824219 280.15625 499.402344 L 283.078125 513.574219 C 283.402344 515.15625 282.386719 516.699219 280.8125 517.027344 " fill-opacity="1" fill-rule="nonzero"/><path fill="#c8ace3" d="M 309.203125 471.988281 L 289.027344 476.144531 C 286.738281 476.617188 284.507812 475.144531 284.042969 472.859375 L 281.644531 461.238281 C 281.171875 458.957031 282.640625 456.71875 284.925781 456.246094 L 305.097656 452.09375 C 307.386719 451.625 309.617188 453.09375 310.089844 455.375 L 312.484375 467.003906 C 312.953125 469.285156 311.484375 471.515625 309.203125 471.988281 " fill-opacity="1" fill-rule="nonzero"/><path fill="#c8ace3" d="M 318.222656 509.316406 L 295.5 513.996094 C 293.921875 514.324219 292.375 513.304688 292.050781 511.730469 L 289.128906 497.558594 C 288.804688 495.976562 289.816406 494.429688 291.398438 494.105469 L 314.125 489.425781 C 315.703125 489.09375 317.25 490.113281 317.574219 491.691406 L 320.496094 505.863281 C 320.820312 507.445312 319.804688 508.992188 318.222656 509.316406 " fill-opacity="1" fill-rule="nonzero"/><path fill="#c8ace3" d="M 325.972656 546.90625 L 303.253906 551.589844 C 301.671875 551.917969 300.125 550.898438 299.800781 549.316406 L 296.878906 535.144531 C 296.554688 533.566406 297.566406 532.019531 299.148438 531.695312 L 321.875 527.011719 C 323.453125 526.6875 325 527.707031 325.324219 529.28125 L 328.246094 543.460938 C 328.570312 545.035156 327.554688 546.582031 325.972656 546.90625 " fill-opacity="1" fill-rule="nonzero"/><path fill="#c8ace3" d="M 332.449219 584.757812 L 312.273438 588.917969 C 309.988281 589.386719 307.757812 587.917969 307.285156 585.636719 L 304.890625 574.007812 C 304.417969 571.726562 305.890625 569.496094 308.171875 569.027344 L 328.347656 564.867188 C 330.632812 564.402344 332.867188 565.867188 333.335938 568.152344 L 335.730469 579.773438 C 336.203125 582.054688 334.730469 584.292969 332.449219 584.757812 " fill-opacity="1" fill-rule="nonzero"/><path fill="#7fc69d" d="M 190.785156 458.753906 L 168.058594 463.4375 C 166.484375 463.761719 164.9375 462.746094 164.609375 461.164062 L 161.691406 446.992188 C 161.367188 445.417969 162.378906 443.871094 163.960938 443.546875 L 186.683594 438.859375 C 188.265625 438.535156 189.808594 439.550781 190.136719 441.132812 L 193.058594 455.304688 C 193.382812 456.886719 192.363281 458.429688 190.785156 458.753906 " fill-opacity="1" fill-rule="nonzero"/><path fill="#ebab60" d="M 295.511719 435.742188 L 215.292969 452.273438 C 209.710938 453.421875 204.929688 453.074219 204.605469 451.492188 L 201.683594 437.320312 C 201.359375 435.742188 205.613281 433.527344 211.195312 432.378906 L 291.410156 415.851562 C 296.988281 414.699219 301.773438 415.050781 302.101562 416.625 L 305.023438 430.804688 C 305.347656 432.378906 301.09375 434.589844 295.511719 435.742188 " fill-opacity="1" fill-rule="nonzero"/><path fill="#c8ace3" d="M 290.230469 594.570312 L 280.097656 596.65625 C 275.039062 597.699219 270.09375 594.445312 269.054688 589.386719 L 260.808594 549.402344 C 259.769531 544.347656 263.023438 539.410156 268.082031 538.363281 L 278.214844 536.273438 C 283.269531 535.234375 288.214844 538.484375 289.253906 543.542969 L 297.496094 583.527344 C 298.542969 588.582031 295.285156 593.527344 290.230469 594.570312 " fill-opacity="1" fill-rule="nonzero"/><path fill="#ffffff" d="M 149.671875 280.257812 L 194.113281 308.757812 L 253.195312 664.308594 L 428.257812 634.085938 L 379.246094 328.359375 L 321.777344 253.773438 L 149.671875 280.257812 " fill-opacity="1" fill-rule="nonzero"/><path fill="#383530" d="M 354.328125 619.460938 L 357.863281 618.847656 L 349.417969 562.382812 L 346.0625 562.964844 L 354.328125 619.460938 " fill-opacity="1" fill-rule="nonzero"/><path fill="#383530" d="M 370.625 558.695312 L 362.289062 560.140625 L 370.914062 616.578125 L 379.246094 615.125 L 370.625 558.695312 " fill-opacity="1" fill-rule="nonzero"/><path fill="#383530" d="M 360.652344 560.429688 L 351.761719 561.976562 L 360.207031 618.4375 L 369.273438 616.859375 L 360.652344 560.429688 " fill-opacity="1" fill-rule="nonzero"/><path fill="#383530" d="M 403.933594 610.832031 L 414.480469 609 L 404.695312 552.769531 L 395.496094 554.371094 L 403.933594 610.832031 " fill-opacity="1" fill-rule="nonzero"/><path fill="#383530" d="M 375.605469 557.828125 L 372.261719 558.40625 L 380.882812 614.84375 L 384.21875 614.257812 L 375.605469 557.828125 " fill-opacity="1" fill-rule="nonzero"/><path fill="#383530" d="M 381.292969 556.839844 L 377.242188 557.546875 L 385.863281 613.976562 L 389.734375 613.300781 L 381.292969 556.839844 " fill-opacity="1" fill-rule="nonzero"/><path fill="#383530" d="M 343.71875 563.375 L 337.707031 564.421875 L 347.492188 620.648438 L 351.980469 619.867188 L 343.71875 563.375 " fill-opacity="1" fill-rule="nonzero"/><path fill="#383530" d="M 393.144531 554.777344 L 383.636719 556.429688 L 392.082031 612.894531 L 401.589844 611.242188 L 393.144531 554.777344 " fill-opacity="1" fill-rule="nonzero"/><path fill="#9c6acd" d="M 252.515625 665.285156 L 252.378906 664.441406 L 214.800781 438.308594 L 216.4375 438.035156 L 253.882812 663.332031 L 329.222656 649.046875 L 329.527344 650.6875 L 252.515625 665.285156 " fill-opacity="1" fill-rule="nonzero"/><path fill="#9c6acd" d="M 365.976562 643.773438 L 365.714844 642.132812 L 408.230469 635.328125 L 408.488281 636.96875 L 365.976562 643.773438 " fill-opacity="1" fill-rule="nonzero"/><path fill="#383530" d="M 315.492188 444.71875 C 321.375 457.179688 317.746094 466.460938 310.105469 470.066406 C 302.734375 473.542969 293.574219 470.636719 287.855469 458.769531 C 282.273438 446.941406 285.597656 437.253906 293.417969 433.5625 C 301.699219 429.652344 310.164062 433.441406 315.492188 444.71875 Z M 294.097656 455.488281 C 297.480469 463.125 303.003906 467.519531 308.011719 465.15625 C 313.285156 462.667969 312.988281 455.914062 309.292969 448.089844 C 305.898438 440.90625 300.976562 435.890625 295.421875 438.511719 C 290.421875 440.867188 290.574219 448.027344 294.097656 455.488281 Z M 321.289062 495.152344 L 327.171875 417.625 L 332.265625 415.222656 L 326.378906 492.746094 Z M 365.527344 451.019531 C 371.410156 463.476562 367.785156 472.757812 360.230469 476.320312 C 352.863281 479.800781 343.703125 476.894531 338.027344 465.109375 C 332.402344 453.199219 335.726562 443.511719 343.546875 439.8125 C 351.828125 435.910156 360.203125 439.742188 365.527344 451.019531 Z M 344.132812 461.785156 C 347.609375 469.378906 353.222656 473.734375 358.136719 471.414062 C 363.410156 468.925781 363.117188 462.171875 359.421875 454.347656 C 356.027344 447.160156 351.097656 442.148438 345.550781 444.769531 C 340.550781 447.125 340.609375 454.332031 344.132812 461.785156 " fill-opacity="1" fill-rule="nonzero"/><path fill="#383530" d="M 260.617188 369.167969 L 260.683594 364.625 C 260.683594 364.082031 260.929688 363.808594 261.4375 363.808594 L 270.769531 363.808594 C 271.566406 363.808594 271.964844 364.226562 271.964844 365.066406 L 271.964844 365.320312 C 271.925781 365.613281 271.894531 366.246094 271.875 367.210938 C 271.847656 368.179688 271.796875 368.785156 271.710938 369.039062 C 271.589844 369.710938 271.105469 370.050781 270.265625 370.050781 C 269.59375 370.007812 266.671875 369.984375 261.5 369.984375 C 261.25 369.984375 261.035156 369.914062 260.871094 369.765625 C 260.703125 369.617188 260.617188 369.414062 260.617188 369.167969 " fill-opacity="1" fill-rule="nonzero"/><path fill="#383530" d="M 282.371094 361.855469 L 283.628906 360.210938 C 283.882812 359.878906 284.472656 359.121094 285.394531 357.941406 C 286.324219 356.769531 287.101562 355.863281 287.730469 355.234375 C 287.855469 355.105469 287.921875 354.949219 287.921875 354.761719 C 287.921875 354.570312 287.667969 354.476562 287.160156 354.476562 L 282.179688 354.605469 L 280.730469 354.664062 C 280.183594 354.625 279.808594 354.5 279.59375 354.289062 C 279.386719 354.078125 279.28125 353.742188 279.28125 353.28125 C 279.28125 351.347656 279.320312 349.917969 279.40625 348.992188 C 279.40625 348.90625 279.472656 348.738281 279.59375 348.488281 C 281.191406 348.449219 286.511719 348.421875 295.550781 348.421875 C 296.390625 348.46875 296.945312 348.550781 297.21875 348.675781 C 297.492188 348.804688 297.609375 349.179688 297.566406 349.8125 L 297.566406 351.578125 C 297.648438 352.039062 297.566406 352.394531 297.3125 352.648438 C 296.054688 354.289062 294.605469 356.074219 292.960938 358.007812 L 291.449219 359.898438 C 291.363281 360.023438 291.261719 360.171875 291.136719 360.339844 C 291.011719 360.507812 290.84375 360.71875 290.628906 360.96875 C 291.304688 361.140625 292.257812 361.589844 293.5 362.328125 C 294.738281 363.0625 295.929688 364.1875 297.058594 365.699219 C 298.195312 367.210938 298.765625 369.121094 298.765625 371.433594 C 298.765625 375.972656 298 379.429688 296.460938 381.808594 C 294.929688 384.179688 293.324219 385.703125 291.640625 386.375 C 289.960938 387.050781 288.570312 387.386719 287.480469 387.386719 C 285.542969 387.386719 283.808594 386.996094 282.277344 386.21875 C 280.738281 385.441406 279.523438 384.484375 278.621094 383.347656 C 277.71875 382.214844 277.140625 381.078125 276.886719 379.945312 C 276.84375 379.734375 276.855469 379.515625 276.914062 379.28125 C 276.980469 379.054688 277.074219 378.871094 277.199219 378.746094 C 277.914062 377.988281 279.070312 376.898438 280.667969 375.46875 C 280.875 375.261719 281.070312 375.15625 281.238281 375.15625 C 281.484375 375.15625 281.699219 375.34375 281.867188 375.722656 C 283.210938 378.917969 284.875 380.515625 286.847656 380.515625 C 288.277344 380.515625 289.507812 379.945312 290.539062 378.8125 C 291.566406 377.675781 292.078125 376.097656 292.078125 374.085938 C 292.078125 371.265625 291.511719 369.207031 290.382812 367.90625 C 289.246094 366.601562 287.875 365.953125 286.277344 365.953125 L 282.371094 366.011719 C 282.328125 366.011719 282.277344 365.78125 282.214844 365.320312 C 282.148438 364.855469 282.121094 364.355469 282.121094 363.808594 C 282.121094 362.671875 282.199219 362.023438 282.371094 361.855469 " fill-opacity="1" fill-rule="nonzero"/><path fill="#383530" d="M 322.535156 377.359375 C 322.535156 380.386719 321.722656 382.898438 320.105469 384.894531 C 318.488281 386.894531 316.398438 387.886719 313.832031 387.886719 C 311.101562 387.886719 308.863281 387.023438 307.117188 385.300781 C 305.371094 383.582031 304.5 381.101562 304.5 377.863281 L 304.566406 356.558594 C 304.566406 355.125 304.828125 353.625 305.351562 352.050781 C 305.878906 350.472656 306.851562 349.097656 308.285156 347.921875 C 309.714844 346.746094 311.667969 346.15625 314.152344 346.15625 C 317.300781 346.15625 319.414062 347.195312 320.484375 349.277344 C 321.554688 351.355469 322.242188 353.59375 322.535156 355.988281 C 322.621094 356.535156 322.660156 359.394531 322.660156 364.5625 C 322.660156 371.921875 322.621094 376.183594 322.535156 377.359375 Z M 310.808594 375.65625 C 310.851562 376.667969 310.910156 377.476562 310.996094 378.085938 C 311.078125 378.695312 311.332031 379.339844 311.753906 380.007812 C 312.171875 380.683594 312.828125 381.015625 313.710938 381.015625 C 314.59375 381.015625 315.242188 380.585938 315.664062 379.722656 C 316.082031 378.863281 316.292969 377.886719 316.292969 376.792969 C 316.292969 375.703125 316.292969 375.070312 316.292969 374.902344 C 316.417969 370.492188 316.484375 366.640625 316.484375 363.367188 C 316.484375 360.925781 316.4375 359.25 316.359375 358.320312 C 316.269531 356.601562 316.082031 355.074219 315.789062 353.753906 C 315.496094 352.429688 314.820312 351.765625 313.769531 351.765625 C 312.722656 351.765625 311.984375 352.460938 311.566406 353.847656 C 311.144531 355.234375 310.890625 356.558594 310.808594 357.820312 C 310.722656 360.59375 310.683594 364.140625 310.683594 368.472656 C 310.683594 372 310.722656 374.398438 310.808594 375.65625 " fill-opacity="1" fill-rule="nonzero"/><path fill="#383530" d="M 328.082031 383.347656 L 349.332031 355.300781 C 349.417969 355.171875 349.554688 355 349.742188 354.792969 C 349.929688 354.578125 350.128906 354.382812 350.34375 354.195312 C 350.550781 354.007812 350.742188 353.910156 350.910156 353.910156 C 351.117188 353.910156 351.390625 354.035156 351.730469 354.289062 C 352.066406 354.539062 352.273438 354.6875 352.359375 354.730469 C 353.117188 355.320312 354.125 356.054688 355.386719 356.9375 C 355.722656 357.144531 355.890625 357.398438 355.890625 357.691406 C 355.890625 357.941406 355.804688 358.175781 355.636719 358.386719 C 354.628906 359.8125 351.273438 364.257812 345.578125 371.71875 C 339.882812 379.179688 335.859375 384.417969 333.503906 387.445312 C 333.257812 387.699219 333.003906 387.828125 332.75 387.828125 C 332.453125 387.828125 332.246094 387.78125 332.121094 387.699219 C 331.570312 387.40625 330.730469 386.710938 329.597656 385.621094 C 328.464844 384.527344 327.957031 383.769531 328.082031 383.347656 Z M 334.011719 354.851562 C 334.808594 354.851562 335.207031 355.253906 335.207031 356.054688 L 335.207031 360.152344 C 335.167969 360.867188 335 361.339844 334.707031 361.570312 C 334.414062 361.800781 333.886719 361.917969 333.128906 361.917969 C 331.953125 361.917969 331.070312 361.875 330.480469 361.789062 C 329.640625 361.789062 329.144531 361.671875 329 361.445312 C 328.847656 361.210938 328.777344 360.761719 328.777344 360.085938 L 328.652344 355.546875 C 328.652344 355.085938 328.90625 354.851562 329.40625 354.851562 C 329.742188 354.898438 330.523438 354.910156 331.738281 354.886719 C 332.960938 354.867188 333.71875 354.851562 334.011719 354.851562 Z M 352.359375 380.261719 C 352.78125 380.261719 353.085938 380.347656 353.273438 380.515625 C 353.460938 380.683594 353.558594 380.976562 353.558594 381.398438 C 353.597656 381.859375 353.625 382.527344 353.625 383.410156 C 353.625 384.296875 353.597656 384.988281 353.558594 385.492188 C 353.558594 386.207031 353.410156 386.679688 353.117188 386.914062 C 352.820312 387.140625 352.273438 387.257812 351.476562 387.257812 C 350.300781 387.257812 349.417969 387.238281 348.832031 387.191406 C 348.28125 387.191406 347.871094 387.121094 347.597656 386.976562 C 347.324219 386.828125 347.175781 386.554688 347.15625 386.152344 C 347.136719 385.757812 347.125 385.515625 347.125 385.429688 C 347.085938 384.417969 347.066406 382.90625 347.066406 380.890625 C 347.066406 380.46875 347.234375 380.261719 347.566406 380.261719 L 347.753906 380.261719 C 348.050781 380.261719 348.804688 380.25 350.027344 380.230469 C 351.246094 380.210938 352.019531 380.222656 352.359375 380.261719 " fill-opacity="1" fill-rule="nonzero"/><path fill="#383530" d="M 256.207031 528.835938 L 256.269531 524.296875 C 256.269531 523.75 256.523438 523.476562 257.03125 523.476562 L 266.363281 523.476562 C 267.160156 523.476562 267.558594 523.898438 267.558594 524.738281 L 267.558594 524.992188 C 267.519531 525.289062 267.488281 525.917969 267.460938 526.882812 C 267.441406 527.847656 267.390625 528.460938 267.304688 528.710938 C 267.179688 529.382812 266.695312 529.71875 265.855469 529.71875 C 265.183594 529.679688 262.265625 529.65625 257.089844 529.65625 C 256.835938 529.65625 256.628906 529.582031 256.460938 529.433594 C 256.296875 529.289062 256.207031 529.089844 256.207031 528.835938 " fill-opacity="1" fill-rule="nonzero"/><path fill="#383530" d="M 275.820312 525.246094 C 275.609375 525.246094 275.28125 524.738281 274.839844 523.730469 C 274.402344 522.722656 274.203125 522.09375 274.242188 521.839844 L 274.304688 512.320312 C 274.304688 510.429688 274.285156 509.335938 274.242188 509.042969 C 274.117188 508.285156 274.410156 507.863281 275.125 507.785156 C 275.714844 507.699219 277.921875 507.65625 281.742188 507.65625 C 286.496094 507.65625 289.015625 507.675781 289.3125 507.71875 C 289.898438 507.804688 290.191406 508.160156 290.191406 508.792969 L 289.945312 512.449219 C 289.859375 513.457031 289.226562 513.980469 288.054688 514.019531 C 287.25 514.066406 286.09375 514.046875 284.585938 513.960938 L 281.996094 513.898438 C 281.535156 513.898438 281.253906 513.96875 281.144531 514.117188 C 281.039062 514.265625 280.988281 514.589844 280.988281 515.097656 C 280.988281 515.515625 280.988281 516.054688 280.988281 516.703125 C 280.988281 517.355469 281.019531 517.8125 281.085938 518.085938 C 281.144531 518.359375 281.367188 518.496094 281.742188 518.496094 C 281.871094 518.496094 282.273438 518.457031 282.945312 518.371094 C 283.152344 518.332031 283.429688 518.308594 283.761719 518.308594 C 285.191406 518.308594 286.527344 518.742188 287.769531 519.601562 C 289.007812 520.464844 289.964844 521.398438 290.632812 522.40625 C 291.984375 524.296875 292.652344 527.535156 292.652344 532.117188 C 292.652344 533.753906 292.527344 536.085938 292.277344 539.113281 C 292.023438 542.097656 290.972656 544.210938 289.125 545.449219 C 287.273438 546.691406 285.277344 547.308594 283.132812 547.308594 C 280.359375 547.308594 278.007812 546.511719 276.070312 544.910156 C 274.261719 543.398438 273.066406 541.632812 272.476562 539.617188 C 272.433594 539.488281 272.441406 539.332031 272.507812 539.144531 C 272.574219 538.957031 272.667969 538.796875 272.792969 538.671875 L 274.371094 537.597656 L 276.890625 535.898438 C 277.058594 535.773438 277.226562 535.707031 277.398438 535.707031 C 277.644531 535.707031 277.921875 535.898438 278.214844 536.273438 C 279.136719 537.792969 279.898438 538.882812 280.488281 539.554688 C 280.78125 539.890625 281.222656 540.183594 281.808594 540.4375 C 282.398438 540.6875 282.902344 540.8125 283.320312 540.8125 C 284.117188 540.8125 284.730469 540.457031 285.152344 539.742188 C 285.574219 539.027344 285.78125 537.792969 285.78125 536.023438 C 285.78125 531.863281 285.761719 529.445312 285.71875 528.777344 C 285.675781 527.808594 285.488281 526.933594 285.152344 526.160156 C 284.8125 525.378906 284.164062 524.804688 283.195312 524.425781 C 282.480469 524.132812 281.722656 523.984375 280.925781 523.984375 C 279.707031 523.984375 278.59375 524.183594 277.585938 524.582031 C 276.578125 524.984375 275.988281 525.203125 275.820312 525.246094 " fill-opacity="1" fill-rule="nonzero"/><path fill="#383530" d="M 298.015625 543.019531 L 319.261719 514.96875 C 319.34375 514.84375 319.480469 514.675781 319.675781 514.460938 C 319.863281 514.253906 320.058594 514.054688 320.273438 513.863281 C 320.480469 513.675781 320.671875 513.578125 320.839844 513.578125 C 321.046875 513.578125 321.324219 513.707031 321.65625 513.960938 C 321.996094 514.214844 322.203125 514.359375 322.292969 514.402344 C 323.046875 514.988281 324.054688 515.722656 325.320312 516.605469 C 325.652344 516.820312 325.820312 517.074219 325.820312 517.363281 C 325.820312 517.617188 325.734375 517.847656 325.566406 518.058594 C 324.558594 519.488281 321.207031 523.929688 315.511719 531.390625 C 309.816406 538.851562 305.789062 544.09375 303.433594 547.121094 C 303.179688 547.375 302.933594 547.496094 302.679688 547.496094 C 302.386719 547.496094 302.175781 547.457031 302.050781 547.375 C 301.503906 547.074219 300.660156 546.386719 299.523438 545.289062 C 298.394531 544.199219 297.886719 543.441406 298.015625 543.019531 Z M 303.941406 514.527344 C 304.738281 514.527344 305.140625 514.929688 305.140625 515.722656 L 305.140625 519.820312 C 305.097656 520.535156 304.925781 521.007812 304.632812 521.242188 C 304.339844 521.472656 303.816406 521.585938 303.058594 521.585938 C 301.878906 521.585938 300.996094 521.546875 300.40625 521.464844 C 299.570312 521.464844 299.074219 521.347656 298.925781 521.113281 C 298.78125 520.886719 298.707031 520.433594 298.707031 519.761719 L 298.582031 515.222656 C 298.582031 514.761719 298.835938 514.527344 299.335938 514.527344 C 299.671875 514.570312 300.453125 514.578125 301.671875 514.558594 C 302.886719 514.539062 303.648438 514.527344 303.941406 514.527344 Z M 322.292969 539.929688 C 322.707031 539.929688 323.015625 540.015625 323.203125 540.183594 C 323.390625 540.351562 323.488281 540.644531 323.488281 541.066406 C 323.527344 541.535156 323.550781 542.203125 323.550781 543.085938 C 323.550781 543.96875 323.527344 544.660156 323.488281 545.164062 C 323.488281 545.878906 323.339844 546.355469 323.046875 546.582031 C 322.753906 546.816406 322.203125 546.929688 321.410156 546.929688 C 320.230469 546.929688 319.34375 546.90625 318.757812 546.867188 C 318.214844 546.867188 317.804688 546.796875 317.527344 546.644531 C 317.253906 546.503906 317.109375 546.230469 317.085938 545.828125 C 317.066406 545.425781 317.058594 545.183594 317.058594 545.101562 C 317.011719 544.09375 316.992188 542.582031 316.992188 540.566406 C 316.992188 540.144531 317.160156 539.929688 317.5 539.929688 L 317.6875 539.929688 C 317.980469 539.929688 318.734375 539.921875 319.953125 539.902344 C 321.175781 539.878906 321.953125 539.890625 322.292969 539.929688 " fill-opacity="1" fill-rule="nonzero"/><path fill="#9c6acd" d="M 212.046875 421.769531 L 193.347656 309.257812 L 171.464844 295.21875 L 172.359375 293.820312 L 194.875 308.253906 L 194.933594 308.621094 L 213.6875 421.496094 L 212.046875 421.769531 " fill-opacity="1" fill-rule="nonzero"/><path fill="#9c6acd" d="M 411.125 532.476562 L 383.398438 361.722656 L 385.046875 361.453125 L 412.769531 532.214844 L 411.125 532.476562 " fill-opacity="1" fill-rule="nonzero"/><path fill="#9c6acd" d="M 427.433594 634.214844 L 417.824219 574.269531 L 419.46875 574.003906 L 429.078125 633.953125 L 427.433594 634.214844 " fill-opacity="1" fill-rule="nonzero"/><g clip-path="url(#065847c8e0)"><path fill="#cd5e5e" d="M 487.257812 659.132812 L 488.597656 670.207031 L 488.304688 677.679688 L 496.195312 683.320312 L 507.46875 686.804688 L 530.789062 699.890625 L 555.359375 700.351562 L 555.730469 690.984375 L 538.980469 672.195312 L 524.582031 664.410156 L 514.238281 650.058594 L 487.257812 659.132812 " fill-opacity="1" fill-rule="nonzero"/></g><path fill="#e9a186" d="M 524.582031 664.410156 L 514.238281 650.058594 L 487.257812 659.132812 L 487.964844 664.980469 C 488.21875 665.070312 488.460938 665.167969 488.710938 665.261719 C 492.320312 666.730469 496.246094 667.546875 499.785156 669.152344 C 502.839844 670.535156 505.644531 672.585938 508.675781 674.121094 C 515.324219 677.488281 522.652344 680.027344 530.207031 679.476562 C 531.417969 679.382812 532.730469 679.160156 533.542969 678.253906 C 534.730469 676.925781 534.257812 674.835938 533.539062 673.207031 C 531.46875 668.527344 528.90625 666.75 524.582031 664.410156 " fill-opacity="1" fill-rule="nonzero"/><path fill="#cd5e5e" d="M 387.75 696.613281 L 425.558594 695.742188 L 437.402344 692.257812 L 452.40625 691.332031 L 452.832031 680.578125 L 442.121094 663.261719 L 415.644531 663.929688 L 407.964844 672.441406 L 383.164062 682.886719 L 376.722656 693.242188 L 387.75 696.613281 " fill-opacity="1" fill-rule="nonzero"/><path fill="#e9a186" d="M 424.300781 680.25 C 432.925781 681.605469 441.109375 677.984375 448.800781 674.054688 L 442.121094 663.261719 L 415.644531 663.929688 L 407.964844 672.441406 L 401.542969 675.144531 C 409.011719 677.335938 416.617188 679.046875 424.300781 680.25 " fill-opacity="1" fill-rule="nonzero"/><path fill="#e9a186" d="M 330.085938 125.351562 C 327.890625 121.117188 323.507812 118.660156 319.1875 117.050781 C 314.34375 115.253906 309.195312 112.960938 303.921875 113.019531 C 303.296875 113.027344 302.664062 113.144531 302.132812 113.46875 C 301.367188 113.945312 300.917969 114.789062 300.519531 115.601562 C 298.667969 119.378906 297.019531 123.261719 295.59375 127.222656 C 294.3125 130.78125 292.339844 134.472656 292.070312 138.296875 C 292.027344 138.890625 292.039062 139.523438 292.359375 140.027344 C 292.609375 140.425781 293.019531 140.695312 293.417969 140.945312 C 297.246094 143.351562 301.910156 146.683594 306.3125 147.871094 C 309.554688 148.738281 312.886719 147.925781 315.953125 149.9375 C 318.777344 151.789062 320.152344 155.167969 322.433594 157.652344 C 322.777344 158.027344 323.171875 158.398438 323.671875 158.488281 C 324.207031 158.585938 324.746094 158.332031 325.238281 158.085938 C 329.019531 156.207031 332.792969 154.285156 336.542969 152.332031 C 346.054688 147.382812 334.152344 137.210938 332 130.660156 C 331.410156 128.871094 330.953125 127.027344 330.085938 125.351562 " fill-opacity="1" fill-rule="nonzero"/><path fill="#e9a186" d="M 656.167969 132.34375 C 657.355469 134.007812 658.582031 136.011719 657.984375 137.957031 C 657.625 139.132812 656.664062 140.007812 655.742188 140.8125 C 651.609375 144.414062 647.300781 147.804688 642.835938 150.980469 C 641.171875 152.160156 639.410156 153.335938 637.394531 153.621094 C 635.253906 153.917969 633.121094 153.164062 630.992188 152.808594 C 630.414062 152.714844 629.8125 152.648438 629.246094 152.792969 C 628.554688 152.972656 627.980469 153.449219 627.421875 153.90625 C 624.757812 156.070312 621.898438 157.996094 618.886719 159.65625 C 618.441406 159.902344 617.941406 160.152344 617.4375 160.074219 C 616.8125 159.984375 616.371094 159.441406 615.996094 158.933594 C 614.648438 157.105469 613.394531 155.191406 612.101562 153.351562 C 610.710938 151.375 608.894531 149.789062 607.6875 147.621094 C 607.390625 147.078125 607.101562 146.476562 607.167969 145.851562 C 607.222656 145.332031 607.511719 144.867188 607.816406 144.4375 C 611.9375 138.480469 617.902344 133.808594 623.1875 128.957031 C 628.953125 123.664062 635.128906 118.828125 641.65625 114.507812 C 641.871094 114.363281 642.109375 114.21875 642.359375 114.242188 C 642.660156 114.273438 642.886719 114.53125 643.074219 114.769531 C 647.570312 120.554688 652.007812 126.320312 656.167969 132.34375 " fill-opacity="1" fill-rule="nonzero"/><path fill="#da8686" d="M 591.828125 177.523438 L 621.414062 287.769531 L 632.261719 278.617188 L 644.113281 291.269531 L 604.757812 175.941406 L 591.828125 177.523438 " fill-opacity="1" fill-rule="nonzero"/><path fill="#9c6acd" d="M 403.316406 242.582031 L 401.363281 292.054688 L 404.9375 392.734375 L 437.335938 394.011719 L 507.484375 379.46875 L 504.378906 344.234375 L 527.363281 273.324219 L 522.953125 232.21875 L 477.746094 230.433594 L 408.320312 230.570312 L 403.316406 242.582031 " fill-opacity="1" fill-rule="nonzero"/><path fill="#9c6acd" d="M 356.773438 230.292969 L 415.703125 275.738281 L 430.707031 259.371094 L 431.707031 233.941406 L 386.375 208.695312 L 338.886719 138.980469 L 318.582031 151.34375 L 356.773438 230.292969 " fill-opacity="1" fill-rule="nonzero"/><path fill="#7fc69d" d="M 412.84375 381.304688 L 404.6875 521.890625 L 409.78125 541.660156 L 407.402344 662.246094 L 428.386719 671.261719 L 449.195312 667.15625 L 453.335938 562.292969 L 443.070312 524.703125 L 463.761719 430.28125 L 461.605469 352.566406 L 412.84375 381.304688 " fill-opacity="1" fill-rule="nonzero"/><path fill="#7fc69d" d="M 444.128906 362.871094 L 467.25 523.699219 L 476.800781 546.257812 L 485.21875 662.234375 L 501.246094 667.335938 L 517.308594 660.710938 L 523.925781 658.363281 L 519.957031 551.710938 L 509.796875 521.6875 L 503.964844 420.125 L 508.621094 401.390625 L 492.679688 343.242188 L 444.128906 362.871094 " fill-opacity="1" fill-rule="nonzero"/><path fill="#ffffff" d="M 431.085938 254.285156 C 420.1875 277.078125 410.34375 303.007812 411.125 327.382812 C 411.238281 330.980469 412.25 381.28125 412.84375 381.304688 L 440.855469 382.410156 L 501.546875 369.082031 L 498.917969 337.082031 L 518.914062 272.636719 L 515.167969 235.300781 C 515.167969 235.300781 476.082031 233.757812 476.082031 233.757812 C 466 233.800781 455.734375 233.953125 445.742188 235.347656 C 444.117188 235.570312 442.441406 235.875 441.0625 236.777344 C 439.324219 237.90625 438.289062 239.828125 437.34375 241.675781 C 435.265625 245.742188 433.15625 249.960938 431.085938 254.285156 " fill-opacity="1" fill-rule="nonzero"/><path fill="#9c6acd" d="M 499.292969 240.832031 L 495.429688 272.644531 L 504.609375 288.007812 L 512.273438 292.226562 L 562.484375 243.324219 L 626.589844 156.484375 L 610.320312 138.878906 L 578.832031 159.816406 L 545.558594 209.390625 L 499.292969 240.832031 " fill-opacity="1" fill-rule="nonzero"/><path fill="#cd5e5e" d="M 598.265625 179.871094 L 644.113281 291.269531 L 724.710938 249.4375 L 666.558594 138.53125 L 598.265625 179.871094 " fill-opacity="1" fill-rule="nonzero"/><path fill="#ebab60" d="M 582.933594 156.882812 L 579.152344 252.828125 L 655.296875 255.832031 L 659.226562 156.179688 L 582.933594 156.882812 " fill-opacity="1" fill-rule="nonzero"/><path fill="#efbb7e" d="M 579.152344 252.828125 L 560.015625 239.683594 L 582.308594 150.804688 L 592.644531 156.789062 L 579.152344 252.828125 " fill-opacity="1" fill-rule="nonzero"/><path fill="#383530" d="M 488.8125 163.300781 C 488.082031 163.476562 487.394531 163.796875 486.671875 164 C 484.851562 164.511719 482.828125 164.257812 481.1875 163.308594 C 480.277344 162.777344 479.453125 162.03125 478.425781 161.792969 C 477.167969 161.503906 475.78125 162.097656 475.042969 163.15625 C 474.304688 164.210938 474.214844 165.65625 474.71875 166.84375 C 475.015625 167.542969 475.503906 168.15625 475.730469 168.882812 C 475.960938 169.601562 475.839844 170.535156 475.167969 170.902344 C 474.882812 171.0625 474.542969 171.089844 474.226562 171.128906 C 472.390625 171.378906 470.457031 172.589844 470.289062 174.433594 C 470.097656 176.554688 470.691406 177.679688 469.746094 179.242188 C 469.605469 179.476562 469.425781 179.71875 469.210938 179.976562 C 467.5625 181.929688 466.734375 183.871094 466.191406 186.382812 C 465.527344 189.453125 464.875 191.929688 463.03125 194.550781 C 462.4375 195.394531 461.769531 196.199219 461.289062 197.109375 C 460.492188 198.601562 460.238281 200.328125 460.207031 202.019531 C 460.167969 204.070312 460.488281 206.242188 461.765625 207.847656 C 463.214844 209.675781 465.496094 209.953125 466.871094 211.957031 C 468.191406 213.867188 468.835938 216.164062 470.203125 218.050781 C 471.542969 219.886719 473.535156 221.140625 475.691406 221.792969 C 477.816406 222.433594 480.265625 221.558594 482.175781 222.460938 C 483.976562 223.308594 483.628906 225.742188 484.855469 227.207031 C 486.152344 228.765625 488.40625 229.582031 490.375 228.957031 C 491.363281 228.644531 492.222656 228.035156 493.054688 227.417969 C 498.574219 223.3125 503.363281 218.253906 509.128906 214.507812 C 512.0625 212.605469 515.425781 210.8125 517.628906 208.015625 C 518.9375 206.363281 519.777344 204.25 519.53125 202.148438 C 519.464844 201.570312 519.3125 200.980469 519.441406 200.410156 C 519.589844 199.792969 520.035156 199.300781 520.347656 198.753906 C 521.183594 197.289062 520.976562 195.292969 519.847656 194.03125 C 519.195312 193.300781 518.195312 192.570312 518.417969 191.617188 C 518.546875 191.078125 519.046875 190.722656 519.453125 190.335938 C 520.527344 189.332031 521.117188 187.832031 521.019531 186.359375 C 520.917969 184.890625 520.132812 183.484375 518.929688 182.632812 C 518.054688 182.011719 516.867188 181.527344 516.675781 180.472656 C 516.546875 179.769531 516.933594 179.089844 517.066406 178.390625 C 517.871094 174.269531 512.515625 174.988281 510.597656 173.460938 C 509.929688 172.929688 509.660156 172.058594 509.253906 171.304688 C 508.027344 169.015625 505.175781 167.730469 502.652344 168.324219 C 501.859375 168.511719 501.058594 168.863281 500.269531 168.683594 C 498.519531 168.292969 497.535156 165.855469 495.980469 164.9375 C 493.980469 163.757812 491.160156 162.722656 488.8125 163.300781 " fill-opacity="1" fill-rule="nonzero"/><path fill="#e9a186" d="M 480.980469 206.425781 C 476.304688 204.523438 471.414062 203.011719 466.429688 203.449219 C 465.640625 203.519531 464.824219 203.644531 464.152344 204.078125 C 463.175781 204.699219 462.675781 205.847656 462.246094 206.933594 C 459.113281 214.804688 456.238281 222.792969 453.1875 230.703125 C 452.144531 233.398438 450.484375 234.980469 448.121094 236.578125 C 447.234375 237.175781 446.332031 237.738281 445.402344 238.273438 C 448.292969 240.390625 450.851562 242.515625 454.210938 243.878906 C 457.351562 245.144531 460.667969 245.914062 463.996094 246.460938 C 470.382812 247.5 477.046875 247.757812 483.210938 245.808594 C 483.429688 244.082031 481.894531 242.585938 481.765625 240.847656 C 481.726562 240.214844 481.867188 239.589844 482.011719 238.972656 C 483.644531 232.003906 484.503906 224.890625 486.332031 217.953125 C 487.015625 215.347656 488.839844 211.636719 486.558594 209.316406 C 485.734375 208.472656 484.628906 207.976562 483.542969 207.503906 C 482.695312 207.140625 481.84375 206.773438 480.980469 206.425781 " fill-opacity="1" fill-rule="nonzero"/><path fill="#383530" d="M 485.316406 216.25 C 483.695312 213.445312 482.476562 211.101562 479.460938 209.441406 C 478.175781 208.742188 476.796875 208.246094 475.371094 207.9375 C 472.359375 207.277344 468.601562 207.132812 465.726562 208.414062 C 463.792969 209.273438 462.261719 210.953125 461.46875 212.914062 C 460.007812 216.539062 461.027344 221.113281 462.617188 224.515625 C 465.503906 230.695312 472.359375 235.3125 479.3125 234.464844 C 480.660156 234.300781 482 233.882812 483.210938 233.242188 C 484.179688 228.152344 485.003906 223.03125 486.320312 217.996094 C 486.007812 217.425781 485.667969 216.847656 485.316406 216.25 " fill-opacity="1" fill-rule="nonzero"/><path fill="#e9a186" d="M 496.464844 176.203125 C 494.410156 175.144531 492.296875 174.277344 490.242188 173.648438 C 485.617188 172.246094 482.121094 174.339844 478.429688 176.875 C 475.453125 178.90625 472.433594 180.992188 470.179688 183.804688 C 467.382812 187.296875 465.457031 192.058594 463.976562 196.253906 C 462.449219 200.566406 461.304688 205.054688 461.023438 209.632812 C 460.890625 211.757812 461.296875 213.9375 461.585938 216.046875 C 461.757812 217.347656 461.96875 218.632812 462.242188 219.914062 C 462.488281 221.054688 462.652344 222.273438 463.402344 223.183594 C 464.96875 225.0625 466.839844 226.589844 468.847656 227.984375 C 471.003906 229.480469 472.984375 230.554688 475.601562 230.265625 C 480.214844 229.75 485.625 229.292969 489.773438 227.144531 C 494.394531 224.753906 498.390625 221.355469 501.785156 217.433594 C 503.78125 215.121094 505.597656 212.632812 507.113281 209.972656 C 511.804688 201.75 512.226562 190.179688 505.507812 182.898438 C 503.09375 180.277344 499.871094 177.972656 496.464844 176.203125 " fill-opacity="1" fill-rule="nonzero"/><path fill="#383530" d="M 482.714844 210.703125 C 482.542969 210.648438 482.351562 210.582031 482.136719 210.515625 C 480.585938 210.023438 478.460938 209.34375 477.855469 207.855469 C 477.59375 207.210938 477.652344 206.519531 478.039062 205.804688 C 478.363281 205.1875 478.875 204.746094 479.332031 204.355469 L 479.382812 204.308594 C 482.546875 201.582031 485.300781 198.414062 487.570312 194.90625 L 488.753906 195.664062 C 486.417969 199.289062 483.570312 202.5625 480.304688 205.378906 L 480.253906 205.425781 C 479.859375 205.765625 479.484375 206.085938 479.28125 206.464844 C 479.042969 206.917969 479.097656 207.171875 479.160156 207.328125 C 479.519531 208.199219 481.425781 208.808594 482.5625 209.171875 C 482.785156 209.242188 482.992188 209.308594 483.175781 209.371094 L 482.714844 210.703125 " fill-opacity="1" fill-rule="nonzero"/><path fill="#383530" d="M 482.375 215.507812 C 482.105469 215.480469 481.824219 215.484375 481.554688 215.464844 C 480.066406 215.363281 478.773438 214.472656 477.566406 213.605469 C 477.050781 213.238281 476.539062 212.871094 476.0625 212.457031 C 474.519531 211.121094 473.707031 207.09375 471.464844 208.8125 C 470.285156 209.71875 469.234375 212.175781 469.183594 213.65625 C 469.113281 215.644531 469.644531 217.628906 470.734375 219.320312 C 471.832031 221.023438 474.265625 222.019531 476.234375 222.097656 C 478.691406 222.195312 481.359375 220.886719 482.921875 219.019531 C 483.441406 218.402344 483.796875 217.609375 483.71875 216.808594 C 483.683594 216.433594 483.542969 216.054688 483.253906 215.816406 C 483.007812 215.613281 482.699219 215.535156 482.375 215.507812 " fill-opacity="1" fill-rule="nonzero"/><path fill="#cd5e5e" d="M 477.5625 219.210938 C 477.238281 218.882812 476.878906 218.609375 476.589844 218.46875 C 476.015625 218.183594 475.375 218.054688 474.828125 217.730469 C 474.078125 217.285156 473.597656 216.503906 473.019531 215.835938 C 472.445312 215.171875 470.570312 213.75 469.941406 215.027344 C 469.5 215.925781 470.183594 217.347656 470.714844 218.054688 C 472 219.785156 473.996094 220.890625 476.050781 221.421875 C 476.53125 221.550781 477.03125 221.652344 477.515625 221.566406 C 479.007812 221.300781 478.402344 220.070312 477.5625 219.210938 " fill-opacity="1" fill-rule="nonzero"/><path fill="#e9a186" d="M 464.320312 182.117188 C 463.671875 182.34375 463.066406 182.667969 462.550781 183.101562 C 461.519531 183.957031 460.886719 185.1875 460.324219 186.410156 C 459.90625 187.324219 459.519531 188.257812 459.289062 189.234375 C 458.996094 190.492188 458.980469 191.796875 458.964844 193.085938 C 458.933594 195.433594 459.972656 198.8125 462.683594 199.316406 C 464.097656 199.578125 465.523438 198.839844 466.597656 197.875 C 468.40625 196.253906 470.425781 194.355469 471.488281 192.144531 C 472.382812 190.265625 472.722656 188.109375 472.433594 186.042969 C 471.921875 182.335938 467.546875 180.992188 464.320312 182.117188 " fill-opacity="1" fill-rule="nonzero"/><path fill="#e9a186" d="M 496.570312 224.511719 C 496.625 224.570312 496.683594 224.632812 496.738281 224.6875 C 500.515625 228.585938 506.972656 223.097656 508.980469 219.890625 C 510.394531 217.625 511.328125 214.679688 510.070312 212.320312 C 507.957031 208.375 502.894531 209.878906 499.984375 212.007812 C 496.65625 214.441406 493.21875 220.742188 496.570312 224.511719 " fill-opacity="1" fill-rule="nonzero"/><path fill="#383530" d="M 467.511719 191.921875 C 467.449219 191.921875 467.390625 191.914062 467.328125 191.894531 C 466.957031 191.777344 466.75 191.386719 466.859375 191.011719 C 467.113281 190.203125 467.332031 188.976562 466.949219 187.738281 C 466.621094 186.679688 465.882812 185.816406 464.976562 185.433594 C 464.621094 185.28125 464.445312 184.863281 464.597656 184.511719 C 464.75 184.148438 465.167969 183.984375 465.527344 184.132812 C 466.8125 184.675781 467.84375 185.867188 468.296875 187.324219 C 468.683594 188.578125 468.65625 189.996094 468.210938 191.425781 C 468.113281 191.742188 467.824219 191.9375 467.511719 191.921875 " fill-opacity="1" fill-rule="nonzero"/><path fill="#383530" d="M 500.449219 217.621094 C 500.347656 217.613281 500.246094 217.589844 500.152344 217.539062 C 499.804688 217.355469 499.675781 216.929688 499.855469 216.585938 C 501.25 213.9375 503.96875 212.113281 506.945312 211.820312 C 507.332031 211.785156 507.683594 212.066406 507.71875 212.453125 C 507.753906 212.84375 507.46875 213.1875 507.082031 213.222656 C 504.609375 213.46875 502.261719 215.042969 501.105469 217.246094 C 500.972656 217.492188 500.714844 217.628906 500.449219 217.621094 " fill-opacity="1" fill-rule="nonzero"/><path fill="#383530" d="M 463.847656 191.171875 C 463.589844 191.164062 463.347656 191.011719 463.234375 190.757812 C 463.074219 190.402344 463.234375 189.980469 463.589844 189.824219 L 467.144531 188.242188 C 467.503906 188.085938 467.921875 188.242188 468.078125 188.597656 C 468.234375 188.957031 468.078125 189.371094 467.722656 189.53125 L 464.164062 191.113281 C 464.0625 191.15625 463.957031 191.175781 463.847656 191.171875 " fill-opacity="1" fill-rule="nonzero"/><path fill="#383530" d="M 505.097656 219.347656 C 504.800781 219.339844 504.539062 219.148438 504.445312 218.859375 C 503.960938 217.28125 503.625 215.648438 503.449219 214.011719 C 503.40625 213.621094 503.691406 213.273438 504.078125 213.234375 C 504.460938 213.195312 504.8125 213.472656 504.851562 213.859375 C 505.015625 215.410156 505.335938 216.949219 505.796875 218.4375 C 505.914062 218.808594 505.703125 219.203125 505.328125 219.320312 C 505.253906 219.34375 505.171875 219.355469 505.097656 219.347656 " fill-opacity="1" fill-rule="nonzero"/><path fill="#383530" d="M 475.152344 185.371094 C 475.273438 185.910156 475.949219 186.070312 476.492188 186.15625 C 478.714844 186.519531 480.804688 187.414062 482.921875 188.160156 C 483.582031 188.390625 484.273438 188.613281 484.972656 188.554688 C 485.671875 188.503906 486.390625 188.121094 486.636719 187.460938 C 486.816406 186.972656 486.710938 186.417969 486.484375 185.949219 C 485.949219 184.84375 484.851562 184.144531 483.75 183.609375 C 482.363281 182.933594 480.855469 182.425781 479.3125 182.476562 C 477.773438 182.53125 476.199219 183.226562 475.375 184.53125 C 475.21875 184.785156 475.085938 185.082031 475.152344 185.371094 " fill-opacity="1" fill-rule="nonzero"/><path fill="#383530" d="M 503.398438 201.066406 C 503.761719 198.890625 503.03125 196.761719 501.734375 195.019531 C 501.402344 194.585938 501.039062 194.160156 500.566406 193.878906 C 499.953125 193.515625 499.183594 193.425781 498.503906 193.632812 C 497.21875 194.027344 496.539062 195.28125 497.148438 196.523438 C 497.367188 196.976562 497.707031 197.363281 498.03125 197.75 C 499.136719 199.0625 500.144531 200.496094 501.546875 201.492188 C 502.039062 201.839844 502.789062 202.097656 503.179688 201.636719 C 503.3125 201.480469 503.367188 201.269531 503.398438 201.066406 " fill-opacity="1" fill-rule="nonzero"/><path fill="#cd5e5e" d="M 498.597656 197.636719 C 498.4375 197.632812 498.28125 197.570312 498.152344 197.453125 C 497.863281 197.195312 497.84375 196.75 498.105469 196.460938 C 498.660156 195.847656 499.117188 195.15625 499.460938 194.40625 C 499.625 194.050781 500.039062 193.894531 500.394531 194.058594 C 500.75 194.21875 500.90625 194.636719 500.746094 194.992188 C 500.339844 195.878906 499.800781 196.6875 499.152344 197.410156 C 499.003906 197.566406 498.800781 197.648438 498.597656 197.636719 " fill-opacity="1" fill-rule="nonzero"/><path fill="#cd5e5e" d="M 500.671875 199.738281 C 500.585938 199.738281 500.496094 199.710938 500.410156 199.675781 C 500.054688 199.511719 499.902344 199.09375 500.066406 198.738281 L 501.394531 195.828125 C 501.554688 195.472656 501.972656 195.316406 502.328125 195.476562 C 502.683594 195.640625 502.839844 196.054688 502.675781 196.414062 L 501.347656 199.324219 C 501.222656 199.59375 500.953125 199.746094 500.671875 199.738281 " fill-opacity="1" fill-rule="nonzero"/><path fill="#cd5e5e" d="M 478.9375 186.664062 C 478.714844 186.65625 478.496094 186.539062 478.367188 186.335938 C 478.160156 186.003906 478.257812 185.570312 478.585938 185.363281 C 479.363281 184.875 480.03125 184.207031 480.527344 183.433594 C 480.738281 183.105469 481.171875 183.007812 481.503906 183.21875 C 481.832031 183.429688 481.929688 183.867188 481.714844 184.191406 C 481.113281 185.140625 480.289062 185.953125 479.34375 186.558594 C 479.214844 186.632812 479.074219 186.671875 478.9375 186.664062 " fill-opacity="1" fill-rule="nonzero"/><path fill="#cd5e5e" d="M 481.015625 187.355469 C 480.757812 187.34375 480.515625 187.191406 480.402344 186.9375 C 480.238281 186.582031 480.398438 186.167969 480.753906 186.003906 C 481.671875 185.589844 482.523438 184.980469 483.210938 184.25 C 483.480469 183.96875 483.925781 183.953125 484.210938 184.222656 C 484.496094 184.484375 484.503906 184.9375 484.242188 185.21875 C 483.425781 186.082031 482.421875 186.800781 481.335938 187.292969 C 481.230469 187.339844 481.121094 187.359375 481.015625 187.355469 " fill-opacity="1" fill-rule="nonzero"/><path fill="#ffffff" d="M 478.308594 220.777344 C 477.703125 220.703125 477.097656 220.628906 476.515625 220.433594 C 475.808594 220.199219 475.160156 219.796875 474.550781 219.359375 C 472.382812 217.816406 470.546875 215.816406 469.1875 213.523438 C 469.1875 213.570312 469.183594 213.613281 469.183594 213.65625 C 469.113281 215.644531 469.644531 217.628906 470.734375 219.320312 C 471.832031 221.023438 474.265625 222.019531 476.234375 222.097656 C 477.636719 222.152344 479.121094 221.746094 480.417969 221.039062 C 479.710938 220.953125 479.011719 220.867188 478.308594 220.777344 " fill-opacity="1" fill-rule="nonzero"/><path fill="#ffffff" d="M 483.71875 216.808594 C 483.683594 216.433594 483.542969 216.054688 483.253906 215.816406 C 483.007812 215.613281 482.699219 215.535156 482.375 215.507812 C 482.105469 215.480469 481.824219 215.484375 481.554688 215.464844 C 480.066406 215.363281 478.773438 214.472656 477.566406 213.605469 C 477.050781 213.238281 476.539062 212.871094 476.0625 212.457031 C 474.519531 211.121094 473.707031 207.09375 471.464844 208.8125 C 470.46875 209.578125 471.371094 210.851562 471.710938 211.722656 C 471.746094 211.808594 471.78125 211.894531 471.816406 211.980469 C 472.054688 212.566406 472.324219 213.128906 472.636719 213.671875 C 473.105469 213.265625 473.589844 212.882812 474.109375 212.542969 C 473.632812 213.007812 473.230469 213.535156 472.90625 214.105469 C 473.0625 214.355469 473.234375 214.597656 473.417969 214.832031 C 474.59375 216.347656 476.070312 217.515625 477.722656 218.183594 C 478.195312 217.535156 478.582031 216.820312 478.871094 216.070312 C 478.773438 216.863281 478.53125 217.625 478.265625 218.378906 C 479.828125 218.902344 481.535156 218.988281 483.277344 218.523438 C 483.59375 218 483.773438 217.40625 483.71875 216.808594 " fill-opacity="1" fill-rule="nonzero"/><path fill="#383530" d="M 487.351562 168.21875 C 486.789062 168.070312 486.210938 167.980469 485.617188 167.960938 C 483.753906 167.898438 481.953125 168.5625 480.210938 169.21875 C 478.882812 169.714844 477.527344 170.226562 476.425781 171.113281 C 475.320312 172.007812 474.484375 173.355469 474.582031 174.769531 C 474.609375 175.273438 474.757812 175.777344 474.675781 176.28125 C 474.519531 177.25 473.597656 177.863281 472.804688 178.441406 C 471.5 179.382812 470.257812 180.707031 470.234375 182.316406 C 470.222656 182.933594 470.394531 183.535156 470.488281 184.148438 C 470.8125 186.28125 470.121094 188.417969 469.449219 190.46875 C 471.125 189.117188 472.390625 187.261719 473.039062 185.210938 C 473.414062 184.019531 473.617188 182.699219 474.464844 181.777344 C 477.003906 179.019531 481.046875 183.179688 483.613281 179.222656 C 484.476562 182.421875 488.890625 183.457031 491.453125 181.707031 C 492.007812 181.324219 492.625 180.820312 493.257812 181.03125 C 493.542969 181.128906 493.753906 181.351562 493.984375 181.542969 C 495.339844 182.679688 497.574219 182.554688 498.792969 181.269531 C 497.5 182.589844 496.894531 184.539062 497.210938 186.359375 C 497.519531 188.175781 498.746094 189.8125 500.398438 190.625 C 500.78125 190.8125 501.199219 190.96875 501.445312 191.316406 C 501.972656 192.039062 501.4375 193.125 501.851562 193.925781 C 502.25 194.710938 503.324219 194.816406 504.03125 195.355469 C 506.496094 197.222656 505.4375 202.652344 504.308594 204.824219 C 503.21875 206.933594 502.761719 209.359375 503.015625 211.722656 C 503.722656 210.585938 505.222656 210.167969 506.546875 210.359375 C 507.863281 210.550781 509.058594 211.242188 510.207031 211.921875 C 511.195312 209.429688 511.238281 206.683594 511.429688 204.011719 C 511.925781 197.226562 513.523438 190.417969 512.46875 183.699219 C 512.246094 182.292969 511.902344 180.875 511.132812 179.671875 C 509.152344 176.570312 505.089844 175.761719 501.5625 174.714844 C 498.710938 173.863281 495.957031 172.679688 493.375 171.203125 C 491.417969 170.078125 489.511719 168.953125 487.410156 168.101562 " fill-opacity="1" fill-rule="nonzero"/><path fill="#ffffff" d="M 479.566406 178.359375 C 478.378906 178.3125 477.328125 177.613281 476.957031 176.605469 C 476.710938 175.914062 476.800781 175.195312 476.90625 174.648438 C 477.132812 173.507812 477.542969 172.421875 478.136719 171.421875 C 478.304688 171.144531 478.664062 171.054688 478.941406 171.214844 C 479.222656 171.382812 479.3125 171.742188 479.144531 172.019531 C 478.621094 172.902344 478.257812 173.863281 478.058594 174.871094 C 477.984375 175.273438 477.914062 175.785156 478.0625 176.199219 C 478.277344 176.78125 478.996094 177.207031 479.75 177.183594 C 480.617188 177.164062 481.40625 176.644531 481.917969 176.214844 C 482.167969 176.007812 482.539062 176.042969 482.746094 176.289062 C 482.953125 176.539062 482.921875 176.910156 482.675781 177.117188 C 481.734375 177.902344 480.738281 178.335938 479.777344 178.359375 C 479.707031 178.363281 479.636719 178.363281 479.566406 178.359375 " fill-opacity="1" fill-rule="nonzero"/><path fill="#ffffff" d="M 487.097656 172.195312 C 486.929688 172.1875 486.765625 172.113281 486.65625 171.96875 C 485.890625 170.992188 485.710938 169.597656 486.210938 168.503906 C 486.738281 167.339844 488.015625 166.585938 489.246094 166.703125 C 490.550781 166.828125 491.660156 167.925781 491.773438 169.195312 C 491.804688 169.523438 491.566406 169.804688 491.242188 169.832031 C 490.914062 169.863281 490.632812 169.621094 490.601562 169.296875 C 490.539062 168.582031 489.882812 167.945312 489.136719 167.875 C 488.394531 167.808594 487.597656 168.285156 487.28125 168.988281 C 486.960938 169.695312 487.082031 170.601562 487.582031 171.246094 C 487.785156 171.503906 487.742188 171.875 487.480469 172.070312 C 487.367188 172.160156 487.234375 172.199219 487.097656 172.195312 " fill-opacity="1" fill-rule="nonzero"/><path fill="#ffffff" d="M 500.308594 180.230469 C 499.5625 180.199219 498.914062 179.957031 498.433594 179.503906 C 497.730469 178.847656 497.425781 177.78125 497.621094 176.660156 C 497.78125 175.734375 498.234375 174.90625 498.628906 174.175781 C 498.785156 173.890625 499.140625 173.785156 499.425781 173.9375 C 499.714844 174.09375 499.816406 174.457031 499.664062 174.738281 C 499.289062 175.421875 498.902344 176.128906 498.777344 176.859375 C 498.679688 177.425781 498.75 178.191406 499.238281 178.648438 C 500.066406 179.429688 501.554688 178.902344 501.996094 178.71875 C 502.296875 178.597656 502.640625 178.738281 502.761719 179.039062 C 502.890625 179.339844 502.742188 179.683594 502.445312 179.808594 C 501.691406 180.117188 500.960938 180.253906 500.308594 180.230469 " fill-opacity="1" fill-rule="nonzero"/><path fill="#ffffff" d="M 510.605469 187.097656 C 510.5625 187.089844 510.523438 187.085938 510.480469 187.074219 C 510.167969 187 509.976562 186.679688 510.050781 186.367188 C 510.304688 185.363281 510.425781 184.535156 510.222656 183.785156 C 510.039062 183.117188 509.4375 182.441406 508.753906 182.460938 C 507.945312 182.488281 507.3125 183.382812 506.792969 184.261719 C 506.632812 184.539062 506.273438 184.632812 505.992188 184.46875 C 505.714844 184.300781 505.617188 183.941406 505.785156 183.664062 C 506.460938 182.511719 507.335938 181.332031 508.71875 181.289062 C 510.039062 181.246094 511.050781 182.355469 511.359375 183.476562 C 511.644531 184.53125 511.449219 185.625 511.191406 186.648438 C 511.125 186.921875 510.871094 187.105469 510.605469 187.097656 " fill-opacity="1" fill-rule="nonzero"/><path fill="#9c6acd" d="M 488.917969 389.421875 C 501.875 387.539062 514.832031 385.652344 527.792969 383.765625 C 522.882812 368.171875 517.96875 352.578125 513.058594 336.984375 C 512.25 334.414062 511.429688 331.789062 511.449219 329.089844 C 511.472656 326.335938 512.359375 323.675781 513.242188 321.0625 C 518.480469 305.558594 523.71875 290.058594 528.953125 274.550781 C 532.664062 263.570312 536.03125 250.351562 528.785156 241.304688 C 523.691406 234.953125 514.96875 232.984375 506.890625 232.015625 C 502.078125 231.441406 490.285156 228.71875 486.894531 232.167969 C 483.664062 235.453125 483.738281 250.035156 483.105469 254.671875 C 481.0625 269.597656 479.910156 284.648438 479.660156 299.710938 C 479.535156 307.300781 483.898438 390.160156 488.917969 389.421875 " fill-opacity="1" fill-rule="nonzero"/><path fill="#383530" d="M 478.226562 196 C 476.558594 195.207031 475.078125 194.015625 473.941406 192.5625 L 474.738281 191.9375 C 475.777344 193.273438 477.136719 194.363281 478.664062 195.085938 L 478.226562 196 " fill-opacity="1" fill-rule="nonzero"/><path fill="#383530" d="M 495.121094 209.476562 C 493.507812 208.660156 492.035156 207.601562 490.753906 206.328125 L 491.464844 205.609375 C 492.675781 206.808594 494.058594 207.808594 495.578125 208.574219 L 495.121094 209.476562 " fill-opacity="1" fill-rule="nonzero"/><path fill="#383530" d="M 488.410156 389.484375 L 479.042969 308.4375 L 479.046875 308.390625 L 484.921875 234.957031 L 485.929688 235.039062 L 480.058594 308.421875 L 489.417969 389.367188 L 488.410156 389.484375 " fill-opacity="1" fill-rule="nonzero"/><path fill="#383530" d="M 467.050781 253.441406 C 458.8125 253.441406 450.589844 250.832031 443.957031 245.867188 L 444.5625 245.0625 C 454.167969 252.246094 467.210938 254.367188 478.597656 250.589844 L 478.917969 251.546875 C 475.082031 252.820312 471.066406 253.441406 467.050781 253.441406 " fill-opacity="1" fill-rule="nonzero"/><path fill="#383530" d="M 508.3125 262.253906 C 505.941406 254.382812 505.414062 245.9375 506.78125 237.835938 L 507.777344 238.003906 C 506.433594 245.953125 506.953125 254.238281 509.28125 261.960938 L 508.3125 262.253906 " fill-opacity="1" fill-rule="nonzero"/><path fill="#383530" d="M 523.640625 281.085938 L 513.316406 272.144531 L 513.980469 271.378906 L 524.308594 280.320312 L 523.640625 281.085938 " fill-opacity="1" fill-rule="nonzero"/><path fill="#383530" d="M 550.082031 228.015625 C 549.28125 225.546875 548.882812 222.933594 548.507812 220.410156 L 546.953125 212.882812 L 547.925781 212.625 C 548.730469 215.09375 549.121094 217.707031 549.503906 220.230469 L 551.058594 227.757812 L 550.082031 228.015625 " fill-opacity="1" fill-rule="nonzero"/><path fill="#383530" d="M 554.664062 221.796875 L 549.816406 209.335938 L 550.761719 208.964844 L 555.609375 221.433594 L 554.664062 221.796875 " fill-opacity="1" fill-rule="nonzero"/><path fill="#383530" d="M 490.25 351.941406 L 490.179688 350.933594 L 509.457031 349.554688 L 509.527344 350.5625 L 490.25 351.941406 " fill-opacity="1" fill-rule="nonzero"/><path fill="#383530" d="M 432.578125 396.140625 C 426.476562 396.140625 420.351562 395.6875 414.25 394.773438 L 414.394531 393.773438 C 437.074219 397.167969 460.105469 394.109375 481.011719 384.9375 L 481.417969 385.863281 C 470.847656 390.5 459.75 393.613281 448.429688 395.109375 C 443.1875 395.796875 437.890625 396.140625 432.578125 396.140625 " fill-opacity="1" fill-rule="nonzero"/><path fill="#383530" d="M 450.445312 440.503906 C 447.25 421.414062 444.652344 401.96875 442.726562 382.707031 L 443.734375 382.605469 C 445.65625 401.839844 448.25 421.265625 451.4375 440.335938 L 450.445312 440.503906 " fill-opacity="1" fill-rule="nonzero"/><path fill="#383530" d="M 446.523438 426.71875 L 439.667969 419.261719 C 438.910156 418.441406 438.136719 417.601562 437.625 416.546875 C 437.085938 415.457031 436.902344 414.273438 436.726562 413.128906 L 432.121094 383.621094 L 433.121094 383.464844 L 437.726562 412.976562 C 437.890625 414.039062 438.066406 415.144531 438.53125 416.105469 C 438.984375 417.023438 439.707031 417.8125 440.414062 418.578125 L 447.269531 426.03125 L 446.523438 426.71875 " fill-opacity="1" fill-rule="nonzero"/><path fill="#383530" d="M 491.753906 414.25 C 485.726562 402.679688 481.019531 390.40625 477.761719 377.777344 L 478.738281 377.523438 C 481.980469 390.082031 486.660156 402.277344 492.648438 413.78125 L 491.753906 414.25 " fill-opacity="1" fill-rule="nonzero"/><path fill="#383530" d="M 435.625 522.558594 L 434.625 522.398438 L 447.304688 445.3125 L 448.304688 445.472656 L 435.625 522.558594 " fill-opacity="1" fill-rule="nonzero"/><path fill="#383530" d="M 445.246094 665.117188 L 444.238281 665.105469 L 445.53125 564.882812 L 436.808594 536.320312 L 437.777344 536.027344 L 446.539062 564.734375 L 446.539062 564.816406 L 445.246094 665.117188 " fill-opacity="1" fill-rule="nonzero"/><path fill="#383530" d="M 429.367188 667.585938 L 409.574219 658.316406 L 410.003906 657.402344 L 429.472656 666.519531 L 449.273438 661.867188 L 449.5 662.851562 L 429.367188 667.585938 " fill-opacity="1" fill-rule="nonzero"/><path fill="#383530" d="M 433.433594 534.175781 L 432.769531 533.414062 L 439.835938 527.234375 L 430.441406 526.863281 L 430.484375 525.851562 L 442.410156 526.320312 L 433.433594 534.175781 " fill-opacity="1" fill-rule="nonzero"/><path fill="#383530" d="M 493.320312 541.761719 L 492.402344 541.339844 L 496.488281 532.4375 L 497.40625 532.859375 L 493.320312 541.761719 " fill-opacity="1" fill-rule="nonzero"/><path fill="#383530" d="M 518.195312 657.90625 L 514.390625 551.613281 L 503.25 522.773438 L 503.246094 522.6875 L 499.523438 407.394531 L 496.65625 392.246094 L 497.652344 392.058594 L 500.527344 407.28125 L 500.53125 407.324219 L 504.253906 522.570312 L 515.394531 551.410156 L 515.394531 551.492188 L 519.210938 657.867188 L 518.195312 657.90625 " fill-opacity="1" fill-rule="nonzero"/><path fill="#383530" d="M 500.035156 664.097656 L 486.472656 658.15625 L 486.878906 657.226562 L 500.085938 663.015625 L 522.074219 655.945312 L 522.386719 656.90625 L 500.035156 664.097656 " fill-opacity="1" fill-rule="nonzero"/><path fill="#ffffff" d="M 511.390625 202.910156 C 510.777344 202.910156 510.214844 202.667969 509.78125 202.210938 C 509.238281 201.636719 508.976562 200.777344 509.015625 199.714844 C 509.03125 199.382812 509.066406 199.050781 509.109375 198.738281 C 509.15625 198.300781 509.203125 197.890625 509.1875 197.484375 L 510.203125 197.449219 C 510.21875 197.929688 510.164062 198.398438 510.113281 198.855469 C 510.074219 199.167969 510.039062 199.460938 510.023438 199.757812 C 510.003906 200.300781 510.070312 201.050781 510.511719 201.515625 C 510.863281 201.882812 511.273438 201.921875 511.558594 201.886719 C 512.078125 201.824219 512.589844 201.476562 512.867188 201 C 513.226562 200.375 513.480469 199.074219 512.648438 196.425781 L 513.609375 196.121094 C 514.375 198.566406 514.421875 200.324219 513.742188 201.507812 C 513.308594 202.261719 512.515625 202.792969 511.671875 202.890625 C 511.582031 202.90625 511.484375 202.910156 511.390625 202.910156 " fill-opacity="1" fill-rule="nonzero"/><path fill="#ffffff" d="M 514.917969 193.3125 L 514.316406 192.5 C 514.929688 192.042969 515.253906 191.199219 515.101562 190.441406 C 515.03125 190.09375 514.796875 189.71875 514.519531 189.707031 C 514.347656 189.703125 514.109375 189.828125 513.921875 189.933594 L 511.636719 191.21875 L 511.140625 190.335938 L 513.429688 189.058594 C 513.710938 188.894531 514.101562 188.671875 514.570312 188.699219 C 515.410156 188.734375 515.953125 189.523438 516.097656 190.246094 C 516.320312 191.386719 515.851562 192.617188 514.917969 193.3125 " fill-opacity="1" fill-rule="nonzero"/><g clip-path="url(#c1a3b3f580)"><path fill="#e9a186" d="M 618.289062 125.574219 C 620.707031 120.453125 622.53125 115.003906 623.921875 109.523438 C 623.96875 109.351562 625.929688 110.558594 626.082031 110.683594 C 626.773438 111.257812 627.453125 112.046875 627.765625 112.894531 C 629.144531 116.605469 627.449219 120.476562 627.625 124.230469 C 627.789062 127.808594 630.46875 130.726562 631.574219 134.128906 C 632.925781 138.261719 631.707031 143.109375 628.566406 146.117188 C 628 146.660156 627.335938 147.164062 626.554688 147.277344 C 625.421875 147.433594 624.359375 146.746094 623.476562 146.019531 C 620.457031 143.546875 617.882812 140.382812 617.125 136.539062 C 616.433594 132.984375 616.730469 128.871094 618.289062 125.574219 " fill-opacity="1" fill-rule="nonzero"/></g><path fill="#efbb7e" d="M 582.308594 150.804688 L 592.644531 156.789062 L 659.226562 156.179688 L 648.839844 151.648438 L 582.308594 150.804688 " fill-opacity="1" fill-rule="nonzero"/><path fill="#383530" d="M 647.570312 163.945312 L 646.578125 163.746094 C 647.429688 159.488281 647.875 155.121094 647.910156 150.777344 C 647.9375 146.820312 647.628906 141.777344 644.949219 137.816406 C 641.976562 133.425781 636.242188 130.941406 630.339844 131.488281 C 613.414062 133.054688 604.640625 152.210938 600.917969 163.492188 L 599.960938 163.171875 C 603.757812 151.660156 612.75 132.101562 630.246094 130.484375 C 636.511719 129.902344 642.609375 132.558594 645.785156 137.246094 C 648.621094 141.441406 648.949219 146.683594 648.921875 150.785156 C 648.886719 155.191406 648.433594 159.617188 647.570312 163.945312 " fill-opacity="1" fill-rule="nonzero"/><path fill="#383530" d="M 640.480469 156.542969 L 639.519531 156.238281 C 641.003906 151.59375 641.496094 146.578125 640.941406 141.730469 C 640.617188 138.871094 639.273438 131.980469 633.847656 129.71875 C 630.753906 128.429688 626.882812 128.910156 622.019531 131.1875 C 611.667969 136.035156 603.164062 144.332031 598.0625 154.554688 L 597.15625 154.101562 C 602.359375 143.675781 611.035156 135.214844 621.589844 130.269531 C 626.726562 127.867188 630.867188 127.378906 634.238281 128.785156 C 640.160156 131.25 641.601562 138.582031 641.945312 141.617188 C 642.515625 146.601562 642.007812 151.765625 640.480469 156.542969 " fill-opacity="1" fill-rule="nonzero"/><path fill="#e9a186" d="M 635.910156 128.785156 C 635.730469 129.917969 635.632812 131.066406 635.648438 132.226562 C 635.652344 132.730469 635.683594 133.242188 635.875 133.703125 C 636.257812 134.636719 637.160156 135.128906 637.933594 135.6875 C 638.898438 136.375 639.402344 136.984375 639.957031 138.019531 C 640.464844 138.957031 641.261719 139.734375 642.207031 140.21875 C 643.707031 140.984375 643.777344 143.179688 645.03125 144.417969 C 645.90625 145.285156 647.207031 145.816406 648.394531 145.476562 C 648.652344 146.5 649.128906 147.476562 649.777344 148.308594 C 650.011719 148.605469 650.300781 148.90625 650.675781 148.957031 C 650.929688 148.984375 651.175781 148.898438 651.410156 148.792969 C 653.148438 148.027344 654.347656 146.421875 655.390625 144.832031 C 656.886719 142.5625 658.246094 140.167969 658.992188 137.550781 C 659.320312 136.390625 659.53125 135.160156 659.269531 133.984375 C 659.011719 132.800781 658.222656 131.679688 657.070312 131.316406 C 656.894531 131.253906 656.699219 131.210938 656.574219 131.078125 C 656.417969 130.910156 656.40625 130.65625 656.390625 130.429688 C 656.234375 127.878906 654.480469 125.496094 652.089844 124.582031 C 651.902344 124.503906 651.695312 124.433594 651.574219 124.273438 C 651.4375 124.09375 651.429688 123.851562 651.410156 123.628906 C 651.25 121.882812 649.609375 120.410156 647.855469 120.425781 C 647.808594 118.996094 647.488281 117.574219 646.921875 116.257812 C 646.359375 114.953125 645.328125 113.621094 643.90625 113.574219 C 642.484375 113.523438 641.210938 114.617188 640.652344 115.820312 C 638.738281 119.953125 636.636719 124.242188 635.910156 128.785156 " fill-opacity="1" fill-rule="nonzero"/><path fill="#383530" d="M 639.46875 136.394531 L 638.847656 135.59375 C 640.4375 134.378906 641.757812 132.59375 642.785156 130.296875 C 643.710938 128.222656 644.300781 125.972656 644.875 123.789062 L 645.851562 124.050781 C 645.269531 126.265625 644.671875 128.558594 643.710938 130.707031 C 642.617188 133.15625 641.1875 135.074219 639.46875 136.394531 " fill-opacity="1" fill-rule="nonzero"/><path fill="#383530" d="M 643.472656 141.191406 L 642.855469 140.390625 C 644.605469 139.046875 646.070312 137.175781 647.222656 134.824219 C 648.140625 132.949219 648.84375 130.828125 649.503906 127.957031 L 650.492188 128.1875 C 649.8125 131.136719 649.082031 133.316406 648.128906 135.269531 C 646.910156 137.761719 645.34375 139.753906 643.472656 141.191406 " fill-opacity="1" fill-rule="nonzero"/><path fill="#383530" d="M 647.613281 145.683594 L 646.910156 144.949219 C 650.367188 141.675781 652.941406 137.335938 654.152344 132.730469 L 655.132812 132.988281 C 653.851562 137.839844 651.253906 142.226562 647.613281 145.683594 " fill-opacity="1" fill-rule="nonzero"/><g clip-path="url(#cd4870b7b7)"><path fill="#383530" d="M 636.046875 146.871094 L 635.039062 146.820312 C 635.269531 142.039062 633.34375 136.957031 629.320312 131.714844 L 629.160156 131.511719 C 628.5625 130.738281 627.945312 129.929688 627.59375 128.960938 C 627.132812 127.691406 627.214844 126.347656 627.296875 125.054688 C 627.332031 124.441406 627.367188 123.855469 627.347656 123.289062 C 627.304688 122.070312 627.425781 120.875 627.542969 119.71875 C 627.738281 117.878906 627.914062 116.140625 627.46875 114.390625 C 627.316406 113.796875 627.144531 113.304688 626.933594 112.878906 C 626.367188 111.71875 625.359375 110.753906 624.171875 110.238281 L 624.582031 109.308594 C 625.976562 109.921875 627.167969 111.0625 627.84375 112.433594 C 628.082031 112.917969 628.277344 113.476562 628.445312 114.136719 C 628.9375 116.0625 628.742188 117.976562 628.554688 119.820312 C 628.4375 120.945312 628.320312 122.109375 628.359375 123.253906 C 628.378906 123.871094 628.339844 124.5 628.304688 125.113281 C 628.226562 126.363281 628.15625 127.542969 628.542969 128.625 C 628.835938 129.4375 629.382812 130.148438 629.960938 130.894531 L 630.121094 131.101562 C 634.300781 136.539062 636.292969 141.84375 636.046875 146.871094 " fill-opacity="1" fill-rule="nonzero"/></g><path fill="#ebab60" d="M 291.957031 259.675781 L 319.304688 277.710938 L 324.199219 269.425781 L 341.136719 270.09375 L 350.300781 186.628906 L 332.878906 178 L 291.957031 259.675781 " fill-opacity="1" fill-rule="nonzero"/><path fill="#cd5e5e" d="M 266.804688 153.003906 L 216.550781 219.515625 L 277.8125 270.855469 L 297.359375 271.632812 L 344.4375 186.402344 L 323.875 178.410156 L 327.292969 190.9375 L 268.238281 149.796875 L 266.804688 153.003906 " fill-opacity="1" fill-rule="nonzero"/><path fill="#dc8f8f" d="M 268.238281 149.796875 L 282.414062 154.269531 L 286.082031 143.976562 L 344.4375 186.402344 L 323.875 178.410156 L 331.558594 198.609375 L 266.804688 153.003906 " fill-opacity="1" fill-rule="nonzero"/><path fill="#383530" d="M 312.144531 192.609375 L 311.21875 192.191406 C 314.558594 184.828125 317.453125 178.152344 319.152344 170.996094 C 321.097656 162.773438 321.042969 155.300781 318.980469 148.789062 C 317.710938 144.773438 315.792969 141.648438 313.289062 139.503906 C 310.351562 136.988281 306.5 135.945312 303.230469 136.777344 C 299.84375 137.644531 296.796875 140.558594 294.863281 144.78125 C 293.738281 147.242188 293.023438 149.917969 292.332031 152.511719 C 291.972656 153.847656 291.601562 155.234375 291.183594 156.578125 C 289.046875 163.367188 285.363281 169.71875 280.535156 174.945312 L 279.792969 174.261719 C 284.523438 169.140625 288.125 162.925781 290.21875 156.277344 C 290.632812 154.949219 291 153.578125 291.355469 152.25 C 292.054688 149.621094 292.785156 146.898438 293.941406 144.363281 C 296 139.859375 299.296875 136.742188 302.984375 135.796875 C 306.5625 134.886719 310.769531 136.011719 313.949219 138.734375 C 316.597656 141.003906 318.613281 144.285156 319.941406 148.484375 C 322.0625 155.171875 322.125 162.824219 320.136719 171.230469 C 318.417969 178.472656 315.5 185.195312 312.144531 192.609375 " fill-opacity="1" fill-rule="nonzero"/><path fill="#383530" d="M 315.445312 174.785156 L 314.472656 174.507812 C 316.472656 167.46875 318.546875 160.191406 318.945312 152.773438 C 319.253906 147 318.59375 138.671875 313.710938 131.824219 C 312.320312 129.871094 310.90625 128.59375 309.394531 127.90625 C 304.953125 125.914062 299.496094 129.175781 297.183594 133.464844 C 294.957031 137.609375 295.199219 141.019531 295.503906 145.339844 C 295.554688 146.066406 295.609375 146.816406 295.648438 147.597656 C 295.980469 153.535156 295.910156 159.539062 295.441406 165.457031 L 294.433594 165.375 C 294.894531 159.503906 294.964844 153.542969 294.640625 147.652344 C 294.601562 146.882812 294.542969 146.136719 294.492188 145.410156 C 294.191406 141.105469 293.925781 137.386719 296.292969 132.988281 C 298.808594 128.3125 304.6875 124.695312 309.808594 126.992188 C 311.488281 127.742188 313.035156 129.136719 314.535156 131.238281 C 319.589844 138.328125 320.269531 146.890625 319.953125 152.828125 C 319.550781 160.359375 317.464844 167.691406 315.445312 174.785156 " fill-opacity="1" fill-rule="nonzero"/><path fill="#cd5e5e" d="M 408.472656 665.796875 L 403.574219 672.023438 L 388.339844 681.707031 L 392.503906 685.789062 L 401.667969 688.105469 L 411.382812 685.0625 L 419.574219 676.082031 L 423.078125 667.894531 C 423.078125 667.894531 417.90625 662.445312 408.472656 665.796875 " fill-opacity="1" fill-rule="nonzero"/><path fill="#cd5e5e" d="M 507.445312 661.703125 L 515.578125 674.0625 L 530.695312 689.230469 L 547.898438 683.867188 L 538.523438 670.925781 L 528.007812 664.21875 L 523.851562 656.160156 C 523.851562 656.160156 518.769531 651 507.445312 661.703125 " fill-opacity="1" fill-rule="nonzero"/><path fill="#383530" d="M 388.773438 694.804688 L 379.84375 691.050781 L 380.234375 690.117188 L 388.960938 693.785156 L 425.183594 692.695312 L 437.425781 689.019531 L 452.484375 688.398438 L 452.523438 689.410156 L 437.59375 690.023438 L 425.34375 693.703125 L 425.28125 693.703125 L 388.773438 694.804688 " fill-opacity="1" fill-rule="nonzero"/><path fill="#383530" d="M 550.535156 698.878906 L 550.457031 698.875 L 531.933594 698.144531 L 508.949219 684.238281 L 497.539062 681.820312 L 489.671875 675.839844 L 490.285156 675.035156 L 497.96875 680.875 L 509.332031 683.285156 L 509.402344 683.324219 L 532.234375 697.148438 L 550.414062 697.863281 L 555.359375 696.429688 L 555.640625 697.398438 L 550.535156 698.878906 " fill-opacity="1" fill-rule="nonzero"/><path fill="#383530" d="M 401.8125 688.585938 L 401.515625 687.625 L 412.703125 684.15625 L 419.132812 675.824219 L 422.617188 667.695312 L 423.546875 668.097656 L 420.015625 676.34375 L 419.976562 676.394531 L 413.304688 685.027344 L 401.8125 688.585938 " fill-opacity="1" fill-rule="nonzero"/><path fill="#383530" d="M 530.332031 689.585938 L 514.503906 673.347656 L 507.023438 661.984375 L 507.863281 661.429688 L 515.292969 672.710938 L 531.058594 688.882812 L 530.332031 689.585938 " fill-opacity="1" fill-rule="nonzero"/><path fill="#383530" d="M 540.527344 677.796875 L 527.648438 664.574219 L 528.371094 663.867188 L 541.25 677.09375 L 540.527344 677.796875 " fill-opacity="1" fill-rule="nonzero"/><path fill="#e9a186" d="M 312.839844 126.753906 C 313.214844 127.832031 313.511719 128.949219 313.710938 130.09375 C 313.796875 130.589844 313.855469 131.097656 313.75 131.589844 C 313.542969 132.566406 312.742188 133.21875 312.078125 133.902344 C 311.25 134.753906 310.863281 135.441406 310.5 136.5625 C 310.171875 137.574219 309.53125 138.480469 308.683594 139.125 C 307.34375 140.148438 307.671875 142.320312 306.65625 143.757812 C 305.949219 144.765625 304.765625 145.527344 303.542969 145.40625 C 303.464844 146.460938 303.171875 147.5 302.679688 148.4375 C 302.507812 148.773438 302.273438 149.117188 301.914062 149.234375 C 301.671875 149.3125 301.40625 149.269531 301.164062 149.210938 C 299.316406 148.761719 297.847656 147.398438 296.539062 146.023438 C 294.660156 144.058594 292.890625 141.9375 291.695312 139.5 C 291.160156 138.417969 290.742188 137.242188 290.78125 136.035156 C 290.820312 134.828125 291.398438 133.585938 292.464844 133.019531 C 292.632812 132.933594 292.816406 132.851562 292.917969 132.695312 C 293.042969 132.503906 293.007812 132.253906 292.984375 132.023438 C 292.679688 129.484375 293.976562 126.828125 296.164062 125.503906 C 296.339844 125.398438 296.527344 125.292969 296.617188 125.113281 C 296.726562 124.910156 296.683594 124.671875 296.664062 124.449219 C 296.511719 122.699219 297.863281 120.957031 299.589844 120.664062 C 299.378906 119.242188 299.4375 117.789062 299.757812 116.394531 C 300.082031 115.007812 300.859375 113.511719 302.25 113.214844 C 303.636719 112.910156 305.089844 113.761719 305.855469 114.847656 C 308.476562 118.5625 311.3125 122.410156 312.839844 126.753906 " fill-opacity="1" fill-rule="nonzero"/><path fill="#383530" d="M 310.699219 134.878906 L 311.160156 133.984375 C 309.382812 133.058594 307.761719 131.539062 306.339844 129.464844 C 305.058594 127.59375 304.074219 125.480469 303.125 123.441406 L 302.207031 123.867188 C 303.175781 125.945312 304.175781 128.097656 305.503906 130.039062 C 307.019531 132.253906 308.769531 133.882812 310.699219 134.878906 " fill-opacity="1" fill-rule="nonzero"/><path fill="#383530" d="M 307.613281 140.308594 L 308.074219 139.414062 C 306.117188 138.398438 304.339844 136.820312 302.785156 134.71875 C 301.546875 133.035156 300.476562 131.078125 299.3125 128.371094 L 298.382812 128.765625 C 299.582031 131.546875 300.6875 133.566406 301.972656 135.316406 C 303.617188 137.546875 305.515625 139.230469 307.613281 140.308594 " fill-opacity="1" fill-rule="nonzero"/><path fill="#383530" d="M 304.34375 145.46875 L 304.902344 144.621094 C 300.914062 142.015625 297.609375 138.207031 295.589844 133.890625 L 294.671875 134.324219 C 296.800781 138.867188 300.144531 142.71875 304.34375 145.46875 " fill-opacity="1" fill-rule="nonzero"/><path fill="#e9a186" d="M 303.882812 115.613281 C 298.9375 118.367188 293.617188 120.546875 288.234375 122.300781 C 288.070312 122.355469 289.402344 124.230469 289.539062 124.378906 C 290.15625 125.023438 290.988281 125.652344 291.855469 125.910156 C 295.65625 127.042969 299.398438 125.089844 303.167969 125.011719 C 306.742188 124.9375 309.835938 127.417969 313.304688 128.296875 C 317.515625 129.367188 322.277344 127.832031 325.066406 124.5 C 325.574219 123.898438 326.027344 123.199219 326.089844 122.410156 C 326.175781 121.277344 325.414062 120.257812 324.632812 119.425781 C 321.964844 116.582031 318.632812 114.21875 314.746094 113.722656 C 311.152344 113.265625 307.070312 113.835938 303.882812 115.613281 " fill-opacity="1" fill-rule="nonzero"/><g clip-path="url(#f0eed535ab)"><path stroke-linecap="butt" transform="matrix(0.129832, 0, 0, -0.129805, 88.532745, 700.353561)" fill="none" stroke-linejoin="miter" d="M 1539.47731 4451.149175 C 1540.229484 4448.079655 1542.455918 4445.612003 1544.712439 4443.385097 C 1568.661647 4419.942397 1595.077985 4417.354371 1626.729452 4423.373036 C 1653.897963 4428.549088 1679.953258 4438.148858 1706.279335 4446.454616 C 1710.551682 4447.838909 1715.275332 4449.163015 1719.33707 4447.327322 C 1723.549242 4445.461536 1725.715502 4440.887351 1727.671153 4436.704379 C 1744.008365 4401.645655 1768.469051 4370.378691 1798.555997 4346.033191 C 1799.759475 4345.070204 1801.203648 4344.016938 1802.738082 4344.408151 C 1804.272516 4344.739178 1804.723821 4347.447577 1803.189386 4347.718417 " stroke="#383530" stroke-width="50" stroke-opacity="1" stroke-miterlimit="10"/></g><path fill="#fbefa6" d="M 655.265625 256.578125 L 578.292969 253.542969 L 591.910156 156.6875 L 593.390625 156.894531 L 580.007812 252.113281 L 655.324219 255.085938 L 655.265625 256.578125 " fill-opacity="1" fill-rule="nonzero"/><path fill="#fbefa6" d="M 320.03125 277.898438 L 318.578125 277.527344 L 334.484375 215.367188 L 335.933594 215.738281 L 320.03125 277.898438 " fill-opacity="1" fill-rule="nonzero"/><path fill="#383530" d="M 412.777344 394.429688 L 410.195312 296.355469 L 410.238281 296.257812 L 433.96875 233.773438 L 452.261719 228.867188 L 452.527344 229.859375 L 434.742188 234.632812 L 411.238281 296.527344 L 413.808594 394.402344 L 412.777344 394.429688 " fill-opacity="1" fill-rule="nonzero"/><path fill="#383530" d="M 404.210938 264.835938 L 404.71875 248.828125 L 405.75 248.859375 L 405.382812 260.527344 L 411.765625 248.820312 L 412.671875 249.3125 L 404.210938 264.835938 " fill-opacity="1" fill-rule="nonzero"/><path fill="#383530" d="M 373.730469 218.640625 L 373.007812 217.910156 L 382.578125 208.390625 L 383.308594 209.128906 L 373.730469 218.640625 " fill-opacity="1" fill-rule="nonzero"/><path fill="#383530" d="M 380.777344 223.089844 L 379.859375 222.621094 L 386.25 210.277344 L 387.167969 210.75 L 380.777344 223.089844 " fill-opacity="1" fill-rule="nonzero"/></svg>