<svg xmlns="http://www.w3.org/2000/svg" xmlns:xlink="http://www.w3.org/1999/xlink" width="1080" zoomAndPan="magnify" viewBox="0 0 810 809.999993" height="1080" preserveAspectRatio="xMidYMid meet" version="1.0"><defs><clipPath id="7121f49739"><path d="M 191.140625 127 L 646.390625 127 L 646.390625 685 L 191.140625 685 Z M 191.140625 127 " clip-rule="nonzero"/></clipPath><clipPath id="c338d0d4a7"><path d="M 191.140625 127 L 619 127 L 619 676 L 191.140625 676 Z M 191.140625 127 " clip-rule="nonzero"/></clipPath><clipPath id="51ccf3461a"><path d="M 403 175 L 646.390625 175 L 646.390625 685 L 403 685 Z M 403 175 " clip-rule="nonzero"/></clipPath></defs><rect x="-81" width="972" fill="#ffffff" y="-80.999999" height="971.999992" fill-opacity="1"/><rect x="-81" width="972" fill="#ffffff" y="-80.999999" height="971.999992" fill-opacity="1"/><g clip-path="url(#7121f49739)"><path fill="#ffc39e" d="M 644.96875 673.53125 C 641.019531 666.8125 632.519531 664.636719 625.988281 660.378906 C 622.777344 658.117188 619.773438 655.613281 616.980469 652.859375 C 617.488281 652.6875 617.988281 652.492188 618.476562 652.273438 C 612.628906 639.757812 606.777344 627.242188 603.148438 613.816406 C 589.019531 574.382812 574.898438 534.949219 559.609375 494.675781 C 557.394531 490.261719 554.574219 486.273438 551.152344 482.714844 C 541.460938 461.742188 535.789062 439.277344 529.285156 415.914062 C 532.285156 415.75 535.25 415.550781 538.121094 415.277344 C 533.261719 404.195312 530.03125 392.660156 528.425781 380.667969 L 531.339844 380.523438 C 529.851562 366.367188 529.203125 352.167969 529.394531 337.9375 C 532.984375 347.277344 534.53125 357.261719 535.820312 367.21875 C 534.265625 369.042969 534.535156 372 534.996094 374.472656 C 535.386719 376.566406 535.777344 378.65625 536.171875 380.75 C 536.367188 381.804688 536.699219 383.03125 537.703125 383.414062 C 538.132812 383.542969 538.570312 383.582031 539.015625 383.519531 C 540.9375 383.390625 542.851562 383.1875 544.757812 382.933594 C 545.054688 383.789062 545.363281 384.640625 545.6875 385.484375 C 545.957031 386.320312 546.378906 387.070312 546.949219 387.734375 C 547.683594 388.402344 548.527344 388.855469 549.488281 389.097656 C 551.386719 389.675781 553.324219 390.007812 555.304688 390.089844 C 557.285156 390.175781 559.246094 390.011719 561.1875 389.597656 C 563.125 389.183594 564.980469 388.53125 566.753906 387.644531 C 568.527344 386.757812 570.164062 385.664062 571.65625 384.363281 C 572.761719 383.527344 573.496094 382.4375 573.855469 381.101562 C 573.964844 379.835938 573.742188 378.628906 573.191406 377.484375 L 572.058594 374.476562 C 573.363281 373.8125 574.660156 373.128906 575.929688 372.398438 C 576.546875 372.089844 577.085938 371.679688 577.546875 371.164062 C 578.796875 369.585938 578.007812 367.222656 576.804688 365.609375 C 575.597656 363.992188 573.984375 362.566406 573.507812 360.613281 C 573.148438 359.128906 573.324219 357.210938 571.988281 356.476562 C 571.859375 356.066406 571.714844 355.664062 571.5625 355.269531 C 564.214844 336.390625 562.644531 315.828125 557.941406 296.117188 C 556.648438 290.703125 555 285.132812 551.261719 281 C 548.667969 278.453125 545.804688 276.261719 542.664062 274.429688 C 542.199219 274.121094 541.742188 273.796875 541.28125 273.480469 C 535.390625 267.636719 529.832031 261.488281 524.609375 255.042969 C 524.667969 254.492188 524.710938 253.9375 524.792969 253.390625 C 525.21875 250.441406 526.019531 247.597656 527.203125 244.859375 C 527.28125 244.851562 527.363281 244.847656 527.441406 244.839844 C 529.339844 244.640625 531.175781 244.183594 532.949219 243.476562 C 533.292969 243.34375 533.617188 243.167969 533.953125 243.019531 L 540.183594 241.597656 C 544.1875 240.683594 548.285156 239.730469 551.792969 237.578125 C 555.304688 235.425781 558.179688 231.816406 558.351562 227.703125 C 560.589844 226.449219 562.519531 224.824219 564.132812 222.832031 C 565.75 220.839844 566.941406 218.621094 567.710938 216.171875 C 569.285156 210.65625 568.105469 204.691406 565.980469 199.363281 C 563.851562 194.035156 560.808594 189.125 558.441406 183.898438 C 557.78125 185.652344 557.046875 187.695312 556.3125 189.738281 C 554.21875 187.546875 551.921875 185.59375 549.417969 183.882812 C 541.203125 178.679688 530.433594 179.476562 521.730469 175.140625 C 520.660156 177.394531 519.320312 179.257812 518.535156 181.347656 C 518.171875 182.382812 517.945312 183.445312 517.859375 184.539062 C 517.769531 185.628906 517.820312 186.714844 518.007812 187.792969 C 518.199219 188.871094 518.519531 189.910156 518.976562 190.90625 C 519.433594 191.902344 520.007812 192.824219 520.703125 193.671875 C 518.367188 195.140625 516.136719 196.746094 514.007812 198.5 C 510.050781 197.191406 506.078125 195.886719 502.113281 194.585938 C 501.90625 194.5 501.691406 194.46875 501.46875 194.496094 C 500.980469 194.625 500.894531 195.273438 500.90625 195.773438 C 500.941406 199.148438 501.390625 202.464844 502.257812 205.722656 C 498.425781 211.988281 494.511719 218.511719 493.636719 225.792969 C 493.359375 227.378906 493.371094 228.960938 493.667969 230.542969 C 493.960938 232.125 494.527344 233.605469 495.359375 234.980469 C 496.644531 236.695312 498.257812 238.019531 500.191406 238.945312 C 499.804688 241.324219 499.265625 243.671875 498.578125 245.980469 C 492.644531 243.367188 487.066406 240.136719 481.84375 236.289062 L 478.226562 233.746094 C 478.238281 233.875 478.253906 234.003906 478.269531 234.132812 C 477.441406 232.945312 476.449219 231.914062 475.296875 231.039062 C 473.628906 230.023438 471.832031 229.339844 469.914062 228.980469 L 443.050781 222.296875 C 443.347656 221.679688 443.390625 221.042969 443.179688 220.390625 C 442.703125 219.273438 441.1875 219.109375 439.992188 219.3125 C 438.804688 219.722656 437.617188 219.722656 436.429688 219.304688 C 435.234375 218.632812 434.929688 217.007812 433.875 216.128906 C 433.527344 215.898438 433.148438 215.730469 432.738281 215.628906 C 432.332031 215.527344 431.917969 215.496094 431.5 215.535156 C 431.082031 215.574219 430.683594 215.683594 430.300781 215.863281 C 429.921875 216.039062 429.582031 216.273438 429.28125 216.570312 C 428.160156 217.714844 427.359375 219.046875 426.875 220.574219 C 426.550781 220.472656 426.230469 220.359375 425.90625 220.253906 C 426.335938 219.71875 426.765625 219.179688 427.167969 218.625 C 431.269531 213.042969 434.300781 206.753906 438.054688 200.921875 C 442.996094 193.269531 449.019531 186.585938 456.121094 180.878906 C 456.636719 180.761719 457.128906 180.570312 457.589844 180.316406 C 458.453125 179.738281 459.398438 179.527344 460.425781 179.679688 C 461.148438 180.011719 461.804688 180.445312 462.394531 180.980469 C 464.332031 182.292969 466.964844 181.769531 469.128906 180.882812 C 470.085938 180.480469 471.007812 180.019531 471.902344 179.496094 L 475.238281 182.328125 C 475.210938 182.660156 475.1875 182.996094 475.1875 183.339844 C 475.183594 184.699219 475.40625 186.019531 475.84375 187.308594 C 476.28125 188.597656 476.914062 189.777344 477.746094 190.855469 C 477.554688 191.058594 477.40625 191.292969 477.304688 191.554688 C 477.203125 191.816406 477.15625 192.085938 477.160156 192.367188 C 477.167969 192.648438 477.222656 192.917969 477.335938 193.171875 C 477.445312 193.429688 477.601562 193.660156 477.800781 193.855469 C 478 194.050781 478.230469 194.203125 478.488281 194.3125 C 478.75 194.417969 479.019531 194.472656 479.300781 194.472656 C 479.582031 194.472656 479.851562 194.421875 480.113281 194.316406 C 480.371094 194.210938 480.601562 194.058594 480.804688 193.863281 L 480.90625 193.761719 C 481.503906 194.144531 482.132812 194.472656 482.789062 194.75 C 483.445312 195.027344 484.117188 195.242188 484.8125 195.402344 C 485.503906 195.5625 486.207031 195.660156 486.917969 195.699219 C 487.628906 195.734375 488.335938 195.714844 489.042969 195.628906 C 489.75 195.542969 490.445312 195.402344 491.125 195.195312 C 491.808594 194.992188 492.464844 194.730469 493.101562 194.414062 C 493.738281 194.097656 494.34375 193.726562 494.917969 193.304688 C 495.488281 192.882812 496.023438 192.417969 496.515625 191.902344 C 497.007812 191.386719 497.449219 190.835938 497.847656 190.246094 C 498.246094 189.65625 498.585938 189.035156 498.878906 188.386719 C 499.167969 187.738281 499.398438 187.066406 499.574219 186.378906 C 499.746094 185.6875 499.863281 184.988281 499.914062 184.277344 C 499.96875 183.570312 499.960938 182.863281 499.890625 182.152344 C 499.824219 181.445312 499.695312 180.75 499.503906 180.0625 C 499.316406 179.378906 499.070312 178.714844 498.765625 178.070312 C 498.460938 177.425781 498.105469 176.8125 497.695312 176.234375 C 497.792969 176.125 497.894531 176.019531 497.992188 175.910156 C 498.183594 175.699219 498.324219 175.460938 498.421875 175.191406 C 498.515625 174.921875 498.558594 174.644531 498.542969 174.359375 C 498.527344 174.074219 498.460938 173.804688 498.339844 173.546875 C 498.214844 173.289062 498.050781 173.066406 497.835938 172.875 C 497.625 172.683594 497.386719 172.539062 497.117188 172.441406 C 496.847656 172.347656 496.570312 172.304688 496.285156 172.320312 C 496 172.335938 495.730469 172.402344 495.472656 172.527344 C 495.214844 172.648438 494.992188 172.816406 494.800781 173.027344 C 494.75 173.082031 494.699219 173.136719 494.648438 173.191406 C 493.90625 172.671875 493.117188 172.238281 492.28125 171.890625 C 491.441406 171.542969 490.578125 171.292969 489.683594 171.140625 C 488.792969 170.984375 487.894531 170.929688 486.988281 170.976562 C 486.082031 171.019531 485.195312 171.164062 484.320312 171.40625 L 481.542969 169.335938 C 481.984375 168.480469 482.371094 167.597656 482.703125 166.691406 C 482.933594 166.183594 483.015625 165.652344 482.949219 165.097656 C 482.742188 164.457031 482.375 163.933594 481.84375 163.527344 L 472.765625 154.996094 C 470.371094 152.449219 467.589844 150.429688 464.425781 148.941406 C 462.78125 148.320312 461.082031 148.019531 459.328125 148.042969 C 457.570312 148.0625 455.878906 148.402344 454.253906 149.058594 L 435.605469 135.226562 L 434.617188 136.546875 C 418.996094 124.109375 393.335938 124.480469 375.367188 137.992188 C 359.320312 150.066406 348.800781 171.324219 346.511719 196.3125 C 344.679688 216.332031 347.769531 236.566406 350.761719 256.132812 C 351.066406 258.121094 351.367188 260.105469 351.667969 262.09375 C 354.839844 283.199219 357.570312 305.597656 353.132812 327.027344 C 348.933594 347.335938 338.449219 365.890625 328.316406 383.839844 C 321.925781 395.148438 315.320312 406.839844 310.257812 418.972656 C 308.460938 423.347656 306.851562 427.792969 305.429688 432.304688 C 304.011719 436.820312 302.785156 441.382812 301.75 446 C 300.71875 450.617188 299.882812 455.269531 299.242188 459.957031 C 298.605469 464.648438 298.167969 469.351562 297.929688 474.078125 C 297.691406 478.804688 297.652344 483.53125 297.816406 488.257812 C 297.976562 492.988281 298.339844 497.699219 298.902344 502.398438 C 299.464844 507.09375 300.226562 511.761719 301.183594 516.394531 C 302.144531 521.027344 303.296875 525.609375 304.644531 530.144531 C 308.597656 543.175781 314.214844 555.792969 319.648438 567.996094 C 322.117188 573.542969 324.671875 579.28125 327.03125 584.972656 C 332.804688 598.902344 338.453125 615.332031 336.546875 631.558594 C 334.832031 646.160156 324.800781 662.609375 308.941406 665.789062 C 300.808594 667.425781 292.722656 665.519531 284.160156 663.503906 C 279.753906 662.382812 275.300781 661.507812 270.796875 660.878906 C 258.113281 659.351562 245.558594 661.890625 233.414062 664.347656 L 192.421875 672.640625 C 192.238281 672.679688 192.066406 672.753906 191.910156 672.859375 C 191.753906 672.964844 191.625 673.097656 191.523438 673.253906 C 191.417969 673.414062 191.347656 673.585938 191.3125 673.769531 C 191.277344 673.957031 191.277344 674.140625 191.316406 674.324219 C 191.351562 674.511719 191.425781 674.679688 191.527344 674.839844 C 191.632812 674.996094 191.765625 675.125 191.921875 675.230469 C 192.078125 675.335938 192.25 675.410156 192.433594 675.445312 C 192.617188 675.484375 192.804688 675.484375 192.988281 675.453125 L 233.980469 667.160156 C 245.902344 664.746094 258.226562 662.25 270.453125 663.726562 C 274.851562 664.34375 279.203125 665.203125 283.507812 666.296875 C 291.992188 668.292969 300.761719 670.355469 309.507812 668.601562 C 327.507812 664.992188 337.621094 647.042969 339.402344 631.894531 C 341.382812 615.011719 335.601562 598.144531 329.683594 583.875 C 327.3125 578.152344 324.75 572.394531 322.273438 566.832031 C 316.875 554.710938 311.292969 542.171875 307.390625 529.316406 C 306.066406 524.859375 304.933594 520.355469 303.992188 515.804688 C 303.050781 511.25 302.304688 506.667969 301.75 502.050781 C 301.199219 497.4375 300.839844 492.804688 300.679688 488.160156 C 300.519531 483.511719 300.558594 478.867188 300.792969 474.226562 C 301.027344 469.582031 301.457031 464.957031 302.085938 460.351562 C 302.710938 455.746094 303.53125 451.175781 304.546875 446.636719 C 305.5625 442.101562 306.765625 437.617188 308.160156 433.179688 C 309.558594 428.746094 311.136719 424.378906 312.902344 420.078125 C 317.902344 408.105469 324.464844 396.488281 330.8125 385.253906 C 341.058594 367.113281 351.652344 348.359375 355.945312 327.613281 C 360.46875 305.71875 357.71875 283.03125 354.503906 261.667969 C 354.207031 259.683594 353.902344 257.691406 353.601562 255.703125 C 350.628906 236.304688 347.566406 216.25 349.371094 196.578125 C 351.585938 172.394531 361.691406 151.875 377.09375 140.289062 C 394.078125 127.507812 418.28125 127.121094 432.898438 138.84375 L 429.449219 143.464844 L 445.992188 157.507812 C 444.054688 161.648438 442.941406 166.394531 440.832031 170.417969 C 440.660156 170.5625 440.492188 170.710938 440.332031 170.859375 C 430.488281 179.992188 418.335938 186.199219 407.546875 194.183594 C 398.394531 200.957031 389.898438 209.699219 386.269531 220.289062 C 383.433594 225.832031 383.019531 232.980469 386.914062 237.773438 C 390.988281 242.773438 398.089844 243.695312 404.398438 245.03125 C 406.230469 245.421875 408.046875 245.882812 409.84375 246.402344 C 409.621094 246.714844 409.402344 247.027344 409.191406 247.347656 C 408.253906 248.503906 407.734375 249.828125 407.640625 251.316406 C 407.746094 253.699219 410.199219 255.296875 412.527344 255.824219 C 414.851562 256.351562 417.34375 256.246094 419.515625 257.230469 C 420.097656 257.5625 420.714844 257.796875 421.371094 257.933594 C 422.222656 257.984375 422.953125 257.707031 423.554688 257.105469 C 424.644531 257.722656 425.695312 258.410156 426.742188 259.101562 C 433.695312 263.695312 440.648438 268.289062 447.691406 273.042969 C 439.488281 297.539062 430.507812 321.753906 420.75 345.6875 C 420.371094 346.4375 420.191406 347.226562 420.21875 348.066406 C 420.425781 349.027344 420.882812 349.847656 421.589844 350.535156 C 427.1875 357.09375 433.308594 363.128906 439.945312 368.632812 C 438.632812 382.015625 437.230469 394.816406 435.53125 405.742188 C 437.070312 406.195312 438.648438 406.625 440.234375 407.054688 C 435.839844 439.078125 431.441406 471.101562 427.042969 503.128906 C 425.375 515.273438 423.703125 527.523438 424.574219 539.75 C 425.496094 552.683594 429.226562 565.222656 431.792969 577.929688 C 436.203125 599.804688 437.105469 622.617188 432.136719 644.371094 C 432.714844 644.019531 433.308594 643.667969 433.910156 643.320312 C 427.535156 650.597656 420.679688 657.382812 413.335938 663.683594 C 410.183594 666.226562 407.1875 668.941406 404.351562 671.835938 C 403.730469 672.375 403.367188 673.054688 403.269531 673.875 C 403.269531 675.355469 405.078125 676.070312 406.539062 676.292969 C 424.058594 679.035156 441.125 669.550781 458.808594 668.269531 C 465.449219 667.789062 472.613281 668.332031 478.464844 665.46875 C 479.097656 665.671875 479.742188 665.734375 480.402344 665.660156 C 485.140625 665.089844 485.382812 658.332031 484.335938 653.679688 C 468.40625 582.851562 468.070312 508.566406 484.558594 438.640625 C 484.652344 438.625 484.746094 438.601562 484.839844 438.570312 C 495.859375 466.011719 507.851562 493.078125 520.964844 522.585938 C 522.355469 535.875 524.996094 548.914062 528.882812 561.699219 C 532.773438 574.480469 537.839844 586.78125 544.082031 598.597656 C 550.476562 610.683594 558.074219 622.167969 563.414062 634.753906 C 568.675781 647.160156 571.769531 660.675781 579.59375 669.921875 C 580.417969 669.773438 581.203125 669.503906 581.941406 669.109375 C 582.003906 670.855469 582.066406 672.605469 582.128906 674.355469 C 582.078125 675.589844 582.308594 676.769531 582.816406 677.894531 C 584.054688 680.15625 587.148438 680.628906 589.683594 680.164062 C 592.222656 679.699219 594.667969 678.570312 597.246094 678.636719 C 599.011719 678.789062 600.722656 679.191406 602.371094 679.847656 C 614.625 683.933594 628.015625 685.777344 640.484375 682.394531 C 642.664062 681.800781 645.058594 680.820312 645.863281 678.707031 C 646.105469 677.824219 646.148438 676.925781 645.992188 676.019531 C 645.835938 675.113281 645.496094 674.285156 644.96875 673.53125 Z M 644.96875 673.53125 " fill-opacity="1" fill-rule="nonzero"/></g><path fill="#ffc39e" d="M 544.753906 382.925781 C 554.332031 381.648438 563.429688 378.828125 572.050781 374.46875 C 572.429688 375.46875 572.808594 376.472656 573.1875 377.476562 C 573.734375 378.621094 573.957031 379.828125 573.847656 381.09375 C 573.488281 382.429688 572.753906 383.519531 571.652344 384.355469 C 570.15625 385.65625 568.523438 386.75 566.75 387.636719 C 564.976562 388.523438 563.117188 389.175781 561.179688 389.589844 C 559.242188 390.003906 557.28125 390.167969 555.300781 390.082031 C 553.316406 390 551.378906 389.667969 549.480469 389.089844 C 548.523438 388.847656 547.675781 388.394531 546.941406 387.726562 C 546.371094 387.0625 545.949219 386.3125 545.683594 385.476562 C 545.355469 384.636719 545.050781 383.78125 544.753906 382.925781 Z M 498.578125 245.972656 L 498.570312 245.972656 C 499.257812 243.664062 499.792969 241.316406 500.183594 238.9375 C 498.246094 238.011719 496.636719 236.6875 495.351562 234.972656 C 494.519531 233.597656 493.953125 232.117188 493.65625 230.535156 C 493.359375 228.953125 493.351562 227.371094 493.628906 225.785156 C 494.503906 218.503906 498.417969 211.980469 502.246094 205.714844 C 501.378906 202.457031 500.929688 199.140625 500.898438 195.765625 C 500.886719 195.265625 500.96875 194.617188 501.457031 194.488281 C 501.683594 194.460938 501.898438 194.492188 502.105469 194.578125 C 506.0625 195.882812 510.035156 197.183594 513.996094 198.492188 C 516.125 196.738281 518.359375 195.132812 520.691406 193.664062 C 521.894531 192.90625 523.132812 192.21875 524.40625 191.597656 C 529.253906 195.121094 534.207031 198.511719 539.261719 201.757812 C 537.484375 204.882812 535.59375 207.953125 533.554688 210.921875 C 535.304688 213.914062 537.050781 216.910156 538.789062 219.90625 C 536.835938 222.316406 534.710938 224.5625 532.410156 226.644531 C 534.03125 225.742188 535.773438 225.25 537.628906 225.167969 C 538.085938 225.15625 538.53125 225.222656 538.96875 225.363281 C 539.402344 225.503906 539.804688 225.710938 540.167969 225.988281 C 540.53125 226.261719 540.84375 226.589844 541.09375 226.972656 C 541.347656 227.351562 541.53125 227.765625 541.644531 228.207031 C 541.960938 230.371094 539.9375 232.09375 538.074219 233.195312 C 536.71875 234.089844 535.242188 234.679688 533.644531 234.960938 C 532.839844 235.09375 532.054688 235.03125 531.285156 234.769531 C 530.515625 234.507812 529.851562 234.078125 529.296875 233.484375 C 528.980469 234.867188 528.707031 236.257812 528.453125 237.652344 C 528.914062 238.558594 529.273438 239.5 529.527344 240.480469 C 528.773438 241.65625 528.101562 242.878906 527.511719 244.148438 C 527.488281 244.378906 527.457031 244.609375 527.433594 244.835938 C 527.355469 244.84375 527.273438 244.847656 527.191406 244.855469 C 526.011719 247.59375 525.207031 250.4375 524.78125 253.386719 C 524.699219 253.933594 524.660156 254.488281 524.597656 255.039062 L 524.019531 254.34375 C 523.183594 254.960938 522.375 255.613281 521.566406 256.265625 C 521.546875 256.242188 521.523438 256.222656 521.503906 256.199219 C 521.417969 256.304688 521.335938 256.410156 521.246094 256.511719 C 517.597656 259.460938 514.238281 262.710938 511.164062 266.25 C 505.292969 265.894531 499.402344 265.316406 493.5625 264.441406 C 495.082031 258.296875 496.742188 252.148438 498.578125 245.972656 Z M 517.578125 199.144531 C 520.53125 201.605469 523.605469 203.902344 526.800781 206.039062 C 526.957031 206.136719 527.128906 206.203125 527.3125 206.234375 C 527.496094 206.269531 527.679688 206.265625 527.863281 206.226562 C 528.046875 206.1875 528.214844 206.113281 528.367188 206.011719 C 528.523438 205.90625 528.652344 205.773438 528.753906 205.621094 C 528.859375 205.464844 528.929688 205.296875 528.96875 205.113281 C 529.003906 204.929688 529.007812 204.746094 528.972656 204.5625 C 528.941406 204.378906 528.871094 204.210938 528.773438 204.050781 C 528.671875 203.894531 528.546875 203.761719 528.394531 203.652344 C 525.28125 201.574219 522.292969 199.339844 519.417969 196.945312 C 519.269531 196.835938 519.109375 196.757812 518.933594 196.710938 C 518.753906 196.660156 518.574219 196.648438 518.394531 196.671875 C 518.210938 196.691406 518.039062 196.746094 517.878906 196.832031 C 517.71875 196.921875 517.578125 197.035156 517.460938 197.175781 C 517.34375 197.316406 517.257812 197.472656 517.199219 197.644531 C 517.140625 197.820312 517.121094 198 517.128906 198.179688 C 517.140625 198.363281 517.183594 198.539062 517.261719 198.703125 C 517.339844 198.871094 517.445312 199.015625 517.578125 199.140625 Z M 511.117188 205.375 C 511.421875 206.125 511.808594 206.824219 512.28125 207.476562 C 512.757812 208.128906 513.304688 208.714844 513.921875 209.234375 C 514.539062 209.753906 515.210938 210.1875 515.933594 210.542969 C 516.660156 210.898438 517.417969 211.160156 518.207031 211.328125 C 518.304688 211.347656 518.402344 211.359375 518.5 211.359375 C 518.679688 211.363281 518.855469 211.335938 519.027344 211.273438 C 519.195312 211.210938 519.347656 211.121094 519.484375 211.003906 C 519.617188 210.882812 519.726562 210.742188 519.8125 210.582031 C 519.894531 210.421875 519.945312 210.253906 519.960938 210.074219 C 519.980469 209.894531 519.964844 209.714844 519.917969 209.542969 C 519.867188 209.367188 519.789062 209.210938 519.683594 209.066406 C 519.574219 208.921875 519.441406 208.800781 519.289062 208.707031 C 519.132812 208.613281 518.96875 208.546875 518.792969 208.515625 C 517.664062 208.265625 516.65625 207.769531 515.769531 207.027344 C 514.886719 206.28125 514.222656 205.375 513.78125 204.308594 C 513.710938 204.132812 513.609375 203.976562 513.476562 203.839844 C 513.34375 203.703125 513.191406 203.597656 513.015625 203.523438 C 512.839844 203.449219 512.660156 203.410156 512.46875 203.40625 C 512.277344 203.402344 512.09375 203.4375 511.917969 203.507812 C 511.742188 203.578125 511.585938 203.679688 511.449219 203.8125 C 511.3125 203.945312 511.207031 204.097656 511.132812 204.273438 C 511.058594 204.449219 511.019531 204.628906 511.015625 204.820312 C 511.011719 205.011719 511.046875 205.195312 511.117188 205.371094 Z M 499.136719 224.285156 C 499.695312 224.472656 500.265625 224.605469 500.847656 224.6875 C 501.429688 224.765625 502.011719 224.789062 502.601562 224.757812 C 503.1875 224.726562 503.765625 224.640625 504.335938 224.5 C 504.90625 224.359375 505.457031 224.167969 505.992188 223.921875 C 506.527344 223.675781 507.03125 223.382812 507.511719 223.042969 C 507.988281 222.703125 508.433594 222.320312 508.839844 221.894531 C 509.242188 221.46875 509.605469 221.011719 509.925781 220.519531 C 510.242188 220.023438 510.515625 219.503906 510.734375 218.960938 C 510.949219 218.574219 510.976562 218.175781 510.816406 217.761719 C 510.523438 217.386719 510.136719 217.183594 509.660156 217.160156 C 506.4375 216.519531 503.324219 215.535156 500.316406 214.210938 C 498.714844 215.828125 497.503906 217.695312 496.683594 219.8125 C 496.484375 220.226562 496.359375 220.664062 496.300781 221.117188 C 496.191406 222.640625 497.691406 223.796875 499.136719 224.285156 Z M 422.8125 229.210938 C 424.324219 226.519531 425.640625 223.734375 426.761719 220.859375 C 426.796875 220.765625 426.839844 220.667969 426.875 220.574219 C 426.550781 220.46875 426.230469 220.359375 425.90625 220.253906 C 426.335938 219.714844 426.765625 219.175781 427.167969 218.625 C 431.269531 213.039062 434.304688 206.753906 438.054688 200.921875 C 442.996094 193.265625 449.019531 186.585938 456.121094 180.878906 C 456.636719 180.761719 457.128906 180.570312 457.589844 180.316406 C 458.453125 179.738281 459.398438 179.527344 460.425781 179.679688 C 461.148438 180.011719 461.804688 180.445312 462.394531 180.980469 C 464.332031 182.292969 466.964844 181.769531 469.128906 180.882812 C 470.085938 180.480469 471.007812 180.019531 471.902344 179.496094 C 473.964844 178.304688 475.820312 176.84375 477.457031 175.117188 C 479.097656 173.390625 480.460938 171.464844 481.542969 169.339844 C 481.984375 168.484375 482.371094 167.601562 482.703125 166.695312 C 482.933594 166.1875 483.015625 165.65625 482.949219 165.101562 C 482.742188 164.460938 482.375 163.9375 481.84375 163.53125 L 472.765625 155 C 470.371094 152.453125 467.589844 150.433594 464.425781 148.945312 C 462.78125 148.324219 461.082031 148.023438 459.328125 148.046875 C 457.570312 148.066406 455.878906 148.40625 454.253906 149.0625 C 452.710938 149.652344 451.328125 150.503906 450.101562 151.605469 C 448.34375 153.300781 446.980469 155.265625 446.003906 157.503906 C 444.066406 161.644531 442.949219 166.390625 440.84375 170.414062 C 440.671875 170.554688 440.503906 170.703125 440.339844 170.855469 C 430.5 179.988281 418.347656 186.191406 407.554688 194.179688 C 398.40625 200.953125 389.910156 209.695312 386.28125 220.28125 C 383.445312 225.824219 383.027344 232.976562 386.925781 237.769531 C 390.996094 242.769531 398.101562 243.6875 404.410156 245.027344 C 406.238281 245.414062 408.054688 245.878906 409.855469 246.394531 C 412.957031 242.027344 417.386719 238.125 421.691406 231.113281 C 422.0625 230.480469 422.4375 229.84375 422.808594 229.210938 Z M 422.8125 229.210938 " fill-opacity="1" fill-rule="nonzero"/><g clip-path="url(#c338d0d4a7)"><path fill="#4377ff" d="M 484.3125 438.699219 C 484.394531 438.6875 484.472656 438.667969 484.554688 438.640625 C 468.0625 508.566406 468.394531 582.847656 484.328125 653.679688 C 485.375 658.332031 485.132812 665.089844 480.398438 665.660156 C 479.738281 665.734375 479.089844 665.671875 478.457031 665.46875 C 476.546875 664.675781 474.953125 663.464844 473.675781 661.839844 C 468.875 656.527344 464.179688 651.125 459.585938 645.628906 C 457.945312 643.390625 455.957031 641.519531 453.621094 640.019531 C 447.5 636.628906 440.136719 639.71875 433.914062 643.320312 C 433.3125 643.667969 432.71875 644.019531 432.140625 644.371094 C 437.109375 622.617188 436.207031 599.804688 431.796875 577.929688 C 429.238281 565.222656 425.5 552.683594 424.578125 539.753906 C 423.707031 527.523438 425.378906 515.273438 427.046875 503.128906 C 431.441406 471.105469 435.839844 439.078125 440.242188 407.054688 C 452.382812 410.238281 464.6875 412.554688 477.15625 414.011719 C 477.097656 415.980469 477.054688 417.949219 477.035156 419.90625 C 476.984375 420.636719 477.097656 421.34375 477.375 422.023438 C 477.808594 422.84375 478.433594 423.480469 479.242188 423.929688 C 480.375 424.652344 481.550781 425.296875 482.769531 425.867188 C 482.640625 429.691406 482.652344 433.515625 482.808594 437.332031 C 482.816406 437.519531 482.859375 437.695312 482.933594 437.863281 C 483.011719 438.03125 483.117188 438.179688 483.25 438.308594 C 483.382812 438.4375 483.535156 438.535156 483.707031 438.605469 C 483.878906 438.671875 484.054688 438.707031 484.242188 438.707031 Z M 480.027344 414.355469 C 479.972656 416.21875 479.929688 418.082031 479.910156 419.933594 C 479.886719 420.238281 479.914062 420.535156 479.988281 420.832031 C 480.210938 421.117188 480.480469 421.34375 480.796875 421.515625 C 481.484375 421.953125 482.191406 422.355469 482.910156 422.734375 C 483.054688 420.054688 483.273438 417.386719 483.566406 414.722656 C 482.386719 414.597656 481.199219 414.488281 480.027344 414.355469 Z M 588.878906 660.554688 C 590.992188 656.511719 593.757812 652.015625 598.269531 651.332031 C 600.386719 651.171875 602.441406 651.453125 604.433594 652.175781 C 608.386719 653.304688 612.34375 654.425781 616.980469 652.851562 C 617.488281 652.683594 617.988281 652.488281 618.480469 652.269531 C 612.628906 639.75 606.777344 627.238281 603.148438 613.8125 C 589.023438 574.378906 574.898438 534.945312 559.609375 494.671875 C 557.394531 490.257812 554.578125 486.269531 551.15625 482.707031 C 541.460938 461.738281 535.789062 439.269531 529.285156 415.910156 C 514.976562 416.636719 500.6875 416.335938 486.417969 415.003906 C 485.621094 422.386719 485.375 429.789062 485.683594 437.207031 C 485.695312 437.5 485.625 437.769531 485.46875 438.019531 C 485.3125 438.265625 485.101562 438.449219 484.832031 438.570312 C 495.855469 466.011719 507.847656 493.078125 520.957031 522.585938 C 522.351562 535.875 524.992188 548.910156 528.878906 561.695312 C 532.769531 574.480469 537.832031 586.78125 544.078125 598.59375 C 550.472656 610.679688 558.066406 622.164062 563.40625 634.753906 C 568.671875 647.160156 571.761719 660.675781 579.589844 669.921875 C 580.414062 669.773438 581.195312 669.503906 581.933594 669.105469 C 585.070312 667.445312 587.164062 663.847656 588.878906 660.554688 Z M 454.238281 149.066406 L 435.605469 135.226562 L 434.617188 136.546875 C 418.996094 124.109375 393.335938 124.480469 375.367188 137.992188 C 359.320312 150.066406 348.800781 171.324219 346.511719 196.3125 C 344.679688 216.332031 347.769531 236.566406 350.761719 256.132812 C 351.066406 258.121094 351.367188 260.105469 351.667969 262.09375 C 354.839844 283.199219 357.570312 305.597656 353.132812 327.027344 C 348.933594 347.335938 338.449219 365.890625 328.316406 383.839844 C 321.925781 395.148438 315.320312 406.839844 310.257812 418.972656 C 308.460938 423.347656 306.851562 427.792969 305.429688 432.304688 C 304.011719 436.820312 302.785156 441.382812 301.75 446 C 300.71875 450.617188 299.882812 455.269531 299.242188 459.957031 C 298.605469 464.648438 298.167969 469.351562 297.929688 474.078125 C 297.691406 478.804688 297.652344 483.53125 297.816406 488.257812 C 297.976562 492.988281 298.339844 497.699219 298.902344 502.398438 C 299.464844 507.09375 300.226562 511.761719 301.183594 516.394531 C 302.144531 521.027344 303.296875 525.609375 304.644531 530.144531 C 308.597656 543.175781 314.214844 555.792969 319.648438 567.996094 C 322.117188 573.542969 324.671875 579.28125 327.03125 584.972656 C 332.804688 598.902344 338.453125 615.332031 336.546875 631.558594 C 334.832031 646.160156 324.800781 662.609375 308.941406 665.789062 C 300.808594 667.425781 292.722656 665.519531 284.160156 663.503906 C 279.753906 662.382812 275.300781 661.507812 270.796875 660.878906 C 258.113281 659.351562 245.558594 661.890625 233.414062 664.347656 L 192.421875 672.640625 C 192.238281 672.679688 192.066406 672.753906 191.910156 672.859375 C 191.753906 672.964844 191.625 673.097656 191.523438 673.253906 C 191.417969 673.414062 191.347656 673.585938 191.3125 673.769531 C 191.277344 673.957031 191.277344 674.140625 191.316406 674.324219 C 191.351562 674.511719 191.425781 674.679688 191.527344 674.839844 C 191.632812 674.996094 191.765625 675.125 191.921875 675.230469 C 192.078125 675.335938 192.25 675.410156 192.433594 675.445312 C 192.617188 675.484375 192.804688 675.484375 192.988281 675.453125 L 233.980469 667.160156 C 245.902344 664.746094 258.226562 662.25 270.453125 663.726562 C 274.851562 664.34375 279.203125 665.203125 283.507812 666.296875 C 291.992188 668.292969 300.761719 670.355469 309.507812 668.601562 C 327.507812 664.992188 337.621094 647.042969 339.402344 631.894531 C 341.382812 615.011719 335.601562 598.144531 329.683594 583.875 C 327.3125 578.152344 324.75 572.394531 322.273438 566.832031 C 316.875 554.710938 311.292969 542.171875 307.390625 529.316406 C 306.066406 524.859375 304.933594 520.355469 303.992188 515.804688 C 303.050781 511.25 302.304688 506.667969 301.75 502.050781 C 301.199219 497.4375 300.839844 492.804688 300.679688 488.160156 C 300.519531 483.511719 300.558594 478.867188 300.792969 474.226562 C 301.027344 469.582031 301.457031 464.957031 302.085938 460.351562 C 302.710938 455.746094 303.53125 451.175781 304.546875 446.636719 C 305.5625 442.101562 306.765625 437.617188 308.160156 433.179688 C 309.558594 428.746094 311.136719 424.378906 312.902344 420.078125 C 317.902344 408.105469 324.464844 396.488281 330.8125 385.253906 C 341.058594 367.113281 351.652344 348.359375 355.945312 327.613281 C 360.472656 305.71875 357.71875 283.03125 354.503906 261.667969 C 354.207031 259.683594 353.902344 257.691406 353.601562 255.703125 C 350.628906 236.304688 347.566406 216.25 349.371094 196.578125 C 351.585938 172.394531 361.691406 151.875 377.09375 140.289062 C 394.078125 127.507812 418.28125 127.121094 432.898438 138.84375 L 429.449219 143.464844 L 445.992188 157.507812 C 446.96875 155.269531 448.332031 153.304688 450.089844 151.613281 C 451.316406 150.507812 452.699219 149.660156 454.238281 149.066406 Z M 471.890625 179.496094 L 475.226562 182.328125 C 475.199219 182.660156 475.175781 182.996094 475.175781 183.339844 C 475.175781 184.699219 475.394531 186.019531 475.832031 187.308594 C 476.269531 188.597656 476.90625 189.777344 477.734375 190.855469 C 477.75 190.839844 477.753906 190.820312 477.769531 190.804688 C 483.527344 185.117188 489.199219 179.195312 494.636719 173.191406 C 493.898438 172.671875 493.105469 172.238281 492.269531 171.890625 C 491.433594 171.542969 490.566406 171.292969 489.675781 171.140625 C 488.78125 170.984375 487.882812 170.929688 486.976562 170.976562 C 486.074219 171.019531 485.183594 171.164062 484.308594 171.40625 L 481.53125 169.335938 C 480.449219 171.460938 479.089844 173.386719 477.449219 175.117188 C 475.808594 176.84375 473.957031 178.304688 471.890625 179.496094 Z M 521.550781 256.261719 C 521.449219 256.347656 521.339844 256.425781 521.234375 256.511719 C 519.085938 258.25 517.035156 260.097656 515.074219 262.050781 C 513.117188 264.003906 511.265625 266.054688 509.519531 268.199219 C 507.773438 270.34375 506.140625 272.570312 504.625 274.882812 C 503.105469 277.195312 501.714844 279.582031 500.441406 282.035156 C 499.171875 284.492188 498.03125 287.007812 497.019531 289.582031 C 496.007812 292.15625 495.132812 294.773438 494.390625 297.441406 C 493.652344 300.105469 493.050781 302.800781 492.585938 305.523438 C 492.125 308.25 491.804688 310.996094 491.625 313.753906 C 491.953125 313.386719 492.304688 313.03125 492.640625 312.667969 C 499.378906 305.410156 507.121094 299.460938 515.875 294.816406 C 514.121094 290.960938 513.105469 286.917969 512.824219 282.6875 C 523.101562 279.972656 533.488281 277.789062 543.988281 276.140625 C 543.089844 275.265625 542.191406 274.390625 541.265625 273.476562 C 535.375 267.632812 529.816406 261.488281 524.589844 255.039062 L 524.011719 254.34375 C 523.175781 254.957031 522.367188 255.613281 521.554688 256.261719 Z M 569.222656 356.582031 C 559.46875 359.71875 547.304688 358.117188 536.382812 366.644531 C 536.175781 366.816406 535.988281 367.003906 535.816406 367.214844 C 534.265625 369.039062 534.53125 371.996094 534.996094 374.46875 C 535.386719 376.558594 535.777344 378.652344 536.167969 380.746094 C 536.367188 381.800781 536.699219 383.023438 537.699219 383.410156 C 538.132812 383.539062 538.570312 383.574219 539.015625 383.515625 C 540.9375 383.386719 542.851562 383.183594 544.757812 382.925781 C 554.335938 381.648438 563.433594 378.828125 572.054688 374.46875 C 573.363281 373.804688 574.65625 373.121094 575.925781 372.390625 C 576.542969 372.085938 577.085938 371.671875 577.542969 371.15625 C 578.792969 369.578125 578.007812 367.214844 576.800781 365.601562 C 575.597656 363.984375 573.980469 362.558594 573.507812 360.605469 C 573.144531 359.121094 573.324219 357.203125 571.984375 356.46875 L 571.976562 356.46875 C 571.042969 356.121094 570.125 356.160156 569.222656 356.582031 Z M 425.046875 255.339844 C 431.984375 245.035156 437.917969 234.179688 442.847656 222.777344 C 442.917969 222.617188 442.976562 222.453125 443.042969 222.289062 C 443.339844 221.671875 443.382812 221.035156 443.171875 220.382812 C 442.699219 219.269531 441.179688 219.101562 439.984375 219.304688 C 438.796875 219.71875 437.613281 219.71875 436.425781 219.304688 C 435.230469 218.628906 434.925781 217.007812 433.871094 216.128906 C 433.519531 215.894531 433.140625 215.730469 432.734375 215.625 C 432.328125 215.523438 431.914062 215.492188 431.496094 215.535156 C 431.078125 215.574219 430.679688 215.683594 430.296875 215.859375 C 429.917969 216.039062 429.578125 216.273438 429.277344 216.566406 C 428.15625 217.710938 427.355469 219.046875 426.871094 220.574219 C 426.832031 220.667969 426.792969 220.765625 426.753906 220.859375 C 425.632812 223.734375 424.316406 226.519531 422.804688 229.210938 C 422.429688 229.871094 422.058594 230.507812 421.679688 231.121094 C 417.375 238.128906 412.953125 242.03125 409.84375 246.402344 C 409.621094 246.714844 409.398438 247.027344 409.191406 247.347656 C 408.25 248.507812 407.734375 249.832031 407.640625 251.316406 C 407.746094 253.699219 410.199219 255.296875 412.523438 255.824219 C 414.851562 256.351562 417.34375 256.246094 419.515625 257.230469 C 420.097656 257.566406 420.714844 257.800781 421.371094 257.9375 C 422.222656 257.988281 422.949219 257.710938 423.554688 257.105469 C 424.125 256.582031 424.625 255.992188 425.046875 255.339844 Z M 480.511719 255.746094 C 478.25 259.441406 475.265625 262.414062 471.5625 264.664062 C 471.199219 264.835938 470.910156 265.09375 470.699219 265.4375 C 470.570312 265.8125 470.554688 266.191406 470.65625 266.574219 C 472.738281 279.078125 476.816406 291.242188 485.417969 307.0625 C 485.4375 307.09375 485.453125 307.128906 485.472656 307.164062 C 485.488281 307.035156 485.507812 306.90625 485.527344 306.777344 C 485.613281 306.105469 485.714844 305.4375 485.808594 304.769531 C 487.667969 291.183594 490.25 277.742188 493.5625 264.4375 C 495.085938 258.292969 496.746094 252.144531 498.582031 245.96875 L 498.574219 245.96875 C 492.640625 243.359375 487.0625 240.132812 481.84375 236.289062 L 478.226562 233.746094 L 478.269531 234.132812 C 479.074219 241.15625 479.878906 248.1875 480.511719 255.746094 Z M 487.5625 195.714844 C 488.695312 195.71875 489.804688 195.566406 490.898438 195.261719 C 491.988281 194.957031 493.019531 194.511719 493.988281 193.921875 C 494.957031 193.335938 495.828125 192.628906 496.601562 191.800781 C 497.378906 190.972656 498.027344 190.058594 498.546875 189.050781 C 499.070312 188.046875 499.449219 186.988281 499.679688 185.878906 C 499.914062 184.773438 499.992188 183.652344 499.914062 182.523438 C 499.839844 181.390625 499.613281 180.292969 499.234375 179.222656 C 498.855469 178.15625 498.339844 177.160156 497.691406 176.234375 C 492.273438 182.207031 486.628906 188.101562 480.898438 193.761719 C 482.929688 195.066406 485.148438 195.714844 487.5625 195.714844 Z M 487.5625 195.714844 " fill-opacity="1" fill-rule="nonzero"/></g><path fill="#fb5a99" d="M 512.828125 282.683594 C 513.109375 286.914062 514.125 290.957031 515.878906 294.8125 C 507.125 299.457031 499.382812 305.40625 492.644531 312.664062 C 487.5625 336.515625 485.132812 360.632812 485.355469 385.015625 C 487.425781 385.285156 490.527344 383.917969 493.800781 383.105469 C 497.515625 382.308594 501.269531 381.878906 505.070312 381.8125 L 528.421875 380.660156 L 531.335938 380.515625 C 529.847656 366.359375 529.199219 352.160156 529.386719 337.929688 C 532.980469 347.269531 534.527344 357.253906 535.8125 367.210938 C 535.984375 367.003906 536.171875 366.8125 536.378906 366.640625 C 547.300781 358.113281 559.464844 359.714844 569.21875 356.578125 C 570.121094 356.15625 571.039062 356.117188 571.976562 356.464844 C 571.84375 356.054688 571.703125 355.652344 571.550781 355.257812 C 564.203125 336.375 562.632812 315.8125 557.925781 296.105469 C 556.632812 290.6875 554.988281 285.121094 551.246094 280.988281 C 548.65625 278.441406 545.789062 276.25 542.652344 274.417969 C 542.1875 274.105469 541.730469 273.785156 541.269531 273.46875 C 542.195312 274.378906 543.09375 275.253906 543.992188 276.128906 C 533.492188 277.78125 523.105469 279.964844 512.828125 282.683594 Z M 550.132812 286.902344 C 550.246094 287.050781 550.328125 287.21875 550.375 287.40625 C 550.425781 287.589844 550.433594 287.773438 550.410156 287.964844 C 550.382812 288.152344 550.320312 288.328125 550.226562 288.492188 C 550.128906 288.65625 550.003906 288.792969 549.851562 288.910156 C 547.214844 290.921875 544.777344 293.152344 542.535156 295.597656 C 540.292969 298.042969 538.28125 300.664062 536.503906 303.46875 C 534.730469 306.269531 533.210938 309.203125 531.957031 312.273438 C 530.699219 315.34375 529.722656 318.5 529.023438 321.742188 C 528.984375 321.929688 528.914062 322.101562 528.804688 322.257812 C 528.699219 322.414062 528.566406 322.546875 528.40625 322.648438 C 528.246094 322.753906 528.074219 322.824219 527.886719 322.859375 C 527.699219 322.894531 527.511719 322.890625 527.328125 322.851562 C 527.140625 322.8125 526.96875 322.738281 526.8125 322.632812 C 526.65625 322.527344 526.523438 322.394531 526.421875 322.234375 C 526.316406 322.074219 526.246094 321.902344 526.210938 321.714844 C 526.175781 321.527344 526.179688 321.339844 526.21875 321.15625 C 526.953125 317.746094 527.980469 314.425781 529.300781 311.195312 C 530.621094 307.96875 532.21875 304.878906 534.085938 301.933594 C 535.953125 298.988281 538.066406 296.230469 540.425781 293.65625 C 542.785156 291.085938 545.347656 288.742188 548.121094 286.625 C 548.273438 286.507812 548.441406 286.425781 548.625 286.378906 C 548.808594 286.332031 548.996094 286.320312 549.183594 286.34375 C 549.375 286.371094 549.550781 286.433594 549.714844 286.527344 C 549.878906 286.625 550.019531 286.75 550.132812 286.902344 Z M 521.554688 256.261719 C 521.453125 256.347656 521.34375 256.425781 521.238281 256.511719 C 521.324219 256.40625 521.410156 256.300781 521.496094 256.195312 C 521.515625 256.21875 521.535156 256.238281 521.554688 256.261719 Z M 485.527344 306.785156 C 485.613281 306.117188 485.714844 305.449219 485.808594 304.78125 L 485.859375 305.902344 C 485.746094 306.191406 485.640625 306.488281 485.527344 306.78125 Z M 460.128906 382.507812 C 467.433594 357.003906 475.867188 331.855469 485.421875 307.066406 C 476.820312 291.25 472.742188 279.082031 470.664062 266.582031 C 470.558594 266.199219 470.574219 265.820312 470.703125 265.445312 C 470.914062 265.101562 471.203125 264.839844 471.566406 264.667969 C 475.269531 262.417969 478.253906 259.445312 480.519531 255.753906 C 479.882812 248.195312 479.082031 241.160156 478.273438 234.136719 C 477.445312 232.949219 476.453125 231.917969 475.300781 231.042969 C 473.632812 230.027344 471.839844 229.339844 469.917969 228.984375 L 443.054688 222.296875 C 442.992188 222.464844 442.925781 222.628906 442.859375 222.789062 C 437.929688 234.191406 431.996094 245.046875 425.054688 255.351562 C 424.636719 256.003906 424.144531 256.589844 423.574219 257.117188 C 424.664062 257.734375 425.714844 258.421875 426.761719 259.113281 C 433.714844 263.707031 440.667969 268.300781 447.710938 273.054688 C 439.507812 297.550781 430.527344 321.765625 420.769531 345.699219 C 420.390625 346.449219 420.210938 347.238281 420.238281 348.078125 C 420.445312 349.039062 420.902344 349.859375 421.609375 350.546875 C 427.207031 357.105469 433.328125 363.140625 439.964844 368.644531 C 446.273438 373.867188 452.992188 378.488281 460.128906 382.507812 Z M 454.382812 265.804688 C 454.117188 265.804688 453.871094 265.738281 453.644531 265.601562 C 453.417969 265.464844 453.242188 265.277344 453.117188 265.042969 C 452.992188 264.808594 452.9375 264.558594 452.953125 264.292969 C 452.96875 264.03125 453.050781 263.789062 453.199219 263.566406 C 459.738281 253.894531 464.285156 243.359375 466.835938 231.964844 C 466.875 231.777344 466.945312 231.601562 467.054688 231.445312 C 467.164062 231.285156 467.296875 231.152344 467.457031 231.046875 C 467.621094 230.941406 467.796875 230.871094 467.984375 230.839844 C 468.175781 230.804688 468.363281 230.808594 468.550781 230.847656 C 468.738281 230.890625 468.910156 230.96875 469.070312 231.078125 C 469.226562 231.191406 469.355469 231.328125 469.457031 231.492188 C 469.558594 231.652344 469.625 231.832031 469.65625 232.019531 C 469.6875 232.210938 469.679688 232.398438 469.632812 232.585938 C 467.003906 244.335938 462.316406 255.203125 455.570312 265.179688 C 455.285156 265.597656 454.886719 265.808594 454.378906 265.804688 Z M 421.6875 231.121094 C 422.0625 230.480469 422.4375 229.84375 422.808594 229.210938 C 422.4375 229.871094 422.0625 230.507812 421.6875 231.121094 Z M 477.773438 190.804688 C 483.53125 185.117188 489.203125 179.195312 494.640625 173.191406 C 494.691406 173.136719 494.742188 173.082031 494.792969 173.027344 C 494.984375 172.816406 495.207031 172.648438 495.464844 172.527344 C 495.722656 172.402344 495.996094 172.335938 496.28125 172.320312 C 496.566406 172.304688 496.84375 172.347656 497.109375 172.441406 C 497.378906 172.539062 497.621094 172.683594 497.832031 172.875 C 498.042969 173.066406 498.210938 173.289062 498.332031 173.546875 C 498.453125 173.804688 498.523438 174.074219 498.535156 174.359375 C 498.550781 174.644531 498.511719 174.921875 498.414062 175.191406 C 498.320312 175.460938 498.175781 175.699219 497.984375 175.910156 C 497.886719 176.019531 497.785156 176.125 497.691406 176.234375 C 492.273438 182.207031 486.628906 188.101562 480.898438 193.761719 L 480.796875 193.863281 C 480.59375 194.058594 480.363281 194.210938 480.105469 194.316406 C 479.84375 194.421875 479.574219 194.472656 479.292969 194.472656 C 479.011719 194.472656 478.742188 194.417969 478.484375 194.3125 C 478.222656 194.203125 477.996094 194.050781 477.792969 193.855469 C 477.59375 193.660156 477.4375 193.429688 477.328125 193.171875 C 477.21875 192.917969 477.160156 192.648438 477.15625 192.367188 C 477.148438 192.085938 477.199219 191.816406 477.300781 191.554688 C 477.398438 191.292969 477.546875 191.058594 477.738281 190.855469 C 477.753906 190.84375 477.757812 190.820312 477.773438 190.804688 Z M 477.773438 190.804688 " fill-opacity="1" fill-rule="nonzero"/><path fill="#ffffff" d="M 499.136719 224.285156 C 497.691406 223.796875 496.195312 222.640625 496.300781 221.117188 C 496.355469 220.664062 496.484375 220.226562 496.679688 219.8125 C 497.503906 217.695312 498.714844 215.828125 500.316406 214.210938 C 503.320312 215.535156 506.4375 216.519531 509.660156 217.160156 C 510.136719 217.183594 510.523438 217.386719 510.816406 217.761719 C 510.976562 218.175781 510.949219 218.574219 510.734375 218.960938 C 510.511719 219.503906 510.242188 220.023438 509.921875 220.519531 C 509.605469 221.011719 509.242188 221.46875 508.835938 221.894531 C 508.429688 222.320312 507.988281 222.703125 507.511719 223.042969 C 507.03125 223.382812 506.527344 223.675781 505.992188 223.921875 C 505.457031 224.167969 504.90625 224.359375 504.335938 224.5 C 503.765625 224.640625 503.1875 224.726562 502.597656 224.757812 C 502.011719 224.789062 501.429688 224.765625 500.847656 224.6875 C 500.261719 224.605469 499.695312 224.472656 499.136719 224.285156 Z M 499.136719 224.285156 " fill-opacity="1" fill-rule="nonzero"/><g clip-path="url(#51ccf3461a)"><path fill="#420f22" d="M 478.460938 665.464844 C 472.609375 668.328125 465.445312 667.785156 458.804688 668.265625 C 441.121094 669.546875 424.054688 679.03125 406.535156 676.289062 C 405.070312 676.0625 403.269531 675.351562 403.265625 673.871094 C 403.363281 673.050781 403.726562 672.371094 404.347656 671.832031 C 407.183594 668.9375 410.179688 666.222656 413.332031 663.679688 C 420.679688 657.382812 427.542969 650.59375 433.921875 643.320312 C 440.144531 639.714844 447.507812 636.625 453.632812 640.015625 C 455.96875 641.519531 457.953125 643.386719 459.59375 645.625 C 464.183594 651.121094 468.878906 656.523438 473.683594 661.835938 C 474.960938 663.460938 476.550781 664.671875 478.460938 665.464844 Z M 644.96875 673.53125 C 641.019531 666.8125 632.519531 664.636719 625.988281 660.378906 C 622.777344 658.117188 619.773438 655.613281 616.980469 652.859375 C 612.339844 654.429688 608.386719 653.3125 604.433594 652.183594 C 602.4375 651.457031 600.382812 651.175781 598.269531 651.339844 C 593.753906 652.019531 590.988281 656.515625 588.875 660.5625 C 587.160156 663.847656 585.070312 667.445312 581.933594 669.109375 C 581.996094 670.855469 582.0625 672.605469 582.121094 674.355469 C 582.074219 675.589844 582.300781 676.769531 582.808594 677.894531 C 584.050781 680.15625 587.140625 680.628906 589.679688 680.164062 C 592.214844 679.699219 594.660156 678.570312 597.238281 678.636719 C 599.007812 678.789062 600.714844 679.191406 602.363281 679.847656 C 614.621094 683.933594 628.007812 685.777344 640.476562 682.394531 C 642.660156 681.800781 645.050781 680.820312 645.855469 678.707031 C 646.101562 677.824219 646.144531 676.925781 645.988281 676.019531 C 645.835938 675.117188 645.496094 674.285156 644.96875 673.53125 Z M 539.253906 201.75 C 537.476562 204.875 535.585938 207.945312 533.546875 210.914062 C 535.296875 213.90625 537.042969 216.902344 538.78125 219.898438 C 536.828125 222.308594 534.703125 224.554688 532.402344 226.636719 C 534.027344 225.734375 535.765625 225.242188 537.621094 225.160156 C 538.078125 225.148438 538.523438 225.214844 538.960938 225.355469 C 539.394531 225.496094 539.796875 225.703125 540.160156 225.980469 C 540.527344 226.253906 540.835938 226.582031 541.085938 226.964844 C 541.339844 227.34375 541.523438 227.757812 541.636719 228.199219 C 541.953125 230.363281 539.929688 232.085938 538.066406 233.1875 C 536.710938 234.082031 535.234375 234.671875 533.636719 234.953125 C 532.832031 235.085938 532.046875 235.023438 531.277344 234.761719 C 530.507812 234.5 529.84375 234.070312 529.289062 233.476562 C 528.972656 234.859375 528.699219 236.25 528.445312 237.644531 C 528.90625 238.550781 529.265625 239.492188 529.519531 240.472656 C 528.765625 241.648438 528.09375 242.871094 527.503906 244.140625 C 527.480469 244.371094 527.449219 244.601562 527.425781 244.828125 C 529.324219 244.628906 531.160156 244.175781 532.933594 243.464844 C 533.273438 243.332031 533.597656 243.15625 533.9375 243.007812 L 540.164062 241.585938 C 544.171875 240.671875 548.269531 239.71875 551.777344 237.566406 C 555.285156 235.414062 558.164062 231.804688 558.335938 227.691406 C 560.574219 226.4375 562.5 224.8125 564.117188 222.820312 C 565.734375 220.828125 566.925781 218.609375 567.695312 216.160156 C 569.265625 210.644531 568.089844 204.679688 565.960938 199.351562 C 563.835938 194.023438 560.792969 189.113281 558.421875 183.886719 C 557.765625 185.640625 557.03125 187.683594 556.296875 189.726562 C 554.203125 187.535156 551.902344 185.582031 549.402344 183.871094 C 541.1875 178.667969 530.417969 179.464844 521.714844 175.128906 C 520.644531 177.382812 519.300781 179.246094 518.519531 181.335938 C 518.15625 182.371094 517.929688 183.433594 517.839844 184.527344 C 517.753906 185.617188 517.800781 186.703125 517.992188 187.78125 C 518.179688 188.859375 518.503906 189.898438 518.960938 190.894531 C 519.417969 191.890625 519.992188 192.8125 520.683594 193.660156 C 521.886719 192.902344 523.125 192.214844 524.398438 191.59375 C 529.246094 195.121094 534.199219 198.507812 539.257812 201.753906 Z M 468.539062 230.875 C 468.355469 230.832031 468.167969 230.828125 467.980469 230.859375 C 467.792969 230.894531 467.617188 230.960938 467.457031 231.0625 C 467.296875 231.164062 467.160156 231.292969 467.054688 231.453125 C 466.945312 231.609375 466.871094 231.78125 466.832031 231.964844 C 464.28125 243.359375 459.734375 253.894531 453.195312 263.566406 C 453.085938 263.726562 453.015625 263.898438 452.976562 264.082031 C 452.9375 264.269531 452.9375 264.457031 452.972656 264.640625 C 453.007812 264.828125 453.078125 265 453.183594 265.160156 C 453.285156 265.320312 453.417969 265.453125 453.574219 265.558594 C 453.730469 265.664062 453.902344 265.738281 454.089844 265.777344 C 454.277344 265.816406 454.464844 265.816406 454.648438 265.78125 C 454.835938 265.746094 455.007812 265.675781 455.167969 265.570312 C 455.328125 265.464844 455.460938 265.335938 455.566406 265.179688 C 462.3125 255.199219 467 244.335938 469.628906 232.582031 C 469.667969 232.398438 469.671875 232.210938 469.640625 232.023438 C 469.605469 231.835938 469.539062 231.664062 469.4375 231.503906 C 469.335938 231.34375 469.207031 231.210938 469.050781 231.101562 C 468.894531 230.992188 468.726562 230.917969 468.539062 230.875 Z M 526.222656 321.152344 C 526.183594 321.339844 526.179688 321.527344 526.214844 321.710938 C 526.25 321.898438 526.320312 322.070312 526.425781 322.230469 C 526.527344 322.390625 526.660156 322.523438 526.816406 322.628906 C 526.972656 322.738281 527.144531 322.8125 527.328125 322.851562 C 527.515625 322.890625 527.703125 322.890625 527.890625 322.855469 C 528.074219 322.820312 528.25 322.75 528.410156 322.648438 C 528.566406 322.542969 528.699219 322.414062 528.808594 322.253906 C 528.914062 322.097656 528.988281 321.925781 529.027344 321.742188 C 529.722656 318.5 530.703125 315.34375 531.957031 312.273438 C 533.214844 309.203125 534.730469 306.265625 536.507812 303.464844 C 538.285156 300.664062 540.292969 298.042969 542.535156 295.597656 C 544.777344 293.152344 547.214844 290.921875 549.851562 288.910156 C 550.007812 288.796875 550.136719 288.65625 550.234375 288.492188 C 550.335938 288.328125 550.398438 288.152344 550.429688 287.960938 C 550.457031 287.769531 550.445312 287.582031 550.398438 287.394531 C 550.351562 287.210938 550.269531 287.039062 550.152344 286.886719 C 550.039062 286.730469 549.898438 286.605469 549.730469 286.511719 C 549.566406 286.414062 549.386719 286.351562 549.195312 286.328125 C 549.003906 286.304688 548.816406 286.316406 548.628906 286.367188 C 548.445312 286.417969 548.277344 286.503906 548.125 286.621094 C 545.351562 288.738281 542.785156 291.082031 540.429688 293.65625 C 538.070312 296.226562 535.957031 298.984375 534.089844 301.933594 C 532.21875 304.878906 530.625 307.964844 529.304688 311.195312 C 527.980469 314.421875 526.953125 317.742188 526.222656 321.152344 Z M 526.796875 206.039062 C 526.957031 206.136719 527.128906 206.203125 527.3125 206.234375 C 527.496094 206.269531 527.679688 206.265625 527.859375 206.226562 C 528.042969 206.1875 528.210938 206.113281 528.367188 206.011719 C 528.519531 205.90625 528.652344 205.777344 528.753906 205.621094 C 528.859375 205.464844 528.929688 205.296875 528.964844 205.113281 C 529.003906 204.929688 529.007812 204.746094 528.972656 204.5625 C 528.9375 204.378906 528.871094 204.210938 528.769531 204.050781 C 528.671875 203.894531 528.542969 203.761719 528.390625 203.652344 C 525.28125 201.574219 522.289062 199.339844 519.417969 196.945312 C 519.269531 196.835938 519.109375 196.757812 518.929688 196.710938 C 518.753906 196.660156 518.574219 196.648438 518.394531 196.671875 C 518.210938 196.691406 518.039062 196.746094 517.878906 196.832031 C 517.71875 196.921875 517.578125 197.035156 517.460938 197.175781 C 517.34375 197.316406 517.253906 197.472656 517.199219 197.644531 C 517.140625 197.820312 517.117188 198 517.128906 198.179688 C 517.140625 198.363281 517.183594 198.539062 517.261719 198.703125 C 517.339844 198.871094 517.445312 199.015625 517.578125 199.140625 C 520.53125 201.601562 523.601562 203.902344 526.796875 206.039062 Z M 518.203125 211.328125 C 518.300781 211.347656 518.398438 211.359375 518.5 211.359375 C 518.679688 211.363281 518.855469 211.335938 519.023438 211.273438 C 519.195312 211.210938 519.347656 211.121094 519.480469 211.003906 C 519.617188 210.882812 519.726562 210.742188 519.808594 210.582031 C 519.890625 210.421875 519.941406 210.253906 519.960938 210.074219 C 519.980469 209.894531 519.964844 209.714844 519.917969 209.542969 C 519.867188 209.367188 519.789062 209.210938 519.679688 209.066406 C 519.570312 208.921875 519.441406 208.800781 519.285156 208.707031 C 519.132812 208.613281 518.96875 208.546875 518.789062 208.515625 C 517.660156 208.265625 516.65625 207.769531 515.769531 207.027344 C 514.886719 206.28125 514.222656 205.375 513.78125 204.308594 C 513.710938 204.132812 513.609375 203.976562 513.476562 203.839844 C 513.34375 203.703125 513.1875 203.597656 513.015625 203.523438 C 512.839844 203.449219 512.65625 203.410156 512.46875 203.40625 C 512.277344 203.402344 512.09375 203.4375 511.917969 203.507812 C 511.742188 203.578125 511.585938 203.679688 511.449219 203.8125 C 511.3125 203.945312 511.207031 204.097656 511.128906 204.273438 C 511.054688 204.449219 511.015625 204.628906 511.015625 204.820312 C 511.011719 205.011719 511.046875 205.195312 511.117188 205.371094 C 511.417969 206.117188 511.808594 206.820312 512.28125 207.472656 C 512.753906 208.125 513.300781 208.710938 513.917969 209.230469 C 514.535156 209.75 515.207031 210.1875 515.933594 210.542969 C 516.65625 210.898438 517.414062 211.160156 518.203125 211.328125 Z M 484.832031 438.570312 C 484.742188 438.601562 484.648438 438.625 484.554688 438.640625 C 484.472656 438.667969 484.394531 438.6875 484.3125 438.699219 L 484.25 438.699219 C 484.066406 438.699219 483.886719 438.664062 483.714844 438.597656 C 483.542969 438.527344 483.390625 438.429688 483.257812 438.300781 C 483.125 438.171875 483.019531 438.023438 482.945312 437.855469 C 482.867188 437.6875 482.828125 437.511719 482.816406 437.328125 C 482.65625 433.511719 482.644531 429.691406 482.777344 425.859375 C 481.5625 425.289062 480.386719 424.644531 479.253906 423.921875 C 478.441406 423.472656 477.820312 422.835938 477.382812 422.019531 C 477.109375 421.335938 476.996094 420.628906 477.042969 419.898438 C 477.066406 417.941406 477.105469 415.972656 477.164062 414.003906 C 464.695312 412.546875 452.390625 410.230469 440.25 407.046875 C 438.664062 406.621094 437.082031 406.191406 435.542969 405.734375 C 437.242188 394.8125 438.648438 382.011719 439.960938 368.625 C 446.269531 373.855469 452.992188 378.484375 460.128906 382.507812 C 467.433594 357.003906 475.867188 331.855469 485.421875 307.066406 C 485.441406 307.101562 485.457031 307.132812 485.476562 307.167969 C 485.492188 307.039062 485.511719 306.910156 485.53125 306.78125 C 485.644531 306.488281 485.753906 306.191406 485.867188 305.898438 L 485.8125 304.773438 C 487.671875 291.191406 490.257812 277.746094 493.566406 264.441406 C 499.410156 265.3125 505.296875 265.894531 511.171875 266.25 C 508.304688 269.542969 505.722656 273.050781 503.429688 276.765625 C 501.132812 280.480469 499.15625 284.355469 497.496094 288.394531 C 495.835938 292.433594 494.511719 296.578125 493.53125 300.835938 C 492.546875 305.089844 491.914062 309.394531 491.636719 313.75 C 491.964844 313.382812 492.316406 313.03125 492.652344 312.667969 C 487.570312 336.515625 485.140625 360.632812 485.363281 385.015625 C 487.433594 385.285156 490.535156 383.917969 493.808594 383.105469 C 497.523438 382.3125 501.277344 381.878906 505.078125 381.816406 L 528.429688 380.660156 C 530.035156 392.652344 533.265625 404.191406 538.125 415.273438 C 535.25 415.542969 532.285156 415.742188 529.289062 415.90625 C 514.976562 416.636719 500.6875 416.335938 486.417969 415.003906 C 485.621094 422.386719 485.378906 429.785156 485.683594 437.203125 C 485.695312 437.5 485.625 437.769531 485.46875 438.019531 C 485.316406 438.269531 485.101562 438.453125 484.832031 438.570312 Z M 482.910156 422.734375 C 483.054688 420.054688 483.273438 417.386719 483.566406 414.722656 C 482.386719 414.605469 481.203125 414.492188 480.027344 414.359375 C 479.972656 416.222656 479.929688 418.085938 479.910156 419.9375 C 479.886719 420.242188 479.914062 420.539062 479.988281 420.835938 C 480.210938 421.121094 480.480469 421.351562 480.796875 421.523438 C 481.484375 421.953125 482.191406 422.355469 482.910156 422.734375 Z M 482.910156 422.734375 " fill-opacity="1" fill-rule="nonzero"/></g></svg>