<svg xmlns="http://www.w3.org/2000/svg" xmlns:xlink="http://www.w3.org/1999/xlink" width="1080" zoomAndPan="magnify" viewBox="0 0 810 1439.999935" height="1920" preserveAspectRatio="xMidYMid meet" version="1.0"><defs><clipPath id="7e379fdb51"><path d="M 243 558 L 567 558 L 567 882 L 243 882 Z M 243 558 " clip-rule="nonzero"/></clipPath></defs><g clip-path="url(#7e379fdb51)"><path fill="#ff99c8" d="M 428 574.722656 L 455.046875 565.9375 L 471.765625 588.941406 L 500.203125 588.941406 L 509 615.996094 L 536.046875 624.78125 L 536.046875 653.21875 L 559.0625 669.941406 L 550.265625 696.996094 L 566.984375 720 L 550.265625 743.003906 L 559.0625 770.0625 L 536.046875 786.78125 L 536.046875 815.21875 L 509 824.003906 L 500.203125 851.0625 L 471.765625 851.0625 L 455.046875 874.066406 L 428 865.28125 L 404.996094 881.988281 L 381.980469 865.28125 L 354.9375 874.066406 L 338.214844 851.0625 L 309.777344 851.0625 L 300.980469 824.003906 L 273.9375 815.21875 L 273.9375 786.78125 L 250.921875 770.0625 L 259.714844 743.003906 L 242.996094 720 L 259.714844 696.996094 L 250.921875 669.941406 L 273.9375 653.21875 L 273.9375 624.78125 L 300.980469 615.996094 L 309.777344 588.941406 L 338.214844 588.941406 L 354.9375 565.9375 L 381.980469 574.722656 L 404.996094 558.011719 Z M 428 574.722656 " fill-opacity="1" fill-rule="evenodd"/></g><path fill="#ffffff" d="M 327.234375 703.394531 C 320.738281 709.261719 320.238281 719.277344 326.097656 725.761719 C 338.105469 739.054688 357.488281 760.519531 368.996094 773.261719 C 374.230469 779.054688 383.167969 779.511719 388.949219 774.289062 C 410.578125 754.753906 460.011719 710.105469 482.683594 689.628906 C 489.171875 683.769531 489.679688 673.746094 483.820312 667.257812 C 477.964844 660.769531 467.941406 660.261719 461.453125 666.121094 L 391.226562 729.546875 C 385.433594 734.78125 376.496094 734.328125 371.273438 728.542969 C 364.816406 721.394531 356.277344 711.941406 349.59375 704.539062 C 343.734375 698.054688 333.722656 697.535156 327.234375 703.394531 Z M 327.234375 703.394531 " fill-opacity="1" fill-rule="evenodd"/></svg>