<svg xmlns="http://www.w3.org/2000/svg" xmlns:xlink="http://www.w3.org/1999/xlink" width="1080" zoomAndPan="magnify" viewBox="0 0 810 1439.999935" height="1920" preserveAspectRatio="xMidYMid meet" version="1.0"><defs><clipPath id="0876ebd96b"><path d="M 300 560.53125 L 498 560.53125 L 498 852 L 300 852 Z M 300 560.53125 " clip-rule="nonzero"/></clipPath><clipPath id="72a979b0c5"><path d="M 300 560.53125 L 350 560.53125 L 350 610 L 300 610 Z M 300 560.53125 " clip-rule="nonzero"/></clipPath><clipPath id="b09bb72817"><path d="M 300 560.53125 L 350 560.53125 L 350 610 L 300 610 Z M 300 560.53125 " clip-rule="nonzero"/></clipPath><clipPath id="bbf8314093"><path d="M 243 876.113281 L 313.078125 876.113281 L 313.078125 879.238281 L 243 879.238281 Z M 243 876.113281 " clip-rule="nonzero"/></clipPath><clipPath id="f0645df57d"><path d="M 529.292969 689.234375 L 563.148438 689.234375 L 563.148438 760.808594 L 529.292969 760.808594 Z M 529.292969 689.234375 " clip-rule="nonzero"/></clipPath></defs><path fill="#5cbec6" d="M 519.96875 850.054688 C 519.96875 852.5625 464.226562 854.59375 395.460938 854.59375 C 326.695312 854.59375 270.949219 852.5625 270.949219 850.054688 C 270.949219 847.546875 326.695312 845.515625 395.460938 845.515625 C 464.226562 845.515625 519.96875 847.546875 519.96875 850.054688 " fill-opacity="1" fill-rule="nonzero"/><g clip-path="url(#0876ebd96b)"><path fill="#ffd45c" d="M 349.53125 560.605469 L 333.675781 570.265625 L 305.386719 599.527344 L 300.8125 609.296875 L 300.8125 851.4375 L 497.449219 851.4375 L 497.449219 560.605469 L 349.53125 560.605469 " fill-opacity="1" fill-rule="nonzero"/></g><path fill="#f4b442" d="M 459.582031 796.894531 L 425.714844 796.894531 L 425.714844 790.875 L 459.582031 790.875 L 459.582031 796.894531 " fill-opacity="1" fill-rule="nonzero"/><path fill="#ffffff" d="M 329.03125 637.773438 L 330.671875 637.773438 C 332.789062 637.773438 333.617188 636.863281 333.617188 634.886719 C 333.617188 633.203125 332.8125 632.230469 331.019531 632.230469 L 329.03125 632.230469 Z M 329.03125 640.605469 L 329.03125 648.941406 L 325.546875 648.941406 L 325.546875 629.394531 L 331.539062 629.394531 C 335.09375 629.394531 337.109375 631.246094 337.109375 634.734375 C 337.109375 637.5625 335.59375 638.78125 334.574219 639.1875 C 336.085938 639.894531 336.804688 641.179688 336.804688 644.066406 L 336.804688 644.847656 C 336.804688 647.070312 336.910156 647.898438 337.070312 648.941406 L 333.679688 648.941406 C 333.394531 648.046875 333.34375 646.5 333.34375 644.816406 L 333.34375 644.105469 C 333.34375 641.492188 332.742188 640.605469 330.53125 640.605469 L 329.03125 640.605469 " fill-opacity="1" fill-rule="nonzero"/><path fill="#ffffff" d="M 349.5 640.253906 L 343.222656 640.253906 L 343.222656 645.933594 L 350.269531 645.933594 L 349.839844 648.941406 L 339.765625 648.941406 L 339.765625 629.394531 L 349.796875 629.394531 L 349.796875 632.457031 L 343.222656 632.457031 L 343.222656 637.214844 L 349.5 637.214844 L 349.5 640.253906 " fill-opacity="1" fill-rule="nonzero"/><path fill="#ffffff" d="M 364.210938 648.941406 L 361.542969 648.941406 C 361.457031 648.347656 361.398438 647.910156 361.375 647.28125 C 360.5 648.828125 359.140625 649.28125 357.488281 649.28125 C 353.40625 649.28125 351.925781 645.644531 351.925781 639.289062 C 351.925781 632.152344 354.335938 629.082031 358.539062 629.082031 C 363.839844 629.082031 364.132812 633.621094 364.1875 634.78125 L 360.726562 634.78125 C 360.667969 633.996094 360.5 632.046875 358.433594 632.046875 C 356.175781 632.046875 355.546875 635.050781 355.546875 639.28125 C 355.546875 643.84375 356.082031 646.34375 358.316406 646.34375 C 360.171875 646.34375 360.730469 644.921875 360.730469 642.039062 L 360.730469 640.945312 L 358.097656 640.945312 L 358.097656 637.957031 L 364.210938 637.957031 C 364.210938 637.957031 364.210938 648.941406 364.210938 648.941406 " fill-opacity="1" fill-rule="nonzero"/><path fill="#ffffff" d="M 370.761719 629.394531 L 370.761719 648.941406 L 367.253906 648.941406 L 367.253906 629.394531 L 370.761719 629.394531 " fill-opacity="1" fill-rule="nonzero"/><path fill="#ffffff" d="M 376.546875 643.46875 C 376.714844 645.089844 377.367188 646.519531 379.15625 646.519531 C 380.878906 646.519531 381.519531 645.441406 381.519531 643.984375 C 381.519531 642.378906 380.726562 641.445312 378.253906 640.265625 C 374.90625 638.675781 373.59375 637.269531 373.59375 634.363281 C 373.59375 631.226562 375.609375 629.085938 379.148438 629.085938 C 383.546875 629.085938 384.632812 632.0625 384.691406 634.605469 L 381.257812 634.605469 C 381.148438 633.488281 380.859375 631.84375 379.085938 631.84375 C 377.699219 631.84375 377.082031 632.746094 377.082031 634.070312 C 377.082031 635.476562 377.707031 636.136719 380 637.203125 C 383.511719 638.820312 385.085938 640.398438 385.085938 643.667969 C 385.085938 646.738281 383.183594 649.277344 379.050781 649.277344 C 374.554688 649.277344 373.183594 646.398438 373.058594 643.46875 L 376.546875 643.46875 " fill-opacity="1" fill-rule="nonzero"/><path fill="#ffffff" d="M 390.261719 632.457031 L 386.082031 632.457031 L 386.082031 629.394531 L 397.949219 629.394531 L 397.949219 632.457031 L 393.769531 632.457031 L 393.769531 648.941406 L 390.261719 648.941406 L 390.261719 632.457031 " fill-opacity="1" fill-rule="nonzero"/><path fill="#ffffff" d="M 403.324219 637.773438 L 404.964844 637.773438 C 407.082031 637.773438 407.90625 636.863281 407.90625 634.886719 C 407.90625 633.203125 407.101562 632.230469 405.3125 632.230469 L 403.324219 632.230469 Z M 403.324219 640.605469 L 403.324219 648.941406 L 399.839844 648.941406 L 399.839844 629.394531 L 405.828125 629.394531 C 409.382812 629.394531 411.402344 631.246094 411.402344 634.734375 C 411.402344 637.5625 409.886719 638.78125 408.863281 639.1875 C 410.378906 639.894531 411.097656 641.179688 411.097656 644.066406 L 411.097656 644.847656 C 411.097656 647.070312 411.203125 647.898438 411.359375 648.941406 L 407.972656 648.941406 C 407.6875 648.046875 407.636719 646.5 407.636719 644.816406 L 407.636719 644.105469 C 407.636719 641.492188 407.035156 640.605469 404.824219 640.605469 L 403.324219 640.605469 " fill-opacity="1" fill-rule="nonzero"/><path fill="#ffffff" d="M 421.167969 640.984375 C 420.441406 637.242188 419.855469 634.507812 419.550781 632.640625 L 419.464844 632.640625 C 419.226562 634.441406 418.605469 637.378906 417.886719 640.984375 Z M 417.265625 644.023438 L 416.296875 648.941406 L 412.789062 648.941406 L 417.316406 629.394531 L 421.863281 629.394531 L 426.445312 648.941406 L 422.765625 648.941406 L 421.792969 644.023438 L 417.265625 644.023438 " fill-opacity="1" fill-rule="nonzero"/><path fill="#ffffff" d="M 429.335938 632.457031 L 425.15625 632.457031 L 425.15625 629.394531 L 437.023438 629.394531 L 437.023438 632.457031 L 432.84375 632.457031 L 432.84375 648.941406 L 429.335938 648.941406 L 429.335938 632.457031 " fill-opacity="1" fill-rule="nonzero"/><path fill="#ffffff" d="M 442.421875 629.394531 L 442.421875 648.941406 L 438.914062 648.941406 L 438.914062 629.394531 L 442.421875 629.394531 " fill-opacity="1" fill-rule="nonzero"/><path fill="#ffffff" d="M 448.8125 638.945312 C 448.8125 643.585938 449.519531 646.34375 451.570312 646.34375 C 453.730469 646.34375 454.347656 643.789062 454.347656 638.953125 C 454.347656 634.410156 453.691406 632.046875 451.566406 632.046875 C 449.472656 632.046875 448.8125 634.589844 448.8125 638.945312 Z M 457.941406 639.019531 C 457.941406 646.167969 455.996094 649.28125 451.488281 649.28125 C 447.277344 649.28125 445.222656 646.214844 445.222656 638.980469 C 445.222656 631.925781 447.613281 629.082031 451.648438 629.082031 C 455.910156 629.082031 457.941406 632.230469 457.941406 639.019531 " fill-opacity="1" fill-rule="nonzero"/><path fill="#ffffff" d="M 460.691406 648.941406 L 460.691406 629.394531 L 464.667969 629.394531 C 468.710938 640.199219 469.492188 642.257812 469.726562 643.21875 L 469.753906 643.21875 C 469.585938 640.867188 469.578125 637.992188 469.578125 634.789062 L 469.578125 629.394531 L 472.710938 629.394531 L 472.710938 648.941406 L 468.894531 648.941406 C 464.71875 637.425781 463.976562 635.351562 463.722656 634.453125 L 463.695312 634.453125 C 463.839844 636.859375 463.839844 639.738281 463.839844 643.242188 L 463.839844 648.941406 L 460.691406 648.941406 " fill-opacity="1" fill-rule="nonzero"/><path fill="#f4b442" d="M 422.601562 679.09375 L 331.742188 679.09375 L 331.742188 672.179688 L 422.601562 672.179688 L 422.601562 679.09375 " fill-opacity="1" fill-rule="nonzero"/><path fill="#f4b442" d="M 462.9375 679.09375 L 427.496094 679.09375 L 427.496094 672.179688 L 462.9375 672.179688 L 462.9375 679.09375 " fill-opacity="1" fill-rule="nonzero"/><path fill="#f4b442" d="M 438.839844 706.246094 L 331.742188 706.246094 L 331.742188 699.332031 L 438.839844 699.332031 L 438.839844 706.246094 " fill-opacity="1" fill-rule="nonzero"/><path fill="#f4b442" d="M 462.9375 706.246094 L 443.863281 706.246094 L 443.863281 699.332031 L 462.9375 699.332031 L 462.9375 706.246094 " fill-opacity="1" fill-rule="nonzero"/><path fill="#f4b442" d="M 399.128906 692.617188 L 331.742188 692.617188 L 331.742188 685.703125 L 399.128906 685.703125 L 399.128906 692.617188 " fill-opacity="1" fill-rule="nonzero"/><path fill="#f4b442" d="M 462.9375 692.617188 L 405.203125 692.617188 L 405.203125 685.703125 L 462.9375 685.703125 L 462.9375 692.617188 " fill-opacity="1" fill-rule="nonzero"/><path fill="#54678c" d="M 442.648438 772.890625 C 429.59375 772.890625 418.972656 762.273438 418.972656 749.230469 C 418.972656 736.183594 429.59375 725.570312 442.648438 725.570312 C 455.703125 725.570312 466.320312 736.183594 466.320312 749.230469 C 466.320312 762.273438 455.703125 772.890625 442.648438 772.890625 " fill-opacity="1" fill-rule="nonzero"/><path fill="#54678c" d="M 437.042969 776.359375 C 437.222656 776.359375 437.398438 776.402344 437.554688 776.496094 L 442.648438 779.445312 L 447.742188 776.496094 C 447.9375 776.382812 448.164062 776.335938 448.386719 776.367188 L 454.21875 777.152344 L 457.789062 772.472656 C 457.925781 772.292969 458.117188 772.164062 458.335938 772.105469 L 464.027344 770.59375 L 465.539062 764.90625 C 465.59375 764.691406 465.726562 764.496094 465.902344 764.363281 L 470.589844 760.796875 L 469.800781 754.964844 C 469.769531 754.742188 469.816406 754.515625 469.929688 754.320312 L 472.882812 749.230469 L 469.929688 744.136719 C 469.816406 743.945312 469.769531 743.71875 469.800781 743.496094 L 470.589844 737.664062 L 465.902344 734.097656 C 465.726562 733.960938 465.59375 733.769531 465.539062 733.550781 L 464.027344 727.863281 L 458.335938 726.351562 C 458.117188 726.292969 457.925781 726.164062 457.789062 725.988281 L 454.21875 721.304688 L 448.386719 722.09375 C 448.164062 722.121094 447.9375 722.078125 447.742188 721.964844 L 442.648438 719.011719 L 437.554688 721.964844 C 437.359375 722.078125 437.132812 722.121094 436.910156 722.09375 L 431.074219 721.304688 L 427.507812 725.988281 C 427.371094 726.164062 427.179688 726.292969 426.960938 726.351562 L 421.269531 727.863281 L 419.757812 733.550781 C 419.699219 733.769531 419.570312 733.960938 419.390625 734.097656 L 414.707031 737.664062 L 415.496094 743.496094 C 415.523438 743.71875 415.480469 743.945312 415.367188 744.136719 L 412.414062 749.230469 L 415.367188 754.320312 C 415.480469 754.515625 415.523438 754.742188 415.496094 754.964844 L 414.707031 760.796875 L 419.390625 764.363281 C 419.570312 764.496094 419.699219 764.691406 419.757812 764.90625 L 421.269531 770.59375 L 426.960938 772.105469 C 427.179688 772.164062 427.371094 772.292969 427.507812 772.472656 L 431.074219 777.152344 L 436.910156 776.367188 C 436.953125 776.359375 437 776.359375 437.042969 776.359375 Z M 442.648438 781.628906 C 442.472656 781.628906 442.296875 781.585938 442.140625 781.496094 L 436.835938 778.421875 L 430.761719 779.238281 C 430.402344 779.289062 430.039062 779.140625 429.820312 778.847656 L 426.105469 773.976562 L 420.179688 772.402344 C 419.828125 772.308594 419.554688 772.035156 419.460938 771.683594 L 417.886719 765.761719 L 413.011719 762.050781 C 412.722656 761.828125 412.570312 761.46875 412.621094 761.109375 L 413.4375 755.039062 L 410.363281 749.738281 C 410.183594 749.421875 410.183594 749.035156 410.363281 748.722656 L 413.4375 743.421875 L 412.621094 737.351562 C 412.570312 736.988281 412.722656 736.628906 413.011719 736.410156 L 417.886719 732.695312 L 419.460938 726.773438 C 419.554688 726.421875 419.828125 726.148438 420.179688 726.054688 L 426.105469 724.484375 L 429.820312 719.609375 C 430.039062 719.320312 430.402344 719.171875 430.761719 719.21875 L 436.835938 720.039062 L 442.140625 716.964844 C 442.453125 716.785156 442.84375 716.785156 443.15625 716.964844 L 448.457031 720.039062 L 454.535156 719.21875 C 454.894531 719.171875 455.253906 719.320312 455.476562 719.609375 L 459.191406 724.484375 L 465.117188 726.054688 C 465.46875 726.148438 465.742188 726.421875 465.835938 726.773438 L 467.410156 732.695312 L 472.285156 736.410156 C 472.574219 736.628906 472.722656 736.988281 472.675781 737.351562 L 471.855469 743.421875 L 474.929688 748.722656 C 475.113281 749.035156 475.113281 749.421875 474.929688 749.738281 L 471.855469 755.039062 L 472.675781 761.109375 C 472.722656 761.46875 472.574219 761.828125 472.285156 762.050781 L 467.410156 765.761719 L 465.835938 771.683594 C 465.742188 772.035156 465.46875 772.308594 465.117188 772.402344 L 459.191406 773.976562 L 455.476562 778.847656 C 455.253906 779.140625 454.894531 779.289062 454.535156 779.238281 L 448.457031 778.421875 L 443.15625 781.496094 C 443 781.585938 442.824219 781.628906 442.648438 781.628906 " fill-opacity="1" fill-rule="nonzero"/><path fill="#ffd45c" d="M 443.953125 734.863281 C 443.691406 734.839844 443.496094 734.605469 443.515625 734.339844 C 443.542969 734.074219 443.777344 733.882812 444.039062 733.902344 C 444.308594 733.929688 444.5 734.160156 444.476562 734.425781 C 444.457031 734.675781 444.246094 734.867188 443.996094 734.867188 C 443.984375 734.867188 443.96875 734.863281 443.953125 734.863281 Z M 440.765625 734.433594 C 440.742188 734.167969 440.9375 733.933594 441.203125 733.910156 C 441.464844 733.882812 441.703125 734.078125 441.726562 734.34375 C 441.75 734.609375 441.558594 734.84375 441.289062 734.867188 C 441.273438 734.871094 441.261719 734.871094 441.246094 734.871094 C 441 734.871094 440.789062 734.683594 440.765625 734.433594 Z M 446.574219 735.34375 C 446.316406 735.273438 446.167969 735.007812 446.238281 734.75 C 446.3125 734.496094 446.578125 734.34375 446.835938 734.417969 C 447.089844 734.492188 447.238281 734.757812 447.167969 735.011719 C 447.109375 735.226562 446.914062 735.363281 446.703125 735.363281 C 446.660156 735.363281 446.617188 735.355469 446.574219 735.34375 Z M 438.078125 735.027344 C 438.003906 734.773438 438.152344 734.503906 438.410156 734.433594 C 438.667969 734.359375 438.933594 734.507812 439.003906 734.761719 C 439.078125 735.019531 438.929688 735.285156 438.675781 735.359375 C 438.628906 735.371094 438.585938 735.378906 438.542969 735.378906 C 438.332031 735.378906 438.136719 735.238281 438.078125 735.027344 Z M 449.054688 736.300781 C 448.820312 736.183594 448.722656 735.894531 448.839844 735.65625 C 448.957031 735.417969 449.246094 735.320312 449.484375 735.4375 C 449.722656 735.558594 449.820312 735.847656 449.703125 736.085938 C 449.621094 736.253906 449.449219 736.351562 449.269531 736.351562 C 449.199219 736.351562 449.125 736.335938 449.054688 736.300781 Z M 435.546875 736.109375 C 435.429688 735.871094 435.523438 735.582031 435.761719 735.464844 C 436 735.34375 436.289062 735.4375 436.410156 735.679688 C 436.527344 735.914062 436.433594 736.203125 436.195312 736.324219 C 436.125 736.359375 436.050781 736.375 435.980469 736.375 C 435.800781 736.375 435.632812 736.277344 435.546875 736.109375 Z M 451.320312 737.699219 C 451.109375 737.539062 451.066406 737.238281 451.226562 737.027344 C 451.386719 736.8125 451.6875 736.773438 451.902344 736.933594 C 452.113281 737.089844 452.15625 737.394531 451.996094 737.605469 C 451.902344 737.730469 451.757812 737.796875 451.613281 737.796875 C 451.511719 737.796875 451.410156 737.765625 451.320312 737.699219 Z M 433.257812 737.636719 C 433.097656 737.425781 433.140625 737.125 433.351562 736.960938 C 433.5625 736.800781 433.867188 736.84375 434.027344 737.054688 C 434.1875 737.269531 434.144531 737.570312 433.933594 737.730469 C 433.847656 737.796875 433.742188 737.828125 433.644531 737.828125 C 433.496094 737.828125 433.351562 737.761719 433.257812 737.636719 Z M 453.292969 739.492188 C 453.113281 739.292969 453.128906 738.992188 453.324219 738.8125 C 453.519531 738.632812 453.824219 738.644531 454.003906 738.839844 C 454.183594 739.035156 454.171875 739.339844 453.972656 739.519531 C 453.882812 739.605469 453.765625 739.644531 453.648438 739.644531 C 453.519531 739.644531 453.390625 739.59375 453.292969 739.492188 Z M 431.289062 739.558594 C 431.089844 739.378906 431.074219 739.074219 431.253906 738.878906 C 431.433594 738.679688 431.738281 738.667969 431.9375 738.847656 C 432.132812 739.023438 432.148438 739.332031 431.96875 739.527344 C 431.875 739.632812 431.742188 739.683594 431.613281 739.683594 C 431.496094 739.683594 431.378906 739.644531 431.289062 739.558594 Z M 454.902344 741.609375 C 454.765625 741.386719 454.832031 741.089844 455.058594 740.949219 C 455.285156 740.804688 455.582031 740.875 455.722656 741.101562 C 455.863281 741.328125 455.792969 741.621094 455.570312 741.765625 C 455.488281 741.8125 455.402344 741.839844 455.316406 741.839844 C 455.152344 741.839844 454.996094 741.757812 454.902344 741.609375 Z M 429.703125 741.808594 C 429.472656 741.667969 429.402344 741.371094 429.542969 741.144531 C 429.6875 740.917969 429.980469 740.851562 430.207031 740.988281 C 430.433594 741.128906 430.503906 741.425781 430.363281 741.652344 C 430.273438 741.800781 430.113281 741.882812 429.953125 741.882812 C 429.867188 741.882812 429.78125 741.855469 429.703125 741.808594 Z M 456.097656 743.988281 C 456 743.742188 456.125 743.460938 456.371094 743.363281 C 456.621094 743.265625 456.898438 743.390625 456.996094 743.636719 C 457.09375 743.886719 456.96875 744.164062 456.722656 744.261719 C 456.664062 744.285156 456.605469 744.292969 456.546875 744.292969 C 456.355469 744.292969 456.171875 744.179688 456.097656 743.988281 Z M 428.558594 744.3125 C 428.308594 744.214844 428.183594 743.933594 428.28125 743.6875 C 428.375 743.441406 428.65625 743.316406 428.902344 743.410156 C 429.152344 743.507812 429.277344 743.789062 429.179688 744.035156 C 429.105469 744.226562 428.925781 744.34375 428.730469 744.34375 C 428.671875 744.34375 428.613281 744.332031 428.558594 744.3125 Z M 456.832031 746.546875 C 456.78125 746.285156 456.953125 746.035156 457.214844 745.984375 C 457.476562 745.933594 457.726562 746.105469 457.777344 746.367188 C 457.828125 746.628906 457.652344 746.882812 457.390625 746.933594 C 457.363281 746.9375 457.332031 746.9375 457.304688 746.9375 C 457.078125 746.9375 456.871094 746.777344 456.832031 746.546875 Z M 427.894531 746.980469 C 427.632812 746.933594 427.460938 746.683594 427.507812 746.421875 C 427.554688 746.160156 427.808594 745.984375 428.070312 746.035156 C 428.332031 746.082031 428.503906 746.335938 428.457031 746.59375 C 428.414062 746.828125 428.210938 746.988281 427.984375 746.988281 C 427.953125 746.988281 427.925781 746.984375 427.894531 746.980469 Z M 457.078125 749.230469 C 457.078125 749.222656 457.078125 749.21875 457.078125 749.210938 C 457.078125 749.207031 457.078125 749.203125 457.078125 749.195312 C 457.078125 748.929688 457.296875 748.714844 457.558594 748.714844 C 457.828125 748.714844 458.042969 748.929688 458.042969 749.195312 C 458.042969 749.199219 458.042969 749.207031 458.042969 749.210938 C 458.042969 749.21875 458.042969 749.222656 458.042969 749.230469 C 458.042969 749.496094 457.828125 749.710938 457.5625 749.710938 C 457.296875 749.710938 457.078125 749.496094 457.078125 749.230469 Z M 427.25 749.246094 C 427.25 748.980469 427.464844 748.765625 427.734375 748.765625 C 428 748.765625 428.214844 748.980469 428.214844 749.246094 C 428.214844 749.511719 428 749.726562 427.734375 749.726562 C 427.46875 749.726562 427.25 749.511719 427.25 749.246094 Z M 457.222656 752.441406 C 456.960938 752.394531 456.789062 752.140625 456.835938 751.878906 C 456.886719 751.617188 457.136719 751.445312 457.398438 751.492188 C 457.660156 751.542969 457.832031 751.792969 457.785156 752.054688 C 457.742188 752.285156 457.539062 752.449219 457.3125 752.449219 C 457.28125 752.449219 457.253906 752.445312 457.222656 752.441406 Z M 427.515625 752.070312 C 427.464844 751.8125 427.636719 751.558594 427.898438 751.507812 C 428.160156 751.460938 428.414062 751.632812 428.460938 751.894531 C 428.511719 752.15625 428.335938 752.410156 428.074219 752.457031 C 428.046875 752.464844 428.015625 752.464844 427.988281 752.464844 C 427.761719 752.464844 427.558594 752.304688 427.515625 752.070312 Z M 456.386719 755.0625 C 456.136719 754.964844 456.015625 754.6875 456.109375 754.441406 C 456.207031 754.191406 456.484375 754.066406 456.734375 754.164062 C 456.980469 754.261719 457.105469 754.539062 457.007812 754.785156 C 456.933594 754.976562 456.75 755.09375 456.558594 755.09375 C 456.5 755.09375 456.441406 755.082031 456.386719 755.0625 Z M 428.292969 754.804688 C 428.195312 754.554688 428.320312 754.277344 428.570312 754.179688 C 428.8125 754.085938 429.09375 754.207031 429.191406 754.453125 C 429.289062 754.703125 429.164062 754.980469 428.917969 755.078125 C 428.859375 755.101562 428.800781 755.109375 428.742188 755.109375 C 428.550781 755.109375 428.367188 754.996094 428.292969 754.804688 Z M 455.078125 757.484375 C 454.851562 757.34375 454.78125 757.046875 454.921875 756.820312 C 455.0625 756.59375 455.359375 756.527344 455.585938 756.664062 C 455.8125 756.804688 455.882812 757.101562 455.742188 757.328125 C 455.648438 757.476562 455.492188 757.554688 455.332031 757.554688 C 455.246094 757.554688 455.15625 757.53125 455.078125 757.484375 Z M 429.5625 757.339844 C 429.421875 757.117188 429.492188 756.820312 429.71875 756.679688 C 429.945312 756.539062 430.242188 756.609375 430.382812 756.835938 C 430.523438 757.058594 430.453125 757.355469 430.226562 757.496094 C 430.148438 757.546875 430.058594 757.570312 429.972656 757.570312 C 429.8125 757.570312 429.652344 757.488281 429.5625 757.339844 Z M 453.347656 759.625 C 453.152344 759.445312 453.136719 759.140625 453.316406 758.945312 C 453.496094 758.746094 453.800781 758.734375 453.996094 758.910156 C 454.191406 759.089844 454.207031 759.398438 454.027344 759.59375 C 453.933594 759.695312 453.804688 759.75 453.671875 759.75 C 453.554688 759.75 453.4375 759.707031 453.347656 759.625 Z M 431.28125 759.605469 C 431.28125 759.605469 431.28125 759.605469 431.277344 759.605469 C 431.101562 759.410156 431.113281 759.101562 431.308594 758.921875 C 431.503906 758.746094 431.8125 758.757812 431.992188 758.953125 C 432.171875 759.152344 432.15625 759.457031 431.960938 759.636719 C 431.867188 759.71875 431.75 759.761719 431.632812 759.761719 C 431.503906 759.761719 431.375 759.707031 431.28125 759.605469 Z M 451.253906 761.414062 C 451.09375 761.199219 451.136719 760.898438 451.347656 760.738281 C 451.5625 760.578125 451.863281 760.621094 452.023438 760.832031 C 452.183594 761.042969 452.140625 761.347656 451.929688 761.503906 C 451.929688 761.503906 451.929688 761.503906 451.929688 761.507812 C 451.84375 761.570312 451.742188 761.601562 451.640625 761.601562 C 451.496094 761.601562 451.347656 761.539062 451.253906 761.414062 Z M 433.378906 761.515625 C 433.167969 761.355469 433.125 761.054688 433.285156 760.84375 C 433.445312 760.628906 433.746094 760.585938 433.960938 760.75 C 434.171875 760.90625 434.214844 761.210938 434.054688 761.421875 C 433.957031 761.546875 433.8125 761.613281 433.667969 761.613281 C 433.566406 761.613281 433.464844 761.582031 433.378906 761.515625 Z M 448.871094 762.789062 C 448.75 762.550781 448.847656 762.257812 449.085938 762.140625 C 449.324219 762.023438 449.613281 762.117188 449.734375 762.355469 C 449.851562 762.59375 449.753906 762.882812 449.515625 763.003906 C 449.449219 763.039062 449.375 763.054688 449.300781 763.054688 C 449.125 763.054688 448.953125 762.957031 448.871094 762.789062 Z M 435.792969 763.011719 C 435.554688 762.890625 435.457031 762.601562 435.578125 762.367188 C 435.695312 762.125 435.984375 762.027344 436.222656 762.148438 C 436.460938 762.269531 436.558594 762.558594 436.4375 762.792969 C 436.355469 762.964844 436.183594 763.0625 436.007812 763.0625 C 435.9375 763.0625 435.863281 763.046875 435.792969 763.011719 Z M 446.273438 763.699219 C 446.199219 763.445312 446.347656 763.175781 446.605469 763.105469 C 446.859375 763.03125 447.128906 763.179688 447.199219 763.4375 C 447.273438 763.691406 447.125 763.957031 446.871094 764.03125 C 446.824219 764.042969 446.78125 764.050781 446.734375 764.050781 C 446.527344 764.050781 446.332031 763.910156 446.273438 763.699219 Z M 438.445312 764.035156 C 438.1875 763.964844 438.039062 763.695312 438.113281 763.441406 C 438.183594 763.1875 438.453125 763.035156 438.707031 763.109375 C 438.960938 763.183594 439.109375 763.445312 439.039062 763.703125 C 438.980469 763.914062 438.785156 764.054688 438.574219 764.054688 C 438.53125 764.054688 438.488281 764.046875 438.445312 764.035156 Z M 443.550781 764.117188 C 443.527344 763.851562 443.722656 763.617188 443.988281 763.59375 C 444.253906 763.566406 444.488281 763.761719 444.511719 764.027344 C 444.535156 764.289062 444.339844 764.527344 444.078125 764.550781 C 444.058594 764.550781 444.046875 764.550781 444.03125 764.550781 C 443.785156 764.550781 443.574219 764.367188 443.550781 764.117188 Z M 441.238281 764.550781 C 440.972656 764.527344 440.777344 764.292969 440.800781 764.03125 C 440.824219 763.761719 441.058594 763.566406 441.324219 763.59375 C 441.589844 763.617188 441.785156 763.851562 441.761719 764.117188 C 441.738281 764.367188 441.527344 764.554688 441.28125 764.554688 C 441.265625 764.554688 441.253906 764.554688 441.238281 764.550781 " fill-opacity="1" fill-rule="nonzero"/><g clip-path="url(#72a979b0c5)"><path fill="#f4b442" d="M 300.8125 609.296875 C 300.8125 609.296875 307.769531 601.648438 322.851562 597.917969 C 327.078125 596.871094 334.320312 596.757812 340.246094 596.886719 C 340.246094 596.886719 340.257812 566.183594 349.53125 560.605469 C 349.53125 560.605469 336.386719 568.292969 325.171875 576.277344 C 313.957031 584.261719 301.714844 603.417969 300.8125 609.296875 " fill-opacity="1" fill-rule="nonzero"/></g><path fill="#ff5f4a" d="M 367.746094 749.144531 C 366.753906 750.644531 366.253906 751.394531 365.242188 752.890625 C 365.574219 754.652344 365.734375 755.53125 366.042969 757.292969 C 364.519531 758.296875 363.757812 758.800781 362.226562 759.804688 C 361.8125 761.566406 361.597656 762.449219 361.152344 764.210938 C 359.371094 764.570312 358.476562 764.75 356.695312 765.109375 C 355.613281 766.605469 355.0625 767.355469 353.957031 768.855469 C 352.21875 768.511719 351.351562 768.339844 349.613281 767.996094 C 348.046875 768.996094 347.261719 769.5 345.6875 770.5 C 344.269531 769.511719 343.558594 769.015625 342.132812 768.023438 C 340.34375 768.382812 339.449219 768.558594 337.664062 768.917969 C 336.773438 767.425781 336.320312 766.679688 335.410156 765.1875 C 333.667969 764.84375 332.792969 764.671875 331.050781 764.328125 C 330.792969 762.566406 330.65625 761.6875 330.367188 759.925781 C 328.90625 758.933594 328.171875 758.4375 326.703125 757.445312 C 327.101562 755.679688 327.289062 754.796875 327.660156 753.035156 C 326.675781 751.542969 326.179688 750.800781 325.175781 749.308594 C 326.167969 747.808594 326.660156 747.058594 327.632812 745.5625 C 327.253906 743.800781 327.058594 742.917969 326.65625 741.160156 C 328.121094 740.15625 328.851562 739.65625 330.308594 738.652344 C 330.597656 736.886719 330.734375 736.007812 331 734.242188 C 332.746094 733.882812 333.617188 733.707031 335.363281 733.347656 C 336.285156 731.851562 336.738281 731.101562 337.648438 729.601562 C 339.429688 729.945312 340.324219 730.117188 342.109375 730.460938 C 343.542969 729.460938 344.261719 728.960938 345.691406 727.957031 C 347.253906 728.949219 348.03125 729.441406 349.585938 730.433594 C 351.328125 730.078125 352.199219 729.898438 353.941406 729.539062 C 355.03125 731.03125 355.574219 731.777344 356.648438 733.265625 C 358.429688 733.613281 359.320312 733.785156 361.101562 734.128906 C 361.539062 735.890625 361.753906 736.769531 362.171875 738.527344 C 363.703125 739.519531 364.46875 740.015625 365.992188 741.007812 C 365.695312 742.773438 365.539062 743.652344 365.214844 745.417969 C 366.238281 746.90625 366.742188 747.652344 367.746094 749.144531 " fill-opacity="1" fill-rule="nonzero"/><path fill="#434a59" d="M 346.460938 787.820312 C 346.261719 787.933594 345.957031 788.148438 345.523438 788.546875 C 343.628906 790.292969 342.035156 793.542969 341.144531 796.605469 C 344.789062 793.03125 346.382812 789.109375 346.460938 787.820312 Z M 341.636719 805.378906 C 341.503906 805.378906 341.367188 805.371094 341.226562 805.359375 C 340.171875 805.269531 339.371094 804.578125 338.972656 803.417969 C 338.738281 802.722656 338.640625 801.863281 338.664062 800.898438 C 334.003906 804.085938 331.605469 803.050781 331.304688 802.898438 L 332.09375 801.355469 L 332.066406 801.34375 C 332.089844 801.351562 334.28125 802.214844 338.910156 798.5625 C 339.632812 794.484375 341.816406 789.601562 344.347656 787.269531 C 345.527344 786.1875 346.425781 785.789062 347.179688 786.027344 C 347.664062 786.179688 348.011719 786.589844 348.132812 787.148438 C 348.605469 789.316406 345.921875 794.648438 341.625 798.535156 C 341.242188 798.882812 340.875 799.203125 340.515625 799.5 C 340.324219 800.867188 340.34375 802.054688 340.613281 802.855469 C 340.867188 803.589844 341.222656 803.617188 341.375 803.632812 C 342.695312 803.75 343.214844 802.957031 344.015625 801.550781 C 344.835938 800.121094 345.855469 798.335938 348.414062 798.554688 C 350.492188 798.730469 352.019531 799.820312 353.367188 800.78125 C 354.84375 801.835938 356.007812 802.664062 357.585938 802.296875 C 357.695312 802.273438 358.296875 802.027344 359.742188 799.625 C 360.769531 797.914062 361.949219 795.585938 363.195312 793.125 C 367.09375 785.433594 371.511719 776.71875 376.152344 776.382812 C 377.519531 776.28125 378.273438 776.867188 378.664062 777.375 C 380.386719 779.628906 378.746094 784.863281 376.039062 792.59375 C 374.632812 796.613281 373.179688 800.773438 373.4375 802.324219 C 373.445312 802.390625 373.457031 802.449219 373.46875 802.503906 C 373.867188 802.085938 374.445312 801.304688 374.898438 800.691406 C 376.640625 798.320312 378.808594 795.375 381.363281 796.042969 C 385.453125 797.105469 388.558594 800.378906 388.691406 800.519531 C 389.015625 800.867188 389 801.414062 388.648438 801.742188 C 388.300781 802.070312 387.753906 802.054688 387.425781 801.703125 C 387.394531 801.671875 384.523438 798.65625 380.925781 797.71875 C 379.507812 797.351562 377.574219 799.976562 376.296875 801.714844 C 374.960938 803.53125 374.078125 804.730469 372.960938 804.460938 C 371.992188 804.226562 371.796875 803.050781 371.722656 802.605469 C 371.398438 800.617188 372.789062 796.632812 374.402344 792.019531 C 376.164062 786.992188 378.570312 780.105469 377.285156 778.429688 C 377.207031 778.328125 377.003906 778.058594 376.277344 778.113281 C 372.617188 778.375 368.066406 787.355469 364.742188 793.90625 C 361.53125 800.242188 359.773438 803.570312 357.980469 803.988281 C 355.640625 804.53125 353.972656 803.34375 352.359375 802.191406 C 351.078125 801.28125 349.871094 800.417969 348.265625 800.28125 C 346.878906 800.167969 346.347656 800.972656 345.523438 802.410156 C 344.761719 803.742188 343.828125 805.378906 341.636719 805.378906 " fill-opacity="1" fill-rule="nonzero"/><g clip-path="url(#b09bb72817)"><path fill="#fff385" d="M 349.53125 560.605469 C 349.53125 560.605469 333.675781 572.222656 336.574219 591.15625 C 336.574219 591.15625 311.636719 589.378906 300.8125 609.296875 C 300.8125 609.296875 303.226562 590 319.628906 575.632812 C 336.832031 560.5625 349.53125 560.605469 349.53125 560.605469 " fill-opacity="1" fill-rule="nonzero"/></g><g clip-path="url(#bbf8314093)"><path fill="#5cbec6" d="M 313.046875 877.710938 C 313.046875 878.554688 297.367188 879.238281 278.023438 879.238281 C 258.679688 879.238281 243 878.554688 243 877.710938 C 243 876.867188 258.679688 876.179688 278.023438 876.179688 C 297.367188 876.179688 313.046875 876.867188 313.046875 877.710938 " fill-opacity="1" fill-rule="nonzero"/></g><path fill="#54678c" d="M 306.042969 705.183594 C 306.042969 705.183594 322.3125 709.511719 322.3125 711.28125 C 322.3125 713.050781 321.125 723.632812 316.890625 723.070312 C 312.652344 722.511719 303.332031 719.171875 301.625 714.855469 C 299.917969 710.542969 306.042969 705.183594 306.042969 705.183594 " fill-opacity="1" fill-rule="nonzero"/><path fill="#434a59" d="M 297.5625 874.289062 C 295.871094 873.546875 294.613281 868.46875 294.609375 868.304688 C 294.601562 867.597656 292.554688 865.71875 291.601562 867.191406 C 289.722656 870.097656 287.664062 865.558594 287.773438 866.769531 C 288.097656 870.378906 286.441406 876.195312 287.785156 876.589844 C 290.652344 877.429688 304.019531 878.40625 304.269531 877.003906 C 304.421875 876.160156 300.488281 875.566406 297.5625 874.289062 " fill-opacity="1" fill-rule="nonzero"/><path fill="#434a59" d="M 260.3125 874.289062 C 256.871094 873.308594 257.359375 868.46875 257.359375 868.304688 C 257.347656 867.597656 255.304688 865.71875 254.351562 867.191406 C 252.472656 870.097656 250.414062 865.558594 250.523438 866.769531 C 250.847656 870.378906 249.191406 876.195312 250.535156 876.589844 C 253.398438 877.429688 266.765625 878.40625 267.019531 877.003906 C 267.171875 876.160156 263.382812 875.160156 260.3125 874.289062 " fill-opacity="1" fill-rule="nonzero"/><path fill="#434a59" d="M 265.101562 731.730469 C 268.480469 724.277344 294.160156 714.605469 300.933594 713.011719 C 301.429688 720.519531 304.894531 725.195312 308.996094 733.292969 C 314.726562 744.613281 299.035156 868.734375 299.035156 868.734375 L 284.976562 868.734375 L 288.503906 752.734375 L 261.890625 868.734375 L 248.40625 868.734375 C 248.40625 868.734375 261.230469 740.285156 265.101562 731.730469 " fill-opacity="1" fill-rule="nonzero"/><path fill="#2a2f38" d="M 263.09375 740.664062 L 277.820312 740.214844 L 292.625 732.675781 L 296.898438 732.675781 C 296.898438 732.675781 305.488281 733.289062 309.175781 733.703125 C 309.597656 734.789062 309.886719 736.527344 310.058594 738.796875 C 309.820312 740.230469 309.621094 741.421875 309.621094 741.421875 C 309.621094 741.421875 303.234375 745.4375 295.207031 746.921875 C 287.40625 748.363281 274.238281 752.167969 261.453125 751.050781 C 262.035156 747.101562 262.585938 743.589844 263.09375 740.664062 " fill-opacity="1" fill-rule="nonzero"/><path fill="#5679bf" d="M 262.445312 715.492188 C 261.3125 699.03125 258.332031 689.9375 259.902344 684.320312 C 261.917969 677.117188 272.460938 672.207031 278.496094 671.367188 C 283.457031 670.679688 295.644531 671.097656 300.0625 674.191406 C 307.144531 679.148438 311.289062 740.546875 311.289062 740.546875 C 311.289062 740.546875 306.996094 743.382812 295.503906 745.492188 C 294.894531 745.605469 294.40625 734.523438 293.753906 734.632812 C 292.394531 734.855469 290.800781 746.261719 289.25 746.457031 C 268.117188 749.152344 260.960938 746.457031 260.960938 746.457031 C 260.960938 746.457031 263.792969 735.011719 262.445312 715.492188 " fill-opacity="1" fill-rule="nonzero"/><path fill="#6c98dd" d="M 281.546875 670.691406 C 277.894531 671.257812 275.382812 674.617188 274.433594 676.105469 C 274.183594 676.503906 274.269531 677.023438 274.636719 677.320312 L 279.851562 681.53125 C 279.851562 681.53125 274.738281 679.101562 274.230469 679.609375 C 273.722656 680.117188 288.320312 703.566406 290.132812 704.402344 C 291.945312 705.234375 294.25 677.578125 293.34375 677.617188 C 292.4375 677.652344 291.117188 679.40625 291.117188 679.40625 L 292.238281 674.566406 C 292.300781 674.300781 292.238281 674.023438 292.070312 673.808594 C 291.214844 672.730469 288.15625 669.671875 281.546875 670.691406 " fill-opacity="1" fill-rule="nonzero"/><path fill="#f7f7f7" d="M 278.921875 672.785156 C 278.921875 672.785156 281.929688 680.574219 283.441406 684.488281 C 284.953125 688.40625 290.835938 706.335938 290.835938 706.335938 C 290.835938 706.335938 288.480469 675.632812 287.8125 673.488281 C 287.308594 671.871094 282.1875 667.902344 278.921875 672.785156 " fill-opacity="1" fill-rule="nonzero"/><path fill="#e7f2f2" d="M 332.933594 789.363281 C 333.652344 775.53125 337.640625 770.613281 337.640625 770.613281 L 330.976562 754.199219 L 325.757812 755.296875 L 320.539062 756.398438 L 321.0625 774.101562 C 321.0625 774.101562 326.695312 776.996094 332.933594 789.363281 " fill-opacity="1" fill-rule="nonzero"/><path fill="#434a59" d="M 316.777344 755.308594 C 317.078125 756.308594 318.089844 756.914062 319.113281 756.699219 L 325.757812 755.296875 L 332.402344 753.902344 C 333.425781 753.6875 334.109375 752.726562 333.980469 751.6875 C 329.074219 712.21875 310.253906 639.839844 310.253906 639.839844 L 293.363281 643.394531 C 293.363281 643.394531 305.34375 717.214844 316.777344 755.308594 " fill-opacity="1" fill-rule="nonzero"/><path fill="#ffe67b" d="M 294.386719 657.542969 L 315.027344 653.195312 L 313.503906 646.867188 L 293.164062 651.148438 L 294.386719 657.542969 " fill-opacity="1" fill-rule="nonzero"/><path fill="#434a59" d="M 313.503906 646.867188 L 303.414062 604.933594 C 302.675781 601.863281 299.628906 599.941406 296.539062 600.589844 L 289.609375 602.046875 C 286.496094 602.703125 284.480469 605.730469 285.078125 608.851562 L 293.164062 651.148438 L 313.503906 646.867188 " fill-opacity="1" fill-rule="nonzero"/><path fill="#ffe67b" d="M 293.25 605.585938 C 293.675781 605.496094 294.136719 605.585938 294.511719 605.867188 C 295.195312 606.386719 295.332031 607.359375 294.8125 608.046875 L 294.621094 608.300781 C 293.433594 609.867188 292.984375 611.867188 293.390625 613.789062 L 305.167969 669.6875 C 305.34375 670.527344 304.804688 671.351562 303.964844 671.53125 C 303.125 671.707031 302.300781 671.167969 302.121094 670.328125 L 290.347656 614.429688 C 289.757812 611.628906 290.410156 608.710938 292.136719 606.425781 L 292.332031 606.167969 C 292.566406 605.859375 292.898438 605.660156 293.25 605.585938 " fill-opacity="1" fill-rule="nonzero"/><path fill="#434a59" d="M 329.8125 777.015625 C 330.648438 776.644531 331.625 777.023438 331.996094 777.859375 C 332.367188 778.695312 331.984375 779.671875 331.148438 780.042969 C 330.3125 780.410156 329.335938 780.035156 328.964844 779.195312 C 328.597656 778.363281 328.976562 777.382812 329.8125 777.015625 " fill-opacity="1" fill-rule="nonzero"/><path fill="#434a59" d="M 333 788.242188 L 330.726562 778.59375 C 330.726562 778.578125 330.71875 778.566406 330.714844 778.554688 C 330.671875 778.453125 330.558594 778.394531 330.449219 778.417969 C 330.324219 778.449219 330.246094 778.574219 330.277344 778.699219 L 332.667969 788.84375 C 332.757812 789.019531 332.84375 789.1875 332.933594 789.363281 C 332.953125 788.984375 332.976562 788.609375 333 788.242188 " fill-opacity="1" fill-rule="nonzero"/><path fill="#ffffff" d="M 311.382812 722.660156 C 310.996094 722.753906 310.605469 722.515625 310.511719 722.128906 C 307.167969 708.371094 302.757812 688.789062 300.722656 673.660156 C 300.667969 673.261719 300.945312 672.902344 301.339844 672.847656 C 301.734375 672.796875 302.097656 673.070312 302.152344 673.46875 C 304.179688 688.535156 308.578125 708.0625 311.914062 721.789062 C 312.007812 722.175781 311.769531 722.566406 311.382812 722.660156 " fill-opacity="1" fill-rule="nonzero"/><path fill="#d8d8d8" d="M 280.242188 655.109375 C 280.746094 654.167969 282.066406 652.347656 284.089844 653.007812 C 285.40625 653.4375 286.191406 654.097656 286.304688 655.902344 C 287.164062 656.613281 287.121094 657.226562 286.730469 658.152344 C 286.324219 659.109375 286.65625 658.425781 286.132812 659.40625 C 285.816406 660 286.273438 660.644531 285.960938 660.589844 C 285.652344 660.539062 280.6875 665.09375 280.289062 665.074219 C 280.039062 665.0625 279.46875 664.964844 279.214844 664.183594 C 278.976562 663.441406 278.675781 662.765625 278.226562 662.128906 C 276.4375 659.601562 278.832031 656.808594 278.832031 656.808594 C 278.832031 656.808594 279.972656 655.609375 280.242188 655.109375 " fill-opacity="1" fill-rule="nonzero"/><path fill="#ff867a" d="M 286.773438 673.277344 C 284.472656 674.902344 280.164062 672.804688 279.992188 671.640625 L 280.027344 663.871094 L 280.054688 663.542969 L 280.175781 663.59375 L 284.128906 665.214844 L 284.617188 666.308594 L 284.777344 666.664062 L 284.945312 667.046875 L 285 667.167969 L 285.75 669.628906 C 285.75 669.628906 287.339844 672.878906 286.773438 673.277344 " fill-opacity="1" fill-rule="nonzero"/><path fill="#ff867a" d="M 288.238281 664.585938 C 288.28125 665.125 288.210938 665.570312 288.015625 665.929688 C 288.011719 665.929688 288.011719 665.933594 288.011719 665.9375 C 287.949219 666.046875 287.878906 666.148438 287.792969 666.242188 C 287.746094 666.292969 287.695312 666.34375 287.640625 666.394531 C 287.136719 666.84375 286.382812 667.058594 285.113281 667.046875 L 285.109375 667.046875 C 285.058594 667.046875 285.003906 667.046875 284.949219 667.042969 L 284.945312 667.046875 C 284.832031 667.042969 284.710938 667.039062 284.589844 667.03125 C 284.445312 667.023438 284.296875 667.015625 284.144531 667 C 283.71875 667.070312 283.25 666.996094 282.78125 666.824219 C 282.683594 666.789062 282.582031 666.75 282.484375 666.703125 C 281.292969 666.152344 280.195312 664.996094 280.027344 663.871094 C 280.003906 663.710938 279.996094 663.558594 280.011719 663.40625 L 279.992188 662.328125 L 280.125 662.148438 C 280.933594 661.078125 280.902344 659.417969 280.902344 659.417969 C 280.855469 657.585938 282.738281 656.824219 283.503906 656.535156 C 286.117188 655.546875 285.828125 656.851562 286.574219 658.226562 C 287.1875 659.355469 288.035156 662.113281 288.238281 664.585938 " fill-opacity="1" fill-rule="nonzero"/><path fill="#ff867a" d="M 280.324219 661.425781 C 280.070312 660.917969 279.578125 660.222656 279.007812 660.96875 C 278.179688 662.054688 279.398438 664.53125 280.757812 664.113281 C 281.765625 663.800781 280.460938 661.695312 280.324219 661.425781 " fill-opacity="1" fill-rule="nonzero"/><path fill="#c66c67" d="M 285.339844 662.472656 C 285.328125 662.511719 285.425781 662.554688 285.566406 662.546875 C 285.710938 662.542969 285.910156 662.484375 286.097656 662.316406 C 286.101562 662.3125 286.105469 662.308594 286.109375 662.308594 C 286.21875 662.199219 286.289062 662.082031 286.328125 661.96875 C 286.386719 661.8125 286.386719 661.667969 286.359375 661.59375 C 286.347656 661.550781 286.332031 661.535156 286.308594 661.539062 C 286.296875 661.539062 286.289062 661.542969 286.277344 661.550781 C 286.242188 661.585938 286.199219 661.683594 286.132812 661.800781 C 286.082031 661.882812 286.019531 661.976562 285.933594 662.0625 C 285.925781 662.074219 285.917969 662.078125 285.90625 662.09375 C 285.777344 662.222656 285.625 662.296875 285.511719 662.351562 C 285.410156 662.402344 285.339844 662.433594 285.339844 662.472656 " fill-opacity="1" fill-rule="nonzero"/><path fill="#d8d8d8" d="M 282.574219 659.558594 C 283.015625 659.074219 283.40625 658.691406 284.109375 658.714844 C 284.304688 658.722656 284.351562 658.96875 284.113281 659.066406 C 283.460938 659.34375 283.253906 659.417969 282.75 659.835938 C 282.527344 660.019531 282.320312 659.835938 282.574219 659.558594 " fill-opacity="1" fill-rule="nonzero"/><path fill="#d8d8d8" d="M 287 658.683594 C 286.6875 658.570312 286.367188 658.671875 286.089844 658.769531 C 285.90625 658.839844 285.847656 659.0625 286.105469 659.066406 C 286.8125 659.089844 286.78125 659.007812 287.125 659.070312 C 287.367188 659.109375 287.359375 658.816406 287 658.683594 " fill-opacity="1" fill-rule="nonzero"/><path fill="#434a59" d="M 284.335938 660.6875 C 284.351562 660.867188 284.265625 661.027344 284.144531 661.035156 C 284.027344 661.042969 283.917969 660.902344 283.902344 660.71875 C 283.890625 660.535156 283.976562 660.378906 284.09375 660.371094 C 284.214844 660.359375 284.324219 660.503906 284.335938 660.6875 " fill-opacity="1" fill-rule="nonzero"/><path fill="#434a59" d="M 287.328125 660.257812 C 287.34375 660.441406 287.257812 660.597656 287.136719 660.605469 C 287.019531 660.617188 286.910156 660.472656 286.894531 660.289062 C 286.882812 660.105469 286.96875 659.953125 287.085938 659.941406 C 287.207031 659.933594 287.316406 660.074219 287.328125 660.257812 " fill-opacity="1" fill-rule="nonzero"/><path fill="#c66c67" d="M 285.023438 667.246094 L 285.75 669.628906 C 284.285156 669.15625 283.332031 667.921875 282.875 667.019531 C 282.839844 666.953125 282.8125 666.886719 282.78125 666.824219 C 282.597656 666.417969 282.523438 666.101562 282.5625 666 C 282.671875 665.722656 283.457031 666.472656 284.496094 666.625 C 284.59375 666.636719 284.683594 666.652344 284.777344 666.664062 C 286.171875 666.828125 287.101562 666.625 287.640625 666.394531 C 287.136719 666.84375 286.382812 667.058594 285.113281 667.046875 L 285.109375 667.046875 C 285.097656 667.046875 285.082031 667.054688 285.070312 667.066406 C 285.019531 667.109375 285.003906 667.183594 285.023438 667.246094 " fill-opacity="1" fill-rule="nonzero"/><path fill="#ffffff" d="M 285.140625 672.609375 C 285.140625 672.609375 280.566406 670.691406 279.601562 670.191406 L 278.921875 672.785156 L 283.34375 676.789062 L 285.066406 674.078125 L 288.480469 675.25 L 286.132812 670.371094 L 285.140625 672.609375 " fill-opacity="1" fill-rule="nonzero"/><path fill="#2a2f38" d="M 265.4375 756.417969 Z M 265.441406 756.417969 C 265.441406 756.417969 265.4375 756.417969 265.4375 756.417969 C 265.4375 756.417969 265.441406 756.417969 265.441406 756.417969 Z M 251.292969 866.820312 C 251.148438 866.800781 251.050781 866.664062 251.070312 866.519531 L 257.214844 815.394531 C 257.269531 814.96875 262.761719 772.988281 264.152344 764.871094 C 265.417969 757.472656 265.433594 756.480469 265.429688 756.375 C 265.410156 756.25 265.480469 756.125 265.605469 756.085938 C 265.742188 756.039062 265.890625 756.113281 265.9375 756.25 C 266.03125 756.527344 265.570312 759.703125 264.671875 764.960938 C 263.285156 773.066406 257.792969 815.039062 257.738281 815.464844 L 251.589844 866.597656 C 251.570312 866.730469 251.460938 866.824219 251.332031 866.824219 C 251.320312 866.824219 251.304688 866.820312 251.292969 866.820312 " fill-opacity="1" fill-rule="nonzero"/><path fill="#2a2f38" d="M 288.503906 752.996094 C 288.601562 752.996094 288.691406 752.941406 288.738281 752.851562 C 290.214844 749.945312 291.742188 749.054688 291.757812 749.042969 C 291.882812 748.972656 291.929688 748.8125 291.855469 748.6875 C 291.785156 748.558594 291.625 748.515625 291.496094 748.585938 C 291.429688 748.625 289.816406 749.566406 288.269531 752.617188 C 288.203125 752.742188 288.253906 752.902344 288.386719 752.96875 C 288.425781 752.988281 288.464844 752.996094 288.503906 752.996094 " fill-opacity="1" fill-rule="nonzero"/><path fill="#2a2f38" d="M 287.773438 867.03125 C 287.914062 867.03125 288.027344 866.925781 288.039062 866.785156 C 288.042969 866.710938 288.46875 859.265625 288.730469 856.410156 C 288.886719 854.675781 289.042969 848.175781 289.183594 842.441406 C 289.273438 838.632812 289.363281 824.859375 289.433594 823.410156 C 289.484375 822.339844 289.515625 819.714844 289.550781 816.398438 C 289.632812 808.734375 289.761719 797.152344 290.324219 794.585938 C 290.738281 792.703125 290.75 787.125 290.765625 781.21875 C 290.78125 775.648438 290.796875 769.886719 291.183594 767.90625 C 291.972656 763.867188 290.394531 754.769531 290.324219 754.386719 C 290.300781 754.242188 290.164062 754.144531 290.019531 754.171875 C 289.878906 754.195312 289.78125 754.332031 289.808594 754.476562 C 289.824219 754.570312 291.4375 763.863281 290.667969 767.804688 C 290.269531 769.835938 290.253906 775.621094 290.238281 781.21875 C 290.226562 786.835938 290.210938 792.644531 289.808594 794.472656 C 289.234375 797.089844 289.109375 808.707031 289.023438 816.390625 C 288.988281 819.707031 288.957031 822.324219 288.90625 823.382812 C 288.835938 824.839844 288.75 838.617188 288.65625 842.425781 C 288.519531 848.152344 288.359375 854.644531 288.203125 856.363281 C 287.945312 859.226562 287.515625 866.679688 287.511719 866.753906 C 287.503906 866.898438 287.613281 867.023438 287.757812 867.03125 C 287.765625 867.03125 287.769531 867.03125 287.773438 867.03125 " fill-opacity="1" fill-rule="nonzero"/><path fill="#2a2f38" d="M 262.609375 757.679688 C 262.628906 757.679688 262.648438 757.675781 262.667969 757.671875 C 267.6875 756.515625 271.527344 752.628906 271.929688 751.925781 C 272 751.796875 271.957031 751.636719 271.828125 751.566406 C 271.703125 751.496094 271.542969 751.539062 271.46875 751.664062 C 271.136719 752.253906 267.382812 756.046875 262.550781 757.15625 C 262.410156 757.191406 262.320312 757.332031 262.351562 757.472656 C 262.382812 757.59375 262.488281 757.679688 262.609375 757.679688 " fill-opacity="1" fill-rule="nonzero"/><path fill="#434a59" d="M 283.574219 659.890625 C 283.460938 659.882812 283.347656 659.894531 283.230469 659.921875 C 282.941406 659.992188 282.691406 660.160156 282.535156 660.398438 C 282.375 660.632812 282.324219 660.910156 282.386719 661.175781 C 282.519531 661.722656 283.109375 662.050781 283.703125 661.910156 C 283.992188 661.84375 284.242188 661.671875 284.398438 661.4375 C 284.558594 661.199219 284.609375 660.921875 284.546875 660.660156 C 284.441406 660.21875 284.039062 659.917969 283.574219 659.890625 Z M 283.347656 662.167969 C 282.785156 662.132812 282.296875 661.765625 282.167969 661.226562 C 282.089844 660.902344 282.152344 660.5625 282.347656 660.273438 C 282.535156 659.988281 282.832031 659.785156 283.179688 659.703125 C 283.894531 659.53125 284.605469 659.9375 284.765625 660.605469 C 284.84375 660.933594 284.78125 661.273438 284.585938 661.558594 C 284.398438 661.84375 284.101562 662.046875 283.753906 662.128906 C 283.617188 662.164062 283.480469 662.175781 283.347656 662.167969 " fill-opacity="1" fill-rule="nonzero"/><path fill="#434a59" d="M 287.007812 659.378906 C 286.9375 659.375 286.871094 659.378906 286.800781 659.394531 C 286.375 659.5 286.125 659.972656 286.238281 660.457031 C 286.355469 660.941406 286.792969 661.253906 287.222656 661.152344 C 287.425781 661.101562 287.59375 660.96875 287.703125 660.769531 C 287.8125 660.566406 287.839844 660.328125 287.78125 660.089844 C 287.726562 659.855469 287.59375 659.648438 287.402344 659.519531 C 287.28125 659.433594 287.144531 659.386719 287.007812 659.378906 Z M 287.003906 661.394531 C 286.554688 661.371094 286.140625 661.015625 286.019531 660.511719 C 285.875 659.90625 286.203125 659.308594 286.75 659.175781 C 287.015625 659.113281 287.296875 659.171875 287.53125 659.335938 C 287.765625 659.5 287.933594 659.746094 288 660.039062 C 288.070312 660.328125 288.035156 660.628906 287.902344 660.875 C 287.761719 661.132812 287.539062 661.308594 287.273438 661.371094 C 287.183594 661.394531 287.09375 661.398438 287.003906 661.394531 " fill-opacity="1" fill-rule="nonzero"/><path fill="#434a59" d="M 284.636719 660.703125 C 284.605469 660.703125 284.574219 660.6875 284.554688 660.660156 C 284.515625 660.609375 284.523438 660.539062 284.570312 660.5 C 284.597656 660.480469 285.242188 659.980469 286.148438 660.277344 C 286.207031 660.296875 286.238281 660.359375 286.21875 660.421875 C 286.199219 660.480469 286.136719 660.511719 286.078125 660.492188 C 285.292969 660.234375 284.734375 660.660156 284.710938 660.679688 C 284.691406 660.695312 284.664062 660.703125 284.636719 660.703125 " fill-opacity="1" fill-rule="nonzero"/><path fill="#434a59" d="M 280.515625 661.140625 C 280.460938 661.136719 280.414062 661.089844 280.410156 661.03125 C 280.410156 660.96875 280.457031 660.917969 280.519531 660.914062 L 282.246094 660.855469 C 282.304688 660.855469 282.359375 660.902344 282.363281 660.964844 C 282.363281 661.027344 282.316406 661.078125 282.253906 661.082031 L 280.527344 661.140625 C 280.523438 661.140625 280.519531 661.140625 280.515625 661.140625 " fill-opacity="1" fill-rule="nonzero"/><path fill="#ffffff" d="M 284.570312 663.089844 C 284.570312 663.089844 286.796875 662.789062 287.519531 662.546875 C 287.519531 662.546875 287.757812 663.417969 287.175781 663.746094 C 286.59375 664.078125 285.109375 663.824219 284.570312 663.089844 " fill-opacity="1" fill-rule="nonzero"/><path fill="#434a59" d="M 293.550781 733.964844 C 293.539062 733.964844 293.53125 733.964844 293.519531 733.964844 C 293.316406 733.949219 293.160156 733.769531 293.175781 733.5625 C 293.179688 733.496094 293.683594 726.734375 293.175781 720.582031 C 292.667969 714.425781 291.074219 707.0625 291.058594 706.992188 C 291.015625 706.789062 291.144531 706.589844 291.34375 706.542969 C 291.546875 706.5 291.746094 706.628906 291.789062 706.832031 C 291.804688 706.90625 293.410156 714.3125 293.921875 720.523438 C 294.433594 726.734375 293.925781 733.550781 293.921875 733.621094 C 293.90625 733.816406 293.742188 733.964844 293.550781 733.964844 " fill-opacity="1" fill-rule="nonzero"/><path fill="#5679bf" d="M 262.007812 682.230469 C 260.972656 683.5625 260.496094 685.238281 260.566406 686.921875 C 260.847656 693.941406 263.070312 720.226562 280.542969 729.6875 C 292.742188 736.289062 323.523438 739.820312 320.605469 727.636719 C 319.890625 724.648438 314.746094 723.175781 313.542969 722.789062 C 308.953125 721.304688 286.894531 715.359375 286.894531 715.359375 C 286.894531 715.359375 278.117188 689.117188 269.085938 682.035156 C 265.5625 679.273438 263.3125 680.550781 262.007812 682.230469 " fill-opacity="1" fill-rule="nonzero"/><path fill="#ffffff" d="M 316.683594 732.332031 C 316.804688 732.765625 317.222656 733.054688 317.675781 733.003906 C 318.535156 732.910156 319.863281 732.734375 320.097656 732.511719 C 321.292969 731.40625 321.261719 726 320.703125 725.15625 C 320.144531 724.3125 318.21875 724.714844 317.703125 724.851562 C 316.546875 725.167969 315.789062 729.054688 316.683594 732.332031 " fill-opacity="1" fill-rule="nonzero"/><path fill="#ff867a" d="M 319.140625 725.515625 C 319.140625 725.515625 321.195312 722.4375 321.945312 721.867188 C 322.699219 721.292969 328.171875 719.972656 328.28125 720.304688 C 328.5625 721.179688 324.671875 722.359375 324.671875 722.359375 C 324.671875 722.359375 328.535156 721.707031 328.785156 722.1875 C 329.03125 722.667969 328.828125 722.902344 328.828125 722.902344 C 328.828125 722.902344 329.242188 723.1875 329.070312 723.769531 C 328.964844 724.132812 325.976562 725.460938 325.976562 725.460938 C 325.976562 725.460938 327.324219 725.050781 328.207031 725.085938 C 329.089844 725.125 326.683594 726.136719 325.695312 726.734375 C 324.707031 727.332031 323.539062 729.441406 321.699219 730.628906 C 319.863281 731.820312 318.464844 731.824219 318.085938 731.289062 C 317.707031 730.75 318.191406 726.878906 319.140625 725.515625 " fill-opacity="1" fill-rule="nonzero"/><path fill="#434a59" d="M 307.015625 736.050781 C 304.355469 736.050781 301.835938 735.886719 301.675781 735.875 C 287.566406 734.5 281.527344 732.152344 273.578125 724.96875 C 265.746094 717.894531 263.359375 706.539062 263.335938 706.425781 C 263.285156 706.179688 263.445312 705.941406 263.691406 705.894531 C 263.933594 705.84375 264.171875 706 264.222656 706.246094 C 264.246094 706.355469 266.578125 717.425781 274.183594 724.300781 C 281.960938 731.328125 287.886719 733.625 301.75 734.976562 C 301.792969 734.980469 307.582031 735.355469 310.851562 734.976562 C 311.101562 734.949219 311.324219 735.125 311.351562 735.375 C 311.382812 735.621094 311.203125 735.84375 310.957031 735.875 C 309.8125 736.007812 308.394531 736.050781 307.015625 736.050781 " fill-opacity="1" fill-rule="nonzero"/><path fill="#434a59" d="M 309.679688 722.089844 C 309.648438 722.089844 309.613281 722.085938 309.578125 722.078125 C 309.523438 722.066406 304.015625 720.789062 298.445312 719.289062 C 287.003906 716.207031 286.464844 715.226562 286.234375 714.808594 C 285.148438 712.835938 278.613281 696.679688 278.335938 695.992188 C 278.242188 695.761719 278.355469 695.496094 278.585938 695.402344 C 278.816406 695.3125 279.082031 695.421875 279.175781 695.65625 C 279.242188 695.820312 285.964844 712.445312 287.027344 714.371094 C 287.644531 715.496094 299.082031 718.726562 309.78125 721.199219 C 310.023438 721.253906 310.175781 721.496094 310.121094 721.738281 C 310.070312 721.949219 309.886719 722.089844 309.679688 722.089844 " fill-opacity="1" fill-rule="nonzero"/><path fill="#f27872" d="M 326.710938 700.589844 C 328.027344 701.550781 329.507812 709.046875 329.507812 709.046875 C 329.507812 709.046875 326.316406 710.867188 324.320312 709.507812 C 323.335938 708.835938 322.90625 706.828125 322.90625 706.828125 C 322.90625 706.828125 322.492188 706.910156 322.015625 705.328125 C 321.679688 704.21875 322.910156 703.496094 323.679688 703.160156 C 323.0625 703.339844 322.066406 703.46875 321.261719 702.835938 C 320.007812 701.84375 325.398438 699.628906 326.710938 700.589844 " fill-opacity="1" fill-rule="nonzero"/><path fill="#aa5b50" d="M 498.273438 687.554688 C 498.273438 687.554688 477.238281 706.195312 474.460938 718.535156 C 471.683594 730.875 485.640625 753.953125 490.679688 753.730469 C 495.722656 753.511719 488.042969 723.792969 488.628906 721.894531 C 489.214844 719.996094 498.574219 706.195312 501.128906 699.914062 C 503.6875 693.636719 500.527344 685.472656 498.273438 687.554688 " fill-opacity="1" fill-rule="nonzero"/><path fill="#f2c3a7" d="M 509.011719 664.753906 C 509.511719 662.597656 511.835938 659.429688 514.507812 660.59375 C 517.707031 661.992188 518.191406 663.980469 518.191406 663.980469 C 518.191406 663.980469 518.304688 664.023438 518.480469 664.097656 C 519.078125 664.085938 520.480469 664.140625 521.175781 664.808594 C 522.078125 665.671875 522.371094 666.867188 521.894531 666.609375 C 521.414062 666.351562 521.140625 665.511719 520.714844 665.371094 C 520.632812 665.34375 520.554688 665.332031 520.472656 665.324219 C 520.652344 665.511719 520.78125 665.710938 520.824219 665.910156 C 521.984375 671.152344 519.925781 671.464844 519.703125 672.511719 C 519.476562 673.609375 518.230469 674.953125 517.890625 675.003906 C 517.347656 675.089844 512.523438 669.726562 512.109375 669.839844 C 511.6875 669.957031 511.316406 668.523438 511.171875 667.617188 C 511.027344 666.710938 508.609375 666.503906 509.011719 664.753906 " fill-opacity="1" fill-rule="nonzero"/><path fill="#b1d5de" d="M 527.777344 875.320312 L 532.632812 875.320312 C 539.257812 875.320312 566.992188 875.730469 560.769531 876.636719 C 554.996094 877.476562 529.613281 877.953125 522.988281 877.953125 L 517.105469 877.953125 C 496.953125 877.953125 479.078125 877.359375 485.675781 876.636719 C 492.269531 875.914062 505.847656 875.320312 527.777344 875.320312 " fill-opacity="1" fill-rule="nonzero"/><path fill="#434a59" d="M 544.917969 871.472656 C 543.882812 869.492188 543.839844 866.292969 543.796875 866.140625 C 543.613281 865.484375 542.070312 865.257812 541.65625 866.8125 C 540.828125 869.875 537.789062 866.179688 538.175781 867.289062 C 539.339844 870.582031 539.644531 876.179688 540.847656 876.289062 C 543.410156 876.519531 553.25 878.117188 553.109375 876.761719 C 553.023438 875.949219 545.609375 872.792969 544.917969 871.472656 " fill-opacity="1" fill-rule="nonzero"/><path fill="#434a59" d="M 495.890625 874.394531 C 497.28125 873.742188 497.425781 872.484375 498 871.28125 C 498.035156 871.199219 498.222656 869.488281 498.222656 869.355469 C 498.214844 868.765625 500.480469 859.332031 501.300781 860.535156 C 502.925781 862.914062 504.191406 866.984375 504.125 867.996094 C 503.929688 871.003906 505.183594 875.75 504.074219 876.105469 C 501.707031 876.863281 490.605469 877.957031 490.363281 876.792969 C 490.222656 876.09375 493.484375 875.519531 495.890625 874.394531 " fill-opacity="1" fill-rule="nonzero"/><path fill="#434a59" d="M 529.6875 744.253906 C 529.347656 743.644531 491.15625 735.488281 488.628906 744.121094 C 488.628906 744.121094 492.648438 865.691406 495.046875 867.421875 C 497.441406 869.148438 503.136719 870.019531 504.398438 867.308594 C 507.808594 859.980469 508.640625 780.1875 508.035156 767.90625 C 508.75 771.761719 531.714844 864.957031 533.597656 867.308594 C 535.480469 869.660156 541.851562 868.875 544.046875 867.308594 C 545.335938 866.390625 538.238281 822.695312 535.546875 790.46875 C 533.3125 763.65625 531.457031 747.410156 529.6875 744.253906 " fill-opacity="1" fill-rule="nonzero"/><path fill="#323842" d="M 488.816406 749.609375 C 488.695312 746.121094 488.628906 744.121094 488.628906 744.121094 C 489.367188 741.601562 493.136719 740.511719 498.121094 740.246094 C 504.101562 741.253906 510.710938 742.222656 514.222656 742.277344 C 516.585938 742.3125 519.324219 742.386719 521.957031 742.472656 C 526.457031 743.300781 529.589844 744.082031 529.6875 744.25 C 530.066406 744.925781 530.445312 746.195312 530.832031 748.03125 C 527.40625 748.910156 516.898438 751.253906 504.273438 750.535156 C 497.378906 750.140625 492.3125 749.832031 488.816406 749.609375 " fill-opacity="1" fill-rule="nonzero"/><path fill="#d17a69" d="M 530.910156 746.28125 C 530.917969 737.734375 530.980469 734.988281 531.265625 728.269531 C 532.273438 704.335938 540.0625 700.894531 537.234375 694.414062 C 534.660156 688.527344 526.347656 682.65625 518.347656 681.882812 C 509.671875 681.046875 500.140625 684.585938 496.683594 689.265625 C 490.296875 697.914062 492.128906 720.824219 488.035156 743.5 C 486.851562 750.066406 530.910156 747.226562 530.910156 746.28125 " fill-opacity="1" fill-rule="nonzero"/><path fill="#ff867a" d="M 513.730469 686.675781 C 518.503906 687.808594 521.09375 683.648438 521.03125 682.265625 C 521.03125 682.265625 520.042969 679.121094 519.925781 677.898438 C 519.78125 676.425781 519.699219 672.03125 519.699219 672.03125 L 519.574219 672.113281 L 515.371094 674.875 L 515.050781 676.246094 L 514.800781 677.324219 L 514.050781 680.550781 C 514.050781 680.550781 512.175781 686.308594 513.730469 686.675781 " fill-opacity="1" fill-rule="nonzero"/><path fill="#ff867a" d="M 518.902344 670.242188 C 519.136719 669.621094 519.636719 668.746094 520.390625 669.554688 C 521.488281 670.726562 520.355469 673.769531 518.714844 673.441406 C 517.496094 673.191406 518.777344 670.574219 518.902344 670.242188 " fill-opacity="1" fill-rule="nonzero"/><path fill="#c66c67" d="M 514.386719 677.382812 C 514.519531 677.367188 514.660156 677.347656 514.800781 677.324219 L 514.050781 680.550781 C 515.925781 679.753906 516.867188 677.925781 517.222656 676.675781 C 517.402344 676.042969 517.433594 675.554688 517.355469 675.429688 C 517.167969 675.136719 516.429688 676.175781 515.261719 676.585938 C 512.832031 677.4375 511.246094 677.089844 510.789062 676.816406 C 511.4375 677.40625 512.550781 677.597656 514.191406 677.40625 L 514.199219 677.40625 C 514.234375 677.398438 514.269531 677.390625 514.304688 677.386719 L 514.3125 677.382812 C 514.34375 677.375 514.371094 677.378906 514.386719 677.382812 " fill-opacity="1" fill-rule="nonzero"/><path fill="#ff867a" d="M 510.5 676.480469 C 510.5 676.484375 510.503906 676.484375 510.503906 676.492188 C 510.585938 676.613281 510.683594 676.71875 510.789062 676.816406 C 511.4375 677.40625 512.550781 677.597656 514.191406 677.40625 L 514.199219 677.40625 C 514.257812 677.402344 514.320312 677.394531 514.386719 677.382812 C 514.519531 677.367188 514.660156 677.347656 514.800781 677.324219 C 514.96875 677.296875 515.140625 677.269531 515.320312 677.234375 C 515.933594 677.265625 516.597656 677.046875 517.222656 676.675781 C 518.734375 675.777344 520.003906 673.964844 519.707031 672.511719 L 519.574219 672.113281 L 518.132812 667.820312 C 517.351562 665.703125 516.054688 665.441406 514.144531 665.085938 C 512.203125 664.722656 511.988281 665.8125 511.386719 667.269531 C 510.804688 668.667969 510.066406 672.007812 510.09375 674.933594 C 510.101562 675.570312 510.230469 676.085938 510.5 676.480469 " fill-opacity="1" fill-rule="nonzero"/><path fill="#f2c3a7" d="M 518.746094 668.929688 C 518.746094 668.929688 518.632812 671.289062 518.191406 672.03125 C 517.753906 672.773438 516.578125 672.863281 515.621094 672.789062 C 514.664062 672.714844 513.074219 671.742188 512.199219 671.632812 C 511.324219 671.519531 510.402344 672.144531 510.09375 672.53125 C 509.785156 672.917969 509.757812 674.46875 509.554688 675.148438 C 509.351562 675.828125 509.269531 677.128906 510.171875 677.683594 C 511.074219 678.234375 514.109375 678.011719 515.359375 677.476562 C 516.613281 676.945312 518.3125 676.265625 519.042969 675.546875 C 519.773438 674.832031 519.371094 673.121094 519.132812 672.238281 C 518.894531 671.355469 519.371094 669.332031 519.078125 669.054688 C 518.785156 668.78125 518.746094 668.929688 518.746094 668.929688 " fill-opacity="1" fill-rule="nonzero"/><path fill="#c66c67" d="M 512.933594 671.773438 C 512.953125 671.816406 512.84375 671.882812 512.679688 671.886719 C 512.507812 671.902344 512.265625 671.855469 512.027344 671.6875 C 512.027344 671.679688 512.019531 671.675781 512.011719 671.675781 C 511.871094 671.5625 511.777344 671.433594 511.714844 671.308594 C 511.625 671.128906 511.609375 670.960938 511.632812 670.875 C 511.644531 670.824219 511.660156 670.800781 511.6875 670.800781 C 511.699219 670.800781 511.710938 670.804688 511.722656 670.8125 C 511.765625 670.851562 511.828125 670.960938 511.921875 671.082031 C 511.992188 671.175781 512.074219 671.277344 512.183594 671.367188 C 512.195312 671.378906 512.210938 671.386719 512.222656 671.398438 C 512.390625 671.535156 512.578125 671.605469 512.71875 671.65625 C 512.84375 671.699219 512.925781 671.726562 512.933594 671.773438 " fill-opacity="1" fill-rule="nonzero"/><path fill="#f2c3a7" d="M 516.480469 668.070312 C 515.835938 667.644531 515.285156 667.320312 514.488281 667.546875 C 514.265625 667.609375 514.285156 667.902344 514.582031 667.949219 C 515.40625 668.082031 515.667969 668.101562 516.355469 668.441406 C 516.667969 668.585938 516.851562 668.316406 516.480469 668.070312 " fill-opacity="1" fill-rule="nonzero"/><path fill="#f2c3a7" d="M 511.082031 667.960938 C 511.382812 667.710938 511.78125 667.695312 512.125 667.699219 C 512.359375 667.699219 512.511719 667.921875 512.226562 668.03125 C 511.453125 668.332031 511.453125 668.234375 511.097656 668.4375 C 510.84375 668.578125 510.738281 668.25 511.082031 667.960938 " fill-opacity="1" fill-rule="nonzero"/><path fill="#e7f2f2" d="M 515.160156 685.746094 C 515.160156 685.746094 517.742188 684.648438 518.453125 684.242188 C 519.160156 683.832031 520.710938 681.210938 520.710938 681.210938 L 522.273438 683.003906 C 522.273438 683.003906 520.707031 686.289062 519.457031 687.265625 C 518.203125 688.242188 517.425781 688.527344 517.367188 688.539062 C 517.308594 688.554688 515.191406 687.027344 514.914062 687.125 C 514.644531 687.226562 512.089844 689.050781 512.082031 688.671875 C 512.074219 688.289062 512.394531 684.855469 512.582031 684.449219 C 512.769531 684.042969 513.234375 682.453125 513.417969 682.921875 C 514.105469 684.675781 515.160156 685.746094 515.160156 685.746094 " fill-opacity="1" fill-rule="nonzero"/><path fill="#323842" d="M 542.378906 865.796875 C 542.140625 865.796875 541.945312 865.609375 541.941406 865.371094 C 541.890625 863.335938 539.621094 847.347656 538.945312 844.253906 C 538.503906 842.230469 537.484375 832.804688 536.738281 825.921875 C 536.347656 822.300781 536.011719 819.175781 535.878906 818.234375 C 535.492188 815.535156 528.429688 753.414062 528.359375 752.785156 C 528.332031 752.546875 528.503906 752.328125 528.746094 752.300781 C 528.984375 752.273438 529.203125 752.445312 529.230469 752.6875 C 529.300781 753.3125 536.359375 815.421875 536.746094 818.113281 C 536.882812 819.066406 537.203125 822.050781 537.613281 825.824219 C 538.351562 832.691406 539.371094 842.089844 539.800781 844.066406 C 540.507812 847.304688 542.761719 863.214844 542.816406 865.347656 C 542.824219 865.589844 542.632812 865.792969 542.390625 865.796875 C 542.386719 865.796875 542.382812 865.796875 542.378906 865.796875 " fill-opacity="1" fill-rule="nonzero"/><path fill="#323842" d="M 508.035156 768.347656 C 507.875 768.347656 507.722656 768.257812 507.644531 768.101562 C 505.683594 764.203125 502.75 762.800781 502.71875 762.789062 C 502.5 762.683594 502.40625 762.425781 502.507812 762.207031 C 502.609375 761.988281 502.871094 761.890625 503.089844 761.992188 C 503.222656 762.054688 506.332031 763.539062 508.429688 767.710938 C 508.535156 767.929688 508.449219 768.191406 508.234375 768.300781 C 508.171875 768.332031 508.105469 768.347656 508.035156 768.347656 " fill-opacity="1" fill-rule="nonzero"/><path fill="#323842" d="M 502.570312 765.585938 C 502.34375 765.585938 502.152344 765.414062 502.132812 765.1875 C 502.113281 764.945312 502.292969 764.734375 502.535156 764.714844 L 505.941406 764.425781 C 506.175781 764.410156 506.394531 764.585938 506.414062 764.828125 C 506.433594 765.066406 506.257812 765.28125 506.011719 765.300781 L 502.605469 765.585938 C 502.59375 765.585938 502.582031 765.585938 502.570312 765.585938 " fill-opacity="1" fill-rule="nonzero"/><path fill="#323842" d="M 502.570312 866.078125 C 502.558594 866.078125 502.546875 866.078125 502.535156 866.078125 C 502.292969 866.058594 502.113281 865.847656 502.132812 865.605469 C 502.144531 865.457031 503.3125 850.859375 503.839844 847.210938 C 504.136719 845.164062 504.085938 828.644531 504.039062 814.066406 C 504.003906 802.800781 503.96875 792.160156 504.101562 789.328125 C 504.394531 782.886719 505.527344 768.023438 505.539062 767.875 C 505.558594 767.632812 505.773438 767.453125 506.007812 767.472656 C 506.253906 767.488281 506.433594 767.699219 506.414062 767.941406 C 506.402344 768.089844 505.269531 782.941406 504.976562 789.371094 C 504.847656 792.175781 504.882812 802.808594 504.917969 814.066406 C 504.964844 829.382812 505.015625 845.226562 504.707031 847.339844 C 504.183594 850.957031 503.019531 865.527344 503.007812 865.671875 C 502.988281 865.902344 502.796875 866.078125 502.570312 866.078125 " fill-opacity="1" fill-rule="nonzero"/><g clip-path="url(#f0645df57d)"><path fill="#d17a69" d="M 534.265625 690.019531 C 530.730469 686.671875 528.816406 697.578125 529.613281 702.910156 C 530.730469 710.386719 548.523438 722.054688 548.804688 726.609375 C 549.09375 731.277344 528.214844 756.09375 529.6875 759.976562 C 531.195312 763.941406 557.359375 751.8125 562.355469 735.695312 C 568.125 717.097656 540.671875 696.089844 534.265625 690.019531 " fill-opacity="1" fill-rule="nonzero"/></g><path fill="#ff867a" d="M 532.691406 755.4375 C 532.691406 755.4375 525.3125 752.121094 524.421875 752.523438 C 523.527344 752.929688 519.671875 757.210938 520.527344 757.007812 C 521.382812 756.800781 522.253906 756 522.253906 756 C 522.253906 756 520.78125 757.957031 520.792969 758.289062 C 520.808594 758.621094 521.605469 758.574219 521.605469 758.574219 C 521.605469 758.574219 521.898438 759.589844 521.90625 759.660156 C 521.917969 759.726562 523.996094 757.71875 523.996094 757.71875 C 523.996094 757.71875 523.167969 759.320312 523.496094 759.5 C 523.824219 759.679688 525.882812 758.058594 525.882812 758.058594 C 525.882812 758.058594 528.882812 761.597656 532.957031 760.878906 C 537.03125 760.15625 532.691406 755.4375 532.691406 755.4375 " fill-opacity="1" fill-rule="nonzero"/><path fill="#aa5b50" d="M 548.847656 731.382812 C 548.824219 731.382812 548.800781 731.378906 548.777344 731.371094 C 548.472656 731.300781 548.285156 730.996094 548.359375 730.6875 C 548.613281 729.613281 549.039062 726.585938 547.957031 725.542969 C 547.730469 725.328125 547.722656 724.96875 547.941406 724.742188 C 548.15625 724.519531 548.515625 724.511719 548.742188 724.726562 C 550.484375 726.402344 549.570312 730.492188 549.460938 730.953125 C 549.394531 731.234375 549.125 731.414062 548.847656 731.382812 " fill-opacity="1" fill-rule="nonzero"/><path fill="#aa5b50" d="M 533.929688 710.980469 C 533.675781 710.980469 533.425781 710.863281 533.265625 710.644531 L 529.058594 704.902344 C 528.792969 704.539062 528.871094 704.023438 529.238281 703.757812 C 529.601562 703.488281 530.117188 703.566406 530.382812 703.933594 L 534.589844 709.675781 C 534.859375 710.039062 534.777344 710.554688 534.414062 710.820312 C 534.269531 710.929688 534.097656 710.980469 533.929688 710.980469 " fill-opacity="1" fill-rule="nonzero"/><path fill="#ffffff" d="M 510.675781 672.457031 C 510.675781 672.457031 512.078125 672.542969 514.339844 672.824219 C 514.339844 672.824219 513.273438 674.164062 511.804688 674.054688 C 510.335938 673.945312 510.675781 672.457031 510.675781 672.457031 " fill-opacity="1" fill-rule="nonzero"/></svg>