<svg xmlns="http://www.w3.org/2000/svg" xmlns:xlink="http://www.w3.org/1999/xlink" width="1080" zoomAndPan="magnify" viewBox="0 0 810 1439.999935" height="1920" preserveAspectRatio="xMidYMid meet" version="1.0"><defs><clipPath id="0fab3b7718"><path d="M 286 853 L 334 853 L 334 883.0625 L 286 883.0625 Z M 286 853 " clip-rule="nonzero"/></clipPath><clipPath id="8b4934fc19"><path d="M 476 853 L 524 853 L 524 883.0625 L 476 883.0625 Z M 476 853 " clip-rule="nonzero"/></clipPath></defs><path fill="#ff7f62" d="M 288.929688 853.570312 L 521.070312 853.570312 C 522.453125 853.570312 523.578125 854.691406 523.578125 856.078125 L 523.578125 858.582031 L 548.019531 858.582031 C 558.179688 858.582031 566.441406 850.324219 566.441406 840.167969 L 566.441406 637.976562 C 566.441406 627.820312 558.179688 619.5625 548.019531 619.5625 L 433.546875 619.5625 C 433.617188 620.386719 433.652344 621.222656 433.652344 622.070312 C 433.652344 623.453125 432.53125 624.578125 431.144531 624.574219 L 378.890625 624.578125 C 378.878906 624.578125 378.863281 624.578125 378.847656 624.578125 C 378.832031 624.578125 378.820312 624.578125 378.804688 624.578125 C 378.804688 624.578125 378.804688 624.578125 378.800781 624.578125 C 377.4375 624.550781 376.339844 623.4375 376.339844 622.070312 C 376.339844 621.222656 376.375 620.386719 376.449219 619.5625 L 261.972656 619.5625 C 251.816406 619.5625 243.550781 627.820312 243.550781 637.976562 L 243.550781 840.167969 C 243.550781 850.324219 251.816406 858.582031 261.972656 858.582031 L 286.421875 858.582031 L 286.421875 856.074219 C 286.421875 854.691406 287.546875 853.570312 288.929688 853.570312 Z M 467.523438 829.511719 L 306.183594 829.511719 C 283.417969 829.511719 264.898438 811 264.898438 788.242188 L 264.898438 689.902344 C 264.898438 667.144531 283.417969 648.632812 306.183594 648.632812 L 467.523438 648.632812 C 490.289062 648.632812 508.808594 667.144531 508.808594 689.902344 L 508.808594 788.242188 C 508.808594 811 490.289062 829.511719 467.523438 829.511719 Z M 535.015625 774.078125 C 526.308594 774.078125 519.226562 767 519.226562 758.296875 C 519.226562 749.597656 526.308594 742.519531 535.015625 742.519531 C 543.722656 742.519531 550.804688 749.597656 550.804688 758.296875 C 550.804688 767 543.722656 774.078125 535.015625 774.078125 Z M 551.15625 829.511719 L 518.875 829.511719 C 517.488281 829.511719 516.367188 828.390625 516.367188 827.003906 C 516.367188 825.621094 517.488281 824.496094 518.875 824.496094 L 551.15625 824.496094 C 552.542969 824.496094 553.664062 825.621094 553.664062 827.003906 C 553.664062 828.390625 552.542969 829.511719 551.15625 829.511719 Z M 551.15625 816.179688 L 518.875 816.179688 C 517.488281 816.179688 516.367188 815.054688 516.367188 813.671875 C 516.367188 812.285156 517.488281 811.164062 518.875 811.164062 L 551.15625 811.164062 C 552.542969 811.164062 553.664062 812.285156 553.664062 813.671875 C 553.664062 815.054688 552.542969 816.179688 551.15625 816.179688 Z M 551.15625 802.835938 L 518.875 802.835938 C 517.488281 802.835938 516.367188 801.714844 516.367188 800.332031 C 516.367188 798.945312 517.488281 797.824219 518.875 797.824219 L 551.15625 797.824219 C 552.542969 797.824219 553.664062 798.945312 553.664062 800.332031 C 553.664062 801.714844 552.542969 802.835938 551.15625 802.835938 Z M 535.015625 735.625 C 526.308594 735.625 519.226562 728.546875 519.226562 719.847656 C 519.226562 711.144531 526.308594 704.066406 535.015625 704.066406 C 543.722656 704.066406 550.804688 711.144531 550.804688 719.847656 C 550.804688 728.546875 543.722656 735.625 535.015625 735.625 Z M 535.015625 688.386719 C 524.054688 688.386719 515.132812 679.46875 515.132812 668.511719 C 515.132812 657.546875 524.054688 648.632812 535.015625 648.632812 C 533.628906 648.632812 532.507812 649.753906 532.507812 651.140625 L 532.507812 685.878906 C 532.507812 687.265625 533.632812 688.386719 535.015625 688.386719 Z M 537.523438 683.160156 L 537.523438 651.140625 C 537.523438 649.757812 536.402344 648.632812 535.015625 648.632812 C 545.976562 648.632812 554.898438 657.546875 554.898438 668.511719 C 554.898438 679.464844 545.976562 688.386719 535.015625 688.386719 C 536.398438 688.386719 537.523438 687.265625 537.523438 685.878906 Z M 537.523438 683.160156 " fill-opacity="1" fill-rule="evenodd"/><path fill="#000000" d="M 261.972656 624.574219 C 254.585938 624.574219 248.566406 630.582031 248.566406 637.976562 L 248.570312 840.167969 C 248.570312 847.5625 254.582031 853.570312 261.972656 853.570312 L 548.019531 853.566406 C 555.414062 853.566406 561.425781 847.5625 561.425781 840.167969 L 561.425781 637.976562 C 561.425781 630.582031 555.414062 624.578125 548.019531 624.578125 Z M 548.019531 858.582031 L 261.972656 858.582031 C 251.816406 858.582031 243.550781 850.324219 243.550781 840.167969 L 243.550781 637.976562 C 243.550781 627.820312 251.816406 619.5625 261.972656 619.5625 L 548.019531 619.5625 C 558.179688 619.5625 566.441406 627.820312 566.441406 637.976562 L 566.441406 840.167969 C 566.441406 850.324219 558.179688 858.582031 548.019531 858.582031 Z M 548.019531 858.582031 " fill-opacity="1" fill-rule="evenodd"/><path fill="#000000" d="M 306.183594 653.648438 C 286.179688 653.648438 269.914062 669.90625 269.914062 689.902344 L 269.914062 788.242188 C 269.914062 808.238281 286.179688 824.496094 306.183594 824.496094 L 467.523438 824.496094 C 487.527344 824.496094 503.792969 808.238281 503.792969 788.242188 L 503.792969 689.902344 C 503.792969 669.90625 487.527344 653.648438 467.523438 653.648438 Z M 467.523438 829.511719 L 306.183594 829.511719 C 283.417969 829.511719 264.898438 811 264.898438 788.242188 L 264.898438 689.902344 C 264.898438 667.144531 283.417969 648.632812 306.183594 648.632812 L 467.523438 648.632812 C 490.289062 648.632812 508.808594 667.144531 508.808594 689.902344 L 508.808594 788.242188 C 508.808594 811 490.289062 829.511719 467.523438 829.511719 Z M 467.523438 829.511719 " fill-opacity="1" fill-rule="evenodd"/><path fill="#000000" d="M 551.15625 802.835938 L 518.875 802.835938 C 517.488281 802.835938 516.367188 801.714844 516.367188 800.328125 C 516.367188 798.945312 517.488281 797.820312 518.875 797.820312 L 551.15625 797.820312 C 552.542969 797.820312 553.664062 798.945312 553.664062 800.328125 C 553.664062 801.714844 552.542969 802.835938 551.15625 802.835938 Z M 551.15625 802.835938 " fill-opacity="1" fill-rule="evenodd"/><path fill="#000000" d="M 551.15625 816.179688 L 518.875 816.179688 C 517.488281 816.179688 516.367188 815.054688 516.367188 813.671875 C 516.367188 812.285156 517.488281 811.164062 518.875 811.164062 L 551.15625 811.164062 C 552.542969 811.164062 553.664062 812.285156 553.664062 813.671875 C 553.664062 815.054688 552.542969 816.179688 551.15625 816.179688 Z M 551.15625 816.179688 " fill-opacity="1" fill-rule="evenodd"/><path fill="#000000" d="M 551.15625 829.511719 L 518.875 829.511719 C 517.488281 829.511719 516.367188 828.390625 516.367188 827.003906 C 516.367188 825.621094 517.488281 824.496094 518.875 824.496094 L 551.15625 824.496094 C 552.542969 824.496094 553.664062 825.621094 553.664062 827.003906 C 553.664062 828.386719 552.542969 829.511719 551.15625 829.511719 Z M 551.15625 829.511719 " fill-opacity="1" fill-rule="evenodd"/><path fill="#000000" d="M 535.015625 653.648438 C 526.820312 653.648438 520.148438 660.316406 520.148438 668.511719 C 520.148438 676.703125 526.816406 683.371094 535.015625 683.371094 C 543.214844 683.371094 549.882812 676.707031 549.882812 668.511719 C 549.882812 660.3125 543.214844 653.648438 535.015625 653.648438 Z M 535.015625 688.386719 C 524.054688 688.386719 515.132812 679.46875 515.132812 668.511719 C 515.132812 657.546875 524.054688 648.632812 535.015625 648.632812 C 545.976562 648.632812 554.902344 657.546875 554.902344 668.511719 C 554.902344 679.464844 545.976562 688.386719 535.015625 688.386719 Z M 535.015625 688.386719 " fill-opacity="1" fill-rule="evenodd"/><path fill="#000000" d="M 535.015625 688.386719 C 533.632812 688.386719 532.507812 687.265625 532.507812 685.878906 L 532.507812 651.140625 C 532.507812 649.753906 533.632812 648.632812 535.015625 648.632812 C 536.402344 648.632812 537.523438 649.757812 537.523438 651.140625 L 537.523438 685.878906 C 537.523438 687.265625 536.402344 688.386719 535.015625 688.386719 Z M 535.015625 688.386719 " fill-opacity="1" fill-rule="evenodd"/><g clip-path="url(#0fab3b7718)"><path fill="#000000" d="M 317.746094 883.140625 L 288.929688 883.140625 C 287.546875 883.140625 286.421875 882.019531 286.421875 880.636719 L 286.421875 856.074219 C 286.421875 854.691406 287.546875 853.570312 288.929688 853.570312 C 290.316406 853.566406 291.4375 854.691406 291.4375 856.074219 L 291.4375 878.128906 L 316.222656 878.128906 L 328.328125 854.921875 C 328.96875 853.691406 330.484375 853.214844 331.710938 853.855469 C 332.9375 854.496094 333.414062 856.011719 332.777344 857.238281 L 319.972656 881.796875 C 319.542969 882.625 318.679688 883.140625 317.746094 883.140625 Z M 317.746094 883.140625 " fill-opacity="1" fill-rule="evenodd"/></g><g clip-path="url(#8b4934fc19)"><path fill="#000000" d="M 521.070312 883.140625 L 492.25 883.140625 C 491.316406 883.140625 490.457031 882.625 490.027344 881.796875 L 477.21875 857.238281 C 476.578125 856.011719 477.054688 854.496094 478.28125 853.855469 C 479.511719 853.214844 481.027344 853.691406 481.667969 854.921875 L 493.769531 878.128906 L 518.5625 878.128906 L 518.5625 856.074219 C 518.5625 854.691406 519.683594 853.570312 521.070312 853.570312 C 522.453125 853.566406 523.578125 854.691406 523.578125 856.074219 L 523.578125 880.632812 C 523.578125 882.019531 522.453125 883.140625 521.070312 883.140625 Z M 521.070312 883.140625 " fill-opacity="1" fill-rule="evenodd"/></g><path fill="#000000" d="M 404.996094 598.4375 C 404.414062 598.4375 403.828125 598.234375 403.355469 597.824219 L 361.464844 561.554688 C 360.421875 560.648438 360.308594 559.066406 361.21875 558.015625 C 362.117188 556.972656 363.707031 556.859375 364.75 557.769531 L 406.644531 594.035156 C 407.6875 594.945312 407.800781 596.523438 406.890625 597.570312 C 406.394531 598.144531 405.703125 598.4375 404.996094 598.4375 Z M 404.996094 598.4375 " fill-opacity="1" fill-rule="evenodd"/><path fill="#000000" d="M 404.996094 598.4375 C 404.296875 598.4375 403.597656 598.144531 403.101562 597.570312 C 402.195312 596.523438 402.304688 594.945312 403.355469 594.035156 L 445.242188 557.769531 C 446.292969 556.859375 447.875 556.972656 448.78125 558.015625 C 449.691406 559.066406 449.574219 560.648438 448.527344 561.554688 L 406.644531 597.824219 C 406.167969 598.234375 405.578125 598.4375 404.996094 598.4375 Z M 404.996094 598.4375 " fill-opacity="1" fill-rule="evenodd"/><path fill="#000000" d="M 431.144531 624.574219 C 429.761719 624.574219 428.636719 623.453125 428.636719 622.070312 C 428.636719 609.035156 418.035156 598.4375 404.996094 598.4375 C 391.964844 598.4375 381.355469 609.035156 381.355469 622.070312 C 381.355469 623.453125 380.234375 624.578125 378.847656 624.578125 C 377.464844 624.574219 376.339844 623.453125 376.339844 622.070312 C 376.339844 606.273438 389.195312 593.421875 404.996094 593.421875 C 420.796875 593.421875 433.652344 606.273438 433.652344 622.070312 C 433.652344 623.453125 432.53125 624.578125 431.144531 624.574219 Z M 431.144531 624.574219 " fill-opacity="1" fill-rule="evenodd"/><path fill="#000000" d="M 535.015625 709.082031 C 529.078125 709.082031 524.246094 713.90625 524.246094 719.847656 C 524.246094 725.785156 529.078125 730.617188 535.015625 730.617188 C 540.953125 730.617188 545.789062 725.785156 545.789062 719.847656 C 545.789062 713.90625 540.953125 709.082031 535.015625 709.082031 Z M 535.015625 735.625 C 526.308594 735.625 519.226562 728.546875 519.226562 719.847656 C 519.226562 711.144531 526.308594 704.066406 535.015625 704.066406 C 543.722656 704.066406 550.804688 711.144531 550.804688 719.847656 C 550.804688 728.546875 543.722656 735.625 535.015625 735.625 Z M 535.015625 735.625 " fill-opacity="1" fill-rule="evenodd"/><path fill="#000000" d="M 535.015625 747.535156 C 529.078125 747.535156 524.246094 752.359375 524.246094 758.296875 C 524.246094 764.238281 529.078125 769.066406 535.015625 769.066406 C 540.953125 769.066406 545.789062 764.238281 545.789062 758.296875 C 545.789062 752.359375 540.953125 747.535156 535.015625 747.535156 Z M 535.015625 774.078125 C 526.308594 774.078125 519.226562 767 519.226562 758.296875 C 519.226562 749.597656 526.308594 742.519531 535.015625 742.519531 C 543.722656 742.519531 550.804688 749.597656 550.804688 758.296875 C 550.804688 767 543.722656 774.078125 535.015625 774.078125 Z M 535.015625 774.078125 " fill-opacity="1" fill-rule="evenodd"/><path fill="#e0f6ff" d="M 503.792969 788.242188 L 503.792969 689.902344 C 503.792969 669.90625 487.527344 653.648438 467.523438 653.648438 L 306.183594 653.648438 C 286.183594 653.648438 269.917969 669.90625 269.917969 689.902344 L 269.917969 788.242188 C 269.917969 808.234375 286.183594 824.496094 306.183594 824.496094 L 467.523438 824.496094 C 487.527344 824.496094 503.792969 808.238281 503.792969 788.242188 Z M 503.792969 788.242188 " fill-opacity="1" fill-rule="evenodd"/><path fill="#ffe082" d="M 381.488281 619.5625 L 428.503906 619.5625 C 427.25 607.703125 417.1875 598.4375 404.996094 598.4375 C 392.8125 598.4375 382.746094 607.703125 381.488281 619.5625 Z M 381.488281 619.5625 " fill-opacity="1" fill-rule="evenodd"/><path fill="#ffe082" d="M 532.507812 653.859375 C 525.5 655.054688 520.148438 661.167969 520.148438 668.511719 C 520.148438 675.851562 525.5 681.964844 532.507812 683.160156 Z M 532.507812 653.859375 " fill-opacity="1" fill-rule="evenodd"/><path fill="#ffe082" d="M 537.523438 653.859375 L 537.523438 683.160156 C 544.53125 681.964844 549.882812 675.851562 549.882812 668.511719 C 549.882812 661.167969 544.53125 655.054688 537.523438 653.859375 Z M 537.523438 653.859375 " fill-opacity="1" fill-rule="evenodd"/><path fill="#ffe082" d="M 545.789062 719.847656 C 545.789062 713.90625 540.953125 709.082031 535.015625 709.082031 C 529.078125 709.082031 524.242188 713.90625 524.242188 719.847656 C 524.242188 725.785156 529.078125 730.617188 535.015625 730.617188 C 540.953125 730.617188 545.789062 725.785156 545.789062 719.847656 Z M 545.789062 719.847656 " fill-opacity="1" fill-rule="evenodd"/><path fill="#ffe082" d="M 545.789062 758.296875 C 545.789062 752.359375 540.953125 747.535156 535.015625 747.535156 C 529.078125 747.535156 524.242188 752.359375 524.242188 758.296875 C 524.242188 764.238281 529.078125 769.0625 535.015625 769.0625 C 540.953125 769.0625 545.789062 764.238281 545.789062 758.296875 Z M 545.789062 758.296875 " fill-opacity="1" fill-rule="evenodd"/><path fill="#afb6b9" d="M 316.222656 878.128906 L 326.417969 858.585938 L 291.4375 858.585938 L 291.4375 878.128906 Z M 316.222656 878.128906 " fill-opacity="1" fill-rule="evenodd"/><path fill="#afb6b9" d="M 483.578125 858.585938 L 493.769531 878.128906 L 518.5625 878.128906 L 518.5625 858.585938 Z M 483.578125 858.585938 " fill-opacity="1" fill-rule="evenodd"/></svg>