<svg xmlns="http://www.w3.org/2000/svg" xmlns:xlink="http://www.w3.org/1999/xlink" width="1080" zoomAndPan="magnify" viewBox="0 0 810 809.999993" height="1080" preserveAspectRatio="xMidYMid meet" version="1.0"><defs><clipPath id="e10ba5ce81"><path d="M 149 692 L 251 692 L 251 756.492188 L 149 756.492188 Z M 149 692 " clip-rule="nonzero"/></clipPath><clipPath id="ff4291fe2b"><path d="M 559 692 L 661 692 L 661 756.492188 L 559 756.492188 Z M 559 692 " clip-rule="nonzero"/></clipPath></defs><rect x="-81" width="972" fill="#ffffff" y="-80.999999" height="971.999992" fill-opacity="1"/><rect x="-81" width="972" fill="#ffffff" y="-80.999999" height="971.999992" fill-opacity="1"/><path fill="#ff7f62" d="M 155.167969 692.957031 L 654.921875 692.957031 C 657.902344 692.957031 660.320312 695.378906 660.320312 698.359375 L 660.320312 703.761719 L 712.945312 703.761719 C 734.8125 703.761719 752.601562 685.964844 752.601562 664.09375 L 752.601562 228.566406 C 752.601562 206.695312 734.8125 188.902344 712.945312 188.902344 L 466.496094 188.902344 C 466.652344 190.683594 466.730469 192.484375 466.730469 194.304688 C 466.730469 197.285156 464.3125 199.703125 461.332031 199.703125 L 348.839844 199.703125 C 348.808594 199.703125 348.777344 199.703125 348.746094 199.703125 C 348.714844 199.703125 348.683594 199.703125 348.652344 199.703125 C 348.652344 199.703125 348.648438 199.703125 348.648438 199.703125 C 345.710938 199.648438 343.34375 197.253906 343.34375 194.304688 C 343.34375 192.484375 343.425781 190.683594 343.578125 188.902344 L 97.132812 188.902344 C 75.265625 188.902344 57.476562 206.695312 57.476562 228.566406 L 57.476562 664.097656 C 57.476562 685.96875 75.265625 703.761719 97.132812 703.761719 L 149.769531 703.761719 L 149.769531 698.359375 C 149.769531 695.378906 152.1875 692.957031 155.167969 692.957031 Z M 539.648438 641.140625 L 192.308594 641.140625 C 143.300781 641.140625 103.433594 601.265625 103.433594 552.246094 L 103.433594 340.417969 C 103.433594 291.398438 143.300781 251.523438 192.308594 251.523438 L 539.648438 251.519531 C 588.65625 251.519531 628.523438 291.398438 628.523438 340.417969 L 628.527344 552.246094 C 628.527344 601.261719 588.65625 641.140625 539.648438 641.140625 Z M 684.945312 521.738281 C 666.199219 521.738281 650.957031 506.488281 650.957031 487.742188 C 650.957031 469.003906 666.199219 453.757812 684.945312 453.757812 C 703.691406 453.757812 718.933594 469.003906 718.933594 487.742188 C 718.9375 506.488281 703.691406 521.738281 684.945312 521.738281 Z M 719.695312 641.140625 L 650.195312 641.140625 C 647.214844 641.140625 644.796875 638.722656 644.796875 635.738281 C 644.796875 632.757812 647.214844 630.339844 650.195312 630.339844 L 719.695312 630.339844 C 722.675781 630.339844 725.09375 632.757812 725.09375 635.738281 C 725.09375 638.71875 722.675781 641.140625 719.695312 641.140625 Z M 719.695312 612.417969 L 650.195312 612.417969 C 647.214844 612.417969 644.796875 610 644.796875 607.019531 C 644.796875 604.035156 647.214844 601.617188 650.195312 601.617188 L 719.695312 601.613281 C 722.675781 601.613281 725.09375 604.035156 725.09375 607.019531 C 725.09375 610 722.675781 612.417969 719.695312 612.417969 Z M 719.695312 583.679688 L 650.195312 583.679688 C 647.214844 583.679688 644.796875 581.261719 644.796875 578.28125 C 644.796875 575.296875 647.214844 572.878906 650.195312 572.878906 L 719.695312 572.878906 C 722.675781 572.878906 725.09375 575.300781 725.09375 578.28125 C 725.09375 581.261719 722.675781 583.683594 719.695312 583.679688 Z M 684.945312 438.902344 C 666.199219 438.902344 650.957031 423.65625 650.957031 404.921875 C 650.957031 386.171875 666.199219 370.925781 684.945312 370.925781 C 703.691406 370.925781 718.933594 386.171875 718.933594 404.921875 C 718.9375 423.65625 703.691406 438.90625 684.945312 438.902344 Z M 684.945312 337.152344 C 661.347656 337.152344 642.136719 317.941406 642.136719 294.335938 C 642.140625 270.71875 661.347656 251.523438 684.945312 251.523438 C 681.964844 251.523438 679.546875 253.941406 679.546875 256.921875 L 679.546875 331.753906 C 679.546875 334.734375 681.964844 337.152344 684.945312 337.152344 Z M 690.347656 325.894531 L 690.34375 262.78125 L 690.34375 256.921875 C 690.34375 253.941406 687.929688 251.519531 684.945312 251.523438 C 708.542969 251.519531 727.753906 270.722656 727.753906 294.335938 C 727.753906 317.9375 708.542969 337.152344 684.945312 337.152344 C 687.925781 337.152344 690.347656 334.734375 690.347656 331.75 Z M 690.347656 325.894531 " fill-opacity="1" fill-rule="evenodd"/><path fill="#000000" d="M 97.132812 199.703125 C 81.226562 199.703125 68.273438 212.644531 68.273438 228.566406 L 68.277344 664.09375 C 68.277344 680.015625 81.226562 692.957031 97.132812 692.957031 L 712.941406 692.957031 C 728.863281 692.957031 741.800781 680.015625 741.800781 664.09375 L 741.800781 228.566406 C 741.800781 212.644531 728.863281 199.703125 712.941406 199.703125 Z M 712.945312 703.761719 L 97.132812 703.761719 C 75.265625 703.761719 57.476562 685.96875 57.476562 664.09375 L 57.476562 228.566406 C 57.476562 206.691406 75.265625 188.902344 97.132812 188.902344 L 712.941406 188.902344 C 734.8125 188.902344 752.601562 206.695312 752.601562 228.566406 L 752.601562 664.09375 C 752.601562 685.964844 734.808594 703.761719 712.941406 703.761719 Z M 712.945312 703.761719 " fill-opacity="1" fill-rule="evenodd"/><path fill="#000000" d="M 192.308594 262.324219 C 149.25 262.324219 114.234375 297.347656 114.234375 340.417969 L 114.234375 552.246094 C 114.234375 595.3125 149.25 630.339844 192.308594 630.339844 L 539.648438 630.339844 C 582.707031 630.339844 617.726562 595.3125 617.726562 552.246094 L 617.726562 340.417969 C 617.726562 297.347656 582.707031 262.324219 539.648438 262.324219 Z M 539.648438 641.140625 L 192.308594 641.140625 C 143.300781 641.140625 103.433594 601.265625 103.433594 552.246094 L 103.433594 340.414062 C 103.433594 291.398438 143.300781 251.523438 192.308594 251.523438 L 539.648438 251.519531 C 588.65625 251.519531 628.523438 291.398438 628.523438 340.417969 L 628.527344 552.246094 C 628.527344 601.261719 588.65625 641.140625 539.648438 641.140625 Z M 539.648438 641.140625 " fill-opacity="1" fill-rule="evenodd"/><path fill="#000000" d="M 719.695312 583.679688 L 650.199219 583.679688 C 647.214844 583.679688 644.796875 581.261719 644.796875 578.28125 C 644.796875 575.296875 647.214844 572.878906 650.195312 572.878906 L 719.695312 572.878906 C 722.679688 572.878906 725.097656 575.296875 725.097656 578.28125 C 725.097656 581.261719 722.675781 583.679688 719.695312 583.679688 Z M 719.695312 583.679688 " fill-opacity="1" fill-rule="evenodd"/><path fill="#000000" d="M 719.695312 612.417969 L 650.199219 612.417969 C 647.214844 612.417969 644.796875 610 644.796875 607.019531 C 644.796875 604.035156 647.214844 601.617188 650.195312 601.617188 L 719.695312 601.613281 C 722.679688 601.613281 725.097656 604.035156 725.097656 607.019531 C 725.097656 610 722.675781 612.417969 719.695312 612.417969 Z M 719.695312 612.417969 " fill-opacity="1" fill-rule="evenodd"/><path fill="#000000" d="M 719.695312 641.136719 L 650.199219 641.136719 C 647.214844 641.136719 644.796875 638.71875 644.796875 635.738281 C 644.796875 632.753906 647.214844 630.335938 650.195312 630.335938 L 719.695312 630.335938 C 722.679688 630.335938 725.097656 632.757812 725.097656 635.738281 C 725.097656 638.71875 722.675781 641.140625 719.695312 641.136719 Z M 719.695312 641.136719 " fill-opacity="1" fill-rule="evenodd"/><path fill="#000000" d="M 684.949219 262.324219 C 667.300781 262.324219 652.941406 276.683594 652.941406 294.335938 C 652.941406 311.988281 667.296875 326.351562 684.949219 326.351562 C 702.597656 326.351562 716.953125 311.988281 716.953125 294.335938 C 716.953125 276.683594 702.597656 262.324219 684.949219 262.324219 Z M 684.949219 337.152344 C 661.351562 337.152344 642.140625 317.941406 642.140625 294.335938 C 642.140625 270.71875 661.351562 251.523438 684.949219 251.523438 C 708.546875 251.519531 727.753906 270.722656 727.753906 294.335938 C 727.753906 317.9375 708.542969 337.152344 684.949219 337.152344 Z M 684.949219 337.152344 " fill-opacity="1" fill-rule="evenodd"/><path fill="#000000" d="M 684.949219 337.152344 C 681.964844 337.152344 679.546875 334.734375 679.546875 331.75 L 679.546875 256.921875 C 679.546875 253.941406 681.964844 251.523438 684.949219 251.523438 C 687.929688 251.519531 690.347656 253.941406 690.347656 256.921875 L 690.347656 331.75 C 690.347656 334.734375 687.929688 337.152344 684.949219 337.152344 Z M 684.949219 337.152344 " fill-opacity="1" fill-rule="evenodd"/><g clip-path="url(#e10ba5ce81)"><path fill="#000000" d="M 217.203125 756.660156 L 155.171875 756.660156 C 152.191406 756.660156 149.769531 754.242188 149.769531 751.257812 L 149.769531 698.359375 C 149.769531 695.375 152.1875 692.957031 155.167969 692.957031 C 158.152344 692.957031 160.570312 695.375 160.570312 698.359375 L 160.570312 745.859375 L 213.925781 745.859375 L 239.984375 695.867188 C 241.359375 693.222656 244.625 692.199219 247.265625 693.578125 C 249.910156 694.953125 250.9375 698.21875 249.558594 700.863281 L 221.996094 753.761719 C 221.066406 755.550781 219.210938 756.660156 217.203125 756.660156 Z M 217.203125 756.660156 " fill-opacity="1" fill-rule="evenodd"/></g><g clip-path="url(#ff4291fe2b)"><path fill="#000000" d="M 654.921875 756.660156 L 592.878906 756.660156 C 590.867188 756.660156 589.023438 755.550781 588.09375 753.765625 L 560.515625 700.863281 C 559.140625 698.214844 560.164062 694.953125 562.808594 693.578125 C 565.453125 692.199219 568.714844 693.226562 570.09375 695.867188 L 596.152344 745.859375 L 649.523438 745.859375 L 649.523438 698.359375 C 649.523438 695.375 651.941406 692.957031 654.921875 692.957031 C 657.902344 692.957031 660.320312 695.375 660.320312 698.359375 L 660.320312 751.257812 C 660.320312 754.242188 657.902344 756.660156 654.921875 756.660156 Z M 654.921875 756.660156 " fill-opacity="1" fill-rule="evenodd"/></g><path fill="#000000" d="M 405.039062 143.398438 C 403.789062 143.398438 402.519531 142.964844 401.507812 142.078125 L 311.324219 63.957031 C 309.074219 62 308.835938 58.597656 310.789062 56.332031 C 312.730469 54.082031 316.148438 53.84375 318.398438 55.796875 L 408.582031 133.917969 C 410.832031 135.875 411.070312 139.277344 409.117188 141.527344 C 408.046875 142.765625 406.558594 143.398438 405.039062 143.398438 Z M 405.039062 143.398438 " fill-opacity="1" fill-rule="evenodd"/><path fill="#000000" d="M 405.039062 143.398438 C 403.535156 143.398438 402.027344 142.765625 400.960938 141.527344 C 399.007812 139.277344 399.246094 135.875 401.507812 133.917969 L 491.679688 55.796875 C 493.945312 53.84375 497.347656 54.082031 499.300781 56.332031 C 501.257812 58.597656 501.003906 62 498.753906 63.957031 L 408.582031 142.078125 C 407.554688 142.964844 406.289062 143.398438 405.039062 143.398438 Z M 405.039062 143.398438 " fill-opacity="1" fill-rule="evenodd"/><path fill="#000000" d="M 461.332031 199.703125 C 458.351562 199.703125 455.933594 197.285156 455.933594 194.300781 C 455.933594 166.226562 433.109375 143.398438 405.039062 143.398438 C 376.984375 143.398438 354.144531 166.226562 354.144531 194.300781 C 354.144531 197.285156 351.726562 199.703125 348.746094 199.703125 C 345.765625 199.703125 343.34375 197.285156 343.34375 194.300781 C 343.34375 160.277344 371.019531 132.597656 405.039062 132.597656 C 439.058594 132.597656 466.730469 160.277344 466.730469 194.300781 C 466.730469 197.285156 464.3125 199.703125 461.332031 199.703125 Z M 461.332031 199.703125 " fill-opacity="1" fill-rule="evenodd"/><path fill="#000000" d="M 684.949219 381.726562 C 672.164062 381.726562 661.757812 392.121094 661.757812 404.921875 C 661.757812 417.707031 672.164062 428.117188 684.949219 428.117188 C 697.730469 428.113281 708.136719 417.707031 708.136719 404.921875 C 708.136719 392.121094 697.730469 381.726562 684.949219 381.726562 Z M 684.949219 438.902344 C 666.203125 438.902344 650.957031 423.65625 650.957031 404.921875 C 650.957031 386.171875 666.203125 370.925781 684.949219 370.925781 C 703.691406 370.925781 718.9375 386.171875 718.9375 404.921875 C 718.9375 423.65625 703.691406 438.902344 684.949219 438.902344 Z M 684.949219 438.902344 " fill-opacity="1" fill-rule="evenodd"/><path fill="#000000" d="M 684.949219 464.558594 C 672.164062 464.558594 661.757812 474.953125 661.757812 487.742188 C 661.757812 500.539062 672.164062 510.933594 684.949219 510.933594 C 697.730469 510.933594 708.136719 500.539062 708.136719 487.742188 C 708.136719 474.953125 697.730469 464.558594 684.949219 464.558594 Z M 684.949219 521.738281 C 666.203125 521.738281 650.957031 506.488281 650.957031 487.742188 C 650.957031 469.003906 666.203125 453.757812 684.949219 453.757812 C 703.691406 453.757812 718.9375 469.003906 718.9375 487.742188 C 718.9375 506.488281 703.691406 521.738281 684.949219 521.738281 Z M 684.949219 521.738281 " fill-opacity="1" fill-rule="evenodd"/><path fill="#e0f6ff" d="M 617.726562 552.242188 L 617.726562 340.414062 C 617.726562 297.34375 582.710938 262.320312 539.648438 262.320312 L 192.3125 262.320312 C 149.253906 262.320312 114.234375 297.347656 114.234375 340.414062 L 114.234375 552.242188 C 114.234375 595.3125 149.25 630.335938 192.3125 630.335938 L 539.648438 630.335938 C 582.710938 630.335938 617.726562 595.3125 617.726562 552.242188 Z M 617.726562 552.242188 " fill-opacity="1" fill-rule="evenodd"/><path fill="#ffe082" d="M 354.429688 188.902344 L 455.648438 188.902344 C 452.945312 163.355469 431.285156 143.398438 405.039062 143.398438 C 378.804688 143.398438 357.136719 163.355469 354.429688 188.902344 Z M 354.429688 188.902344 " fill-opacity="1" fill-rule="evenodd"/><path fill="#ffe082" d="M 679.542969 262.78125 C 664.457031 265.355469 652.9375 278.523438 652.9375 294.335938 C 652.9375 310.148438 664.457031 323.320312 679.542969 325.894531 Z M 679.542969 262.78125 " fill-opacity="1" fill-rule="evenodd"/><path fill="#ffe082" d="M 690.34375 262.78125 L 690.347656 325.894531 C 705.433594 323.320312 716.953125 310.148438 716.953125 294.335938 C 716.953125 278.523438 705.433594 265.355469 690.34375 262.78125 Z M 690.34375 262.78125 " fill-opacity="1" fill-rule="evenodd"/><path fill="#ffe082" d="M 708.136719 404.921875 C 708.136719 392.121094 697.730469 381.726562 684.945312 381.726562 C 672.164062 381.726562 661.757812 392.121094 661.757812 404.921875 C 661.757812 417.707031 672.164062 428.117188 684.945312 428.117188 C 697.730469 428.113281 708.136719 417.707031 708.136719 404.921875 Z M 708.136719 404.921875 " fill-opacity="1" fill-rule="evenodd"/><path fill="#ffe082" d="M 708.136719 487.738281 C 708.136719 474.953125 697.730469 464.558594 684.945312 464.558594 C 672.164062 464.558594 661.757812 474.953125 661.757812 487.738281 C 661.757812 500.539062 672.164062 510.933594 684.945312 510.933594 C 697.730469 510.933594 708.136719 500.539062 708.136719 487.738281 Z M 708.136719 487.738281 " fill-opacity="1" fill-rule="evenodd"/><path fill="#afb6b9" d="M 213.925781 745.859375 L 235.871094 703.761719 L 160.570312 703.761719 L 160.570312 745.859375 Z M 213.925781 745.859375 " fill-opacity="1" fill-rule="evenodd"/><path fill="#afb6b9" d="M 574.207031 703.761719 L 596.152344 745.859375 L 649.523438 745.859375 L 649.523438 703.761719 Z M 574.207031 703.761719 " fill-opacity="1" fill-rule="evenodd"/></svg>