<svg xmlns="http://www.w3.org/2000/svg" xmlns:xlink="http://www.w3.org/1999/xlink" width="1080" zoomAndPan="magnify" viewBox="0 0 810 809.999993" height="1080" preserveAspectRatio="xMidYMid meet" version="1.0"><defs><g/><clipPath id="ba6bce3c0b"><path d="M 74.183594 74.183594 L 735.683594 74.183594 L 735.683594 735.683594 L 74.183594 735.683594 Z M 74.183594 74.183594 " clip-rule="nonzero"/></clipPath></defs><g clip-path="url(#ba6bce3c0b)"><path fill="#145da0" d="M 604.289062 604.289062 C 551.050781 657.519531 480.277344 686.832031 404.996094 686.832031 C 329.714844 686.832031 258.941406 657.519531 205.707031 604.289062 C 152.476562 551.050781 123.160156 480.277344 123.160156 404.996094 C 123.160156 329.714844 152.476562 258.941406 205.707031 205.707031 C 258.941406 152.476562 329.714844 123.160156 404.996094 123.160156 C 480.277344 123.160156 551.050781 152.476562 604.289062 205.707031 C 657.519531 258.941406 686.832031 329.714844 686.832031 404.996094 C 686.832031 480.277344 657.519531 551.050781 604.289062 604.289062 Z M 404.996094 74.144531 C 316.621094 74.144531 233.542969 108.5625 171.046875 171.046875 C 108.5625 233.542969 74.144531 316.621094 74.144531 404.996094 C 74.144531 493.371094 108.5625 576.453125 171.046875 638.945312 C 233.542969 701.429688 316.621094 735.847656 404.996094 735.847656 C 493.371094 735.847656 576.453125 701.429688 638.945312 638.945312 C 701.429688 576.453125 735.847656 493.371094 735.847656 404.996094 C 735.847656 316.621094 701.429688 233.542969 638.945312 171.046875 C 576.453125 108.5625 493.371094 74.144531 404.996094 74.144531 " fill-opacity="1" fill-rule="nonzero"/></g><path fill="#145da0" d="M 545.023438 285.238281 L 354.5625 475.703125 L 275.140625 396.273438 C 264.375 385.507812 246.914062 385.507812 236.148438 396.273438 C 225.382812 407.046875 225.382812 424.5 236.148438 435.265625 L 335.066406 534.191406 C 340.453125 539.570312 347.507812 542.261719 354.5625 542.261719 C 361.617188 542.261719 368.679688 539.570312 374.058594 534.191406 L 584.011719 324.230469 C 594.785156 313.464844 594.785156 296.011719 584.011719 285.246094 C 573.242188 274.472656 555.792969 274.480469 545.023438 285.238281 " fill-opacity="1" fill-rule="nonzero"/><g fill="#ffc32c" fill-opacity="1"><g transform="translate(350.999433, 455.546361)"><g><path d="M 0.46875 -35.34375 L 11.71875 -11.71875 L 6.40625 -6.40625 L -17.21875 -17.65625 L -12.703125 -22.171875 L 4.796875 -13.359375 L -4.03125 -30.84375 Z M 0.46875 -35.34375 "/></g></g></g><g fill="#ffc32c" fill-opacity="1"><g transform="translate(369.128482, 437.417312)"><g><path d="M 7.46875 -21.75 C 7.863281 -21.351562 8.25 -20.914062 8.625 -20.4375 L -0.984375 -10.828125 C -0.0664062 -10.035156 0.863281 -9.65625 1.8125 -9.6875 C 2.757812 -9.71875 3.585938 -10.085938 4.296875 -10.796875 C 5.359375 -11.859375 5.644531 -13.039062 5.15625 -14.34375 L 9.6875 -18.875 C 10.375 -17.726562 10.78125 -16.488281 10.90625 -15.15625 C 11.03125 -13.820312 10.84375 -12.492188 10.34375 -11.171875 C 9.84375 -9.847656 9.03125 -8.625 7.90625 -7.5 C 6.550781 -6.144531 5.050781 -5.222656 3.40625 -4.734375 C 1.769531 -4.253906 0.117188 -4.253906 -1.546875 -4.734375 C -3.222656 -5.222656 -4.78125 -6.1875 -6.21875 -7.625 C -7.664062 -9.070312 -8.628906 -10.625 -9.109375 -12.28125 C -9.597656 -13.945312 -9.601562 -15.597656 -9.125 -17.234375 C -8.644531 -18.867188 -7.71875 -20.375 -6.34375 -21.75 C -5 -23.09375 -3.523438 -24.003906 -1.921875 -24.484375 C -0.328125 -24.972656 1.285156 -24.988281 2.921875 -24.53125 C 4.554688 -24.070312 6.070312 -23.144531 7.46875 -21.75 Z M 1.96875 -18.53125 C 1.25 -19.25 0.425781 -19.578125 -0.5 -19.515625 C -1.425781 -19.453125 -2.265625 -19.046875 -3.015625 -18.296875 C -3.722656 -17.585938 -4.113281 -16.78125 -4.1875 -15.875 C -4.257812 -14.96875 -3.976562 -14.082031 -3.34375 -13.21875 Z M 1.96875 -18.53125 "/></g></g></g><g fill="#ffc32c" fill-opacity="1"><g transform="translate(384.426419, 422.119375)"><g><path d="M -5.75 -17.34375 C -6.019531 -18.59375 -6.003906 -19.8125 -5.703125 -21 C -5.398438 -22.1875 -4.796875 -23.234375 -3.890625 -24.140625 L 0.609375 -19.640625 L -0.546875 -18.484375 C -1.609375 -17.421875 -2.171875 -16.394531 -2.234375 -15.40625 C -2.304688 -14.425781 -1.773438 -13.367188 -0.640625 -12.234375 L 5.796875 -5.796875 L 1.53125 -1.53125 L -12.328125 -15.390625 L -8.0625 -19.65625 Z M -5.75 -17.34375 "/></g></g></g><g fill="#ffc32c" fill-opacity="1"><g transform="translate(395.055509, 411.490285)"><g><path d="M -11.625 -18.96875 C -12.363281 -18.226562 -13.1875 -17.835938 -14.09375 -17.796875 C -15.007812 -17.765625 -15.796875 -18.078125 -16.453125 -18.734375 C -17.109375 -19.390625 -17.414062 -20.171875 -17.375 -21.078125 C -17.34375 -21.992188 -16.957031 -22.820312 -16.21875 -23.5625 C -15.488281 -24.289062 -14.664062 -24.671875 -13.75 -24.703125 C -12.84375 -24.742188 -12.0625 -24.4375 -11.40625 -23.78125 C -10.75 -23.125 -10.4375 -22.335938 -10.46875 -21.421875 C -10.507812 -20.515625 -10.894531 -19.695312 -11.625 -18.96875 Z M -8.0625 -19.65625 L 5.796875 -5.796875 L 1.53125 -1.53125 L -12.328125 -15.390625 Z M -8.0625 -19.65625 "/></g></g></g><g fill="#ffc32c" fill-opacity="1"><g transform="translate(402.381631, 404.164163)"><g><path d="M -1.828125 -18.828125 L -4.125 -16.53125 L 6.203125 -6.203125 L 1.96875 -1.96875 L -8.359375 -12.296875 L -9.90625 -10.75 L -13.4375 -14.28125 L -11.890625 -15.828125 L -12.28125 -16.21875 C -13.988281 -17.925781 -14.796875 -19.707031 -14.703125 -21.5625 C -14.617188 -23.425781 -13.632812 -25.300781 -11.75 -27.1875 C -11.425781 -27.507812 -11.179688 -27.734375 -11.015625 -27.859375 L -7.421875 -24.265625 C -8.285156 -23.503906 -8.742188 -22.816406 -8.796875 -22.203125 C -8.847656 -21.585938 -8.507812 -20.914062 -7.78125 -20.1875 L -7.65625 -20.0625 L -5.359375 -22.359375 Z M -1.828125 -18.828125 "/></g></g></g><g fill="#ffc32c" fill-opacity="1"><g transform="translate(411.321985, 395.223809)"><g><path d="M -11.625 -18.96875 C -12.363281 -18.226562 -13.1875 -17.835938 -14.09375 -17.796875 C -15.007812 -17.765625 -15.796875 -18.078125 -16.453125 -18.734375 C -17.109375 -19.390625 -17.414062 -20.171875 -17.375 -21.078125 C -17.34375 -21.992188 -16.957031 -22.820312 -16.21875 -23.5625 C -15.488281 -24.289062 -14.664062 -24.671875 -13.75 -24.703125 C -12.84375 -24.742188 -12.0625 -24.4375 -11.40625 -23.78125 C -10.75 -23.125 -10.4375 -22.335938 -10.46875 -21.421875 C -10.507812 -20.515625 -10.894531 -19.695312 -11.625 -18.96875 Z M -8.0625 -19.65625 L 5.796875 -5.796875 L 1.53125 -1.53125 L -12.328125 -15.390625 Z M -8.0625 -19.65625 "/></g></g></g><g fill="#ffc32c" fill-opacity="1"><g transform="translate(418.648107, 387.897686)"><g><path d="M 7.46875 -21.75 C 7.863281 -21.351562 8.25 -20.914062 8.625 -20.4375 L -0.984375 -10.828125 C -0.0664062 -10.035156 0.863281 -9.65625 1.8125 -9.6875 C 2.757812 -9.71875 3.585938 -10.085938 4.296875 -10.796875 C 5.359375 -11.859375 5.644531 -13.039062 5.15625 -14.34375 L 9.6875 -18.875 C 10.375 -17.726562 10.78125 -16.488281 10.90625 -15.15625 C 11.03125 -13.820312 10.84375 -12.492188 10.34375 -11.171875 C 9.84375 -9.847656 9.03125 -8.625 7.90625 -7.5 C 6.550781 -6.144531 5.050781 -5.222656 3.40625 -4.734375 C 1.769531 -4.253906 0.117188 -4.253906 -1.546875 -4.734375 C -3.222656 -5.222656 -4.78125 -6.1875 -6.21875 -7.625 C -7.664062 -9.070312 -8.628906 -10.625 -9.109375 -12.28125 C -9.597656 -13.945312 -9.601562 -15.597656 -9.125 -17.234375 C -8.644531 -18.867188 -7.71875 -20.375 -6.34375 -21.75 C -5 -23.09375 -3.523438 -24.003906 -1.921875 -24.484375 C -0.328125 -24.972656 1.285156 -24.988281 2.921875 -24.53125 C 4.554688 -24.070312 6.070312 -23.144531 7.46875 -21.75 Z M 1.96875 -18.53125 C 1.25 -19.25 0.425781 -19.578125 -0.5 -19.515625 C -1.425781 -19.453125 -2.265625 -19.046875 -3.015625 -18.296875 C -3.722656 -17.585938 -4.113281 -16.78125 -4.1875 -15.875 C -4.257812 -14.96875 -3.976562 -14.082031 -3.34375 -13.21875 Z M 1.96875 -18.53125 "/></g></g></g><g fill="#ffc32c" fill-opacity="1"><g transform="translate(433.946045, 372.599749)"><g><path d="M -6.25 -7.65625 C -7.675781 -9.082031 -8.65625 -10.597656 -9.1875 -12.203125 C -9.726562 -13.816406 -9.820312 -15.375 -9.46875 -16.875 C -9.125 -18.382812 -8.378906 -19.710938 -7.234375 -20.859375 C -6.328125 -21.765625 -5.3125 -22.40625 -4.1875 -22.78125 C -3.0625 -23.15625 -1.953125 -23.234375 -0.859375 -23.015625 L -7.3125 -29.46875 L -3.0625 -33.71875 L 15.328125 -15.328125 L 11.078125 -11.078125 L 9.09375 -13.0625 C 9.351562 -12.007812 9.316406 -10.914062 8.984375 -9.78125 C 8.648438 -8.644531 7.992188 -7.585938 7.015625 -6.609375 C 5.867188 -5.460938 4.535156 -4.71875 3.015625 -4.375 C 1.503906 -4.039062 -0.0546875 -4.144531 -1.671875 -4.6875 C -3.296875 -5.238281 -4.820312 -6.226562 -6.25 -7.65625 Z M 4.15625 -18 C 3.09375 -19.0625 1.957031 -19.601562 0.75 -19.625 C -0.445312 -19.65625 -1.46875 -19.25 -2.3125 -18.40625 C -3.15625 -17.5625 -3.566406 -16.539062 -3.546875 -15.34375 C -3.535156 -14.15625 -3 -13.03125 -1.9375 -11.96875 C -0.882812 -10.914062 0.242188 -10.367188 1.453125 -10.328125 C 2.671875 -10.296875 3.703125 -10.703125 4.546875 -11.546875 C 5.390625 -12.390625 5.796875 -13.410156 5.765625 -14.609375 C 5.742188 -15.816406 5.207031 -16.945312 4.15625 -18 Z M 4.15625 -18 "/></g></g></g><g fill="#ffc32c" fill-opacity="1"><g transform="translate(450.808544, 355.73725)"><g/></g></g><g fill="#ffc32c" fill-opacity="1"><g transform="translate(456.073414, 350.472379)"><g><path d="M 2.515625 -9.078125 L 8.0625 -14.625 L 11.34375 -11.34375 L 1.53125 -1.53125 L -15.90625 -18.96875 L -11.640625 -23.234375 Z M 2.515625 -9.078125 "/></g></g></g><g fill="#ffc32c" fill-opacity="1"><g transform="translate(467.919384, 338.62641)"><g><path d="M -11.625 -18.96875 C -12.363281 -18.226562 -13.1875 -17.835938 -14.09375 -17.796875 C -15.007812 -17.765625 -15.796875 -18.078125 -16.453125 -18.734375 C -17.109375 -19.390625 -17.414062 -20.171875 -17.375 -21.078125 C -17.34375 -21.992188 -16.957031 -22.820312 -16.21875 -23.5625 C -15.488281 -24.289062 -14.664062 -24.671875 -13.75 -24.703125 C -12.84375 -24.742188 -12.0625 -24.4375 -11.40625 -23.78125 C -10.75 -23.125 -10.4375 -22.335938 -10.46875 -21.421875 C -10.507812 -20.515625 -10.894531 -19.695312 -11.625 -18.96875 Z M -8.0625 -19.65625 L 5.796875 -5.796875 L 1.53125 -1.53125 L -12.328125 -15.390625 Z M -8.0625 -19.65625 "/></g></g></g><g fill="#ffc32c" fill-opacity="1"><g transform="translate(475.245506, 331.300287)"><g><path d="M 7.390625 -6.984375 C 6.179688 -5.773438 4.894531 -4.898438 3.53125 -4.359375 C 2.175781 -3.828125 0.863281 -3.648438 -0.40625 -3.828125 C -1.675781 -4.003906 -2.789062 -4.507812 -3.75 -5.34375 L 0.453125 -9.546875 C 0.984375 -9.117188 1.59375 -8.945312 2.28125 -9.03125 C 2.976562 -9.125 3.617188 -9.460938 4.203125 -10.046875 C 4.734375 -10.578125 5.039062 -11.09375 5.125 -11.59375 C 5.207031 -12.09375 5.082031 -12.507812 4.75 -12.84375 C 4.351562 -13.238281 3.847656 -13.320312 3.234375 -13.09375 C 2.628906 -12.875 1.753906 -12.421875 0.609375 -11.734375 C -0.617188 -10.960938 -1.691406 -10.375 -2.609375 -9.96875 C -3.535156 -9.570312 -4.515625 -9.40625 -5.546875 -9.46875 C -6.585938 -9.539062 -7.578125 -10.046875 -8.515625 -10.984375 C -9.316406 -11.785156 -9.820312 -12.734375 -10.03125 -13.828125 C -10.25 -14.929688 -10.117188 -16.09375 -9.640625 -17.3125 C -9.171875 -18.539062 -8.34375 -19.75 -7.15625 -20.9375 C -5.425781 -22.664062 -3.628906 -23.601562 -1.765625 -23.75 C 0.0859375 -23.90625 1.804688 -23.335938 3.390625 -22.046875 L -0.53125 -18.125 C -1.082031 -18.53125 -1.675781 -18.695312 -2.3125 -18.625 C -2.957031 -18.5625 -3.570312 -18.238281 -4.15625 -17.65625 C -4.644531 -17.164062 -4.925781 -16.691406 -5 -16.234375 C -5.070312 -15.773438 -4.941406 -15.378906 -4.609375 -15.046875 C -4.210938 -14.648438 -3.703125 -14.5625 -3.078125 -14.78125 C -2.460938 -15.007812 -1.609375 -15.472656 -0.515625 -16.171875 C 0.773438 -16.921875 1.867188 -17.492188 2.765625 -17.890625 C 3.660156 -18.285156 4.640625 -18.441406 5.703125 -18.359375 C 6.765625 -18.273438 7.789062 -17.757812 8.78125 -16.8125 C 9.582031 -16.007812 10.070312 -15.054688 10.25 -13.953125 C 10.4375 -12.859375 10.285156 -11.703125 9.796875 -10.484375 C 9.316406 -9.273438 8.515625 -8.109375 7.390625 -6.984375 Z M 7.390625 -6.984375 "/></g></g></g><g fill="#ffc32c" fill-opacity="1"><g transform="translate(489.103058, 317.442736)"><g><path d="M 5.65625 -12.875 L 9.265625 -9.265625 L 7.109375 -7.109375 C 5.566406 -5.566406 3.984375 -4.738281 2.359375 -4.625 C 0.742188 -4.519531 -0.910156 -5.316406 -2.609375 -7.015625 L -8.125 -12.53125 L -9.8125 -10.84375 L -13.34375 -14.375 L -11.65625 -16.0625 L -15.03125 -19.4375 L -10.78125 -23.6875 L -7.40625 -20.3125 L -4.625 -23.09375 L -1.09375 -19.5625 L -3.875 -16.78125 L 1.6875 -11.21875 C 2.101562 -10.800781 2.5 -10.601562 2.875 -10.625 C 3.25 -10.644531 3.671875 -10.890625 4.140625 -11.359375 Z M 5.65625 -12.875 "/></g></g></g><g fill="#ffc32c" fill-opacity="1"><g transform="translate(499.185787, 307.360007)"><g><path d="M -11.625 -18.96875 C -12.363281 -18.226562 -13.1875 -17.835938 -14.09375 -17.796875 C -15.007812 -17.765625 -15.796875 -18.078125 -16.453125 -18.734375 C -17.109375 -19.390625 -17.414062 -20.171875 -17.375 -21.078125 C -17.34375 -21.992188 -16.957031 -22.820312 -16.21875 -23.5625 C -15.488281 -24.289062 -14.664062 -24.671875 -13.75 -24.703125 C -12.84375 -24.742188 -12.0625 -24.4375 -11.40625 -23.78125 C -10.75 -23.125 -10.4375 -22.335938 -10.46875 -21.421875 C -10.507812 -20.515625 -10.894531 -19.695312 -11.625 -18.96875 Z M -8.0625 -19.65625 L 5.796875 -5.796875 L 1.53125 -1.53125 L -12.328125 -15.390625 Z M -8.0625 -19.65625 "/></g></g></g><g fill="#ffc32c" fill-opacity="1"><g transform="translate(506.51191, 300.033884)"><g><path d="M -4.03125 -24 C -2.40625 -25.625 -0.582031 -26.390625 1.4375 -26.296875 C 3.46875 -26.210938 5.398438 -25.253906 7.234375 -23.421875 L 15.328125 -15.328125 L 11.109375 -11.109375 L 3.578125 -18.640625 C 2.648438 -19.566406 1.6875 -20.039062 0.6875 -20.0625 C -0.300781 -20.09375 -1.203125 -19.703125 -2.015625 -18.890625 C -2.828125 -18.078125 -3.210938 -17.175781 -3.171875 -16.1875 C -3.140625 -15.207031 -2.660156 -14.253906 -1.734375 -13.328125 L 5.796875 -5.796875 L 1.53125 -1.53125 L -12.328125 -15.390625 L -8.0625 -19.65625 L -6.21875 -17.8125 C -6.40625 -18.851562 -6.3125 -19.914062 -5.9375 -21 C -5.570312 -22.09375 -4.9375 -23.09375 -4.03125 -24 Z M -4.03125 -24 "/></g></g></g><g fill="#ffc32c" fill-opacity="1"><g transform="translate(523.250242, 283.295552)"><g><path d="M -7.234375 -20.859375 C -6.253906 -21.835938 -5.195312 -22.492188 -4.0625 -22.828125 C -2.9375 -23.171875 -1.859375 -23.222656 -0.828125 -22.984375 L -2.78125 -24.9375 L 1.46875 -29.1875 L 15.3125 -15.34375 C 16.582031 -14.070312 17.484375 -12.664062 18.015625 -11.125 C 18.546875 -9.582031 18.597656 -7.988281 18.171875 -6.34375 C 17.742188 -4.695312 16.757812 -3.101562 15.21875 -1.5625 C 13.164062 0.488281 11.015625 1.664062 8.765625 1.96875 C 6.523438 2.28125 4.488281 1.695312 2.65625 0.21875 L 6.84375 -3.96875 C 7.507812 -3.570312 8.242188 -3.46875 9.046875 -3.65625 C 9.859375 -3.851562 10.628906 -4.316406 11.359375 -5.046875 C 12.234375 -5.921875 12.675781 -6.867188 12.6875 -7.890625 C 12.707031 -8.921875 12.164062 -9.988281 11.0625 -11.09375 L 9.09375 -13.0625 C 9.320312 -12 9.273438 -10.898438 8.953125 -9.765625 C 8.640625 -8.640625 7.992188 -7.585938 7.015625 -6.609375 C 5.867188 -5.460938 4.535156 -4.71875 3.015625 -4.375 C 1.503906 -4.039062 -0.0546875 -4.144531 -1.671875 -4.6875 C -3.296875 -5.238281 -4.820312 -6.226562 -6.25 -7.65625 C -7.675781 -9.082031 -8.65625 -10.597656 -9.1875 -12.203125 C -9.726562 -13.816406 -9.820312 -15.375 -9.46875 -16.875 C -9.125 -18.382812 -8.378906 -19.710938 -7.234375 -20.859375 Z M 4.15625 -18 C 3.09375 -19.0625 1.957031 -19.601562 0.75 -19.625 C -0.445312 -19.65625 -1.46875 -19.25 -2.3125 -18.40625 C -3.15625 -17.5625 -3.566406 -16.539062 -3.546875 -15.34375 C -3.535156 -14.15625 -3 -13.03125 -1.9375 -11.96875 C -0.882812 -10.914062 0.242188 -10.367188 1.453125 -10.328125 C 2.671875 -10.296875 3.703125 -10.703125 4.546875 -11.546875 C 5.390625 -12.390625 5.796875 -13.410156 5.765625 -14.609375 C 5.742188 -15.816406 5.207031 -16.945312 4.15625 -18 Z M 4.15625 -18 "/></g></g></g></svg>