<svg xmlns="http://www.w3.org/2000/svg" xmlns:xlink="http://www.w3.org/1999/xlink" width="1080" zoomAndPan="magnify" viewBox="0 0 810 809.999993" height="1080" preserveAspectRatio="xMidYMid meet" version="1.0"><defs><clipPath id="7f6855f68c"><path d="M 129.957031 81 L 669 81 L 669 745.5 L 129.957031 745.5 Z M 129.957031 81 " clip-rule="nonzero"/></clipPath><clipPath id="ea00cec33c"><path d="M 622 642 L 679.707031 642 L 679.707031 700 L 622 700 Z M 622 642 " clip-rule="nonzero"/></clipPath><clipPath id="6cfdfbc2ab"><path d="M 622 561 L 679.707031 561 L 679.707031 620 L 622 620 Z M 622 561 " clip-rule="nonzero"/></clipPath></defs><rect x="-81" width="972" fill="#ffffff" y="-80.999999" height="971.999992" fill-opacity="1"/><rect x="-81" width="972" fill="#ffffff" y="-80.999999" height="971.999992" fill-opacity="1"/><path fill="#ffd7dd" d="M 656.789062 92.492188 L 622.429688 688.179688 L 553.710938 734 L 244.476562 734 L 175.757812 688.179688 L 141.398438 92.492188 Z M 656.789062 92.492188 " fill-opacity="1" fill-rule="nonzero"/><path fill="#e6f4f6" d="M 230.160156 573.625 L 198.664062 149.769531 L 599.523438 149.769531 L 568.027344 573.625 Z M 230.160156 573.625 " fill-opacity="1" fill-rule="nonzero"/><path fill="#b0dae4" d="M 296.386719 333.035156 C 296.386719 333.035156 263.28125 354.429688 245.070312 361.675781 C 237.21875 364.800781 225.96875 367.816406 215.097656 370.445312 L 230.171875 573.601562 L 568.039062 573.601562 L 583.386719 367 C 573.03125 365.945312 560.949219 364.273438 553.140625 361.675781 C 534.554688 355.46875 501.78125 333.035156 501.78125 333.035156 C 501.78125 333.035156 469.558594 361.675781 450.421875 361.675781 C 431.285156 361.675781 399.105469 333.035156 399.105469 333.035156 C 399.105469 333.035156 366.882812 361.675781 347.746094 361.675781 C 328.609375 361.675781 296.386719 333.035156 296.386719 333.035156 Z M 296.386719 333.035156 " fill-opacity="1" fill-rule="evenodd"/><path fill="#586597" d="M 338.886719 441.84375 C 338.207031 441.839844 337.535156 441.898438 336.851562 442.019531 C 336.167969 442.136719 335.511719 442.316406 334.863281 442.554688 C 334.226562 442.792969 333.609375 443.085938 333.015625 443.433594 C 332.4375 443.78125 331.886719 444.179688 331.363281 444.628906 C 330.835938 445.078125 330.363281 445.566406 329.929688 446.101562 C 329.492188 446.632812 329.113281 447.203125 328.777344 447.800781 C 328.453125 448.402344 328.183594 449.027344 327.972656 449.679688 C 327.761719 450.328125 327.601562 450.996094 327.5 451.671875 C 327.402344 452.351562 327.367188 453.035156 327.390625 453.71875 C 327.414062 454.402344 327.5 455.078125 327.648438 455.75 C 327.792969 456.417969 328.007812 457.070312 328.261719 457.703125 C 328.519531 458.335938 328.84375 458.941406 329.214844 459.515625 C 329.582031 460.089844 330.007812 460.628906 330.464844 461.128906 C 330.9375 461.628906 331.449219 462.085938 332 462.492188 C 332.558594 462.902344 333.152344 463.261719 333.765625 463.566406 C 334.378906 463.871094 335.007812 464.117188 335.667969 464.308594 L 384.789062 479.03125 L 384.789062 493.4375 C 384.757812 494.207031 384.8125 494.96875 384.957031 495.722656 C 385.09375 496.480469 385.292969 497.21875 385.574219 497.933594 C 385.851562 498.648438 386.199219 499.328125 386.601562 499.976562 C 387.015625 500.621094 387.496094 501.21875 388.023438 501.769531 C 388.550781 502.320312 389.132812 502.8125 389.769531 503.246094 C 390.40625 503.683594 391.085938 504.046875 391.792969 504.347656 C 392.496094 504.644531 393.222656 504.871094 393.972656 505.023438 C 394.722656 505.175781 395.484375 505.253906 396.253906 505.253906 C 397.027344 505.253906 397.789062 505.175781 398.535156 505.023438 C 399.285156 504.871094 400.023438 504.648438 400.730469 504.347656 C 401.433594 504.046875 402.105469 503.683594 402.742188 503.25 C 403.367188 502.816406 403.949219 502.320312 404.488281 501.773438 C 405.011719 501.21875 405.480469 500.621094 405.894531 499.976562 C 406.3125 499.328125 406.65625 498.648438 406.9375 497.933594 C 407.214844 497.21875 407.417969 496.480469 407.539062 495.722656 C 407.664062 494.96875 407.71875 494.207031 407.695312 493.4375 L 407.695312 470.527344 C 407.695312 469.917969 407.652344 469.308594 407.550781 468.703125 C 407.453125 468.101562 407.304688 467.507812 407.113281 466.925781 C 406.925781 466.347656 406.691406 465.785156 406.410156 465.242188 C 406.128906 464.699219 405.796875 464.179688 405.425781 463.691406 C 405.058594 463.199219 404.667969 462.742188 404.230469 462.316406 C 403.769531 461.890625 403.300781 461.5 402.796875 461.148438 C 402.296875 460.800781 401.78125 460.492188 401.234375 460.226562 C 400.671875 459.960938 400.101562 459.738281 399.511719 459.5625 L 342.246094 442.382812 C 341.160156 442.035156 340.039062 441.855469 338.886719 441.84375 Z M 338.886719 441.84375 " fill-opacity="1" fill-rule="nonzero"/><path fill="#586597" d="M 198.675781 138.316406 C 197.882812 138.316406 197.109375 138.394531 196.339844 138.554688 C 195.570312 138.714844 194.816406 138.953125 194.089844 139.265625 C 193.375 139.578125 192.695312 139.964844 192.042969 140.421875 C 191.394531 140.875 190.800781 141.394531 190.265625 141.96875 C 189.742188 142.546875 189.261719 143.175781 188.847656 143.847656 C 188.441406 144.523438 188.109375 145.234375 187.839844 145.976562 C 187.582031 146.722656 187.402344 147.488281 187.300781 148.269531 C 187.199219 149.050781 187.167969 149.835938 187.222656 150.625 L 218.71875 574.476562 C 218.773438 575.195312 218.886719 575.898438 219.078125 576.589844 C 219.269531 577.285156 219.515625 577.953125 219.828125 578.601562 C 220.140625 579.25 220.507812 579.859375 220.933594 580.4375 C 221.371094 581.015625 221.851562 581.546875 222.378906 582.035156 C 222.902344 582.523438 223.472656 582.957031 224.078125 583.335938 C 224.683594 583.71875 225.320312 584.039062 225.992188 584.300781 C 226.648438 584.558594 227.34375 584.753906 228.046875 584.886719 C 228.753906 585.019531 229.457031 585.085938 230.171875 585.082031 L 568.039062 585.082031 C 568.753906 585.082031 569.472656 585.015625 570.175781 584.882812 C 570.878906 584.75 571.574219 584.550781 572.234375 584.289062 C 572.894531 584.027344 573.53125 583.707031 574.136719 583.324219 C 574.742188 582.941406 575.3125 582.507812 575.835938 582.019531 C 576.363281 581.53125 576.84375 581 577.253906 580.425781 C 577.683594 579.847656 578.050781 579.238281 578.363281 578.59375 C 578.667969 577.945312 578.910156 577.277344 579.101562 576.585938 C 579.292969 575.894531 579.402344 575.191406 579.449219 574.476562 L 610.945312 150.625 C 611 149.839844 610.976562 149.054688 610.878906 148.273438 C 610.777344 147.492188 610.585938 146.730469 610.320312 145.988281 C 610.0625 145.242188 609.726562 144.535156 609.332031 143.859375 C 608.933594 143.183594 608.460938 142.558594 607.925781 141.984375 C 607.398438 141.40625 606.808594 140.886719 606.160156 140.433594 C 605.519531 139.976562 604.835938 139.589844 604.109375 139.277344 C 603.394531 138.960938 602.644531 138.722656 601.875 138.5625 C 601.101562 138.398438 600.332031 138.320312 599.535156 138.316406 Z M 210.980469 161.230469 L 587.1875 161.230469 L 557.394531 562.171875 L 240.777344 562.171875 Z M 210.980469 161.230469 " fill-opacity="1" fill-rule="nonzero"/><path fill="#91a6b8" d="M 296.699219 321.605469 C 295.28125 321.570312 293.890625 321.792969 292.5625 322.273438 C 291.230469 322.75 290.023438 323.453125 288.960938 324.378906 C 288.960938 324.378906 281.34375 330.871094 271.511719 337.492188 C 261.679688 344.113281 248.875 350.023438 244.488281 350.246094 L 245.652344 373.15625 C 260.382812 372.410156 273.234375 363.964844 284.308594 356.507812 C 291.097656 351.929688 292.808594 350.234375 296.296875 347.425781 C 299.789062 350.328125 301.554688 352.117188 308.421875 356.824219 C 319.539062 364.441406 332.46875 373.15625 347.746094 373.15625 C 363.023438 373.15625 375.957031 364.441406 387.070312 356.824219 C 393.882812 352.15625 395.605469 350.421875 399.105469 347.515625 C 402.605469 350.421875 404.296875 352.160156 411.097656 356.824219 C 422.214844 364.441406 435.144531 373.15625 450.421875 373.15625 C 465.699219 373.15625 478.628906 364.441406 489.746094 356.824219 C 496.613281 352.117188 498.382812 350.328125 501.871094 347.425781 C 505.363281 350.230469 507.105469 351.929688 513.90625 356.507812 C 524.96875 363.960938 537.785156 372.398438 552.515625 373.15625 L 553.734375 350.246094 C 549.351562 350.015625 536.542969 344.109375 526.714844 337.492188 C 516.882812 330.871094 509.265625 324.378906 509.265625 324.378906 C 508.738281 323.933594 508.191406 323.535156 507.597656 323.1875 C 506.996094 322.839844 506.378906 322.550781 505.742188 322.316406 C 505.09375 322.078125 504.433594 321.902344 503.75 321.789062 C 503.070312 321.671875 502.386719 321.617188 501.703125 321.621094 C 501.019531 321.628906 500.339844 321.695312 499.65625 321.824219 C 498.988281 321.953125 498.324219 322.140625 497.6875 322.390625 C 497.050781 322.636719 496.433594 322.9375 495.84375 323.296875 C 495.25 323.652344 494.703125 324.058594 494.1875 324.515625 C 494.1875 324.515625 486.605469 331.242188 476.828125 337.941406 C 467.054688 344.640625 454.292969 350.246094 450.433594 350.246094 C 446.574219 350.246094 433.859375 344.640625 424.082031 337.941406 C 414.320312 331.242188 406.722656 324.515625 406.722656 324.515625 C 406.199219 324.054688 405.640625 323.644531 405.046875 323.285156 C 404.453125 322.925781 403.835938 322.625 403.199219 322.378906 C 402.550781 322.132812 401.878906 321.945312 401.1875 321.820312 C 400.503906 321.695312 399.820312 321.632812 399.128906 321.632812 C 398.425781 321.632812 397.742188 321.695312 397.058594 321.820312 C 396.367188 321.945312 395.695312 322.132812 395.058594 322.378906 C 394.410156 322.625 393.785156 322.925781 393.179688 323.285156 C 392.585938 323.644531 392.039062 324.054688 391.511719 324.515625 C 391.511719 324.515625 383.929688 331.242188 374.152344 337.941406 C 364.378906 344.640625 351.617188 350.246094 347.757812 350.246094 C 343.898438 350.246094 331.183594 344.640625 321.40625 337.941406 C 311.632812 331.242188 304.003906 324.515625 304.003906 324.515625 C 302.996094 323.617188 301.867188 322.917969 300.613281 322.417969 C 299.363281 321.917969 298.066406 321.648438 296.710938 321.609375 Z M 296.699219 321.605469 " fill-opacity="1" fill-rule="evenodd"/><g clip-path="url(#7f6855f68c)"><path fill="#586597" d="M 141.410156 81.039062 C 140.628906 81.039062 139.855469 81.117188 139.085938 81.269531 C 138.324219 81.425781 137.585938 81.660156 136.859375 81.96875 C 136.144531 82.277344 135.460938 82.65625 134.824219 83.105469 C 134.1875 83.550781 133.59375 84.058594 133.058594 84.628906 C 132.507812 85.195312 132.039062 85.8125 131.636719 86.476562 C 131.222656 87.140625 130.875 87.839844 130.617188 88.574219 C 130.339844 89.308594 130.148438 90.0625 130.046875 90.835938 C 129.933594 91.609375 129.902344 92.386719 129.957031 93.167969 L 164.316406 688.855469 C 164.371094 689.738281 164.53125 690.605469 164.789062 691.457031 C 165.042969 692.308594 165.390625 693.117188 165.828125 693.882812 C 166.273438 694.652344 166.800781 695.363281 167.417969 696.007812 C 168.019531 696.65625 168.691406 697.222656 169.417969 697.714844 L 238.136719 743.535156 C 240.058594 744.820312 242.175781 745.460938 244.488281 745.460938 L 553.722656 745.460938 C 556.039062 745.460938 558.152344 744.820312 560.074219 743.535156 L 628.792969 697.714844 C 629.535156 697.222656 630.207031 696.652344 630.796875 696.003906 C 631.402344 695.355469 631.929688 694.648438 632.363281 693.878906 C 632.808594 693.109375 633.160156 692.300781 633.402344 691.453125 C 633.652344 690.605469 633.796875 689.738281 633.851562 688.855469 L 668.210938 93.167969 C 668.253906 92.386719 668.222656 91.613281 668.109375 90.839844 C 668.011719 90.070312 667.820312 89.320312 667.550781 88.585938 C 667.28125 87.851562 666.949219 87.152344 666.53125 86.492188 C 666.117188 85.828125 665.648438 85.210938 665.125 84.644531 C 664.578125 84.074219 663.996094 83.570312 663.367188 83.121094 C 662.730469 82.671875 662.046875 82.292969 661.332031 81.984375 C 660.628906 81.675781 659.890625 81.441406 659.117188 81.28125 C 658.359375 81.121094 657.585938 81.042969 656.800781 81.039062 L 507.910156 81.039062 L 507.910156 103.953125 L 644.632812 103.953125 L 611.347656 681.828125 L 550.234375 722.550781 L 247.933594 722.550781 L 186.867188 681.828125 L 153.535156 103.953125 L 439.191406 103.953125 L 439.191406 81.039062 Z M 141.410156 81.039062 " fill-opacity="1" fill-rule="nonzero"/></g><g clip-path="url(#ea00cec33c)"><path fill="#586597" d="M 633.894531 642.359375 C 633.136719 642.347656 632.375 642.410156 631.625 642.546875 C 630.875 642.6875 630.160156 642.898438 629.457031 643.179688 C 628.75 643.460938 628.078125 643.8125 627.453125 644.230469 C 626.816406 644.644531 626.234375 645.121094 625.6875 645.652344 C 625.140625 646.183594 624.65625 646.765625 624.242188 647.394531 C 623.820312 648.027344 623.460938 648.691406 623.15625 649.390625 C 622.855469 650.09375 622.632812 650.8125 622.488281 651.558594 C 622.34375 652.304688 622.265625 653.058594 622.265625 653.816406 C 622.265625 654.574219 622.34375 655.328125 622.488281 656.074219 C 622.632812 656.820312 622.855469 657.542969 623.15625 658.242188 C 623.460938 658.945312 623.820312 659.609375 624.242188 660.238281 C 624.65625 660.871094 625.140625 661.449219 625.6875 661.980469 C 626.234375 662.515625 626.816406 662.992188 627.453125 663.40625 C 628.078125 663.820312 628.75 664.167969 629.457031 664.453125 C 630.160156 664.734375 630.875 664.945312 631.625 665.082031 C 632.375 665.222656 633.136719 665.285156 633.894531 665.269531 L 656.800781 665.269531 L 656.800781 688.183594 C 656.8125 688.933594 656.902344 689.679688 657.046875 690.417969 C 657.195312 691.15625 657.417969 691.871094 657.699219 692.566406 C 657.988281 693.265625 658.335938 693.925781 658.75 694.550781 C 659.160156 695.175781 659.640625 695.753906 660.167969 696.285156 C 660.707031 696.816406 661.289062 697.292969 661.902344 697.710938 C 662.539062 698.128906 663.199219 698.480469 663.894531 698.769531 C 664.585938 699.054688 665.300781 699.273438 666.039062 699.417969 C 666.769531 699.566406 667.507812 699.640625 668.253906 699.640625 C 669.003906 699.640625 669.753906 699.566406 670.503906 699.421875 C 671.242188 699.273438 671.957031 699.054688 672.664062 698.769531 C 673.355469 698.480469 674.015625 698.128906 674.640625 697.710938 C 675.257812 697.292969 675.839844 696.816406 676.363281 696.285156 C 676.898438 695.753906 677.382812 695.175781 677.796875 694.550781 C 678.210938 693.925781 678.566406 693.265625 678.859375 692.566406 C 679.148438 691.871094 679.363281 691.15625 679.496094 690.417969 C 679.640625 689.679688 679.71875 688.933594 679.707031 688.183594 L 679.707031 653.816406 C 679.707031 653.0625 679.628906 652.320312 679.472656 651.582031 C 679.328125 650.84375 679.125 650.128906 678.847656 649.433594 C 678.542969 648.738281 678.1875 648.078125 677.773438 647.449219 C 677.359375 646.824219 676.890625 646.246094 676.363281 645.714844 C 675.839844 645.183594 675.257812 644.710938 674.617188 644.292969 C 674.003906 643.875 673.34375 643.519531 672.652344 643.234375 C 671.945312 642.945312 671.230469 642.726562 670.492188 642.578125 C 669.753906 642.433594 669.003906 642.359375 668.253906 642.359375 Z M 633.894531 642.359375 " fill-opacity="1" fill-rule="nonzero"/></g><g clip-path="url(#6cfdfbc2ab)"><path fill="#586597" d="M 668.078125 561.992188 C 667.328125 562.003906 666.578125 562.089844 665.839844 562.25 C 665.113281 562.40625 664.394531 562.636719 663.714844 562.9375 C 663.019531 563.234375 662.363281 563.597656 661.734375 564.023438 C 661.121094 564.453125 660.550781 564.933594 660.035156 565.476562 C 659.507812 566.015625 659.039062 566.601562 658.625 567.230469 C 658.222656 567.867188 657.886719 568.53125 657.617188 569.230469 C 657.339844 569.929688 657.128906 570.648438 656.992188 571.386719 C 656.847656 572.128906 656.789062 572.875 656.800781 573.628906 L 656.800781 596.539062 L 633.894531 596.539062 C 633.136719 596.53125 632.386719 596.597656 631.648438 596.738281 C 630.898438 596.878906 630.183594 597.09375 629.476562 597.375 C 628.773438 597.660156 628.113281 598.011719 627.488281 598.425781 C 626.851562 598.84375 626.269531 599.320312 625.71875 599.851562 C 625.183594 600.386719 624.703125 600.964844 624.277344 601.59375 C 623.851562 602.222656 623.496094 602.882812 623.203125 603.582031 C 622.914062 604.28125 622.6875 605 622.542969 605.742188 C 622.398438 606.488281 622.320312 607.238281 622.320312 607.992188 C 622.320312 608.75 622.398438 609.5 622.542969 610.242188 C 622.6875 610.984375 622.914062 611.707031 623.203125 612.40625 C 623.496094 613.105469 623.851562 613.769531 624.277344 614.398438 C 624.703125 615.027344 625.183594 615.605469 625.71875 616.140625 C 626.269531 616.671875 626.851562 617.148438 627.488281 617.5625 C 628.113281 617.980469 628.773438 618.332031 629.476562 618.613281 C 630.183594 618.898438 630.898438 619.109375 631.648438 619.25 C 632.386719 619.390625 633.136719 619.457031 633.894531 619.449219 L 668.253906 619.449219 C 669.003906 619.449219 669.753906 619.375 670.503906 619.226562 C 671.242188 619.082031 671.957031 618.863281 672.664062 618.578125 C 673.355469 618.289062 674.015625 617.9375 674.640625 617.519531 C 675.257812 617.101562 675.839844 616.628906 676.363281 616.09375 C 676.898438 615.5625 677.382812 614.984375 677.796875 614.359375 C 678.210938 613.734375 678.566406 613.074219 678.859375 612.378906 C 679.148438 611.683594 679.363281 610.96875 679.496094 610.230469 C 679.640625 609.492188 679.71875 608.746094 679.707031 607.992188 L 679.707031 573.628906 C 679.71875 572.859375 679.664062 572.101562 679.519531 571.347656 C 679.382812 570.59375 679.171875 569.859375 678.882812 569.148438 C 678.601562 568.4375 678.242188 567.761719 677.808594 567.121094 C 677.382812 566.484375 676.898438 565.890625 676.351562 565.347656 C 675.804688 564.804688 675.222656 564.324219 674.585938 563.898438 C 673.949219 563.476562 673.265625 563.117188 672.550781 562.832031 C 671.84375 562.542969 671.105469 562.328125 670.359375 562.1875 C 669.609375 562.042969 668.847656 561.980469 668.078125 561.992188 Z M 668.078125 561.992188 " fill-opacity="1" fill-rule="nonzero"/></g><path fill="#586597" d="M 384.789062 482 C 369.121094 482 356.15625 494.96875 356.15625 510.636719 L 356.15625 562.1875 C 356.15625 572.546875 362.097656 581.316406 370.472656 586.347656 L 370.472656 648.105469 C 370.472656 648.863281 370.550781 649.609375 370.710938 650.347656 C 370.855469 651.085938 371.078125 651.800781 371.359375 652.492188 C 371.648438 653.191406 372.007812 653.851562 372.421875 654.476562 C 372.84375 655.101562 373.3125 655.679688 373.839844 656.210938 C 374.390625 656.742188 374.96875 657.222656 375.585938 657.640625 C 376.222656 658.054688 376.882812 658.410156 377.566406 658.691406 C 378.257812 658.980469 378.972656 659.195312 379.710938 659.347656 C 380.449219 659.488281 381.191406 659.558594 381.925781 659.558594 L 416.285156 659.558594 C 417.058594 659.558594 417.808594 659.488281 418.546875 659.347656 C 419.285156 659.195312 420 658.980469 420.683594 658.691406 C 421.375 658.410156 422.035156 658.054688 422.660156 657.640625 C 423.289062 657.222656 423.871094 656.742188 424.394531 656.210938 C 424.929688 655.679688 425.414062 655.101562 425.839844 654.476562 C 426.261719 653.851562 426.609375 653.191406 426.890625 652.492188 C 427.179688 651.800781 427.394531 651.085938 427.539062 650.347656 C 427.683594 649.609375 427.75 648.863281 427.738281 648.105469 L 427.738281 586.347656 C 436.117188 581.316406 442.054688 572.546875 442.054688 562.1875 L 442.054688 510.636719 C 442.054688 494.96875 429.09375 481.996094 413.421875 482 Z M 384.789062 482 " fill-opacity="1" fill-rule="nonzero"/><path fill="#e6f4f6" d="M 384.789062 504.910156 L 413.421875 504.910156 C 416.789062 504.910156 419.148438 507.265625 419.148438 510.636719 L 419.148438 562.1875 C 419.148438 565.558594 416.789062 567.914062 413.421875 567.914062 L 384.789062 567.914062 C 381.421875 567.914062 379.0625 565.558594 379.0625 562.1875 L 379.0625 510.636719 C 379.0625 507.265625 381.421875 504.910156 384.789062 504.910156 Z M 384.789062 504.910156 " fill-opacity="1" fill-rule="nonzero"/><path fill="#e6f4f6" d="M 393.378906 590.824219 L 404.832031 590.824219 L 404.832031 636.648438 L 393.378906 636.648438 Z M 393.378906 590.824219 " fill-opacity="1" fill-rule="nonzero"/><path fill="#ffffff" d="M 524.355469 407.316406 C 524.355469 407.882812 524.296875 408.441406 524.195312 408.996094 C 524.09375 409.546875 523.925781 410.085938 523.714844 410.609375 C 523.503906 411.128906 523.234375 411.625 522.933594 412.09375 C 522.609375 412.566406 522.25 413 521.847656 413.398438 C 521.445312 413.796875 521.007812 414.152344 520.550781 414.464844 C 520.070312 414.777344 519.578125 415.042969 519.0625 415.257812 C 518.539062 415.472656 518 415.636719 517.441406 415.746094 C 516.894531 415.855469 516.335938 415.910156 515.765625 415.910156 C 515.203125 415.910156 514.644531 415.855469 514.097656 415.746094 C 513.539062 415.636719 513 415.472656 512.484375 415.257812 C 511.960938 415.042969 511.46875 414.777344 511 414.464844 C 510.519531 414.152344 510.082031 413.796875 509.6875 413.398438 C 509.289062 413 508.929688 412.566406 508.617188 412.09375 C 508.316406 411.625 508.046875 411.132812 507.832031 410.609375 C 507.621094 410.089844 507.464844 409.550781 507.339844 408.996094 C 507.242188 408.441406 507.183594 407.882812 507.175781 407.316406 C 507.164062 406.753906 507.21875 406.195312 507.328125 405.644531 C 507.453125 405.089844 507.609375 404.554688 507.820312 404.03125 C 508.035156 403.511719 508.304688 403.015625 508.605469 402.546875 C 508.929688 402.078125 509.289062 401.644531 509.675781 401.246094 C 510.082031 400.847656 510.519531 400.488281 510.988281 400.175781 C 511.445312 399.863281 511.9375 399.597656 512.464844 399.378906 C 512.988281 399.164062 513.527344 399.003906 514.074219 398.890625 C 514.632812 398.78125 515.195312 398.726562 515.765625 398.726562 C 516.335938 398.726562 516.894531 398.78125 517.453125 398.894531 C 518 399.003906 518.539062 399.164062 519.0625 399.382812 C 519.578125 399.597656 520.070312 399.863281 520.539062 400.175781 C 521.007812 400.488281 521.445312 400.84375 521.847656 401.242188 C 522.25 401.640625 522.609375 402.078125 522.921875 402.546875 C 523.234375 403.015625 523.503906 403.507812 523.714844 404.03125 C 523.925781 404.550781 524.09375 405.089844 524.195312 405.644531 C 524.296875 406.195312 524.355469 406.753906 524.355469 407.316406 Z M 524.355469 407.316406 " fill-opacity="0.5" fill-rule="nonzero"/><path fill="#ffffff" d="M 310.132812 496.292969 C 310.144531 496.894531 310.089844 497.488281 309.964844 498.082031 C 309.851562 498.671875 309.683594 499.246094 309.449219 499.800781 C 309.214844 500.355469 308.9375 500.886719 308.601562 501.386719 C 308.253906 501.886719 307.875 502.347656 307.457031 502.773438 C 307.035156 503.199219 306.574219 503.578125 306.085938 503.914062 C 305.582031 504.25 305.054688 504.53125 304.496094 504.761719 C 303.9375 504.992188 303.367188 505.164062 302.785156 505.28125 C 302.179688 505.398438 301.578125 505.457031 300.972656 505.457031 C 300.378906 505.457031 299.789062 505.398438 299.207031 505.28125 C 298.613281 505.164062 298.042969 504.992188 297.484375 504.761719 C 296.925781 504.527344 296.398438 504.25 295.894531 503.914062 C 295.390625 503.578125 294.929688 503.199219 294.496094 502.773438 C 294.074219 502.347656 293.691406 501.886719 293.367188 501.382812 C 293.03125 500.886719 292.75 500.355469 292.527344 499.800781 C 292.304688 499.246094 292.125 498.671875 292 498.082031 C 291.878906 497.488281 291.824219 496.894531 291.8125 496.292969 C 291.8125 495.691406 291.867188 495.09375 291.980469 494.503906 C 292.101562 493.914062 292.28125 493.339844 292.503906 492.78125 C 292.738281 492.226562 293.019531 491.699219 293.367188 491.199219 C 293.691406 490.699219 294.074219 490.238281 294.484375 489.8125 C 294.910156 489.386719 295.367188 489.007812 295.871094 488.671875 C 296.375 488.335938 296.902344 488.054688 297.460938 487.824219 C 298.019531 487.59375 298.601562 487.421875 299.195312 487.304688 C 299.777344 487.183594 300.371094 487.125 300.972656 487.125 C 301.578125 487.125 302.179688 487.183594 302.773438 487.304688 C 303.367188 487.421875 303.9375 487.597656 304.496094 487.828125 C 305.054688 488.054688 305.582031 488.339844 306.085938 488.675781 C 306.574219 489.007812 307.035156 489.386719 307.457031 489.8125 C 307.875 490.238281 308.253906 490.699219 308.601562 491.203125 C 308.9375 491.703125 309.214844 492.230469 309.449219 492.789062 C 309.683594 493.34375 309.851562 493.917969 309.964844 494.503906 C 310.089844 495.09375 310.144531 495.691406 310.132812 496.292969 Z M 310.132812 496.292969 " fill-opacity="0.5" fill-rule="nonzero"/><path fill="#ffffff" d="M 496.851562 489.15625 C 496.851562 489.71875 496.792969 490.28125 496.683594 490.835938 C 496.582031 491.386719 496.425781 491.925781 496.214844 492.445312 C 496 492.96875 495.742188 493.460938 495.417969 493.929688 C 495.105469 494.398438 494.746094 494.832031 494.34375 495.230469 C 493.953125 495.628906 493.515625 495.988281 493.046875 496.300781 C 492.589844 496.613281 492.085938 496.878906 491.558594 497.09375 C 491.035156 497.308594 490.496094 497.472656 489.9375 497.582031 C 489.390625 497.691406 488.832031 497.746094 488.261719 497.746094 C 487.703125 497.746094 487.140625 497.691406 486.59375 497.582031 C 486.046875 497.472656 485.507812 497.308594 484.980469 497.09375 C 484.46875 496.878906 483.976562 496.613281 483.507812 496.296875 C 483.027344 495.988281 482.589844 495.628906 482.195312 495.230469 C 481.796875 494.832031 481.4375 494.398438 481.136719 493.929688 C 480.824219 493.460938 480.554688 492.96875 480.339844 492.445312 C 480.128906 491.925781 479.960938 491.386719 479.847656 490.832031 C 479.738281 490.28125 479.683594 489.71875 479.671875 489.15625 C 479.683594 488.59375 479.738281 488.03125 479.835938 487.480469 C 479.9375 486.925781 480.105469 486.390625 480.320312 485.867188 C 480.53125 485.347656 480.800781 484.851562 481.125 484.382812 C 481.4375 483.914062 481.796875 483.480469 482.1875 483.078125 C 482.589844 482.679688 483.027344 482.324219 483.496094 482.011719 C 483.964844 481.699219 484.457031 481.433594 484.972656 481.21875 C 485.496094 481 486.035156 480.839844 486.59375 480.730469 C 487.140625 480.617188 487.703125 480.5625 488.261719 480.5625 C 488.832031 480.5625 489.402344 480.621094 489.949219 480.730469 C 490.496094 480.839844 491.035156 481.003906 491.558594 481.21875 C 492.085938 481.4375 492.589844 481.699219 493.046875 482.011719 C 493.515625 482.328125 493.953125 482.683594 494.34375 483.082031 C 494.746094 483.480469 495.105469 483.914062 495.417969 484.382812 C 495.742188 484.851562 496 485.347656 496.214844 485.871094 C 496.425781 486.390625 496.582031 486.929688 496.695312 487.480469 C 496.792969 488.03125 496.851562 488.59375 496.851562 489.15625 Z M 496.851562 489.15625 " fill-opacity="0.5" fill-rule="nonzero"/><path fill="#ffffff" d="M 309.40625 402.222656 C 309.40625 402.675781 309.359375 403.121094 309.269531 403.566406 C 309.191406 404.007812 309.058594 404.4375 308.878906 404.851562 C 308.710938 405.269531 308.511719 405.664062 308.253906 406.042969 C 308.007812 406.417969 307.71875 406.761719 307.390625 407.082031 C 307.066406 407.398438 306.734375 407.683594 306.363281 407.9375 C 305.984375 408.1875 305.582031 408.398438 305.167969 408.570312 C 304.753906 408.746094 304.316406 408.875 303.871094 408.964844 C 303.433594 409.050781 302.984375 409.09375 302.539062 409.09375 C 302.089844 409.09375 301.644531 409.050781 301.195312 408.960938 C 300.757812 408.875 300.335938 408.746094 299.921875 408.570312 C 299.507812 408.398438 299.117188 408.1875 298.734375 407.9375 C 298.367188 407.683594 298.007812 407.398438 297.683594 407.078125 C 297.371094 406.761719 297.089844 406.414062 296.84375 406.039062 C 296.585938 405.664062 296.363281 405.269531 296.195312 404.851562 C 296.027344 404.433594 295.894531 404.003906 295.816406 403.5625 C 295.726562 403.121094 295.683594 402.675781 295.671875 402.222656 C 295.671875 401.773438 295.714844 401.324219 295.804688 400.882812 C 295.894531 400.441406 296.027344 400.011719 296.207031 399.597656 C 296.375 399.179688 296.578125 398.785156 296.824219 398.410156 C 297.070312 398.035156 297.347656 397.6875 297.671875 397.367188 C 297.984375 397.046875 298.332031 396.761719 298.726562 396.511719 C 299.09375 396.261719 299.496094 396.050781 299.921875 395.878906 C 300.335938 395.703125 300.757812 395.574219 301.195312 395.484375 C 301.632812 395.394531 302.082031 395.351562 302.539062 395.347656 C 302.996094 395.351562 303.445312 395.394531 303.890625 395.484375 C 304.328125 395.574219 304.761719 395.703125 305.175781 395.875 C 305.59375 396.046875 305.996094 396.261719 306.363281 396.511719 C 306.734375 396.761719 307.078125 397.046875 307.402344 397.363281 C 307.726562 397.683594 308.007812 398.03125 308.265625 398.40625 C 308.523438 398.785156 308.734375 399.179688 308.902344 399.59375 C 309.070312 400.011719 309.203125 400.441406 309.28125 400.882812 C 309.371094 401.324219 309.417969 401.769531 309.40625 402.222656 Z M 309.40625 402.222656 " fill-opacity="0.5" fill-rule="nonzero"/><path fill="#586597" d="M 484.324219 92.496094 C 484.335938 93.25 484.269531 93.992188 484.121094 94.730469 C 483.976562 95.46875 483.753906 96.183594 483.472656 96.878906 C 483.195312 97.574219 482.835938 98.234375 482.410156 98.859375 C 481.984375 99.484375 481.503906 100.066406 480.976562 100.597656 C 480.441406 101.128906 479.859375 101.601562 479.246094 102.019531 C 478.609375 102.441406 477.949219 102.792969 477.265625 103.078125 C 476.570312 103.367188 475.855469 103.585938 475.117188 103.730469 C 474.378906 103.878906 473.628906 103.953125 472.871094 103.953125 C 472.121094 103.953125 471.382812 103.875 470.644531 103.730469 C 469.90625 103.585938 469.191406 103.367188 468.507812 103.078125 C 467.8125 102.792969 467.15625 102.441406 466.527344 102.019531 C 465.902344 101.601562 465.320312 101.128906 464.785156 100.597656 C 464.257812 100.066406 463.789062 99.488281 463.375 98.863281 C 462.949219 98.238281 462.589844 97.574219 462.3125 96.878906 C 462.019531 96.1875 461.796875 95.46875 461.652344 94.730469 C 461.503906 93.992188 461.429688 93.25 461.417969 92.496094 C 461.429688 91.742188 461.496094 90.996094 461.640625 90.261719 C 461.785156 89.523438 462 88.808594 462.289062 88.113281 C 462.578125 87.417969 462.9375 86.757812 463.363281 86.132812 C 463.777344 85.507812 464.246094 84.925781 464.773438 84.394531 C 465.308594 83.863281 465.890625 83.386719 466.507812 82.972656 C 467.144531 82.550781 467.800781 82.199219 468.496094 81.910156 C 469.191406 81.625 469.90625 81.40625 470.644531 81.261719 C 471.382812 81.113281 472.121094 81.039062 472.871094 81.039062 C 473.628906 81.039062 474.378906 81.113281 475.117188 81.261719 C 475.855469 81.40625 476.570312 81.625 477.265625 81.914062 C 477.949219 82.199219 478.609375 82.554688 479.246094 82.972656 C 479.859375 83.390625 480.441406 83.863281 480.976562 84.394531 C 481.503906 84.929688 481.984375 85.507812 482.410156 86.132812 C 482.835938 86.757812 483.195312 87.417969 483.472656 88.113281 C 483.753906 88.808594 483.976562 89.527344 484.121094 90.261719 C 484.269531 91 484.335938 91.742188 484.324219 92.496094 Z M 484.324219 92.496094 " fill-opacity="1" fill-rule="nonzero"/></svg>