<?xml version="1.0" encoding="UTF-8"?>
<svg version="1.1" xmlns="http://www.w3.org/2000/svg" width="512" height="512">
<path d="M0 0 C5.51928392 4.76356658 10.04630136 9.91162336 14.44140625 15.7265625 C15.07175781 16.41621094 15.70210937 17.10585937 16.3515625 17.81640625 C17.3415625 17.81640625 18.3315625 17.81640625 19.3515625 17.81640625 C21.24717922 15.75529918 22.98681763 13.69021664 24.7265625 11.50390625 C44.23311386 -12.00704484 72.74793071 -26.05616548 103.08911133 -29.01806641 C136.42427213 -31.4569613 167.71985431 -23.02754592 193.3515625 -1.18359375 C194.01285156 -0.62414062 194.67414063 -0.0646875 195.35546875 0.51171875 C217.62392903 21.07516931 227.16873772 54.30923423 228.4777832 83.64501953 C229.61948603 127.5371505 218.90981251 169.21063169 200.3515625 208.81640625 C199.89410645 209.80237793 199.43665039 210.78834961 198.96533203 211.80419922 C182.33086456 247.35159367 157.60175967 276.58559384 130.1015625 304.19140625 C129.26173828 305.03590332 128.42191406 305.88040039 127.55664062 306.75048828 C123.20382931 311.09211648 118.7830566 315.28494 114.12060547 319.29248047 C111.70868085 321.37021073 109.37727136 323.53138127 107.0390625 325.69140625 C101.63670904 330.61206839 96.05056247 335.24525556 90.3515625 339.81640625 C89.24314124 340.71701937 88.13508457 341.61808133 87.02734375 342.51953125 C31.19361719 387.77973624 31.19361719 387.77973624 18.1640625 388.12890625 C17.26300781 388.16628906 16.36195313 388.20367187 15.43359375 388.2421875 C8.2367636 387.24794861 2.30126139 382.60872936 -3.4609375 378.44140625 C-4.18450439 377.92392822 -4.90807129 377.4064502 -5.65356445 376.87329102 C-7.99121149 375.19583249 -10.32087797 373.5078299 -12.6484375 371.81640625 C-13.4434668 371.23971191 -14.23849609 370.66301758 -15.05761719 370.06884766 C-29.26745091 359.73884177 -43.13606301 349.04499914 -56.6484375 337.81640625 C-57.15729492 337.39391602 -57.66615234 336.97142578 -58.19042969 336.53613281 C-65.19614058 330.70584818 -72.02516644 324.72706635 -78.69921875 318.51953125 C-80.84891403 316.52520889 -83.05365656 314.60983993 -85.28125 312.703125 C-90.30348945 308.32464047 -94.99528314 303.61970336 -99.6940918 298.90112305 C-101.2083633 297.38148957 -102.7279118 295.86728108 -104.24804688 294.35351562 C-109.59192686 289.01356223 -114.75860399 283.57939539 -119.6484375 277.81640625 C-120.51726562 276.82898438 -121.38609375 275.8415625 -122.28125 274.82421875 C-168.05631696 221.87437641 -195.9010634 150.09744429 -192.6484375 79.81640625 C-190.11494938 47.27999443 -178.38111185 16.47854857 -153.29296875 -5.1328125 C-107.6330409 -40.54117605 -43.48608435 -35.85357102 0 0 Z " fill="#FF3C57" transform="translate(238.6484375,79.18359375)"/>
</svg>
