<svg xmlns="http://www.w3.org/2000/svg" xmlns:xlink="http://www.w3.org/1999/xlink" width="1080" zoomAndPan="magnify" viewBox="0 0 810 809.999993" height="1080" preserveAspectRatio="xMidYMid meet" version="1.0"><defs><clipPath id="f3034f1910"><path d="M 348.398438 632.695312 L 499.824219 632.695312 L 499.824219 696 L 348.398438 696 Z M 348.398438 632.695312 " clip-rule="nonzero"/></clipPath><clipPath id="431d620f57"><path d="M 744 503 L 791.578125 503 L 791.578125 677 L 744 677 Z M 744 503 " clip-rule="nonzero"/></clipPath></defs><path fill="#d43008" d="M 683.652344 291.03125 C 683.652344 341.796875 642.5 382.957031 591.730469 382.957031 C 540.953125 382.957031 499.792969 341.796875 499.792969 291.03125 C 499.792969 240.257812 540.953125 199.105469 591.730469 199.105469 C 642.5 199.105469 683.652344 240.257812 683.652344 291.03125 " fill-opacity="1" fill-rule="nonzero"/><path fill="#ffffff" d="M 589.507812 241.738281 L 556.390625 263.472656 L 567.207031 279.316406 L 586.554688 266.125 L 586.554688 340.320312 L 609.152344 340.320312 L 609.152344 241.738281 L 589.507812 241.738281 " fill-opacity="1" fill-rule="nonzero"/><g clip-path="url(#f3034f1910)"><path fill="#f5a318" d="M 499.792969 632.726562 C 492.949219 668.792969 461.71875 696.046875 424.207031 696.046875 C 386.695312 696.046875 355.464844 668.792969 348.621094 632.726562 L 499.792969 632.726562 " fill-opacity="1" fill-rule="nonzero"/></g><path fill="#f5a318" d="M 427.082031 170.476562 C 426.121094 170.476562 425.167969 170.53125 424.207031 170.546875 C 423.25 170.53125 422.292969 170.476562 421.332031 170.476562 L 415.226562 170.476562 C 404.628906 170.476562 393.988281 171.160156 383.429688 172.558594 C 382.398438 168.582031 381.800781 164.410156 381.800781 160.074219 C 381.800781 134.632812 400.792969 114.007812 424.207031 114.007812 C 447.628906 114.007812 466.613281 134.632812 466.613281 160.074219 C 466.613281 164.410156 466.019531 168.582031 464.988281 172.558594 C 454.429688 171.160156 443.78125 170.476562 433.191406 170.476562 L 427.082031 170.476562 " fill-opacity="1" fill-rule="nonzero"/><path fill="#fec939" d="M 689.125 613.523438 C 688.410156 614.265625 687.609375 614.964844 686.792969 615.65625 C 686.40625 615.964844 686.023438 616.273438 685.609375 616.605469 C 685.148438 616.914062 684.683594 617.246094 684.226562 617.554688 C 683.785156 617.863281 683.324219 618.148438 682.832031 618.429688 C 682.375 618.714844 681.882812 618.972656 681.398438 619.222656 C 680.910156 619.480469 680.417969 619.738281 679.90625 619.972656 C 679.390625 620.199219 678.882812 620.429688 678.339844 620.640625 C 676.75 621.304688 675.074219 621.820312 673.308594 622.230469 C 672.765625 622.355469 672.175781 622.488281 671.609375 622.589844 C 669.140625 623.054688 666.546875 623.3125 663.824219 623.3125 C 663.824219 623.3125 542.988281 623.3125 424.207031 623.3125 C 305.421875 623.3125 184.582031 623.3125 184.582031 623.3125 C 154.421875 623.3125 141.269531 593.613281 157.554688 570.9375 C 161.382812 565.617188 165.625 561.019531 169.992188 556.753906 C 184.660156 542.46875 201.074219 531.917969 209.960938 510.132812 C 232.261719 455.496094 221.0625 394.769531 228.84375 337.847656 C 235.730469 287.578125 249.675781 236.25 294.554688 205.429688 C 320.753906 187.421875 351.683594 176.761719 383.4375 172.570312 C 393.996094 171.160156 404.628906 170.46875 415.238281 170.46875 L 421.324219 170.46875 C 422.304688 170.46875 423.257812 170.519531 424.207031 170.546875 C 425.183594 170.519531 426.132812 170.46875 427.082031 170.46875 L 433.191406 170.46875 C 443.777344 170.46875 454.4375 171.160156 464.996094 172.570312 C 492.5625 176.222656 519.507812 184.722656 543.292969 198.722656 C 510.132812 216.191406 487.472656 251.023438 487.472656 291.019531 C 487.472656 348.507812 534.226562 395.285156 591.714844 395.285156 C 602.558594 395.285156 613.042969 393.609375 622.878906 390.527344 C 623.652344 431.117188 622.953125 472.113281 638.472656 510.132812 C 647.332031 531.917969 663.75 542.46875 678.441406 556.753906 C 682.808594 561.019531 687.023438 565.617188 690.851562 570.9375 C 701.277344 585.472656 699.636719 602.886719 689.125 613.523438 " fill-opacity="1" fill-rule="nonzero"/><path fill="#f7c028" d="M 689.125 613.523438 C 688.410156 614.265625 687.609375 614.964844 686.792969 615.65625 C 686.40625 615.964844 686.023438 616.273438 685.609375 616.605469 C 685.148438 616.914062 684.683594 617.246094 684.226562 617.554688 C 683.785156 617.863281 683.324219 618.148438 682.832031 618.429688 C 682.375 618.714844 681.882812 618.972656 681.398438 619.222656 C 680.910156 619.480469 680.417969 619.738281 679.90625 619.972656 C 679.390625 620.199219 678.882812 620.429688 678.339844 620.640625 C 676.75 621.304688 675.074219 621.820312 673.308594 622.230469 C 672.765625 622.355469 672.175781 622.488281 671.609375 622.589844 C 669.140625 623.054688 666.546875 623.3125 663.824219 623.3125 C 663.824219 623.3125 542.988281 623.3125 424.207031 623.3125 C 305.421875 623.3125 184.582031 623.3125 184.582031 623.3125 C 154.421875 623.3125 141.269531 593.613281 157.554688 570.9375 C 161.382812 565.617188 165.625 561.019531 169.992188 556.753906 C 184.660156 542.46875 201.074219 531.917969 209.960938 510.132812 C 232.261719 455.496094 221.0625 394.769531 228.84375 337.847656 C 235.730469 287.578125 249.675781 236.25 294.554688 205.429688 C 320.753906 187.421875 351.683594 176.761719 383.4375 172.570312 C 393.996094 171.160156 404.628906 170.46875 415.238281 170.46875 L 421.324219 170.46875 C 422.304688 170.46875 423.257812 170.519531 424.207031 170.546875 C 425.183594 170.519531 426.132812 170.46875 427.082031 170.46875 L 433.191406 170.46875 C 443.777344 170.46875 454.4375 171.160156 464.996094 172.570312 C 492.5625 176.222656 519.507812 184.722656 543.292969 198.722656 C 510.132812 216.191406 487.472656 251.023438 487.472656 291.019531 C 487.472656 348.507812 534.226562 395.285156 591.714844 395.285156 C 602.558594 395.285156 613.042969 393.609375 622.878906 390.527344 C 623.652344 431.117188 622.953125 472.113281 638.472656 510.132812 C 647.332031 531.917969 663.75 542.46875 678.441406 556.753906 C 682.808594 561.019531 687.023438 565.617188 690.851562 570.9375 C 701.277344 585.472656 699.636719 602.886719 689.125 613.523438 " fill-opacity="1" fill-rule="nonzero"/><path fill="#fdecbe" d="M 681.304688 619.273438 C 681.335938 619.253906 681.367188 619.242188 681.398438 619.222656 C 681.457031 619.191406 681.519531 619.160156 681.574219 619.128906 C 681.488281 619.179688 681.398438 619.222656 681.304688 619.273438 M 684.5 617.367188 C 684.640625 617.273438 684.785156 617.171875 684.921875 617.070312 C 684.785156 617.171875 684.640625 617.273438 684.5 617.367188 M 686.226562 616.109375 C 686.390625 615.976562 686.554688 615.84375 686.722656 615.710938 C 686.554688 615.84375 686.390625 615.976562 686.226562 616.109375 M 686.867188 615.59375 C 687.207031 615.304688 687.539062 615.019531 687.867188 614.722656 C 687.539062 615.019531 687.207031 615.308594 686.867188 615.59375 M 179.367188 548.121094 C 191.214844 537.542969 202.933594 527.335938 209.953125 510.125 C 226.90625 468.582031 224.503906 423.523438 225.792969 379.300781 C 224.503906 423.535156 226.914062 468.589844 209.960938 510.132812 C 202.9375 527.347656 191.214844 537.546875 179.367188 548.121094 M 235.652344 300.5 C 244.570312 263.328125 260.824219 228.578125 294.554688 205.421875 C 297.886719 203.132812 301.300781 200.960938 304.777344 198.90625 C 301.300781 200.960938 297.886719 203.132812 294.554688 205.429688 C 260.832031 228.59375 244.570312 263.332031 235.652344 300.5 M 353.667969 178.515625 C 363.425781 175.867188 373.386719 173.894531 383.429688 172.558594 C 386.867188 172.105469 390.316406 171.726562 393.761719 171.417969 C 390.316406 171.726562 386.871094 172.113281 383.4375 172.570312 C 373.394531 173.898438 363.425781 175.867188 353.667969 178.515625 " fill-opacity="1" fill-rule="nonzero"/><path fill="#f5b21e" d="M 663.824219 623.300781 C 663.824219 623.300781 542.992188 623.300781 424.207031 623.300781 C 305.421875 623.300781 184.59375 623.300781 184.59375 623.300781 C 154.433594 623.292969 141.277344 593.621094 157.570312 570.9375 C 161.394531 565.617188 165.609375 561.023438 169.984375 556.765625 C 173.0625 553.765625 176.21875 550.933594 179.367188 548.121094 C 191.214844 537.546875 202.9375 527.347656 209.960938 510.132812 C 226.914062 468.589844 224.503906 423.535156 225.792969 379.300781 C 226.203125 365.355469 226.984375 351.496094 228.84375 337.859375 C 230.558594 325.363281 232.703125 312.796875 235.652344 300.5 C 244.570312 263.332031 260.832031 228.59375 294.554688 205.429688 C 297.886719 203.132812 301.300781 200.960938 304.777344 198.90625 C 319.996094 189.925781 336.511719 183.179688 353.667969 178.515625 C 363.425781 175.867188 373.394531 173.898438 383.4375 172.570312 C 386.871094 172.113281 390.316406 171.726562 393.761719 171.417969 C 400.917969 170.789062 408.085938 170.476562 415.226562 170.476562 L 421.332031 170.476562 C 421.921875 170.476562 422.515625 170.5 423.097656 170.519531 C 404.265625 176.246094 386.300781 184.546875 370.140625 195.644531 C 325.253906 226.460938 311.308594 277.796875 304.433594 328.074219 C 296.648438 384.984375 307.835938 445.703125 285.546875 500.339844 C 276.65625 522.125 260.253906 532.679688 245.570312 546.988281 C 241.199219 551.246094 236.980469 555.832031 233.164062 561.15625 C 216.863281 583.839844 230.023438 613.515625 260.183594 613.515625 C 260.183594 613.515625 381.007812 613.515625 499.792969 613.515625 C 571 613.515625 642.917969 613.515625 689.132812 613.515625 C 688.722656 613.929688 688.300781 614.335938 687.867188 614.722656 C 687.539062 615.019531 687.207031 615.304688 686.867188 615.59375 C 686.816406 615.628906 686.765625 615.675781 686.722656 615.710938 C 686.554688 615.84375 686.390625 615.976562 686.226562 616.109375 C 685.804688 616.441406 685.371094 616.761719 684.921875 617.070312 C 684.785156 617.171875 684.640625 617.273438 684.5 617.367188 C 683.570312 617.996094 682.59375 618.585938 681.574219 619.128906 C 681.519531 619.160156 681.457031 619.191406 681.398438 619.222656 C 681.367188 619.242188 681.335938 619.253906 681.304688 619.273438 C 676.414062 621.816406 670.542969 623.292969 663.824219 623.300781 " fill-opacity="1" fill-rule="nonzero"/><path fill="#f5a318" d="M 721.84375 656.253906 C 719.949219 656.253906 718.035156 655.65625 716.40625 654.417969 C 712.453125 651.414062 711.6875 645.769531 714.695312 641.820312 C 757.632812 585.363281 716.636719 540.488281 714.871094 538.605469 C 711.472656 534.980469 711.652344 529.292969 715.273438 525.894531 C 718.898438 522.503906 724.585938 522.679688 727.984375 526.304688 C 728.519531 526.875 781.042969 584.289062 729.003906 652.707031 C 727.234375 655.035156 724.554688 656.253906 721.84375 656.253906 " fill-opacity="1" fill-rule="nonzero"/><g clip-path="url(#431d620f57)"><path fill="#f5a318" d="M 753.976562 676.414062 C 752.085938 676.414062 750.171875 675.816406 748.542969 674.578125 C 744.589844 671.574219 743.820312 665.9375 746.832031 661.988281 C 771.960938 628.9375 779.570312 594.707031 769.445312 560.238281 C 761.871094 534.433594 747.007812 518.382812 746.855469 518.222656 C 743.457031 514.605469 743.640625 508.910156 747.265625 505.519531 C 750.882812 502.121094 756.578125 502.304688 759.96875 505.921875 C 760.679688 506.679688 829.949219 582.40625 761.144531 672.867188 C 759.371094 675.195312 756.691406 676.414062 753.976562 676.414062 " fill-opacity="1" fill-rule="nonzero"/></g><path fill="#f5a318" d="M 126.558594 656.253906 C 123.847656 656.253906 121.164062 655.035156 119.398438 652.707031 C 67.359375 584.289062 119.882812 526.875 120.417969 526.304688 C 123.816406 522.679688 129.511719 522.503906 133.128906 525.894531 C 136.738281 529.285156 136.929688 534.960938 133.554688 538.585938 C 131.773438 540.503906 91.035156 585.722656 133.707031 641.820312 C 136.714844 645.769531 135.949219 651.414062 131.996094 654.417969 C 130.371094 655.65625 128.460938 656.253906 126.558594 656.253906 " fill-opacity="1" fill-rule="nonzero"/><path fill="#f5a318" d="M 94.421875 676.414062 C 91.710938 676.414062 89.03125 675.195312 87.261719 672.867188 C 18.453125 582.40625 87.71875 506.679688 88.429688 505.921875 C 91.828125 502.304688 97.523438 502.121094 101.144531 505.519531 C 104.753906 508.910156 104.945312 514.585938 101.558594 518.210938 L 101.5625 518.210938 C 99.105469 520.855469 42.125 583.824219 101.570312 661.988281 C 104.578125 665.9375 103.8125 671.574219 99.859375 674.578125 C 98.234375 675.816406 96.324219 676.414062 94.421875 676.414062 " fill-opacity="1" fill-rule="nonzero"/></svg>