<svg xmlns="http://www.w3.org/2000/svg" xmlns:xlink="http://www.w3.org/1999/xlink" width="1080" zoomAndPan="magnify" viewBox="0 0 810 809.999993" height="1080" preserveAspectRatio="xMidYMid meet" version="1.0"><defs><clipPath id="acb54162a0"><path d="M 95.066406 95.066406 L 714.566406 95.066406 L 714.566406 714.566406 L 95.066406 714.566406 Z M 95.066406 95.066406 " clip-rule="nonzero"/></clipPath></defs><g clip-path="url(#acb54162a0)"><path fill="#ff99c8" d="M 714.925781 405 C 714.925781 576.167969 576.167969 714.925781 405 714.925781 C 233.835938 714.925781 95.078125 576.167969 95.078125 405 C 95.078125 233.832031 233.835938 95.074219 405 95.074219 C 576.167969 95.074219 714.925781 233.832031 714.925781 405 " fill-opacity="1" fill-rule="nonzero"/></g><path fill="#ffffff" d="M 515.09375 307.027344 C 515.09375 368.046875 465.625 417.511719 404.605469 417.511719 C 343.582031 417.511719 294.113281 368.046875 294.113281 307.027344 C 294.113281 246.003906 343.582031 196.535156 404.605469 196.535156 C 465.625 196.535156 515.09375 246.003906 515.09375 307.027344 " fill-opacity="1" fill-rule="nonzero"/><path fill="#ffffff" d="M 404.601562 700.214844 C 482.789062 700.214844 554.199219 671.25 608.726562 623.480469 C 591.800781 512.960938 541.960938 436.261719 404.601562 436.261719 C 271.101562 436.261719 219.429688 513.285156 201.273438 624.1875 C 255.699219 671.535156 326.800781 700.214844 404.601562 700.214844 " fill-opacity="1" fill-rule="nonzero"/></svg>