<svg xmlns="http://www.w3.org/2000/svg" xmlns:xlink="http://www.w3.org/1999/xlink" width="1080" zoomAndPan="magnify" viewBox="0 0 810 809.999993" height="1080" preserveAspectRatio="xMidYMid meet" version="1.0"><defs><clipPath id="b0a4187271"><path d="M 103 112 L 706.742188 112 L 706.742188 664 L 103 664 Z M 103 112 " clip-rule="nonzero"/></clipPath><clipPath id="5433a86d67"><path d="M 177.742188 212.082031 C 177.652344 212.347656 177.5625 212.617188 177.472656 212.882812 C 177.441406 212.730469 177.335938 212.546875 177.394531 212.4375 C 177.488281 212.300781 177.605469 212.179688 177.742188 212.082031 Z M 463.554688 126.144531 C 469.140625 127.316406 474.507812 129.523438 480.5 129.183594 C 475.871094 125.453125 470.644531 123.421875 464.515625 123.597656 C 462.183594 123.28125 459.773438 122.574219 457.253906 124.605469 C 459.605469 125.808594 461.488281 126.28125 463.554688 126.144531 Z M 177.789062 211.941406 C 177.773438 211.988281 177.757812 212.035156 177.742188 212.082031 C 177.785156 212.042969 177.816406 212 177.855469 211.960938 Z M 467.941406 661.722656 C 467.574219 661.769531 467.3125 662.445312 466.863281 663.011719 C 467.789062 663.144531 468.609375 663.367188 469.425781 663.359375 C 470.425781 663.347656 471.054688 662.71875 470.257812 661.984375 C 469.808594 661.574219 468.707031 661.613281 467.941406 661.71875 Z M 172.960938 221.253906 C 173.46875 220.675781 173.632812 219.84375 173.949219 219.121094 C 174.503906 218.695312 174.609375 217.863281 174.109375 217.808594 C 172.597656 217.644531 172.261719 218.710938 172.21875 219.867188 C 171.214844 220.363281 169.769531 221.082031 170.554688 222.105469 C 171.5625 223.433594 172.382812 221.910156 172.960938 221.253906 Z M 177.898438 211.878906 C 177.855469 211.894531 177.832031 211.925781 177.789062 211.941406 L 177.855469 211.960938 C 177.867188 211.929688 177.886719 211.90625 177.898438 211.878906 Z M 177.898438 211.878906 C 180.863281 203.539062 187.550781 197.773438 194.1875 191.972656 C 198.589844 189.820312 201.683594 186.253906 204.121094 182.574219 C 206.230469 179.386719 209.058594 177.738281 212.382812 176.28125 C 223.015625 166.835938 233.535156 157.273438 246.808594 148.621094 C 244.769531 157.285156 236.152344 158.390625 231.886719 163.445312 C 227.753906 168.347656 221.703125 171.878906 216.492188 176.015625 L 216.488281 176.015625 C 216.492188 176.015625 216.492188 176.015625 216.492188 176.015625 C 209.644531 182.332031 202.796875 188.648438 195.949219 194.96875 C 195.925781 194.957031 195.921875 194.9375 195.894531 194.925781 C 196.007812 195.765625 195.652344 196.40625 194.894531 196.875 C 194.40625 197.152344 193.917969 197.425781 193.429688 197.703125 C 192.964844 198.019531 192.453125 198.179688 191.890625 198.175781 C 190.40625 199.742188 191.308594 202.941406 187.398438 203.046875 C 186.28125 203.078125 181.597656 204.273438 185.59375 207.542969 C 186.472656 208.257812 184.550781 209.234375 183.625 209.144531 C 180.964844 208.882812 179.851562 211.082031 177.898438 211.878906 Z M 195.90625 194.847656 C 195.90625 194.863281 195.898438 194.871094 195.902344 194.886719 L 195.949219 194.96875 C 195.949219 194.96875 195.90625 194.847656 195.90625 194.847656 Z M 673.816406 274.796875 C 673.8125 279.457031 676.117188 283.234375 679.949219 288.332031 C 678.015625 282.476562 676.632812 278.292969 675.25 274.109375 C 674.28125 272.078125 674.078125 269.609375 671.25 268.328125 C 671.21875 270.921875 672.71875 272.796875 673.816406 274.796875 Z M 647.089844 542.042969 C 648.863281 540.179688 649.945312 538.285156 649.019531 535.332031 C 646.886719 538.8125 646.886719 538.8125 647.089844 542.039062 Z M 705.21875 422.359375 C 705.601562 422.6875 705.980469 423.015625 706.363281 423.339844 C 706.46875 423.101562 706.742188 422.753906 706.65625 422.644531 C 706.324219 422.277344 705.957031 421.945312 705.5625 421.648438 C 705.449219 421.886719 705.335938 422.125 705.21875 422.359375 Z M 642.179688 545.214844 C 636.074219 549.089844 635.835938 549.363281 633.195312 555.675781 C 636.679688 552.835938 639.847656 549.765625 642.179688 545.214844 Z M 455.089844 114.011719 C 450.789062 111.949219 447.542969 112.199219 444.273438 112.539062 C 447.023438 114.742188 450.148438 115.105469 455.089844 114.011719 Z M 407.316406 648.320312 C 407.304688 649.828125 406.007812 650.425781 404.921875 651.167969 C 406.984375 651.117188 408.832031 650.914062 407.316406 648.320312 Z M 616.0625 571.738281 C 621.3125 570.722656 623.53125 566.960938 625.488281 562.96875 C 627.417969 561.898438 630.410156 561.546875 629.214844 558.214844 C 627.132812 559.316406 625.664062 560.707031 625.324219 562.902344 C 620.796875 564.578125 619.136719 568.78125 616.0625 571.742188 Z M 167.230469 229.5 C 167.140625 229.273438 166.214844 229.042969 166.039062 229.191406 C 165.515625 229.59375 165.144531 230.105469 164.917969 230.726562 C 164.691406 231.347656 164.652344 231.976562 164.796875 232.621094 C 165.242188 232.703125 165.859375 232.996094 166.101562 232.824219 C 167.296875 231.992188 167.773438 230.832031 167.234375 229.5 Z M 626.75 204.140625 C 640.082031 217.488281 653.34375 230.683594 661.335938 247.570312 C 663.164062 251.433594 665.480469 255.105469 667.585938 258.859375 C 668.484375 260.460938 669.289062 263.199219 671.550781 262.167969 C 674.40625 260.867188 672.429688 258.339844 671.261719 256.742188 C 667.871094 252.101562 664.65625 247.394531 662.257812 242.242188 C 660.671875 238.839844 659.292969 235.335938 657.429688 232.066406 C 647.773438 215.148438 633.914062 201.304688 619.054688 188.238281 C 609.902344 180.191406 600.988281 171.988281 590.296875 165.421875 C 582.929688 160.902344 576.597656 154.859375 569.265625 150.109375 C 564 146.695312 558.285156 144.363281 550.671875 143.371094 C 553.390625 147.09375 556.265625 148.453125 558.863281 149.984375 C 584.355469 165.019531 606.316406 183.691406 626.75 204.144531 Z M 652.964844 529.71875 C 653.140625 529.828125 653.371094 530.074219 653.480469 530.03125 C 653.902344 529.925781 654.273438 529.722656 654.589844 529.425781 C 654.890625 529.042969 654.558594 528.753906 653.886719 528.757812 C 653.582031 529.078125 653.273438 529.398438 652.96875 529.71875 Z M 283.0625 597.734375 L 283.007812 597.878906 Z M 566.816406 166.464844 L 566.839844 166.511719 C 566.871094 166.511719 566.890625 166.523438 566.921875 166.523438 Z M 559.113281 162.839844 C 559.460938 162.070312 559.808594 161.296875 560.15625 160.527344 C 540.621094 145.570312 518.792969 134.476562 494.910156 126.421875 C 482.742188 122.316406 470.078125 119.65625 457.285156 115 C 459.46875 112.753906 461.609375 113.324219 463.644531 113.695312 C 479.835938 116.625 495.792969 120.320312 511.222656 125.800781 C 526.003906 131.050781 538.542969 139.691406 550.910156 148.410156 C 558 153.410156 564.65625 158.96875 571.855469 163.882812 C 573.238281 164.824219 575.03125 165.710938 574.046875 167.605469 C 573.339844 168.964844 571.429688 168.382812 570.117188 168.847656 C 570.476562 169.179688 570.691406 169.585938 570.757812 170.066406 C 569.753906 169.804688 569.417969 169.125 569.164062 168.394531 C 568.410156 167.773438 567.976562 166.777344 566.917969 166.515625 L 566.921875 166.523438 C 566.910156 166.515625 566.902344 166.507812 566.890625 166.5 C 566.859375 166.492188 566.84375 166.46875 566.816406 166.464844 C 566.832031 166.464844 566.839844 166.480469 566.855469 166.480469 C 565.523438 165.75 564.335938 164.832031 563.292969 163.730469 C 561.96875 163.113281 560.574219 162.816406 559.113281 162.839844 Z M 566.191406 165.097656 C 566.160156 165.082031 566.132812 165.070312 566.101562 165.054688 C 566.367188 165.535156 566.632812 166.023438 566.910156 166.496094 C 567.546875 166.523438 568.125 166.722656 568.644531 167.09375 C 568.484375 166.75 568.242188 166.472656 567.921875 166.261719 C 567.390625 165.808594 566.816406 165.417969 566.191406 165.097656 Z M 686.121094 459.472656 C 685.652344 460.210938 685.179688 460.9375 684.691406 461.65625 C 685.035156 460.546875 685.308594 459.421875 685.507812 458.28125 C 684.515625 460.742188 682.679688 462.9375 681.800781 465.4375 C 680.539062 466.925781 679.097656 468.210938 677.472656 469.289062 C 678.773438 468.996094 680.066406 468.421875 681.378906 469.257812 C 678.296875 471.898438 677.539062 475.191406 678.019531 478.875 C 683.347656 472.542969 687.121094 465.589844 689.152344 457.859375 C 687.238281 456.9375 686.503906 457.910156 686.121094 459.472656 Z M 556.761719 162.183594 C 550.464844 159.328125 544.519531 155.492188 536.757812 155.875 C 537.09375 159.625 539.988281 160.277344 542.714844 161.035156 C 547.113281 162.257812 551.53125 163.421875 555.9375 164.613281 C 554.648438 163.355469 555.164062 162.617188 556.761719 162.183594 Z M 455.429688 658.460938 C 461.222656 658.738281 466.953125 658.214844 472.652344 657.324219 C 478.375 656.648438 484.101562 656.003906 489.816406 655.289062 C 500.140625 653.996094 508.378906 648.121094 517.636719 644.488281 L 517.640625 644.488281 C 519.089844 644.757812 520.472656 644.5625 521.789062 643.90625 C 536.683594 637.109375 551.578125 630.308594 566.46875 623.507812 C 567.785156 622.90625 568.828125 622.042969 569.414062 620.769531 L 569.417969 620.765625 C 576.714844 616.667969 583.089844 611.667969 587.644531 604.90625 C 589.78125 602.449219 592.046875 600.078125 594.023438 597.515625 C 597.289062 593.285156 602.132812 590.148438 604.234375 585.113281 C 602.109375 585.867188 600.105469 586.75 598.601562 588.449219 C 593.710938 593.976562 588.765625 599.460938 583.839844 604.964844 C 583.835938 604.96875 583.832031 604.96875 583.832031 604.972656 C 572.320312 615.082031 559.644531 623.671875 545.269531 630.054688 C 539.488281 631.398438 535.320312 635.816406 529.488281 637.0625 C 521.753906 639.964844 513.453125 641.5625 506.277344 645.769531 C 499.585938 649.691406 492.191406 651.820312 484.347656 652.824219 C 481.222656 653.222656 478.15625 654.019531 475.0625 654.640625 L 457.867188 655.453125 C 459.398438 658.066406 457.632812 658.414062 455.429688 658.460938 Z M 105.714844 321.03125 C 105.679688 320.882812 104.746094 320.679688 104.449219 320.839844 C 103.980469 321.074219 103.625 321.425781 103.382812 321.894531 C 103.140625 322.359375 103.0625 322.851562 103.140625 323.371094 C 103.597656 323.445312 104.175781 323.710938 104.480469 323.546875 C 105.484375 323.007812 105.949219 322.097656 105.714844 321.03125 Z M 332.171875 605.574219 L 332.105469 605.8125 C 332.136719 605.695312 332.171875 605.574219 332.171875 605.574219 Z M 332.105469 605.8125 L 332.042969 606.035156 C 332.042969 606.035156 332.074219 605.925781 332.105469 605.8125 Z M 693.539062 383.441406 C 694.96875 372.507812 696.019531 361.585938 691.984375 350.871094 L 691.988281 350.871094 C 691.824219 340.652344 690.691406 330.496094 689.191406 320.386719 C 688.109375 313.125 686.257812 305.988281 683.257812 299.152344 C 684.300781 295.871094 681.964844 293.894531 679.757812 291.824219 C 680.230469 294.054688 680.699219 296.28125 681.167969 298.507812 L 681.171875 298.507812 C 686.601562 315.28125 687.332031 332.683594 689.335938 349.914062 C 689.746094 360.410156 690.152344 370.90625 690.558594 381.402344 C 693.109375 380.160156 693.835938 381.164062 693.539062 383.441406 Z M 268.152344 630.488281 C 267.921875 630.175781 267.613281 630.054688 267.230469 630.121094 C 267.441406 630.292969 267.660156 630.457031 267.871094 630.621094 C 267.546875 630.792969 267.21875 630.96875 266.882812 631.101562 C 265.769531 631.742188 264.574219 631.980469 263.300781 631.824219 C 260.980469 630.570312 258.660156 629.324219 256.335938 628.082031 C 251.242188 624.363281 245.515625 621.652344 239.789062 618.933594 C 238.675781 618.296875 237.53125 617.710938 236.429688 617.058594 C 236.242188 616.980469 236.089844 616.847656 235.910156 616.761719 C 236.046875 616.359375 236.179688 615.957031 236.316406 615.550781 C 235.808594 615.660156 235.359375 615.882812 234.96875 616.226562 C 232.835938 615.042969 230.90625 613.5625 228.589844 612.625 C 224.320312 610.898438 219.757812 609.40625 218.511719 604.484375 C 218.226562 605.1875 218.117188 605.917969 218.175781 606.675781 C 217.921875 606.4375 217.621094 606.265625 217.375 606.011719 C 215.441406 604.8125 215.527344 601.933594 212.8125 601.375 C 215.480469 611.164062 220.792969 618.957031 231.304688 623.246094 C 236.582031 625.398438 241.472656 628.332031 246.671875 630.664062 C 258.632812 636.03125 270.589844 641.433594 283.347656 645.109375 C 286.609375 646.046875 289.945312 647.574219 292.875 644.414062 C 291.644531 641.199219 288.347656 641.449219 285.75 640.644531 C 279.476562 638.695312 272.875 637.535156 267.296875 633.972656 C 267.664062 632.992188 268.03125 632.011719 268.394531 631.03125 C 269.367188 630.746094 270.339844 630.464844 271.3125 630.179688 C 270.085938 629.578125 269.109375 629.992188 268.152344 630.488281 Z M 145.375 514.492188 C 145.019531 511.390625 144.882812 508.242188 143.796875 505.136719 C 147.523438 504.011719 150.738281 502.707031 152.558594 507.0625 C 153.523438 509.367188 155.800781 510.363281 158.214844 509.785156 C 166.40625 507.824219 172.132812 511.421875 177.421875 516.40625 C 178.613281 517.53125 180.089844 518.402344 181.621094 519.523438 C 181.28125 513.578125 180.71875 507.824219 180.683594 502.066406 C 180.667969 498.804688 181.59375 496.558594 183.285156 495.289062 C 180.140625 490.375 177.105469 485.367188 174.304688 480.179688 C 151.773438 438.414062 143.8125 393.515625 148.519531 350.3125 C 147.371094 347.417969 146.15625 344.535156 144.941406 341.652344 C 141.769531 334.148438 140.375 326.25 140.359375 318.210938 C 140.339844 309.324219 145.34375 302.386719 151.972656 296.628906 C 156.585938 292.625 161.28125 288.691406 166.003906 284.792969 C 185.5 240.128906 219.636719 200.726562 265.96875 173.234375 C 271.527344 169.605469 277.289062 166.332031 283.253906 163.417969 C 289.503906 160.363281 295.871094 157.6875 302.304688 155.203125 C 303.640625 154.660156 304.984375 154.148438 306.324219 153.628906 C 306.8125 153.453125 307.292969 153.261719 307.777344 153.089844 C 416.804688 111.496094 541.40625 143.292969 612.148438 227.074219 C 611.210938 225.765625 610.269531 224.460938 609.21875 223.191406 C 600.695312 212.863281 595.726562 200.257812 585.863281 190.800781 C 576.335938 181.667969 566.910156 172.375 555.941406 164.613281 C 556.214844 163.804688 556.488281 162.996094 556.761719 162.1875 C 557.546875 162.402344 558.328125 162.621094 559.113281 162.839844 C 561.417969 164.550781 563.539062 166.585938 566.839844 166.511719 C 567.722656 168.089844 568.359375 169.894531 570.757812 170.070312 C 577.707031 178.621094 586.277344 185.753906 594.640625 193.058594 C 597.628906 195.671875 600.230469 198.65625 601.722656 202.054688 C 606.222656 212.3125 613.945312 220.636719 620.367188 229.757812 C 628.746094 241.699219 636.285156 254.148438 642.988281 267.105469 C 651.355469 283.113281 658.75 299.558594 665.175781 316.441406 C 667.726562 323.195312 669.660156 330.175781 669.070312 337.492188 C 668.675781 342.398438 671.363281 346.703125 672.511719 351.300781 C 673.246094 354.234375 675.050781 350.988281 677.140625 351.253906 C 673.808594 356.554688 674.398438 362.125 674.855469 367.789062 C 675.800781 379.449219 677.167969 391.105469 676.742188 402.832031 C 676.652344 405.21875 676.789062 407.382812 680.421875 405.605469 C 680.421875 405.609375 680.421875 405.613281 680.421875 405.617188 C 684.050781 397.632812 689.417969 390.265625 690.558594 381.402344 C 692.089844 381.414062 692.914062 382.308594 693.539062 383.441406 C 694.332031 388.890625 692.238281 394.386719 693.441406 400.613281 C 697.40625 397.914062 698.15625 394.769531 698.492188 391.28125 C 699.382812 381.957031 699.003906 372.664062 698.191406 363.363281 C 697.941406 360.492188 697.179688 357.625 698.078125 354.675781 C 702.632812 359.28125 705.441406 365.003906 704.191406 373.203125 C 701.695312 389.566406 702.617188 406.152344 699.558594 422.46875 C 697.285156 434.59375 694.203125 446.457031 689.152344 457.863281 L 689.148438 457.863281 L 689.148438 457.859375 C 688.839844 457.136719 688.515625 456.425781 688.222656 455.703125 C 687.875 454.847656 688.121094 453.414062 686.566406 453.617188 C 685.273438 453.785156 685.054688 455.035156 685.023438 456.054688 C 685.003906 456.792969 685.332031 457.539062 685.503906 458.28125 C 681.613281 461.199219 679.765625 465.382812 677.46875 469.289062 L 677.464844 469.289062 C 673.289062 478.835938 667.054688 487.53125 663.007812 497.042969 C 656.835938 511.550781 648.054688 524.570312 638.585938 537.261719 C 633.539062 544.027344 626.542969 549.410156 620.308594 555.171875 C 604.640625 569.648438 590.078125 585.273438 571.839844 597.28125 C 552.460938 610.039062 531.988281 620.796875 509.078125 627.296875 C 506.335938 628.078125 503.730469 629.3125 501.144531 630.492188 C 495.4375 633.097656 489.757812 635.632812 483.484375 637.054688 C 473.09375 639.40625 465.222656 646.085938 456.515625 651.253906 C 454.347656 652.539062 455.851562 654.445312 457.867188 655.449219 C 457.796875 656.96875 456.617188 657.722656 455.417969 658.460938 C 455.421875 658.460938 455.425781 658.460938 455.429688 658.460938 C 455.425781 658.460938 455.421875 658.460938 455.417969 658.460938 C 447.570312 660.328125 439.707031 662 431.519531 660.445312 C 428.332031 659.839844 425.21875 660.519531 422.070312 660.96875 C 395.902344 664.71875 370.257812 663.347656 345.253906 654.664062 C 337.164062 651.855469 328.625 650.160156 320.296875 648.089844 C 308.203125 645.085938 296.773438 640.890625 285.53125 636.011719 C 280.839844 633.972656 276.054688 632.117188 271.3125 630.179688 C 269.96875 629.03125 268.601562 629.40625 267.226562 630.121094 L 267.230469 630.121094 L 267.226562 630.121094 C 263.578125 631.96875 261.054688 629.578125 258.953125 627.722656 C 252.433594 621.960938 244.320312 618.878906 236.316406 615.550781 C 230.902344 611.152344 223.019531 610.109375 218.507812 604.480469 C 216.90625 602.984375 215.40625 601.328125 212.808594 601.371094 C 210.683594 600.914062 206.949219 604.246094 206.757812 599.167969 C 206.730469 598.457031 206.359375 597.375 205.796875 597.125 C 198.671875 593.9375 195.902344 586.929688 190.289062 582.332031 C 180.507812 574.328125 173.535156 564.082031 166.289062 554.132812 C 162.109375 548.386719 157.953125 542.625 153.78125 536.878906 C 148.851562 530.09375 146.296875 522.457031 145.375 514.492188 Z M 681.394531 408.148438 C 683.175781 408.246094 683.765625 406.589844 683.109375 405.4375 C 682.515625 404.398438 681.308594 405.125 680.433594 405.722656 C 680.613281 406.636719 680.117188 408.078125 681.394531 408.148438 Z M 264.203125 581.351562 C 260.230469 577.894531 256.605469 574.03125 250.496094 572.988281 L 263.0625 582.75 C 263.441406 582.285156 263.824219 581.816406 264.203125 581.351562 Z M 275.769531 592.949219 C 275.160156 592.59375 274.339844 592.550781 273.542969 592.351562 C 273.601562 592.992188 273.460938 593.691406 273.714844 593.847656 C 274.335938 594.230469 275.269531 594.703125 275.835938 594.519531 C 276.804688 594.203125 276.417969 593.328125 275.769531 592.949219 Z M 412.277344 649.195312 C 410.53125 647.714844 408.921875 648.035156 407.3125 648.320312 C 404.132812 648.304688 400.949219 648.246094 397.769531 648.273438 C 387.644531 648.363281 377.65625 648.238281 367.695312 645.5625 C 363.117188 644.328125 358.609375 642.042969 353.535156 642.375 C 346.558594 642.828125 339.679688 641.886719 332.777344 641.183594 C 329.738281 640.871094 326.554688 639.992188 323.304688 642.054688 C 325.019531 644.210938 327.320312 644.542969 329.429688 645.011719 C 337.589844 646.828125 345.355469 649.671875 353.265625 652.195312 C 368.019531 656.894531 383.140625 658.386719 398.175781 652.421875 C 400.234375 651.601562 402.664062 651.566406 404.921875 651.167969 C 407.894531 652.105469 410.027344 650.84375 412.277344 649.195312 Z M 440.632812 631.058594 C 439.90625 629.71875 438.945312 630.15625 438.144531 630.175781 C 401.59375 630.949219 365.183594 629.820312 329.148438 623.492188 C 328.015625 623.269531 326.871094 623.160156 325.714844 623.164062 C 315.125 623.371094 304.949219 622.390625 296.628906 615.371094 C 295.386719 614.324219 293.820312 613.445312 290.949219 614.269531 C 294.601562 619.382812 299.542969 621.984375 304.769531 624.257812 C 319.523438 630.679688 335.484375 633.691406 350.992188 637.972656 C 359.089844 640.210938 367.378906 640.84375 375.886719 640.363281 C 382.796875 639.976562 389.777344 640.414062 396.71875 640.675781 C 405.402344 641.054688 414.078125 640.902344 422.742188 640.210938 C 424.753906 640.035156 427.96875 640.203125 428.527344 639.214844 C 431.152344 634.558594 436.75 633.8125 440.632812 631.058594 Z M 323.410156 604.519531 C 323.410156 604.519531 323.5 604.210938 323.5 604.210938 C 321.5625 602.878906 319.507812 602.605469 317.3125 603.617188 C 319.121094 605.160156 321.175781 605.34375 323.410156 604.519531 C 326.050781 606.167969 328.855469 607.015625 332.042969 606.035156 C 332.777344 606.359375 333.480469 606.824219 334.253906 606.976562 C 335.242188 607.171875 336.617188 607.589844 336.652344 606.003906 C 336.65625 605.730469 335.324219 605.257812 334.574219 605.191406 C 333.792969 605.121094 332.972656 605.433594 332.171875 605.574219 C 329.460938 604.152344 326.675781 603.140625 323.5 604.210938 Z M 303.335938 601.449219 C 306.9375 603.203125 310.683594 604.085938 314.714844 602.867188 C 309.332031 599.859375 303.128906 598.605469 297.515625 595.980469 C 291.730469 593.273438 286.964844 588.796875 280.375 587.246094 C 280.019531 589.859375 281.65625 590.847656 283.519531 591.75 C 290.132812 594.96875 296.722656 598.230469 303.335938 601.449219 Z M 293.449219 602.8125 C 293.148438 602.941406 293.078125 603.535156 292.902344 603.917969 C 293.296875 604.160156 293.726562 604.625 294.066406 604.574219 C 294.441406 604.519531 295.023438 603.972656 295.003906 603.667969 C 294.949219 602.859375 294.277344 602.460938 293.445312 602.8125 Z M 283.0625 597.734375 C 282.703125 597.652344 282.34375 597.566406 281.988281 597.484375 C 282.328125 597.617188 282.667969 597.746094 283.011719 597.878906 C 284.503906 600.347656 286.578125 601.515625 289.992188 600.585938 C 288.074219 598.242188 285.726562 597.65625 283.0625 597.734375 Z M 317.148438 603.585938 C 316.886719 603.296875 316.570312 603.09375 316.199219 602.976562 C 315.828125 602.863281 315.449219 602.851562 315.070312 602.941406 C 315.328125 603.238281 315.644531 603.445312 316.015625 603.5625 C 316.390625 603.679688 316.769531 603.6875 317.148438 603.585938 Z M 581.789062 552.535156 C 583.644531 550.945312 585.183594 549.09375 586.410156 546.976562 C 567.960938 563.144531 546.601562 577.074219 522.578125 588.042969 C 514.691406 591.640625 506.714844 594.835938 498.640625 597.632812 C 506.902344 595.710938 514.9375 593.097656 522.75 589.789062 C 544.726562 580.523438 563.980469 567.453125 581.789062 552.535156 Z M 150.191406 338.160156 C 152.191406 326.113281 155.152344 314.308594 159.082031 302.746094 C 157.996094 303.570312 156.90625 304.390625 155.871094 305.265625 C 146.121094 313.476562 144.324219 324.085938 149.085938 335.457031 C 149.460938 336.351562 149.816406 337.261719 150.191406 338.160156 Z M 189.527344 512.941406 C 189.679688 513.753906 190.394531 514.160156 191.433594 513.949219 C 192.8125 513.234375 193.207031 512.058594 192.699219 510.722656 C 192.386719 509.898438 191.539062 509.605469 190.691406 510.207031 C 190.238281 510.503906 189.902344 510.898438 189.691406 511.398438 C 189.480469 511.894531 189.425781 512.410156 189.527344 512.941406 Z M 223.417969 560.277344 C 217.417969 556.449219 214.707031 551 207.550781 547.308594 C 211.46875 556.40625 213.957031 558.394531 223.417969 560.277344 Z M 157.058594 489.335938 C 157.246094 488.664062 156.816406 488.28125 156.0625 488.367188 C 155.355469 488.449219 154.941406 488.914062 155.183594 489.515625 C 155.355469 489.949219 155.882812 490.269531 156.253906 490.640625 C 156.53125 490.207031 156.929688 489.804688 157.058594 489.335938 Z M 612.070312 575.230469 C 608.71875 578.859375 605.273438 580.957031 604.382812 584.988281 C 608.824219 583.675781 611.445312 580.949219 612.070312 575.230469 Z M 604.28125 585.03125 C 604.269531 585.058594 604.246094 585.082031 604.234375 585.109375 C 604.273438 585.097656 604.3125 585.074219 604.355469 585.058594 Z M 604.28125 585.03125 L 604.351562 585.058594 C 604.359375 585.03125 604.375 585.011719 604.382812 584.988281 C 604.34375 584.996094 604.320312 585.019531 604.28125 585.03125 Z M 604.28125 585.03125 " clip-rule="nonzero"/></clipPath><linearGradient x1="960.682797" gradientTransform="matrix(0.333951, 0, 0, 0.334136, 70.947528, 53.69863)" y1="131.077412" x2="1044.980844" gradientUnits="userSpaceOnUse" y2="1870.280042" id="7a428e356d"><stop stop-opacity="1" stop-color="rgb(49.026489%, 81.027222%, 18.57605%)" offset="0"/><stop stop-opacity="1" stop-color="rgb(48.63739%, 80.819702%, 18.701172%)" offset="0.00390625"/><stop stop-opacity="1" stop-color="rgb(48.248291%, 80.612183%, 18.82782%)" offset="0.0078125"/><stop stop-opacity="1" stop-color="rgb(47.859192%, 80.404663%, 18.952942%)" offset="0.0117188"/><stop stop-opacity="1" stop-color="rgb(47.470093%, 80.197144%, 19.07959%)" offset="0.015625"/><stop stop-opacity="1" stop-color="rgb(47.12677%, 80.012512%, 19.189453%)" offset="0.0195312"/><stop stop-opacity="1" stop-color="rgb(46.783447%, 79.829407%, 19.299316%)" offset="0.0234375"/><stop stop-opacity="1" stop-color="rgb(46.481323%, 79.667664%, 19.395447%)" offset="0.0273438"/><stop stop-opacity="1" stop-color="rgb(46.180725%, 79.507446%, 19.491577%)" offset="0.03125"/><stop stop-opacity="1" stop-color="rgb(45.878601%, 79.345703%, 19.587708%)" offset="0.0351563"/><stop stop-opacity="1" stop-color="rgb(45.578003%, 79.18396%, 19.683838%)" offset="0.0390625"/><stop stop-opacity="1" stop-color="rgb(45.275879%, 79.022217%, 19.778442%)" offset="0.0429688"/><stop stop-opacity="1" stop-color="rgb(44.975281%, 78.860474%, 19.874573%)" offset="0.046875"/><stop stop-opacity="1" stop-color="rgb(44.673157%, 78.69873%, 19.970703%)" offset="0.0507813"/><stop stop-opacity="1" stop-color="rgb(44.372559%, 78.536987%, 20.066833%)" offset="0.0546875"/><stop stop-opacity="1" stop-color="rgb(44.07196%, 78.375244%, 20.162964%)" offset="0.0585938"/><stop stop-opacity="1" stop-color="rgb(43.771362%, 78.213501%, 20.259094%)" offset="0.0625"/><stop stop-opacity="1" stop-color="rgb(43.469238%, 78.051758%, 20.353699%)" offset="0.0664062"/><stop stop-opacity="1" stop-color="rgb(43.16864%, 77.890015%, 20.449829%)" offset="0.0703125"/><stop stop-opacity="1" stop-color="rgb(42.866516%, 77.728271%, 20.545959%)" offset="0.0742188"/><stop stop-opacity="1" stop-color="rgb(42.565918%, 77.568054%, 20.64209%)" offset="0.078125"/><stop stop-opacity="1" stop-color="rgb(42.263794%, 77.406311%, 20.736694%)" offset="0.0820313"/><stop stop-opacity="1" stop-color="rgb(41.963196%, 77.244568%, 20.832825%)" offset="0.0859375"/><stop stop-opacity="1" stop-color="rgb(41.661072%, 77.082825%, 20.928955%)" offset="0.0898438"/><stop stop-opacity="1" stop-color="rgb(41.360474%, 76.921082%, 21.025085%)" offset="0.09375"/><stop stop-opacity="1" stop-color="rgb(41.05835%, 76.759338%, 21.121216%)" offset="0.0976563"/><stop stop-opacity="1" stop-color="rgb(40.757751%, 76.597595%, 21.217346%)" offset="0.101563"/><stop stop-opacity="1" stop-color="rgb(40.455627%, 76.435852%, 21.311951%)" offset="0.105469"/><stop stop-opacity="1" stop-color="rgb(40.155029%, 76.274109%, 21.408081%)" offset="0.109375"/><stop stop-opacity="1" stop-color="rgb(39.852905%, 76.112366%, 21.504211%)" offset="0.113281"/><stop stop-opacity="1" stop-color="rgb(39.552307%, 75.950623%, 21.600342%)" offset="0.117188"/><stop stop-opacity="1" stop-color="rgb(39.250183%, 75.788879%, 21.696472%)" offset="0.121094"/><stop stop-opacity="1" stop-color="rgb(38.949585%, 75.628662%, 21.792603%)" offset="0.125"/><stop stop-opacity="1" stop-color="rgb(38.647461%, 75.466919%, 21.887207%)" offset="0.128906"/><stop stop-opacity="1" stop-color="rgb(38.346863%, 75.305176%, 21.983337%)" offset="0.132812"/><stop stop-opacity="1" stop-color="rgb(38.044739%, 75.143433%, 22.079468%)" offset="0.136719"/><stop stop-opacity="1" stop-color="rgb(37.744141%, 74.981689%, 22.175598%)" offset="0.140625"/><stop stop-opacity="1" stop-color="rgb(37.442017%, 74.819946%, 22.271729%)" offset="0.144531"/><stop stop-opacity="1" stop-color="rgb(37.141418%, 74.658203%, 22.367859%)" offset="0.148438"/><stop stop-opacity="1" stop-color="rgb(36.839294%, 74.49646%, 22.462463%)" offset="0.152344"/><stop stop-opacity="1" stop-color="rgb(36.538696%, 74.334717%, 22.558594%)" offset="0.15625"/><stop stop-opacity="1" stop-color="rgb(36.25946%, 74.183655%, 22.648621%)" offset="0.160156"/><stop stop-opacity="1" stop-color="rgb(35.980225%, 74.034119%, 22.738647%)" offset="0.164062"/><stop stop-opacity="1" stop-color="rgb(35.760498%, 73.913574%, 22.808838%)" offset="0.167969"/><stop stop-opacity="1" stop-color="rgb(35.540771%, 73.794556%, 22.880554%)" offset="0.171875"/><stop stop-opacity="1" stop-color="rgb(35.321045%, 73.674011%, 22.952271%)" offset="0.175781"/><stop stop-opacity="1" stop-color="rgb(35.101318%, 73.553467%, 23.023987%)" offset="0.179687"/><stop stop-opacity="1" stop-color="rgb(34.881592%, 73.432922%, 23.095703%)" offset="0.183594"/><stop stop-opacity="1" stop-color="rgb(34.661865%, 73.313904%, 23.167419%)" offset="0.1875"/><stop stop-opacity="1" stop-color="rgb(34.440613%, 73.193359%, 23.239136%)" offset="0.191406"/><stop stop-opacity="1" stop-color="rgb(34.220886%, 73.072815%, 23.310852%)" offset="0.195313"/><stop stop-opacity="1" stop-color="rgb(34.00116%, 72.952271%, 23.382568%)" offset="0.199219"/><stop stop-opacity="1" stop-color="rgb(33.781433%, 72.833252%, 23.454285%)" offset="0.203125"/><stop stop-opacity="1" stop-color="rgb(33.561707%, 72.712708%, 23.524475%)" offset="0.207031"/><stop stop-opacity="1" stop-color="rgb(33.34198%, 72.592163%, 23.596191%)" offset="0.210938"/><stop stop-opacity="1" stop-color="rgb(33.122253%, 72.471619%, 23.667908%)" offset="0.214844"/><stop stop-opacity="1" stop-color="rgb(32.902527%, 72.3526%, 23.739624%)" offset="0.21875"/><stop stop-opacity="1" stop-color="rgb(32.6828%, 72.232056%, 23.81134%)" offset="0.222656"/><stop stop-opacity="1" stop-color="rgb(32.463074%, 72.111511%, 23.883057%)" offset="0.226562"/><stop stop-opacity="1" stop-color="rgb(32.241821%, 71.990967%, 23.954773%)" offset="0.230469"/><stop stop-opacity="1" stop-color="rgb(32.022095%, 71.871948%, 24.026489%)" offset="0.234375"/><stop stop-opacity="1" stop-color="rgb(31.802368%, 71.751404%, 24.098206%)" offset="0.238281"/><stop stop-opacity="1" stop-color="rgb(31.582642%, 71.630859%, 24.169922%)" offset="0.242188"/><stop stop-opacity="1" stop-color="rgb(31.362915%, 71.510315%, 24.241638%)" offset="0.246094"/><stop stop-opacity="1" stop-color="rgb(31.143188%, 71.391296%, 24.313354%)" offset="0.25"/><stop stop-opacity="1" stop-color="rgb(30.923462%, 71.270752%, 24.383545%)" offset="0.253906"/><stop stop-opacity="1" stop-color="rgb(30.703735%, 71.150208%, 24.455261%)" offset="0.257812"/><stop stop-opacity="1" stop-color="rgb(30.484009%, 71.029663%, 24.526978%)" offset="0.261719"/><stop stop-opacity="1" stop-color="rgb(30.264282%, 70.910645%, 24.598694%)" offset="0.265625"/><stop stop-opacity="1" stop-color="rgb(30.044556%, 70.7901%, 24.67041%)" offset="0.269531"/><stop stop-opacity="1" stop-color="rgb(29.824829%, 70.669556%, 24.742126%)" offset="0.273438"/><stop stop-opacity="1" stop-color="rgb(29.603577%, 70.549011%, 24.813843%)" offset="0.277344"/><stop stop-opacity="1" stop-color="rgb(29.38385%, 70.429993%, 24.885559%)" offset="0.28125"/><stop stop-opacity="1" stop-color="rgb(29.164124%, 70.309448%, 24.957275%)" offset="0.285156"/><stop stop-opacity="1" stop-color="rgb(28.944397%, 70.188904%, 25.028992%)" offset="0.289062"/><stop stop-opacity="1" stop-color="rgb(28.72467%, 70.068359%, 25.100708%)" offset="0.292969"/><stop stop-opacity="1" stop-color="rgb(28.504944%, 69.949341%, 25.172424%)" offset="0.296875"/><stop stop-opacity="1" stop-color="rgb(28.285217%, 69.828796%, 25.242615%)" offset="0.300781"/><stop stop-opacity="1" stop-color="rgb(28.065491%, 69.708252%, 25.314331%)" offset="0.304687"/><stop stop-opacity="1" stop-color="rgb(27.845764%, 69.587708%, 25.386047%)" offset="0.308594"/><stop stop-opacity="1" stop-color="rgb(27.626038%, 69.468689%, 25.457764%)" offset="0.3125"/><stop stop-opacity="1" stop-color="rgb(27.464294%, 69.381714%, 25.505066%)" offset="0.320312"/><stop stop-opacity="1" stop-color="rgb(27.165222%, 69.223022%, 25.588989%)" offset="0.328125"/><stop stop-opacity="1" stop-color="rgb(26.890564%, 69.078064%, 25.663757%)" offset="0.335938"/><stop stop-opacity="1" stop-color="rgb(26.61438%, 68.934631%, 25.738525%)" offset="0.34375"/><stop stop-opacity="1" stop-color="rgb(26.339722%, 68.789673%, 25.813293%)" offset="0.351562"/><stop stop-opacity="1" stop-color="rgb(26.065063%, 68.644714%, 25.888062%)" offset="0.359375"/><stop stop-opacity="1" stop-color="rgb(25.788879%, 68.499756%, 25.96283%)" offset="0.367188"/><stop stop-opacity="1" stop-color="rgb(25.514221%, 68.356323%, 26.036072%)" offset="0.375"/><stop stop-opacity="1" stop-color="rgb(25.239563%, 68.211365%, 26.11084%)" offset="0.382812"/><stop stop-opacity="1" stop-color="rgb(24.963379%, 68.066406%, 26.185608%)" offset="0.390625"/><stop stop-opacity="1" stop-color="rgb(24.688721%, 67.921448%, 26.260376%)" offset="0.398437"/><stop stop-opacity="1" stop-color="rgb(24.414062%, 67.778015%, 26.335144%)" offset="0.40625"/><stop stop-opacity="1" stop-color="rgb(24.137878%, 67.633057%, 26.409912%)" offset="0.414062"/><stop stop-opacity="1" stop-color="rgb(23.86322%, 67.488098%, 26.48468%)" offset="0.421875"/><stop stop-opacity="1" stop-color="rgb(23.588562%, 67.34314%, 26.559448%)" offset="0.429687"/><stop stop-opacity="1" stop-color="rgb(23.312378%, 67.199707%, 26.634216%)" offset="0.4375"/><stop stop-opacity="1" stop-color="rgb(23.03772%, 67.054749%, 26.708984%)" offset="0.445312"/><stop stop-opacity="1" stop-color="rgb(22.763062%, 66.90979%, 26.783752%)" offset="0.453125"/><stop stop-opacity="1" stop-color="rgb(22.486877%, 66.764832%, 26.856995%)" offset="0.460937"/><stop stop-opacity="1" stop-color="rgb(22.212219%, 66.621399%, 26.931763%)" offset="0.46875"/><stop stop-opacity="1" stop-color="rgb(21.936035%, 66.47644%, 27.006531%)" offset="0.476562"/><stop stop-opacity="1" stop-color="rgb(21.678162%, 66.340637%, 27.078247%)" offset="0.484375"/><stop stop-opacity="1" stop-color="rgb(21.414185%, 66.197205%, 27.154541%)" offset="0.5"/><stop stop-opacity="1" stop-color="rgb(21.125793%, 66.035461%, 27.243042%)" offset="0.515625"/><stop stop-opacity="1" stop-color="rgb(20.837402%, 65.875244%, 27.331543%)" offset="0.53125"/><stop stop-opacity="1" stop-color="rgb(20.547485%, 65.715027%, 27.420044%)" offset="0.546875"/><stop stop-opacity="1" stop-color="rgb(20.259094%, 65.55481%, 27.508545%)" offset="0.5625"/><stop stop-opacity="1" stop-color="rgb(19.970703%, 65.394592%, 27.597046%)" offset="0.578125"/><stop stop-opacity="1" stop-color="rgb(19.680786%, 65.232849%, 27.685547%)" offset="0.59375"/><stop stop-opacity="1" stop-color="rgb(19.392395%, 65.072632%, 27.774048%)" offset="0.609375"/><stop stop-opacity="1" stop-color="rgb(19.104004%, 64.912415%, 27.861023%)" offset="0.625"/><stop stop-opacity="1" stop-color="rgb(18.814087%, 64.752197%, 27.949524%)" offset="0.640625"/><stop stop-opacity="1" stop-color="rgb(18.525696%, 64.590454%, 28.038025%)" offset="0.65625"/><stop stop-opacity="1" stop-color="rgb(18.235779%, 64.430237%, 28.126526%)" offset="0.671875"/><stop stop-opacity="1" stop-color="rgb(18.025208%, 64.317322%, 28.192139%)" offset="0.6875"/><stop stop-opacity="1" stop-color="rgb(17.835999%, 64.239502%, 28.257751%)" offset="0.75"/><stop stop-opacity="1" stop-color="rgb(17.593384%, 64.151001%, 28.346252%)" offset="0.8125"/><stop stop-opacity="1" stop-color="rgb(17.350769%, 64.064026%, 28.434753%)" offset="0.875"/><stop stop-opacity="1" stop-color="rgb(17.063904%, 63.95874%, 28.538513%)" offset="0.94974"/><stop stop-opacity="1" stop-color="rgb(16.899109%, 63.899231%, 28.599548%)" offset="1"/></linearGradient></defs><g clip-path="url(#b0a4187271)"><g clip-path="url(#5433a86d67)"><path fill="url(#7a428e356d)" d="M 103.0625 111.496094 L 103.0625 664.71875 L 706.742188 664.71875 L 706.742188 111.496094 Z M 103.0625 111.496094 " fill-rule="nonzero"/></g></g><path fill="#ffffff" d="M 254.050781 383.644531 C 233.4375 383.644531 229.546875 373.671875 231.324219 358.511719 L 231.324219 358.382812 C 231.3125 358.105469 231.335938 357.832031 231.386719 357.5625 C 231.527344 356.675781 231.667969 355.714844 231.800781 354.828125 C 231.878906 354.164062 231.996094 353.503906 232.140625 352.851562 C 232.824219 348.957031 233.980469 343.90625 235.277344 338.4375 C 235.828125 336.058594 236.441406 333.589844 236.984375 331.136719 C 239.714844 322.511719 241.304688 313.679688 241.761719 304.644531 C 241.527344 304.222656 241.1875 303.914062 240.742188 303.722656 C 240.300781 303.535156 239.84375 303.5 239.375 303.621094 C 235.621094 304.78125 232.117188 306.464844 228.863281 308.667969 C 225.589844 310.3125 221.964844 307.390625 220.472656 305.734375 C 219.699219 305.078125 219.027344 304.332031 218.460938 303.496094 C 217.890625 302.65625 217.445312 301.757812 217.121094 300.796875 C 216.800781 299.835938 216.613281 298.847656 216.558594 297.835938 C 216.507812 296.824219 216.59375 295.824219 216.8125 294.835938 C 217.035156 293.847656 217.386719 292.90625 217.867188 292.015625 C 218.34375 291.121094 218.933594 290.3125 219.636719 289.578125 C 220.339844 288.847656 221.125 288.226562 221.996094 287.710938 C 222.867188 287.195312 223.792969 286.808594 224.773438 286.546875 C 228.457031 285.40625 231.710938 283.519531 234.53125 280.886719 C 238.828125 277.191406 238.640625 275.558594 244.152344 271.191406 C 245.953125 269.917969 247.957031 269.210938 250.160156 269.066406 C 252.273438 268.863281 273.699219 267.839844 273.699219 279.316406 C 273.699219 287.367188 263.125 298.910156 272.199219 336.058594 C 278.816406 363.039062 283.730469 383.644531 254.050781 383.644531 Z M 254.050781 383.644531 " fill-opacity="1" fill-rule="nonzero"/><path fill="#ffffff" d="M 375.761719 354.839844 C 366.945312 373.578125 350.71875 383.988281 325.507812 383.988281 C 280.886719 383.988281 270.632812 317.425781 292.121094 288.957031 C 293.105469 287.65625 294.15625 286.398438 295.261719 285.195312 C 296.371094 283.992188 297.535156 282.84375 298.75 281.75 C 299.96875 280.660156 301.238281 279.625 302.554688 278.65625 C 303.871094 277.683594 305.230469 276.777344 306.632812 275.9375 C 308.035156 275.097656 309.476562 274.328125 310.953125 273.625 C 312.433594 272.921875 313.941406 272.292969 315.476562 271.734375 C 317.015625 271.175781 318.578125 270.695312 320.160156 270.285156 C 321.746094 269.878906 323.34375 269.546875 324.960938 269.292969 C 326.574219 269.035156 328.199219 268.859375 329.832031 268.761719 C 331.464844 268.664062 333.097656 268.640625 334.734375 268.699219 C 336.367188 268.757812 337.996094 268.894531 339.617188 269.109375 C 341.242188 269.320312 342.847656 269.613281 344.441406 269.980469 C 346.035156 270.351562 347.609375 270.792969 349.160156 271.3125 C 350.710938 271.832031 352.234375 272.421875 353.726562 273.089844 C 355.222656 273.753906 356.683594 274.488281 358.105469 275.292969 C 359.53125 276.097656 360.914062 276.972656 362.253906 277.910156 C 387.058594 299.261719 386.207031 332.609375 375.761719 354.839844 Z M 352.167969 308.574219 C 351.828125 291.167969 343.679688 286.941406 334.960938 286.128906 C 333.394531 286.148438 331.855469 286.359375 330.339844 286.761719 C 328.824219 287.164062 327.382812 287.746094 326.015625 288.507812 C 324.644531 289.265625 323.390625 290.183594 322.246094 291.257812 C 321.105469 292.328125 320.113281 293.523438 319.265625 294.84375 C 314.449219 303.34375 313.308594 327.675781 329.6875 337.914062 C 339.445312 344.011719 352.492188 326.085938 352.167969 308.574219 Z M 352.167969 308.574219 " fill-opacity="1" fill-rule="nonzero"/><path fill="#ffffff" d="M 485.574219 354.839844 C 476.757812 373.578125 460.535156 383.988281 435.324219 383.988281 C 390.699219 383.988281 380.445312 317.425781 401.933594 288.957031 C 402.921875 287.65625 403.96875 286.398438 405.074219 285.195312 C 406.183594 283.992188 407.347656 282.84375 408.566406 281.75 C 409.78125 280.660156 411.050781 279.628906 412.367188 278.65625 C 413.683594 277.683594 415.042969 276.78125 416.445312 275.9375 C 417.851562 275.097656 419.289062 274.328125 420.769531 273.625 C 422.246094 272.921875 423.753906 272.292969 425.289062 271.734375 C 426.828125 271.175781 428.390625 270.695312 429.972656 270.285156 C 431.558594 269.878906 433.15625 269.546875 434.773438 269.292969 C 436.386719 269.039062 438.011719 268.859375 439.644531 268.761719 C 441.277344 268.664062 442.910156 268.640625 444.546875 268.699219 C 446.179688 268.757812 447.808594 268.894531 449.429688 269.109375 C 451.050781 269.320312 452.660156 269.613281 454.253906 269.980469 C 455.847656 270.351562 457.417969 270.792969 458.972656 271.3125 C 460.523438 271.832031 462.046875 272.421875 463.539062 273.089844 C 465.035156 273.753906 466.492188 274.488281 467.917969 275.292969 C 469.339844 276.097656 470.722656 276.96875 472.0625 277.90625 C 496.867188 299.261719 496.023438 332.609375 485.574219 354.839844 Z M 461.980469 308.574219 C 461.640625 291.167969 453.492188 286.941406 444.773438 286.128906 C 443.207031 286.148438 441.667969 286.359375 440.152344 286.761719 C 438.640625 287.164062 437.199219 287.746094 435.828125 288.503906 C 434.457031 289.265625 433.203125 290.183594 432.0625 291.253906 C 430.917969 292.328125 429.925781 293.523438 429.082031 294.84375 C 424.261719 303.34375 423.121094 327.675781 439.5 337.914062 C 449.261719 344.011719 462.304688 326.085938 461.980469 308.574219 Z M 461.980469 308.574219 " fill-opacity="1" fill-rule="nonzero"/><path fill="#ffffff" d="M 551.40625 293.15625 C 551.699219 319.59375 526.429688 333.25 511.335938 328.59375 C 496.242188 323.949219 498.980469 307.347656 500.582031 299.839844 C 501.503906 295.1875 503.023438 290.738281 505.140625 286.5 C 507.261719 282.257812 509.90625 278.371094 513.074219 274.84375 C 522.074219 263.75 551.109375 266.65625 551.40625 293.089844 Z M 539.570312 287.003906 C 539.632812 286.015625 539.542969 285.039062 539.3125 284.074219 C 539.082031 283.113281 538.710938 282.203125 538.210938 281.347656 C 537.707031 280.496094 537.089844 279.734375 536.359375 279.0625 C 535.628906 278.394531 534.816406 277.84375 533.921875 277.417969 C 533.027344 276.992188 532.089844 276.703125 531.109375 276.558594 C 530.132812 276.410156 529.152344 276.410156 528.171875 276.554688 C 527.191406 276.699219 526.253906 276.984375 525.359375 277.410156 C 524.464844 277.835938 523.652344 278.382812 522.917969 279.050781 C 521.539062 280.582031 520.382812 282.269531 519.457031 284.113281 C 518.53125 285.957031 517.867188 287.886719 517.460938 289.910156 C 516.777344 293.167969 515.570312 300.382812 522.128906 302.402344 C 522.679688 302.496094 523.230469 302.558594 523.785156 302.589844 C 524.34375 302.617188 524.898438 302.617188 525.453125 302.585938 C 526.011719 302.554688 526.5625 302.496094 527.109375 302.402344 C 527.660156 302.308594 528.203125 302.1875 528.738281 302.03125 C 529.273438 301.878906 529.796875 301.695312 530.3125 301.484375 C 530.828125 301.273438 531.328125 301.03125 531.816406 300.765625 C 532.304688 300.496094 532.777344 300.203125 533.230469 299.882812 C 533.6875 299.5625 534.121094 299.214844 534.539062 298.847656 C 534.957031 298.476562 535.351562 298.085938 535.726562 297.671875 C 536.097656 297.261719 536.445312 296.828125 536.773438 296.375 C 537.097656 295.921875 537.394531 295.453125 537.667969 294.96875 C 537.941406 294.484375 538.1875 293.984375 538.402344 293.46875 C 538.621094 292.957031 538.808594 292.433594 538.964844 291.898438 C 539.125 291.367188 539.253906 290.824219 539.351562 290.277344 C 539.449219 289.730469 539.519531 289.175781 539.554688 288.621094 C 539.589844 288.066406 539.597656 287.507812 539.570312 286.953125 Z M 577.042969 309.160156 C 564.992188 330.464844 554.1875 352.386719 544.636719 374.921875 C 538.695312 390.53125 522.847656 378.265625 530.128906 364 C 537.398438 349.734375 566.136719 294.449219 578.734375 272.953125 C 587.878906 257.34375 593.894531 265.800781 595.460938 273.542969 C 596.144531 276.832031 593.519531 284.21875 577.042969 309.160156 Z M 619.089844 341.628906 C 619.375 368.066406 594.117188 381.722656 579.011719 377.078125 C 563.910156 372.421875 566.65625 355.820312 568.269531 348.3125 C 569.1875 343.664062 570.703125 339.21875 572.824219 334.976562 C 574.941406 330.734375 577.585938 326.855469 580.757812 323.328125 C 589.765625 312.246094 618.800781 315.152344 619.089844 341.597656 Z M 607.253906 335.492188 C 607.3125 334.5 607.226562 333.523438 606.992188 332.5625 C 606.761719 331.597656 606.394531 330.6875 605.890625 329.835938 C 605.386719 328.980469 604.769531 328.21875 604.039062 327.550781 C 603.308594 326.878906 602.496094 326.332031 601.601562 325.90625 C 600.710938 325.476562 599.773438 325.191406 598.792969 325.042969 C 597.8125 324.898438 596.832031 324.894531 595.851562 325.039062 C 594.875 325.1875 593.9375 325.472656 593.042969 325.898438 C 592.144531 326.320312 591.332031 326.867188 590.601562 327.535156 C 589.222656 329.066406 588.074219 330.753906 587.15625 332.597656 C 586.238281 334.441406 585.582031 336.375 585.183594 338.394531 C 584.503906 341.652344 583.285156 348.871094 589.84375 350.886719 C 590.390625 350.980469 590.941406 351.039062 591.496094 351.070312 C 592.054688 351.097656 592.609375 351.097656 593.164062 351.066406 C 593.71875 351.035156 594.269531 350.972656 594.816406 350.878906 C 595.363281 350.785156 595.90625 350.660156 596.4375 350.507812 C 596.972656 350.351562 597.496094 350.171875 598.011719 349.957031 C 598.523438 349.746094 599.023438 349.507812 599.511719 349.238281 C 599.996094 348.96875 600.46875 348.675781 600.921875 348.355469 C 601.375 348.035156 601.8125 347.691406 602.226562 347.320312 C 602.644531 346.953125 603.039062 346.5625 603.410156 346.148438 C 603.78125 345.738281 604.128906 345.304688 604.453125 344.855469 C 604.777344 344.402344 605.078125 343.933594 605.347656 343.449219 C 605.621094 342.964844 605.867188 342.464844 606.082031 341.953125 C 606.300781 341.441406 606.488281 340.921875 606.644531 340.386719 C 606.804688 339.855469 606.933594 339.3125 607.03125 338.765625 C 607.128906 338.21875 607.199219 337.667969 607.234375 337.113281 C 607.273438 336.558594 607.277344 336.003906 607.253906 335.449219 Z M 607.253906 335.492188 " fill-opacity="1" fill-rule="nonzero"/><path fill="#ffffff" d="M 246.996094 421.386719 C 234.058594 419.265625 241.363281 446.691406 261.394531 441.351562 C 279.378906 436.566406 280.3125 464.25 268.007812 462.191406 C 250.46875 459.253906 247.8125 466.859375 247.261719 474.425781 C 246.90625 476.265625 246.730469 478.125 246.734375 480 C 246.734375 481.871094 246.914062 483.730469 247.273438 485.570312 C 247.632812 487.410156 248.164062 489.199219 248.863281 490.9375 C 249.566406 492.671875 250.425781 494.328125 251.445312 495.902344 C 259.035156 515.808594 201.445312 519.753906 211.851562 488.921875 C 221.953125 459.042969 209.769531 435.285156 212.105469 419.171875 C 214.441406 403.066406 236.363281 406.675781 262.558594 410.246094 C 279.832031 412.605469 275.257812 426.746094 266.089844 429.632812 C 256.804688 432.550781 259.015625 423.347656 246.996094 421.386719 Z M 246.996094 421.386719 " fill-opacity="1" fill-rule="nonzero"/><path fill="#ffffff" d="M 351.738281 511.371094 C 336.171875 511.371094 338.265625 498.011719 330.761719 482.308594 C 330.214844 480.890625 329.488281 479.574219 328.574219 478.363281 C 327.65625 477.148438 326.59375 476.085938 325.382812 475.171875 C 324.167969 474.257812 322.855469 473.53125 321.4375 472.984375 C 320.019531 472.441406 318.554688 472.101562 317.039062 471.972656 C 322.453125 494.507812 325.222656 511.371094 299.816406 511.371094 C 273.050781 511.371094 277.480469 492.773438 283.386719 468.46875 C 291.632812 434.910156 282.09375 424.570312 282.09375 417.304688 C 282.09375 406.964844 299.816406 408.015625 299.816406 408.015625 C 306.722656 407.011719 313.660156 406.703125 320.628906 407.085938 C 327.597656 407.46875 334.460938 408.535156 341.21875 410.289062 C 344.394531 411.1875 347.402344 412.480469 350.242188 414.171875 C 353.078125 415.863281 355.648438 417.894531 357.953125 420.261719 L 357.953125 420.328125 C 359.339844 421.898438 360.554688 423.597656 361.589844 425.421875 C 362.625 427.242188 363.464844 429.15625 364.105469 431.152344 C 364.746094 433.148438 365.171875 435.191406 365.390625 437.277344 C 365.609375 439.363281 365.609375 441.449219 365.394531 443.535156 C 364.414062 463.289062 354.382812 471.847656 342.570312 473.386719 C 347.25 477.265625 352.109375 480.894531 356.105469 483.851562 C 367.988281 492.476562 377.953125 511.371094 351.738281 511.371094 Z M 343.273438 428.933594 C 339.695312 418.074219 311.300781 417.957031 312.902344 425.339844 C 315.519531 437.394531 311.890625 438.519531 316.308594 440.984375 C 322.757812 444.59375 346.859375 439.800781 343.273438 428.933594 Z M 343.273438 428.933594 " fill-opacity="1" fill-rule="nonzero"/><path fill="#ffffff" d="M 405.945312 421.386719 C 392.878906 422.152344 401.835938 455.460938 420.09375 445.613281 C 432.179688 439.117188 439.242188 461.34375 427.949219 466.636719 C 416.664062 471.933594 409.65625 459.753906 406.511719 474.683594 C 403.371094 489.617188 418.527344 482.550781 425.007812 478.421875 C 435.976562 471.449219 454.949219 467.148438 455.050781 490.210938 C 455.160156 516.203125 362.996094 519.753906 373.402344 488.921875 C 383.503906 459.042969 371.304688 435.285156 373.660156 419.171875 C 376.011719 403.066406 401.105469 407.070312 427.292969 410.640625 C 444.578125 413 439.992188 427.140625 430.832031 430.03125 C 421.546875 432.945312 421.410156 420.460938 405.945312 421.386719 Z M 405.945312 421.386719 " fill-opacity="1" fill-rule="nonzero"/><path fill="#ffffff" d="M 536.960938 477.9375 L 536.902344 477.9375 C 536.34375 491.78125 524.90625 511.488281 493.648438 511.488281 C 474.027344 511.488281 456.613281 501.136719 456.613281 479.59375 C 456.605469 479.136719 456.625 478.679688 456.667969 478.226562 C 456.710938 477.769531 456.777344 477.320312 456.867188 476.871094 C 456.957031 476.425781 457.070312 475.980469 457.207031 475.546875 C 457.347656 475.109375 457.507812 474.683594 457.691406 474.265625 C 457.871094 473.847656 458.078125 473.4375 458.304688 473.042969 C 458.53125 472.644531 458.777344 472.261719 459.046875 471.890625 C 459.3125 471.519531 459.601562 471.164062 459.90625 470.824219 C 460.210938 470.488281 460.535156 470.164062 460.875 469.859375 C 461.214844 469.554688 461.570312 469.265625 461.9375 469 C 462.308594 468.730469 462.691406 468.484375 463.089844 468.257812 C 463.488281 468.03125 463.894531 467.828125 464.3125 467.644531 C 464.730469 467.460938 465.160156 467.300781 465.59375 467.164062 C 466.03125 467.027344 466.472656 466.914062 466.917969 466.824219 C 467.367188 466.734375 467.820312 466.667969 468.273438 466.625 C 468.726562 466.585938 469.183594 466.566406 469.640625 466.574219 C 470.097656 466.578125 470.550781 466.609375 471.003906 466.667969 C 480.035156 468.238281 479.058594 472.191406 487.667969 475.667969 C 512.894531 485.804688 504.367188 469.160156 473.523438 458.148438 C 451.609375 450.332031 458.421875 432.417969 463.554688 425.832031 C 483.300781 400.449219 506.898438 407.859375 520.890625 412.972656 C 534.890625 418.074219 535.660156 437.980469 527.046875 442.964844 C 526.300781 443.429688 525.519531 443.824219 524.699219 444.144531 C 523.878906 444.464844 523.035156 444.707031 522.171875 444.871094 C 521.308594 445.035156 520.4375 445.121094 519.554688 445.125 C 518.675781 445.128906 517.804688 445.050781 516.9375 444.894531 C 516.074219 444.734375 515.230469 444.5 514.40625 444.183594 C 513.585938 443.871094 512.796875 443.484375 512.046875 443.023438 C 511.296875 442.566406 510.59375 442.042969 509.941406 441.453125 C 509.285156 440.863281 508.691406 440.21875 508.15625 439.519531 C 504.714844 434.640625 490.511719 424.070312 486.207031 427.246094 C 481.070312 431.019531 479.640625 447.5 510.097656 451.015625 C 540.550781 454.585938 536.960938 477.9375 536.960938 477.9375 Z M 536.960938 477.9375 " fill-opacity="1" fill-rule="nonzero"/><path fill="#ffffff" d="M 624.503906 510.4375 C 593.902344 516.742188 594.144531 489.683594 603.085938 472 C 612.035156 454.324219 591.035156 455.695312 591.035156 455.695312 C 591.035156 455.695312 570.039062 454.328125 578.980469 472 C 587.925781 489.683594 588.167969 516.742188 557.5625 510.4375 C 541.039062 507.03125 534.941406 491.683594 544.789062 468.46875 C 559.46875 433.890625 546.453125 427.796875 546.398438 420.527344 C 546.292969 408.726562 559.632812 408.03125 559.632812 408.03125 C 582.15625 408.03125 581.871094 421.460938 576.242188 433.101562 C 570.132812 445.683594 591.050781 447.046875 591.050781 447.046875 C 591.050781 447.046875 611.941406 445.683594 605.855469 433.101562 C 600.242188 421.460938 599.957031 408.03125 622.46875 408.03125 C 622.46875 408.03125 635.804688 408.726562 635.707031 420.527344 C 635.644531 427.796875 622.625 433.890625 637.3125 468.46875 C 647.15625 491.683594 641.035156 507.03125 624.503906 510.4375 Z M 624.503906 510.4375 " fill-opacity="1" fill-rule="nonzero"/><path fill="#ffffff" d="M 459.507812 163.761719 C 458.644531 162.589844 457 162.246094 455.890625 163.007812 C 450.078125 167.003906 435.019531 180.597656 452.417969 205.527344 C 453.359375 206.875 455.292969 207.183594 456.371094 206.121094 C 461.824219 200.761719 474.84375 184.574219 459.507812 163.761719 Z M 454.828125 202.140625 C 456.675781 191.035156 456.515625 170.417969 456.515625 170.417969 C 460.480469 181.160156 454.828125 202.140625 454.828125 202.140625 Z M 454.828125 202.140625 " fill-opacity="1" fill-rule="nonzero"/><path fill="#ffffff" d="M 410.808594 202.492188 C 398.503906 197.730469 385.75 194.402344 372.925781 191.386719 L 363.222656 189.433594 C 359.972656 188.847656 356.679688 188.589844 353.402344 188.121094 C 346.855469 186.820312 340.222656 187.066406 333.53125 186.253906 C 346.804688 184.730469 360.40625 184.75 373.742188 186.820312 C 387.140625 188.785156 400.183594 192.121094 412.878906 196.835938 C 425.496094 201.574219 437.789062 207.171875 449.390625 213.964844 C 460.992188 220.726562 472.203125 228.21875 482.210938 237.144531 C 476.457031 233.722656 470.78125 230.265625 464.859375 227.222656 C 459.070312 223.972656 453.191406 220.914062 447.222656 218.042969 C 435.285156 212.316406 423.195312 206.988281 410.808594 202.492188 Z M 410.808594 202.492188 " fill-opacity="1" fill-rule="nonzero"/><path fill="#ffffff" d="M 370.898438 178.738281 C 371.171875 172.566406 369.964844 155.839844 349.460938 151.980469 C 348.304688 151.761719 347.144531 152.464844 346.90625 153.527344 C 345.671875 159.085938 344.246094 175.410156 368.234375 180.5625 C 369.53125 180.839844 370.84375 179.957031 370.898438 178.738281 Z M 367.792969 177.234375 C 362.78125 169.65625 351.351562 157.558594 351.351562 157.558594 C 359.597656 161.726562 367.796875 177.234375 367.796875 177.234375 Z M 367.792969 177.234375 " fill-opacity="1" fill-rule="nonzero"/><path fill="#ffffff" d="M 402.894531 182.910156 C 405.136719 176.449219 409.144531 158.304688 388.59375 147.71875 C 387.433594 147.121094 385.980469 147.5 385.394531 148.550781 C 382.324219 154.066406 375.648438 170.945312 399.492188 184.003906 C 400.777344 184.710938 402.449219 184.191406 402.894531 182.910156 Z M 400.074219 180.335938 C 397.148438 170.703125 388.835938 154.238281 388.835938 154.238281 C 396.277344 161.273438 400.074219 180.335938 400.074219 180.335938 Z M 400.074219 180.335938 " fill-opacity="1" fill-rule="nonzero"/><path fill="#ffffff" d="M 429.210938 194.703125 C 434.179688 188.890625 445.75 171.640625 428.671875 152.230469 C 427.710938 151.136719 426.042969 150.933594 425.003906 151.792969 C 419.558594 156.277344 405.726562 171.125 425.21875 194.453125 C 426.273438 195.714844 428.226562 195.855469 429.210938 194.703125 Z M 427.328125 190.871094 C 428.207031 179.648438 426.265625 159.121094 426.265625 159.121094 C 431.144531 169.476562 427.324219 190.871094 427.324219 190.871094 Z M 427.328125 190.871094 " fill-opacity="1" fill-rule="nonzero"/><path fill="#ffffff" d="M 416.335938 253.515625 C 416.246094 254.972656 417.285156 256.292969 418.628906 256.417969 C 425.648438 257.082031 445.917969 256.316406 448.546875 226.023438 C 448.6875 224.386719 447.402344 222.90625 445.894531 223.027344 C 438.273438 223.644531 417.910156 227.707031 416.335938 253.515625 Z M 422.898438 250.332031 C 426.738281 239.542969 444.527344 227.074219 444.527344 227.074219 C 435.988281 234.410156 422.898438 250.332031 422.898438 250.332031 Z M 422.898438 250.332031 " fill-opacity="1" fill-rule="nonzero"/><path fill="#ffffff" d="M 388.570312 241.625 C 388.484375 243.078125 389.523438 244.398438 390.863281 244.523438 C 397.886719 245.1875 418.15625 244.425781 420.78125 214.128906 C 420.925781 212.492188 419.640625 211.011719 418.132812 211.136719 C 410.511719 211.75 390.148438 215.816406 388.570312 241.625 Z M 395.132812 238.4375 C 398.976562 227.652344 416.765625 215.183594 416.765625 215.183594 C 408.226562 222.515625 395.132812 238.4375 395.132812 238.4375 Z M 395.132812 238.4375 " fill-opacity="1" fill-rule="nonzero"/><path fill="#ffffff" d="M 334.488281 209.234375 C 338.753906 212.003906 351.960938 218.285156 363.75 199.804688 C 364.386719 198.804688 364.058594 197.429688 363.054688 197.003906 C 357.980469 194.851562 343.609375 190.648438 333.992188 206.613281 C 333.859375 206.824219 333.769531 207.050781 333.722656 207.292969 C 333.675781 207.535156 333.675781 207.777344 333.722656 208.023438 C 333.765625 208.265625 333.855469 208.492188 333.988281 208.703125 C 334.121094 208.910156 334.285156 209.089844 334.488281 209.234375 Z M 339.246094 206.769531 C 345.300781 201.164062 360.832031 199.132812 360.832031 199.132812 C 352.929688 200.96875 339.246094 206.769531 339.246094 206.769531 Z M 339.246094 206.769531 " fill-opacity="1" fill-rule="nonzero"/><path fill="#ffffff" d="M 359.035156 230.53125 C 358.949219 231.921875 359.945312 233.183594 361.226562 233.304688 C 367.945312 233.9375 387.335938 233.207031 389.847656 204.226562 C 389.980469 202.660156 388.753906 201.246094 387.308594 201.363281 C 380.019531 201.953125 360.539062 205.839844 359.035156 230.53125 Z M 365.3125 227.484375 C 368.988281 217.164062 386.003906 205.234375 386.003906 205.234375 C 377.835938 212.25 365.3125 227.484375 365.3125 227.484375 Z M 365.3125 227.484375 " fill-opacity="1" fill-rule="nonzero"/></svg>