<svg xmlns="http://www.w3.org/2000/svg" xmlns:xlink="http://www.w3.org/1999/xlink" width="1080" zoomAndPan="magnify" viewBox="0 0 810 809.999993" height="1080" preserveAspectRatio="xMidYMid meet" version="1.0"><defs><clipPath id="e36d38a1ec"><path d="M 75.355469 231 L 214 231 L 214 499 L 75.355469 499 Z M 75.355469 231 " clip-rule="nonzero"/></clipPath><clipPath id="8584882483"><path d="M 75.355469 231 L 411 231 L 411 478 L 75.355469 478 Z M 75.355469 231 " clip-rule="nonzero"/></clipPath><clipPath id="91fc953528"><path d="M 193 154.457031 L 283 154.457031 L 283 212 L 193 212 Z M 193 154.457031 " clip-rule="nonzero"/></clipPath><clipPath id="6b0ac0a85f"><path d="M 243 154.457031 L 283 154.457031 L 283 198 L 243 198 Z M 243 154.457031 " clip-rule="nonzero"/></clipPath></defs><path fill="#f27a8e" d="M 399.242188 453.570312 L 397.855469 464.164062 C 391.121094 485.53125 371.128906 502.710938 337.882812 515.703125 C 304.40625 528.6875 264.925781 534.113281 219.4375 531.980469 C 176.015625 528.875 141.246094 519.214844 115.125 503 C 106.753906 497.757812 99.851562 492.035156 94.417969 485.824219 L 87.550781 476.242188 C 83.773438 469.640625 81.839844 462.742188 81.753906 455.539062 C 82.75 433.433594 98.136719 414.953125 127.90625 400.09375 C 157.675781 385.234375 195.046875 377.386719 240.011719 376.550781 C 284.988281 376.828125 322.449219 384.210938 352.402344 398.699219 C 382.355469 413.1875 397.96875 431.480469 399.242188 453.570312 " fill-opacity="1" fill-rule="nonzero"/><path fill="#d45e71" d="M 397.492188 443.136719 C 393.394531 449.367188 389.023438 455.242188 384.371094 460.765625 C 376.054688 469.625 365.902344 477.925781 353.914062 485.660156 C 327.359375 497.992188 302.09375 510.84375 278.121094 524.214844 L 268.566406 528.300781 C 261.433594 530.550781 255.410156 531.691406 250.488281 531.722656 C 247.84375 531.738281 245.519531 531.433594 243.515625 530.8125 L 197.835938 511.664062 C 176.890625 508.878906 160.527344 506.105469 148.738281 503.34375 L 97.207031 478.671875 C 93.3125 477.039062 89.875 475.835938 86.894531 475.054688 C 87.105469 475.449219 87.328125 475.847656 87.550781 476.242188 L 94.417969 485.824219 C 99.851562 492.035156 106.753906 497.757812 115.125 503 C 141.246094 519.214844 176.015625 528.875 219.4375 531.980469 C 226.667969 532.320312 233.746094 532.46875 240.675781 532.425781 C 277.324219 532.199219 309.730469 526.625 337.882812 515.703125 C 371.128906 502.710938 391.121094 485.53125 397.855469 464.164062 L 399.242188 453.570312 C 399.035156 449.992188 398.453125 446.515625 397.492188 443.136719 Z M 397.492188 443.136719 " fill-opacity="0.502" fill-rule="nonzero"/><path fill="#f8ddce" d="M 281.925781 266.066406 C 280.035156 267.410156 299.207031 266.554688 339.4375 263.503906 C 348.050781 263.304688 354.691406 263.636719 359.367188 264.492188 C 379.636719 268.457031 392.6875 275.367188 398.523438 285.21875 C 403.53125 294.363281 405.160156 307.082031 403.410156 323.367188 C 403.855469 326.527344 399.039062 363.214844 388.964844 433.421875 C 387.40625 442.972656 385.675781 449.75 383.765625 453.75 C 377.988281 465.902344 362.308594 477.851562 336.722656 489.59375 C 312.890625 494.257812 278.847656 497.003906 234.597656 497.835938 C 153.988281 498.269531 105.515625 484.792969 89.171875 457.414062 C 81.746094 443.671875 78.296875 415.96875 78.824219 374.300781 C 84.351562 313.949219 90.890625 281.75 98.453125 277.703125 C 110.0625 267.707031 137.804688 259.347656 181.683594 252.625 C 203.558594 249.054688 239.078125 248.875 288.246094 252.082031 Z M 281.925781 266.066406 " fill-opacity="1" fill-rule="nonzero"/><path fill="#f8ddce" d="M 336.320312 273.691406 C 348.53125 262.5 363.617188 257.617188 381.585938 259.039062 C 392.96875 260 401.308594 268.636719 406.613281 284.957031 C 414.394531 315.035156 410.730469 372.554688 395.632812 457.511719 C 386.5625 475.1875 369.035156 487.085938 343.042969 493.203125 C 294.578125 502.90625 259.71875 503.996094 238.46875 496.476562 Z M 336.320312 273.691406 " fill-opacity="1" fill-rule="nonzero"/><path fill="#f8ddce" d="M 391.191406 441.050781 C 382.800781 467.28125 365.410156 485.191406 339.011719 494.78125 C 311.375 503.171875 269.144531 506.003906 212.3125 503.277344 C 168.714844 501.699219 137.136719 493.570312 117.578125 478.890625 C 99.628906 469.351562 92.523438 451.066406 96.269531 424.03125 Z M 391.191406 441.050781 " fill-opacity="1" fill-rule="nonzero"/><g clip-path="url(#e36d38a1ec)"><path fill="#f8ddce" d="M 173.421875 231.421875 C 130.703125 236.171875 101.300781 254.660156 85.222656 286.894531 C 79.355469 300.023438 76.074219 315.851562 75.382812 334.378906 C 76.136719 406.394531 77.332031 442.070312 78.976562 441.410156 C 80.824219 453.566406 83.394531 461.457031 86.6875 465.089844 C 89.535156 469.019531 97.453125 473.433594 110.441406 478.332031 C 164.925781 497.75 199.125 503.28125 213.039062 494.917969 Z M 173.421875 231.421875 " fill-opacity="1" fill-rule="nonzero"/></g><path fill="#f8ddce" d="M 216.042969 495.632812 C 203.871094 499.910156 188.503906 501 169.941406 498.898438 C 147.921875 496.335938 128.300781 490.835938 111.078125 482.390625 C 97.285156 475.65625 87.554688 467.707031 81.878906 458.550781 C 78.257812 453.667969 78.917969 444.210938 83.859375 430.179688 Z M 216.042969 495.632812 " fill-opacity="1" fill-rule="nonzero"/><path fill="#f8ddce" d="M 336.320312 273.691406 C 348.53125 262.5 363.617188 257.617188 381.585938 259.039062 C 392.96875 260 401.308594 268.636719 406.613281 284.957031 C 414.394531 315.035156 410.730469 372.554688 395.632812 457.511719 C 386.5625 475.1875 369.035156 487.085938 343.042969 493.203125 C 294.578125 502.90625 259.71875 503.996094 238.46875 496.476562 Z M 336.320312 273.691406 " fill-opacity="1" fill-rule="nonzero"/><path fill="#f8ddce" d="M 391.191406 441.050781 C 382.800781 467.28125 365.410156 485.191406 339.011719 494.78125 C 311.375 503.171875 269.144531 506.003906 212.3125 503.277344 C 168.714844 501.699219 137.136719 493.570312 117.578125 478.890625 C 99.628906 469.351562 92.523438 451.066406 96.269531 424.03125 Z M 391.191406 441.050781 " fill-opacity="1" fill-rule="nonzero"/><g clip-path="url(#8584882483)"><path fill="#f1c8b1" d="M 173.421875 231.421875 L 159.675781 233.515625 C 142.003906 236.980469 126.964844 243.164062 114.554688 252.058594 C 108.351562 256.507812 102.804688 261.636719 97.914062 267.441406 L 91.074219 276.65625 L 85.222656 286.894531 L 83.363281 291.371094 C 78.65625 303.574219 75.996094 317.910156 75.382812 334.378906 C 75.636719 358.8125 75.945312 379.066406 76.304688 395.132812 C 79.984375 394.777344 83.976562 393.886719 88.277344 392.460938 C 93.621094 390.277344 102.3125 379.464844 114.351562 360.027344 C 116.574219 358.257812 118.851562 357.367188 121.179688 357.351562 C 123.164062 357.339844 125.1875 357.960938 127.25 359.21875 C 131.09375 360.859375 133.261719 366.714844 133.753906 376.785156 C 126.339844 412.796875 123.570312 433.246094 125.441406 438.136719 C 127.429688 443.898438 130.160156 447.890625 133.625 450.117188 C 140.230469 453.484375 146.3125 455.148438 151.867188 455.113281 C 152.628906 455.109375 153.382812 455.074219 154.125 455.003906 C 154.863281 455.105469 155.644531 455.152344 156.46875 455.148438 C 161.867188 455.113281 169.09375 452.800781 178.148438 448.203125 C 183.160156 445.3125 189.15625 439.621094 196.136719 431.125 C 201.785156 424.453125 204.558594 408.796875 204.460938 384.148438 C 206.152344 379.792969 208.984375 377.574219 212.957031 377.496094 C 218.839844 378.5625 223.359375 383.984375 226.527344 393.757812 C 227.886719 397.441406 229.113281 411.097656 230.199219 434.730469 C 231.4375 440.800781 232.894531 444.621094 234.566406 446.191406 C 237.742188 450.289062 242.460938 452.316406 248.71875 452.277344 C 253.871094 452.246094 260.070312 450.8125 267.316406 447.976562 C 275.863281 442.6875 280.078125 437.324219 279.957031 431.890625 C 280.667969 427.90625 279.496094 413.679688 276.445312 389.214844 C 277.460938 385.867188 280.140625 384.179688 284.476562 384.152344 C 286.152344 384.140625 288.082031 384.378906 290.257812 384.867188 C 300.570312 388.402344 307.433594 396.324219 310.847656 408.632812 C 313.699219 417.742188 314.835938 432.078125 314.25 451.644531 C 314.679688 455.621094 316.265625 460.210938 319 465.414062 C 325.179688 473.21875 331.742188 477.101562 338.6875 477.058594 C 340.625 477.046875 342.59375 476.730469 344.589844 476.105469 C 352.195312 471.796875 356.261719 465.894531 356.796875 458.398438 C 357.527344 453.832031 355.359375 437.046875 350.300781 408.046875 C 350.941406 399.484375 353.3125 392.449219 357.40625 386.941406 C 359.160156 384.007812 361.089844 382.535156 363.195312 382.519531 C 364.550781 382.511719 365.976562 383.109375 367.472656 384.308594 C 369.601562 386.246094 372.492188 394.894531 376.148438 410.257812 C 377.363281 412.066406 379.214844 412.960938 381.703125 412.945312 C 382.433594 412.941406 383.21875 412.859375 384.058594 412.699219 C 392.113281 408.195312 399.28125 401.667969 405.558594 393.113281 L 405.5625 393.113281 C 410.910156 350.484375 411.984375 318.113281 408.78125 296 C 405.308594 271.078125 394.367188 258.671875 375.949219 258.789062 C 375.695312 258.789062 375.4375 258.792969 375.179688 258.800781 L 370.203125 259.011719 C 363.59375 259.542969 357.433594 261.058594 351.722656 263.5625 C 350.128906 263.453125 348.558594 263.40625 347.011719 263.414062 C 346.410156 263.417969 345.808594 263.429688 345.214844 263.453125 L 297.792969 266.296875 C 294.085938 266.515625 290.757812 266.632812 287.804688 266.652344 C 286.046875 266.660156 284.421875 266.636719 282.933594 266.578125 C 282.125 266.496094 281.746094 266.375 281.800781 266.203125 L 288.246094 252.082031 C 261.242188 250.457031 241.070312 249.6875 227.738281 249.769531 C 226.472656 249.777344 225.269531 249.792969 224.125 249.816406 L 218.421875 249.882812 C 217.042969 249.851562 215.632812 249.839844 214.1875 249.851562 C 203.488281 249.917969 190.996094 251.078125 176.714844 253.335938 Z M 173.421875 231.421875 " fill-opacity="0.502" fill-rule="nonzero"/></g><path fill="#f798a9" d="M 404.136719 291.816406 L 402.753906 302.410156 C 396.019531 323.777344 376.027344 340.957031 342.78125 353.949219 C 309.304688 366.933594 269.820312 372.359375 224.335938 370.226562 C 180.914062 367.121094 146.144531 357.460938 120.023438 341.246094 C 111.652344 336.003906 104.75 330.28125 99.3125 324.070312 L 92.449219 314.488281 C 88.671875 307.886719 86.738281 300.984375 86.652344 293.785156 C 87.648438 271.679688 103.03125 253.199219 132.804688 238.339844 C 162.574219 223.480469 199.941406 215.632812 244.910156 214.796875 C 289.882812 215.074219 327.347656 222.457031 357.300781 236.945312 C 387.253906 251.433594 402.867188 269.726562 404.136719 291.816406 " fill-opacity="1" fill-rule="nonzero"/><path fill="#f27a8e" d="M 400.296875 287.140625 L 398.953125 297.441406 C 392.402344 318.21875 372.964844 334.921875 340.640625 347.554688 C 308.09375 360.175781 269.707031 365.453125 225.480469 363.378906 C 183.261719 360.359375 149.457031 350.96875 124.058594 335.203125 C 115.921875 330.105469 109.210938 324.539062 103.925781 318.503906 L 97.25 309.183594 C 93.578125 302.765625 91.695312 296.058594 91.613281 289.058594 C 92.582031 267.566406 107.539062 249.59375 136.484375 235.148438 C 165.429688 220.703125 201.761719 213.070312 245.484375 212.257812 C 289.210938 212.527344 325.636719 219.707031 354.757812 233.792969 C 383.882812 247.882812 399.0625 265.664062 400.296875 287.140625 " fill-opacity="1" fill-rule="nonzero"/><path fill="#e26479" d="M 324.617188 222.410156 C 334.042969 248.226562 336.074219 276.585938 330.714844 307.484375 C 324.941406 314.589844 312.246094 318.203125 292.625 318.328125 C 286.820312 318.363281 280.40625 318.09375 273.386719 317.515625 L 144.347656 263.738281 L 133.078125 260.28125 C 123.746094 257.359375 115.199219 255.664062 107.433594 255.199219 C 97.449219 265.296875 92.175781 276.585938 91.613281 289.058594 C 91.695312 296.058594 93.578125 302.765625 97.25 309.183594 L 103.925781 318.503906 C 109.210938 324.539062 115.921875 330.105469 124.058594 335.203125 C 149.457031 350.96875 183.261719 360.359375 225.480469 363.378906 C 232.507812 363.707031 239.390625 363.851562 246.128906 363.8125 C 281.761719 363.589844 313.265625 358.171875 340.640625 347.554688 C 372.964844 334.921875 392.402344 318.21875 398.953125 297.441406 L 400.296875 287.140625 C 399.0625 265.664062 383.882812 247.882812 354.757812 233.792969 C 345.457031 229.292969 335.410156 225.5 324.617188 222.410156 Z M 324.617188 222.410156 " fill-opacity="0.502" fill-rule="nonzero"/><path fill="#ffc0cc" d="M 246.5625 198.023438 L 245.277344 198.042969 C 240.253906 197.804688 230.882812 199.476562 217.167969 203.0625 C 205.902344 206.421875 199.03125 208.980469 196.558594 210.734375 C 190.710938 213.777344 184.039062 219.304688 176.539062 227.3125 L 172.417969 232.734375 C 169.933594 236.429688 167.980469 240.277344 166.554688 244.277344 C 165.128906 248.28125 164.230469 252.4375 163.863281 256.75 L 163.707031 263.332031 L 165.109375 269.046875 C 166.289062 272.679688 167.964844 275.957031 170.136719 278.878906 C 174.480469 284.722656 180.804688 289.148438 189.109375 292.152344 C 192.914062 293.574219 197.914062 294.800781 204.109375 295.828125 C 204.941406 296.035156 207.058594 296.144531 210.453125 296.164062 C 214.589844 296.390625 227.613281 295.359375 249.523438 293.066406 C 263.476562 291.777344 272.15625 290.441406 275.566406 289.046875 C 291.707031 284.257812 301.785156 276.191406 305.808594 264.855469 L 306.636719 262.226562 L 310.296875 231.210938 C 310.574219 226.871094 309.4375 222.804688 306.890625 219.007812 C 304.4375 216.40625 301.972656 214.703125 299.503906 213.890625 C 296.40625 213.246094 291.292969 212.527344 284.167969 211.738281 C 278.878906 206.902344 273.734375 203.71875 268.738281 202.183594 C 261.414062 199.335938 254.023438 197.945312 246.5625 198.023438 Z M 246.5625 198.023438 " fill-opacity="1" fill-rule="nonzero"/><path fill="#f6a4b4" d="M 298.855469 213.746094 C 298.964844 216.128906 298.960938 218.125 298.847656 219.742188 C 299.214844 221.351562 297.273438 230.410156 293.027344 246.910156 L 293.261719 266.664062 C 292.242188 270.734375 289.769531 273.792969 285.847656 275.847656 C 280.203125 278.445312 275.265625 279.761719 271.035156 279.796875 C 256.058594 275.824219 247.460938 273.84375 245.246094 273.859375 C 245.035156 273.859375 244.882812 273.878906 244.785156 273.917969 C 236.226562 274.515625 228.703125 274.832031 222.21875 274.875 C 217 274.90625 212.453125 274.757812 208.582031 274.429688 C 197.929688 275.992188 190.753906 276.882812 187.054688 277.101562 C 186.769531 277.109375 186.484375 277.113281 186.203125 277.117188 C 183.140625 277.132812 180.367188 276.875 177.878906 276.332031 C 173.578125 275.960938 170.332031 273.585938 168.140625 269.210938 L 164.628906 251.199219 C 163.910156 254.914062 163.605469 258.957031 163.707031 263.332031 C 164.71875 269.824219 167.367188 275.636719 171.65625 280.773438 C 175.910156 285.691406 181.726562 289.480469 189.109375 292.152344 C 193.929688 293.824219 199.039062 295.070312 204.433594 295.894531 C 204.859375 296.046875 207.433594 296.148438 212.160156 296.191406 C 212.382812 296.214844 212.703125 296.222656 213.113281 296.21875 C 217.484375 296.191406 232.460938 294.851562 258.046875 292.199219 C 265.785156 291.328125 271.179688 290.429688 274.234375 289.511719 C 282.738281 286.917969 289.160156 283.988281 293.496094 280.71875 C 295.882812 279.007812 297.976562 277.136719 299.765625 275.101562 L 302.230469 271.929688 C 303.722656 269.730469 304.914062 267.375 305.808594 264.855469 L 306.636719 262.226562 L 310.339844 229.773438 C 310.304688 225.96875 309.15625 222.382812 306.890625 219.007812 C 304.984375 216.796875 302.519531 215.089844 299.503906 213.890625 C 299.316406 213.84375 299.101562 213.796875 298.859375 213.746094 Z M 298.855469 213.746094 " fill-opacity="0.502" fill-rule="nonzero"/><g clip-path="url(#91fc953528)"><path fill="#537d40" d="M 230.664062 211.386719 C 219.707031 211.578125 209.796875 207.964844 200.933594 200.542969 C 193.953125 194.257812 191.789062 187.304688 194.441406 179.691406 C 197.457031 173.253906 202.566406 175.273438 209.769531 185.742188 L 205.019531 172.777344 C 204.445312 170.96875 204.109375 169.308594 204.003906 167.792969 C 203.921875 164.5625 205.476562 162.726562 208.667969 162.28125 C 210.246094 162.191406 211.988281 162.878906 213.898438 164.347656 C 215.152344 165.191406 217.847656 168.078125 221.984375 173.003906 C 222.640625 173.632812 223.242188 174.015625 223.792969 174.152344 C 224.515625 174.191406 225.128906 173.785156 225.640625 172.929688 C 227.367188 167.800781 228.640625 165.105469 229.460938 164.84375 C 230.863281 163.636719 232.613281 163.480469 234.710938 164.378906 C 237.785156 165.46875 240.339844 169.949219 242.378906 177.816406 C 242.660156 177.707031 242.957031 177.269531 243.269531 176.507812 C 245.117188 168.171875 246.90625 162.5 248.628906 159.496094 C 250.277344 156.394531 252.453125 154.722656 255.167969 154.476562 C 258.050781 154.699219 260.09375 156.128906 261.292969 158.765625 C 261.878906 160.007812 262.335938 161.488281 262.660156 163.207031 L 264.183594 174.050781 C 264.667969 174.539062 265.28125 174.703125 266.015625 174.542969 C 268.988281 173.296875 270.703125 172.714844 271.15625 172.800781 C 271.941406 172.75 272.851562 172.996094 273.890625 173.539062 C 277.886719 176.441406 280.707031 179.980469 282.351562 184.152344 C 284.269531 190.8125 280.621094 199.625 271.402344 210.589844 Z M 230.664062 211.386719 " fill-opacity="1" fill-rule="nonzero"/></g><path fill="#4d713d" d="M 209.128906 162.289062 C 208.109375 162.296875 207.074219 162.597656 206.023438 163.191406 C 204.195312 164.675781 203.582031 166.730469 204.1875 169.355469 L 205.019531 172.777344 L 209.769531 185.742188 C 206.402344 181.128906 204.164062 178.519531 203.0625 177.921875 C 201.710938 176.671875 200.152344 176.050781 198.386719 176.058594 C 198.324219 176.0625 198.261719 176.0625 198.203125 176.0625 C 196.710938 176.3125 195.457031 177.523438 194.441406 179.691406 C 193.261719 183.074219 193.035156 186.328125 193.757812 189.449219 C 193.640625 190.269531 194.722656 192.539062 196.992188 196.253906 C 197.859375 197.429688 198.878906 198.582031 200.050781 199.71875 C 200.480469 199.148438 200.9375 198.601562 201.421875 198.082031 C 203.328125 195.703125 206.304688 193.164062 210.34375 190.464844 C 215.925781 187.859375 222.738281 183.84375 230.777344 178.417969 C 232.871094 177.289062 235.105469 176.449219 237.476562 175.90625 C 238.929688 175.589844 240.355469 175.414062 241.746094 175.378906 C 241.027344 173.042969 239.949219 170.53125 238.503906 167.839844 C 237.441406 166.058594 236.078125 164.863281 234.410156 164.253906 C 233.609375 163.957031 232.855469 163.808594 232.15625 163.8125 C 231.027344 163.820312 230.03125 164.222656 229.167969 165.023438 C 228.351562 165.734375 227.175781 168.371094 225.640625 172.929688 C 225.097656 173.75 224.550781 174.160156 224 174.164062 C 223.945312 174.164062 223.894531 174.164062 223.839844 174.15625 C 223.375 174.097656 222.757812 173.714844 221.984375 173.003906 C 216.628906 166.679688 213.539062 163.519531 212.722656 163.523438 C 212.722656 163.523438 212.71875 163.523438 212.714844 163.523438 C 211.542969 162.695312 210.347656 162.28125 209.128906 162.289062 Z M 209.128906 162.289062 " fill-opacity="0.502" fill-rule="nonzero"/><g clip-path="url(#6b0ac0a85f)"><path fill="#4d713d" d="M 255.320312 154.472656 C 255.269531 154.472656 255.21875 154.472656 255.167969 154.476562 L 254.28125 154.609375 C 253.128906 154.859375 252.082031 155.390625 251.140625 156.207031 C 250.390625 156.652344 249.359375 158.117188 248.050781 160.597656 C 246.585938 163.632812 245.074219 168.570312 243.515625 175.40625 C 244.140625 175.445312 244.757812 175.511719 245.367188 175.609375 C 253.648438 177.691406 259.953125 178.886719 264.277344 179.1875 C 266.230469 179.691406 267.71875 180.214844 268.738281 180.757812 C 271.421875 182.011719 273.546875 183.882812 275.117188 186.375 C 275.800781 187.425781 277.460938 191.253906 280.09375 197.863281 C 280.699219 196.640625 281.203125 195.453125 281.609375 194.308594 C 282.957031 190.496094 283.203125 187.113281 282.351562 184.152344 C 280.066406 179.203125 277.246094 175.664062 273.890625 173.539062 C 272.917969 173.03125 272.039062 172.78125 271.257812 172.785156 C 271.1875 172.785156 271.121094 172.789062 271.050781 172.792969 C 271.035156 172.78125 271.003906 172.777344 270.964844 172.777344 C 270.539062 172.777344 268.871094 173.371094 265.957031 174.554688 C 265.804688 174.589844 265.65625 174.609375 265.511719 174.609375 C 265.027344 174.613281 264.585938 174.425781 264.183594 174.050781 L 262.660156 163.207031 C 262.234375 161.160156 261.777344 159.679688 261.292969 158.765625 C 260.757812 157.59375 260.058594 156.660156 259.191406 155.964844 C 257.644531 154.964844 256.351562 154.464844 255.320312 154.472656 Z M 255.320312 154.472656 " fill-opacity="0.502" fill-rule="nonzero"/></g><path fill="#af2640" d="M 251.4375 179.488281 L 250.902344 179.496094 L 246.261719 179.785156 C 240.054688 181.074219 235.808594 181.804688 233.519531 181.980469 C 230.941406 182.324219 227.332031 182.542969 222.691406 182.636719 C 219.953125 183.113281 217.4375 184.007812 215.144531 185.320312 C 209.542969 188.960938 204.007812 193.464844 198.542969 198.832031 C 190.472656 202.992188 185.828125 205.679688 184.609375 206.902344 C 182.601562 208.996094 180.972656 211.410156 179.730469 214.148438 C 177.765625 215.867188 175.691406 218.289062 173.503906 221.410156 C 171.289062 225.015625 170.085938 227.214844 169.898438 228.011719 C 165.847656 239.355469 166.171875 247.808594 170.875 253.375 L 172.152344 254.3125 L 187.265625 259.617188 C 195.136719 266.136719 200.378906 269.988281 202.988281 271.175781 C 206.597656 272.832031 210.394531 273.550781 214.375 273.332031 C 217.054688 273.125 222.527344 272.265625 230.800781 270.761719 C 242.554688 271.671875 250.28125 271.773438 253.976562 271.058594 C 264.476562 268.15625 271.808594 265.820312 275.976562 264.042969 L 284.148438 260.425781 C 285.523438 259.722656 287.085938 258.488281 288.835938 256.726562 C 292.855469 253.152344 296.59375 247.550781 300.050781 239.917969 C 301.007812 237.453125 301.582031 235.132812 301.765625 232.960938 C 301.195312 223.523438 300.832031 218.40625 300.683594 217.609375 C 300.15625 212.148438 299.574219 208.507812 298.933594 206.683594 L 296.195312 202.769531 C 295.269531 201.421875 293.40625 200.214844 290.605469 199.15625 C 289.894531 198.832031 285.324219 198.128906 276.894531 197.046875 C 275.84375 196.777344 274.882812 196.449219 274.003906 196.054688 C 273.21875 195.753906 272.25 194.859375 271.089844 193.371094 C 267.78125 187.230469 265.257812 183.617188 263.523438 182.53125 C 260.507812 180.339844 256.480469 179.324219 251.4375 179.488281 Z M 251.4375 179.488281 " fill-opacity="1" fill-rule="nonzero"/><path fill="#902035" d="M 251.4375 179.488281 L 250.902344 179.496094 L 246.28125 179.785156 C 246.984375 181.363281 247.597656 182.992188 248.117188 184.675781 C 249.996094 192.453125 255.601562 208.152344 264.929688 231.777344 C 266.320312 239.476562 265.335938 245.023438 261.984375 248.417969 C 256.304688 253.71875 248.933594 256.398438 239.859375 256.457031 C 236.941406 256.472656 233.847656 256.21875 230.574219 255.695312 C 225.28125 254.324219 220.480469 252.308594 216.175781 249.648438 C 200.453125 238.007812 190.871094 231.4375 187.429688 229.933594 C 181.464844 227.261719 176.109375 225.9375 171.371094 225.96875 C 171.1875 225.96875 171.007812 225.972656 170.824219 225.976562 C 170.421875 226.726562 170.148438 227.300781 170 227.695312 C 168.097656 233.054688 167.128906 237.628906 167.089844 241.421875 C 167.054688 243.375 167.234375 245.179688 167.632812 246.84375 C 168.027344 248.507812 168.640625 250.03125 169.472656 251.410156 L 170.875 253.375 L 172.152344 254.3125 L 187.265625 259.617188 C 193.941406 265.25 199.179688 269.101562 202.988281 271.175781 C 206.199219 272.648438 209.554688 273.378906 213.054688 273.371094 C 215.871094 273.308594 221.785156 272.4375 230.800781 270.761719 C 237.714844 271.296875 243.234375 271.554688 247.359375 271.527344 C 249.46875 271.515625 251.214844 271.425781 252.59375 271.269531 C 259.738281 269.574219 267.03125 267.371094 274.472656 264.65625 L 284.613281 260.171875 C 286.144531 259.261719 287.992188 257.691406 290.164062 255.460938 C 293.679688 251.882812 296.976562 246.699219 300.050781 239.917969 C 300.878906 237.96875 301.449219 235.652344 301.765625 232.960938 C 301.175781 223.023438 300.753906 217.320312 300.507812 215.855469 C 300.027344 211.359375 299.503906 208.304688 298.933594 206.683594 L 295.851562 202.328125 C 294.972656 201.195312 293.09375 200.097656 290.222656 199.035156 C 288.832031 198.671875 284.386719 198.007812 276.894531 197.046875 C 275.722656 196.746094 274.667969 196.375 273.734375 195.933594 C 273.003906 195.546875 272.121094 194.691406 271.089844 193.371094 C 267.230469 186.460938 264.707031 182.847656 263.523438 182.53125 C 261.390625 180.578125 257.363281 179.566406 251.4375 179.488281 Z M 251.4375 179.488281 " fill-opacity="0.502" fill-rule="nonzero"/><path fill="#f27a8e" d="M 715.539062 457.046875 L 714.15625 467.640625 C 707.417969 489.007812 687.429688 506.1875 654.183594 519.179688 C 620.707031 532.164062 581.222656 537.589844 535.734375 535.457031 C 492.316406 532.351562 457.546875 522.691406 431.425781 506.476562 C 423.054688 501.234375 416.152344 495.511719 410.714844 489.300781 L 403.851562 479.71875 C 400.070312 473.117188 398.136719 466.214844 398.050781 459.015625 C 399.050781 436.910156 414.433594 418.429688 444.203125 403.570312 C 473.976562 388.710938 511.34375 380.863281 556.3125 380.027344 C 601.285156 380.304688 638.75 387.6875 668.699219 402.175781 C 698.652344 416.664062 714.265625 434.953125 715.539062 457.046875 " fill-opacity="1" fill-rule="nonzero"/><path fill="#d45e71" d="M 713.789062 446.609375 C 709.695312 452.839844 705.320312 458.71875 700.671875 464.238281 C 692.355469 473.101562 682.203125 481.398438 670.210938 489.132812 C 643.65625 501.46875 618.394531 514.320312 594.421875 527.6875 L 584.867188 531.777344 C 577.734375 534.027344 571.707031 535.167969 566.785156 535.199219 C 564.144531 535.214844 561.820312 534.910156 559.8125 534.285156 L 514.136719 515.140625 C 493.191406 512.355469 476.824219 509.582031 465.035156 506.820312 L 413.503906 482.144531 C 409.609375 480.515625 406.171875 479.308594 403.195312 478.527344 L 403.191406 478.527344 C 403.40625 478.925781 403.625 479.320312 403.851562 479.71875 L 410.714844 489.300781 C 416.152344 495.511719 423.054688 501.234375 431.425781 506.476562 C 457.546875 522.691406 492.316406 532.351562 535.734375 535.457031 C 542.964844 535.796875 550.042969 535.945312 556.972656 535.902344 C 593.625 535.671875 626.027344 530.101562 654.183594 519.179688 C 687.429688 506.1875 707.417969 489.007812 714.15625 467.640625 L 715.539062 457.046875 C 715.332031 453.46875 714.75 449.988281 713.792969 446.609375 Z M 713.789062 446.609375 " fill-opacity="0.502" fill-rule="nonzero"/><path fill="#f8ddce" d="M 598.222656 269.542969 C 596.335938 270.886719 615.507812 270.03125 655.734375 266.980469 C 664.347656 266.78125 670.992188 267.109375 675.664062 267.96875 C 695.933594 271.933594 708.984375 278.84375 714.824219 288.695312 C 719.828125 297.839844 721.457031 310.554688 719.707031 326.84375 C 720.152344 330.003906 715.335938 366.6875 705.261719 436.898438 C 703.703125 446.449219 701.972656 453.226562 700.0625 457.226562 C 694.285156 469.378906 678.605469 481.328125 653.019531 493.070312 C 629.1875 497.734375 595.144531 500.480469 550.898438 501.3125 C 470.289062 501.742188 421.8125 488.269531 405.472656 460.890625 C 398.042969 447.148438 394.59375 419.441406 395.125 377.777344 C 400.648438 317.425781 407.191406 285.226562 414.75 281.179688 C 426.359375 271.183594 454.101562 262.824219 497.980469 256.101562 C 519.859375 252.53125 555.378906 252.351562 604.542969 255.558594 Z M 598.222656 269.542969 " fill-opacity="1" fill-rule="nonzero"/><path fill="#f8ddce" d="M 652.617188 277.167969 C 664.828125 265.976562 679.917969 261.09375 697.882812 262.515625 C 709.265625 263.476562 717.609375 272.113281 722.910156 288.429688 C 730.691406 318.511719 727.03125 376.03125 711.929688 460.984375 C 702.859375 478.664062 685.332031 490.5625 659.34375 496.679688 C 610.875 506.378906 576.015625 507.472656 554.769531 499.953125 Z M 652.617188 277.167969 " fill-opacity="1" fill-rule="nonzero"/><path fill="#f8ddce" d="M 707.488281 444.523438 C 699.097656 470.757812 681.707031 488.667969 655.3125 498.257812 C 627.675781 506.648438 585.441406 509.480469 528.609375 506.753906 C 485.015625 505.171875 453.4375 497.046875 433.878906 482.367188 C 415.925781 472.828125 408.820312 454.542969 412.566406 427.507812 Z M 707.488281 444.523438 " fill-opacity="1" fill-rule="nonzero"/><path fill="#f8ddce" d="M 489.71875 234.898438 C 447 239.644531 417.601562 258.136719 401.523438 290.367188 C 395.652344 303.496094 392.371094 319.324219 391.683594 337.855469 C 392.433594 409.867188 393.632812 445.546875 395.277344 444.886719 C 397.125 457.039062 399.695312 464.933594 402.988281 468.566406 C 405.835938 472.496094 413.753906 476.910156 426.742188 481.808594 C 481.222656 501.226562 515.421875 506.757812 529.335938 498.394531 Z M 489.71875 234.898438 " fill-opacity="1" fill-rule="nonzero"/><path fill="#f8ddce" d="M 532.34375 499.109375 C 520.171875 503.386719 504.804688 504.472656 486.242188 502.371094 C 464.21875 499.8125 444.597656 494.308594 427.378906 485.867188 C 413.585938 479.128906 403.851562 471.183594 398.179688 462.027344 C 394.554688 457.140625 395.214844 447.683594 400.15625 433.65625 Z M 532.34375 499.109375 " fill-opacity="1" fill-rule="nonzero"/><path fill="#f8ddce" d="M 652.617188 277.167969 C 664.828125 265.976562 679.917969 261.09375 697.882812 262.515625 C 709.265625 263.476562 717.609375 272.113281 722.910156 288.429688 C 730.691406 318.511719 727.03125 376.03125 711.929688 460.984375 C 702.859375 478.664062 685.332031 490.5625 659.34375 496.679688 C 610.875 506.378906 576.015625 507.472656 554.769531 499.953125 Z M 652.617188 277.167969 " fill-opacity="1" fill-rule="nonzero"/><path fill="#f8ddce" d="M 707.488281 444.523438 C 699.097656 470.757812 681.707031 488.667969 655.3125 498.257812 C 627.675781 506.648438 585.441406 509.480469 528.609375 506.753906 C 485.015625 505.171875 453.4375 497.046875 433.878906 482.367188 C 415.925781 472.828125 408.820312 454.542969 412.566406 427.507812 Z M 707.488281 444.523438 " fill-opacity="1" fill-rule="nonzero"/><path fill="#f1c8b1" d="M 489.71875 234.898438 L 475.972656 236.992188 C 458.300781 240.457031 443.261719 246.640625 430.855469 255.535156 C 424.648438 259.984375 419.101562 265.109375 414.214844 270.917969 L 407.375 280.132812 L 401.523438 290.367188 L 399.660156 294.84375 C 394.957031 307.046875 392.296875 321.382812 391.683594 337.855469 C 391.9375 362.289062 392.242188 382.539062 392.601562 398.609375 C 396.285156 398.25 400.273438 397.359375 404.574219 395.9375 C 409.917969 393.753906 418.609375 382.941406 430.652344 363.5 C 432.871094 361.734375 435.148438 360.84375 437.480469 360.828125 C 439.460938 360.816406 441.484375 361.4375 443.546875 362.695312 C 447.394531 364.335938 449.5625 370.191406 450.050781 380.261719 C 442.640625 416.273438 439.867188 436.722656 441.738281 441.613281 C 443.730469 447.375 446.457031 451.367188 449.921875 453.59375 C 456.53125 456.960938 462.613281 458.625 468.167969 458.589844 C 468.929688 458.585938 469.679688 458.550781 470.425781 458.480469 C 471.164062 458.582031 471.945312 458.628906 472.765625 458.625 C 478.164062 458.589844 485.390625 456.277344 494.449219 451.679688 C 499.457031 448.789062 505.453125 443.09375 512.4375 434.601562 C 518.082031 427.929688 520.859375 412.273438 520.757812 387.625 C 522.449219 383.265625 525.28125 381.050781 529.257812 380.96875 C 535.136719 382.039062 539.660156 387.460938 542.824219 397.234375 C 544.1875 400.917969 545.410156 414.574219 546.496094 438.207031 C 547.738281 444.277344 549.191406 448.097656 550.867188 449.667969 C 554.042969 453.765625 558.757812 455.792969 565.015625 455.753906 C 570.171875 455.722656 576.371094 454.289062 583.613281 451.453125 C 592.164062 446.164062 596.378906 440.800781 596.257812 435.367188 C 596.96875 431.382812 595.796875 417.15625 592.742188 392.691406 C 593.761719 389.34375 596.4375 387.65625 600.773438 387.628906 C 602.453125 387.617188 604.378906 387.855469 606.554688 388.34375 C 616.867188 391.878906 623.730469 399.800781 627.148438 412.105469 C 630 421.21875 631.132812 435.554688 630.546875 455.121094 C 630.980469 459.097656 632.5625 463.6875 635.296875 468.890625 C 641.476562 476.695312 648.039062 480.578125 654.984375 480.535156 C 656.921875 480.523438 658.890625 480.203125 660.886719 479.582031 C 668.492188 475.273438 672.5625 469.371094 673.09375 461.875 C 673.824219 457.304688 671.660156 440.519531 666.601562 411.519531 C 667.242188 402.960938 669.609375 395.925781 673.703125 390.417969 C 675.460938 387.484375 677.390625 386.011719 679.496094 385.996094 C 680.847656 385.988281 682.273438 386.582031 683.773438 387.785156 C 685.898438 389.71875 688.792969 398.371094 692.449219 413.734375 C 693.660156 415.539062 695.511719 416.4375 698 416.421875 C 698.730469 416.417969 699.515625 416.335938 700.355469 416.171875 C 708.410156 411.671875 715.578125 405.144531 721.859375 396.585938 C 727.207031 353.960938 728.28125 321.589844 725.082031 299.472656 C 721.609375 274.554688 710.664062 262.148438 692.246094 262.265625 C 691.992188 262.265625 691.734375 262.269531 691.476562 262.277344 L 686.5 262.488281 C 679.890625 263.015625 673.730469 264.535156 668.023438 267.035156 C 666.425781 266.929688 664.855469 266.878906 663.308594 266.890625 C 662.707031 266.894531 662.109375 266.90625 661.511719 266.929688 L 614.089844 269.769531 C 610.386719 269.988281 607.054688 270.109375 604.101562 270.125 C 602.347656 270.136719 600.722656 270.113281 599.230469 270.054688 C 598.421875 269.972656 598.046875 269.847656 598.101562 269.679688 L 604.542969 255.558594 C 577.539062 253.933594 557.371094 253.164062 544.039062 253.246094 C 542.769531 253.253906 541.566406 253.269531 540.421875 253.292969 L 534.71875 253.359375 C 533.339844 253.328125 531.929688 253.316406 530.484375 253.324219 C 519.785156 253.390625 507.292969 254.554688 493.015625 256.8125 Z M 489.71875 234.898438 " fill-opacity="0.502" fill-rule="nonzero"/><path fill="#f798a9" d="M 720.4375 295.292969 L 719.050781 305.886719 C 712.316406 327.253906 692.324219 344.433594 659.078125 357.425781 C 625.601562 370.410156 586.121094 375.835938 540.632812 373.703125 C 497.214844 370.597656 462.441406 360.9375 436.320312 344.722656 C 427.953125 339.480469 421.050781 333.753906 415.613281 327.546875 L 408.75 317.960938 C 404.96875 311.363281 403.035156 304.460938 402.949219 297.261719 C 403.945312 275.15625 419.332031 256.675781 449.101562 241.816406 C 478.871094 226.957031 516.242188 219.109375 561.207031 218.273438 C 606.183594 218.550781 643.644531 225.933594 673.597656 240.421875 C 703.550781 254.910156 719.164062 273.199219 720.4375 295.292969 " fill-opacity="1" fill-rule="nonzero"/><path fill="#f27a8e" d="M 716.59375 290.617188 L 715.25 300.917969 C 708.703125 321.691406 689.265625 338.398438 656.941406 351.03125 C 624.390625 363.652344 586.003906 368.929688 541.777344 366.855469 C 499.5625 363.835938 465.753906 354.441406 440.359375 338.679688 C 432.21875 333.582031 425.507812 328.015625 420.222656 321.980469 L 413.550781 312.660156 C 409.875 306.242188 407.996094 299.535156 407.910156 292.53125 C 408.882812 271.039062 423.839844 253.070312 452.785156 238.625 C 481.730469 224.175781 518.0625 216.546875 561.78125 215.734375 C 605.507812 216.003906 641.933594 223.183594 671.058594 237.269531 C 700.179688 251.355469 715.359375 269.140625 716.59375 290.617188 " fill-opacity="1" fill-rule="nonzero"/><path fill="#e26479" d="M 640.914062 225.886719 C 650.339844 251.703125 652.375 280.0625 647.011719 310.960938 C 641.238281 318.066406 628.542969 321.679688 608.925781 321.800781 C 603.117188 321.839844 596.703125 321.570312 589.683594 320.992188 L 460.644531 267.210938 L 449.378906 263.757812 C 440.046875 260.832031 431.5 259.136719 423.734375 258.675781 L 423.730469 258.675781 C 413.746094 268.773438 408.472656 280.058594 407.910156 292.53125 C 407.996094 299.535156 409.875 306.242188 413.550781 312.660156 L 420.222656 321.980469 C 425.507812 328.015625 432.21875 333.582031 440.359375 338.679688 C 465.753906 354.441406 499.5625 363.835938 541.777344 366.855469 C 548.808594 367.183594 555.691406 367.328125 562.425781 367.285156 C 598.0625 367.066406 629.566406 361.648438 656.941406 351.03125 C 689.265625 338.398438 708.703125 321.691406 715.25 300.917969 L 716.59375 290.617188 C 715.359375 269.140625 700.179688 251.355469 671.058594 237.269531 C 661.753906 232.769531 651.707031 228.976562 640.914062 225.886719 Z M 640.914062 225.886719 " fill-opacity="0.502" fill-rule="nonzero"/><path fill="#ffc0cc" d="M 562.863281 201.5 L 561.574219 201.519531 C 556.550781 201.277344 547.179688 202.953125 533.46875 206.535156 C 522.199219 209.898438 515.328125 212.453125 512.855469 214.207031 C 507.007812 217.253906 500.335938 222.777344 492.839844 230.789062 L 488.714844 236.210938 C 486.230469 239.90625 484.277344 243.75 482.851562 247.753906 C 481.425781 251.757812 480.527344 255.914062 480.160156 260.222656 L 480.007812 266.808594 L 481.40625 272.523438 C 482.585938 276.15625 484.261719 279.433594 486.433594 282.355469 C 490.777344 288.199219 497.101562 292.625 505.410156 295.628906 C 509.210938 297.050781 514.210938 298.277344 520.40625 299.304688 C 521.242188 299.511719 523.355469 299.621094 526.75 299.640625 C 530.886719 299.867188 543.914062 298.832031 565.824219 296.542969 C 579.777344 295.253906 588.457031 293.914062 591.863281 292.523438 C 608.003906 287.730469 618.085938 279.667969 622.105469 268.332031 L 622.933594 265.703125 L 626.597656 234.6875 C 626.875 230.34375 625.738281 226.277344 623.1875 222.484375 C 620.734375 219.882812 618.273438 218.175781 615.804688 217.367188 C 612.703125 216.722656 607.59375 216.003906 600.464844 215.214844 C 595.175781 210.378906 590.03125 207.191406 585.035156 205.660156 C 577.714844 202.808594 570.320312 201.421875 562.863281 201.5 Z M 562.863281 201.5 " fill-opacity="1" fill-rule="nonzero"/><path fill="#f6a4b4" d="M 615.15625 217.222656 C 615.265625 219.601562 615.261719 221.601562 615.144531 223.214844 C 615.511719 224.828125 613.574219 233.886719 609.324219 250.386719 L 609.558594 270.136719 C 608.539062 274.207031 606.066406 277.269531 602.144531 279.324219 C 596.503906 281.921875 591.566406 283.238281 587.335938 283.273438 C 572.359375 279.300781 563.761719 277.320312 561.542969 277.335938 C 561.332031 277.335938 561.179688 277.355469 561.085938 277.394531 C 552.523438 277.988281 545.003906 278.308594 538.515625 278.347656 C 533.300781 278.382812 528.753906 278.234375 524.878906 277.90625 C 514.226562 279.464844 507.050781 280.359375 503.351562 280.578125 C 503.066406 280.585938 502.78125 280.589844 502.503906 280.589844 C 499.441406 280.609375 496.664062 280.351562 494.175781 279.808594 C 489.875 279.4375 486.628906 277.0625 484.441406 272.6875 L 480.925781 254.675781 C 480.210938 258.386719 479.902344 262.433594 480.007812 266.808594 C 481.019531 273.296875 483.667969 279.113281 487.957031 284.25 C 492.207031 289.164062 498.027344 292.957031 505.410156 295.628906 C 510.230469 297.296875 515.335938 298.546875 520.734375 299.371094 C 521.15625 299.523438 523.734375 299.625 528.457031 299.667969 C 528.683594 299.6875 529 299.699219 529.414062 299.695312 C 533.785156 299.667969 548.761719 298.328125 574.34375 295.675781 C 582.082031 294.800781 587.480469 293.90625 590.53125 292.984375 C 599.035156 290.394531 605.457031 287.464844 609.792969 284.195312 C 612.183594 282.484375 614.273438 280.613281 616.066406 278.578125 L 618.527344 275.402344 C 620.019531 273.207031 621.210938 270.851562 622.105469 268.332031 L 622.933594 265.703125 L 626.636719 233.25 C 626.601562 229.445312 625.453125 225.855469 623.1875 222.484375 C 621.28125 220.273438 618.820312 218.566406 615.804688 217.367188 C 615.617188 217.320312 615.398438 217.273438 615.15625 217.222656 Z M 615.15625 217.222656 " fill-opacity="0.502" fill-rule="nonzero"/><path fill="#537d40" d="M 546.964844 214.863281 C 536.007812 215.054688 526.097656 211.441406 517.234375 204.019531 C 510.25 197.730469 508.085938 190.78125 510.738281 183.164062 C 513.757812 176.730469 518.867188 178.746094 526.070312 189.21875 L 521.316406 176.25 C 520.746094 174.445312 520.40625 172.785156 520.304688 171.269531 C 520.21875 168.039062 521.773438 166.203125 524.96875 165.757812 C 526.542969 165.667969 528.289062 166.355469 530.199219 167.824219 C 531.453125 168.667969 534.148438 171.550781 538.285156 176.480469 C 538.9375 177.109375 539.539062 177.492188 540.09375 177.628906 C 540.8125 177.667969 541.429688 177.257812 541.9375 176.402344 C 543.667969 171.277344 544.941406 168.582031 545.757812 168.320312 C 547.164062 167.109375 548.914062 166.957031 551.007812 167.851562 C 554.082031 168.945312 556.640625 173.425781 558.675781 181.292969 C 558.957031 181.183594 559.253906 180.746094 559.566406 179.984375 C 561.417969 171.648438 563.203125 165.976562 564.925781 162.972656 C 566.574219 159.871094 568.753906 158.195312 571.464844 157.953125 C 574.347656 158.171875 576.390625 159.601562 577.589844 162.242188 C 578.179688 163.484375 578.632812 164.960938 578.960938 166.679688 L 580.484375 177.527344 C 580.96875 178.015625 581.578125 178.179688 582.316406 178.019531 C 585.289062 176.773438 587 176.191406 587.457031 176.273438 C 588.238281 176.226562 589.148438 176.472656 590.191406 177.015625 C 594.183594 179.917969 597.003906 183.457031 598.648438 187.628906 C 600.566406 194.289062 596.917969 203.101562 587.703125 214.066406 Z M 546.964844 214.863281 " fill-opacity="1" fill-rule="nonzero"/><path fill="#4d713d" d="M 525.425781 165.765625 C 524.40625 165.773438 523.371094 166.074219 522.320312 166.667969 C 520.492188 168.152344 519.878906 170.207031 520.484375 172.832031 L 521.316406 176.25 L 526.070312 189.21875 C 522.699219 184.601562 520.464844 181.996094 519.359375 181.398438 C 518.007812 180.144531 516.449219 179.523438 514.683594 179.535156 C 514.621094 179.535156 514.5625 179.539062 514.5 179.539062 C 513.007812 179.789062 511.753906 180.996094 510.738281 183.164062 C 509.558594 186.550781 509.332031 189.804688 510.058594 192.925781 C 509.941406 193.746094 511.019531 196.015625 513.292969 199.730469 C 514.15625 200.90625 515.175781 202.058594 516.347656 203.191406 C 516.777344 202.625 517.234375 202.078125 517.722656 201.554688 C 519.628906 199.179688 522.601562 196.640625 526.640625 193.941406 C 532.226562 191.335938 539.035156 187.320312 547.074219 181.894531 C 549.171875 180.761719 551.402344 179.925781 553.773438 179.382812 C 555.226562 179.066406 556.652344 178.890625 558.046875 178.851562 C 557.328125 176.519531 556.246094 174.003906 554.800781 171.316406 C 553.738281 169.53125 552.375 168.339844 550.710938 167.730469 C 549.90625 167.429688 549.15625 167.28125 548.457031 167.289062 C 547.324219 167.292969 546.328125 167.699219 545.46875 168.5 C 544.652344 169.210938 543.472656 171.847656 541.9375 176.402344 C 541.394531 177.226562 540.847656 177.636719 540.296875 177.640625 C 540.246094 177.640625 540.191406 177.636719 540.140625 177.628906 C 539.675781 177.574219 539.054688 177.1875 538.285156 176.480469 C 532.925781 170.15625 529.839844 166.996094 529.023438 167 C 529.019531 167 529.015625 167 529.011719 167 C 527.839844 166.171875 526.644531 165.757812 525.425781 165.765625 Z M 525.425781 165.765625 " fill-opacity="0.502" fill-rule="nonzero"/><path fill="#4d713d" d="M 571.621094 157.949219 C 571.566406 157.949219 571.515625 157.949219 571.464844 157.953125 L 570.582031 158.085938 C 569.429688 158.335938 568.378906 158.867188 567.4375 159.683594 C 566.6875 160.128906 565.660156 161.59375 564.351562 164.070312 C 562.882812 167.109375 561.371094 172.046875 559.8125 178.882812 C 560.4375 178.921875 561.054688 178.988281 561.667969 179.085938 C 569.949219 181.167969 576.25 182.363281 580.574219 182.664062 C 582.527344 183.167969 584.015625 183.691406 585.035156 184.234375 C 587.71875 185.484375 589.847656 187.359375 591.414062 189.851562 C 592.101562 190.902344 593.761719 194.730469 596.390625 201.339844 C 596.996094 200.117188 597.5 198.929688 597.90625 197.785156 C 599.253906 193.972656 599.5 190.589844 598.648438 187.628906 C 596.363281 182.675781 593.542969 179.140625 590.191406 177.015625 C 589.214844 176.507812 588.339844 176.253906 587.554688 176.261719 C 587.488281 176.261719 587.417969 176.261719 587.351562 176.265625 C 587.332031 176.257812 587.304688 176.25 587.261719 176.25 C 586.839844 176.253906 585.171875 176.847656 582.257812 178.03125 C 582.105469 178.066406 581.957031 178.085938 581.8125 178.085938 C 581.328125 178.089844 580.886719 177.902344 580.484375 177.527344 L 578.960938 166.679688 C 578.53125 164.636719 578.074219 163.15625 577.589844 162.242188 C 577.058594 161.070312 576.359375 160.136719 575.492188 159.441406 C 573.941406 158.4375 572.652344 157.941406 571.621094 157.949219 Z M 571.621094 157.949219 " fill-opacity="0.502" fill-rule="nonzero"/><path fill="#af2640" d="M 567.734375 182.964844 L 567.199219 182.96875 L 562.558594 183.261719 C 556.351562 184.546875 552.105469 185.28125 549.816406 185.457031 C 547.242188 185.800781 543.632812 186.015625 538.988281 186.113281 C 536.253906 186.589844 533.738281 187.484375 531.441406 188.792969 C 525.84375 192.433594 520.308594 196.9375 514.839844 202.304688 C 506.773438 206.464844 502.128906 209.15625 500.90625 210.378906 C 498.898438 212.472656 497.273438 214.886719 496.027344 217.625 C 494.066406 219.34375 491.988281 221.765625 489.800781 224.886719 C 487.585938 228.488281 486.386719 230.691406 486.199219 231.488281 C 482.144531 242.828125 482.46875 251.285156 487.175781 256.847656 L 488.453125 257.789062 L 503.566406 263.09375 C 511.4375 269.613281 516.675781 273.464844 519.285156 274.652344 C 522.898438 276.308594 526.691406 277.027344 530.671875 276.808594 C 533.351562 276.601562 538.828125 275.742188 547.097656 274.238281 C 558.851562 275.148438 566.578125 275.25 570.273438 274.535156 C 580.773438 271.632812 588.109375 269.296875 592.277344 267.519531 L 600.449219 263.898438 C 601.820312 263.199219 603.382812 261.964844 605.136719 260.203125 C 609.152344 256.628906 612.890625 251.023438 616.351562 243.390625 C 617.308594 240.925781 617.878906 238.609375 618.066406 236.4375 C 617.492188 227 617.132812 221.882812 616.980469 221.085938 C 616.457031 215.625 615.871094 211.980469 615.230469 210.160156 L 612.496094 206.246094 C 611.570312 204.894531 609.703125 203.691406 606.902344 202.632812 C 606.191406 202.308594 601.621094 201.605469 593.191406 200.523438 C 592.144531 200.253906 591.179688 199.925781 590.300781 199.53125 C 589.519531 199.226562 588.546875 198.332031 587.386719 196.84375 C 584.078125 190.707031 581.558594 187.09375 579.820312 186.007812 C 576.808594 183.816406 572.777344 182.800781 567.734375 182.964844 Z M 567.734375 182.964844 " fill-opacity="1" fill-rule="nonzero"/><path fill="#902035" d="M 567.734375 182.964844 L 567.199219 182.96875 L 562.582031 183.261719 C 563.28125 184.839844 563.894531 186.46875 564.414062 188.152344 C 566.292969 195.929688 571.898438 211.628906 581.226562 235.25 C 582.617188 242.953125 581.636719 248.5 578.28125 251.894531 C 572.605469 257.195312 565.230469 259.875 556.160156 259.929688 C 553.238281 259.949219 550.144531 259.695312 546.875 259.171875 C 541.578125 257.796875 536.777344 255.78125 532.472656 253.125 C 516.75 241.484375 507.167969 234.914062 503.730469 233.410156 C 497.761719 230.734375 492.410156 229.414062 487.671875 229.445312 C 487.488281 229.445312 487.304688 229.449219 487.125 229.453125 C 486.71875 230.203125 486.445312 230.773438 486.296875 231.171875 C 484.398438 236.527344 483.425781 241.105469 483.390625 244.898438 C 483.351562 246.847656 483.535156 248.65625 483.929688 250.320312 C 484.328125 251.984375 484.941406 253.507812 485.769531 254.886719 L 487.175781 256.847656 L 488.453125 257.789062 L 503.566406 263.09375 C 510.238281 268.722656 515.480469 272.578125 519.285156 274.652344 C 522.496094 276.125 525.851562 276.855469 529.355469 276.847656 C 532.167969 276.78125 538.085938 275.910156 547.097656 274.238281 C 554.011719 274.773438 559.53125 275.027344 563.660156 275.003906 C 565.765625 274.988281 567.511719 274.902344 568.890625 274.742188 C 576.035156 273.050781 583.328125 270.847656 590.769531 268.132812 L 600.914062 263.644531 C 602.441406 262.738281 604.292969 261.167969 606.464844 258.933594 C 609.980469 255.359375 613.273438 250.175781 616.351562 243.390625 C 617.175781 241.445312 617.746094 239.125 618.066406 236.4375 C 617.472656 226.5 617.054688 220.796875 616.804688 219.332031 C 616.324219 214.835938 615.800781 211.777344 615.230469 210.160156 L 612.152344 205.800781 C 611.269531 204.671875 609.394531 203.574219 606.523438 202.511719 C 605.128906 202.144531 600.683594 201.484375 593.191406 200.523438 C 592.019531 200.222656 590.964844 199.851562 590.035156 199.40625 C 589.300781 199.023438 588.417969 198.167969 587.386719 196.84375 C 583.527344 189.933594 581.007812 186.320312 579.820312 186.007812 C 577.691406 184.054688 573.660156 183.039062 567.734375 182.964844 Z M 567.734375 182.964844 " fill-opacity="0.502" fill-rule="nonzero"/><path fill="#f27a8e" d="M 579.980469 592.601562 L 578.597656 603.195312 C 571.863281 624.5625 551.871094 641.742188 518.625 654.734375 C 485.148438 667.71875 445.667969 673.144531 400.179688 671.011719 C 356.757812 667.90625 321.988281 658.246094 295.867188 642.03125 C 287.496094 636.789062 280.59375 631.0625 275.160156 624.855469 L 268.292969 615.273438 C 264.515625 608.671875 262.582031 601.769531 262.496094 594.570312 C 263.492188 572.464844 278.875 553.984375 308.648438 539.125 C 338.417969 524.265625 375.785156 516.417969 420.753906 515.582031 C 465.726562 515.859375 503.191406 523.242188 533.144531 537.730469 C 563.097656 552.21875 578.710938 570.507812 579.980469 592.601562 " fill-opacity="1" fill-rule="nonzero"/><path fill="#d45e71" d="M 578.234375 582.164062 C 574.136719 588.394531 569.765625 594.273438 565.113281 599.792969 C 556.796875 608.65625 546.644531 616.953125 534.65625 624.6875 C 508.101562 637.023438 482.835938 649.875 458.863281 663.242188 L 449.308594 667.332031 C 442.175781 669.582031 436.148438 670.722656 431.230469 670.753906 C 428.585938 670.769531 426.261719 670.464844 424.257812 669.839844 L 378.578125 650.695312 C 357.632812 647.90625 341.265625 645.132812 329.480469 642.375 L 277.949219 617.699219 C 274.054688 616.070312 270.617188 614.863281 267.636719 614.082031 C 267.847656 614.480469 268.066406 614.875 268.292969 615.269531 L 275.160156 624.855469 C 280.59375 631.0625 287.496094 636.789062 295.867188 642.03125 C 321.988281 658.246094 356.757812 667.90625 400.179688 671.011719 C 407.410156 671.351562 414.488281 671.5 421.414062 671.457031 C 458.066406 671.226562 490.46875 665.652344 518.625 654.734375 C 551.871094 641.742188 571.863281 624.5625 578.597656 603.195312 L 579.980469 592.601562 C 579.777344 589.023438 579.195312 585.542969 578.234375 582.164062 Z M 578.234375 582.164062 " fill-opacity="0.502" fill-rule="nonzero"/><path fill="#f8ddce" d="M 462.664062 405.097656 C 460.777344 406.441406 479.949219 405.585938 520.179688 402.535156 C 528.792969 402.335938 535.433594 402.664062 540.109375 403.523438 C 560.375 407.488281 573.429688 414.394531 579.265625 424.246094 C 584.273438 433.394531 585.902344 446.109375 584.152344 462.398438 C 584.597656 465.558594 579.78125 502.242188 569.703125 572.453125 C 568.148438 582.003906 566.414062 588.78125 564.507812 592.78125 C 558.730469 604.933594 543.050781 616.878906 517.464844 628.625 C 493.628906 633.285156 459.589844 636.035156 415.339844 636.867188 C 334.730469 637.296875 286.257812 623.824219 269.914062 596.445312 C 262.488281 582.703125 259.039062 554.996094 259.566406 513.332031 C 265.089844 452.980469 271.632812 420.78125 279.195312 416.734375 C 290.804688 406.738281 318.546875 398.378906 362.425781 391.65625 C 384.300781 388.085938 419.820312 387.90625 468.988281 391.113281 Z M 462.664062 405.097656 " fill-opacity="1" fill-rule="nonzero"/><path fill="#f8ddce" d="M 517.0625 412.71875 C 529.273438 401.53125 544.359375 396.648438 562.328125 398.070312 C 573.710938 399.027344 582.050781 407.667969 587.355469 423.984375 C 595.132812 454.066406 591.472656 511.585938 576.375 596.539062 C 567.304688 614.21875 549.773438 626.117188 523.785156 632.234375 C 475.320312 641.933594 440.460938 643.027344 419.210938 635.507812 Z M 517.0625 412.71875 " fill-opacity="1" fill-rule="nonzero"/><path fill="#f8ddce" d="M 571.933594 580.078125 C 563.542969 606.3125 546.152344 624.222656 519.753906 633.808594 C 492.117188 642.203125 449.882812 645.035156 393.054688 642.308594 C 349.457031 640.726562 317.878906 632.601562 298.320312 617.921875 C 280.367188 608.382812 273.265625 590.097656 277.011719 563.0625 Z M 571.933594 580.078125 " fill-opacity="1" fill-rule="nonzero"/><path fill="#f8ddce" d="M 354.164062 370.453125 C 311.441406 375.199219 282.042969 393.691406 265.964844 425.921875 C 260.097656 439.050781 256.816406 454.878906 256.125 473.410156 C 256.878906 545.421875 258.074219 581.101562 259.71875 580.441406 C 261.566406 592.59375 264.136719 600.488281 267.429688 604.117188 C 270.277344 608.050781 278.195312 612.464844 291.183594 617.363281 C 345.667969 636.78125 379.867188 642.3125 393.78125 633.949219 Z M 354.164062 370.453125 " fill-opacity="1" fill-rule="nonzero"/><path fill="#f8ddce" d="M 396.785156 634.664062 C 384.613281 638.941406 369.246094 640.027344 350.683594 637.925781 C 328.664062 635.367188 309.042969 629.863281 291.820312 621.421875 C 278.027344 614.683594 268.296875 606.738281 262.621094 597.582031 C 259 592.695312 259.660156 583.238281 264.601562 569.210938 Z M 396.785156 634.664062 " fill-opacity="1" fill-rule="nonzero"/><path fill="#f8ddce" d="M 517.0625 412.71875 C 529.273438 401.53125 544.359375 396.648438 562.328125 398.070312 C 573.710938 399.027344 582.050781 407.667969 587.355469 423.984375 C 595.132812 454.066406 591.472656 511.585938 576.375 596.539062 C 567.304688 614.21875 549.773438 626.117188 523.785156 632.234375 C 475.320312 641.933594 440.460938 643.027344 419.210938 635.507812 Z M 517.0625 412.71875 " fill-opacity="1" fill-rule="nonzero"/><path fill="#f8ddce" d="M 571.933594 580.078125 C 563.542969 606.3125 546.152344 624.222656 519.753906 633.808594 C 492.117188 642.203125 449.882812 645.035156 393.054688 642.308594 C 349.457031 640.726562 317.878906 632.601562 298.320312 617.921875 C 280.367188 608.382812 273.265625 590.097656 277.011719 563.0625 Z M 571.933594 580.078125 " fill-opacity="1" fill-rule="nonzero"/><path fill="#f1c8b1" d="M 354.164062 370.453125 L 340.417969 372.542969 C 322.746094 376.011719 307.707031 382.195312 295.296875 391.089844 C 289.09375 395.539062 283.546875 400.664062 278.65625 406.472656 L 271.816406 415.6875 L 265.964844 425.921875 L 264.105469 430.398438 C 259.398438 442.601562 256.738281 456.9375 256.125 473.410156 C 256.378906 497.84375 256.6875 518.09375 257.042969 534.164062 C 260.726562 533.804688 264.71875 532.914062 269.019531 531.492188 C 274.359375 529.304688 283.054688 518.496094 295.09375 499.054688 C 297.316406 497.289062 299.59375 496.398438 301.921875 496.382812 C 303.90625 496.371094 305.929688 496.992188 307.988281 498.25 C 311.835938 499.890625 314.003906 505.746094 314.492188 515.816406 C 307.082031 551.828125 304.3125 572.277344 306.183594 577.167969 C 308.171875 582.925781 310.902344 586.921875 314.367188 589.144531 C 320.972656 592.511719 327.054688 594.179688 332.609375 594.144531 C 333.371094 594.140625 334.125 594.105469 334.867188 594.035156 C 335.605469 594.136719 336.386719 594.183594 337.210938 594.179688 C 342.609375 594.144531 349.835938 591.828125 358.890625 587.234375 C 363.902344 584.34375 369.898438 578.648438 376.878906 570.152344 C 382.527344 563.484375 385.300781 547.828125 385.203125 523.175781 C 386.890625 518.820312 389.726562 516.605469 393.699219 516.523438 C 399.578125 517.59375 404.101562 523.015625 407.269531 532.789062 C 408.628906 536.472656 409.851562 550.128906 410.941406 573.761719 C 412.179688 579.832031 413.636719 583.652344 415.308594 585.222656 C 418.484375 589.320312 423.203125 591.347656 429.460938 591.308594 C 434.613281 591.277344 440.8125 589.84375 448.058594 587.003906 C 456.605469 581.714844 460.820312 576.355469 460.699219 570.921875 C 461.410156 566.933594 460.238281 552.710938 457.1875 528.246094 C 458.203125 524.898438 460.882812 523.207031 465.21875 523.183594 C 466.894531 523.171875 468.824219 523.410156 471 523.898438 C 481.3125 527.433594 488.175781 535.355469 491.589844 547.660156 C 494.441406 556.769531 495.578125 571.109375 494.992188 590.675781 C 495.421875 594.652344 497.003906 599.238281 499.742188 604.445312 C 505.921875 612.25 512.484375 616.132812 519.429688 616.089844 C 521.367188 616.078125 523.335938 615.757812 525.332031 615.136719 C 532.9375 610.828125 537.003906 604.925781 537.539062 597.429688 C 538.265625 592.859375 536.101562 576.074219 531.042969 547.074219 C 531.683594 538.515625 534.054688 531.480469 538.148438 525.972656 C 539.902344 523.039062 541.832031 521.5625 543.9375 521.550781 C 545.292969 521.542969 546.71875 522.136719 548.214844 523.335938 C 550.34375 525.273438 553.234375 533.925781 556.890625 549.285156 C 558.105469 551.09375 559.953125 551.992188 562.445312 551.976562 C 563.175781 551.972656 563.960938 551.890625 564.800781 551.726562 C 572.855469 547.226562 580.023438 540.699219 586.300781 532.140625 L 586.304688 532.140625 C 591.652344 489.515625 592.726562 457.144531 589.523438 435.027344 C 586.050781 410.105469 575.109375 397.703125 556.691406 397.816406 C 556.4375 397.820312 556.179688 397.824219 555.921875 397.828125 L 550.945312 398.042969 C 544.335938 398.570312 538.175781 400.085938 532.464844 402.589844 C 530.871094 402.484375 529.300781 402.433594 527.753906 402.445312 C 527.152344 402.449219 526.550781 402.460938 525.957031 402.484375 L 478.53125 405.324219 C 474.828125 405.542969 471.5 405.664062 468.546875 405.679688 C 466.789062 405.691406 465.164062 405.667969 463.675781 405.605469 C 462.867188 405.527344 462.488281 405.402344 462.542969 405.234375 L 468.988281 391.113281 C 441.984375 389.488281 421.8125 388.71875 408.480469 388.800781 C 407.214844 388.808594 406.011719 388.824219 404.867188 388.847656 L 399.164062 388.914062 C 397.785156 388.882812 396.375 388.871094 394.929688 388.878906 C 384.230469 388.945312 371.738281 390.109375 357.457031 392.367188 Z M 354.164062 370.453125 " fill-opacity="0.502" fill-rule="nonzero"/><path fill="#f798a9" d="M 584.878906 430.847656 L 583.496094 441.441406 C 576.761719 462.808594 556.769531 479.988281 523.523438 492.980469 C 490.046875 505.964844 450.5625 511.390625 405.074219 509.257812 C 361.65625 506.152344 326.886719 496.492188 300.765625 480.277344 C 292.394531 475.035156 285.492188 469.308594 280.054688 463.101562 L 273.191406 453.515625 C 269.414062 446.917969 267.480469 440.015625 267.394531 432.816406 C 268.390625 410.710938 283.773438 392.226562 313.546875 377.371094 C 343.316406 362.511719 380.683594 354.664062 425.652344 353.824219 C 470.625 354.105469 508.089844 361.488281 538.042969 375.976562 C 567.996094 390.464844 583.609375 408.753906 584.878906 430.847656 " fill-opacity="1" fill-rule="nonzero"/><path fill="#f27a8e" d="M 581.039062 426.171875 L 579.695312 436.472656 C 573.144531 457.246094 553.707031 473.953125 521.382812 486.582031 C 488.835938 499.207031 450.449219 504.484375 406.21875 502.410156 C 364.003906 499.390625 330.199219 489.996094 304.800781 474.234375 C 296.664062 469.136719 289.953125 463.570312 284.667969 457.53125 L 277.992188 448.214844 C 274.320312 441.796875 272.4375 435.089844 272.355469 428.085938 C 273.324219 406.59375 288.28125 388.625 317.226562 374.179688 C 346.171875 359.730469 382.503906 352.101562 426.226562 351.289062 C 469.953125 351.558594 506.378906 358.738281 535.5 372.824219 C 564.621094 386.910156 579.800781 404.695312 581.039062 426.171875 " fill-opacity="1" fill-rule="nonzero"/><path fill="#e26479" d="M 505.359375 361.441406 C 514.785156 387.257812 516.816406 415.617188 511.457031 446.515625 C 505.683594 453.621094 492.988281 457.234375 473.367188 457.355469 C 467.5625 457.394531 461.148438 457.121094 454.128906 456.546875 L 325.089844 402.765625 L 313.820312 399.3125 C 304.488281 396.386719 295.941406 394.691406 288.175781 394.226562 C 278.191406 404.328125 272.917969 415.613281 272.355469 428.085938 C 272.4375 435.089844 274.320312 441.796875 277.992188 448.214844 L 284.667969 457.53125 C 289.953125 463.570312 296.664062 469.136719 304.800781 474.234375 C 330.199219 489.996094 364.003906 499.390625 406.21875 502.410156 C 413.25 502.738281 420.132812 502.882812 426.867188 502.839844 C 462.503906 502.621094 494.007812 497.199219 521.382812 486.582031 C 553.707031 473.953125 573.144531 457.246094 579.695312 436.472656 L 581.039062 426.171875 C 579.800781 404.695312 564.621094 386.910156 535.5 372.824219 C 526.199219 368.324219 516.152344 364.53125 505.359375 361.441406 Z M 505.359375 361.441406 " fill-opacity="0.502" fill-rule="nonzero"/><path fill="#ffc0cc" d="M 427.304688 337.054688 L 426.019531 337.074219 C 420.992188 336.832031 411.625 338.503906 397.910156 342.089844 C 386.644531 345.453125 379.773438 348.007812 377.300781 349.761719 C 371.453125 352.808594 364.78125 358.332031 357.28125 366.34375 L 353.160156 371.765625 C 350.675781 375.457031 348.71875 379.304688 347.292969 383.308594 C 345.867188 387.308594 344.972656 391.46875 344.605469 395.777344 L 344.449219 402.359375 L 345.851562 408.078125 C 347.03125 411.710938 348.707031 414.988281 350.878906 417.910156 C 355.222656 423.753906 361.546875 428.179688 369.851562 431.183594 C 373.65625 432.605469 378.65625 433.832031 384.851562 434.859375 C 385.683594 435.066406 387.800781 435.175781 391.191406 435.191406 C 395.332031 435.417969 408.355469 434.386719 430.265625 432.097656 C 444.21875 430.808594 452.898438 429.46875 456.304688 428.078125 C 472.449219 423.285156 482.527344 415.222656 486.546875 403.886719 L 487.378906 401.257812 L 491.039062 370.242188 C 491.316406 365.898438 490.179688 361.832031 487.632812 358.039062 C 485.179688 355.4375 482.714844 353.730469 480.246094 352.921875 C 477.148438 352.277344 472.035156 351.558594 464.910156 350.765625 C 459.621094 345.929688 454.476562 342.746094 449.480469 341.214844 C 442.15625 338.363281 434.765625 336.976562 427.304688 337.054688 Z M 427.304688 337.054688 " fill-opacity="1" fill-rule="nonzero"/><path fill="#f6a4b4" d="M 479.597656 352.777344 C 479.707031 355.15625 479.703125 357.15625 479.589844 358.769531 C 479.957031 360.382812 478.015625 369.441406 473.769531 385.941406 L 474 405.691406 C 472.984375 409.761719 470.511719 412.824219 466.589844 414.878906 C 460.945312 417.476562 456.007812 418.792969 451.777344 418.828125 C 436.800781 414.855469 428.203125 412.875 425.988281 412.890625 C 425.777344 412.890625 425.625 412.910156 425.527344 412.949219 C 416.96875 413.542969 409.445312 413.863281 402.960938 413.902344 C 397.742188 413.9375 393.195312 413.789062 389.320312 413.460938 C 378.671875 415.019531 371.496094 415.910156 367.796875 416.132812 C 367.507812 416.140625 367.226562 416.144531 366.945312 416.144531 C 363.882812 416.164062 361.109375 415.902344 358.621094 415.363281 C 354.316406 414.988281 351.074219 412.617188 348.882812 408.242188 L 345.371094 390.230469 C 344.652344 393.941406 344.347656 397.984375 344.449219 402.359375 C 345.460938 408.851562 348.109375 414.667969 352.398438 419.804688 C 356.652344 424.71875 362.46875 428.511719 369.851562 431.183594 C 374.671875 432.851562 379.78125 434.101562 385.175781 434.925781 C 385.601562 435.078125 388.175781 435.179688 392.902344 435.222656 C 393.125 435.242188 393.445312 435.253906 393.855469 435.25 C 398.226562 435.222656 413.203125 433.882812 438.789062 431.230469 C 446.527344 430.355469 451.921875 429.460938 454.976562 428.539062 C 463.480469 425.949219 469.902344 423.019531 474.238281 419.75 C 476.625 418.039062 478.71875 416.164062 480.507812 414.132812 L 482.96875 410.957031 C 484.460938 408.761719 485.65625 406.40625 486.546875 403.886719 L 487.378906 401.257812 L 491.082031 368.804688 C 491.046875 365 489.898438 361.410156 487.632812 358.039062 C 485.726562 355.828125 483.261719 354.121094 480.246094 352.921875 C 480.058594 352.875 479.84375 352.828125 479.597656 352.777344 Z M 479.597656 352.777344 " fill-opacity="0.502" fill-rule="nonzero"/><path fill="#537d40" d="M 411.40625 350.417969 C 400.449219 350.609375 390.539062 346.996094 381.675781 339.574219 C 374.695312 333.285156 372.53125 326.335938 375.183594 318.71875 C 378.199219 312.285156 383.308594 314.300781 390.511719 324.773438 L 385.761719 311.804688 C 385.1875 310 384.851562 308.339844 384.746094 306.824219 C 384.664062 303.59375 386.21875 301.757812 389.410156 301.3125 C 390.988281 301.222656 392.730469 301.910156 394.640625 303.378906 C 395.894531 304.222656 398.589844 307.105469 402.726562 312.035156 C 403.382812 312.664062 403.984375 313.046875 404.535156 313.183594 C 405.257812 313.222656 405.871094 312.8125 406.382812 311.957031 C 408.109375 306.832031 409.382812 304.136719 410.203125 303.875 C 411.605469 302.664062 413.355469 302.507812 415.453125 303.40625 C 418.527344 304.5 421.082031 308.976562 423.121094 316.847656 C 423.402344 316.738281 423.699219 316.300781 424.011719 315.539062 C 425.859375 307.199219 427.648438 301.53125 429.371094 298.527344 C 431.015625 295.425781 433.195312 293.75 435.90625 293.507812 C 438.792969 293.726562 440.835938 295.15625 442.035156 297.796875 C 442.621094 299.039062 443.078125 300.515625 443.402344 302.234375 L 444.925781 313.082031 C 445.410156 313.566406 446.023438 313.734375 446.757812 313.574219 C 449.730469 312.328125 451.445312 311.746094 451.898438 311.828125 C 452.683594 311.78125 453.59375 312.027344 454.632812 312.570312 C 458.628906 315.472656 461.449219 319.011719 463.09375 323.183594 C 465.011719 329.84375 461.359375 338.65625 452.144531 349.621094 Z M 411.40625 350.417969 " fill-opacity="1" fill-rule="nonzero"/><path fill="#4d713d" d="M 389.871094 301.320312 C 388.851562 301.328125 387.816406 301.628906 386.765625 302.21875 C 384.933594 303.707031 384.324219 305.761719 384.929688 308.386719 L 385.761719 311.804688 L 390.511719 324.773438 C 387.144531 320.15625 384.90625 317.550781 383.804688 316.953125 C 382.453125 315.699219 380.894531 315.078125 379.128906 315.089844 C 379.066406 315.089844 379.003906 315.089844 378.945312 315.09375 C 377.453125 315.34375 376.199219 316.550781 375.183594 318.71875 C 374.003906 322.105469 373.777344 325.359375 374.5 328.480469 C 374.382812 329.300781 375.460938 331.570312 377.734375 335.285156 C 378.601562 336.460938 379.617188 337.613281 380.792969 338.746094 C 381.21875 338.179688 381.679688 337.632812 382.164062 337.109375 C 384.070312 334.734375 387.046875 332.195312 391.085938 329.496094 C 396.667969 326.890625 403.480469 322.875 411.519531 317.449219 C 413.613281 316.316406 415.847656 315.480469 418.21875 314.9375 C 419.671875 314.621094 421.097656 314.445312 422.488281 314.40625 C 421.769531 312.070312 420.6875 309.558594 419.242188 306.871094 C 418.183594 305.085938 416.820312 303.890625 415.152344 303.285156 C 414.351562 302.984375 413.597656 302.835938 412.898438 302.839844 C 411.769531 302.847656 410.773438 303.253906 409.910156 304.050781 C 409.09375 304.765625 407.917969 307.402344 406.382812 311.957031 C 405.839844 312.78125 405.292969 313.191406 404.742188 313.195312 C 404.6875 313.195312 404.636719 313.191406 404.582031 313.183594 C 404.117188 313.128906 403.5 312.742188 402.726562 312.035156 C 397.371094 305.710938 394.28125 302.550781 393.464844 302.554688 C 393.460938 302.554688 393.460938 302.554688 393.457031 302.554688 C 392.285156 301.722656 391.089844 301.3125 389.871094 301.320312 Z M 389.871094 301.320312 " fill-opacity="0.502" fill-rule="nonzero"/><path fill="#4d713d" d="M 436.0625 293.5 C 436.011719 293.503906 435.960938 293.503906 435.90625 293.507812 L 435.023438 293.640625 C 433.871094 293.890625 432.824219 294.421875 431.882812 295.238281 C 431.132812 295.683594 430.101562 297.148438 428.792969 299.625 C 427.328125 302.664062 425.816406 307.601562 424.257812 314.4375 C 424.882812 314.476562 425.5 314.542969 426.109375 314.640625 C 434.390625 316.722656 440.695312 317.917969 445.019531 318.21875 C 446.972656 318.722656 448.460938 319.246094 449.480469 319.789062 C 452.164062 321.039062 454.289062 322.914062 455.859375 325.40625 C 456.542969 326.457031 458.203125 330.285156 460.835938 336.894531 C 461.441406 335.667969 461.945312 334.484375 462.351562 333.339844 C 463.699219 329.527344 463.945312 326.140625 463.09375 323.183594 C 460.808594 318.230469 457.988281 314.695312 454.632812 312.570312 C 453.660156 312.0625 452.78125 311.808594 452 311.8125 C 451.929688 311.816406 451.863281 311.816406 451.792969 311.820312 C 451.777344 311.8125 451.746094 311.804688 451.707031 311.804688 C 451.28125 311.808594 449.613281 312.402344 446.699219 313.585938 C 446.546875 313.621094 446.398438 313.640625 446.253906 313.640625 C 445.769531 313.644531 445.328125 313.457031 444.925781 313.082031 L 443.402344 302.234375 C 442.976562 300.191406 442.519531 298.710938 442.035156 297.796875 C 441.5 296.625 440.800781 295.691406 439.933594 294.996094 C 438.382812 293.992188 437.09375 293.496094 436.0625 293.5 Z M 436.0625 293.5 " fill-opacity="0.502" fill-rule="nonzero"/><path fill="#af2640" d="M 432.179688 318.519531 L 431.644531 318.523438 L 427.003906 318.816406 C 420.796875 320.101562 416.550781 320.835938 414.261719 321.011719 C 411.683594 321.351562 408.074219 321.570312 403.433594 321.667969 C 400.695312 322.144531 398.179688 323.039062 395.886719 324.347656 C 390.285156 327.988281 384.75 332.492188 379.285156 337.859375 C 371.214844 342.019531 366.570312 344.710938 365.351562 345.933594 C 363.34375 348.027344 361.714844 350.441406 360.472656 353.179688 C 358.507812 354.898438 356.433594 357.320312 354.246094 360.441406 C 352.03125 364.042969 350.828125 366.246094 350.640625 367.042969 C 346.589844 378.382812 346.914062 386.835938 351.617188 392.402344 L 352.894531 393.34375 L 368.007812 398.648438 C 375.878906 405.167969 381.121094 409.019531 383.730469 410.207031 C 387.339844 411.863281 391.136719 412.582031 395.117188 412.363281 C 397.796875 412.152344 403.269531 411.296875 411.542969 409.789062 C 423.296875 410.703125 431.023438 410.800781 434.71875 410.089844 C 445.21875 407.1875 452.550781 404.847656 456.71875 403.074219 L 464.890625 399.453125 C 466.265625 398.753906 467.828125 397.519531 469.578125 395.753906 C 473.59375 392.183594 477.332031 386.578125 480.792969 378.945312 C 481.75 376.480469 482.324219 374.164062 482.507812 371.992188 C 481.9375 362.554688 481.574219 357.433594 481.425781 356.636719 C 480.898438 351.179688 480.316406 347.535156 479.675781 345.710938 L 476.9375 341.800781 C 476.011719 340.449219 474.148438 339.246094 471.347656 338.1875 C 470.636719 337.863281 466.066406 337.15625 457.636719 336.078125 C 456.585938 335.808594 455.625 335.476562 454.746094 335.085938 C 453.960938 334.78125 452.992188 333.886719 451.832031 332.398438 C 448.523438 326.261719 446 322.648438 444.265625 321.558594 C 441.25 319.367188 437.222656 318.355469 432.179688 318.519531 Z M 432.179688 318.519531 " fill-opacity="1" fill-rule="nonzero"/><path fill="#902035" d="M 432.179688 318.519531 L 431.644531 318.523438 L 427.023438 318.8125 C 427.726562 320.394531 428.339844 322.023438 428.859375 323.703125 C 430.738281 331.480469 436.339844 347.183594 445.671875 370.804688 C 447.0625 378.507812 446.078125 384.054688 442.726562 387.449219 C 437.046875 392.75 429.675781 395.429688 420.601562 395.484375 C 417.683594 395.503906 414.589844 395.25 411.316406 394.726562 C 406.019531 393.351562 401.222656 391.335938 396.917969 388.679688 C 381.195312 377.039062 371.613281 370.464844 368.171875 368.964844 C 362.207031 366.289062 356.851562 364.96875 352.113281 364.996094 C 351.929688 365 351.75 365.003906 351.566406 365.007812 C 351.164062 365.757812 350.890625 366.328125 350.742188 366.722656 C 348.839844 372.082031 347.871094 376.660156 347.832031 380.453125 C 347.796875 382.402344 347.976562 384.210938 348.375 385.875 C 348.769531 387.539062 349.382812 389.0625 350.210938 390.441406 L 351.617188 392.402344 L 352.894531 393.34375 L 368.007812 398.648438 C 374.683594 404.277344 379.921875 408.132812 383.730469 410.207031 C 386.9375 411.679688 390.296875 412.410156 393.796875 412.402344 C 396.613281 412.335938 402.527344 411.464844 411.542969 409.789062 C 418.457031 410.328125 423.976562 410.582031 428.101562 410.558594 C 430.210938 410.542969 431.957031 410.457031 433.335938 410.296875 C 440.480469 408.605469 447.769531 406.402344 455.214844 403.6875 L 465.355469 399.199219 C 466.886719 398.292969 468.734375 396.722656 470.90625 394.488281 C 474.421875 390.914062 477.71875 385.730469 480.792969 378.945312 C 481.621094 377 482.191406 374.679688 482.507812 371.992188 C 481.917969 362.054688 481.496094 356.351562 481.246094 354.886719 C 480.769531 350.390625 480.246094 347.332031 479.675781 345.710938 L 476.59375 341.355469 C 475.710938 340.226562 473.835938 339.128906 470.964844 338.066406 C 469.574219 337.699219 465.128906 337.039062 457.636719 336.078125 C 456.464844 335.777344 455.410156 335.402344 454.476562 334.960938 C 453.746094 334.578125 452.863281 333.722656 451.832031 332.398438 C 447.972656 325.488281 445.449219 321.875 444.265625 321.558594 C 442.132812 319.609375 438.105469 318.59375 432.179688 318.519531 Z M 432.179688 318.519531 " fill-opacity="0.502" fill-rule="nonzero"/></svg>